<svg width="2753" height="646" viewBox="0 0 2753 646" fill="none" xmlns="http://www.w3.org/2000/svg">
<g opacity="0.5">
<path d="M2138.15 46.025C2140.13 46.025 2142.11 45.675 2143.98 44.9751L2141.41 38.0926C2137.91 39.3757 2133.95 38.5592 2131.27 35.8761C2128.7 33.3097 2127.77 29.3435 2129.05 25.7272C2131.27 19.5446 2129.75 12.5454 2125.2 7.87921C2120.53 3.21305 2113.53 1.69655 2107.35 3.91298L2109.92 10.7956C2113.42 9.51236 2117.38 10.3289 2120.07 13.012C2122.63 15.5784 2123.57 19.5446 2122.28 23.1609C2120.07 29.3435 2121.58 36.3427 2126.25 41.0089C2129.4 44.2752 2133.71 46.025 2138.15 46.025Z" fill="#03498A"/>
<path d="M1361.35 440.548C1363.33 440.548 1365.32 440.198 1367.18 439.499L1364.62 432.616C1361.12 433.899 1357.15 433.083 1354.47 430.4C1351.9 427.833 1350.97 423.867 1352.25 420.251C1354.47 414.068 1352.95 407.069 1348.29 402.403C1343.62 397.736 1336.62 396.22 1330.44 398.436L1333 405.319C1336.5 404.036 1340.47 404.852 1343.15 407.535C1345.72 410.102 1346.65 414.068 1345.37 417.684C1343.15 423.867 1344.67 430.866 1349.34 435.532C1352.6 438.915 1356.92 440.548 1361.35 440.548Z" fill="#03498A"/>
<path d="M1440.68 221.475C1442.66 221.475 1444.64 221.125 1446.51 220.425L1443.94 213.542C1440.44 214.825 1436.48 214.009 1433.79 211.326C1431.23 208.759 1430.29 204.793 1431.58 201.177C1433.79 194.994 1432.28 187.995 1427.73 183.329C1423.06 178.663 1416.06 177.146 1409.88 179.479L1412.44 186.362C1415.94 185.079 1419.91 185.895 1422.59 188.578C1425.16 191.145 1426.09 195.111 1424.81 198.727C1422.59 204.91 1424.11 211.909 1428.78 216.575C1431.93 219.725 1436.24 221.475 1440.68 221.475Z" fill="#03498A"/>
<path d="M2130.1 170.963C2132.08 170.963 2134.07 170.613 2135.93 169.913L2133.37 163.03C2129.87 164.313 2125.9 163.497 2123.22 160.814C2120.65 158.247 2119.72 154.281 2121 150.665C2123.22 144.482 2121.7 137.483 2117.03 132.817C2112.37 128.151 2105.37 126.634 2099.19 128.85L2101.75 135.733C2105.25 134.45 2109.22 135.266 2111.9 137.949C2114.47 140.516 2115.4 144.482 2114.12 148.098C2111.9 154.281 2113.42 161.28 2118.08 165.946C2121.35 169.213 2125.67 170.963 2130.1 170.963Z" fill="#03498A"/>
<path d="M1595.73 368.115C1597.71 368.115 1599.7 367.765 1601.56 367.065L1599 360.182C1595.5 361.466 1591.53 360.649 1588.85 357.966C1586.28 355.4 1585.35 351.433 1586.63 347.817C1588.85 341.634 1587.33 334.635 1582.67 329.969C1578 325.303 1571 323.786 1564.82 326.003L1567.38 332.885C1570.88 331.602 1574.85 332.419 1577.53 335.102C1580.1 337.668 1581.03 341.634 1579.75 345.251C1577.53 351.433 1579.05 358.433 1583.72 363.099C1586.98 366.365 1591.42 368.115 1595.73 368.115Z" fill="#03498A"/>
<path d="M1641.55 225.787C1643.54 225.787 1645.52 225.437 1647.39 224.737L1644.82 217.854C1641.32 219.138 1637.35 218.321 1634.67 215.638C1632.11 213.072 1631.17 209.105 1632.46 205.489C1634.67 199.306 1633.16 192.307 1628.49 187.641C1623.82 182.975 1616.82 181.458 1610.64 183.675C1607.14 184.958 1603.17 184.142 1600.49 181.458C1597.93 178.892 1596.99 174.926 1598.28 171.31C1600.49 165.127 1598.98 158.128 1594.31 153.462C1589.64 148.795 1582.64 147.279 1576.46 149.495C1572.96 150.779 1569 149.962 1566.31 147.279C1563.75 144.713 1562.81 140.746 1564.1 137.13C1566.31 130.947 1564.8 123.948 1560.13 119.282C1555.46 114.616 1548.46 113.099 1542.28 115.432C1538.78 116.716 1534.82 115.899 1532.13 113.216C1529.57 110.65 1528.63 106.683 1529.92 103.067C1532.13 96.8844 1530.62 89.8852 1525.95 85.2191C1521.28 80.5529 1514.28 79.0364 1508.1 81.2528L1510.67 88.1354C1514.17 86.8522 1518.13 87.6688 1520.82 90.3518C1523.38 93.0349 1524.32 96.8844 1523.03 100.501C1520.82 106.683 1522.33 113.683 1527 118.349C1531.67 123.015 1538.67 124.531 1544.85 122.315C1548.35 121.032 1552.31 121.848 1555 124.531C1557.56 127.098 1558.5 131.064 1557.21 134.68C1555 140.863 1556.51 147.862 1561.18 152.528C1565.85 157.194 1572.84 158.711 1579.03 156.495C1582.53 155.211 1586.49 156.028 1589.18 158.711C1591.74 161.277 1592.68 165.244 1591.39 168.86C1589.18 175.043 1590.69 182.042 1595.36 186.708C1600.03 191.374 1607.02 192.891 1613.21 190.674C1616.71 189.391 1620.67 190.207 1623.36 192.891C1625.92 195.457 1626.86 199.423 1625.57 203.039C1623.36 209.222 1624.87 216.221 1629.54 220.887C1632.81 224.037 1637.12 225.787 1641.55 225.787Z" fill="#03498A"/>
<path d="M1973.73 259.223C1975.71 259.223 1977.7 258.873 1979.56 258.173L1977 251.291C1973.5 252.574 1969.53 251.757 1966.85 249.074C1964.28 246.508 1963.35 242.542 1964.63 238.926C1966.85 232.743 1965.33 225.744 1960.67 221.078C1956 216.411 1949 214.895 1942.82 217.111C1939.32 218.394 1935.35 217.578 1932.67 214.895C1930.1 212.328 1929.17 208.362 1930.45 204.746C1932.67 198.563 1931.15 191.564 1926.49 186.898C1921.82 182.232 1914.82 180.715 1908.64 182.932C1905.14 184.215 1901.17 183.398 1898.49 180.715C1895.92 178.149 1894.99 174.183 1896.27 170.566L1889.39 168C1887.17 174.183 1888.69 181.182 1893.36 185.848C1898.02 190.514 1905.02 192.031 1911.21 189.814C1914.7 188.531 1918.67 189.348 1921.35 192.031C1923.92 194.597 1924.85 198.563 1923.57 202.18C1921.35 208.362 1922.87 215.361 1927.54 220.028C1932.2 224.694 1939.2 226.21 1945.38 223.994C1948.88 222.711 1952.85 223.527 1955.53 226.21C1958.1 228.777 1959.03 232.743 1957.75 236.359C1955.53 242.542 1957.05 249.541 1961.72 254.207C1964.98 257.473 1969.3 259.223 1973.73 259.223Z" fill="#03498A"/>
<path d="M1687.05 122.782C1689.03 122.782 1691.01 122.432 1692.88 121.732L1690.31 114.849C1686.81 116.133 1682.85 115.316 1680.17 112.633C1677.6 109.95 1676.67 106.1 1677.95 102.484C1680.17 96.3015 1678.65 89.3022 1673.98 84.6361C1669.32 79.9699 1662.32 78.4534 1656.13 80.6699C1652.64 81.953 1648.67 81.1365 1645.99 78.4534C1643.42 75.8871 1642.49 71.9208 1643.77 68.3045C1645.99 62.1219 1644.47 55.1227 1639.8 50.4565C1635.14 45.7904 1628.14 44.2739 1621.96 46.4903C1618.46 47.7735 1614.49 46.9569 1611.81 44.2739C1609.24 41.7075 1608.31 37.7412 1609.59 34.125L1602.71 31.5586C1600.49 37.7412 1602.01 44.7405 1606.67 49.4066C1611.34 54.0728 1618.34 55.5893 1624.52 53.3729C1628.02 52.0897 1631.99 52.9062 1634.67 55.5893C1637.24 58.1557 1638.17 62.1219 1636.89 65.7382C1634.67 71.9208 1636.19 78.92 1640.85 83.5862C1645.52 88.2524 1652.52 89.7689 1658.7 87.4358C1662.2 86.1526 1666.17 86.9692 1668.85 89.6522C1671.42 92.2186 1672.35 96.1848 1671.07 99.8011C1668.85 105.984 1670.37 112.983 1675.03 117.649C1678.18 121.032 1682.62 122.782 1687.05 122.782Z" fill="#03498A"/>
<path d="M2215.26 588.231C2217.47 582.048 2215.96 575.049 2211.29 570.383C2206.62 565.717 2199.63 564.2 2193.44 566.417C2189.94 567.7 2185.98 566.883 2183.29 564.2C2180.73 561.634 2179.79 557.668 2181.08 554.051C2183.29 547.869 2181.78 540.87 2177.11 536.203C2172.45 531.537 2165.45 530.021 2159.26 532.237L2161.83 539.12C2165.33 537.837 2169.3 538.653 2171.98 541.336C2174.54 543.903 2175.48 547.869 2174.19 551.485C2171.98 557.668 2173.49 564.667 2178.16 569.333C2182.83 573.999 2189.83 575.516 2196.01 573.183C2199.51 571.9 2203.47 572.716 2206.16 575.399C2208.72 578.082 2209.66 581.932 2208.37 585.548L2215.26 588.231Z" fill="#03498A"/>
<path d="M1459.34 329.379C1461.56 323.197 1460.04 316.198 1455.37 311.531C1450.71 306.865 1443.71 305.349 1437.53 307.565C1434.03 308.848 1430.06 308.032 1427.38 305.349C1424.81 302.782 1423.88 298.816 1425.16 295.2C1427.38 289.017 1425.86 282.018 1421.2 277.352C1416.53 272.686 1409.53 271.169 1403.35 273.386L1405.91 280.268C1409.41 278.985 1413.38 279.802 1416.06 282.485C1418.63 285.051 1419.56 289.017 1418.28 292.634C1416.06 298.816 1417.58 305.815 1422.24 310.482C1426.91 315.148 1433.91 316.664 1440.09 314.448C1443.59 313.165 1447.56 313.981 1450.24 316.664C1452.81 319.231 1453.74 323.197 1452.46 326.813L1459.34 329.379Z" fill="#03498A"/>
<path d="M2652.01 299.165C2654.23 292.983 2652.71 285.983 2648.04 281.317C2643.38 276.651 2636.38 275.134 2630.19 277.468C2626.7 278.751 2622.73 277.934 2620.05 275.251C2617.48 272.685 2616.55 268.719 2617.83 265.102C2620.05 258.92 2618.53 251.92 2613.86 247.254C2609.2 242.588 2602.2 241.072 2596.02 243.288L2598.58 250.171C2602.08 248.887 2606.05 249.704 2608.73 252.387C2611.3 254.953 2612.23 258.92 2610.95 262.536C2608.73 268.719 2610.25 275.718 2614.91 280.384C2619.58 285.05 2626.58 286.567 2632.76 284.35C2636.26 283.067 2640.23 283.883 2642.91 286.567C2645.48 289.133 2646.41 293.099 2645.13 296.715L2652.01 299.165Z" fill="#03498A"/>
<path d="M1823.31 202.256L1857.88 236.812L1852.68 242.011L1818.11 207.454L1823.31 202.256Z" fill="#03498A"/>
<path d="M1486.65 272.451L1521.2 307.027L1516 312.222L1481.45 277.646L1486.65 272.451Z" fill="#03498A"/>
<path d="M2111.43 332.458L2187.77 408.883L2182.57 414.077L2106.23 337.651L2111.43 332.458Z" fill="#03498A"/>
<path d="M2451.78 262.705L2486.35 297.262L2481.16 302.46L2446.58 267.903L2451.78 262.705Z" fill="#03498A"/>
<path d="M1869.26 15.0302L1903.81 49.6016L1898.61 54.7967L1864.06 20.2254L1869.26 15.0302Z" fill="#03498A"/>
<path d="M2020.38 76.371L2054.94 110.938L2049.74 116.133L2015.19 81.5669L2020.38 76.371Z" fill="#03498A"/>
<path d="M2312.25 -0.00202851L2346.82 34.5547L2341.62 39.752L2307.05 5.19532L2312.25 -0.00202851Z" fill="#03498A"/>
<path d="M1395.3 1.30654L1429.87 35.8633L1424.68 41.0614L1390.1 6.50463L1395.3 1.30654Z" fill="#03498A"/>
<path d="M2453.61 370.233L2542.15 458.703L2536.96 463.902L2448.41 375.432L2453.61 370.233Z" fill="#03498A"/>
<path d="M1279.03 281.001L1367.56 369.496L1362.37 374.694L1273.84 286.199L1279.03 281.001Z" fill="#03498A"/>
<path d="M2638.98 152.247L2727.5 240.742L2722.31 245.94L2633.79 157.445L2638.98 152.247Z" fill="#03498A"/>
<path d="M1920.41 111.987L2056.08 247.695L2050.88 252.891L1915.21 117.183L1920.41 111.987Z" fill="#03498A"/>
<path d="M1192.23 330.545L1327.92 466.234L1322.72 471.431L1187.03 335.742L1192.23 330.545Z" fill="#03498A"/>
<path d="M2576.2 24.4669L2711.89 160.156L2706.7 165.353L2571.01 29.6635L2576.2 24.4669Z" fill="#03498A"/>
<path d="M1533.94 401.999L1568.52 436.551L1563.32 441.749L1528.75 407.197L1533.94 401.999Z" fill="#03498A"/>
<path d="M1569.56 442.857V417.543H1562.22V435.508H1544.25V442.857H1569.56Z" fill="#03498A"/>
<path d="M2102.77 433.582L2137.33 468.148L2132.13 473.344L2097.57 438.778L2102.77 433.582Z" fill="#03498A"/>
<path d="M2138.38 474.376V449.062H2131.03V467.027H2113.07V474.376H2138.38Z" fill="#03498A"/>
<path d="M1031.97 406.001L1066.53 440.562L1061.33 445.759L1026.77 411.197L1031.97 406.001Z" fill="#03498A"/>
<path d="M1067.56 446.896V421.582H1060.22V439.43H1042.25V446.896H1067.56Z" fill="#03498A"/>
<path d="M2478.9 90.3476L2513.46 124.914L2508.26 130.11L2473.7 95.5434L2478.9 90.3476Z" fill="#03498A"/>
<path d="M2514.59 131.298V105.984H2507.12V123.949L2489.28 123.832V131.298H2514.59Z" fill="#03498A"/>
<path d="M1769.52 319.464C1779.67 319.464 1787.95 311.182 1787.95 301.033C1787.95 290.884 1779.67 282.602 1769.52 282.602C1759.37 282.602 1751.09 290.884 1751.09 301.033C1751.09 311.182 1759.37 319.464 1769.52 319.464ZM1769.52 289.951C1775.59 289.951 1780.6 294.85 1780.6 301.033C1780.6 307.099 1775.59 312.115 1769.52 312.115C1763.46 312.115 1758.44 307.216 1758.44 301.033C1758.56 294.967 1763.46 289.951 1769.52 289.951Z" fill="#03498A"/>
<path d="M1586.14 268.019C1596.29 268.019 1604.57 259.736 1604.57 249.588C1604.57 239.439 1596.29 231.156 1586.14 231.156C1575.99 231.156 1567.71 239.439 1567.71 249.588C1567.71 259.736 1575.99 268.019 1586.14 268.019ZM1586.14 238.505C1592.21 238.505 1597.22 243.522 1597.22 249.588C1597.22 255.654 1592.33 260.67 1586.14 260.67C1580.08 260.67 1575.06 255.77 1575.06 249.588C1575.06 243.405 1580.08 238.505 1586.14 238.505Z" fill="#03498A"/>
<path d="M2382.54 179.011C2392.69 179.011 2400.97 170.729 2400.97 160.58C2400.97 150.431 2392.69 142.148 2382.54 142.148C2372.39 142.148 2364.11 150.431 2364.11 160.58C2364.11 170.729 2372.39 179.011 2382.54 179.011ZM2382.54 149.498C2388.61 149.498 2393.62 154.397 2393.62 160.58C2393.62 166.646 2388.61 171.662 2382.54 171.662C2376.47 171.662 2371.46 166.762 2371.46 160.58C2371.46 154.514 2376.47 149.498 2382.54 149.498Z" fill="#03498A"/>
<path d="M2687.12 64.4564C2697.27 64.4564 2705.55 56.1739 2705.55 46.0251C2705.55 35.8762 2697.27 27.5938 2687.12 27.5938C2676.97 27.5938 2668.69 35.8762 2668.69 46.0251C2668.69 56.1739 2676.97 64.4564 2687.12 64.4564ZM2687.12 34.9429C2693.19 34.9429 2698.2 39.8424 2698.2 46.0251C2698.2 52.0911 2693.3 57.1072 2687.12 57.1072C2681.06 57.1072 2676.04 52.2077 2676.04 46.0251C2676.04 39.8424 2681.06 34.9429 2687.12 34.9429Z" fill="#03498A"/>
<path d="M2560.67 360.64C2570.82 360.64 2579.1 352.358 2579.1 342.209C2579.1 332.06 2570.82 323.777 2560.67 323.777C2550.52 323.777 2542.24 332.06 2542.24 342.209C2542.24 352.358 2550.52 360.64 2560.67 360.64ZM2560.67 331.127C2566.74 331.127 2571.75 336.026 2571.75 342.209C2571.75 348.275 2566.85 353.291 2560.67 353.291C2554.6 353.291 2549.59 348.391 2549.59 342.209C2549.59 336.143 2554.6 331.127 2560.67 331.127Z" fill="#03498A"/>
<path d="M2388.95 433.549L2372.62 378.372L2325.84 331.594L2287 370.439L2333.78 417.218L2388.95 433.549ZM2366.09 382.338L2378.1 422.7L2337.74 410.685L2297.5 370.439L2325.96 341.976L2366.09 382.338Z" fill="#03498A"/>
<path d="M2383.47 428.066L2378.11 410.102L2365.51 422.7L2383.47 428.066Z" fill="#03498A"/>
<path d="M2367.25 377.178L2372.44 382.375L2337.87 416.932L2332.68 411.734L2367.25 377.178Z" fill="#03498A"/>
<path d="M2320.38 342.298L2363.86 385.762L2358.66 390.96L2315.18 347.496L2320.38 342.298Z" fill="#03498A"/>
<path d="M2302.96 359.859L2346.41 403.348L2341.21 408.542L2297.76 365.054L2302.96 359.859Z" fill="#03498A"/>
<path d="M2752.56 425.853L2720.6 347.578L2710.1 369.042L2693.54 352.478L2679.31 366.709L2695.87 383.274L2674.41 393.773L2752.56 425.853ZM2720.02 365.659L2739.15 412.321L2692.49 393.19L2708.47 385.374L2689.8 366.709L2693.65 362.86L2712.32 381.524L2720.02 365.659Z" fill="#03498A"/>
<path d="M2264.84 219.254C2267.52 219.254 2270.08 218.204 2272.07 216.221C2276.03 212.255 2276.03 205.722 2272.07 201.756L2263.09 192.774C2263.9 192.307 2264.72 191.724 2265.42 191.024C2267.4 189.041 2268.45 186.475 2268.45 183.791C2268.45 182.392 2268.22 181.108 2267.63 179.825C2268.8 179.359 2269.85 178.659 2270.67 177.725C2274.17 174.226 2274.63 168.86 2271.95 164.894C2272.88 164.427 2273.7 163.844 2274.52 163.027C2278.48 159.061 2278.48 152.528 2274.52 148.562C2274.28 148.329 2266.59 140.396 2255.15 131.064C2248.5 125.698 2230.77 113.099 2230.07 112.633L2227.51 110.883L2197.41 140.98L2195.31 142.146L2210.59 199.073C2211.29 201.756 2213.16 203.973 2215.72 205.372C2218.17 206.656 2221.09 206.889 2223.89 206.189C2229.61 204.673 2233.22 199.073 2231.94 193.707L2231.59 190.441L2257.6 216.455C2259.59 218.321 2262.15 219.254 2264.84 219.254ZM2250.95 191.024L2266.94 207.006C2268.1 208.172 2268.1 209.922 2266.94 211.088C2265.77 212.255 2264.02 212.255 2262.85 211.088L2222.37 170.61L2224.82 195.224C2225.17 196.74 2224.01 198.49 2222.02 198.956C2220.97 199.19 2220.04 199.19 2219.11 198.723C2218.64 198.49 2217.94 198.023 2217.71 197.09L2203.71 145.062L2228.32 120.448C2233.57 124.181 2245.47 132.814 2250.49 136.78C2261.57 145.762 2269.15 153.578 2269.27 153.695C2270.43 154.861 2270.43 156.728 2269.27 157.894C2268.68 158.478 2267.98 158.711 2267.17 158.711C2266.35 158.711 2265.65 158.361 2265.07 157.894L2264.6 157.428L2259.35 162.677L2265.19 168.51C2266.35 169.676 2266.35 171.426 2265.19 172.593C2264.02 173.759 2262.27 173.759 2261.1 172.593L2255.85 177.842L2259.82 181.808C2260.4 182.392 2260.64 183.092 2260.64 183.908C2260.64 184.725 2260.29 185.425 2259.82 186.008C2258.65 187.174 2256.9 187.174 2255.74 186.008L2250.95 191.024Z" fill="#03498A"/>
<path d="M2245.14 174.842L2264.2 193.891L2259 199.089L2239.94 180.04L2245.14 174.842Z" fill="#03498A"/>
<path d="M2254.47 165.499L2265.35 176.391L2260.15 181.586L2249.27 170.695L2254.47 165.499Z" fill="#03498A"/>
<path d="M2260.45 152.931L2269.93 162.422L2264.73 167.616L2255.25 158.124L2260.45 152.931Z" fill="#03498A"/>
<path d="M1929.22 418.734C1940.3 418.734 1955.58 410.218 1969.23 396.686C1977.98 387.937 1984.86 378.138 1988.48 369.156C1992.56 359.24 1992.21 351.074 1987.55 346.408C1985.1 343.958 1981.48 342.559 1977.28 342.559C1966.32 342.559 1950.92 351.074 1937.27 364.606C1928.52 373.355 1921.64 383.154 1918.02 392.136C1913.94 402.052 1914.29 410.218 1918.95 414.884C1921.52 417.45 1925.02 418.734 1929.22 418.734ZM1977.28 350.024C1979.61 350.024 1981.25 350.608 1982.3 351.658C1984.63 353.991 1984.4 359.59 1981.71 366.356C1978.45 374.405 1972.15 383.271 1963.98 391.437C1950.22 405.202 1936.57 411.384 1929.22 411.384C1927 411.384 1925.25 410.801 1924.2 409.751C1921.87 407.418 1922.1 401.819 1924.79 395.053C1928.05 387.004 1934.35 378.138 1942.52 369.972C1956.28 356.207 1969.93 350.024 1977.28 350.024Z" fill="#03498A"/>
<path d="M1946.95 392.136C1950.8 392.136 1954.3 390.62 1956.98 387.937L1960.37 384.554C1965.97 378.954 1965.97 369.972 1960.37 364.373L1953.83 357.84C1953.13 357.14 1952.2 356.44 1951.27 355.857L1949.05 354.457L1947.07 356.09C1943.69 358.773 1940.3 361.69 1937.15 364.839C1934 367.989 1931.09 371.255 1928.4 374.755L1926.77 376.738L1928.17 378.954C1928.75 379.888 1929.45 380.704 1930.15 381.521L1936.69 388.053C1939.6 390.62 1943.1 392.136 1946.95 392.136ZM1949.4 363.673L1955.23 369.505C1957.92 372.188 1957.92 376.621 1955.23 379.304L1951.85 382.687C1949.28 385.254 1944.74 385.254 1942.05 382.687L1936.22 376.855C1938.2 374.522 1940.3 372.188 1942.52 369.972C1944.74 367.756 1947.07 365.656 1949.4 363.673Z" fill="#03498A"/>
<path d="M1922.57 403.686C1926.89 370.323 1906.47 350.842 1904.84 349.326L1898.66 343.143L1888.51 368.573C1887.81 370.44 1885.71 371.257 1883.84 370.557C1881.98 369.857 1881.16 367.757 1881.86 365.89L1893.18 337.544L1887.81 332.177C1886.29 330.661 1885.36 328.561 1885.36 326.345C1885.36 324.128 1886.18 322.145 1887.81 320.512L1893.29 315.029C1896.44 311.88 1901.69 311.88 1904.84 315.029L1921.99 332.177C1923.51 333.927 1943.1 354.225 1976.35 349.909L1975.42 342.56C1945.2 346.409 1927.59 327.278 1927.35 327.045L1927.24 326.928L1910.09 309.78C1904.02 303.714 1894.11 303.714 1888.04 309.78L1882.56 315.263C1879.64 318.179 1878.01 322.145 1878.01 326.228C1878.01 330.428 1879.64 334.277 1882.56 337.194L1884.54 339.177L1875.09 362.974C1872.88 368.574 1875.56 374.989 1881.28 377.206C1886.88 379.422 1893.29 376.739 1895.51 371.023L1901.46 355.975C1906.01 360.874 1918.72 377.206 1915.34 402.52L1922.57 403.686Z" fill="#03498A"/>
<path d="M724.538 46.025C726.522 46.025 728.505 45.675 730.371 44.9751L727.805 38.0926C724.305 39.3757 720.339 38.5592 717.656 35.8761C715.089 33.3097 714.156 29.3435 715.439 25.7272C717.656 19.5446 716.139 12.5454 711.59 7.87921C706.924 3.21305 699.924 1.69655 693.742 3.91298L696.308 10.7956C699.808 9.51236 703.774 10.3289 706.457 13.012C709.023 15.5784 709.957 19.5446 708.674 23.1609C706.457 29.3435 707.974 36.3427 712.64 41.0089C715.789 44.2752 720.106 46.025 724.538 46.025Z" fill="#03498A"/>
<path d="M30.7969 137.6C32.7801 137.6 34.7632 137.25 36.6296 136.55L34.0633 129.667C30.5637 130.95 26.5972 130.134 23.9142 127.451C21.3478 124.884 20.4147 120.918 21.6979 117.302C23.9143 111.119 22.3978 104.12 17.8483 99.4538C13.1821 94.7877 6.18281 93.2712 0.000159616 95.6043L2.56677 102.487C6.06639 101.204 10.0326 102.02 12.7156 104.703C15.282 107.27 16.2151 111.236 14.9319 114.852C12.7155 121.035 14.2322 128.034 18.8983 132.7C21.9313 135.85 26.3641 137.6 30.7969 137.6Z" fill="#03498A"/>
<path d="M716.488 170.963C718.471 170.963 720.454 170.613 722.32 169.913L719.754 163.03C716.254 164.313 712.288 163.497 709.605 160.814C707.039 158.247 706.106 154.281 707.389 150.665C709.605 144.482 708.089 137.483 703.422 132.817C698.756 128.151 691.757 126.634 685.574 128.85L688.141 135.733C691.64 134.45 695.607 135.266 698.29 137.949C700.856 140.516 701.789 144.482 700.506 148.098C698.29 154.281 699.806 161.28 704.472 165.946C707.739 169.213 712.055 170.963 716.488 170.963Z" fill="#03498A"/>
<path d="M838.732 476.115C840.715 476.115 842.698 475.765 844.564 475.065L841.998 468.182C838.498 469.466 834.532 468.649 831.849 465.966C829.283 463.4 828.35 459.433 829.633 455.817C831.849 449.634 830.333 442.635 825.666 437.969C821 433.303 814.001 431.786 807.818 434.003L810.385 440.885C813.884 439.602 817.851 440.419 820.534 443.102C823.1 445.668 824.033 449.634 822.75 453.251C820.534 459.433 822.05 466.433 826.716 471.099C829.983 474.365 834.299 476.115 838.732 476.115Z" fill="#03498A"/>
<path d="M227.941 225.787C229.924 225.787 231.907 225.437 233.773 224.737L231.207 217.854C227.707 219.138 223.741 218.321 221.058 215.638C218.492 213.072 217.558 209.105 218.842 205.489C221.058 199.306 219.542 192.307 214.876 187.641C210.209 182.975 203.21 181.458 197.027 183.675C193.528 184.958 189.562 184.142 186.879 181.458C184.312 178.892 183.379 174.926 184.662 171.31C186.878 165.127 185.362 158.128 180.696 153.462C176.03 148.795 169.031 147.279 162.848 149.495C159.348 150.779 155.382 149.962 152.699 147.279C150.133 144.713 149.199 140.746 150.482 137.13C152.699 130.947 151.182 123.948 146.516 119.282C141.85 114.616 134.851 113.099 128.668 115.432C125.169 116.716 121.202 115.899 118.519 113.216C115.953 110.65 115.02 106.683 116.303 103.067C118.52 96.8844 117.003 89.8852 112.337 85.2191C107.671 80.5529 100.671 79.0364 94.4886 81.2528L97.0552 88.1354C100.555 86.8522 104.521 87.6688 107.204 90.3518C109.77 93.0349 110.704 96.8844 109.42 100.501C107.204 106.683 108.721 113.683 113.387 118.349C118.053 123.015 125.052 124.531 131.235 122.315C134.734 121.032 138.701 121.848 141.384 124.531C143.95 127.098 144.883 131.064 143.6 134.68C141.384 140.863 142.9 147.862 147.566 152.528C152.232 157.194 159.232 158.711 165.414 156.495C168.914 155.211 172.88 156.028 175.563 158.711C178.129 161.277 179.063 165.244 177.78 168.86C175.563 175.043 177.08 182.042 181.746 186.708C186.412 191.374 193.411 192.891 199.594 190.674C203.093 189.391 207.06 190.207 209.743 192.891C212.309 195.457 213.242 199.423 211.959 203.039C209.743 209.222 211.259 216.221 215.925 220.887C219.192 224.037 223.508 225.787 227.941 225.787Z" fill="#03498A"/>
<path d="M273.732 128.223C275.715 128.223 277.698 127.873 279.564 127.173L276.998 120.291C273.499 121.574 269.532 120.757 266.849 118.074C264.283 115.391 263.35 111.542 264.633 107.926C266.849 101.743 265.333 94.7436 260.667 90.0775C256 85.4113 249.001 83.8948 242.818 86.1113C239.319 87.3945 235.353 86.5779 232.67 83.8948C230.103 81.3285 229.17 77.3622 230.453 73.746C232.669 67.5633 231.153 60.5641 226.487 55.8979C221.821 51.2318 214.822 49.7153 208.639 51.9317C205.139 53.2149 201.173 52.3983 198.49 49.7153C195.924 47.1489 194.99 43.1827 196.273 39.5664L189.391 37C187.175 43.1827 188.691 50.1819 193.357 54.848C198.023 59.5142 205.023 61.0307 211.205 58.8143C214.705 57.5311 218.671 58.3477 221.354 61.0307C223.92 63.5971 224.854 67.5633 223.571 71.1796C221.354 77.3622 222.871 84.3615 227.537 89.0276C232.203 93.6938 239.202 95.2103 245.385 92.8772C248.884 91.594 252.851 92.4106 255.534 95.0936C258.1 97.66 259.033 101.626 257.75 105.242C255.534 111.425 257.05 118.424 261.716 123.091C264.866 126.473 269.299 128.223 273.732 128.223Z" fill="#03498A"/>
<path d="M205.562 474.997C207.778 468.814 206.262 461.815 201.595 457.149C196.929 452.482 189.93 450.966 183.747 453.182C180.248 454.466 176.282 453.649 173.599 450.966C171.032 448.4 170.099 444.433 171.382 440.817C173.599 434.634 172.082 427.635 167.416 422.969C162.75 418.303 155.75 416.786 149.568 419.003L152.134 425.885C155.634 424.602 159.6 425.419 162.283 428.102C164.85 430.668 165.783 434.634 164.5 438.251C162.283 444.433 163.8 451.433 168.466 456.099C173.132 460.765 180.131 462.281 186.314 460.065C189.813 458.782 193.78 459.598 196.463 462.281C199.029 464.848 199.962 468.814 198.679 472.43L205.562 474.997Z" fill="#03498A"/>
<path d="M1238.28 299.165C1240.5 292.983 1238.98 285.983 1234.31 281.317C1229.65 276.651 1222.65 275.134 1216.47 277.468C1212.97 278.751 1209 277.934 1206.32 275.251C1203.75 272.685 1202.82 268.719 1204.1 265.102C1206.32 258.92 1204.8 251.92 1200.13 247.254C1195.47 242.588 1188.47 241.072 1182.29 243.288L1184.85 250.171C1188.35 248.887 1192.32 249.704 1195 252.387C1197.57 254.953 1198.5 258.92 1197.22 262.536C1195 268.719 1196.52 275.718 1201.18 280.384C1205.85 285.05 1212.85 286.567 1219.03 284.35C1222.53 283.067 1226.5 283.883 1229.18 286.567C1231.75 289.133 1232.68 293.099 1231.4 296.715L1238.28 299.165Z" fill="#03498A"/>
<path d="M545.942 272.472L580.514 307.023L575.319 312.222L540.747 277.67L545.942 272.472Z" fill="#03498A"/>
<path d="M577.327 605.722L611.879 640.293L606.681 645.488L572.129 610.917L577.327 605.722Z" fill="#03498A"/>
<path d="M682.226 254.001L758.564 330.426L753.365 335.619L677.026 259.194L682.226 254.001Z" fill="#03498A"/>
<path d="M1038.23 262.679L1072.8 297.23L1067.61 302.429L1033.04 267.877L1038.23 262.679Z" fill="#03498A"/>
<path d="M455.551 14.9843L490.108 49.5508L484.91 54.7467L450.354 20.1801L455.551 14.9843Z" fill="#03498A"/>
<path d="M606.799 76.371L641.355 110.938L636.158 116.133L601.601 81.5669L606.799 76.371Z" fill="#03498A"/>
<path d="M898.598 0.0643562L933.164 34.6211L927.968 39.8184L893.402 5.26171L898.598 0.0643562Z" fill="#03498A"/>
<path d="M606.694 507.744L641.266 542.301L636.07 547.499L601.498 512.942L606.694 507.744Z" fill="#03498A"/>
<path d="M1225.33 152.31L1313.85 240.805L1308.66 246.002L1220.14 157.507L1225.33 152.31Z" fill="#03498A"/>
<path d="M506.765 112.053L642.454 247.742L637.257 252.939L501.568 117.249L506.765 112.053Z" fill="#03498A"/>
<path d="M1162.58 24.4982L1298.27 160.188L1293.08 165.384L1157.39 29.6948L1162.58 24.4982Z" fill="#03498A"/>
<path d="M662.008 401L696.564 435.566L691.367 440.762L656.81 406.196L662.008 401Z" fill="#03498A"/>
<path d="M724.771 474.376V449.062H717.422V467.027H699.458V474.376H724.771Z" fill="#03498A"/>
<path d="M1065.31 90.3476L1099.87 124.914L1094.67 130.11L1060.12 95.5434L1065.31 90.3476Z" fill="#03498A"/>
<path d="M1100.86 131.298V105.984H1093.51V123.949L1075.55 123.832V131.298H1100.86Z" fill="#03498A"/>
<path d="M190.846 281.081C200.995 281.081 209.277 272.799 209.277 262.65C209.277 252.501 200.995 244.219 190.846 244.219C180.697 244.219 172.415 252.501 172.415 262.65C172.415 272.799 180.697 281.081 190.846 281.081ZM190.846 251.685C196.912 251.685 201.928 256.701 201.928 262.767C201.928 268.833 197.029 273.849 190.846 273.849C184.78 273.849 179.764 268.949 179.764 262.767C179.881 256.584 184.78 251.685 190.846 251.685Z" fill="#03498A"/>
<path d="M968.928 179.011C979.077 179.011 987.359 170.729 987.359 160.58C987.359 150.431 979.077 142.148 968.928 142.148C958.779 142.148 950.497 150.431 950.497 160.58C950.497 170.729 958.779 179.011 968.928 179.011ZM968.928 149.498C974.994 149.498 980.01 154.397 980.01 160.58C980.01 166.646 974.994 171.662 968.928 171.662C962.862 171.662 957.846 166.762 957.846 160.58C957.846 154.514 962.745 149.498 968.928 149.498Z" fill="#03498A"/>
<path d="M1273.51 64.4564C1283.66 64.4564 1291.94 56.1739 1291.94 46.0251C1291.94 35.8762 1283.66 27.5938 1273.51 27.5938C1263.36 27.5938 1255.08 35.8762 1255.08 46.0251C1255.08 56.1739 1263.36 64.4564 1273.51 64.4564ZM1273.51 34.9429C1279.58 34.9429 1284.59 39.8424 1284.59 46.0251C1284.59 52.0911 1279.69 57.1072 1273.51 57.1072C1267.44 57.1072 1262.43 52.2077 1262.43 46.0251C1262.43 39.8424 1267.44 34.9429 1273.51 34.9429Z" fill="#03498A"/>
<path d="M1081.13 368.863C1091.28 368.863 1099.56 360.58 1099.56 350.431C1099.56 340.282 1091.28 332 1081.13 332C1070.98 332 1062.7 340.282 1062.7 350.431C1062.7 360.58 1070.98 368.863 1081.13 368.863ZM1081.13 339.349C1087.2 339.349 1092.22 344.249 1092.22 350.431C1092.22 356.497 1087.32 361.513 1081.13 361.513C1075.07 361.513 1070.05 356.614 1070.05 350.431C1070.05 344.365 1075.07 339.349 1081.13 339.349Z" fill="#03498A"/>
<path d="M868.369 324.002L873.564 329.199L838.998 363.756L833.802 358.559L868.369 324.002Z" fill="#03498A"/>
<path d="M889.564 379.955L873.233 324.778L826.455 278L787.609 316.846L834.387 363.624L889.564 379.955ZM866.7 328.744L878.716 369.107L838.353 357.091L798.108 316.846L826.571 288.382L866.7 328.744Z" fill="#03498A"/>
<path d="M883.965 374.472L878.715 356.508L866.117 369.106L883.965 374.472Z" fill="#03498A"/>
<path d="M820.916 288.661L864.398 332.125L859.203 337.323L815.72 293.859L820.916 288.661Z" fill="#03498A"/>
<path d="M803.541 306.316L846.992 349.805L841.793 354.999L798.342 311.511L803.541 306.316Z" fill="#03498A"/>
<path d="M851.224 219.254C853.907 219.254 856.473 218.204 858.456 216.221C862.423 212.255 862.423 205.722 858.456 201.756L849.474 192.774C850.291 192.307 851.107 191.724 851.807 191.024C853.79 189.041 854.84 186.475 854.84 183.791C854.84 182.392 854.607 181.108 854.024 179.825C855.19 179.359 856.24 178.659 857.057 177.725C860.556 174.226 861.023 168.86 858.34 164.894C859.273 164.427 860.09 163.844 860.906 163.027C864.872 159.061 864.872 152.528 860.906 148.562C860.673 148.329 852.974 140.396 841.542 131.064C834.892 125.698 817.161 113.099 816.461 112.633L813.895 110.883L783.798 140.98L781.698 142.146L796.98 199.073C797.68 201.756 799.546 203.973 802.113 205.372C804.562 206.656 807.479 206.889 810.278 206.189C815.994 204.673 819.494 199.073 818.328 193.707L817.978 190.441L843.991 216.455C845.974 218.321 848.541 219.254 851.224 219.254ZM837.342 191.024L853.324 207.006C854.49 208.172 854.49 209.922 853.324 211.088C852.157 212.255 850.407 212.255 849.241 211.088L808.762 170.61L811.212 195.224C811.562 196.74 810.395 198.49 808.412 198.956C807.362 199.19 806.429 199.19 805.496 198.723C805.029 198.49 804.329 198.023 804.096 197.09L790.097 145.062L814.711 120.448C819.961 124.181 831.859 132.814 836.876 136.78C847.958 145.762 855.54 153.578 855.657 153.695C856.823 154.861 856.823 156.728 855.657 157.894C855.073 158.478 854.374 158.711 853.557 158.711C852.74 158.711 852.041 158.361 851.457 157.894L850.991 157.428L845.741 162.677L851.574 168.51C852.74 169.676 852.74 171.426 851.574 172.593C850.407 173.759 848.658 173.759 847.491 172.593L842.242 177.842L846.208 181.808C846.791 182.392 847.024 183.092 847.024 183.908C847.024 184.725 846.674 185.425 846.208 186.008C845.041 187.174 843.291 187.174 842.125 186.008L837.342 191.024Z" fill="#03498A"/>
<path d="M831.579 174.811L850.639 193.859L845.444 199.057L826.384 180.009L831.579 174.811Z" fill="#03498A"/>
<path d="M840.856 165.524L851.742 176.414L846.545 181.61L835.658 170.72L840.856 165.524Z" fill="#03498A"/>
<path d="M846.838 152.954L856.318 162.445L851.119 167.639L841.638 158.148L846.838 152.954Z" fill="#03498A"/>
</g>
</svg>
