<?xml version="1.0" encoding="utf-8"?>
<!-- Generator: Adobe Illustrator 19.0.1, SVG Export Plug-In . SVG Version: 6.00 Build 0)  -->
<svg version="1.1" id="Слой_1" xmlns="http://www.w3.org/2000/svg" xmlns:xlink="http://www.w3.org/1999/xlink" x="0px" y="0px"
	 viewBox="0 0 72.3 676.1" style="enable-background:new 0 0 72.3 676.1;" xml:space="preserve">
<style type="text/css">
	.st0{fill:#1F2F55;}
</style>
<g>
	<g>
		<path class="st0" d="M24.4,37.5c-0.7,0.7-0.9,1.7-0.6,2.6c0.2,0.5,0.1,1.1-0.3,1.5c-0.4,0.4-1,0.5-1.5,0.3l-0.4,1
			c0.3,0.1,0.6,0.2,0.9,0.2c0.7,0,1.3-0.3,1.8-0.7c0.7-0.7,0.9-1.7,0.6-2.6c-0.2-0.5-0.1-1.1,0.3-1.5c0.4-0.4,1-0.5,1.5-0.3l0.4-1
			C26.1,36.6,25.1,36.9,24.4,37.5z M57.3,78.4c0.7-0.7,0.9-1.7,0.6-2.6c-0.2-0.5-0.1-1.1,0.3-1.5c0.4-0.4,1-0.5,1.5-0.3
			c0.9,0.3,1.9,0.1,2.6-0.6c0.7-0.7,0.9-1.7,0.6-2.6c-0.2-0.5-0.1-1.1,0.3-1.5c0.4-0.4,1-0.5,1.5-0.3c0.9,0.3,1.9,0.1,2.6-0.6
			c0.7-0.7,0.9-1.7,0.6-2.6c-0.2-0.5-0.1-1.1,0.3-1.5c0.4-0.4,1-0.5,1.5-0.3c0.9,0.3,1.9,0.1,2.6-0.6c0.7-0.7,0.9-1.7,0.6-2.6
			c-0.2-0.5-0.1-1.1,0.3-1.5c0.4-0.4,1-0.5,1.5-0.3l0.4-1c-0.9-0.3-1.9-0.1-2.6,0.6c-0.7,0.7-0.9,1.7-0.6,2.6
			c0.2,0.5,0.1,1.1-0.3,1.5c-0.4,0.4-1,0.5-1.5,0.3c-0.9-0.3-1.9-0.1-2.6,0.6c-0.7,0.7-0.9,1.7-0.6,2.6c0.2,0.5,0.1,1.1-0.3,1.5
			c-0.4,0.4-1,0.5-1.5,0.3c-0.9-0.3-1.9-0.1-2.6,0.6c-0.7,0.7-0.9,1.7-0.6,2.6c0.2,0.5,0.1,1.1-0.3,1.5c-0.4,0.4-1,0.5-1.5,0.3
			c-0.9-0.3-1.9-0.1-2.6,0.6c-0.7,0.7-0.9,1.7-0.6,2.6c0.2,0.5,0.1,1.1-0.3,1.5c-0.4,0.4-1,0.5-1.5,0.3l-0.4,1
			c0.3,0.1,0.6,0.2,0.9,0.2C56.2,79.1,56.8,78.9,57.3,78.4z M67,52l-0.8-0.8L55,62.5l0.8,0.8L67,52z M39.1,33.5l-0.8-0.8l-5.1,5.1
			l0.8,0.8L39.1,33.5z M52.9,0.8L52.1,0L47,5.1l0.8,0.8L52.9,0.8z M18.5,54.5l-0.8-0.8l-5.1,5.1l0.8,0.8L18.5,54.5z M9.9,55.1
			l-0.8-0.8l-5.1,5.1l0.8,0.8L9.9,55.1z M36,87.8l5.1-5.1l-0.8-0.8L35.3,87L36,87.8z M16.9,79.1l-0.8-0.8L11,83.4l0.8,0.8L16.9,79.1
			z M34.2,66.6h-1.9l4.2-4.2l-0.8-0.8l-4.2,4.2V64h-1.1v3.7h3.7V66.6z M2.7,68.3C1.2,68.3,0,69.5,0,71c0,1.5,1.2,2.7,2.7,2.7
			s2.7-1.2,2.7-2.7C5.4,69.5,4.2,68.3,2.7,68.3z M2.7,72.6c-0.9,0-1.6-0.7-1.6-1.6c0-0.9,0.7-1.6,1.6-1.6c0.9,0,1.6,0.7,1.6,1.6
			C4.3,71.9,3.6,72.6,2.7,72.6z M63.8,39.3l2.4-2.4l-2.1-2.1l-2.4,2.4l-1.5-3.2l-4.7,11.5L67,40.9L63.8,39.3z M60.2,36.7l1.1,2.3
			l2.7-2.7l0.6,0.6L62,39.6l2.4,1.1l-6.9,2.8L60.2,36.7z M68.1,93.1L63,98.1l5.9-4.3L68.1,93.1z M54.6,92.7l-13,13l13.8-12.3
			L54.6,92.7z M54.8,307.8l-0.4,1c0.3,0.1,0.6,0.2,0.9,0.2c0.7,0,1.3-0.3,1.8-0.7c0.7-0.7,0.9-1.7,0.6-2.6c-0.2-0.5-0.1-1.1,0.3-1.5
			c0.4-0.4,1-0.5,1.5-0.3l0.4-1c-0.9-0.3-1.9-0.1-2.6,0.6c-0.7,0.7-0.9,1.7-0.6,2.6c0.2,0.5,0.1,1.1-0.3,1.5
			C55.9,307.9,55.3,308,54.8,307.8z M47.8,326.1l5.1-5.1l-0.8-0.8l-5.1,5.1L47.8,326.1z M39.6,323.6l-0.8-0.8l-5.1,5.1l0.8,0.8
			L39.6,323.6z M75.4,319.4l-5.1,5.1l0.8,0.8l5.1-5.1L75.4,319.4z M72.4,332.7L87,318.1l-0.8-0.8l-14.6,14.6L72.4,332.7z
			 M42.9,297.4l-4.2,4.2v-1.9h-1.1v3.7h3.7v-1.1h-1.9l4.2-4.2L42.9,297.4z M53.4,342.2l3.7,0l0-1.1l-1.9,0l4.2-4.2l-0.8-0.8
			l-4.2,4.2v-1.9h-1.1V342.2z M19.9,324.5c-1.7,0-3.4,0.7-4.6,1.9c-2.2,2.2-2.5,5.5-0.9,8L8.8,340l2.4,2.4l5.6-5.6
			c0.9,0.5,2,0.8,3.1,0.8c1.7,0,3.4-0.7,4.6-1.9c1.2-1.2,1.9-2.9,1.9-4.6s-0.7-3.4-1.9-4.6C23.3,325.2,21.7,324.5,19.9,324.5z
			 M11.2,340.8l-0.9-0.9l4.7-4.6l0.9,0.9L11.2,340.8z M23.8,334.9c-1,1-2.4,1.6-3.9,1.6c-1.5,0-2.8-0.6-3.9-1.6
			c-2.1-2.1-2.1-5.6,0-7.7c1-1,2.4-1.6,3.9-1.6c1.5,0,2.8,0.6,3.9,1.6c1,1,1.6,2.4,1.6,3.9C25.4,332.5,24.8,333.8,23.8,334.9z
			 M19.9,326.1c-1.3,0-2.6,0.5-3.5,1.4c-1.9,1.9-1.9,5,0,7c0.9,0.9,2.2,1.4,3.5,1.4c1.3,0,2.6-0.5,3.5-1.4c1.9-1.9,1.9-5,0-7
			C22.5,326.6,21.3,326.1,19.9,326.1z M22.7,333.7c-0.7,0.7-1.7,1.1-2.7,1.1c-1,0-2-0.4-2.7-1.1c-1.5-1.5-1.5-3.9,0-5.4
			c0.7-0.7,1.7-1.1,2.7-1.1c1,0,2,0.4,2.7,1.1C24.2,329.8,24.2,332.2,22.7,333.7z M18.8,332.1l-1.1,1.1c0.6,0.6,1.4,0.9,2.2,0.9
			s1.6-0.3,2.2-0.9l-1.1-1.1C20.4,332.7,19.5,332.7,18.8,332.1z M72.1,281.7L72.1,281.7c0,0-2.6,2.9-7.1,2.3l0,0c-0.1,0-0.2,0-0.3,0
			c-0.6,0-1.1,0.2-1.5,0.6c-0.7,0.7-0.7,1.9-0.1,3.3c0.5,1.3,1.5,2.8,2.8,4c2,2,4.3,3.3,5.9,3.3c0.6,0,1.1-0.2,1.5-0.6
			c0.4-0.4,0.6-1,0.5-1.8l0,0c-0.5-3.7,1.4-6.1,2.1-6.8l0.9,2.2c0.3,0.8,1.3,1.2,2.1,0.9c0.8-0.3,1.2-1.3,0.9-2.1l-1.4-3.5l0.3-0.3
			c0.4-0.4,0.7-1,0.7-1.6c0-0.6-0.2-1.2-0.7-1.6l-0.8-0.8c-0.9-0.9-2.3-0.9-3.2,0L72.1,281.7z M72.5,293.9c-0.2,0.2-0.4,0.2-0.7,0.2
			c0,0,0,0,0,0c-1.1,0-3.1-0.9-5.1-2.9c-1.2-1.2-2.1-2.5-2.6-3.7c-0.4-1-0.4-1.8-0.1-2.2c0.2-0.2,0.4-0.2,0.7-0.2
			c0.7,0,1.9,0.4,3.2,1.3l-0.8,0.8c-0.8,0.8-0.8,2.1,0,3l0.5,0.5c0.4,0.4,0.9,0.6,1.5,0.6c0.6,0,1.1-0.2,1.5-0.6l0.8-0.8
			c0.4,0.6,0.8,1.2,1,1.8C72.8,292.7,72.8,293.5,72.5,293.9z M67.9,287.9l0.9-0.9c0,0,0.1,0,0.1,0.1c0.3,0.3,0.6,0.6,0.9,0.9
			c0,0,0,0,0,0c0.3,0.3,0.6,0.6,0.9,1c0,0,0,0,0,0l-0.9,0.9c-0.4,0.4-1.1,0.4-1.4,0l-0.5-0.5C67.5,289,67.5,288.3,67.9,287.9z
			 M77.1,280l0.8,0.8c0.2,0.2,0.4,0.5,0.4,0.9c0,0.3-0.1,0.6-0.4,0.9l-0.8,0.8l1.7,4.2c0.1,0.3,0,0.6-0.3,0.7
			c-0.3,0.1-0.6,0-0.7-0.3l-1.5-3.7l-0.9,0.9c-0.2,0.2-2.1,2-2.6,5.1c-0.2-0.3-0.4-0.7-0.7-1.1l0,0l-0.2-0.3
			c-0.1-0.1-0.2-0.2-0.2-0.3c-0.1-0.1-0.2-0.2-0.2-0.3c-0.3-0.3-0.5-0.6-0.8-0.9c-0.2-0.2-0.5-0.5-0.7-0.7c-0.2-0.2-0.5-0.4-0.7-0.6
			c0,0,0,0,0,0l0,0c0,0-0.1-0.1-0.1-0.1l-0.2-0.1l0,0c-0.4-0.3-0.7-0.5-1-0.7c3.1-0.5,4.9-2.4,5.1-2.6l2.5-2.5
			C75.8,279.5,76.6,279.5,77.1,280z M41.2,580.8c-0.2-0.5-0.1-1.1,0.3-1.5c0.4-0.4,1-0.5,1.5-0.3l0.4-1c-0.9-0.3-1.9-0.1-2.6,0.6
			c-0.7,0.7-0.9,1.7-0.6,2.6c0.2,0.5,0.1,1.1-0.3,1.5c-0.4,0.4-1,0.5-1.5,0.3l-0.4,1c0.3,0.1,0.6,0.2,0.9,0.2c0.7,0,1.3-0.3,1.8-0.7
			C41.3,582.8,41.5,581.7,41.2,580.8z M78.9,588.7l0.8,0.8l5.1-5.1l-0.8-0.8L78.9,588.7z M65.3,584.8l0.8,0.8l5.1-5.1l-0.8-0.8
			L65.3,584.8z M56.5,577.9l-16.2,16.2l0.8,0.8l16.2-16.2L56.5,577.9z M69.7,570.4l-20,20l0.8,0.8l20-20L69.7,570.4z M24.6,583.6
			l-4.2,4.2v-1.9h-1.1v3.7l3.7,0v-1.1l-1.9,0l4.2-4.2L24.6,583.6z M78.3,603.8l0.3-0.3c0.4-0.4,0.7-1,0.7-1.6c0-0.6-0.2-1.2-0.7-1.6
			l-0.8-0.8c-0.9-0.9-2.3-0.9-3.2,0l-2.5,2.5l0,0c0,0-2.6,2.9-7.1,2.3l0,0c-0.1,0-0.2,0-0.3,0c-0.6,0-1.1,0.2-1.5,0.6
			c-0.7,0.7-0.7,1.9-0.1,3.3c0.5,1.3,1.5,2.8,2.8,4c2,2,4.3,3.3,5.9,3.3c0.6,0,1.1-0.2,1.5-0.6c0.4-0.4,0.6-1,0.5-1.8l0,0
			c-0.5-3.7,1.4-6.1,2.1-6.8l0.9,2.2c0.3,0.8,1.3,1.2,2.1,0.9c0.8-0.3,1.2-1.3,0.9-2.1L78.3,603.8z M72.5,614.2
			c-0.2,0.2-0.4,0.2-0.7,0.2c0,0,0,0,0,0c-1.1,0-3.1-0.9-5.1-2.9c-1.2-1.2-2.1-2.5-2.6-3.7c-0.4-1-0.4-1.8-0.1-2.2
			c0.2-0.2,0.4-0.2,0.7-0.2c0.7,0,1.9,0.4,3.2,1.3l-0.8,0.8c-0.8,0.8-0.8,2.1,0,3l0.5,0.5c0.4,0.4,0.9,0.6,1.5,0.6
			c0.6,0,1.1-0.2,1.5-0.6l0.8-0.8c0.4,0.6,0.8,1.2,1,1.8C72.8,613,72.8,613.8,72.5,614.2z M67.9,608.2l0.9-0.9c0,0,0.1,0,0.1,0.1
			c0.3,0.3,0.6,0.6,0.9,0.9c0,0,0,0,0,0c0.3,0.3,0.6,0.6,0.9,1c0,0,0,0,0,0l-0.9,0.9c-0.4,0.4-1.1,0.4-1.4,0l-0.5-0.5
			C67.5,609.3,67.5,608.6,67.9,608.2z M78.4,608.4c-0.3,0.1-0.6,0-0.7-0.3l-1.5-3.7l-0.9,0.9c-0.2,0.2-2.1,2-2.6,5.1
			c-0.2-0.3-0.4-0.7-0.7-1.1l0,0l-0.2-0.3c-0.1-0.1-0.2-0.2-0.2-0.3c-0.1-0.1-0.2-0.2-0.2-0.3c-0.3-0.3-0.5-0.6-0.8-0.9
			c-0.2-0.2-0.5-0.5-0.7-0.7c-0.2-0.2-0.5-0.4-0.7-0.6c0,0,0,0,0,0l0,0c0,0-0.1-0.1-0.1-0.1l-0.2-0.1l0,0c-0.4-0.3-0.7-0.5-1-0.7
			c3.1-0.5,4.9-2.4,5.1-2.6l2.5-2.5c0.5-0.5,1.2-0.5,1.7,0l0.8,0.8c0.2,0.2,0.4,0.5,0.4,0.9c0,0.3-0.1,0.6-0.4,0.9l-0.8,0.8l1.7,4.2
			C78.8,608,78.7,608.3,78.4,608.4z M69.6,535.6c0.9,0.3,1.9,0.1,2.6-0.6c0.7-0.7,0.9-1.7,0.6-2.6c-0.2-0.5-0.1-1.1,0.3-1.5
			c0.4-0.4,1-0.5,1.5-0.3l0.4-1c-0.9-0.3-1.9-0.1-2.6,0.6c-0.7,0.7-0.9,1.7-0.6,2.6c0.2,0.5,0.1,1.1-0.3,1.5c-0.4,0.4-1,0.5-1.5,0.3
			c-0.9-0.3-1.9-0.1-2.6,0.6c-0.7,0.7-0.9,1.7-0.6,2.6c0.2,0.5,0.1,1.1-0.3,1.5c-0.4,0.4-1,0.5-1.5,0.3c-0.9-0.3-1.9-0.1-2.6,0.6
			c-0.7,0.7-0.9,1.7-0.6,2.6c0.2,0.5,0.1,1.1-0.3,1.5c-0.4,0.4-1,0.5-1.5,0.3c-0.9-0.3-1.9-0.1-2.6,0.6c-0.7,0.7-0.9,1.7-0.6,2.6
			c0.2,0.5,0.1,1.1-0.3,1.5c-0.4,0.4-1,0.5-1.5,0.3l0.5,1.2c0.7,0,1.3-0.3,1.8-0.7c0.7-0.7,0.9-1.7,0.6-2.6
			c-0.2-0.5-0.1-1.1,0.3-1.5c0.4-0.4,1-0.5,1.5-0.3c0.9,0.3,1.9,0.1,2.6-0.6c0.7-0.7,0.9-1.7,0.6-2.6c-0.2-0.5-0.1-1.1,0.3-1.5
			c0.4-0.4,1-0.5,1.5-0.3c0.9,0.3,1.9,0.1,2.6-0.6c0.7-0.7,0.9-1.7,0.6-2.6c-0.2-0.5-0.1-1.1,0.3-1.5
			C68.5,535.6,69,535.5,69.6,535.6z M74.7,549.3l-0.8-0.8l-5.1,5.1l0.8,0.8L74.7,549.3z M39.5,552.7l-5.1,5.1l0.8,0.8l5.1-5.1
			L39.5,552.7z M62.8,525.1l-4.2,4.2v-1.9h-1.1v3.7h3.7V530h-1.9l4.2-4.2L62.8,525.1z M18.8,557.6v3.7l3.7,0v-1.1l-1.9,0l4.2-4.2
			l-0.8-0.8l-4.2,4.2v-1.9H18.8z M79,562.5l-4.2,4.2v-1.9h-1.1v3.7h3.7v-1.1h-1.9l4.2-4.2L79,562.5z M29.4,564.8
			c-1.5,0-2.7,1.2-2.7,2.7c0,1.5,1.2,2.7,2.7,2.7c1.5,0,2.7-1.2,2.7-2.7C32.1,566,30.9,564.8,29.4,564.8z M29.4,569.1
			c-0.9,0-1.6-0.7-1.6-1.6c0-0.9,0.7-1.6,1.6-1.6s1.6,0.7,1.6,1.6C31,568.4,30.3,569.1,29.4,569.1z"/>
	</g>
</g>
</svg>
