<?xml version="1.0" encoding="utf-8"?>
<!-- Generator: Adobe Illustrator 19.0.1, SVG Export Plug-In . SVG Version: 6.00 Build 0)  -->
<svg version="1.1" id="Слой_1" xmlns="http://www.w3.org/2000/svg" xmlns:xlink="http://www.w3.org/1999/xlink" x="0px" y="0px"
	 viewBox="0 0 178.4 1334.1" style="enable-background:new 0 0 178.4 1334.1;" xml:space="preserve">
<style type="text/css">
	.st0{fill:#1F2F55;}
</style>
<g>
	<g>
		<path class="st0" d="M45,543.5l-1.9-1.9l-12.9,12.9l1.9,1.9L45,543.5z M144.1,486.9l-12.9,12.9l1.9,1.9l12.9-12.9L144.1,486.9z
			 M168.6,523.5l-12.9,12.9l1.9,1.9l12.9-12.9L168.6,523.5z M129.5,530.1L119,540.6v-4.7h-2.7v9.4l9.4,0l0-2.7l-4.7,0l10.5-10.5
			L129.5,530.1z M143.1,554c-3.8,0-6.9,3.1-6.9,6.8c0,3.8,3.1,6.8,6.9,6.8c3.8,0,6.9-3.1,6.9-6.8C149.9,557.1,146.9,554,143.1,554z
			 M143.1,565c-2.3,0-4.1-1.8-4.1-4.1c0-2.3,1.8-4.1,4.1-4.1c2.3,0,4.1,1.8,4.1,4.1C147.2,563.2,145.4,565,143.1,565z M171.8,588.9
			c-1.7,1.7-2.3,4.3-1.5,6.6c0.5,1.3,0.2,2.8-0.8,3.8c-1,1-2.4,1.3-3.8,0.8l-0.9,2.6c0.7,0.3,1.4,0.4,2.2,0.4c1.6,0,3.3-0.6,4.5-1.8
			c1.7-1.7,2.3-4.3,1.5-6.6c-0.5-1.3-0.2-2.8,0.8-3.8c1-1,2.4-1.3,3.8-0.8l0.9-2.6C176.1,586.6,173.5,587.2,171.8,588.9z
			 M10.7,578.1l-1.9-1.9L-4.1,589l1.9,1.9L10.7,578.1z M43,633.8L55.8,621l-1.9-1.9L41,631.9L43,633.8z M62.7,631.9l1.9,1.9
			L77.5,621l-1.9-1.9L62.7,631.9z M73.1,579.4c-3.8,0-6.9,3.1-6.9,6.8c0,3.8,3.1,6.8,6.9,6.8c3.8,0,6.9-3.1,6.9-6.8
			C80,582.5,76.9,579.4,73.1,579.4z M73.1,590.4c-2.3,0-4.1-1.8-4.1-4.1c0-2.3,1.8-4.1,4.1-4.1c2.3,0,4.1,1.8,4.1,4.1
			C77.2,588.5,75.4,590.4,73.1,590.4z M0,653.8c0,3.8,3.1,6.8,6.8,6.8c3.8,0,6.9-3.1,6.9-6.8c0-3.8-3.1-6.8-6.9-6.8
			C3.1,646.9,0,650,0,653.8z M11,653.8c0,2.3-1.8,4.1-4.1,4.1c-2.3,0-4.1-1.8-4.1-4.1c0-2.3,1.8-4.1,4.1-4.1
			C9.1,649.7,11,651.5,11,653.8z M61.2,1152.2c-0.5-1.3-0.2-2.8,0.8-3.8c1-1,2.4-1.3,3.8-0.8l0.9-2.6c-2.3-0.8-4.9-0.3-6.6,1.5
			c-1.7,1.7-2.3,4.3-1.5,6.6c0.5,1.3,0.2,2.8-0.8,3.8c-1,1-2.4,1.3-3.8,0.8c-2.3-0.8-4.9-0.3-6.6,1.5c-1.7,1.7-2.3,4.3-1.5,6.6
			l2.6-0.9c-0.5-1.3-0.2-2.8,0.8-3.8c1-1,2.4-1.3,3.8-0.8c2.3,0.8,4.9,0.3,6.6-1.5C61.5,1157.1,62.1,1154.5,61.2,1152.2z M14.4,1147
			l1.9,1.9l12.9-12.9l-1.9-1.9L14.4,1147z M-24.4,1243.6l1.9,1.9l32.9-32.9l-1.9-1.9L-24.4,1243.6z M71.7,1197.9l-10.5,10.5v-4.7
			h-2.7v9.4l9.4,0l0-2.7l-4.7,0l10.5-10.5L71.7,1197.9z M53.8,1100c0-3.8-3.1-6.8-6.9-6.8c-3.8,0-6.9,3.1-6.9,6.8
			c0,3.8,3.1,6.8,6.9,6.8C50.8,1106.9,53.8,1103.8,53.8,1100z M42.9,1100c0-2.3,1.8-4.1,4.1-4.1c2.3,0,4.1,1.8,4.1,4.1
			s-1.8,4.1-4.1,4.1C44.7,1104.1,42.9,1102.3,42.9,1100z M24.8,1045.8c-3.8,0-7.3,1.5-10,4.2c-0.2,0.2-0.9,1-1.1,1.2l-0.1,0.2
			c-0.1,0.2-0.2,0.3-0.4,0.5l-0.1,0.2c-0.1,0.2-0.3,0.4-0.4,0.6l0,0.1c-0.4,0.7-1.5,3.5-1.7,4.1c-0.7,2.7-3.1,9.2-5.9,12.8
			c-0.1,0-0.1,0-0.2,0c-1,0-1.9,0.4-2.6,1.1c-0.6,0.6-0.9,1.4-1,2.2c-0.8,0.1-1.6,0.4-2.2,1c-0.7,0.7-1.1,1.6-1.1,2.6
			c0,0.7,0.2,1.3,0.5,1.8c-1.5,2.3-1.9,5.9,0.1,7.9c0.9,0.9,2.1,1.4,3.6,1.4c0.4,0,0.7,0,1.1-0.1c1.2-0.2,2.3-0.6,3.2-1.2
			c0.6,0.3,1.2,0.5,1.8,0.5c1,0,1.9-0.4,2.6-1.1c0.6-0.6,0.9-1.4,1-2.2c0.8-0.1,1.6-0.4,2.2-1c0.7-0.7,1.1-1.6,1.1-2.6
			c0-0.1,0-0.1,0-0.2c3.5-2.7,10.1-5.1,12.8-5.9c0.7-0.2,3.4-1.2,4.1-1.7l0.1-0.1c0.2-0.1,0.4-0.2,0.6-0.4l0.2-0.1
			c0.2-0.1,0.3-0.2,0.5-0.4l0.2-0.1c0.1-0.1,0.3-0.2,0.4-0.4l0.2-0.2c0.2-0.2,0.4-0.4,0.6-0.6c2.7-2.7,4.2-6.2,4.2-10
			c0-3.8-1.5-7.3-4.2-10C32.2,1047.3,28.6,1045.8,24.8,1045.8z M2.9,1084.7c-1,0.2-1.9,0-2.4-0.5c-0.8-0.8-0.7-2.5-0.1-3.8l3.9,3.9
			C4,1084.5,3.4,1084.7,2.9,1084.7z M9,1083.7c-0.3,0.3-0.9,0.3-1.3,0l-6.7-6.7c-0.2-0.2-0.3-0.4-0.3-0.6c0-0.2,0.1-0.5,0.3-0.6
			c0.2-0.2,0.4-0.3,0.6-0.3c0.2,0,0.5,0.1,0.6,0.3l6.7,6.7c0.2,0.2,0.3,0.4,0.3,0.6C9.3,1083.4,9.2,1083.6,9,1083.7z M12.2,1080.5
			c-0.3,0.3-0.9,0.3-1.3,0l-6.7-6.7c-0.2-0.2-0.3-0.4-0.3-0.6c0-0.2,0.1-0.5,0.3-0.6c0.2-0.2,0.4-0.3,0.6-0.3c0.2,0,0.5,0.1,0.6,0.3
			l6.7,6.7c0.2,0.2,0.3,0.4,0.3,0.6C12.5,1080.1,12.4,1080.4,12.2,1080.5z M32.9,1068.1c-0.2,0.2-0.3,0.3-0.5,0.4l-0.1,0.1
			c-0.1,0.1-0.2,0.2-0.4,0.3l-0.2,0.1c-0.1,0.1-0.3,0.2-0.4,0.3l-0.1,0.1c-0.2,0.1-0.3,0.2-0.5,0.3l-0.1,0c-0.5,0.3-3,1.2-3.4,1.4
			l-0.1,0c-2.2,0.6-8.9,2.9-13.1,5.9l-1.8-1.8l16.6-6.8l-1-2.5l-3.4,1.4c-0.2-0.4-0.4-0.7-0.7-1c-0.9-0.9-2.4-1.3-3.6-0.8
			c-0.2,0.1-0.5,0.1-0.7-0.2c-0.2-0.2-0.2-0.5-0.2-0.7c0.5-1.3,0.1-2.7-0.8-3.6c-0.3-0.3-0.6-0.5-1-0.7l1.4-3.4l-2.5-1l-6.8,16.6
			l-1.8-1.8c3-4.2,5.3-10.9,5.9-13.1c0.1-0.4,1.1-2.9,1.4-3.4l0-0.1c0.1-0.2,0.2-0.3,0.3-0.5l0.1-0.1c0.1-0.1,0.2-0.3,0.3-0.4
			l0.1-0.2c0.1-0.1,0.7-0.9,0.9-1c2.2-2.2,5-3.3,8.1-3.3c3.1,0,5.9,1.2,8.1,3.3c2.2,2.2,3.3,5,3.3,8.1S35.1,1065.9,32.9,1068.1z
			 M17.5,1067.3c0.9,0.9,2.4,1.3,3.6,0.8c0.2-0.1,0.5-0.1,0.7,0.2c0,0,0,0,0.1,0.1l-9.2,3.8l3.8-9.2c0,0,0.1,0,0.1,0.1
			c0.2,0.2,0.2,0.5,0.2,0.7C16.2,1065,16.6,1066.4,17.5,1067.3z M114.3,518.4c-1,1-2.4,1.3-3.8,0.8c-2.3-0.8-4.9-0.3-6.6,1.5
			c0,0-0.1,0.1-0.1,0.1c0,0,0,0,0,0l0,0c-1.6,1.7-2.2,4.3-1.4,6.5c0.5,1.3,0.2,2.8-0.8,3.8c-1,1-2.4,1.3-3.8,0.8
			c-2.3-0.8-4.9-0.3-6.6,1.5c0,0-0.1,0.1-0.1,0.1l0,0c-1.7,1.7-2.3,4.3-1.5,6.6c0.5,1.3,0.2,2.7-0.7,3.7c-1,1-2.4,1.3-3.7,0.8
			c-2.3-0.8-4.9-0.3-6.6,1.5c0,0-0.1,0.1-0.1,0.1c0,0,0,0,0,0c-1.7,1.7-2.3,4.3-1.5,6.6c0.5,1.3,0.2,2.7-0.7,3.7
			c-1,1-2.4,1.3-3.7,0.8l0,0.1c0,0,0,0-0.1,0c-2.3-0.8-4.9-0.3-6.6,1.5c-1.7,1.7-2.3,4.3-1.5,6.6c0.5,1.3,0.2,2.8-0.8,3.8
			c-1,1-2.4,1.3-3.8,0.8l-0.9,2.6c0.7,0.3,1.4,0.4,2.2,0.4c1.6,0,3.3-0.6,4.5-1.8c1.7-1.7,2.3-4.3,1.5-6.6c-0.5-1.3-0.2-2.8,0.8-3.8
			c1-1,2.4-1.3,3.8-0.8c2.3,0.8,4.9,0.3,6.6-1.5c0,0,0-0.1,0.1-0.1c0,0,0,0,0,0c1.7-1.7,2.3-4.3,1.5-6.6c-0.5-1.3-0.2-2.7,0.7-3.7
			c1-1,2.4-1.3,3.7-0.8c2.3,0.8,4.9,0.3,6.6-1.5c0,0,0.1-0.1,0.1-0.1c0,0,0,0,0,0c1.7-1.7,2.3-4.3,1.5-6.6c-0.5-1.3-0.2-2.8,0.8-3.8
			c1-1,2.4-1.3,3.8-0.8c2.3,0.8,4.8,0.3,6.5-1.4l0,0c0,0,0.1-0.1,0.1-0.1c0,0,0,0,0,0c1.7-1.7,2.3-4.3,1.5-6.6
			c-0.5-1.3-0.2-2.7,0.7-3.7c1-1,2.4-1.3,3.7-0.8l0-0.1c0,0,0,0,0.1,0c2.3,0.8,4.9,0.3,6.6-1.5L114.3,518.4z"/>
	</g>
</g>
</svg>
