<svg width="1920" height="1160" viewBox="0 0 1920 1160" fill="none" xmlns="http://www.w3.org/2000/svg">
<g opacity="0.5">
<path d="M441.417 560.026C439.434 560.026 437.45 559.676 435.584 558.976L438.15 552.094C441.65 553.377 445.616 552.56 448.299 549.877C450.866 547.311 451.799 543.344 450.516 539.728C448.299 533.546 449.816 526.546 454.365 521.88C459.031 517.214 466.031 515.698 472.213 517.914L469.647 524.797C466.147 523.513 462.181 524.33 459.498 527.013C456.932 529.579 455.998 533.546 457.282 537.162C459.498 543.344 457.982 550.344 453.315 555.01C450.166 558.276 445.85 560.026 441.417 560.026Z" fill="#03498A"/>
<path d="M1218.21 954.548C1216.23 954.548 1214.25 954.198 1212.38 953.499L1214.95 946.616C1218.45 947.899 1222.41 947.083 1225.1 944.4C1227.66 941.833 1228.6 937.867 1227.31 934.251C1225.1 928.068 1226.61 921.069 1231.28 916.403C1235.95 911.736 1242.94 910.22 1249.13 912.436L1246.56 919.319C1243.06 918.036 1239.09 918.852 1236.41 921.535C1233.85 924.102 1232.91 928.068 1234.2 931.684C1236.41 937.867 1234.9 944.866 1230.23 949.532C1226.96 952.915 1222.65 954.548 1218.21 954.548Z" fill="#03498A"/>
<path d="M1138.89 735.473C1136.91 735.473 1134.92 735.123 1133.06 734.423L1135.62 727.54C1139.12 728.823 1143.09 728.007 1145.77 725.324C1148.34 722.757 1149.27 718.791 1147.99 715.175C1145.77 708.992 1147.29 701.993 1151.84 697.327C1156.5 692.661 1163.5 691.144 1169.69 693.477L1167.12 700.36C1163.62 699.077 1159.65 699.893 1156.97 702.576C1154.4 705.143 1153.47 709.109 1154.75 712.725C1156.97 718.908 1155.45 725.907 1150.79 730.573C1147.64 733.723 1143.32 735.473 1138.89 735.473Z" fill="#03498A"/>
<path d="M449.466 684.962C447.482 684.962 445.499 684.612 443.633 683.912L446.199 677.029C449.699 678.312 453.665 677.496 456.348 674.813C458.914 672.246 459.848 668.28 458.565 664.664C456.348 658.481 457.865 651.482 462.531 646.816C467.197 642.15 474.196 640.633 480.379 642.849L477.812 649.732C474.313 648.449 470.347 649.265 467.664 651.949C465.097 654.515 464.164 658.481 465.447 662.097C467.664 668.28 466.147 675.279 461.481 679.945C458.215 683.212 453.898 684.962 449.466 684.962Z" fill="#03498A"/>
<path d="M983.833 882.115C981.85 882.115 979.866 881.765 978 881.065L980.566 874.182C984.066 875.466 988.032 874.649 990.715 871.966C993.282 869.4 994.215 865.433 992.932 861.817C990.715 855.634 992.232 848.635 996.898 843.969C1001.56 839.303 1008.56 837.786 1014.75 840.003L1012.18 846.885C1008.68 845.602 1004.71 846.419 1002.03 849.102C999.464 851.668 998.531 855.634 999.814 859.251C1002.03 865.433 1000.51 872.433 995.848 877.099C992.582 880.365 988.149 882.115 983.833 882.115Z" fill="#03498A"/>
<path d="M938.01 739.789C936.027 739.789 934.044 739.439 932.178 738.739L934.744 731.856C938.244 733.14 942.21 732.323 944.893 729.64C947.459 727.074 948.393 723.107 947.109 719.491C944.893 713.308 946.409 706.309 951.076 701.643C955.742 696.977 962.741 695.46 968.924 697.677C972.423 698.96 976.389 698.143 979.073 695.46C981.639 692.894 982.572 688.928 981.289 685.312C979.073 679.129 980.589 672.13 985.255 667.464C989.921 662.797 996.921 661.281 1003.1 663.497C1006.6 664.78 1010.57 663.964 1013.25 661.281C1015.82 658.714 1016.75 654.748 1015.47 651.132C1013.25 644.949 1014.77 637.95 1019.43 633.284C1024.1 628.618 1031.1 627.101 1037.28 629.434C1040.78 630.718 1044.75 629.901 1047.43 627.218C1050 624.652 1050.93 620.685 1049.65 617.069C1047.43 610.886 1048.95 603.887 1053.61 599.221C1058.28 594.555 1065.28 593.038 1071.46 595.255L1068.9 602.137C1065.4 600.854 1061.43 601.671 1058.75 604.354C1056.18 607.037 1055.25 610.886 1056.53 614.503C1058.75 620.685 1057.23 627.685 1052.56 632.351C1047.9 637.017 1040.9 638.533 1034.72 636.317C1031.22 635.034 1027.25 635.85 1024.57 638.533C1022 641.1 1021.07 645.066 1022.35 648.682C1024.57 654.865 1023.05 661.864 1018.38 666.53C1013.72 671.196 1006.72 672.713 1000.54 670.496C997.037 669.213 993.071 670.03 990.388 672.713C987.822 675.279 986.888 679.246 988.172 682.862C990.388 689.044 988.871 696.044 984.205 700.71C979.539 705.376 972.54 706.892 966.357 704.676C962.858 703.393 958.891 704.209 956.208 706.892C953.642 709.459 952.709 713.425 953.992 717.041C956.208 723.224 954.692 730.223 950.026 734.889C946.759 738.039 942.443 739.789 938.01 739.789Z" fill="#03498A"/>
<path d="M605.833 773.223C603.85 773.223 601.866 772.873 600 772.173L602.566 765.291C606.066 766.574 610.032 765.757 612.715 763.074C615.282 760.508 616.215 756.542 614.932 752.926C612.715 746.743 614.232 739.744 618.898 735.077C623.564 730.411 630.563 728.895 636.746 731.111C640.246 732.394 644.212 731.578 646.895 728.895C649.461 726.328 650.394 722.362 649.111 718.746C646.895 712.563 648.411 705.564 653.077 700.898C657.744 696.232 664.743 694.715 670.926 696.932C674.425 698.215 678.391 697.398 681.074 694.715C683.641 692.149 684.574 688.183 683.291 684.566L690.173 682C692.39 688.183 690.873 695.182 686.207 699.848C681.541 704.514 674.542 706.031 668.359 703.814C664.86 702.531 660.893 703.348 658.21 706.031C655.644 708.597 654.711 712.563 655.994 716.18C658.21 722.362 656.694 729.361 652.028 734.028C647.361 738.694 640.362 740.21 634.18 737.994C630.68 736.711 626.714 737.527 624.031 740.21C621.464 742.777 620.531 746.743 621.814 750.359C624.031 756.542 622.514 763.541 617.848 768.207C614.582 771.473 610.266 773.223 605.833 773.223Z" fill="#03498A"/>
<path d="M892.516 636.784C890.533 636.784 888.55 636.434 886.684 635.734L889.25 628.851C892.75 630.135 896.716 629.318 899.399 626.635C901.965 623.952 902.898 620.102 901.615 616.486C899.399 610.303 900.915 603.304 905.581 598.638C910.248 593.972 917.247 592.455 923.43 594.672C926.929 595.955 930.895 595.138 933.578 592.455C936.145 589.889 937.078 585.923 935.795 582.307C933.578 576.124 935.095 569.125 939.761 564.458C944.427 559.792 951.426 558.276 957.609 560.492C961.109 561.775 965.075 560.959 967.758 558.276C970.324 555.709 971.258 551.743 969.974 548.127L976.857 545.561C979.073 551.743 977.557 558.742 972.891 563.409C968.225 568.075 961.225 569.591 955.043 567.375C951.543 566.092 947.577 566.908 944.894 569.591C942.327 572.158 941.394 576.124 942.677 579.74C944.894 585.923 943.377 592.922 938.711 597.588C934.045 602.254 927.046 603.771 920.863 601.438C917.364 600.155 913.397 600.971 910.714 603.654C908.148 606.221 907.215 610.187 908.498 613.803C910.714 619.986 909.198 626.985 904.532 631.651C901.382 635.034 896.949 636.784 892.516 636.784Z" fill="#03498A"/>
<path d="M364.308 1102.23C362.091 1096.05 363.608 1089.05 368.274 1084.38C372.94 1079.72 379.939 1078.2 386.122 1080.42C389.621 1081.7 393.588 1080.89 396.271 1078.2C398.837 1075.64 399.77 1071.67 398.487 1068.05C396.271 1061.87 397.787 1054.87 402.453 1050.21C407.119 1045.54 414.119 1044.02 420.301 1046.24L417.735 1053.12C414.235 1051.84 410.269 1052.66 407.586 1055.34C405.02 1057.9 404.086 1061.87 405.37 1065.49C407.586 1071.67 406.07 1078.67 401.403 1083.34C396.737 1088 389.738 1089.52 383.555 1087.18C380.056 1085.9 376.09 1086.72 373.406 1089.4C370.84 1092.08 369.907 1095.93 371.19 1099.55L364.308 1102.23Z" fill="#03498A"/>
<path d="M1120.22 843.378C1118.01 837.195 1119.52 830.196 1124.19 825.529C1128.86 820.863 1135.86 819.347 1142.04 821.563C1145.54 822.846 1149.5 822.03 1152.19 819.347C1154.75 816.78 1155.69 812.814 1154.4 809.198C1152.19 803.015 1153.7 796.016 1158.37 791.35C1163.04 786.684 1170.03 785.167 1176.22 787.384L1173.65 794.266C1170.15 792.983 1166.19 793.8 1163.5 796.483C1160.94 799.049 1160 803.015 1161.29 806.632C1163.5 812.814 1161.99 819.813 1157.32 824.48C1152.65 829.146 1145.65 830.662 1139.47 828.446C1135.97 827.163 1132.01 827.979 1129.32 830.662C1126.76 833.229 1125.82 837.195 1127.11 840.811L1120.22 843.378Z" fill="#03498A"/>
<path d="M756.255 716.254L721.684 750.811L726.879 756.009L761.451 721.452L756.255 716.254Z" fill="#03498A"/>
<path d="M1092.92 786.451L1058.37 821.027L1063.56 826.222L1098.12 791.646L1092.92 786.451Z" fill="#03498A"/>
<path d="M468.134 846.46L391.795 922.885L396.994 928.078L473.333 851.653L468.134 846.46Z" fill="#03498A"/>
<path d="M127.784 776.704L93.2129 811.261L98.4088 816.459L132.98 781.902L127.784 776.704Z" fill="#03498A"/>
<path d="M710.306 529.029L675.754 563.601L680.952 568.796L715.504 534.224L710.306 529.029Z" fill="#03498A"/>
<path d="M559.18 590.371L524.623 624.938L529.82 630.133L564.377 595.567L559.18 590.371Z" fill="#03498A"/>
<path d="M267.315 514L232.748 548.557L237.944 553.754L272.51 519.197L267.315 514Z" fill="#03498A"/>
<path d="M1184.26 515.308L1149.69 549.864L1154.89 555.062L1189.46 520.506L1184.26 515.308Z" fill="#03498A"/>
<path d="M125.959 884.232L37.4141 972.702L42.6085 977.901L131.153 889.431L125.959 884.232Z" fill="#03498A"/>
<path d="M1300.53 795L1212 883.495L1217.2 888.693L1305.73 800.198L1300.53 795Z" fill="#03498A"/>
<path d="M659.156 625.987L523.486 761.695L528.684 766.891L664.354 631.183L659.156 625.987Z" fill="#03498A"/>
<path d="M1387.34 844.546L1251.65 980.235L1256.85 985.432L1392.53 849.743L1387.34 844.546Z" fill="#03498A"/>
<path d="M3.36122 538.466L-132.328 674.155L-127.132 679.352L8.55783 543.663L3.36122 538.466Z" fill="#03498A"/>
<path d="M1045.62 916L1011.05 950.552L1016.24 955.75L1050.82 921.198L1045.62 916Z" fill="#03498A"/>
<path d="M1010 956.858V931.544H1017.35V949.509H1035.31V956.858H1010Z" fill="#03498A"/>
<path d="M476.793 947.583L442.236 982.149L447.434 987.345L481.99 952.779L476.793 947.583Z" fill="#03498A"/>
<path d="M441.182 988.378V963.064H448.531V981.029H466.496V988.378H441.182Z" fill="#03498A"/>
<path d="M1547.59 920L1513.03 954.562L1518.23 959.758L1552.79 925.197L1547.59 920Z" fill="#03498A"/>
<path d="M1512 960.896V935.582H1519.35V953.43H1537.31V960.896H1512Z" fill="#03498A"/>
<path d="M100.664 604.348L66.1074 638.914L71.3048 644.11L105.861 609.543L100.664 604.348Z" fill="#03498A"/>
<path d="M64.9746 645.299V619.985H72.4404V637.95L90.2885 637.833V645.299H64.9746Z" fill="#03498A"/>
<path d="M810.043 833.462C799.894 833.462 791.611 825.18 791.611 815.031C791.611 804.882 799.894 796.6 810.043 796.6C820.192 796.6 828.474 804.882 828.474 815.031C828.474 825.18 820.192 833.462 810.043 833.462ZM810.043 803.949C803.977 803.949 798.961 808.848 798.961 815.031C798.961 821.097 803.977 826.113 810.043 826.113C816.109 826.113 821.125 821.214 821.125 815.031C821.008 808.965 816.109 803.949 810.043 803.949Z" fill="#03498A"/>
<path d="M993.422 782.018C983.273 782.018 974.99 773.735 974.99 763.587C974.99 753.438 983.273 745.155 993.422 745.155C1003.57 745.155 1011.85 753.438 1011.85 763.587C1011.85 773.735 1003.57 782.018 993.422 782.018ZM993.422 752.504C987.356 752.504 982.339 757.521 982.339 763.587C982.339 769.653 987.239 774.669 993.422 774.669C999.488 774.669 1004.5 769.769 1004.5 763.587C1004.5 757.404 999.488 752.504 993.422 752.504Z" fill="#03498A"/>
<path d="M197.025 693.011C186.876 693.011 178.594 684.729 178.594 674.58C178.594 664.431 186.876 656.148 197.025 656.148C207.174 656.148 215.456 664.431 215.456 674.58C215.456 684.729 207.174 693.011 197.025 693.011ZM197.025 663.498C190.959 663.498 185.943 668.397 185.943 674.58C185.943 680.646 190.959 685.662 197.025 685.662C203.091 685.662 208.107 680.762 208.107 674.58C208.107 668.514 203.091 663.498 197.025 663.498Z" fill="#03498A"/>
<path d="M18.8942 874.641C8.74532 874.641 0.462891 866.358 0.462891 856.21C0.462891 846.061 8.74532 837.778 18.8942 837.778C29.0431 837.778 37.3255 846.061 37.3255 856.21C37.3255 866.358 29.0431 874.641 18.8942 874.641ZM18.8942 845.127C12.8282 845.127 7.81209 850.027 7.81209 856.21C7.81209 862.276 12.7115 867.292 18.8942 867.292C24.9602 867.292 29.9763 862.392 29.9763 856.21C29.9763 850.144 24.9602 845.127 18.8942 845.127Z" fill="#03498A"/>
<path d="M190.611 947.549L206.943 892.372L253.721 845.594L292.567 884.439L245.789 931.218L190.611 947.549ZM213.475 896.338L201.46 936.7L241.822 924.685L282.068 884.439L253.604 855.976L213.475 896.338Z" fill="#03498A"/>
<path d="M196.092 942.067L201.458 924.103L214.056 936.701L196.092 942.067Z" fill="#03498A"/>
<path d="M212.319 891.179L207.123 896.376L241.69 930.933L246.885 925.735L212.319 891.179Z" fill="#03498A"/>
<path d="M259.187 856.297L215.705 899.761L220.901 904.959L264.383 861.495L259.187 856.297Z" fill="#03498A"/>
<path d="M276.606 873.86L233.154 917.349L238.353 922.543L281.805 879.055L276.606 873.86Z" fill="#03498A"/>
<path d="M314.729 733.256C312.046 733.256 309.48 732.206 307.497 730.223C303.53 726.257 303.53 719.724 307.497 715.758L316.479 706.776C315.662 706.309 314.846 705.726 314.146 705.026C312.163 703.043 311.113 700.476 311.113 697.793C311.113 696.394 311.346 695.11 311.93 693.827C310.763 693.361 309.713 692.661 308.897 691.727C305.397 688.228 304.93 682.862 307.613 678.895C306.68 678.429 305.864 677.846 305.047 677.029C301.081 673.063 301.081 666.53 305.047 662.564C305.28 662.331 312.979 654.398 324.411 645.066C331.061 639.7 348.792 627.101 349.492 626.635L352.058 624.885L382.155 654.981L384.255 656.148L368.973 713.075C368.273 715.758 366.407 717.975 363.84 719.374C361.391 720.658 358.474 720.891 355.675 720.191C349.959 718.674 346.342 713.075 347.626 707.709L347.976 704.443L321.962 730.457C319.979 732.323 317.412 733.256 314.729 733.256ZM328.611 705.026L312.629 721.008C311.463 722.174 311.463 723.924 312.629 725.09C313.796 726.257 315.546 726.257 316.712 725.09L357.191 684.612L354.741 709.225C354.392 710.742 355.558 712.492 357.541 712.958C358.591 713.192 359.524 713.192 360.458 712.725C360.924 712.492 361.624 712.025 361.857 711.092L375.856 659.064L351.242 634.45C345.992 638.183 334.094 646.816 329.078 650.782C317.996 659.764 310.413 667.58 310.296 667.697C309.13 668.863 309.13 670.73 310.296 671.896C310.88 672.48 311.58 672.713 312.396 672.713C313.213 672.713 313.913 672.363 314.496 671.896L314.963 671.43L320.212 676.679L314.379 682.512C313.213 683.678 313.213 685.428 314.379 686.595C315.546 687.761 317.296 687.761 318.462 686.595L323.712 691.844L319.745 695.81C319.162 696.394 318.929 697.093 318.929 697.91C318.929 698.727 319.279 699.427 319.745 700.01C320.912 701.176 322.662 701.176 323.828 700.01L328.611 705.026Z" fill="#03498A"/>
<path d="M334.427 688.844L315.367 707.893L320.562 713.091L339.622 694.042L334.427 688.844Z" fill="#03498A"/>
<path d="M325.098 679.497L314.213 690.389L319.411 695.584L330.296 684.693L325.098 679.497Z" fill="#03498A"/>
<path d="M319.113 666.932L309.633 676.423L314.832 681.617L324.313 672.125L319.113 666.932Z" fill="#03498A"/>
<path d="M650.344 932.735C639.262 932.735 623.98 924.219 610.332 910.687C601.583 901.938 594.7 892.139 591.084 883.157C587.001 873.241 587.351 865.075 592.017 860.409C594.467 857.959 598.083 856.56 602.283 856.56C613.248 856.56 628.646 865.075 642.295 878.607C651.044 887.356 657.927 897.155 661.543 906.137C665.626 916.053 665.276 924.219 660.61 928.885C658.043 931.451 654.544 932.735 650.344 932.735ZM602.283 864.025C599.95 864.025 598.316 864.609 597.267 865.659C594.933 867.992 595.167 873.591 597.85 880.357C601.116 888.406 607.415 897.272 615.581 905.438C629.346 919.203 642.995 925.385 650.344 925.385C652.56 925.385 654.31 924.802 655.36 923.752C657.693 921.419 657.46 915.82 654.777 909.054C651.511 901.005 645.211 892.139 637.046 883.973C623.28 870.208 609.632 864.025 602.283 864.025Z" fill="#03498A"/>
<path d="M632.613 906.137C628.763 906.137 625.264 904.621 622.581 901.938L619.198 898.555C613.598 892.955 613.598 883.973 619.198 878.374L625.73 871.841C626.43 871.141 627.363 870.441 628.297 869.858L630.513 868.458L632.496 870.091C635.879 872.774 639.262 875.691 642.412 878.84C645.561 881.99 648.478 885.256 651.161 888.756L652.794 890.739L651.394 892.955C650.811 893.889 650.111 894.705 649.411 895.522L642.878 902.054C639.962 904.621 636.462 906.137 632.613 906.137ZM630.163 877.674L624.33 883.506C621.647 886.189 621.647 890.622 624.33 893.305L627.713 896.688C630.28 899.255 634.829 899.255 637.512 896.688L643.345 890.856C641.362 888.522 639.262 886.189 637.046 883.973C634.829 881.757 632.496 879.657 630.163 877.674Z" fill="#03498A"/>
<path d="M656.992 917.686C652.676 884.323 673.09 864.842 674.724 863.326L680.906 857.143L691.055 882.573C691.755 884.44 693.855 885.257 695.721 884.557C697.588 883.857 698.404 881.757 697.704 879.89L686.389 851.544L691.755 846.177C693.272 844.661 694.205 842.561 694.205 840.345C694.205 838.128 693.388 836.145 691.755 834.512L686.272 829.029C683.123 825.88 677.873 825.88 674.724 829.029L657.576 846.177C656.059 847.927 636.461 868.225 603.215 863.909L604.148 856.56C634.361 860.409 651.976 841.278 652.209 841.045L652.326 840.928L669.474 823.78C675.54 817.714 685.456 817.714 691.522 823.78L697.004 829.263C699.921 832.179 701.554 836.145 701.554 840.228C701.554 844.428 699.921 848.277 697.004 851.194L695.021 853.177L704.47 876.974C706.687 882.574 704.004 888.989 698.288 891.206C692.688 893.422 686.272 890.739 684.056 885.023L678.107 869.975C673.557 874.874 660.842 891.206 664.225 916.52L656.992 917.686Z" fill="#03498A"/>
<path d="M1855.03 560.026C1853.04 560.026 1851.06 559.676 1849.19 558.976L1851.76 552.094C1855.26 553.377 1859.23 552.56 1861.91 549.877C1864.48 547.311 1865.41 543.344 1864.13 539.728C1861.91 533.546 1863.43 526.546 1867.97 521.88C1872.64 517.214 1879.64 515.698 1885.82 517.914L1883.26 524.797C1879.76 523.513 1875.79 524.33 1873.11 527.013C1870.54 529.579 1869.61 533.546 1870.89 537.162C1873.11 543.344 1871.59 550.344 1866.92 555.01C1863.78 558.276 1859.46 560.026 1855.03 560.026Z" fill="#03498A"/>
<path d="M1863.08 684.962C1861.09 684.962 1859.11 684.612 1857.24 683.912L1859.81 677.029C1863.31 678.312 1867.28 677.496 1869.96 674.813C1872.53 672.246 1873.46 668.28 1872.18 664.664C1869.96 658.481 1871.48 651.482 1876.14 646.816C1880.81 642.15 1887.81 640.633 1893.99 642.849L1891.42 649.732C1887.92 648.449 1883.96 649.265 1881.27 651.949C1878.71 654.515 1877.78 658.481 1879.06 662.097C1881.27 668.28 1879.76 675.279 1875.09 679.945C1871.83 683.212 1867.51 684.962 1863.08 684.962Z" fill="#03498A"/>
<path d="M1740.83 990.115C1738.85 990.115 1736.87 989.765 1735 989.065L1737.57 982.182C1741.07 983.466 1745.03 982.649 1747.72 979.966C1750.28 977.4 1751.21 973.433 1749.93 969.817C1747.72 963.634 1749.23 956.635 1753.9 951.969C1758.56 947.303 1765.56 945.786 1771.75 948.003L1769.18 954.885C1765.68 953.602 1761.71 954.419 1759.03 957.102C1756.46 959.668 1755.53 963.634 1756.81 967.251C1759.03 973.433 1757.51 980.433 1752.85 985.099C1749.58 988.365 1745.27 990.115 1740.83 990.115Z" fill="#03498A"/>
<path d="M1341.28 813.164C1339.07 806.982 1340.58 799.982 1345.25 795.316C1349.92 790.65 1356.92 789.133 1363.1 791.467C1366.6 792.75 1370.56 791.933 1373.25 789.25C1375.81 786.684 1376.75 782.718 1375.46 779.101C1373.25 772.919 1374.76 765.919 1379.43 761.253C1384.1 756.587 1391.1 755.071 1397.28 757.287L1394.71 764.17C1391.21 762.886 1387.25 763.703 1384.56 766.386C1382 768.952 1381.06 772.919 1382.35 776.535C1384.56 782.718 1383.05 789.717 1378.38 794.383C1373.71 799.049 1366.71 800.566 1360.53 798.349C1357.03 797.066 1353.07 797.883 1350.38 800.566C1347.82 803.132 1346.88 807.098 1348.17 810.714L1341.28 813.164Z" fill="#03498A"/>
<path d="M1897.34 768L1821 844.425L1826.2 849.618L1902.54 773.193L1897.34 768Z" fill="#03498A"/>
<path d="M1541.33 776.679L1506.76 811.23L1511.95 816.429L1546.53 781.877L1541.33 776.679Z" fill="#03498A"/>
<path d="M1680.97 514.064L1646.4 548.621L1651.6 553.818L1686.16 519.262L1680.97 514.064Z" fill="#03498A"/>
<path d="M1354.23 666.312L1265.71 754.807L1270.91 760.004L1359.43 671.509L1354.23 666.312Z" fill="#03498A"/>
<path d="M1416.98 538.497L1281.29 674.187L1286.49 679.383L1422.18 543.694L1416.98 538.497Z" fill="#03498A"/>
<path d="M1917.56 915L1883 949.566L1888.2 954.762L1922.75 920.196L1917.56 915Z" fill="#03498A"/>
<path d="M1854.79 988.378V963.064H1862.14V981.029H1880.11V988.378H1854.79Z" fill="#03498A"/>
<path d="M1514.25 604.348L1479.69 638.914L1484.89 644.11L1519.45 609.543L1514.25 604.348Z" fill="#03498A"/>
<path d="M1478.7 645.299V619.985H1486.05V637.95L1504.01 637.833V645.299H1478.7Z" fill="#03498A"/>
<path d="M1610.64 693.011C1600.49 693.011 1592.21 684.729 1592.21 674.58C1592.21 664.431 1600.49 656.148 1610.64 656.148C1620.79 656.148 1629.07 664.431 1629.07 674.58C1629.07 684.729 1620.79 693.011 1610.64 693.011ZM1610.64 663.498C1604.57 663.498 1599.55 668.397 1599.55 674.58C1599.55 680.646 1604.57 685.662 1610.64 685.662C1616.7 685.662 1621.72 680.762 1621.72 674.58C1621.72 668.514 1616.82 663.498 1610.64 663.498Z" fill="#03498A"/>
<path d="M1306.05 578.457C1295.91 578.457 1287.62 570.175 1287.62 560.026C1287.62 549.877 1295.91 541.595 1306.05 541.595C1316.2 541.595 1324.49 549.877 1324.49 560.026C1324.49 570.175 1316.2 578.457 1306.05 578.457ZM1306.05 548.944C1299.99 548.944 1294.97 553.843 1294.97 560.026C1294.97 566.092 1299.87 571.108 1306.05 571.108C1312.12 571.108 1317.14 566.209 1317.14 560.026C1317.14 553.843 1312.12 548.944 1306.05 548.944Z" fill="#03498A"/>
<path d="M1498.43 882.863C1488.28 882.863 1480 874.58 1480 864.431C1480 854.282 1488.28 846 1498.43 846C1508.58 846 1516.86 854.282 1516.86 864.431C1516.86 874.58 1508.58 882.863 1498.43 882.863ZM1498.43 853.349C1492.37 853.349 1487.35 858.249 1487.35 864.431C1487.35 870.497 1492.25 875.513 1498.43 875.513C1504.5 875.513 1509.51 870.614 1509.51 864.431C1509.51 858.365 1504.5 853.349 1498.43 853.349Z" fill="#03498A"/>
<path d="M1711.2 838L1706 843.197L1740.57 877.754L1745.76 872.557L1711.2 838Z" fill="#03498A"/>
<path d="M1690 893.955L1706.33 838.778L1753.11 792L1791.96 830.846L1745.18 877.624L1690 893.955ZM1712.86 842.744L1700.85 883.107L1741.21 871.091L1781.46 830.846L1752.99 802.382L1712.86 842.744Z" fill="#03498A"/>
<path d="M1695.6 888.472L1700.85 870.508L1713.45 883.106L1695.6 888.472Z" fill="#03498A"/>
<path d="M1758.65 802.661L1715.17 846.125L1720.36 851.323L1763.84 807.859L1758.65 802.661Z" fill="#03498A"/>
<path d="M1776.02 820.318L1732.57 863.807L1737.77 869.001L1781.22 825.513L1776.02 820.318Z" fill="#03498A"/>
<path d="M1728.34 733.256C1725.66 733.256 1723.09 732.206 1721.11 730.223C1717.14 726.257 1717.14 719.724 1721.11 715.758L1730.09 706.776C1729.27 706.309 1728.46 705.726 1727.76 705.026C1725.77 703.043 1724.72 700.476 1724.72 697.793C1724.72 696.394 1724.96 695.11 1725.54 693.827C1724.37 693.361 1723.32 692.661 1722.51 691.727C1719.01 688.228 1718.54 682.862 1721.22 678.895C1720.29 678.429 1719.47 677.846 1718.66 677.029C1714.69 673.063 1714.69 666.53 1718.66 662.564C1718.89 662.331 1726.59 654.398 1738.02 645.066C1744.67 639.7 1762.4 627.101 1763.1 626.635L1765.67 624.885L1795.77 654.981L1797.87 656.148L1782.58 713.075C1781.88 715.758 1780.02 717.975 1777.45 719.374C1775 720.658 1772.09 720.891 1769.29 720.191C1763.57 718.674 1760.07 713.075 1761.24 707.709L1761.59 704.443L1735.57 730.457C1733.59 732.323 1731.02 733.256 1728.34 733.256ZM1742.22 705.026L1726.24 721.008C1725.07 722.174 1725.07 723.924 1726.24 725.09C1727.41 726.257 1729.16 726.257 1730.32 725.09L1770.8 684.612L1768.35 709.225C1768 710.742 1769.17 712.492 1771.15 712.958C1772.2 713.192 1773.14 713.192 1774.07 712.725C1774.54 712.492 1775.24 712.025 1775.47 711.092L1789.47 659.064L1764.85 634.45C1759.6 638.183 1747.71 646.816 1742.69 650.782C1731.61 659.764 1724.02 667.58 1723.91 667.697C1722.74 668.863 1722.74 670.73 1723.91 671.896C1724.49 672.48 1725.19 672.713 1726.01 672.713C1726.82 672.713 1727.52 672.363 1728.11 671.896L1728.57 671.43L1733.82 676.679L1727.99 682.512C1726.82 683.678 1726.82 685.428 1727.99 686.595C1729.16 687.761 1730.91 687.761 1732.07 686.595L1737.32 691.844L1733.36 695.81C1732.77 696.394 1732.54 697.093 1732.54 697.91C1732.54 698.727 1732.89 699.427 1733.36 700.01C1734.52 701.176 1736.27 701.176 1737.44 700.01L1742.22 705.026Z" fill="#03498A"/>
<path d="M1747.99 688.814L1728.93 707.863L1734.12 713.061L1753.18 694.013L1747.99 688.814Z" fill="#03498A"/>
<path d="M1738.71 679.527L1727.82 690.417L1733.02 695.613L1743.91 684.723L1738.71 679.527Z" fill="#03498A"/>
<path d="M1732.73 666.956L1723.25 676.447L1728.45 681.641L1737.93 672.15L1732.73 666.956Z" fill="#03498A"/>
</g>
<g opacity="0.5">
<path d="M441.417 46.026C439.434 46.026 437.45 45.676 435.584 44.9761L438.15 38.0935C441.65 39.3767 445.616 38.5601 448.299 35.8771C450.866 33.3107 451.799 29.3445 450.516 25.7282C448.299 19.5456 449.816 12.5463 454.365 7.88018C459.031 3.21403 466.031 1.69753 472.213 3.91395L469.647 10.7965C466.147 9.51334 462.181 10.3299 459.498 13.013C456.932 15.5793 455.998 19.5456 457.282 23.1618C459.498 29.3445 457.982 36.3437 453.315 41.0099C450.166 44.2762 445.85 46.026 441.417 46.026Z" fill="#03498A"/>
<path d="M1218.21 440.548C1216.23 440.548 1214.25 440.198 1212.38 439.499L1214.95 432.616C1218.45 433.899 1222.41 433.083 1225.1 430.4C1227.66 427.833 1228.6 423.867 1227.31 420.251C1225.1 414.068 1226.61 407.069 1231.28 402.403C1235.95 397.736 1242.94 396.22 1249.13 398.436L1246.56 405.319C1243.06 404.036 1239.09 404.852 1236.41 407.535C1233.85 410.102 1232.91 414.068 1234.2 417.684C1236.41 423.867 1234.9 430.866 1230.23 435.532C1226.96 438.915 1222.65 440.548 1218.21 440.548Z" fill="#03498A"/>
<path d="M1138.89 221.473C1136.91 221.473 1134.92 221.123 1133.06 220.423L1135.62 213.54C1139.12 214.823 1143.09 214.007 1145.77 211.324C1148.34 208.757 1149.27 204.791 1147.99 201.175C1145.77 194.992 1147.29 187.993 1151.84 183.327C1156.5 178.661 1163.5 177.144 1169.69 179.477L1167.12 186.36C1163.62 185.077 1159.65 185.893 1156.97 188.576C1154.4 191.143 1153.47 195.109 1154.75 198.725C1156.97 204.908 1155.45 211.907 1150.79 216.573C1147.64 219.723 1143.32 221.473 1138.89 221.473Z" fill="#03498A"/>
<path d="M449.466 170.962C447.482 170.962 445.499 170.612 443.633 169.912L446.199 163.029C449.699 164.312 453.665 163.496 456.348 160.813C458.914 158.246 459.848 154.28 458.565 150.664C456.348 144.481 457.865 137.482 462.531 132.816C467.197 128.15 474.196 126.633 480.379 128.849L477.812 135.732C474.313 134.449 470.347 135.265 467.664 137.949C465.097 140.515 464.164 144.481 465.447 148.097C467.664 154.28 466.147 161.279 461.481 165.945C458.215 169.212 453.898 170.962 449.466 170.962Z" fill="#03498A"/>
<path d="M983.833 368.115C981.85 368.115 979.866 367.765 978 367.065L980.566 360.182C984.066 361.466 988.032 360.649 990.715 357.966C993.282 355.4 994.215 351.433 992.932 347.817C990.715 341.634 992.232 334.635 996.898 329.969C1001.56 325.303 1008.56 323.786 1014.75 326.003L1012.18 332.885C1008.68 331.602 1004.71 332.419 1002.03 335.102C999.464 337.668 998.531 341.634 999.814 345.251C1002.03 351.433 1000.51 358.433 995.848 363.099C992.582 366.365 988.149 368.115 983.833 368.115Z" fill="#03498A"/>
<path d="M938.01 225.789C936.027 225.789 934.044 225.439 932.178 224.739L934.744 217.856C938.244 219.14 942.21 218.323 944.893 215.64C947.459 213.074 948.393 209.107 947.109 205.491C944.893 199.308 946.409 192.309 951.076 187.643C955.742 182.977 962.741 181.46 968.924 183.677C972.423 184.96 976.389 184.143 979.073 181.46C981.639 178.894 982.572 174.928 981.289 171.312C979.073 165.129 980.589 158.13 985.255 153.464C989.921 148.797 996.921 147.281 1003.1 149.497C1006.6 150.78 1010.57 149.964 1013.25 147.281C1015.82 144.714 1016.75 140.748 1015.47 137.132C1013.25 130.949 1014.77 123.95 1019.43 119.284C1024.1 114.618 1031.1 113.101 1037.28 115.434C1040.78 116.718 1044.75 115.901 1047.43 113.218C1050 110.652 1050.93 106.685 1049.65 103.069C1047.43 96.8864 1048.95 89.8872 1053.61 85.221C1058.28 80.5549 1065.28 79.0383 1071.46 81.2548L1068.9 88.1374C1065.4 86.8542 1061.43 87.6707 1058.75 90.3538C1056.18 93.0368 1055.25 96.8864 1056.53 100.503C1058.75 106.685 1057.23 113.685 1052.56 118.351C1047.9 123.017 1040.9 124.533 1034.72 122.317C1031.22 121.034 1027.25 121.85 1024.57 124.533C1022 127.1 1021.07 131.066 1022.35 134.682C1024.57 140.865 1023.05 147.864 1018.38 152.53C1013.72 157.196 1006.72 158.713 1000.54 156.496C997.037 155.213 993.071 156.03 990.388 158.713C987.822 161.279 986.888 165.246 988.172 168.862C990.388 175.044 988.871 182.044 984.205 186.71C979.539 191.376 972.54 192.892 966.357 190.676C962.858 189.393 958.891 190.209 956.208 192.892C953.642 195.459 952.709 199.425 953.992 203.041C956.208 209.224 954.692 216.223 950.026 220.889C946.759 224.039 942.443 225.789 938.01 225.789Z" fill="#03498A"/>
<path d="M605.833 259.223C603.85 259.223 601.866 258.873 600 258.173L602.566 251.291C606.066 252.574 610.032 251.757 612.715 249.074C615.282 246.508 616.215 242.542 614.932 238.926C612.715 232.743 614.232 225.744 618.898 221.077C623.564 216.411 630.563 214.895 636.746 217.111C640.246 218.394 644.212 217.578 646.895 214.895C649.461 212.328 650.394 208.362 649.111 204.746C646.895 198.563 648.411 191.564 653.077 186.898C657.744 182.232 664.743 180.715 670.926 182.932C674.425 184.215 678.391 183.398 681.074 180.715C683.641 178.149 684.574 174.183 683.291 170.566L690.173 168C692.39 174.183 690.873 181.182 686.207 185.848C681.541 190.514 674.542 192.031 668.359 189.814C664.86 188.531 660.893 189.348 658.21 192.031C655.644 194.597 654.711 198.563 655.994 202.18C658.21 208.362 656.694 215.361 652.028 220.028C647.361 224.694 640.362 226.21 634.18 223.994C630.68 222.711 626.714 223.527 624.031 226.21C621.464 228.777 620.531 232.743 621.814 236.359C624.031 242.542 622.514 249.541 617.848 254.207C614.582 257.473 610.266 259.223 605.833 259.223Z" fill="#03498A"/>
<path d="M892.516 122.784C890.533 122.784 888.55 122.434 886.684 121.734L889.25 114.851C892.75 116.135 896.716 115.318 899.399 112.635C901.965 109.952 902.898 106.102 901.615 102.486C899.399 96.3034 900.915 89.3042 905.581 84.638C910.248 79.9719 917.247 78.4554 923.43 80.6718C926.929 81.955 930.895 81.1384 933.578 78.4554C936.145 75.889 937.078 71.9228 935.795 68.3065C933.578 62.1238 935.095 55.1246 939.761 50.4585C944.427 45.7923 951.426 44.2758 957.609 46.4922C961.109 47.7754 965.075 46.9589 967.758 44.2758C970.324 41.7094 971.258 37.7432 969.974 34.1269L976.857 31.5605C979.073 37.7432 977.557 44.7424 972.891 49.4086C968.225 54.0747 961.225 55.5912 955.043 53.3748C951.543 52.0916 947.577 52.9082 944.894 55.5912C942.327 58.1576 941.394 62.1239 942.677 65.7401C944.894 71.9228 943.377 78.922 938.711 83.5882C934.045 88.2543 927.046 89.7708 920.863 87.4377C917.364 86.1545 913.397 86.9711 910.714 89.6542C908.148 92.2205 907.215 96.1868 908.498 99.803C910.714 105.986 909.198 112.985 904.532 117.651C901.382 121.034 896.949 122.784 892.516 122.784Z" fill="#03498A"/>
<path d="M364.308 588.233C362.091 582.05 363.608 575.051 368.274 570.385C372.94 565.719 379.939 564.202 386.122 566.419C389.621 567.702 393.588 566.885 396.271 564.202C398.837 561.636 399.77 557.67 398.487 554.053C396.271 547.871 397.787 540.872 402.453 536.205C407.119 531.539 414.119 530.023 420.301 532.239L417.735 539.122C414.235 537.839 410.269 538.655 407.586 541.338C405.02 543.905 404.086 547.871 405.37 551.487C407.586 557.67 406.07 564.669 401.403 569.335C396.737 574.001 389.738 575.518 383.555 573.185C380.056 571.901 376.09 572.718 373.406 575.401C370.84 578.084 369.907 581.934 371.19 585.55L364.308 588.233Z" fill="#03498A"/>
<path d="M1120.22 329.378C1118.01 323.195 1119.52 316.196 1124.19 311.529C1128.86 306.863 1135.86 305.347 1142.04 307.563C1145.54 308.846 1149.5 308.03 1152.19 305.347C1154.75 302.78 1155.69 298.814 1154.4 295.198C1152.19 289.015 1153.7 282.016 1158.37 277.35C1163.04 272.684 1170.03 271.167 1176.22 273.384L1173.65 280.266C1170.15 278.983 1166.19 279.8 1163.5 282.483C1160.94 285.049 1160 289.015 1161.29 292.632C1163.5 298.814 1161.99 305.813 1157.32 310.48C1152.65 315.146 1145.65 316.662 1139.47 314.446C1135.97 313.163 1132.01 313.979 1129.32 316.662C1126.76 319.229 1125.82 323.195 1127.11 326.811L1120.22 329.378Z" fill="#03498A"/>
<path d="M756.255 202.254L721.684 236.811L726.879 242.009L761.451 207.452L756.255 202.254Z" fill="#03498A"/>
<path d="M1092.92 272.451L1058.37 307.027L1063.56 312.222L1098.12 277.646L1092.92 272.451Z" fill="#03498A"/>
<path d="M468.134 332.46L391.795 408.885L396.994 414.078L473.333 337.653L468.134 332.46Z" fill="#03498A"/>
<path d="M127.784 262.704L93.2129 297.261L98.4088 302.459L132.98 267.902L127.784 262.704Z" fill="#03498A"/>
<path d="M710.306 15.0292L675.754 49.6006L680.952 54.7957L715.504 20.2244L710.306 15.0292Z" fill="#03498A"/>
<path d="M559.18 76.371L524.623 110.938L529.82 116.133L564.377 81.5669L559.18 76.371Z" fill="#03498A"/>
<path d="M267.315 -7.5382e-05L232.748 34.5566L237.944 39.754L272.51 5.19727L267.315 -7.5382e-05Z" fill="#03498A"/>
<path d="M1184.26 1.30752L1149.69 35.8643L1154.89 41.0623L1189.46 6.5056L1184.26 1.30752Z" fill="#03498A"/>
<path d="M125.959 370.232L37.4141 458.702L42.6085 463.901L131.153 375.431L125.959 370.232Z" fill="#03498A"/>
<path d="M1300.53 281L1212 369.495L1217.2 374.693L1305.73 286.198L1300.53 281Z" fill="#03498A"/>
<path d="M659.156 111.987L523.486 247.695L528.684 252.891L664.354 117.183L659.156 111.987Z" fill="#03498A"/>
<path d="M1387.34 330.546L1251.65 466.235L1256.85 471.432L1392.53 335.743L1387.34 330.546Z" fill="#03498A"/>
<path d="M3.36122 24.4659L-132.328 160.155L-127.132 165.352L8.55783 29.6625L3.36122 24.4659Z" fill="#03498A"/>
<path d="M1045.62 402L1011.05 436.552L1016.24 441.75L1050.82 407.198L1045.62 402Z" fill="#03498A"/>
<path d="M1010 442.858V417.544H1017.35V435.509H1035.31V442.858H1010Z" fill="#03498A"/>
<path d="M476.793 433.583L442.236 468.149L447.434 473.345L481.99 438.779L476.793 433.583Z" fill="#03498A"/>
<path d="M441.182 474.378V449.064H448.531V467.029H466.496V474.378H441.182Z" fill="#03498A"/>
<path d="M1547.59 406L1513.03 440.562L1518.23 445.758L1552.79 411.197L1547.59 406Z" fill="#03498A"/>
<path d="M1512 446.896V421.582H1519.35V439.43H1537.31V446.896H1512Z" fill="#03498A"/>
<path d="M100.664 90.3476L66.1074 124.914L71.3048 130.11L105.861 95.5434L100.664 90.3476Z" fill="#03498A"/>
<path d="M64.9746 131.299V105.985H72.4404V123.95L90.2885 123.833V131.299H64.9746Z" fill="#03498A"/>
<path d="M810.043 319.462C799.894 319.462 791.611 311.18 791.611 301.031C791.611 290.882 799.894 282.6 810.043 282.6C820.192 282.6 828.474 290.882 828.474 301.031C828.474 311.18 820.192 319.462 810.043 319.462ZM810.043 289.949C803.977 289.949 798.961 294.848 798.961 301.031C798.961 307.097 803.977 312.113 810.043 312.113C816.109 312.113 821.125 307.214 821.125 301.031C821.008 294.965 816.109 289.949 810.043 289.949Z" fill="#03498A"/>
<path d="M993.422 268.018C983.273 268.018 974.99 259.735 974.99 249.587C974.99 239.438 983.273 231.155 993.422 231.155C1003.57 231.155 1011.85 239.438 1011.85 249.587C1011.85 259.735 1003.57 268.018 993.422 268.018ZM993.422 238.504C987.356 238.504 982.339 243.521 982.339 249.587C982.339 255.653 987.239 260.669 993.422 260.669C999.488 260.669 1004.5 255.769 1004.5 249.587C1004.5 243.404 999.488 238.504 993.422 238.504Z" fill="#03498A"/>
<path d="M197.025 179.011C186.876 179.011 178.594 170.729 178.594 160.58C178.594 150.431 186.876 142.148 197.025 142.148C207.174 142.148 215.456 150.431 215.456 160.58C215.456 170.729 207.174 179.011 197.025 179.011ZM197.025 149.498C190.959 149.498 185.943 154.397 185.943 160.58C185.943 166.646 190.959 171.662 197.025 171.662C203.091 171.662 208.107 166.762 208.107 160.58C208.107 154.514 203.091 149.498 197.025 149.498Z" fill="#03498A"/>
<path d="M18.8942 360.641C8.74532 360.641 0.462891 352.358 0.462891 342.21C0.462891 332.061 8.74532 323.778 18.8942 323.778C29.0431 323.778 37.3255 332.061 37.3255 342.21C37.3255 352.358 29.0431 360.641 18.8942 360.641ZM18.8942 331.127C12.8282 331.127 7.81209 336.027 7.81209 342.21C7.81209 348.276 12.7115 353.292 18.8942 353.292C24.9602 353.292 29.9763 348.392 29.9763 342.21C29.9763 336.144 24.9602 331.127 18.8942 331.127Z" fill="#03498A"/>
<path d="M190.611 433.549L206.943 378.372L253.721 331.594L292.567 370.439L245.789 417.218L190.611 433.549ZM213.475 382.338L201.46 422.7L241.822 410.685L282.068 370.439L253.604 341.976L213.475 382.338Z" fill="#03498A"/>
<path d="M196.092 428.067L201.458 410.103L214.056 422.701L196.092 428.067Z" fill="#03498A"/>
<path d="M212.319 377.179L207.123 382.376L241.69 416.933L246.885 411.735L212.319 377.179Z" fill="#03498A"/>
<path d="M259.187 342.297L215.705 385.761L220.901 390.959L264.383 347.495L259.187 342.297Z" fill="#03498A"/>
<path d="M276.606 359.86L233.154 403.349L238.353 408.543L281.805 365.055L276.606 359.86Z" fill="#03498A"/>
<path d="M314.729 219.256C312.046 219.256 309.48 218.206 307.497 216.223C303.53 212.257 303.53 205.724 307.497 201.758L316.479 192.776C315.662 192.309 314.846 191.726 314.146 191.026C312.163 189.043 311.113 186.476 311.113 183.793C311.113 182.394 311.346 181.11 311.93 179.827C310.763 179.361 309.713 178.661 308.897 177.727C305.397 174.228 304.93 168.862 307.613 164.895C306.68 164.429 305.864 163.846 305.047 163.029C301.081 159.063 301.081 152.53 305.047 148.564C305.28 148.331 312.979 140.398 324.411 131.066C331.061 125.7 348.792 113.101 349.492 112.635L352.058 110.885L382.155 140.981L384.255 142.148L368.973 199.075C368.273 201.758 366.407 203.975 363.84 205.374C361.391 206.658 358.474 206.891 355.675 206.191C349.959 204.674 346.342 199.075 347.626 193.709L347.976 190.443L321.962 216.457C319.979 218.323 317.412 219.256 314.729 219.256ZM328.611 191.026L312.629 207.008C311.463 208.174 311.463 209.924 312.629 211.09C313.796 212.257 315.546 212.257 316.712 211.09L357.191 170.612L354.741 195.225C354.392 196.742 355.558 198.492 357.541 198.958C358.591 199.192 359.524 199.192 360.458 198.725C360.924 198.492 361.624 198.025 361.857 197.092L375.856 145.064L351.242 120.45C345.992 124.183 334.094 132.816 329.078 136.782C317.996 145.764 310.413 153.58 310.296 153.697C309.13 154.863 309.13 156.73 310.296 157.896C310.88 158.48 311.58 158.713 312.396 158.713C313.213 158.713 313.913 158.363 314.496 157.896L314.963 157.43L320.212 162.679L314.379 168.512C313.213 169.678 313.213 171.428 314.379 172.595C315.546 173.761 317.296 173.761 318.462 172.595L323.712 177.844L319.745 181.81C319.162 182.394 318.929 183.093 318.929 183.91C318.929 184.727 319.279 185.427 319.745 186.01C320.912 187.176 322.662 187.176 323.828 186.01L328.611 191.026Z" fill="#03498A"/>
<path d="M334.427 174.844L315.367 193.893L320.562 199.091L339.622 180.042L334.427 174.844Z" fill="#03498A"/>
<path d="M325.098 165.497L314.213 176.389L319.411 181.584L330.296 170.693L325.098 165.497Z" fill="#03498A"/>
<path d="M319.113 152.932L309.633 162.423L314.832 167.617L324.313 158.125L319.113 152.932Z" fill="#03498A"/>
<path d="M650.344 418.735C639.262 418.735 623.98 410.219 610.332 396.687C601.583 387.938 594.7 378.139 591.084 369.157C587.001 359.241 587.351 351.075 592.017 346.409C594.467 343.959 598.083 342.56 602.283 342.56C613.248 342.56 628.646 351.075 642.295 364.607C651.044 373.356 657.927 383.155 661.543 392.137C665.626 402.053 665.276 410.219 660.61 414.885C658.043 417.451 654.544 418.735 650.344 418.735ZM602.283 350.025C599.95 350.025 598.316 350.609 597.267 351.659C594.933 353.992 595.167 359.591 597.85 366.357C601.116 374.406 607.415 383.272 615.581 391.438C629.346 405.203 642.995 411.385 650.344 411.385C652.56 411.385 654.31 410.802 655.36 409.752C657.693 407.419 657.46 401.82 654.777 395.054C651.511 387.005 645.211 378.139 637.046 369.973C623.28 356.208 609.632 350.025 602.283 350.025Z" fill="#03498A"/>
<path d="M632.613 392.137C628.763 392.137 625.264 390.621 622.581 387.938L619.198 384.555C613.598 378.955 613.598 369.973 619.198 364.374L625.73 357.841C626.43 357.141 627.363 356.441 628.297 355.858L630.513 354.458L632.496 356.091C635.879 358.774 639.262 361.691 642.412 364.84C645.561 367.99 648.478 371.256 651.161 374.756L652.794 376.739L651.394 378.955C650.811 379.889 650.111 380.705 649.411 381.522L642.878 388.054C639.962 390.621 636.462 392.137 632.613 392.137ZM630.163 363.674L624.33 369.506C621.647 372.189 621.647 376.622 624.33 379.305L627.713 382.688C630.28 385.255 634.829 385.255 637.512 382.688L643.345 376.856C641.362 374.522 639.262 372.189 637.046 369.973C634.829 367.757 632.496 365.657 630.163 363.674Z" fill="#03498A"/>
<path d="M656.992 403.686C652.676 370.323 673.09 350.842 674.724 349.326L680.906 343.143L691.055 368.573C691.755 370.44 693.855 371.257 695.721 370.557C697.588 369.857 698.404 367.757 697.704 365.89L686.389 337.544L691.755 332.177C693.272 330.661 694.205 328.561 694.205 326.345C694.205 324.128 693.388 322.145 691.755 320.512L686.272 315.029C683.123 311.88 677.873 311.88 674.724 315.029L657.576 332.177C656.059 333.927 636.461 354.225 603.215 349.909L604.148 342.56C634.361 346.409 651.976 327.278 652.209 327.045L652.326 326.928L669.474 309.78C675.54 303.714 685.456 303.714 691.522 309.78L697.004 315.263C699.921 318.179 701.554 322.145 701.554 326.228C701.554 330.428 699.921 334.277 697.004 337.194L695.021 339.177L704.47 362.974C706.687 368.574 704.004 374.989 698.288 377.206C692.688 379.422 686.272 376.739 684.056 371.023L678.107 355.975C673.557 360.874 660.842 377.206 664.225 402.52L656.992 403.686Z" fill="#03498A"/>
<path d="M1855.03 46.026C1853.04 46.026 1851.06 45.676 1849.19 44.9761L1851.76 38.0935C1855.26 39.3767 1859.23 38.5601 1861.91 35.8771C1864.48 33.3107 1865.41 29.3445 1864.13 25.7282C1861.91 19.5456 1863.43 12.5463 1867.97 7.88018C1872.64 3.21403 1879.64 1.69753 1885.82 3.91395L1883.26 10.7965C1879.76 9.51334 1875.79 10.3299 1873.11 13.013C1870.54 15.5793 1869.61 19.5456 1870.89 23.1618C1873.11 29.3445 1871.59 36.3437 1866.92 41.0099C1863.78 44.2762 1859.46 46.026 1855.03 46.026Z" fill="#03498A"/>
<path d="M1863.08 170.962C1861.09 170.962 1859.11 170.612 1857.24 169.912L1859.81 163.029C1863.31 164.312 1867.28 163.496 1869.96 160.813C1872.53 158.246 1873.46 154.28 1872.18 150.664C1869.96 144.481 1871.48 137.482 1876.14 132.816C1880.81 128.15 1887.81 126.633 1893.99 128.849L1891.42 135.732C1887.92 134.449 1883.96 135.265 1881.27 137.949C1878.71 140.515 1877.78 144.481 1879.06 148.097C1881.27 154.28 1879.76 161.279 1875.09 165.945C1871.83 169.212 1867.51 170.962 1863.08 170.962Z" fill="#03498A"/>
<path d="M1740.83 476.115C1738.85 476.115 1736.87 475.765 1735 475.065L1737.57 468.182C1741.07 469.466 1745.03 468.649 1747.72 465.966C1750.28 463.4 1751.21 459.433 1749.93 455.817C1747.72 449.634 1749.23 442.635 1753.9 437.969C1758.56 433.303 1765.56 431.786 1771.75 434.003L1769.18 440.885C1765.68 439.602 1761.71 440.419 1759.03 443.102C1756.46 445.668 1755.53 449.634 1756.81 453.251C1759.03 459.433 1757.51 466.433 1752.85 471.099C1749.58 474.365 1745.27 476.115 1740.83 476.115Z" fill="#03498A"/>
<path d="M1341.28 299.164C1339.07 292.982 1340.58 285.982 1345.25 281.316C1349.92 276.65 1356.92 275.133 1363.1 277.467C1366.6 278.75 1370.56 277.933 1373.25 275.25C1375.81 272.684 1376.75 268.718 1375.46 265.101C1373.25 258.919 1374.76 251.919 1379.43 247.253C1384.1 242.587 1391.1 241.071 1397.28 243.287L1394.71 250.17C1391.21 248.886 1387.25 249.703 1384.56 252.386C1382 254.952 1381.06 258.919 1382.35 262.535C1384.56 268.718 1383.05 275.717 1378.38 280.383C1373.71 285.049 1366.71 286.566 1360.53 284.349C1357.03 283.066 1353.07 283.883 1350.38 286.566C1347.82 289.132 1346.88 293.098 1348.17 296.714L1341.28 299.164Z" fill="#03498A"/>
<path d="M1897.34 254L1821 330.425L1826.2 335.618L1902.54 259.193L1897.34 254Z" fill="#03498A"/>
<path d="M1541.33 262.679L1506.76 297.23L1511.95 302.429L1546.53 267.877L1541.33 262.679Z" fill="#03498A"/>
<path d="M1680.97 0.0643562L1646.4 34.6211L1651.6 39.8184L1686.16 5.26171L1680.97 0.0643562Z" fill="#03498A"/>
<path d="M1354.23 152.312L1265.71 240.807L1270.91 246.004L1359.43 157.509L1354.23 152.312Z" fill="#03498A"/>
<path d="M1416.98 24.4972L1281.29 160.187L1286.49 165.383L1422.18 29.6938L1416.98 24.4972Z" fill="#03498A"/>
<path d="M1917.56 401L1883 435.566L1888.2 440.762L1922.75 406.196L1917.56 401Z" fill="#03498A"/>
<path d="M1854.79 474.378V449.064H1862.14V467.029H1880.11V474.378H1854.79Z" fill="#03498A"/>
<path d="M1514.25 90.3476L1479.69 124.914L1484.89 130.11L1519.45 95.5434L1514.25 90.3476Z" fill="#03498A"/>
<path d="M1478.7 131.299V105.985H1486.05V123.95L1504.01 123.833V131.299H1478.7Z" fill="#03498A"/>
<path d="M1610.64 179.011C1600.49 179.011 1592.21 170.729 1592.21 160.58C1592.21 150.431 1600.49 142.148 1610.64 142.148C1620.79 142.148 1629.07 150.431 1629.07 160.58C1629.07 170.729 1620.79 179.011 1610.64 179.011ZM1610.64 149.498C1604.57 149.498 1599.55 154.397 1599.55 160.58C1599.55 166.646 1604.57 171.662 1610.64 171.662C1616.7 171.662 1621.72 166.762 1621.72 160.58C1621.72 154.514 1616.82 149.498 1610.64 149.498Z" fill="#03498A"/>
<path d="M1306.05 64.4573C1295.91 64.4573 1287.62 56.1749 1287.62 46.026C1287.62 35.8771 1295.91 27.5947 1306.05 27.5947C1316.2 27.5947 1324.49 35.8771 1324.49 46.026C1324.49 56.1749 1316.2 64.4573 1306.05 64.4573ZM1306.05 34.9439C1299.99 34.9439 1294.97 39.8434 1294.97 46.026C1294.97 52.092 1299.87 57.1081 1306.05 57.1081C1312.12 57.1081 1317.14 52.2087 1317.14 46.026C1317.14 39.8434 1312.12 34.9439 1306.05 34.9439Z" fill="#03498A"/>
<path d="M1498.43 368.863C1488.28 368.863 1480 360.58 1480 350.431C1480 340.282 1488.28 332 1498.43 332C1508.58 332 1516.86 340.282 1516.86 350.431C1516.86 360.58 1508.58 368.863 1498.43 368.863ZM1498.43 339.349C1492.37 339.349 1487.35 344.249 1487.35 350.431C1487.35 356.497 1492.25 361.513 1498.43 361.513C1504.5 361.513 1509.51 356.614 1509.51 350.431C1509.51 344.365 1504.5 339.349 1498.43 339.349Z" fill="#03498A"/>
<path d="M1711.2 324L1706 329.197L1740.57 363.754L1745.76 358.557L1711.2 324Z" fill="#03498A"/>
<path d="M1690 379.955L1706.33 324.778L1753.11 278L1791.96 316.846L1745.18 363.624L1690 379.955ZM1712.86 328.744L1700.85 369.107L1741.21 357.091L1781.46 316.846L1752.99 288.382L1712.86 328.744Z" fill="#03498A"/>
<path d="M1695.6 374.472L1700.85 356.508L1713.45 369.106L1695.6 374.472Z" fill="#03498A"/>
<path d="M1758.65 288.661L1715.17 332.125L1720.36 337.323L1763.84 293.859L1758.65 288.661Z" fill="#03498A"/>
<path d="M1776.02 306.318L1732.57 349.807L1737.77 355.001L1781.22 311.513L1776.02 306.318Z" fill="#03498A"/>
<path d="M1728.34 219.256C1725.66 219.256 1723.09 218.206 1721.11 216.223C1717.14 212.257 1717.14 205.724 1721.11 201.758L1730.09 192.776C1729.27 192.309 1728.46 191.726 1727.76 191.026C1725.77 189.043 1724.72 186.476 1724.72 183.793C1724.72 182.394 1724.96 181.11 1725.54 179.827C1724.37 179.361 1723.32 178.661 1722.51 177.727C1719.01 174.228 1718.54 168.862 1721.22 164.895C1720.29 164.429 1719.47 163.846 1718.66 163.029C1714.69 159.063 1714.69 152.53 1718.66 148.564C1718.89 148.331 1726.59 140.398 1738.02 131.066C1744.67 125.7 1762.4 113.101 1763.1 112.635L1765.67 110.885L1795.77 140.981L1797.87 142.148L1782.58 199.075C1781.88 201.758 1780.02 203.975 1777.45 205.374C1775 206.658 1772.09 206.891 1769.29 206.191C1763.57 204.674 1760.07 199.075 1761.24 193.709L1761.59 190.443L1735.57 216.457C1733.59 218.323 1731.02 219.256 1728.34 219.256ZM1742.22 191.026L1726.24 207.008C1725.07 208.174 1725.07 209.924 1726.24 211.09C1727.41 212.257 1729.16 212.257 1730.32 211.09L1770.8 170.612L1768.35 195.225C1768 196.742 1769.17 198.492 1771.15 198.958C1772.2 199.192 1773.14 199.192 1774.07 198.725C1774.54 198.492 1775.24 198.025 1775.47 197.092L1789.47 145.064L1764.85 120.45C1759.6 124.183 1747.71 132.816 1742.69 136.782C1731.61 145.764 1724.02 153.58 1723.91 153.697C1722.74 154.863 1722.74 156.73 1723.91 157.896C1724.49 158.48 1725.19 158.713 1726.01 158.713C1726.82 158.713 1727.52 158.363 1728.11 157.896L1728.57 157.43L1733.82 162.679L1727.99 168.512C1726.82 169.678 1726.82 171.428 1727.99 172.595C1729.16 173.761 1730.91 173.761 1732.07 172.595L1737.32 177.844L1733.36 181.81C1732.77 182.394 1732.54 183.093 1732.54 183.91C1732.54 184.727 1732.89 185.427 1733.36 186.01C1734.52 187.176 1736.27 187.176 1737.44 186.01L1742.22 191.026Z" fill="#03498A"/>
<path d="M1747.99 174.814L1728.93 193.863L1734.12 199.061L1753.18 180.013L1747.99 174.814Z" fill="#03498A"/>
<path d="M1738.71 165.527L1727.82 176.417L1733.02 181.613L1743.91 170.723L1738.71 165.527Z" fill="#03498A"/>
<path d="M1732.73 152.956L1723.25 162.447L1728.45 167.641L1737.93 158.15L1732.73 152.956Z" fill="#03498A"/>
</g>
<path d="M1655.5 431C1632.65 431 1614 412.351 1614 389.5C1614 366.649 1632.65 348 1655.5 348C1678.35 348 1697 366.649 1697 389.5C1697 412.351 1678.35 431 1655.5 431ZM1655.5 364.547C1641.84 364.547 1630.55 375.579 1630.55 389.5C1630.55 403.158 1641.84 414.453 1655.5 414.453C1669.16 414.453 1680.45 403.421 1680.45 389.5C1680.45 375.842 1669.42 364.547 1655.5 364.547Z" fill="#F9DD00"/>
<path d="M283.5 733C260.649 733 242 714.351 242 691.5C242 668.649 260.649 650 283.5 650C306.351 650 325 668.649 325 691.5C325 714.351 306.351 733 283.5 733ZM283.5 666.547C269.842 666.547 258.548 677.579 258.548 691.5C258.548 705.158 269.842 716.453 283.5 716.453C297.158 716.453 308.452 705.421 308.452 691.5C308.452 677.842 297.421 666.547 283.5 666.547Z" fill="#F9DD00"/>
<path d="M440.164 530.409L452.909 541.212L469.029 541.722L463.375 557.652L467.405 572.844L449.565 565.852L437.536 580.766L433.506 565.574L420.7 554.54L434.449 546.108L440.164 530.409Z" fill="#F9DD00"/>
<path d="M1381.37 534.153L1381.08 550.857L1390.9 563.655L1374.99 569.369L1365.79 582.11L1359.9 563.876L1340.74 564.013L1349.94 551.273L1350.37 534.374L1365.6 539.673L1381.37 534.153Z" fill="#F9DD00"/>
<path d="M596.824 137.434L604.06 143.568L613.215 143.858L610.004 152.904L612.292 161.531L602.162 157.56L595.331 166.029L593.043 157.402L585.771 151.137L593.578 146.349L596.824 137.434Z" fill="#F9DD00"/>
<path d="M1160.15 139.527L1160.03 149.013L1165.63 156.257L1156.61 159.539L1151.41 166.796L1148.03 156.456L1137.15 156.578L1142.34 149.322L1142.55 139.725L1151.21 142.698L1160.15 139.527Z" fill="#F9DD00"/>
<path d="M343.01 456.937L344.452 468.378L352.415 476.159L342.106 481.624L337.067 491.232L331.255 479.352L318.177 481.325L323.216 471.717L321.851 460.129L332.778 462.255L343.01 456.937Z" fill="#F9DD00"/>
<path d="M733.671 365.015L735.113 376.456L743.075 384.237L732.766 389.702L727.727 399.31L721.915 387.43L708.837 389.403L713.876 379.795L712.511 368.207L723.438 370.334L733.671 365.015Z" fill="#F9DD00"/>
</svg>
