<svg width="737" height="361" viewBox="0 0 737 361" fill="none" xmlns="http://www.w3.org/2000/svg">
<path d="M0 12C0 5.37257 5.37258 0 12 0H725C731.627 0 737 5.37258 737 12V361H0V12Z" fill="white"/>
<path d="M123.81 114.877V119.224H127.273V114.877H130.99V126.09H127.273V122.043H123.81V126.09H120.092V114.877H123.81Z" fill="black"/>
<path d="M145.757 121.848L144.603 118.565L143.418 121.848H145.757ZM146.671 124.501H142.459L141.874 126.09H138.066L142.804 114.877H146.611L151.169 126.09H147.211L146.656 124.501H146.671Z" fill="black"/>
<path d="M161.978 114.877H158.26V126.09H161.978V114.877Z" fill="black"/>
<mask id="mask0_2001_2818" style="mask-type:luminance" maskUnits="userSpaceOnUse" x="53" y="60" width="614" height="265">
<path d="M666.171 60.9414H53.9395V324.999H666.171V60.9414Z" fill="white"/>
</mask>
<g mask="url(#mask0_2001_2818)">
<path d="M173.706 120.363H175.415C176.21 120.363 176.674 119.868 176.674 118.999C176.674 118.129 176.21 117.679 175.415 117.679H173.706V120.348V120.363ZM176.449 126.089L175.1 123.181H173.706V126.089H169.988V114.876H175.415C178.458 114.876 180.197 116.33 180.197 118.894C180.197 120.528 179.568 121.742 178.428 122.447L180.647 126.089H176.449Z" fill="black"/>
<path d="M108.736 141.605C108.317 141.605 108.047 141.739 108.047 142.069C108.047 143.478 113.863 142.594 113.863 146.657C113.863 149.16 111.675 150.254 109.141 150.254C107.192 150.254 105.019 149.595 103.52 148.456L104.899 145.667C106.053 146.627 108.032 147.406 109.171 147.406C109.711 147.406 110.071 147.226 110.071 146.821C110.071 145.367 104.269 146.327 104.269 142.384C104.269 140.15 106.158 138.741 109.066 138.741C110.835 138.741 112.679 139.266 113.953 140.075L112.604 142.894C111.465 142.264 109.726 141.575 108.751 141.575" fill="black"/>
</g>
<path d="M126.371 145.908L125.216 142.625L124.032 145.908H126.371ZM127.285 148.562H123.073L122.503 150.151H118.695L123.433 138.938H127.24L131.798 150.151H127.84L127.285 148.562Z" fill="black"/>
<path d="M140.986 138.938V147.063H145.663V150.151H137.283V138.938H140.986Z" fill="black"/>
<mask id="mask1_2001_2818" style="mask-type:luminance" maskUnits="userSpaceOnUse" x="36" y="60" width="631" height="245">
<path d="M666.175 60.9414H36.375V304.237H666.175V60.9414Z" fill="white"/>
</mask>
<g mask="url(#mask1_2001_2818)">
<path d="M154.708 144.543C154.708 146.072 155.833 147.211 157.107 147.211C158.381 147.211 159.415 146.072 159.415 144.543C159.415 143.014 158.396 141.905 157.107 141.905C155.818 141.905 154.708 143.014 154.708 144.543ZM163.223 144.528C163.223 147.856 160.63 150.3 157.062 150.3C153.494 150.3 150.9 147.871 150.9 144.528C150.9 141.185 153.494 138.816 157.062 138.816C160.63 138.816 163.223 141.215 163.223 144.528Z" fill="black"/>
</g>
<path d="M172.203 138.938L176.64 144.694V138.938H179.998V150.151H176.895L172.473 144.424V150.151H169.1V138.938H172.203Z" fill="black"/>
<mask id="mask2_2001_2818" style="mask-type:luminance" maskUnits="userSpaceOnUse" x="36" y="60" width="653" height="265">
<path d="M688.002 60.9414H36.375V324.999H688.002V60.9414Z" fill="white"/>
</mask>
<g mask="url(#mask2_2001_2818)">
<path d="M259.351 132.565L253.759 120.422H253.684L248.167 132.565H259.351ZM229.113 148.306L252.14 98.8046C252.365 98.3549 252.874 97.9951 253.384 97.9951H254.119C254.628 97.9951 255.153 98.3549 255.363 98.8046L278.389 148.306C278.824 149.265 278.24 150.224 277.13 150.224H268.96C267.641 150.224 267.041 149.79 266.381 148.381L263.728 142.564H243.715L241.061 148.441C240.702 149.325 239.877 150.209 238.408 150.209H230.313C229.203 150.209 228.619 149.25 229.068 148.291" fill="black"/>
<path d="M481.029 100.124C481.029 99.3891 481.614 98.7295 482.424 98.7295H491.178C491.913 98.7295 492.573 99.3891 492.573 100.124V139.401H510.082C510.892 139.401 511.476 140.06 511.476 140.795V148.815C511.476 149.55 510.892 150.209 510.082 150.209H482.424C481.614 150.209 481.029 149.55 481.029 148.815V100.124Z" fill="black"/>
<path d="M604.07 125.429L587.819 100.858C587.235 99.8988 587.819 98.7295 588.989 98.7295H598.553C599.138 98.7295 599.512 99.1043 599.737 99.3891L609.961 114.47L620.185 99.3891C620.41 99.0893 620.695 98.7295 621.37 98.7295H630.934C632.118 98.7295 632.703 99.9138 632.118 100.858L615.643 125.354V148.815C615.643 149.55 614.983 150.209 614.249 150.209H605.494C604.684 150.209 604.1 149.55 604.1 148.815V125.429H604.07Z" fill="black"/>
<path d="M134.325 245.898C137.488 245.898 140.141 243.395 140.141 240.082C140.141 236.993 137.488 234.64 134.325 234.64H127.339V245.898H134.325ZM115.855 225.225C115.855 224.491 116.44 223.831 117.25 223.831H134.969C144.024 223.831 151.445 231.192 151.445 240.097C151.445 249.001 144.024 256.647 135.044 256.647H127.324V273.932C127.324 274.666 126.664 275.326 125.93 275.326H117.25C116.44 275.326 115.855 274.666 115.855 273.932V225.24V225.225Z" fill="black"/>
<path d="M363.945 225.24C363.945 224.505 364.53 223.846 365.339 223.846H374.094C374.829 223.846 375.489 224.505 375.489 225.24V264.517H392.998C393.808 264.517 394.392 265.176 394.392 265.911V273.931C394.392 274.666 393.808 275.325 392.998 275.325H365.339C364.53 275.325 363.945 274.666 363.945 273.931V225.24Z" fill="black"/>
<path d="M203.255 257.606C199.313 264.727 203.06 274.846 216.373 274.726C224.228 274.651 251.317 268.58 258.228 244.729C258.228 244.729 255.68 237.353 254.031 235.419C251.452 232.391 245.321 228.883 236.491 234.82C223.943 243.26 225.622 255.582 215.278 260.979C208.862 264.337 207.168 260.38 209.821 254.968C210.646 253.289 205.534 253.514 203.255 257.606Z" fill="black"/>
<path d="M304.27 257.606C308.212 264.727 304.464 274.846 291.152 274.726C283.297 274.651 256.208 268.58 249.297 244.729C249.297 244.729 251.845 237.353 253.494 235.419C256.073 232.391 262.204 228.883 271.034 234.82C283.582 243.26 281.903 255.582 292.247 260.979C298.663 264.337 300.357 260.38 297.703 254.968C296.879 253.289 301.991 253.514 304.27 257.606Z" fill="black"/>
<path d="M350.465 127.437L355.622 128.787C357.976 129.401 360.449 127.992 361.079 125.608L370.299 90.559C370.598 89.4047 370.434 88.2054 369.834 87.171C369.234 86.1366 368.275 85.402 367.12 85.1022L366.281 84.8774C363.912 84.2477 361.454 85.6719 360.824 88.0555L350.465 127.407V127.437ZM356.747 133.854C355.967 133.854 355.157 133.749 354.363 133.539L344.469 130.93L356.072 86.8262C357.391 81.8341 362.503 78.8209 367.51 80.1551L368.35 80.38C370.763 81.0096 372.802 82.5537 374.061 84.7274C375.321 86.8862 375.665 89.4047 375.036 91.8333L365.816 126.883C364.707 131.08 360.914 133.869 356.762 133.869" fill="black"/>
<path d="M341.203 148.725C341.023 148.725 340.589 149.07 340.439 149.714C340.274 150.404 340.544 150.899 340.723 150.959C359.897 157.825 393.448 154.556 401.738 151.034C403.072 150.464 403.896 149.654 404.196 148.59C404.511 147.481 404.226 146.131 403.417 144.992C402.892 144.258 402.112 143.943 401.303 144.138C373.404 150.914 356.659 149.744 346.66 149.04C344.606 148.89 342.792 148.77 341.188 148.725H341.203ZM369.836 159.863C359.118 159.863 347.874 158.724 339.089 155.561C336.451 154.616 334.982 151.633 335.671 148.605C336.316 145.757 338.685 143.808 341.338 143.808C343.002 143.853 344.891 143.973 347.035 144.138C357.394 144.857 373.045 145.981 400.179 139.37C402.997 138.711 405.77 139.76 407.464 142.159C409.143 144.527 409.683 147.361 408.948 149.924C408.244 152.413 406.385 154.407 403.687 155.546C398.724 157.66 384.783 159.878 369.851 159.878" fill="black"/>
<path d="M343.003 168.394C342.358 168.394 341.699 168.185 341.144 167.765C339.795 166.745 339.54 164.812 340.559 163.462C342.508 160.914 343.468 158.395 343.453 155.997C343.438 154.303 344.787 152.924 346.481 152.894H346.511C348.19 152.894 349.554 154.243 349.584 155.922C349.629 159.73 348.235 163.507 345.446 167.18C344.847 167.975 343.932 168.394 343.003 168.394Z" fill="black"/>
<path d="M346.089 144.077C346.403 144.092 346.718 144.122 347.033 144.137L348.997 144.272L351.98 132.923L349.207 132.189L346.074 144.077H346.089ZM352.73 149.414L346.703 149.039C345.309 148.934 344.02 148.844 342.836 148.784L339.822 148.634L345.729 126.192L357.992 129.415L352.73 149.414Z" fill="black"/>
</g>
<path d="M482.853 271.595H487.531V226.471H482.853V271.595ZM492.433 276.497H477.951V221.569H492.433V276.497Z" fill="black"/>
<path d="M521.794 271.596H490.357V276.498H521.794V271.596Z" fill="black"/>
<path d="M521.794 263.859H490.357V268.762H521.794V263.859Z" fill="black"/>
<path d="M521.794 256.139H490.357V261.041H521.794V256.139Z" fill="black"/>
<path d="M521.794 248.402H490.357V253.304H521.794V248.402Z" fill="black"/>
<mask id="mask3_2001_2818" style="mask-type:luminance" maskUnits="userSpaceOnUse" x="53" y="60" width="635" height="265">
<path d="M687.909 60.9844H53.7812V324.83H687.909V60.9844Z" fill="white"/>
</mask>
<g mask="url(#mask3_2001_2818)">
<path d="M596.948 214.103C593.14 214.103 590.037 217.206 590.037 221.014C590.037 224.822 593.14 227.925 596.948 227.925C600.756 227.925 603.859 224.822 603.859 221.014C603.859 217.206 600.756 214.103 596.948 214.103ZM596.948 232.827C590.442 232.827 585.135 227.52 585.135 221.014C585.135 214.508 590.442 209.201 596.948 209.201C603.454 209.201 608.761 214.508 608.761 221.014C608.761 227.52 603.454 232.827 596.948 232.827Z" fill="black"/>
<path d="M624.321 214.103C620.513 214.103 617.41 217.206 617.41 221.014C617.41 224.822 620.513 227.925 624.321 227.925C628.129 227.925 631.232 224.822 631.232 221.014C631.232 217.206 628.129 214.103 624.321 214.103ZM624.321 232.827C617.815 232.827 612.508 227.52 612.508 221.014C612.508 214.508 617.815 209.201 624.321 209.201C630.827 209.201 636.134 214.508 636.134 221.014C636.134 227.52 630.842 232.827 624.321 232.827Z" fill="black"/>
<path d="M606.376 242.287L610.634 261.536L614.891 242.287H606.376ZM610.634 275.342C609.479 275.342 608.49 274.548 608.235 273.424L600.919 240.368C600.754 239.648 600.934 238.884 601.399 238.299C601.864 237.715 602.568 237.385 603.318 237.385H617.934C618.669 237.385 619.389 237.715 619.853 238.299C620.318 238.884 620.498 239.633 620.333 240.368L613.017 273.424C612.762 274.548 611.773 275.342 610.619 275.342" fill="black"/>
</g>
<path d="M599.317 227.618L595.129 230.165L601.829 241.18L606.017 238.632L599.317 227.618Z" fill="black"/>
<path d="M621.928 227.54L615.227 238.554L619.414 241.102L626.116 230.088L621.928 227.54Z" fill="black"/>
</svg>
