<svg width="1500" height="624" viewBox="0 0 1500 624" fill="none" xmlns="http://www.w3.org/2000/svg">
<rect width="1500" height="624" rx="36" fill="white"/>
<path d="M296.239 184.311V192.477H302.744V184.311H309.728V205.374H302.744V197.771H296.239V205.374H289.256V184.311H296.239Z" fill="black"/>
<path d="M337.467 197.405L335.299 191.238L333.074 197.405H337.467ZM339.185 202.389H331.272L330.174 205.374H323.021L331.92 184.311H339.072L347.633 205.374H340.199L339.157 202.389H339.185Z" fill="black"/>
<path d="M367.941 184.311H360.957V205.374H367.941V184.311Z" fill="black"/>
<mask id="mask0_274_31223" style="mask-type:luminance" maskUnits="userSpaceOnUse" x="165" y="83" width="1150" height="496">
<path d="M1315 83H165V579H1315V83Z" fill="white"/>
</mask>
<g mask="url(#mask0_274_31223)">
<path d="M389.976 194.615H393.186C394.678 194.615 395.551 193.686 395.551 192.052C395.551 190.419 394.678 189.574 393.186 189.574H389.976V194.587V194.615ZM395.129 205.372L392.594 199.909H389.976V205.372H382.992V184.309H393.186C398.902 184.309 402.169 187.04 402.169 191.855C402.169 194.925 400.986 197.205 398.846 198.529L403.013 205.372H395.129Z" fill="black"/>
<path d="M267.936 234.515C267.148 234.515 266.641 234.769 266.641 235.388C266.641 238.035 277.567 236.374 277.567 244.005C277.567 248.707 273.455 250.763 268.696 250.763C265.036 250.763 260.953 249.524 258.137 247.384L260.727 242.146C262.896 243.948 266.613 245.413 268.753 245.413C269.766 245.413 270.442 245.075 270.442 244.315C270.442 241.583 259.545 243.385 259.545 235.979C259.545 231.784 263.093 229.137 268.556 229.137C271.878 229.137 275.342 230.122 277.735 231.643L275.201 236.937C273.061 235.754 269.795 234.459 267.964 234.459" fill="black"/>
</g>
<path d="M301.056 242.599L298.888 236.432L296.663 242.599H301.056ZM302.774 247.583H294.861L293.791 250.568H286.639L295.537 229.505H302.689L311.25 250.568H303.816L302.774 247.583Z" fill="black"/>
<path d="M328.504 229.505V244.767H337.29V250.568H321.549V229.505H328.504Z" fill="black"/>
<mask id="mask1_274_31223" style="mask-type:luminance" maskUnits="userSpaceOnUse" x="132" y="83" width="1183" height="457">
<path d="M1315 83H132V540H1315V83Z" fill="white"/>
</mask>
<g mask="url(#mask1_274_31223)">
<path d="M354.268 240.037C354.268 242.909 356.38 245.049 358.773 245.049C361.167 245.049 363.11 242.909 363.11 240.037C363.11 237.165 361.195 235.081 358.773 235.081C356.351 235.081 354.268 237.165 354.268 240.037ZM370.262 240.009C370.262 246.26 365.391 250.85 358.689 250.85C351.987 250.85 347.115 246.288 347.115 240.009C347.115 233.729 351.987 229.28 358.689 229.28C365.391 229.28 370.262 233.786 370.262 240.009Z" fill="black"/>
</g>
<path d="M387.137 229.505L395.473 240.318V229.505H401.78V250.568H395.951L387.644 239.811V250.568H381.309V229.505H387.137Z" fill="black"/>
<mask id="mask2_274_31223" style="mask-type:luminance" maskUnits="userSpaceOnUse" x="132" y="83" width="1224" height="496">
<path d="M1356 83H132V579H1356V83Z" fill="white"/>
</mask>
<g mask="url(#mask2_274_31223)">
<path d="M550.822 217.537L540.319 194.729H540.178L529.815 217.537H550.822ZM494.025 247.104L537.277 154.123C537.7 153.278 538.657 152.603 539.615 152.603H540.994C541.952 152.603 542.937 153.278 543.331 154.123L586.584 247.104C587.401 248.907 586.302 250.709 584.219 250.709H568.872C566.394 250.709 565.267 249.892 564.028 247.245L559.044 236.32H521.452L516.468 247.358C515.792 249.019 514.243 250.681 511.484 250.681H496.278C494.194 250.681 493.096 248.878 493.94 247.076" fill="black"/>
<path d="M967.219 156.601C967.219 155.221 968.317 153.982 969.838 153.982H986.283C987.662 153.982 988.901 155.221 988.901 156.601V230.378H1021.79C1023.31 230.378 1024.41 231.617 1024.41 232.997V248.062C1024.41 249.442 1023.31 250.681 1021.79 250.681H969.838C968.317 250.681 967.219 249.442 967.219 248.062V156.601Z" fill="black"/>
<path d="M1198.34 204.134L1167.81 157.981C1166.72 156.179 1167.81 153.982 1170.01 153.982H1187.98C1189.07 153.982 1189.78 154.686 1190.2 155.221L1209.4 183.549L1228.61 155.221C1229.03 154.658 1229.57 153.982 1230.83 153.982H1248.8C1251.02 153.982 1252.12 156.207 1251.02 157.981L1220.08 203.993V248.062C1220.08 249.442 1218.84 250.681 1217.46 250.681H1201.01C1199.49 250.681 1198.39 249.442 1198.39 248.062V204.134H1198.34Z" fill="black"/>
<path d="M315.981 430.421C321.923 430.421 326.907 425.718 326.907 419.495C326.907 413.694 321.923 409.273 315.981 409.273H302.859V430.421H315.981ZM281.289 391.589C281.289 390.21 282.387 388.971 283.908 388.971H317.192C334.2 388.971 348.139 402.797 348.139 419.523C348.139 436.25 334.2 450.611 317.333 450.611H302.831V483.078C302.831 484.458 301.592 485.697 300.212 485.697H283.908C282.387 485.697 281.289 484.458 281.289 483.078V391.618V391.589Z" fill="black"/>
<path d="M747.293 391.617C747.293 390.237 748.391 388.998 749.912 388.998H766.357C767.736 388.998 768.975 390.237 768.975 391.617V465.394H801.865C803.386 465.394 804.484 466.633 804.484 468.012V483.078C804.484 484.457 803.386 485.696 801.865 485.696H749.912C748.391 485.696 747.293 484.457 747.293 483.078V391.617Z" fill="black"/>
<path d="M445.461 452.412C438.055 465.787 445.095 484.795 470.1 484.569C484.855 484.429 535.739 473.024 548.72 428.223C548.72 428.223 543.933 414.369 540.836 410.736C535.992 405.048 524.475 398.459 507.889 409.61C484.32 425.464 487.474 448.61 468.044 458.748C455.992 465.055 452.81 457.621 457.794 447.456C459.343 444.302 449.741 444.724 445.461 452.412Z" fill="black"/>
<path d="M635.203 452.412C642.609 465.787 635.569 484.795 610.564 484.569C595.808 484.429 544.925 473.024 531.943 428.223C531.943 428.223 536.73 414.369 539.828 410.736C544.671 405.048 556.188 398.459 572.774 409.61C596.343 425.464 593.189 448.61 612.619 458.748C624.671 465.055 627.853 457.621 622.869 447.456C621.32 444.302 630.923 444.724 635.203 452.412Z" fill="black"/>
<path d="M721.98 207.907L731.667 210.441C736.088 211.596 740.734 208.949 741.917 204.471L759.235 138.635C759.798 136.467 759.488 134.215 758.362 132.272C757.236 130.329 755.433 128.949 753.265 128.386L751.688 127.963C747.239 126.781 742.621 129.456 741.438 133.933L721.98 207.851V207.907ZM733.779 219.959C732.315 219.959 730.794 219.762 729.302 219.368L710.717 214.468L732.512 131.624C734.99 122.247 744.592 116.587 753.997 119.093L755.574 119.515C760.108 120.698 763.938 123.599 766.303 127.682C768.668 131.736 769.316 136.467 768.133 141.029L750.815 206.865C748.732 214.75 741.607 219.987 733.807 219.987" fill="black"/>
<path d="M704.572 247.894C704.234 247.894 703.418 248.542 703.136 249.752C702.826 251.048 703.333 251.977 703.671 252.09C739.687 264.986 802.707 258.848 818.279 252.23C820.785 251.16 822.334 249.64 822.897 247.64C823.488 245.557 822.953 243.022 821.433 240.882C820.447 239.503 818.983 238.911 817.462 239.277C765.058 252.005 733.604 249.809 714.822 248.485C710.964 248.204 707.557 247.978 704.544 247.894H704.572ZM758.356 268.816C738.222 268.816 717.103 266.676 700.602 260.734C695.646 258.96 692.886 253.357 694.182 247.669C695.392 242.318 699.842 238.658 704.826 238.658C707.951 238.742 711.499 238.967 715.526 239.277C734.984 240.629 764.382 242.741 815.35 230.323C820.644 229.084 825.854 231.055 829.036 235.56C832.189 240.009 833.203 245.331 831.823 250.147C830.5 254.821 827.008 258.566 821.939 260.706C812.619 264.677 786.431 268.844 758.384 268.844" fill="black"/>
<path d="M707.955 284.838C706.744 284.838 705.505 284.444 704.463 283.656C701.929 281.741 701.45 278.108 703.365 275.574C707.026 270.787 708.828 266.056 708.8 261.551C708.771 258.369 711.306 255.778 714.488 255.722H714.544C717.698 255.722 720.26 258.256 720.317 261.41C720.401 268.562 717.782 275.658 712.545 282.557C711.418 284.05 709.701 284.838 707.955 284.838Z" fill="black"/>
<path d="M713.757 239.163C714.348 239.191 714.94 239.248 715.531 239.276L719.22 239.529L724.823 218.213L719.614 216.833L713.729 239.163H713.757ZM726.231 249.188L714.911 248.484C712.293 248.287 709.871 248.118 707.646 248.005L701.986 247.724L713.081 205.569L736.115 211.624L726.231 249.188Z" fill="black"/>
</g>
<path d="M970.657 478.685H979.443V393.926H970.657V478.685ZM988.651 487.893H961.449V384.718H988.651V487.893Z" fill="black"/>
<path d="M1043.8 478.686H984.754V487.894H1043.8V478.686Z" fill="black"/>
<path d="M1043.8 464.154H984.754V473.362H1043.8V464.154Z" fill="black"/>
<path d="M1043.8 449.652H984.754V458.86H1043.8V449.652Z" fill="black"/>
<path d="M1043.8 435.122H984.754V444.33H1043.8V435.122Z" fill="black"/>
<mask id="mask3_274_31223" style="mask-type:luminance" maskUnits="userSpaceOnUse" x="164" y="83" width="1192" height="496">
<path d="M1355.84 83.0771H164.709V578.677H1355.84V83.0771Z" fill="white"/>
</mask>
<g mask="url(#mask3_274_31223)">
<path d="M1184.98 370.694C1177.82 370.694 1172 376.523 1172 383.676C1172 390.828 1177.82 396.657 1184.98 396.657C1192.13 396.657 1197.96 390.828 1197.96 383.676C1197.96 376.523 1192.13 370.694 1184.98 370.694ZM1184.98 405.865C1172.76 405.865 1162.79 395.897 1162.79 383.676C1162.79 371.455 1172.76 361.486 1184.98 361.486C1197.2 361.486 1207.17 371.455 1207.17 383.676C1207.17 395.897 1197.2 405.865 1184.98 405.865Z" fill="black"/>
<path d="M1236.39 370.694C1229.24 370.694 1223.41 376.523 1223.41 383.676C1223.41 390.828 1229.24 396.657 1236.39 396.657C1243.55 396.657 1249.38 390.828 1249.38 383.676C1249.38 376.523 1243.55 370.694 1236.39 370.694ZM1236.39 405.865C1224.17 405.865 1214.21 395.897 1214.21 383.676C1214.21 371.455 1224.17 361.486 1236.39 361.486C1248.62 361.486 1258.58 371.455 1258.58 383.676C1258.58 395.897 1248.64 405.865 1236.39 405.865Z" fill="black"/>
<path d="M1202.69 423.633L1210.69 459.789L1218.69 423.633H1202.69ZM1210.69 485.724C1208.52 485.724 1206.66 484.231 1206.18 482.119L1192.44 420.028C1192.13 418.677 1192.47 417.241 1193.34 416.142C1194.21 415.044 1195.54 414.425 1196.95 414.425H1224.4C1225.78 414.425 1227.13 415.044 1228.01 416.142C1228.88 417.241 1229.22 418.649 1228.91 420.028L1215.17 482.119C1214.69 484.231 1212.83 485.724 1210.66 485.724" fill="black"/>
</g>
<path d="M1189.42 396.079L1181.55 400.864L1194.13 421.554L1202 416.769L1189.42 396.079Z" fill="black"/>
<path d="M1231.9 395.934L1219.31 416.622L1227.18 421.409L1239.77 400.721L1231.9 395.934Z" fill="black"/>
</svg>
