<svg width="223" height="83" viewBox="0 0 223 83" fill="none" xmlns="http://www.w3.org/2000/svg">
<path d="M23.7028 70.1781L63.7753 30.0886L66.1574 27.7066L69.1983 24.6656V12.8398H57.3725L54.3316 15.8808L51.9495 18.2628L11.877 58.3354V70.1781H23.7028Z" fill="#224D4D"/>
<path d="M69.1983 58.3354L29.1257 18.2628L26.7437 15.8808L23.7028 12.8398H11.877V24.6656L14.9179 27.7066L17.2999 30.0886L57.3725 70.1781H69.1983V58.3354Z" fill="#224D4D"/>
<path d="M72.7456 33.1455H8.36253L0 41.508L8.36253 49.8706H72.7456L81.1081 41.508L72.7456 33.1455Z" fill="#224D4D"/>
<path d="M32.1992 9.30882V73.6918L40.5617 82.0544L48.9243 73.6918V9.30882L40.5617 0.946289L32.1992 9.30882Z" fill="#224D4D"/>
<path d="M28.7033 41.508L20.3408 49.8706H38.5863H40.5291H42.4889H60.7344L52.3718 41.508L60.7344 33.1455H42.4889H40.5291H38.5863H20.3408L28.7033 41.508Z" fill="white"/>
<path d="M52.3718 41.508L60.7344 33.1454H48.9086V21.3027L40.5291 29.6653L32.1666 21.3027V33.1454H20.3408L28.7033 41.508L20.3408 49.8705H32.1666V61.6963L40.5291 53.3338L48.9086 61.6963V49.8705H60.7344L52.3718 41.508Z" fill="white"/>
<path d="M88.8623 52.4225L93.4575 50.6993L109.253 12.502H110.977L127.347 51.5609L130.219 52.4225V53.2841H123.326C121.333 53.2841 119.711 52.8279 118.444 51.9325C117.177 51.0372 116.247 49.8546 115.622 48.4017L112.7 41.5089H98.9649L95.1807 50.6993L99.4886 52.4225V53.2841H88.8623V52.4225ZM99.5393 40.073H112.125L105.807 24.9697L99.5393 40.073Z" fill="#224D4D"/>
<path d="M139.408 20.2561V50.6991L144.003 52.4223V53.2839H133.09V52.4223L137.685 50.6991V14.7994L134.239 13.9378V13.0762H141.419C143.412 13.0762 144.983 13.4816 146.149 14.3094C147.315 15.1372 148.328 16.3536 149.173 17.9585L161.691 41.9142L171.287 17.9585C171.946 16.2691 172.825 15.0359 173.923 14.2588C175.038 13.4816 176.744 13.0762 179.042 13.0762H185.073V13.9378L181.626 14.7994V51.5607L185.073 52.4223V53.2839H168.702V52.4223L172.149 51.5607V20.2561L158.65 53.8583H156.927L139.408 20.2561Z" fill="#224D4D"/>
<path d="M199.552 52.3039C198.471 51.7633 197.576 51.1382 196.849 50.4118C196.308 51.2903 195.65 52.0843 194.839 52.7601C194.146 53.25 193.774 53.5203 193.69 53.5541H192.254V42.6405H194.551C195.126 44.5158 195.937 46.2052 196.967 47.6919C199.299 51.02 202.323 52.6925 206.039 52.6925C208.219 52.6925 209.959 52.0505 211.26 50.7328C212.56 49.4319 213.219 47.6919 213.219 45.5125C213.219 44.2455 212.848 43.1136 212.104 42.1168C211.361 41.1201 210.432 40.2416 209.317 39.4814C208.202 38.7211 206.648 37.7582 204.671 36.6094C202.137 35.1903 200.093 33.9063 198.522 32.7576C196.95 31.6088 195.616 30.1559 194.501 28.4158C193.386 26.6757 192.828 24.6146 192.828 22.2326C192.828 20.3574 193.352 18.668 194.416 17.1475C195.464 15.6439 197.052 14.4276 199.147 13.5322C201.258 12.6368 203.843 12.1807 206.901 12.1807C209.114 12.1807 211.344 12.8057 213.557 14.0728C214.402 14.5289 215.247 15.154 216.091 15.9142C216.75 14.9175 217.409 14.1404 218.102 13.566C218.794 13.076 219.166 12.8057 219.251 12.7551H220.687V23.6686H218.389C217.899 21.8271 217.139 20.1715 216.142 18.668C215.23 17.2151 214.081 15.9987 212.729 15.0526C211.378 14.0897 209.807 13.6167 208.05 13.6167C206.563 13.6167 205.279 14.2079 204.198 15.3905C203.134 16.5731 202.593 18.0936 202.593 19.935C202.593 21.3541 202.998 22.6212 203.826 23.7531C204.654 24.885 205.668 25.8648 206.867 26.7095C208.067 27.5542 209.705 28.5678 211.783 29.7504C214.199 31.1357 216.142 32.3521 217.646 33.4333C219.132 34.5145 220.399 35.8323 221.43 37.4203C222.46 39.0083 222.984 40.8329 222.984 42.9109C222.984 44.9888 222.393 46.864 221.21 48.5703C220.028 50.2766 218.237 51.6282 215.872 52.6249C213.49 53.6217 210.601 54.1116 207.205 54.1116C204.485 54.1116 201.934 53.5034 199.569 52.2701L199.552 52.3039Z" fill="#224D4D"/>
<path d="M92.4582 64.7891H93.8266L96.2256 70.702H95.1275L94.6544 69.5194H91.6473L91.1743 70.702H90.0762L92.4751 64.7891H92.4582ZM92.0021 68.624H94.2828L93.1678 65.8027H93.134L92.019 68.624H92.0021Z" fill="#224D4D"/>
<path d="M100.72 67.8976H99.7397C99.7397 67.6949 99.6722 67.5259 99.5201 67.4246C99.3681 67.3063 99.1147 67.2556 98.7261 67.2556C98.0672 67.2556 97.7294 67.4077 97.7294 67.7287C97.7294 67.8638 97.8138 67.9652 97.9659 68.0328C98.1179 68.1003 98.3038 68.151 98.5403 68.151C98.7937 68.151 99.0471 68.2017 99.3005 68.2355C99.5708 68.2693 99.8242 68.32 100.061 68.3875C100.297 68.4551 100.483 68.5734 100.635 68.7592C100.787 68.945 100.872 69.1816 100.872 69.4688C100.872 69.7728 100.77 70.0431 100.584 70.2459C100.382 70.4486 100.145 70.6007 99.8411 70.6682C99.537 70.7527 99.1822 70.7865 98.7599 70.7865C98.1348 70.7865 97.628 70.6682 97.2394 70.4486C96.8509 70.229 96.665 69.8573 96.665 69.3505V69.2153H97.6449V69.3505C97.6449 69.7897 98.0166 70.0094 98.7599 70.0094C99.5032 70.0094 99.8918 69.8235 99.8918 69.4688C99.8918 69.2998 99.7904 69.1647 99.5708 69.0971C99.3512 69.0295 99.0978 68.9788 98.7937 68.9619C98.4896 68.945 98.1855 68.9113 97.8814 68.8606C97.5773 68.8099 97.307 68.7085 97.0874 68.5227C96.8678 68.3369 96.7664 68.0834 96.7664 67.7456C96.7664 67.3232 96.9522 67.0191 97.307 66.7995C97.6618 66.5799 98.1517 66.4785 98.743 66.4785C99.3343 66.4785 99.8411 66.5968 100.196 66.8333C100.551 67.0698 100.72 67.4246 100.72 67.8976Z" fill="#224D4D"/>
<path d="M105.77 67.8976H104.791C104.791 67.6949 104.723 67.5259 104.571 67.4246C104.419 67.3063 104.165 67.2556 103.777 67.2556C103.118 67.2556 102.78 67.4077 102.78 67.7287C102.78 67.8638 102.865 67.9652 103.017 68.0328C103.169 68.1003 103.355 68.151 103.591 68.151C103.844 68.151 104.098 68.2017 104.351 68.2355C104.622 68.2693 104.875 68.32 105.112 68.3875C105.348 68.4551 105.534 68.5734 105.686 68.7592C105.838 68.945 105.922 69.1816 105.922 69.4688C105.922 69.7728 105.821 70.0431 105.635 70.2459C105.432 70.4486 105.196 70.6007 104.892 70.6682C104.588 70.7527 104.233 70.7865 103.811 70.7865C103.186 70.7865 102.679 70.6682 102.29 70.4486C101.902 70.229 101.716 69.8573 101.716 69.3505V69.2153H102.696V69.3505C102.696 69.7897 103.067 70.0094 103.811 70.0094C104.554 70.0094 104.943 69.8235 104.943 69.4688C104.943 69.2998 104.841 69.1647 104.622 69.0971C104.402 69.0295 104.149 68.9788 103.844 68.9619C103.54 68.945 103.236 68.9113 102.932 68.8606C102.628 68.8099 102.358 68.7085 102.138 68.5227C101.919 68.3369 101.817 68.0834 101.817 67.7456C101.817 67.3232 102.003 67.0191 102.358 66.7995C102.713 66.5799 103.202 66.4785 103.794 66.4785C104.385 66.4785 104.892 66.5968 105.247 66.8333C105.601 67.0698 105.77 67.4246 105.77 67.8976Z" fill="#224D4D"/>
<path d="M107.477 70.2128C107.038 69.8242 106.818 69.3005 106.818 68.6416C106.818 67.9828 107.038 67.4591 107.477 67.0705C107.916 66.6819 108.474 66.4961 109.15 66.4961C109.825 66.4961 110.4 66.6819 110.839 67.0705C111.278 67.4591 111.481 67.9828 111.481 68.6416C111.481 69.3005 111.261 69.8411 110.839 70.2128C110.4 70.6013 109.842 70.7872 109.15 70.7872C108.457 70.7872 107.9 70.6013 107.477 70.2128ZM110.13 69.5708C110.383 69.3343 110.501 69.0133 110.501 68.6416C110.501 68.27 110.383 67.949 110.13 67.7125C109.876 67.4759 109.555 67.3577 109.15 67.3577C108.744 67.3577 108.423 67.4759 108.17 67.7125C107.916 67.949 107.798 68.27 107.798 68.6416C107.798 69.0133 107.916 69.3343 108.17 69.5708C108.423 69.8073 108.744 69.9256 109.15 69.9256C109.555 69.9256 109.876 69.8073 110.13 69.5708Z" fill="#224D4D"/>
<path d="M113.052 70.2128C112.613 69.8242 112.394 69.3005 112.394 68.6416C112.394 67.9828 112.613 67.4591 113.052 67.0705C113.492 66.6819 114.049 66.4961 114.725 66.4961C115.113 66.4961 115.451 66.5637 115.772 66.6819C116.076 66.8002 116.33 66.9522 116.482 67.1381C116.82 67.5097 117.006 67.8645 117.006 68.1855H116.009C116.009 68.1855 115.941 68.0166 115.857 67.8983C115.789 67.7969 115.705 67.7125 115.637 67.6449C115.536 67.5604 115.418 67.4928 115.249 67.4422C115.08 67.3915 114.911 67.3577 114.725 67.3577C114.319 67.3577 113.998 67.4759 113.745 67.7125C113.492 67.949 113.373 68.27 113.373 68.6416C113.373 69.0133 113.492 69.3343 113.745 69.5708C113.998 69.8073 114.319 69.9256 114.725 69.9256C114.911 69.9256 115.097 69.8918 115.249 69.8411C115.401 69.7904 115.536 69.7228 115.637 69.6384C115.823 69.4694 115.941 69.3174 115.975 69.1822L116.009 69.0978H117.006C117.006 69.4188 116.837 69.7566 116.482 70.1283C116.313 70.3141 116.076 70.4662 115.772 70.6013C115.468 70.7196 115.113 70.7872 114.725 70.7872C114.032 70.7872 113.475 70.6013 113.052 70.2128Z" fill="#224D4D"/>
<path d="M118.136 65.5488C118.035 65.4643 117.984 65.3461 117.984 65.194C117.984 65.042 118.035 64.9237 118.136 64.8393C118.238 64.7548 118.373 64.7041 118.542 64.7041C118.711 64.7041 118.846 64.7548 118.947 64.8393C119.049 64.9237 119.099 65.042 119.099 65.194C119.099 65.3461 119.049 65.4643 118.947 65.5488C118.846 65.6333 118.711 65.684 118.542 65.684C118.373 65.684 118.238 65.6333 118.136 65.5488ZM118.069 66.5624H119.015V70.7015H118.069V66.5624Z" fill="#224D4D"/>
<path d="M120.113 69.5366C120.113 69.1143 120.299 68.7764 120.653 68.5737C121.008 68.3709 121.464 68.2527 122.022 68.2527C122.292 68.2527 122.563 68.2865 122.799 68.354C123.036 68.4216 123.221 68.4892 123.306 68.5568L123.458 68.6412V68.05C123.458 67.8134 123.373 67.6276 123.204 67.4756C123.036 67.3235 122.748 67.2559 122.377 67.2559C122.039 67.2559 121.785 67.3066 121.583 67.408C121.397 67.5093 121.295 67.6614 121.295 67.8641H120.316C120.316 67.3911 120.501 67.0532 120.89 66.8167C121.262 66.5802 121.752 66.4619 122.36 66.4619C122.968 66.4619 123.475 66.5971 123.846 66.8674C124.218 67.1377 124.404 67.5262 124.404 68.0331V69.4015C124.404 69.5873 124.421 69.7225 124.472 69.8069C124.522 69.8914 124.607 69.9252 124.725 69.9252C124.826 69.9252 124.894 69.9252 124.911 69.8914V70.7023C124.809 70.753 124.674 70.7699 124.472 70.7699C124.252 70.7699 124.049 70.7192 123.897 70.6347C123.745 70.5503 123.644 70.4658 123.593 70.3644L123.525 70.2293H123.475C123.475 70.2293 123.373 70.3306 123.255 70.4151C123.154 70.4827 123.052 70.5334 122.951 70.5841C122.664 70.7023 122.309 70.7699 121.87 70.7699C121.346 70.7699 120.907 70.6685 120.586 70.4489C120.248 70.2462 120.079 69.9252 120.079 69.5197L120.113 69.5366ZM122.275 70.0097C122.512 70.0097 122.731 69.9759 122.934 69.9252C123.12 69.8745 123.272 69.8238 123.34 69.7562L123.458 69.6718V69.2832C123.221 69.1143 122.833 69.0298 122.275 69.0129C121.481 69.0129 121.093 69.1819 121.093 69.5028C121.093 69.8238 121.481 70.0097 122.275 70.0097Z" fill="#224D4D"/>
<path d="M125.959 69.1663V67.3924H125.267V66.8011L126.28 65.6523H126.888V66.5815H128.341V67.3924H126.888V69.048C126.888 69.6393 127.193 69.9434 127.784 69.9434C127.902 69.9434 128.02 69.9434 128.139 69.9096C128.257 69.8758 128.341 69.8421 128.392 69.8083L128.46 69.7745V70.653C128.24 70.7543 127.987 70.805 127.666 70.805C126.517 70.805 125.942 70.2644 125.942 69.1832L125.959 69.1663Z" fill="#224D4D"/>
<path d="M129.473 65.5488C129.372 65.4643 129.321 65.3461 129.321 65.194C129.321 65.042 129.372 64.9237 129.473 64.8393C129.575 64.7548 129.71 64.7041 129.879 64.7041C130.048 64.7041 130.183 64.7548 130.284 64.8393C130.386 64.9237 130.436 65.042 130.436 65.194C130.436 65.3461 130.386 65.4643 130.284 65.5488C130.183 65.6333 130.048 65.684 129.879 65.684C129.71 65.684 129.575 65.6333 129.473 65.5488ZM129.406 66.5624H130.352V70.7015H129.406V66.5624Z" fill="#224D4D"/>
<path d="M132.092 70.2128C131.653 69.8242 131.434 69.3005 131.434 68.6416C131.434 67.9828 131.653 67.4591 132.092 67.0705C132.532 66.6819 133.089 66.4961 133.765 66.4961C134.441 66.4961 135.015 66.6819 135.454 67.0705C135.894 67.4591 136.096 67.9828 136.096 68.6416C136.096 69.3005 135.877 69.8411 135.454 70.2128C135.015 70.6013 134.458 70.7872 133.765 70.7872C133.072 70.7872 132.515 70.6013 132.092 70.2128ZM134.745 69.5708C134.998 69.3343 135.116 69.0133 135.116 68.6416C135.116 68.27 134.998 67.949 134.745 67.7125C134.491 67.4759 134.17 67.3577 133.765 67.3577C133.36 67.3577 133.039 67.4759 132.785 67.7125C132.532 67.949 132.413 68.27 132.413 68.6416C132.413 69.0133 132.532 69.3343 132.785 69.5708C133.039 69.8073 133.36 69.9256 133.765 69.9256C134.17 69.9256 134.491 69.8073 134.745 69.5708Z" fill="#224D4D"/>
<path d="M141.552 70.7203H140.606V68.6254C140.606 68.2031 140.488 67.8821 140.268 67.6794C140.048 67.4766 139.744 67.3584 139.373 67.3584C138.984 67.3584 138.68 67.4766 138.46 67.7131C138.241 67.9497 138.139 68.2538 138.139 68.6254V70.7203H137.193V66.5812H138.139V67.257H138.19C138.19 67.257 138.291 67.105 138.393 67.0036C138.46 66.936 138.562 66.8515 138.663 66.7671C138.781 66.6995 138.933 66.6319 139.119 66.5812C139.305 66.5306 139.508 66.5137 139.711 66.5137C140.251 66.5137 140.674 66.6657 141.028 66.9867C141.366 67.3077 141.535 67.7807 141.535 68.4058V70.7372L141.552 70.7203Z" fill="#224D4D"/>
<path d="M145.286 70.2128C144.847 69.8242 144.627 69.3005 144.627 68.6416C144.627 67.9828 144.847 67.4591 145.286 67.0705C145.725 66.6819 146.283 66.4961 146.958 66.4961C147.634 66.4961 148.208 66.6819 148.648 67.0705C149.087 67.4591 149.29 67.9828 149.29 68.6416C149.29 69.3005 149.07 69.8411 148.648 70.2128C148.208 70.6013 147.651 70.7872 146.958 70.7872C146.266 70.7872 145.708 70.6013 145.286 70.2128ZM147.938 69.5708C148.192 69.3343 148.31 69.0133 148.31 68.6416C148.31 68.27 148.192 67.949 147.938 67.7125C147.685 67.4759 147.364 67.3577 146.958 67.3577C146.553 67.3577 146.232 67.4759 145.978 67.7125C145.725 67.949 145.607 68.27 145.607 68.6416C145.607 69.0133 145.725 69.3343 145.978 69.5708C146.232 69.8073 146.553 69.9256 146.958 69.9256C147.364 69.9256 147.685 69.8073 147.938 69.5708Z" fill="#224D4D"/>
<path d="M152.753 66.5637V67.3746H151.536V70.7027H150.59V67.3746H149.881V66.834L150.59 66.5468V66.3441C150.59 65.8035 150.742 65.3811 151.047 65.1108C151.351 64.8405 151.79 64.6885 152.381 64.6885C152.533 64.6885 152.685 64.7054 152.854 64.7392C153.006 64.7729 153.125 64.8236 153.192 64.8574L153.293 64.925V65.7866C153.125 65.6345 152.871 65.567 152.55 65.567C151.874 65.567 151.536 65.8711 151.536 66.4623V66.5637H152.753Z" fill="#224D4D"/>
<path d="M155.76 64.7891H157.466L158.953 68.2017H158.987L160.473 64.7891H162.163V70.702H161.115V65.9041H161.064L159.595 69.1984H158.328L156.841 65.9041H156.807V70.702H155.76V64.7891Z" fill="#224D4D"/>
<path d="M163.515 66.5628H164.461V68.6576C164.461 69.08 164.579 69.401 164.799 69.6037C165.035 69.8233 165.322 69.9247 165.694 69.9247C166.083 69.9247 166.387 69.8064 166.606 69.5699C166.826 69.3334 166.927 69.0293 166.927 68.6576V66.5628H167.873V70.7018H166.927V70.0261H166.877C166.877 70.0261 166.775 70.1781 166.674 70.2795C166.606 70.347 166.505 70.4315 166.387 70.516C166.268 70.5836 166.116 70.6511 165.93 70.7018C165.745 70.7525 165.542 70.7694 165.339 70.7694C164.815 70.7694 164.376 70.6173 164.038 70.2964C163.7 69.9754 163.515 69.5192 163.515 68.8942V66.5459V66.5628Z" fill="#224D4D"/>
<path d="M172.974 67.8976H171.995C171.995 67.6949 171.927 67.5259 171.775 67.4246C171.623 67.3063 171.37 67.2556 170.981 67.2556C170.322 67.2556 169.984 67.4077 169.984 67.7287C169.984 67.8638 170.069 67.9652 170.221 68.0328C170.373 68.1003 170.559 68.151 170.795 68.151C171.049 68.151 171.302 68.2017 171.555 68.2355C171.826 68.2693 172.079 68.32 172.316 68.3875C172.552 68.4551 172.738 68.5734 172.89 68.7592C173.042 68.945 173.127 69.1816 173.127 69.4688C173.127 69.7728 173.025 70.0431 172.839 70.2459C172.637 70.4486 172.4 70.6007 172.096 70.6682C171.792 70.7527 171.437 70.7865 171.015 70.7865C170.39 70.7865 169.883 70.6682 169.494 70.4486C169.106 70.229 168.92 69.8573 168.92 69.3505V69.2153H169.9V69.3505C169.9 69.7897 170.271 70.0094 171.015 70.0094C171.758 70.0094 172.147 69.8235 172.147 69.4688C172.147 69.2998 172.045 69.1647 171.826 69.0971C171.606 69.0295 171.353 68.9788 171.049 68.9619C170.744 68.945 170.44 68.9113 170.136 68.8606C169.832 68.8099 169.562 68.7085 169.342 68.5227C169.123 68.3369 169.021 68.0834 169.021 67.7456C169.021 67.3232 169.207 67.0191 169.562 66.7995C169.917 66.5799 170.407 66.4785 170.998 66.4785C171.589 66.4785 172.096 66.5968 172.451 66.8333C172.806 67.0698 172.974 67.4246 172.974 67.8976Z" fill="#224D4D"/>
<path d="M174.191 64.7891H175.137V70.702H174.191V64.7891Z" fill="#224D4D"/>
<path d="M176.456 65.5488C176.354 65.4643 176.304 65.3461 176.304 65.194C176.304 65.042 176.354 64.9237 176.456 64.8393C176.557 64.7548 176.692 64.7041 176.861 64.7041C177.03 64.7041 177.165 64.7548 177.267 64.8393C177.368 64.9237 177.419 65.042 177.419 65.194C177.419 65.3461 177.368 65.4643 177.267 65.5488C177.165 65.6333 177.03 65.684 176.861 65.684C176.692 65.684 176.557 65.6333 176.456 65.5488ZM176.388 66.5624H177.334V70.7015H176.388V66.5624Z" fill="#224D4D"/>
<path d="M185.24 70.7203H184.294V68.6085C184.294 67.7807 183.973 67.3753 183.347 67.3753C182.722 67.3753 182.401 67.7807 182.401 68.5916V70.7203H181.455V68.6085C181.455 67.7807 181.134 67.3753 180.509 67.3753C179.884 67.3753 179.563 67.7807 179.563 68.6085V70.7203H178.617V66.5812H179.563V67.257H179.614C179.614 67.257 179.682 67.105 179.766 67.0036C179.817 66.9191 179.884 66.8515 179.986 66.7671C180.07 66.6995 180.205 66.6319 180.357 66.5812C180.509 66.5306 180.695 66.5137 180.881 66.5137C181.084 66.5137 181.253 66.5306 181.422 66.5812C181.591 66.6319 181.726 66.6995 181.81 66.7671C181.996 66.9191 182.114 67.0543 182.165 67.1894L182.199 67.257H182.249C182.249 67.257 182.317 67.1219 182.418 67.0036C182.486 66.9191 182.553 66.8515 182.655 66.7671C182.756 66.6995 182.874 66.6319 183.043 66.5812C183.212 66.5306 183.381 66.5137 183.567 66.5137C184.716 66.5137 185.273 67.1387 185.273 68.4058V70.7372L185.24 70.7203Z" fill="#224D4D"/>
<path d="M193.247 66.4787V66.6307H192.166V66.4787C192.166 65.9043 191.726 65.6171 190.865 65.6171C190.459 65.6171 190.138 65.6846 189.902 65.8198C189.665 65.9549 189.564 66.1577 189.564 66.4111C189.564 66.7659 189.817 67.0024 190.341 67.1206C190.476 67.1544 190.73 67.2051 191.101 67.2727C191.473 67.3402 191.743 67.3909 191.946 67.4585C192.233 67.5261 192.487 67.6274 192.706 67.7288C192.943 67.8471 193.112 68.016 193.264 68.2356C193.399 68.4553 193.483 68.7256 193.483 69.0465C193.483 69.604 193.247 70.0433 192.774 70.3474C192.301 70.6515 191.693 70.8035 190.916 70.8035C190.138 70.8035 189.496 70.6515 189.04 70.3305C188.567 70.0264 188.348 69.5703 188.348 68.9959V68.7256H189.429V69.0128C189.429 69.604 189.919 69.9081 190.916 69.9081C191.912 69.9081 192.402 69.6209 192.402 69.0296C192.402 68.8607 192.335 68.7256 192.199 68.6073C192.064 68.489 191.879 68.4046 191.625 68.3539C191.507 68.3201 191.27 68.2863 190.899 68.2187C190.527 68.1512 190.24 68.1005 190.037 68.0329C189.767 67.9653 189.513 67.864 189.277 67.7457C189.057 67.6274 188.871 67.4585 188.719 67.2389C188.584 67.0193 188.5 66.7321 188.5 66.4111C188.5 65.8874 188.719 65.4819 189.142 65.1778C189.564 64.8737 190.138 64.7217 190.882 64.7217C191.625 64.7217 192.199 64.8737 192.622 65.1778C193.044 65.4819 193.264 65.9212 193.264 66.4787H193.247Z" fill="#224D4D"/>
<path d="M195.039 70.2128C194.6 69.8242 194.38 69.3005 194.38 68.6416C194.38 67.9828 194.6 67.4591 195.039 67.0705C195.478 66.6819 196.036 66.4961 196.711 66.4961C197.1 66.4961 197.438 66.5637 197.759 66.6819C198.063 66.8002 198.316 66.9522 198.468 67.1381C198.806 67.5097 198.992 67.8645 198.992 68.1855H197.995C197.995 68.1855 197.928 68.0166 197.843 67.8983C197.776 67.7969 197.691 67.7125 197.624 67.6449C197.522 67.5604 197.404 67.4928 197.235 67.4422C197.066 67.3915 196.897 67.3577 196.711 67.3577C196.306 67.3577 195.985 67.4759 195.731 67.7125C195.478 67.949 195.36 68.27 195.36 68.6416C195.36 69.0133 195.478 69.3343 195.731 69.5708C195.985 69.8073 196.306 69.9256 196.711 69.9256C196.897 69.9256 197.083 69.8918 197.235 69.8411C197.387 69.7904 197.522 69.7228 197.624 69.6384C197.809 69.4694 197.928 69.3174 197.961 69.1822L197.995 69.0978H198.992C198.992 69.4188 198.823 69.7566 198.468 70.1283C198.299 70.3141 198.063 70.4662 197.759 70.6013C197.455 70.7196 197.1 70.7872 196.711 70.7872C196.019 70.7872 195.461 70.6013 195.039 70.2128Z" fill="#224D4D"/>
<path d="M204.397 70.7205H203.451V68.6257C203.451 68.2033 203.332 67.8823 203.113 67.6796C202.893 67.4769 202.589 67.3586 202.217 67.3586C201.829 67.3586 201.525 67.4769 201.305 67.7134C201.086 67.9499 200.984 68.254 200.984 68.6257V70.7205H200.038V64.8076H200.984V67.2572H201.035C201.035 67.2572 201.136 67.1052 201.238 67.0038C201.305 66.9363 201.406 66.8518 201.508 66.7673C201.626 66.6997 201.778 66.6322 201.964 66.5815C202.15 66.5308 202.353 66.5139 202.555 66.5139C203.096 66.5139 203.518 66.666 203.873 66.9869C204.211 67.3079 204.38 67.781 204.38 68.406V70.7374L204.397 70.7205Z" fill="#224D4D"/>
<path d="M206.104 70.2128C205.665 69.8242 205.445 69.3005 205.445 68.6416C205.445 67.9828 205.665 67.4591 206.104 67.0705C206.543 66.6819 207.101 66.4961 207.777 66.4961C208.452 66.4961 209.027 66.6819 209.466 67.0705C209.905 67.4591 210.108 67.9828 210.108 68.6416C210.108 69.3005 209.888 69.8411 209.466 70.2128C209.027 70.6013 208.469 70.7872 207.777 70.7872C207.084 70.7872 206.527 70.6013 206.104 70.2128ZM208.757 69.5708C209.01 69.3343 209.128 69.0133 209.128 68.6416C209.128 68.27 209.01 67.949 208.757 67.7125C208.503 67.4759 208.182 67.3577 207.777 67.3577C207.371 67.3577 207.05 67.4759 206.797 67.7125C206.543 67.949 206.425 68.27 206.425 68.6416C206.425 69.0133 206.543 69.3343 206.797 69.5708C207.05 69.8073 207.371 69.9256 207.777 69.9256C208.182 69.9256 208.503 69.8073 208.757 69.5708Z" fill="#224D4D"/>
<path d="M211.695 70.2128C211.256 69.8242 211.036 69.3005 211.036 68.6416C211.036 67.9828 211.256 67.4591 211.695 67.0705C212.134 66.6819 212.692 66.4961 213.368 66.4961C214.043 66.4961 214.618 66.6819 215.057 67.0705C215.496 67.4591 215.699 67.9828 215.699 68.6416C215.699 69.3005 215.479 69.8411 215.057 70.2128C214.618 70.6013 214.06 70.7872 213.368 70.7872C212.675 70.7872 212.117 70.6013 211.695 70.2128ZM214.347 69.5708C214.601 69.3343 214.719 69.0133 214.719 68.6416C214.719 68.27 214.601 67.949 214.347 67.7125C214.094 67.4759 213.773 67.3577 213.368 67.3577C212.962 67.3577 212.641 67.4759 212.388 67.7125C212.134 67.949 212.016 68.27 212.016 68.6416C212.016 69.0133 212.134 69.3343 212.388 69.5708C212.641 69.8073 212.962 69.9256 213.368 69.9256C213.773 69.9256 214.094 69.8073 214.347 69.5708Z" fill="#224D4D"/>
<path d="M216.797 64.7891H217.743V70.702H216.797V64.7891Z" fill="#224D4D"/>
<path d="M222.847 67.8976H221.867C221.867 67.6949 221.799 67.5259 221.647 67.4246C221.495 67.3063 221.242 67.2556 220.853 67.2556C220.194 67.2556 219.856 67.4077 219.856 67.7287C219.856 67.8638 219.941 67.9652 220.093 68.0328C220.245 68.1003 220.431 68.151 220.667 68.151C220.921 68.151 221.174 68.2017 221.427 68.2355C221.698 68.2693 221.951 68.32 222.188 68.3875C222.424 68.4551 222.61 68.5734 222.762 68.7592C222.914 68.945 222.999 69.1816 222.999 69.4688C222.999 69.7728 222.897 70.0431 222.711 70.2459C222.509 70.4486 222.272 70.6007 221.968 70.6682C221.664 70.7527 221.309 70.7865 220.887 70.7865C220.262 70.7865 219.755 70.6682 219.366 70.4486C218.978 70.229 218.792 69.8573 218.792 69.3505V69.2153H219.772V69.3505C219.772 69.7897 220.144 70.0094 220.887 70.0094C221.63 70.0094 222.019 69.8235 222.019 69.4688C222.019 69.2998 221.917 69.1647 221.698 69.0971C221.478 69.0295 221.225 68.9788 220.921 68.9619C220.617 68.945 220.312 68.9113 220.008 68.8606C219.704 68.8099 219.434 68.7085 219.214 68.5227C218.995 68.3369 218.893 68.0834 218.893 67.7456C218.893 67.3232 219.079 67.0191 219.434 66.7995C219.789 66.5799 220.279 66.4785 220.87 66.4785C221.461 66.4785 221.968 66.5968 222.323 66.8333C222.678 67.0698 222.847 67.4246 222.847 67.8976Z" fill="#224D4D"/>
</svg>
