<svg width="215" height="215" viewBox="0 0 215 215" fill="none" xmlns="http://www.w3.org/2000/svg">
<circle cx="107.5" cy="107.5" r="107.5" fill="white"/>
<circle cx="62" cy="83" r="32" fill="#EF2028"/>
<circle cx="89.5" cy="168.5" r="12.5" fill="#EF7D00"/>
<circle cx="55.5" cy="168.5" r="12.5" fill="#E94E0F"/>
<circle cx="125.5" cy="168.5" r="12.5" fill="#CDCC00"/>
<circle cx="159.5" cy="168.5" r="12.5" fill="#CA9E67"/>
<path d="M61.71 39V28.5H62.625L67.425 36.69H66.945L71.7 28.5H72.615V39H71.55V30.165H71.805L67.425 37.665H66.9L62.49 30.165H62.775V39H61.71ZM80.7462 39V37.26L80.7012 36.975V34.065C80.7012 33.395 80.5112 32.88 80.1312 32.52C79.7612 32.16 79.2062 31.98 78.4662 31.98C77.9562 31.98 77.4712 32.065 77.0112 32.235C76.5512 32.405 76.1612 32.63 75.8412 32.91L75.3612 32.115C75.7612 31.775 76.2412 31.515 76.8012 31.335C77.3612 31.145 77.9512 31.05 78.5712 31.05C79.5912 31.05 80.3762 31.305 80.9262 31.815C81.4862 32.315 81.7662 33.08 81.7662 34.11V39H80.7462ZM78.0312 39.075C77.4412 39.075 76.9262 38.98 76.4862 38.79C76.0562 38.59 75.7262 38.32 75.4962 37.98C75.2662 37.63 75.1512 37.23 75.1512 36.78C75.1512 36.37 75.2462 36 75.4362 35.67C75.6362 35.33 75.9562 35.06 76.3962 34.86C76.8462 34.65 77.4462 34.545 78.1962 34.545H80.9112V35.34H78.2262C77.4662 35.34 76.9362 35.475 76.6362 35.745C76.3462 36.015 76.2012 36.35 76.2012 36.75C76.2012 37.2 76.3762 37.56 76.7262 37.83C77.0762 38.1 77.5662 38.235 78.1962 38.235C78.7962 38.235 79.3112 38.1 79.7412 37.83C80.1812 37.55 80.5012 37.15 80.7012 36.63L80.9412 37.365C80.7412 37.885 80.3912 38.3 79.8912 38.61C79.4012 38.92 78.7812 39.075 78.0312 39.075ZM84.6588 39V31.125H85.7238V39H84.6588ZM85.1988 29.385C84.9788 29.385 84.7938 29.31 84.6438 29.16C84.4938 29.01 84.4188 28.83 84.4188 28.62C84.4188 28.41 84.4938 28.235 84.6438 28.095C84.7938 27.945 84.9788 27.87 85.1988 27.87C85.4188 27.87 85.6038 27.94 85.7538 28.08C85.9038 28.22 85.9788 28.395 85.9788 28.605C85.9788 28.825 85.9038 29.01 85.7538 29.16C85.6138 29.31 85.4288 29.385 85.1988 29.385ZM92.7071 31.05C93.3471 31.05 93.9071 31.175 94.3871 31.425C94.8771 31.665 95.2571 32.035 95.5271 32.535C95.8071 33.035 95.9471 33.665 95.9471 34.425V39H94.8821V34.53C94.8821 33.7 94.6721 33.075 94.2521 32.655C93.8421 32.225 93.2621 32.01 92.5121 32.01C91.9521 32.01 91.4621 32.125 91.0421 32.355C90.6321 32.575 90.3121 32.9 90.0821 33.33C89.8621 33.75 89.7521 34.26 89.7521 34.86V39H88.6871V31.125H89.7071V33.285L89.5421 32.88C89.7921 32.31 90.1921 31.865 90.7421 31.545C91.2921 31.215 91.9471 31.05 92.7071 31.05ZM106.02 39.075C105.24 39.075 104.54 38.905 103.92 38.565C103.31 38.215 102.83 37.74 102.48 37.14C102.13 36.53 101.955 35.835 101.955 35.055C101.955 34.265 102.13 33.57 102.48 32.97C102.83 32.37 103.31 31.9 103.92 31.56C104.54 31.22 105.24 31.05 106.02 31.05C106.69 31.05 107.295 31.18 107.835 31.44C108.375 31.7 108.8 32.09 109.11 32.61L108.315 33.15C108.045 32.75 107.71 32.455 107.31 32.265C106.91 32.075 106.475 31.98 106.005 31.98C105.445 31.98 104.94 32.11 104.49 32.37C104.04 32.62 103.685 32.975 103.425 33.435C103.165 33.895 103.035 34.435 103.035 35.055C103.035 35.675 103.165 36.215 103.425 36.675C103.685 37.135 104.04 37.495 104.49 37.755C104.94 38.005 105.445 38.13 106.005 38.13C106.475 38.13 106.91 38.035 107.31 37.845C107.71 37.655 108.045 37.365 108.315 36.975L109.11 37.515C108.8 38.025 108.375 38.415 107.835 38.685C107.295 38.945 106.69 39.075 106.02 39.075ZM114.28 39.075C113.52 39.075 112.835 38.905 112.225 38.565C111.625 38.215 111.15 37.74 110.8 37.14C110.45 36.53 110.275 35.835 110.275 35.055C110.275 34.265 110.45 33.57 110.8 32.97C111.15 32.37 111.625 31.9 112.225 31.56C112.825 31.22 113.51 31.05 114.28 31.05C115.06 31.05 115.75 31.22 116.35 31.56C116.96 31.9 117.435 32.37 117.775 32.97C118.125 33.57 118.3 34.265 118.3 35.055C118.3 35.835 118.125 36.53 117.775 37.14C117.435 37.74 116.96 38.215 116.35 38.565C115.74 38.905 115.05 39.075 114.28 39.075ZM114.28 38.13C114.85 38.13 115.355 38.005 115.795 37.755C116.235 37.495 116.58 37.135 116.83 36.675C117.09 36.205 117.22 35.665 117.22 35.055C117.22 34.435 117.09 33.895 116.83 33.435C116.58 32.975 116.235 32.62 115.795 32.37C115.355 32.11 114.855 31.98 114.295 31.98C113.735 31.98 113.235 32.11 112.795 32.37C112.355 32.62 112.005 32.975 111.745 33.435C111.485 33.895 111.355 34.435 111.355 35.055C111.355 35.665 111.485 36.205 111.745 36.675C112.005 37.135 112.355 37.495 112.795 37.755C113.235 38.005 113.73 38.13 114.28 38.13ZM120.474 39V27.87H121.539V39H120.474ZM127.713 39.075C126.953 39.075 126.268 38.905 125.658 38.565C125.058 38.215 124.583 37.74 124.233 37.14C123.883 36.53 123.708 35.835 123.708 35.055C123.708 34.265 123.883 33.57 124.233 32.97C124.583 32.37 125.058 31.9 125.658 31.56C126.258 31.22 126.943 31.05 127.713 31.05C128.493 31.05 129.183 31.22 129.783 31.56C130.393 31.9 130.868 32.37 131.208 32.97C131.558 33.57 131.733 34.265 131.733 35.055C131.733 35.835 131.558 36.53 131.208 37.14C130.868 37.74 130.393 38.215 129.783 38.565C129.173 38.905 128.483 39.075 127.713 39.075ZM127.713 38.13C128.283 38.13 128.788 38.005 129.228 37.755C129.668 37.495 130.013 37.135 130.263 36.675C130.523 36.205 130.653 35.665 130.653 35.055C130.653 34.435 130.523 33.895 130.263 33.435C130.013 32.975 129.668 32.62 129.228 32.37C128.788 32.11 128.288 31.98 127.728 31.98C127.168 31.98 126.668 32.11 126.228 32.37C125.788 32.62 125.438 32.975 125.178 33.435C124.918 33.895 124.788 34.435 124.788 35.055C124.788 35.665 124.918 36.205 125.178 36.675C125.438 37.135 125.788 37.495 126.228 37.755C126.668 38.005 127.163 38.13 127.713 38.13ZM137.162 39.075C136.492 39.075 135.907 38.95 135.407 38.7C134.907 38.45 134.517 38.075 134.237 37.575C133.967 37.075 133.832 36.45 133.832 35.7V31.125H134.897V35.58C134.897 36.42 135.102 37.055 135.512 37.485C135.932 37.905 136.517 38.115 137.267 38.115C137.817 38.115 138.292 38.005 138.692 37.785C139.102 37.555 139.412 37.225 139.622 36.795C139.842 36.365 139.952 35.85 139.952 35.25V31.125H141.017V39H139.997V36.84L140.162 37.23C139.912 37.81 139.522 38.265 138.992 38.595C138.472 38.915 137.862 39.075 137.162 39.075ZM143.985 39V31.125H145.005V33.27L144.9 32.895C145.12 32.295 145.49 31.84 146.01 31.53C146.53 31.21 147.175 31.05 147.945 31.05V32.085C147.905 32.085 147.865 32.085 147.825 32.085C147.785 32.075 147.745 32.07 147.705 32.07C146.875 32.07 146.225 32.325 145.755 32.835C145.285 33.335 145.05 34.05 145.05 34.98V39H143.985ZM152.091 39.075C151.441 39.075 150.826 38.985 150.246 38.805C149.666 38.615 149.211 38.38 148.881 38.1L149.361 37.26C149.681 37.5 150.091 37.71 150.591 37.89C151.091 38.06 151.616 38.145 152.166 38.145C152.916 38.145 153.456 38.03 153.786 37.8C154.116 37.56 154.281 37.245 154.281 36.855C154.281 36.565 154.186 36.34 153.996 36.18C153.816 36.01 153.576 35.885 153.276 35.805C152.976 35.715 152.641 35.64 152.271 35.58C151.901 35.52 151.531 35.45 151.161 35.37C150.801 35.29 150.471 35.175 150.171 35.025C149.871 34.865 149.626 34.65 149.436 34.38C149.256 34.11 149.166 33.75 149.166 33.3C149.166 32.87 149.286 32.485 149.526 32.145C149.766 31.805 150.116 31.54 150.576 31.35C151.046 31.15 151.616 31.05 152.286 31.05C152.796 31.05 153.306 31.12 153.816 31.26C154.326 31.39 154.746 31.565 155.076 31.785L154.611 32.64C154.261 32.4 153.886 32.23 153.486 32.13C153.086 32.02 152.686 31.965 152.286 31.965C151.576 31.965 151.051 32.09 150.711 32.34C150.381 32.58 150.216 32.89 150.216 33.27C150.216 33.57 150.306 33.805 150.486 33.975C150.676 34.145 150.921 34.28 151.221 34.38C151.531 34.47 151.866 34.545 152.226 34.605C152.596 34.665 152.961 34.74 153.321 34.83C153.691 34.91 154.026 35.025 154.326 35.175C154.636 35.315 154.881 35.52 155.061 35.79C155.251 36.05 155.346 36.395 155.346 36.825C155.346 37.285 155.216 37.685 154.956 38.025C154.706 38.355 154.336 38.615 153.846 38.805C153.366 38.985 152.781 39.075 152.091 39.075Z" fill="black"/>
<path d="M48.295 138.195H42.445L41.185 141H40.03L44.83 130.5H45.925L50.725 141H49.555L48.295 138.195ZM47.89 137.295L45.37 131.655L42.85 137.295H47.89ZM59.3637 129.87V141H58.3437V139.44C58.0237 139.97 57.5987 140.375 57.0687 140.655C56.5487 140.935 55.9587 141.075 55.2987 141.075C54.5587 141.075 53.8887 140.905 53.2887 140.565C52.6887 140.225 52.2187 139.75 51.8787 139.14C51.5387 138.53 51.3687 137.835 51.3687 137.055C51.3687 136.275 51.5387 135.58 51.8787 134.97C52.2187 134.36 52.6887 133.89 53.2887 133.56C53.8887 133.22 54.5587 133.05 55.2987 133.05C55.9387 133.05 56.5137 133.185 57.0237 133.455C57.5437 133.715 57.9687 134.1 58.2987 134.61V129.87H59.3637ZM55.3887 140.13C55.9387 140.13 56.4337 140.005 56.8737 139.755C57.3237 139.495 57.6737 139.13 57.9237 138.66C58.1837 138.19 58.3137 137.655 58.3137 137.055C58.3137 136.455 58.1837 135.92 57.9237 135.45C57.6737 134.98 57.3237 134.62 56.8737 134.37C56.4337 134.11 55.9387 133.98 55.3887 133.98C54.8287 133.98 54.3237 134.11 53.8737 134.37C53.4337 134.62 53.0837 134.98 52.8237 135.45C52.5737 135.92 52.4487 136.455 52.4487 137.055C52.4487 137.655 52.5737 138.19 52.8237 138.66C53.0837 139.13 53.4337 139.495 53.8737 139.755C54.3237 140.005 54.8287 140.13 55.3887 140.13ZM69.5297 129.87V141H68.5097V139.44C68.1897 139.97 67.7647 140.375 67.2347 140.655C66.7147 140.935 66.1247 141.075 65.4647 141.075C64.7247 141.075 64.0547 140.905 63.4547 140.565C62.8547 140.225 62.3847 139.75 62.0447 139.14C61.7047 138.53 61.5347 137.835 61.5347 137.055C61.5347 136.275 61.7047 135.58 62.0447 134.97C62.3847 134.36 62.8547 133.89 63.4547 133.56C64.0547 133.22 64.7247 133.05 65.4647 133.05C66.1047 133.05 66.6797 133.185 67.1897 133.455C67.7097 133.715 68.1347 134.1 68.4647 134.61V129.87H69.5297ZM65.5547 140.13C66.1047 140.13 66.5997 140.005 67.0397 139.755C67.4897 139.495 67.8397 139.13 68.0897 138.66C68.3497 138.19 68.4797 137.655 68.4797 137.055C68.4797 136.455 68.3497 135.92 68.0897 135.45C67.8397 134.98 67.4897 134.62 67.0397 134.37C66.5997 134.11 66.1047 133.98 65.5547 133.98C64.9947 133.98 64.4897 134.11 64.0397 134.37C63.5997 134.62 63.2497 134.98 62.9897 135.45C62.7397 135.92 62.6147 136.455 62.6147 137.055C62.6147 137.655 62.7397 138.19 62.9897 138.66C63.2497 139.13 63.5997 139.495 64.0397 139.755C64.4897 140.005 64.9947 140.13 65.5547 140.13ZM72.4957 133.11H73.5607V141H72.4957V133.11ZM73.0357 131.385C72.8157 131.385 72.6307 131.31 72.4807 131.16C72.3307 131.01 72.2557 130.83 72.2557 130.62C72.2557 130.42 72.3307 130.245 72.4807 130.095C72.6307 129.945 72.8157 129.87 73.0357 129.87C73.2557 129.87 73.4407 129.945 73.5907 130.095C73.7407 130.235 73.8157 130.405 73.8157 130.605C73.8157 130.825 73.7407 131.01 73.5907 131.16C73.4407 131.31 73.2557 131.385 73.0357 131.385ZM80.6791 140.52C80.4791 140.7 80.2291 140.84 79.9291 140.94C79.6391 141.03 79.3341 141.075 79.0141 141.075C78.2741 141.075 77.7041 140.875 77.3041 140.475C76.9041 140.075 76.7041 139.51 76.7041 138.78V134.01H75.2941V133.11H76.7041V131.385H77.7691V133.11H80.1691V134.01H77.7691V138.72C77.7691 139.19 77.8841 139.55 78.1141 139.8C78.3541 140.04 78.6941 140.16 79.1341 140.16C79.3541 140.16 79.5641 140.125 79.7641 140.055C79.9741 139.985 80.1541 139.885 80.3041 139.755L80.6791 140.52ZM82.6178 133.11H83.6828V141H82.6178V133.11ZM83.1578 131.385C82.9378 131.385 82.7528 131.31 82.6028 131.16C82.4528 131.01 82.3778 130.83 82.3778 130.62C82.3778 130.42 82.4528 130.245 82.6028 130.095C82.7528 129.945 82.9378 129.87 83.1578 129.87C83.3778 129.87 83.5628 129.945 83.7128 130.095C83.8628 130.235 83.9378 130.405 83.9378 130.605C83.9378 130.825 83.8628 131.01 83.7128 131.16C83.5628 131.31 83.3778 131.385 83.1578 131.385ZM89.8711 141.075C89.1111 141.075 88.4261 140.905 87.8161 140.565C87.2061 140.215 86.7261 139.735 86.3761 139.125C86.0261 138.515 85.8511 137.825 85.8511 137.055C85.8511 136.285 86.0261 135.595 86.3761 134.985C86.7261 134.375 87.2061 133.9 87.8161 133.56C88.4261 133.22 89.1111 133.05 89.8711 133.05C90.6311 133.05 91.3161 133.22 91.9261 133.56C92.5361 133.9 93.0111 134.375 93.3511 134.985C93.7011 135.595 93.8761 136.285 93.8761 137.055C93.8761 137.825 93.7011 138.515 93.3511 139.125C93.0111 139.735 92.5361 140.215 91.9261 140.565C91.3161 140.905 90.6311 141.075 89.8711 141.075ZM89.8711 140.13C90.4311 140.13 90.9311 140.005 91.3711 139.755C91.8211 139.495 92.1711 139.13 92.4211 138.66C92.6711 138.19 92.7961 137.655 92.7961 137.055C92.7961 136.455 92.6711 135.92 92.4211 135.45C92.1711 134.98 91.8211 134.62 91.3711 134.37C90.9311 134.11 90.4311 133.98 89.8711 133.98C89.3111 133.98 88.8061 134.11 88.3561 134.37C87.9161 134.62 87.5661 134.98 87.3061 135.45C87.0561 135.92 86.9311 136.455 86.9311 137.055C86.9311 137.655 87.0561 138.19 87.3061 138.66C87.5661 139.13 87.9161 139.495 88.3561 139.755C88.8061 140.005 89.3111 140.13 89.8711 140.13ZM100.07 133.05C101.06 133.05 101.845 133.34 102.425 133.92C103.015 134.49 103.31 135.325 103.31 136.425V141H102.245V136.53C102.245 135.71 102.04 135.085 101.63 134.655C101.22 134.225 100.635 134.01 99.8754 134.01C99.0254 134.01 98.3504 134.265 97.8504 134.775C97.3604 135.275 97.1154 135.97 97.1154 136.86V141H96.0504V133.11H97.0704V134.565C97.3604 134.085 97.7604 133.715 98.2704 133.455C98.7904 133.185 99.3904 133.05 100.07 133.05ZM108.962 133.05C109.992 133.05 110.782 133.31 111.332 133.83C111.882 134.34 112.157 135.1 112.157 136.11V141H111.137V139.77C110.897 140.18 110.542 140.5 110.072 140.73C109.612 140.96 109.062 141.075 108.422 141.075C107.542 141.075 106.842 140.865 106.322 140.445C105.802 140.025 105.542 139.47 105.542 138.78C105.542 138.11 105.782 137.57 106.262 137.16C106.752 136.75 107.527 136.545 108.587 136.545H111.092V136.065C111.092 135.385 110.902 134.87 110.522 134.52C110.142 134.16 109.587 133.98 108.857 133.98C108.357 133.98 107.877 134.065 107.417 134.235C106.957 134.395 106.562 134.62 106.232 134.91L105.752 134.115C106.152 133.775 106.632 133.515 107.192 133.335C107.752 133.145 108.342 133.05 108.962 133.05ZM108.587 140.235C109.187 140.235 109.702 140.1 110.132 139.83C110.562 139.55 110.882 139.15 111.092 138.63V137.34H108.617C107.267 137.34 106.592 137.81 106.592 138.75C106.592 139.21 106.767 139.575 107.117 139.845C107.467 140.105 107.957 140.235 108.587 140.235ZM115.049 129.87H116.114V141H115.049V129.87ZM126.274 141.075C125.494 141.075 124.794 140.905 124.174 140.565C123.564 140.225 123.084 139.75 122.734 139.14C122.384 138.52 122.209 137.825 122.209 137.055C122.209 136.285 122.384 135.595 122.734 134.985C123.084 134.375 123.564 133.9 124.174 133.56C124.794 133.22 125.494 133.05 126.274 133.05C126.954 133.05 127.559 133.185 128.089 133.455C128.629 133.715 129.054 134.1 129.364 134.61L128.569 135.15C128.309 134.76 127.979 134.47 127.579 134.28C127.179 134.08 126.744 133.98 126.274 133.98C125.704 133.98 125.189 134.11 124.729 134.37C124.279 134.62 123.924 134.98 123.664 135.45C123.414 135.92 123.289 136.455 123.289 137.055C123.289 137.665 123.414 138.205 123.664 138.675C123.924 139.135 124.279 139.495 124.729 139.755C125.189 140.005 125.704 140.13 126.274 140.13C126.744 140.13 127.179 140.035 127.579 139.845C127.979 139.655 128.309 139.365 128.569 138.975L129.364 139.515C129.054 140.025 128.629 140.415 128.089 140.685C127.549 140.945 126.944 141.075 126.274 141.075ZM134.549 141.075C133.789 141.075 133.104 140.905 132.494 140.565C131.884 140.215 131.404 139.735 131.054 139.125C130.704 138.515 130.529 137.825 130.529 137.055C130.529 136.285 130.704 135.595 131.054 134.985C131.404 134.375 131.884 133.9 132.494 133.56C133.104 133.22 133.789 133.05 134.549 133.05C135.309 133.05 135.994 133.22 136.604 133.56C137.214 133.9 137.689 134.375 138.029 134.985C138.379 135.595 138.554 136.285 138.554 137.055C138.554 137.825 138.379 138.515 138.029 139.125C137.689 139.735 137.214 140.215 136.604 140.565C135.994 140.905 135.309 141.075 134.549 141.075ZM134.549 140.13C135.109 140.13 135.609 140.005 136.049 139.755C136.499 139.495 136.849 139.13 137.099 138.66C137.349 138.19 137.474 137.655 137.474 137.055C137.474 136.455 137.349 135.92 137.099 135.45C136.849 134.98 136.499 134.62 136.049 134.37C135.609 134.11 135.109 133.98 134.549 133.98C133.989 133.98 133.484 134.11 133.034 134.37C132.594 134.62 132.244 134.98 131.984 135.45C131.734 135.92 131.609 136.455 131.609 137.055C131.609 137.655 131.734 138.19 131.984 138.66C132.244 139.13 132.594 139.495 133.034 139.755C133.484 140.005 133.989 140.13 134.549 140.13ZM140.728 129.87H141.793V141H140.728V129.87ZM147.981 141.075C147.221 141.075 146.536 140.905 145.926 140.565C145.316 140.215 144.836 139.735 144.486 139.125C144.136 138.515 143.961 137.825 143.961 137.055C143.961 136.285 144.136 135.595 144.486 134.985C144.836 134.375 145.316 133.9 145.926 133.56C146.536 133.22 147.221 133.05 147.981 133.05C148.741 133.05 149.426 133.22 150.036 133.56C150.646 133.9 151.121 134.375 151.461 134.985C151.811 135.595 151.986 136.285 151.986 137.055C151.986 137.825 151.811 138.515 151.461 139.125C151.121 139.735 150.646 140.215 150.036 140.565C149.426 140.905 148.741 141.075 147.981 141.075ZM147.981 140.13C148.541 140.13 149.041 140.005 149.481 139.755C149.931 139.495 150.281 139.13 150.531 138.66C150.781 138.19 150.906 137.655 150.906 137.055C150.906 136.455 150.781 135.92 150.531 135.45C150.281 134.98 149.931 134.62 149.481 134.37C149.041 134.11 148.541 133.98 147.981 133.98C147.421 133.98 146.916 134.11 146.466 134.37C146.026 134.62 145.676 134.98 145.416 135.45C145.166 135.92 145.041 136.455 145.041 137.055C145.041 137.655 145.166 138.19 145.416 138.66C145.676 139.13 146.026 139.495 146.466 139.755C146.916 140.005 147.421 140.13 147.981 140.13ZM161.271 133.11V141H160.251V139.56C159.971 140.04 159.586 140.415 159.096 140.685C158.606 140.945 158.046 141.075 157.416 141.075C156.386 141.075 155.571 140.79 154.971 140.22C154.381 139.64 154.086 138.795 154.086 137.685V133.11H155.151V137.58C155.151 138.41 155.356 139.04 155.766 139.47C156.176 139.9 156.761 140.115 157.521 140.115C158.351 140.115 159.006 139.865 159.486 139.365C159.966 138.855 160.206 138.15 160.206 137.25V133.11H161.271ZM165.274 134.655C165.524 134.125 165.894 133.725 166.384 133.455C166.884 133.185 167.499 133.05 168.229 133.05V134.085L167.974 134.07C167.144 134.07 166.494 134.325 166.024 134.835C165.554 135.345 165.319 136.06 165.319 136.98V141H164.254V133.11H165.274V134.655ZM172.33 141.075C171.69 141.075 171.075 140.985 170.485 140.805C169.905 140.615 169.45 140.38 169.12 140.1L169.6 139.26C169.93 139.52 170.345 139.735 170.845 139.905C171.345 140.065 171.865 140.145 172.405 140.145C173.125 140.145 173.655 140.035 173.995 139.815C174.345 139.585 174.52 139.265 174.52 138.855C174.52 138.565 174.425 138.34 174.235 138.18C174.045 138.01 173.805 137.885 173.515 137.805C173.225 137.715 172.84 137.63 172.36 137.55C171.72 137.43 171.205 137.31 170.815 137.19C170.425 137.06 170.09 136.845 169.81 136.545C169.54 136.245 169.405 135.83 169.405 135.3C169.405 134.64 169.68 134.1 170.23 133.68C170.78 133.26 171.545 133.05 172.525 133.05C173.035 133.05 173.545 133.12 174.055 133.26C174.565 133.39 174.985 133.565 175.315 133.785L174.85 134.64C174.2 134.19 173.425 133.965 172.525 133.965C171.845 133.965 171.33 134.085 170.98 134.325C170.64 134.565 170.47 134.88 170.47 135.27C170.47 135.57 170.565 135.81 170.755 135.99C170.955 136.17 171.2 136.305 171.49 136.395C171.78 136.475 172.18 136.56 172.69 136.65C173.32 136.77 173.825 136.89 174.205 137.01C174.585 137.13 174.91 137.335 175.18 137.625C175.45 137.915 175.585 138.315 175.585 138.825C175.585 139.515 175.295 140.065 174.715 140.475C174.145 140.875 173.35 141.075 172.33 141.075Z" fill="black"/>
<circle cx="154" cy="83" r="32" fill="black"/>
</svg>
