<svg width="15" height="26" viewBox="0 0 15 26" fill="none" xmlns="http://www.w3.org/2000/svg">
<path d="M10.5142 0C8.77839 0 7.11366 0.689555 5.88624 1.91697C4.65882 3.14439 3.96927 4.80912 3.96927 6.54495V10.1889H0.46684C0.290991 10.1889 0.148438 10.3314 0.148438 10.5073V15.3187C0.148438 15.4946 0.290991 15.6371 0.46684 15.6371H3.96927V25.5076C3.96927 25.6834 4.11182 25.826 4.28767 25.826H9.09909C9.27494 25.826 9.41749 25.6834 9.41749 25.5076V15.6371H12.9509C13.0971 15.6371 13.2244 15.5377 13.2598 15.3959L14.4627 10.5845C14.5129 10.3836 14.3609 10.1889 14.1538 10.1889H9.41749V6.54495C9.41749 6.25408 9.53304 5.97512 9.73872 5.76945C9.94439 5.56377 10.2233 5.44822 10.5142 5.44822H14.1935C14.3694 5.44822 14.5119 5.30567 14.5119 5.12982V0.318403C14.5119 0.142554 14.3694 0 14.1935 0H10.5142Z" fill="#F9DD00"/>
</svg>
