<svg width="80" height="151" viewBox="0 0 80 151" fill="none" xmlns="http://www.w3.org/2000/svg">
<g clip-path="url(#clip0_443_3063)">
<path d="M40.0988 -3.48828e-06L80 73.0455L80 151L-1.52588e-05 151L-8.44379e-06 73.0455L40.0988 -3.48828e-06ZM72.0988 75.2055L40.0988 16.4942L8.09875 75.2055L8.09875 143.146L72.0988 143.146L72.0988 75.2055Z" fill="#003465"/>
<path d="M40.0991 8.24706L53.5312 32.9883L26.4695 32.9883L40.0991 8.24706Z" fill="#003465"/>
<path d="M2.96302 77.9531L77.0371 77.9531L77.0371 70.0988L2.96302 70.0988L2.96302 77.9531Z" fill="#003465"/>
<path d="M54.9132 147.072L62.8145 147.072L62.8145 74.0268L54.9132 74.0268L54.9132 147.072Z" fill="#003465"/>
<path d="M17.1847 147.07L25.0859 147.07L25.0859 74.0248L17.1847 74.0248L17.1847 147.07Z" fill="#003465"/>
</g>
<defs>
<clipPath id="clip0_443_3063">
<rect width="80" height="151" fill="white" transform="translate(80 151) rotate(-180)"/>
</clipPath>
</defs>
</svg>
