<svg width="570" height="510" viewBox="0 0 570 510" fill="none" xmlns="http://www.w3.org/2000/svg">
<path d="M357.216 492.86C365.199 487.129 372.23 479.962 376.641 470.834C432.402 356.627 569.794 0.566406 569.794 0.566406C569.794 0.566406 188.858 17.8842 62.9821 34.6031C52.9557 35.9303 43.9082 40.353 35.9254 46.0841C-23.5934 88.9257 0.121655 223.72 88.8632 347.055C177.605 470.39 297.77 535.721 357.216 492.86Z" fill="#F9DD00"/>
<path d="M85.9941 82.4229C72.2333 84.0036 59.4493 90.3167 49.8291 100.282C40.2089 110.247 34.3503 123.246 33.2554 137.054C32.1605 150.862 35.8975 164.621 43.827 175.978C51.7565 187.335 63.3858 195.584 76.7255 199.313C75.2587 193.782 74.6408 188.06 74.8929 182.342L78.6866 151.887C77.2883 149.317 76.428 146.489 76.1581 143.576C75.2693 135.345 79.3948 128.633 85.3346 127.992C86.4089 127.859 87.4991 127.961 88.5306 128.289C89.5621 128.617 90.5104 129.164 91.3106 129.893C92.1109 130.622 92.7441 131.515 93.167 132.512C93.5898 133.508 93.7923 134.584 93.7605 135.666C94.115 138.948 93.2435 143.433 92.3285 148.142C91.8242 150.738 91.3066 153.401 90.9738 155.969C90.7504 157.322 90.8562 158.708 91.2823 160.012C91.7084 161.315 92.4422 162.497 93.4217 163.456C94.4012 164.416 95.5975 165.125 96.9093 165.525C98.2211 165.924 99.6098 166.001 100.958 165.75C111.48 164.614 118.421 152.576 116.689 136.538C116.443 133.268 115.518 130.085 113.973 127.192C112.428 124.299 110.297 121.76 107.716 119.737C105.135 117.713 102.161 116.25 98.9825 115.441C95.8044 114.631 92.4924 114.493 89.2579 115.035C85.7665 115.261 82.3573 116.193 79.2366 117.774C76.1159 119.356 73.3487 121.555 71.1023 124.237C68.8559 126.919 67.1772 130.029 66.1677 133.379C65.1581 136.729 64.8389 140.249 65.2291 143.726C65.7052 148.577 67.7016 153.153 70.9333 156.802C71.1617 157.007 71.3366 157.264 71.4425 157.552C71.5484 157.84 71.5822 158.15 71.5408 158.453C71.2756 160.372 70.6972 164.554 70.6146 165.378C70.5319 166.203 69.8656 166.79 68.7075 166.4C60.9071 163.722 55.1143 153.403 54.1705 144.662C52.1502 125.952 63.9094 107.256 89.5356 104.489C110.113 102.267 127.736 115.215 129.857 134.859C132.065 155.309 121.114 173.145 102.998 175.101C100.352 175.481 97.653 175.193 95.1466 174.264C92.6402 173.335 90.4055 171.795 88.6455 169.784L86.4798 184.311C85.3032 189.992 83.3866 195.495 80.7788 200.679C86.7321 201.761 92.8141 201.943 98.8216 201.22C114.575 199.519 129.008 191.629 138.944 179.287C148.881 166.945 153.507 151.161 151.806 135.408C150.105 119.654 142.216 105.222 129.874 95.2851C117.531 85.3485 101.748 80.7218 85.9941 82.4229Z" fill="#003465"/>
<path d="M246.138 65.1306C238.568 65.948 231.633 69.739 226.858 75.6696C222.084 81.6003 219.861 89.1848 220.678 96.7546L222.394 112.646L207.12 114.295C206.353 114.378 205.799 115.067 205.881 115.833L208.147 136.816C208.23 137.583 208.919 138.137 209.685 138.054L224.959 136.405L229.607 179.45C229.69 180.217 230.379 180.771 231.146 180.688L252.128 178.423C252.895 178.34 253.449 177.651 253.367 176.884L248.719 133.84L264.128 132.176C264.765 132.107 265.274 131.613 265.361 130.978L268.341 109.43C268.466 108.53 267.711 107.752 266.808 107.85L246.153 110.08L244.437 94.1891C244.3 92.9207 244.673 91.6498 245.473 90.656C246.273 89.6622 247.435 89.0269 248.704 88.89L264.749 87.1574C265.516 87.0746 266.07 86.3858 265.988 85.619L263.722 64.6366C263.639 63.8698 262.95 63.3152 262.183 63.398L246.138 65.1306Z" fill="#003465"/>
<path d="M379.81 87.8914C368.733 89.0875 360.723 99.0368 361.919 110.114C363.115 121.191 373.064 129.201 384.141 128.005C395.218 126.809 403.228 116.859 402.032 105.782C400.836 94.7054 390.887 86.6954 379.81 87.8914Z" fill="#003465"/>
<path fillRule="evenodd" clipRule="evenodd" d="M343.754 56.3948C364.777 51.7188 386.775 49.3434 408.311 49.424C420.168 49.4683 430.614 57.6789 433.259 69.287C438.152 90.766 440.525 112.742 440.33 134.771C440.224 146.676 431.772 156.927 420.197 159.501C399.175 164.177 377.176 166.553 355.64 166.472C343.783 166.428 333.337 158.217 330.693 146.609C325.799 125.13 323.426 103.154 323.622 81.1255C323.727 69.2204 332.18 58.9692 343.754 56.3948ZM408.834 67.5886C405.426 67.9566 402.961 71.018 403.329 74.4263C403.697 77.8345 406.758 80.2992 410.167 79.9312C413.575 79.5631 416.039 76.5018 415.671 73.0935C415.303 69.6852 412.242 67.2206 408.834 67.5886ZM352.662 111.113C350.914 94.9239 362.621 80.3826 378.81 78.6345C395 76.8864 409.541 88.5934 411.289 104.783C413.037 120.972 401.33 135.513 385.141 137.262C368.951 139.01 354.41 127.303 352.662 111.113Z" fill="#003465"/>
<path d="M85.9399 265.232C76.121 264.424 67.5061 271.728 66.6979 281.547C65.8898 291.366 73.1945 299.981 83.0135 300.789C92.8324 301.597 101.447 294.293 102.255 284.474C103.064 274.655 95.7589 266.04 85.9399 265.232Z" fill="#003465"/>
<path fillRule="evenodd" clipRule="evenodd" d="M59.8793 231.868C78.9154 231.312 98.4158 232.917 117.105 236.577C127.394 238.593 135.097 247.465 135.458 257.986C136.127 277.455 134.523 296.935 130.681 316.033C128.604 326.354 119.555 333.847 109.074 334.153C90.0381 334.709 70.5378 333.104 51.8487 329.443C41.5593 327.428 33.8565 318.556 33.4953 308.034C32.827 288.566 34.4302 269.085 38.2726 249.988C40.3492 239.667 49.3988 232.174 59.8793 231.868ZM114.53 252.439C111.509 252.19 108.858 254.438 108.609 257.459C108.361 260.481 110.608 263.131 113.63 263.38C116.651 263.629 119.302 261.381 119.55 258.36C119.799 255.339 117.551 252.688 114.53 252.439ZM58.4924 280.872C59.6734 266.521 72.2645 255.845 86.6153 257.026C100.966 258.207 111.642 270.798 110.461 285.149C109.28 299.5 96.6889 310.176 82.3382 308.995C67.9874 307.814 57.3113 295.223 58.4924 280.872Z" fill="#003465"/>
<path fillRule="evenodd" clipRule="evenodd" d="M240.788 256.72C259.153 256.794 277.484 258.303 295.614 261.232L307.792 263.2C314.576 264.296 319.74 269.873 320.313 276.72C321.745 293.853 320.326 311.106 316.111 327.774C314.426 334.436 308.42 339.093 301.548 339.065L289.212 339.015C270.847 338.941 252.516 337.433 234.386 334.503L222.207 332.535C215.424 331.439 210.26 325.863 209.687 319.015C208.254 301.882 209.674 284.63 213.889 267.961C215.573 261.3 221.58 256.642 228.451 256.67L240.788 256.72ZM252.947 310.48L255.171 283.455C255.276 282.179 256.732 281.506 257.772 282.252L279.181 297.618C280.191 298.343 280.064 299.883 278.95 300.432L255.316 312.092C254.169 312.658 252.842 311.755 252.947 310.48Z" fill="#003465"/>
<path d="M410.419 254.071C403.998 253.543 398.366 258.319 397.837 264.739C397.309 271.159 402.085 276.792 408.505 277.32C414.925 277.849 420.558 273.072 421.086 266.652C421.615 260.232 416.839 254.599 410.419 254.071Z" fill="#003465"/>
<path d="M396.776 285.993C396.399 285.962 396.067 286.243 396.036 286.62L390.183 357.736C390.152 358.113 390.433 358.444 390.811 358.476L412.693 360.276C413.07 360.308 413.402 360.027 413.433 359.649L419.286 288.534C419.317 288.156 419.036 287.825 418.658 287.794L396.776 285.993Z" fill="#003465"/>
<path d="M432.334 288.919C431.956 288.888 431.625 289.169 431.594 289.547L425.741 360.662C425.71 361.04 425.991 361.371 426.369 361.402L448.25 363.203C448.628 363.234 448.959 362.953 448.99 362.575L452.142 324.283C452.366 321.562 453.661 319.042 455.743 317.277C457.825 315.512 460.523 314.646 463.243 314.87C465.963 315.094 468.483 316.389 470.248 318.471C472.014 320.553 472.88 323.251 472.656 325.971L469.504 364.264C469.473 364.641 469.754 364.973 470.132 365.004L492.013 366.805C492.391 366.836 492.722 366.555 492.753 366.177L496.634 319.024C497.727 305.748 487.036 294.413 473.728 294.526C469.624 294.561 465.513 295.243 461.62 296.545L454.221 299.02L454.843 291.46C454.874 291.083 454.593 290.751 454.216 290.72L432.334 288.919Z" fill="#003465"/>
</svg>
