<svg width="137" height="157" viewBox="0 0 137 157" fill="none" xmlns="http://www.w3.org/2000/svg">
<path d="M23.9463 54.7289L0 10.7724V-36H47.9081V10.7724L23.9463 54.7289ZM4.73645 9.56557L23.9618 44.8267L43.1716 9.56557V-31.281H4.73645V9.56557Z" fill="white"/>
<path d="M23.9463 49.6697L15.8555 34.8164H32.0526L23.9463 49.6697Z" fill="white"/>
<path d="M46.1368 7.81738H1.75391V12.5364H46.1368V7.81738Z" fill="white"/>
<path d="M15.0626 -33.6484H10.3262V10.1688H15.0626V-33.6484Z" fill="white"/>
<path d="M37.5802 -33.6484H32.8438V10.1688H37.5802V-33.6484Z" fill="white"/>
<g clip-path="url(#clip0_539_6677)">
<mask id="mask0_539_6677" style="mask-type:luminance" maskUnits="userSpaceOnUse" x="24" y="55" width="109" height="101">
<path d="M55.8 148.3C56.6 150.1 57.8 151.6 59.3 152.8C70.3 161.8 94.4 150.6 113 127.8C131.7 105 137.8 79.2 126.8 70.2C125.3 69 123.6 68 121.7 67.7C97.6 62.9 24 55 24 55C24 55 46.4 125.5 55.8 148.3Z" fill="white"/>
</mask>
<g mask="url(#mask0_539_6677)">
<path d="M126.8 70.1C125.3 68.9 123.6 67.9 121.7 67.6C97.6 62.9 24 55 24 55C24 55 46.4 125.5 55.8 148.3C56.6 150.1 57.8 151.6 59.3 152.8C70.3 161.8 94.4 150.6 113 127.8C131.7 104.9 137.9 79.1 126.8 70.1Z" fill="#FDDD00"/>
</g>
<mask id="mask1_539_6677" style="mask-type:luminance" maskUnits="userSpaceOnUse" x="24" y="55" width="109" height="101">
<path d="M55.8 148.3C56.6 150.1 57.8 151.6 59.3 152.8C70.3 161.8 94.4 150.6 113 127.8C131.7 105 137.8 79.2 126.8 70.2C125.3 69 123.6 68 121.7 67.7C97.6 62.9 24 55 24 55C24 55 46.4 125.5 55.8 148.3Z" fill="white"/>
</mask>
<g mask="url(#mask1_539_6677)">
<path d="M59.6996 79.2002C63.6996 79.2002 68.2996 81.3002 69.1996 86.3002H64.1996C63.3996 84.6002 61.7996 83.9002 59.6996 83.9002C56.4996 83.9002 54.3996 86.4002 54.3996 89.5002C54.3996 92.8002 56.5996 95.0002 59.6996 95.0002C61.7996 95.0002 63.3996 94.5002 64.2996 92.5002H59.9996V88.1002H69.4996C69.5996 90.1002 69.5996 92.0002 68.8996 94.0002C67.4996 98.2002 63.3996 99.8002 59.6996 99.8002C54.5996 99.8002 49.0996 96.4002 49.0996 89.5002C49.1996 82.6002 54.5996 79.2002 59.6996 79.2002Z" fill="#003465"/>
</g>
<mask id="mask2_539_6677" style="mask-type:luminance" maskUnits="userSpaceOnUse" x="24" y="55" width="109" height="101">
<path d="M55.8 148.3C56.6 150.1 57.8 151.6 59.3 152.8C70.3 161.8 94.4 150.6 113 127.8C131.7 105 137.8 79.2 126.8 70.2C125.3 69 123.6 68 121.7 67.7C97.6 62.9 24 55 24 55C24 55 46.4 125.5 55.8 148.3Z" fill="white"/>
</mask>
<g mask="url(#mask2_539_6677)">
<path d="M86.2992 84H78.7992V86.9H85.6992V91.4H78.7992V95H86.4992V99.5H73.6992V79.5H86.2992V84Z" fill="#003465"/>
</g>
<mask id="mask3_539_6677" style="mask-type:luminance" maskUnits="userSpaceOnUse" x="24" y="55" width="109" height="101">
<path d="M55.8 148.3C56.6 150.1 57.8 151.6 59.3 152.8C70.3 161.8 94.4 150.6 113 127.8C131.7 105 137.8 79.2 126.8 70.2C125.3 69 123.6 68 121.7 67.7C97.6 62.9 24 55 24 55C24 55 46.4 125.5 55.8 148.3Z" fill="white"/>
</mask>
<g mask="url(#mask3_539_6677)">
<path d="M90 84V79.5H104.9V84H100V99.5H94.9V84H90Z" fill="#003465"/>
</g>
<mask id="mask4_539_6677" style="mask-type:luminance" maskUnits="userSpaceOnUse" x="24" y="55" width="109" height="101">
<path d="M55.8 148.3C56.6 150.1 57.8 151.6 59.3 152.8C70.3 161.8 94.4 150.6 113 127.8C131.7 105 137.8 79.2 126.8 70.2C125.3 69 123.6 68 121.7 67.7C97.6 62.9 24 55 24 55C24 55 46.4 125.5 55.8 148.3Z" fill="white"/>
</mask>
<g mask="url(#mask4_539_6677)">
<path d="M58.4008 114.7H58.6008L63.2008 103.4H68.1008V104.2L59.6008 123.7H57.4008L48.8008 104.2V103.4H53.7008L58.4008 114.7Z" fill="#003465"/>
</g>
<mask id="mask5_539_6677" style="mask-type:luminance" maskUnits="userSpaceOnUse" x="24" y="55" width="109" height="101">
<path d="M55.8 148.3C56.6 150.1 57.8 151.6 59.3 152.8C70.3 161.8 94.4 150.6 113 127.8C131.7 105 137.8 79.2 126.8 70.2C125.3 69 123.6 68 121.7 67.7C97.6 62.9 24 55 24 55C24 55 46.4 125.5 55.8 148.3Z" fill="white"/>
</mask>
<g mask="url(#mask5_539_6677)">
<path d="M87.6012 117.5C87.6012 116.1 85.9012 115.8 83.9012 115.7C79.5012 115.4 76.7012 113.9 76.6012 109.5C76.4012 100.8 92.0012 100.8 91.9012 109.5H87.0012C87.0012 106.8 81.6012 107.1 81.4012 109.4C81.3012 110.9 82.8012 111.2 84.6012 111.4C88.6012 111.8 92.5012 112.4 92.5012 117.4C92.5012 125.8 76.2012 126 76.3012 117.1H81.3012C81.3012 119.9 87.6012 119.9 87.6012 117.5Z" fill="#003465"/>
</g>
<mask id="mask6_539_6677" style="mask-type:luminance" maskUnits="userSpaceOnUse" x="24" y="55" width="109" height="101">
<path d="M55.8 148.3C56.6 150.1 57.8 151.6 59.3 152.8C70.3 161.8 94.4 150.6 113 127.8C131.7 105 137.8 79.2 126.8 70.2C125.3 69 123.6 68 121.7 67.7C97.6 62.9 24 55 24 55C24 55 46.4 125.5 55.8 148.3Z" fill="white"/>
</mask>
<g mask="url(#mask6_539_6677)">
<path d="M67.5008 136.9C69.1008 137.7 69.9008 139.2 69.9008 141C69.9008 144.5 67.8008 147.3 63.7008 147.3H54.3008V127.3H62.9008C66.4008 127.3 69.2008 130 69.2008 133.5C69.1008 134.7 68.5008 136.1 67.5008 136.9ZM59.2008 131.9V135.1H62.4008C64.4008 135.1 64.4008 131.9 62.4008 131.9H59.2008ZM59.2008 139.4V142.8H63.3008C65.4008 142.8 65.3008 139.4 63.3008 139.4H59.2008Z" fill="#003465"/>
</g>
<mask id="mask7_539_6677" style="mask-type:luminance" maskUnits="userSpaceOnUse" x="24" y="55" width="109" height="101">
<path d="M55.8 148.3C56.6 150.1 57.8 151.6 59.3 152.8C70.3 161.8 94.4 150.6 113 127.8C131.7 105 137.8 79.2 126.8 70.2C125.3 69 123.6 68 121.7 67.7C97.6 62.9 24 55 24 55C24 55 46.4 125.5 55.8 148.3Z" fill="white"/>
</mask>
<g mask="url(#mask7_539_6677)">
<path d="M77.7992 142.8H85.0992V147.4H72.6992V127.3H77.7992V142.8Z" fill="#003465"/>
</g>
<mask id="mask8_539_6677" style="mask-type:luminance" maskUnits="userSpaceOnUse" x="24" y="55" width="109" height="101">
<path d="M55.8 148.3C56.6 150.1 57.8 151.6 59.3 152.8C70.3 161.8 94.4 150.6 113 127.8C131.7 105 137.8 79.2 126.8 70.2C125.3 69 123.6 68 121.7 67.7C97.6 62.9 24 55 24 55C24 55 46.4 125.5 55.8 148.3Z" fill="white"/>
</mask>
<g mask="url(#mask8_539_6677)">
<path d="M100 131.9H92.6V134.7H99.4V139.3H92.6V142.8H100V147.4H87.5V127.3H100V131.9Z" fill="#003465"/>
</g>
<mask id="mask9_539_6677" style="mask-type:luminance" maskUnits="userSpaceOnUse" x="24" y="55" width="109" height="101">
<path d="M55.8 148.3C56.6 150.1 57.8 151.6 59.3 152.8C70.3 161.8 94.4 150.6 113 127.8C131.7 105 137.8 79.2 126.8 70.2C125.3 69 123.6 68 121.7 67.7C97.6 62.9 24 55 24 55C24 55 46.4 125.5 55.8 148.3Z" fill="white"/>
</mask>
<g mask="url(#mask9_539_6677)">
<path d="M74.4008 103.4H69.3008V123.5H74.4008V103.4Z" fill="#003465"/>
</g>
<mask id="mask10_539_6677" style="mask-type:luminance" maskUnits="userSpaceOnUse" x="24" y="55" width="109" height="101">
<path d="M55.8 148.3C56.6 150.1 57.8 151.6 59.3 152.8C70.3 161.8 94.4 150.6 113 127.8C131.7 105 137.8 79.2 126.8 70.2C125.3 69 123.6 68 121.7 67.7C97.6 62.9 24 55 24 55C24 55 46.4 125.5 55.8 148.3Z" fill="white"/>
</mask>
<g mask="url(#mask10_539_6677)">
<path d="M100 103.4H94.9004V123.5H100V103.4Z" fill="#003465"/>
</g>
<mask id="mask11_539_6677" style="mask-type:luminance" maskUnits="userSpaceOnUse" x="24" y="55" width="109" height="101">
<path d="M55.8 148.3C56.6 150.1 57.8 151.6 59.3 152.8C70.3 161.8 94.4 150.6 113 127.8C131.7 105 137.8 79.2 126.8 70.2C125.3 69 123.6 68 121.7 67.7C97.6 62.9 24 55 24 55C24 55 46.4 125.5 55.8 148.3Z" fill="white"/>
</mask>
<g mask="url(#mask11_539_6677)">
<path d="M60.7004 69.7C60.7004 73.4 57.7004 75.5 54.2004 75.5C50.7004 75.5 47.9004 73.4 47.9004 69.7V67.5H52.0004V69.6C52.0004 70.9 53.0004 71.6 54.2004 71.6C55.4004 71.6 56.3004 70.9 56.3004 69.6V62.3H53.9004V58.5H60.7004V69.7Z" fill="#003465"/>
</g>
<mask id="mask12_539_6677" style="mask-type:luminance" maskUnits="userSpaceOnUse" x="24" y="55" width="109" height="101">
<path d="M55.8 148.3C56.6 150.1 57.8 151.6 59.3 152.8C70.3 161.8 94.4 150.6 113 127.8C131.7 105 137.8 79.2 126.8 70.2C125.3 69 123.6 68 121.7 67.7C97.6 62.9 24 55 24 55C24 55 46.4 125.5 55.8 148.3Z" fill="white"/>
</mask>
<g mask="url(#mask12_539_6677)">
<path d="M72.8992 69.6V58.5H76.9992V69.7C76.9992 73.4 73.7992 75.5 70.3992 75.5C66.9992 75.5 63.6992 73.4 63.6992 69.7V58.5H67.7992V69.6C67.7992 71 69.0992 71.6 70.3992 71.6C71.5992 71.6 72.8992 71 72.8992 69.6Z" fill="#003465"/>
</g>
<mask id="mask13_539_6677" style="mask-type:luminance" maskUnits="userSpaceOnUse" x="24" y="55" width="109" height="101">
<path d="M55.8 148.3C56.6 150.1 57.8 151.6 59.3 152.8C70.3 161.8 94.4 150.6 113 127.8C131.7 105 137.8 79.2 126.8 70.2C125.3 69 123.6 68 121.7 67.7C97.6 62.9 24 55 24 55C24 55 46.4 125.5 55.8 148.3Z" fill="white"/>
</mask>
<g mask="url(#mask13_539_6677)">
<path d="M88.4005 70.3002C88.4005 69.1002 87.0005 68.9002 85.3005 68.8002C81.7005 68.5002 79.3005 67.3002 79.2005 63.6002C79.1005 56.4002 92.1005 56.4002 92.0005 63.6002H88.0005C88.0005 61.4002 83.5005 61.6002 83.3005 63.6002C83.2005 64.9002 84.5005 65.1002 86.0005 65.3002C89.3005 65.7002 92.6005 66.2002 92.6005 70.4002C92.6005 77.5002 78.9005 77.6002 79.0005 70.2002H83.1005C83.2005 72.3002 88.4005 72.3002 88.4005 70.3002Z" fill="#003465"/>
</g>
<mask id="mask14_539_6677" style="mask-type:luminance" maskUnits="userSpaceOnUse" x="24" y="55" width="109" height="101">
<path d="M55.8 148.3C56.6 150.1 57.8 151.6 59.3 152.8C70.3 161.8 94.4 150.6 113 127.8C131.7 105 137.8 79.2 126.8 70.2C125.3 69 123.6 68 121.7 67.7C97.6 62.9 24 55 24 55C24 55 46.4 125.5 55.8 148.3Z" fill="white"/>
</mask>
<g mask="url(#mask14_539_6677)">
<path d="M93 62.3V58.5H105.5V62.3H101.4V75.3H97.2V62.3H93Z" fill="#003465"/>
</g>
<mask id="mask15_539_6677" style="mask-type:luminance" maskUnits="userSpaceOnUse" x="24" y="55" width="109" height="101">
<path d="M55.8 148.3C56.6 150.1 57.8 151.6 59.3 152.8C70.3 161.8 94.4 150.6 113 127.8C131.7 105 137.8 79.2 126.8 70.2C125.3 69 123.6 68 121.7 67.7C97.6 62.9 24 55 24 55C24 55 46.4 125.5 55.8 148.3Z" fill="white"/>
</mask>
<g mask="url(#mask15_539_6677)">
<path d="M85.0996 58.5L87.6996 64.3L94.5996 66.4L96.1996 60.4L85.0996 58.5Z" fill="#FDDD00"/>
</g>
</g>
<defs>
<clipPath id="clip0_539_6677">
<rect width="108.3" height="100.9" fill="white" transform="translate(24 55)"/>
</clipPath>
</defs>
</svg>
