<svg width="1279" height="1438" viewBox="0 0 1279 1438" fill="none" xmlns="http://www.w3.org/2000/svg">
<path d="M1207.68 851.998C1207.12 833.528 1203.32 815.036 1193.71 798.572C1036.71 603.001 662.844 153.566 662.844 153.566C662.844 153.566 312.705 624.001 183.902 829.946C175.446 846.981 172.848 865.739 173.409 884.208C177.762 1022.03 412.942 1126.54 698.51 1117.58C984.077 1108.61 1212.14 989.731 1207.68 851.998Z" fill="#F9DD00"/>
<path d="M614.268 98.4981C614.118 98.0675 613.969 97.6368 613.819 97.2062C606.128 75.0732 617.82 50.9333 639.959 43.2396C662.098 35.5458 686.241 47.2321 693.933 69.3651C695.908 75.049 696.588 80.8937 696.14 86.551" stroke="white" stroke-width="7.86329" stroke-miterlimit="10" stroke-linecap="round"/>
<path d="M698.078 120.762C699.747 148.148 640.116 167.823 622.354 131.864" stroke="white" stroke-width="7.86329" stroke-miterlimit="10" stroke-linecap="round"/>
<path d="M612.38 76.2275C590.391 79.1875 541.438 89.6458 521.531 107.799C496.648 130.491 582.038 137.097 650.454 128.535" stroke="white" stroke-width="7.86329" stroke-miterlimit="10" stroke-linecap="round"/>
<path d="M570.3 85.1812C553.388 90.8164 524.027 104.242 541.874 112.864C564.182 123.642 591.078 119.329 607.853 118.766" stroke="white" stroke-width="7.86329" stroke-miterlimit="10" stroke-linecap="round"/>
<path d="M651.5 128.176C688.5 123.51 764.661 108.277 784.568 90.1239C809.452 67.4321 762.65 57.3637 694.235 65.9251" stroke="white" stroke-width="7.86329" stroke-miterlimit="10" stroke-linecap="round"/>
<ellipse cx="683.171" cy="88.3141" rx="4.58894" ry="5.1992" transform="rotate(-9.26791 683.171 88.3141)" stroke="white" stroke-width="7.86329" stroke-miterlimit="10" stroke-linecap="round"/>
<ellipse cx="657.27" cy="99.3509" rx="6.08021" ry="6.88879" transform="rotate(-9.26791 657.27 99.3509)" stroke="white" stroke-width="7.86329" stroke-miterlimit="10" stroke-linecap="round"/>
<ellipse cx="628.737" cy="96.697" rx="4.58894" ry="5.1992" transform="rotate(-9.26791 628.737 96.697)" stroke="white" stroke-width="7.86329" stroke-miterlimit="10" stroke-linecap="round"/>
</svg>
