<svg width="1455" height="602" viewBox="0 0 1455 602" fill="none" xmlns="http://www.w3.org/2000/svg">
<path d="M1413.5 299.738C1390.65 299.738 1372 281.09 1372 258.238C1372 235.387 1390.65 216.738 1413.5 216.738C1436.35 216.738 1455 235.387 1455 258.238C1455 281.09 1436.35 299.738 1413.5 299.738ZM1413.5 233.286C1399.84 233.286 1388.55 244.317 1388.55 258.238C1388.55 271.896 1399.84 283.191 1413.5 283.191C1427.16 283.191 1438.45 272.159 1438.45 258.238C1438.45 244.58 1427.42 233.286 1413.5 233.286Z" fill="#F9DD00"/>
<path d="M41.5 601.738C18.6488 601.738 0 583.09 0 560.238C0 537.387 18.6488 518.738 41.5 518.738C64.3512 518.738 83 537.387 83 560.238C83 583.09 64.3512 601.738 41.5 601.738ZM41.5 535.286C27.8418 535.286 16.5475 546.317 16.5475 560.238C16.5475 573.896 27.8418 585.191 41.5 585.191C55.1582 585.191 66.4525 574.159 66.4525 560.238C66.4525 546.58 55.4208 535.286 41.5 535.286Z" fill="#F9DD00"/>
<path d="M198.164 399.149L210.909 409.952L227.029 410.462L221.375 426.392L225.405 441.584L207.565 434.593L195.536 449.506L191.506 434.314L178.7 423.28L192.449 414.848L198.164 399.149Z" fill="#F9DD00"/>
<path d="M1139.37 402.89L1139.08 419.595L1148.9 432.393L1132.99 438.107L1123.79 450.847L1117.9 432.614L1098.74 432.75L1107.94 420.01L1108.37 403.112L1123.6 408.411L1139.37 402.89Z" fill="#F9DD00"/>
<path d="M354.824 6.17298L362.06 12.3075L371.215 12.5968L368.004 21.6429L370.292 30.2698L360.162 26.2997L353.331 34.7685L351.043 26.1416L343.771 19.8759L351.578 15.0878L354.824 6.17298Z" fill="#F9DD00"/>
<path d="M918.151 8.26601L918.027 17.7523L923.631 24.9964L914.61 28.2786L909.414 35.5348L906.027 25.1949L895.147 25.3175L900.344 18.0613L900.547 8.46443L909.21 11.4378L918.151 8.26601Z" fill="#F9DD00"/>
<path d="M101.01 325.675L102.452 337.116L110.415 344.897L100.106 350.362L95.0668 359.97L89.2547 348.09L76.1772 350.063L81.2161 340.455L79.8506 328.868L90.7782 330.994L101.01 325.675Z" fill="#F9DD00"/>
<path d="M491.671 233.753L493.113 245.194L501.075 252.975L490.766 258.44L485.727 268.048L479.915 256.168L466.837 258.141L471.876 248.533L470.511 236.946L481.438 239.072L491.671 233.753Z" fill="#F9DD00"/>
</svg>
