<svg width="2753" height="1160" viewBox="0 0 2753 1160" fill="none" xmlns="http://www.w3.org/2000/svg">
<g opacity="0.5">
<path d="M614.417 46.025C612.434 46.025 610.45 45.675 608.584 44.9751L611.15 38.0926C614.65 39.3757 618.616 38.5592 621.299 35.8761C623.866 33.3097 624.799 29.3435 623.516 25.7272C621.299 19.5446 622.816 12.5454 627.365 7.87921C632.031 3.21305 639.031 1.69655 645.213 3.91298L642.647 10.7956C639.147 9.51236 635.181 10.3289 632.498 13.012C629.932 15.5784 628.998 19.5446 630.282 23.1609C632.498 29.3435 630.982 36.3427 626.315 41.0089C623.166 44.2752 618.85 46.025 614.417 46.025Z" fill="#03498A"/>
<path d="M1391.21 440.548C1389.23 440.548 1387.25 440.198 1385.38 439.499L1387.95 432.616C1391.45 433.899 1395.41 433.083 1398.1 430.4C1400.66 427.833 1401.6 423.867 1400.31 420.251C1398.1 414.068 1399.61 407.069 1404.28 402.403C1408.95 397.736 1415.94 396.22 1422.13 398.436L1419.56 405.319C1416.06 404.036 1412.09 404.852 1409.41 407.535C1406.85 410.102 1405.91 414.068 1407.2 417.684C1409.41 423.867 1407.9 430.866 1403.23 435.532C1399.96 438.915 1395.65 440.548 1391.21 440.548Z" fill="#03498A"/>
<path d="M1311.89 221.475C1309.91 221.475 1307.92 221.125 1306.06 220.425L1308.62 213.542C1312.12 214.825 1316.09 214.009 1318.77 211.326C1321.34 208.759 1322.27 204.793 1320.99 201.177C1318.77 194.994 1320.29 187.995 1324.84 183.329C1329.5 178.663 1336.5 177.146 1342.69 179.479L1340.12 186.362C1336.62 185.079 1332.65 185.895 1329.97 188.578C1327.4 191.145 1326.47 195.111 1327.75 198.727C1329.97 204.91 1328.45 211.909 1323.79 216.575C1320.64 219.725 1316.32 221.475 1311.89 221.475Z" fill="#03498A"/>
<path d="M622.466 170.963C620.482 170.963 618.499 170.613 616.633 169.913L619.199 163.03C622.699 164.313 626.665 163.497 629.348 160.814C631.914 158.247 632.848 154.281 631.565 150.665C629.348 144.482 630.865 137.483 635.531 132.817C640.197 128.151 647.196 126.634 653.379 128.85L650.812 135.733C647.313 134.45 643.347 135.266 640.664 137.949C638.097 140.516 637.164 144.482 638.447 148.098C640.664 154.281 639.147 161.28 634.481 165.946C631.215 169.213 626.898 170.963 622.466 170.963Z" fill="#03498A"/>
<path d="M1156.83 368.115C1154.85 368.115 1152.87 367.765 1151 367.065L1153.57 360.182C1157.07 361.466 1161.03 360.649 1163.72 357.966C1166.28 355.4 1167.21 351.433 1165.93 347.817C1163.72 341.634 1165.23 334.635 1169.9 329.969C1174.56 325.303 1181.56 323.786 1187.75 326.003L1185.18 332.885C1181.68 331.602 1177.71 332.419 1175.03 335.102C1172.46 337.668 1171.53 341.634 1172.81 345.251C1175.03 351.433 1173.51 358.433 1168.85 363.099C1165.58 366.365 1161.15 368.115 1156.83 368.115Z" fill="#03498A"/>
<path d="M1111.01 225.787C1109.03 225.787 1107.04 225.437 1105.18 224.737L1107.74 217.854C1111.24 219.138 1115.21 218.321 1117.89 215.638C1120.46 213.072 1121.39 209.105 1120.11 205.489C1117.89 199.306 1119.41 192.307 1124.08 187.641C1128.74 182.975 1135.74 181.458 1141.92 183.675C1145.42 184.958 1149.39 184.142 1152.07 181.458C1154.64 178.892 1155.57 174.926 1154.29 171.31C1152.07 165.127 1153.59 158.128 1158.26 153.462C1162.92 148.795 1169.92 147.279 1176.1 149.495C1179.6 150.779 1183.57 149.962 1186.25 147.279C1188.82 144.713 1189.75 140.746 1188.47 137.13C1186.25 130.947 1187.77 123.948 1192.43 119.282C1197.1 114.616 1204.1 113.099 1210.28 115.432C1213.78 116.716 1217.75 115.899 1220.43 113.216C1223 110.65 1223.93 106.683 1222.65 103.067C1220.43 96.8844 1221.95 89.8852 1226.61 85.2191C1231.28 80.5529 1238.28 79.0364 1244.46 81.2528L1241.9 88.1354C1238.4 86.8522 1234.43 87.6688 1231.75 90.3518C1229.18 93.0349 1228.25 96.8844 1229.53 100.501C1231.75 106.683 1230.23 113.683 1225.56 118.349C1220.9 123.015 1213.9 124.531 1207.72 122.315C1204.22 121.032 1200.25 121.848 1197.57 124.531C1195 127.098 1194.07 131.064 1195.35 134.68C1197.57 140.863 1196.05 147.862 1191.38 152.528C1186.72 157.194 1179.72 158.711 1173.54 156.495C1170.04 155.211 1166.07 156.028 1163.39 158.711C1160.82 161.277 1159.89 165.244 1161.17 168.86C1163.39 175.043 1161.87 182.042 1157.21 186.708C1152.54 191.374 1145.54 192.891 1139.36 190.674C1135.86 189.391 1131.89 190.207 1129.21 192.891C1126.64 195.457 1125.71 199.423 1126.99 203.039C1129.21 209.222 1127.69 216.221 1123.03 220.887C1119.76 224.037 1115.44 225.787 1111.01 225.787Z" fill="#03498A"/>
<path d="M778.833 259.223C776.85 259.223 774.866 258.873 773 258.173L775.566 251.291C779.066 252.574 783.032 251.757 785.715 249.074C788.282 246.508 789.215 242.542 787.932 238.926C785.715 232.743 787.232 225.744 791.898 221.078C796.564 216.411 803.563 214.895 809.746 217.111C813.246 218.394 817.212 217.578 819.895 214.895C822.461 212.328 823.394 208.362 822.111 204.746C819.895 198.563 821.411 191.564 826.078 186.898C830.744 182.232 837.743 180.715 843.926 182.932C847.425 184.215 851.391 183.398 854.074 180.715C856.641 178.149 857.574 174.183 856.291 170.566L863.173 168C865.39 174.183 863.873 181.182 859.207 185.848C854.541 190.514 847.542 192.031 841.359 189.814C837.86 188.531 833.893 189.348 831.21 192.031C828.644 194.597 827.711 198.563 828.994 202.18C831.21 208.362 829.694 215.361 825.028 220.028C820.361 224.694 813.362 226.21 807.18 223.994C803.68 222.711 799.714 223.527 797.031 226.21C794.464 228.777 793.531 232.743 794.814 236.359C797.031 242.542 795.514 249.541 790.848 254.207C787.582 257.473 783.266 259.223 778.833 259.223Z" fill="#03498A"/>
<path d="M1065.52 122.782C1063.53 122.782 1061.55 122.432 1059.68 121.732L1062.25 114.849C1065.75 116.133 1069.72 115.316 1072.4 112.633C1074.97 109.95 1075.9 106.1 1074.62 102.484C1072.4 96.3015 1073.92 89.3022 1078.58 84.6361C1083.25 79.9699 1090.25 78.4534 1096.43 80.6699C1099.93 81.953 1103.9 81.1365 1106.58 78.4534C1109.14 75.8871 1110.08 71.9208 1108.79 68.3045C1106.58 62.1219 1108.09 55.1227 1112.76 50.4565C1117.43 45.7904 1124.43 44.2739 1130.61 46.4903C1134.11 47.7735 1138.07 46.9569 1140.76 44.2739C1143.32 41.7075 1144.26 37.7412 1142.97 34.125L1149.86 31.5586C1152.07 37.7412 1150.56 44.7405 1145.89 49.4066C1141.22 54.0728 1134.23 55.5893 1128.04 53.3729C1124.54 52.0897 1120.58 52.9062 1117.89 55.5893C1115.33 58.1557 1114.39 62.1219 1115.68 65.7382C1117.89 71.9208 1116.38 78.92 1111.71 83.5862C1107.05 88.2524 1100.05 89.7689 1093.86 87.4358C1090.36 86.1526 1086.4 86.9692 1083.71 89.6522C1081.15 92.2186 1080.21 96.1848 1081.5 99.8011C1083.71 105.984 1082.2 112.983 1077.53 117.649C1074.38 121.032 1069.95 122.782 1065.52 122.782Z" fill="#03498A"/>
<path d="M537.308 588.231C535.091 582.048 536.608 575.049 541.274 570.383C545.94 565.717 552.939 564.2 559.122 566.417C562.621 567.7 566.588 566.883 569.271 564.2C571.837 561.634 572.77 557.668 571.487 554.051C569.271 547.869 570.787 540.87 575.453 536.203C580.119 531.537 587.119 530.021 593.301 532.237L590.735 539.12C587.235 537.837 583.269 538.653 580.586 541.336C578.02 543.903 577.086 547.869 578.37 551.485C580.586 557.668 579.07 564.667 574.403 569.333C569.737 573.999 562.738 575.516 556.555 573.183C553.056 571.9 549.09 572.716 546.406 575.399C543.84 578.082 542.907 581.932 544.19 585.548L537.308 588.231Z" fill="#03498A"/>
<path d="M1293.22 329.379C1291.01 323.197 1292.52 316.198 1297.19 311.531C1301.86 306.865 1308.86 305.349 1315.04 307.565C1318.54 308.848 1322.5 308.032 1325.19 305.349C1327.75 302.782 1328.69 298.816 1327.4 295.2C1325.19 289.017 1326.7 282.018 1331.37 277.352C1336.04 272.686 1343.03 271.169 1349.22 273.386L1346.65 280.268C1343.15 278.985 1339.19 279.802 1336.5 282.485C1333.94 285.051 1333 289.017 1334.29 292.634C1336.5 298.816 1334.99 305.815 1330.32 310.482C1325.65 315.148 1318.65 316.664 1312.47 314.448C1308.97 313.165 1305.01 313.981 1302.32 316.664C1299.76 319.231 1298.82 323.197 1300.11 326.813L1293.22 329.379Z" fill="#03498A"/>
<path d="M100.556 299.165C98.3391 292.983 99.8556 285.983 104.522 281.317C109.188 276.651 116.187 275.134 122.37 277.468C125.869 278.751 129.836 277.934 132.519 275.251C135.085 272.685 136.018 268.719 134.735 265.102C132.519 258.92 134.035 251.92 138.701 247.254C143.368 242.588 150.367 241.072 156.549 243.288L153.983 250.171C150.483 248.887 146.517 249.704 143.834 252.387C141.268 254.953 140.335 258.92 141.618 262.536C143.834 268.719 142.318 275.718 137.651 280.384C132.985 285.05 125.986 286.567 119.803 284.35C116.304 283.067 112.338 283.883 109.655 286.567C107.088 289.133 106.155 293.099 107.438 296.715L100.556 299.165Z" fill="#03498A"/>
<path d="M929.255 202.256L894.684 236.812L899.879 242.011L934.451 207.454L929.255 202.256Z" fill="#03498A"/>
<path d="M1265.92 272.451L1231.37 307.027L1236.56 312.222L1271.12 277.646L1265.92 272.451Z" fill="#03498A"/>
<path d="M641.134 332.458L564.795 408.883L569.994 414.077L646.333 337.651L641.134 332.458Z" fill="#03498A"/>
<path d="M300.784 262.705L266.213 297.262L271.409 302.46L305.98 267.903L300.784 262.705Z" fill="#03498A"/>
<path d="M883.306 15.0302L848.754 49.6016L853.952 54.7967L888.504 20.2254L883.306 15.0302Z" fill="#03498A"/>
<path d="M732.18 76.371L697.623 110.938L702.82 116.133L737.377 81.5669L732.18 76.371Z" fill="#03498A"/>
<path d="M440.315 -0.00202851L405.748 34.5547L410.944 39.752L445.51 5.19532L440.315 -0.00202851Z" fill="#03498A"/>
<path d="M1357.26 1.30654L1322.69 35.8633L1327.89 41.0614L1362.46 6.50463L1357.26 1.30654Z" fill="#03498A"/>
<path d="M298.959 370.233L210.414 458.703L215.608 463.902L304.153 375.432L298.959 370.233Z" fill="#03498A"/>
<path d="M1473.53 281.001L1385 369.496L1390.2 374.694L1478.73 286.199L1473.53 281.001Z" fill="#03498A"/>
<path d="M113.58 152.247L25.0605 240.742L30.2564 245.94L118.776 157.445L113.58 152.247Z" fill="#03498A"/>
<path d="M832.156 111.987L696.486 247.695L701.684 252.891L837.354 117.183L832.156 111.987Z" fill="#03498A"/>
<path d="M1560.34 330.545L1424.65 466.234L1429.85 471.431L1565.53 335.742L1560.34 330.545Z" fill="#03498A"/>
<path d="M176.361 24.4669L40.6719 160.156L45.8685 165.353L181.558 29.6635L176.361 24.4669Z" fill="#03498A"/>
<path d="M1218.62 401.999L1184.05 436.551L1189.24 441.749L1223.82 407.197L1218.62 401.999Z" fill="#03498A"/>
<path d="M1183 442.857V417.543H1190.35V435.508H1208.31V442.857H1183Z" fill="#03498A"/>
<path d="M649.793 433.582L615.236 468.148L620.434 473.344L654.99 438.778L649.793 433.582Z" fill="#03498A"/>
<path d="M614.182 474.376V449.062H621.531V467.027H639.496V474.376H614.182Z" fill="#03498A"/>
<path d="M1720.59 406.001L1686.03 440.562L1691.23 445.759L1725.79 411.197L1720.59 406.001Z" fill="#03498A"/>
<path d="M1685 446.896V421.582H1692.35V439.43H1710.31V446.896H1685Z" fill="#03498A"/>
<path d="M273.664 90.3476L239.107 124.914L244.305 130.11L278.861 95.5434L273.664 90.3476Z" fill="#03498A"/>
<path d="M237.975 131.298V105.984H245.44V123.949L263.288 123.832V131.298H237.975Z" fill="#03498A"/>
<path d="M983.043 319.464C972.894 319.464 964.611 311.182 964.611 301.033C964.611 290.884 972.894 282.602 983.043 282.602C993.192 282.602 1001.47 290.884 1001.47 301.033C1001.47 311.182 993.192 319.464 983.043 319.464ZM983.043 289.951C976.977 289.951 971.961 294.85 971.961 301.033C971.961 307.099 976.977 312.115 983.043 312.115C989.109 312.115 994.125 307.216 994.125 301.033C994.008 294.967 989.109 289.951 983.043 289.951Z" fill="#03498A"/>
<path d="M1166.42 268.019C1156.27 268.019 1147.99 259.736 1147.99 249.588C1147.99 239.439 1156.27 231.156 1166.42 231.156C1176.57 231.156 1184.85 239.439 1184.85 249.588C1184.85 259.736 1176.57 268.019 1166.42 268.019ZM1166.42 238.505C1160.36 238.505 1155.34 243.522 1155.34 249.588C1155.34 255.654 1160.24 260.67 1166.42 260.67C1172.49 260.67 1177.5 255.77 1177.5 249.588C1177.5 243.405 1172.49 238.505 1166.42 238.505Z" fill="#03498A"/>
<path d="M370.025 179.011C359.876 179.011 351.594 170.729 351.594 160.58C351.594 150.431 359.876 142.148 370.025 142.148C380.174 142.148 388.456 150.431 388.456 160.58C388.456 170.729 380.174 179.011 370.025 179.011ZM370.025 149.498C363.959 149.498 358.943 154.397 358.943 160.58C358.943 166.646 363.959 171.662 370.025 171.662C376.091 171.662 381.107 166.762 381.107 160.58C381.107 154.514 376.091 149.498 370.025 149.498Z" fill="#03498A"/>
<path d="M65.443 64.4564C55.2941 64.4564 47.0117 56.1739 47.0117 46.0251C47.0117 35.8762 55.2941 27.5938 65.443 27.5938C75.5919 27.5938 83.8743 35.8762 83.8743 46.0251C83.8743 56.1739 75.5919 64.4564 65.443 64.4564ZM65.443 34.9429C59.377 34.9429 54.3609 39.8424 54.3609 46.0251C54.3609 52.0911 59.2604 57.1072 65.443 57.1072C71.509 57.1072 76.5251 52.2077 76.5251 46.0251C76.5251 39.8424 71.509 34.9429 65.443 34.9429Z" fill="#03498A"/>
<path d="M191.894 360.64C181.745 360.64 173.463 352.358 173.463 342.209C173.463 332.06 181.745 323.777 191.894 323.777C202.043 323.777 210.326 332.06 210.326 342.209C210.326 352.358 202.043 360.64 191.894 360.64ZM191.894 331.127C185.828 331.127 180.812 336.026 180.812 342.209C180.812 348.275 185.712 353.291 191.894 353.291C197.96 353.291 202.976 348.391 202.976 342.209C202.976 336.143 197.96 331.127 191.894 331.127Z" fill="#03498A"/>
<path d="M363.611 433.549L379.943 378.372L426.721 331.594L465.567 370.439L418.789 417.218L363.611 433.549ZM386.475 382.338L374.46 422.7L414.822 410.685L455.068 370.439L426.604 341.976L386.475 382.338Z" fill="#03498A"/>
<path d="M369.092 428.066L374.458 410.102L387.056 422.7L369.092 428.066Z" fill="#03498A"/>
<path d="M385.319 377.178L380.123 382.375L414.69 416.932L419.885 411.734L385.319 377.178Z" fill="#03498A"/>
<path d="M432.187 342.298L388.705 385.762L393.901 390.96L437.383 347.496L432.187 342.298Z" fill="#03498A"/>
<path d="M449.606 359.859L406.154 403.348L411.353 408.542L454.805 365.054L449.606 359.859Z" fill="#03498A"/>
<path d="M0 425.853L31.9632 347.578L42.462 369.042L59.0268 352.478L73.2586 366.709L56.6938 383.274L78.1581 393.773L0 425.853ZM32.5464 365.659L13.4152 412.321L60.0767 393.19L44.0951 385.374L62.7598 366.709L58.9102 362.86L40.2456 381.524L32.5464 365.659Z" fill="#03498A"/>
<path d="M487.729 219.254C485.046 219.254 482.48 218.204 480.497 216.221C476.53 212.255 476.53 205.722 480.497 201.756L489.479 192.774C488.662 192.307 487.846 191.724 487.146 191.024C485.163 189.041 484.113 186.475 484.113 183.791C484.113 182.392 484.346 181.108 484.93 179.825C483.763 179.359 482.713 178.659 481.897 177.725C478.397 174.226 477.93 168.86 480.613 164.894C479.68 164.427 478.864 163.844 478.047 163.027C474.081 159.061 474.081 152.528 478.047 148.562C478.28 148.329 485.979 140.396 497.411 131.064C504.061 125.698 521.792 113.099 522.492 112.633L525.058 110.883L555.155 140.98L557.255 142.146L541.973 199.073C541.273 201.756 539.407 203.973 536.84 205.372C534.391 206.656 531.474 206.889 528.675 206.189C522.959 204.673 519.342 199.073 520.626 193.707L520.976 190.441L494.962 216.455C492.979 218.321 490.412 219.254 487.729 219.254ZM501.611 191.024L485.629 207.006C484.463 208.172 484.463 209.922 485.629 211.088C486.796 212.255 488.546 212.255 489.712 211.088L530.191 170.61L527.741 195.224C527.392 196.74 528.558 198.49 530.541 198.956C531.591 199.19 532.524 199.19 533.458 198.723C533.924 198.49 534.624 198.023 534.857 197.09L548.856 145.062L524.242 120.448C518.992 124.181 507.094 132.814 502.078 136.78C490.996 145.762 483.413 153.578 483.296 153.695C482.13 154.861 482.13 156.728 483.296 157.894C483.88 158.478 484.58 158.711 485.396 158.711C486.213 158.711 486.913 158.361 487.496 157.894L487.963 157.428L493.212 162.677L487.379 168.51C486.213 169.676 486.213 171.426 487.379 172.593C488.546 173.759 490.296 173.759 491.462 172.593L496.712 177.842L492.745 181.808C492.162 182.392 491.929 183.092 491.929 183.908C491.929 184.725 492.279 185.425 492.745 186.008C493.912 187.174 495.662 187.174 496.828 186.008L501.611 191.024Z" fill="#03498A"/>
<path d="M507.427 174.842L488.367 193.891L493.562 199.089L512.622 180.04L507.427 174.842Z" fill="#03498A"/>
<path d="M498.098 165.499L487.213 176.391L492.411 181.586L503.296 170.695L498.098 165.499Z" fill="#03498A"/>
<path d="M492.113 152.931L482.633 162.422L487.832 167.616L497.313 158.124L492.113 152.931Z" fill="#03498A"/>
<path d="M823.344 418.734C812.262 418.734 796.98 410.218 783.332 396.686C774.583 387.937 767.7 378.138 764.084 369.156C760.001 359.24 760.351 351.074 765.017 346.408C767.467 343.958 771.083 342.559 775.283 342.559C786.248 342.559 801.646 351.074 815.295 364.606C824.044 373.355 830.927 383.154 834.543 392.136C838.626 402.052 838.276 410.218 833.61 414.884C831.043 417.45 827.544 418.734 823.344 418.734ZM775.283 350.024C772.95 350.024 771.316 350.608 770.267 351.658C767.933 353.991 768.167 359.59 770.85 366.356C774.116 374.405 780.415 383.271 788.581 391.437C802.346 405.202 815.995 411.384 823.344 411.384C825.56 411.384 827.31 410.801 828.36 409.751C830.693 407.418 830.46 401.819 827.777 395.053C824.511 387.004 818.211 378.138 810.046 369.972C796.28 356.207 782.632 350.024 775.283 350.024Z" fill="#03498A"/>
<path d="M805.613 392.136C801.763 392.136 798.264 390.62 795.581 387.937L792.198 384.554C786.598 378.954 786.598 369.972 792.198 364.373L798.73 357.84C799.43 357.14 800.363 356.44 801.297 355.857L803.513 354.457L805.496 356.09C808.879 358.773 812.262 361.69 815.412 364.839C818.561 367.989 821.478 371.255 824.161 374.755L825.794 376.738L824.394 378.954C823.811 379.888 823.111 380.704 822.411 381.521L815.878 388.053C812.962 390.62 809.462 392.136 805.613 392.136ZM803.163 363.673L797.33 369.505C794.647 372.188 794.647 376.621 797.33 379.304L800.713 382.687C803.28 385.254 807.829 385.254 810.512 382.687L816.345 376.855C814.362 374.522 812.262 372.188 810.046 369.972C807.829 367.756 805.496 365.656 803.163 363.673Z" fill="#03498A"/>
<path d="M829.992 403.686C825.676 370.323 846.09 350.842 847.724 349.326L853.906 343.143L864.055 368.573C864.755 370.44 866.855 371.257 868.721 370.557C870.588 369.857 871.404 367.757 870.704 365.89L859.389 337.544L864.755 332.177C866.272 330.661 867.205 328.561 867.205 326.345C867.205 324.128 866.388 322.145 864.755 320.512L859.272 315.029C856.123 311.88 850.873 311.88 847.724 315.029L830.576 332.177C829.059 333.927 809.461 354.225 776.215 349.909L777.148 342.56C807.361 346.409 824.976 327.278 825.209 327.045L825.326 326.928L842.474 309.78C848.54 303.714 858.456 303.714 864.522 309.78L870.004 315.263C872.921 318.179 874.554 322.145 874.554 326.228C874.554 330.428 872.921 334.277 870.004 337.194L868.021 339.177L877.47 362.974C879.687 368.574 877.004 374.989 871.288 377.206C865.688 379.422 859.272 376.739 857.056 371.023L851.107 355.975C846.557 360.874 833.842 377.206 837.225 402.52L829.992 403.686Z" fill="#03498A"/>
<path d="M2028.03 46.025C2026.04 46.025 2024.06 45.675 2022.19 44.9751L2024.76 38.0926C2028.26 39.3757 2032.23 38.5592 2034.91 35.8761C2037.48 33.3097 2038.41 29.3435 2037.13 25.7272C2034.91 19.5446 2036.43 12.5454 2040.97 7.87921C2045.64 3.21305 2052.64 1.69655 2058.82 3.91298L2056.26 10.7956C2052.76 9.51236 2048.79 10.3289 2046.11 13.012C2043.54 15.5784 2042.61 19.5446 2043.89 23.1609C2046.11 29.3435 2044.59 36.3427 2039.92 41.0089C2036.78 44.2752 2032.46 46.025 2028.03 46.025Z" fill="#03498A"/>
<path d="M2721.77 137.6C2719.78 137.6 2717.8 137.25 2715.93 136.55L2718.5 129.667C2722 130.95 2725.97 130.134 2728.65 127.451C2731.22 124.884 2732.15 120.918 2730.87 117.302C2728.65 111.119 2730.17 104.12 2734.72 99.4538C2739.38 94.7877 2746.38 93.2712 2752.56 95.6043L2750 102.487C2746.5 101.204 2742.53 102.02 2739.85 104.703C2737.28 107.27 2736.35 111.236 2737.63 114.852C2739.85 121.035 2738.33 128.034 2733.67 132.7C2730.63 135.85 2726.2 137.6 2721.77 137.6Z" fill="#03498A"/>
<path d="M2036.08 170.963C2034.09 170.963 2032.11 170.613 2030.24 169.913L2032.81 163.03C2036.31 164.313 2040.28 163.497 2042.96 160.814C2045.53 158.247 2046.46 154.281 2045.18 150.665C2042.96 144.482 2044.48 137.483 2049.14 132.817C2053.81 128.151 2060.81 126.634 2066.99 128.85L2064.42 135.733C2060.92 134.45 2056.96 135.266 2054.27 137.949C2051.71 140.516 2050.78 144.482 2052.06 148.098C2054.27 154.281 2052.76 161.28 2048.09 165.946C2044.83 169.213 2040.51 170.963 2036.08 170.963Z" fill="#03498A"/>
<path d="M1913.83 476.115C1911.85 476.115 1909.87 475.765 1908 475.065L1910.57 468.182C1914.07 469.466 1918.03 468.649 1920.72 465.966C1923.28 463.4 1924.21 459.433 1922.93 455.817C1920.72 449.634 1922.23 442.635 1926.9 437.969C1931.56 433.303 1938.56 431.786 1944.75 434.003L1942.18 440.885C1938.68 439.602 1934.71 440.419 1932.03 443.102C1929.46 445.668 1928.53 449.634 1929.81 453.251C1932.03 459.433 1930.51 466.433 1925.85 471.099C1922.58 474.365 1918.27 476.115 1913.83 476.115Z" fill="#03498A"/>
<path d="M2524.62 225.787C2522.64 225.787 2520.66 225.437 2518.79 224.737L2521.36 217.854C2524.86 219.138 2528.82 218.321 2531.51 215.638C2534.07 213.072 2535.01 209.105 2533.72 205.489C2531.51 199.306 2533.02 192.307 2537.69 187.641C2542.36 182.975 2549.35 181.458 2555.54 183.675C2559.04 184.958 2563 184.142 2565.69 181.458C2568.25 178.892 2569.19 174.926 2567.9 171.31C2565.69 165.127 2567.2 158.128 2571.87 153.462C2576.53 148.795 2583.53 147.279 2589.72 149.495C2593.22 150.779 2597.18 149.962 2599.87 147.279C2602.43 144.713 2603.37 140.746 2602.08 137.13C2599.87 130.947 2601.38 123.948 2606.05 119.282C2610.71 114.616 2617.71 113.099 2623.9 115.432C2627.4 116.716 2631.36 115.899 2634.05 113.216C2636.61 110.65 2637.54 106.683 2636.26 103.067C2634.04 96.8844 2635.56 89.8852 2640.23 85.2191C2644.89 80.5529 2651.89 79.0364 2658.08 81.2528L2655.51 88.1354C2652.01 86.8522 2648.04 87.6688 2645.36 90.3518C2642.79 93.0349 2641.86 96.8844 2643.14 100.501C2645.36 106.683 2643.84 113.683 2639.18 118.349C2634.51 123.015 2627.51 124.531 2621.33 122.315C2617.83 121.032 2613.86 121.848 2611.18 124.531C2608.61 127.098 2607.68 131.064 2608.96 134.68C2611.18 140.863 2609.66 147.862 2605 152.528C2600.33 157.194 2593.33 158.711 2587.15 156.495C2583.65 155.211 2579.68 156.028 2577 158.711C2574.44 161.277 2573.5 165.244 2574.78 168.86C2577 175.043 2575.48 182.042 2570.82 186.708C2566.15 191.374 2559.15 192.891 2552.97 190.674C2549.47 189.391 2545.5 190.207 2542.82 192.891C2540.26 195.457 2539.32 199.423 2540.61 203.039C2542.82 209.222 2541.31 216.221 2536.64 220.887C2533.37 224.037 2529.06 225.787 2524.62 225.787Z" fill="#03498A"/>
<path d="M2478.83 128.223C2476.85 128.223 2474.87 127.873 2473 127.173L2475.57 120.291C2479.07 121.574 2483.03 120.757 2485.72 118.074C2488.28 115.391 2489.21 111.542 2487.93 107.926C2485.72 101.743 2487.23 94.7436 2491.9 90.0775C2496.56 85.4113 2503.56 83.8948 2509.75 86.1113C2513.25 87.3945 2517.21 86.5779 2519.89 83.8948C2522.46 81.3285 2523.39 77.3622 2522.11 73.746C2519.89 67.5633 2521.41 60.5641 2526.08 55.8979C2530.74 51.2318 2537.74 49.7153 2543.93 51.9317C2547.43 53.2149 2551.39 52.3983 2554.07 49.7153C2556.64 47.1489 2557.57 43.1827 2556.29 39.5664L2563.17 37C2565.39 43.1827 2563.87 50.1819 2559.21 54.848C2554.54 59.5142 2547.54 61.0307 2541.36 58.8143C2537.86 57.5311 2533.89 58.3477 2531.21 61.0307C2528.64 63.5971 2527.71 67.5633 2528.99 71.1796C2531.21 77.3622 2529.69 84.3615 2525.03 89.0276C2520.36 93.6938 2513.36 95.2103 2507.18 92.8772C2503.68 91.594 2499.71 92.4106 2497.03 95.0936C2494.46 97.66 2493.53 101.626 2494.81 105.242C2497.03 111.425 2495.51 118.424 2490.85 123.091C2487.7 126.473 2483.27 128.223 2478.83 128.223Z" fill="#03498A"/>
<path d="M2547 474.997C2544.79 468.814 2546.3 461.815 2550.97 457.149C2555.64 452.482 2562.63 450.966 2568.82 453.182C2572.32 454.466 2576.28 453.649 2578.97 450.966C2581.53 448.4 2582.47 444.433 2581.18 440.817C2578.97 434.634 2580.48 427.635 2585.15 422.969C2589.81 418.303 2596.81 416.786 2603 419.003L2600.43 425.885C2596.93 424.602 2592.96 425.419 2590.28 428.102C2587.71 430.668 2586.78 434.634 2588.06 438.251C2590.28 444.433 2588.76 451.433 2584.1 456.099C2579.43 460.765 2572.43 462.281 2566.25 460.065C2562.75 458.782 2558.78 459.598 2556.1 462.281C2553.54 464.848 2552.6 468.814 2553.89 472.43L2547 474.997Z" fill="#03498A"/>
<path d="M1514.28 299.165C1512.07 292.983 1513.58 285.983 1518.25 281.317C1522.92 276.651 1529.92 275.134 1536.1 277.468C1539.6 278.751 1543.56 277.934 1546.25 275.251C1548.81 272.685 1549.75 268.719 1548.46 265.102C1546.25 258.92 1547.76 251.92 1552.43 247.254C1557.1 242.588 1564.1 241.072 1570.28 243.288L1567.71 250.171C1564.21 248.887 1560.25 249.704 1557.56 252.387C1555 254.953 1554.06 258.92 1555.35 262.536C1557.56 268.719 1556.05 275.718 1551.38 280.384C1546.71 285.05 1539.71 286.567 1533.53 284.35C1530.03 283.067 1526.07 283.883 1523.38 286.567C1520.82 289.133 1519.88 293.099 1521.17 296.715L1514.28 299.165Z" fill="#03498A"/>
<path d="M2206.62 272.472L2172.05 307.023L2177.25 312.222L2211.82 277.67L2206.62 272.472Z" fill="#03498A"/>
<path d="M2175.24 605.722L2140.69 640.293L2145.88 645.488L2180.44 610.917L2175.24 605.722Z" fill="#03498A"/>
<path d="M2070.34 254.001L1994 330.426L1999.2 335.619L2075.54 259.194L2070.34 254.001Z" fill="#03498A"/>
<path d="M1714.33 262.679L1679.76 297.23L1684.95 302.429L1719.53 267.877L1714.33 262.679Z" fill="#03498A"/>
<path d="M2297.01 14.9843L2262.46 49.5508L2267.65 54.7467L2302.21 20.1801L2297.01 14.9843Z" fill="#03498A"/>
<path d="M2145.77 76.371L2111.21 110.938L2116.41 116.133L2150.96 81.5669L2145.77 76.371Z" fill="#03498A"/>
<path d="M1853.97 0.0643562L1819.4 34.6211L1824.6 39.8184L1859.16 5.26171L1853.97 0.0643562Z" fill="#03498A"/>
<path d="M2145.87 507.744L2111.3 542.301L2116.49 547.499L2151.07 512.942L2145.87 507.744Z" fill="#03498A"/>
<path d="M1527.23 152.31L1438.71 240.805L1443.91 246.002L1532.43 157.507L1527.23 152.31Z" fill="#03498A"/>
<path d="M2245.8 112.053L2110.11 247.742L2115.31 252.939L2251 117.249L2245.8 112.053Z" fill="#03498A"/>
<path d="M1589.98 24.4982L1454.29 160.188L1459.49 165.384L1595.18 29.6948L1589.98 24.4982Z" fill="#03498A"/>
<path d="M2090.56 401L2056 435.566L2061.2 440.762L2095.75 406.196L2090.56 401Z" fill="#03498A"/>
<path d="M2027.79 474.376V449.062H2035.14V467.027H2053.11V474.376H2027.79Z" fill="#03498A"/>
<path d="M1687.25 90.3476L1652.69 124.914L1657.89 130.11L1692.45 95.5434L1687.25 90.3476Z" fill="#03498A"/>
<path d="M1651.7 131.298V105.984H1659.05V123.949L1677.01 123.832V131.298H1651.7Z" fill="#03498A"/>
<path d="M2561.72 281.081C2551.57 281.081 2543.29 272.799 2543.29 262.65C2543.29 252.501 2551.57 244.219 2561.72 244.219C2571.87 244.219 2580.15 252.501 2580.15 262.65C2580.15 272.799 2571.87 281.081 2561.72 281.081ZM2561.72 251.685C2555.65 251.685 2550.64 256.701 2550.64 262.767C2550.64 268.833 2555.54 273.849 2561.72 273.849C2567.78 273.849 2572.8 268.949 2572.8 262.767C2572.68 256.584 2567.78 251.685 2561.72 251.685Z" fill="#03498A"/>
<path d="M1783.64 179.011C1773.49 179.011 1765.21 170.729 1765.21 160.58C1765.21 150.431 1773.49 142.148 1783.64 142.148C1793.79 142.148 1802.07 150.431 1802.07 160.58C1802.07 170.729 1793.79 179.011 1783.64 179.011ZM1783.64 149.498C1777.57 149.498 1772.55 154.397 1772.55 160.58C1772.55 166.646 1777.57 171.662 1783.64 171.662C1789.7 171.662 1794.72 166.762 1794.72 160.58C1794.72 154.514 1789.82 149.498 1783.64 149.498Z" fill="#03498A"/>
<path d="M1479.05 64.4564C1468.91 64.4564 1460.62 56.1739 1460.62 46.0251C1460.62 35.8762 1468.91 27.5938 1479.05 27.5938C1489.2 27.5938 1497.49 35.8762 1497.49 46.0251C1497.49 56.1739 1489.2 64.4564 1479.05 64.4564ZM1479.05 34.9429C1472.99 34.9429 1467.97 39.8424 1467.97 46.0251C1467.97 52.0911 1472.87 57.1072 1479.05 57.1072C1485.12 57.1072 1490.14 52.2077 1490.14 46.0251C1490.14 39.8424 1485.12 34.9429 1479.05 34.9429Z" fill="#03498A"/>
<path d="M1671.43 368.863C1661.28 368.863 1653 360.58 1653 350.431C1653 340.282 1661.28 332 1671.43 332C1681.58 332 1689.86 340.282 1689.86 350.431C1689.86 360.58 1681.58 368.863 1671.43 368.863ZM1671.43 339.349C1665.37 339.349 1660.35 344.249 1660.35 350.431C1660.35 356.497 1665.25 361.513 1671.43 361.513C1677.5 361.513 1682.51 356.614 1682.51 350.431C1682.51 344.365 1677.5 339.349 1671.43 339.349Z" fill="#03498A"/>
<path d="M1884.2 324.002L1879 329.199L1913.57 363.756L1918.76 358.559L1884.2 324.002Z" fill="#03498A"/>
<path d="M1863 379.955L1879.33 324.778L1926.11 278L1964.96 316.846L1918.18 363.624L1863 379.955ZM1885.86 328.744L1873.85 369.107L1914.21 357.091L1954.46 316.846L1925.99 288.382L1885.86 328.744Z" fill="#03498A"/>
<path d="M1868.6 374.472L1873.85 356.508L1886.45 369.106L1868.6 374.472Z" fill="#03498A"/>
<path d="M1931.65 288.661L1888.17 332.125L1893.36 337.323L1936.84 293.859L1931.65 288.661Z" fill="#03498A"/>
<path d="M1949.02 306.316L1905.57 349.805L1910.77 354.999L1954.22 311.511L1949.02 306.316Z" fill="#03498A"/>
<path d="M1901.34 219.254C1898.66 219.254 1896.09 218.204 1894.11 216.221C1890.14 212.255 1890.14 205.722 1894.11 201.756L1903.09 192.774C1902.27 192.307 1901.46 191.724 1900.76 191.024C1898.77 189.041 1897.72 186.475 1897.72 183.791C1897.72 182.392 1897.96 181.108 1898.54 179.825C1897.37 179.359 1896.32 178.659 1895.51 177.725C1892.01 174.226 1891.54 168.86 1894.22 164.894C1893.29 164.427 1892.47 163.844 1891.66 163.027C1887.69 159.061 1887.69 152.528 1891.66 148.562C1891.89 148.329 1899.59 140.396 1911.02 131.064C1917.67 125.698 1935.4 113.099 1936.1 112.633L1938.67 110.883L1968.77 140.98L1970.87 142.146L1955.58 199.073C1954.88 201.756 1953.02 203.973 1950.45 205.372C1948 206.656 1945.09 206.889 1942.29 206.189C1936.57 204.673 1933.07 199.073 1934.24 193.707L1934.59 190.441L1908.57 216.455C1906.59 218.321 1904.02 219.254 1901.34 219.254ZM1915.22 191.024L1899.24 207.006C1898.07 208.172 1898.07 209.922 1899.24 211.088C1900.41 212.255 1902.16 212.255 1903.32 211.088L1943.8 170.61L1941.35 195.224C1941 196.74 1942.17 198.49 1944.15 198.956C1945.2 199.19 1946.14 199.19 1947.07 198.723C1947.54 198.49 1948.24 198.023 1948.47 197.09L1962.47 145.062L1937.85 120.448C1932.6 124.181 1920.71 132.814 1915.69 136.78C1904.61 145.762 1897.02 153.578 1896.91 153.695C1895.74 154.861 1895.74 156.728 1896.91 157.894C1897.49 158.478 1898.19 158.711 1899.01 158.711C1899.82 158.711 1900.52 158.361 1901.11 157.894L1901.57 157.428L1906.82 162.677L1900.99 168.51C1899.82 169.676 1899.82 171.426 1900.99 172.593C1902.16 173.759 1903.91 173.759 1905.07 172.593L1910.32 177.842L1906.36 181.808C1905.77 182.392 1905.54 183.092 1905.54 183.908C1905.54 184.725 1905.89 185.425 1906.36 186.008C1907.52 187.174 1909.27 187.174 1910.44 186.008L1915.22 191.024Z" fill="#03498A"/>
<path d="M1920.99 174.811L1901.93 193.859L1907.12 199.057L1926.18 180.009L1920.99 174.811Z" fill="#03498A"/>
<path d="M1911.71 165.524L1900.82 176.414L1906.02 181.61L1916.91 170.72L1911.71 165.524Z" fill="#03498A"/>
<path d="M1905.73 152.954L1896.25 162.445L1901.45 167.639L1910.93 158.148L1905.73 152.954Z" fill="#03498A"/>
</g>
<g opacity="0.5">
<path d="M614.417 560.025C612.434 560.025 610.45 559.675 608.584 558.975L611.15 552.093C614.65 553.376 618.616 552.559 621.299 549.876C623.866 547.31 624.799 543.344 623.516 539.727C621.299 533.545 622.816 526.545 627.365 521.879C632.031 517.213 639.031 515.697 645.213 517.913L642.647 524.796C639.147 523.512 635.181 524.329 632.498 527.012C629.932 529.578 628.998 533.545 630.282 537.161C632.498 543.344 630.982 550.343 626.315 555.009C623.166 558.275 618.85 560.025 614.417 560.025Z" fill="#03498A"/>
<path d="M1391.21 954.548C1389.23 954.548 1387.25 954.198 1385.38 953.499L1387.95 946.616C1391.45 947.899 1395.41 947.083 1398.1 944.4C1400.66 941.833 1401.6 937.867 1400.31 934.251C1398.1 928.068 1399.61 921.069 1404.28 916.403C1408.95 911.736 1415.94 910.22 1422.13 912.436L1419.56 919.319C1416.06 918.036 1412.09 918.852 1409.41 921.535C1406.85 924.102 1405.91 928.068 1407.2 931.684C1409.41 937.867 1407.9 944.866 1403.23 949.532C1399.96 952.915 1395.65 954.548 1391.21 954.548Z" fill="#03498A"/>
<path d="M1311.89 735.475C1309.91 735.475 1307.92 735.125 1306.06 734.425L1308.62 727.542C1312.12 728.825 1316.09 728.009 1318.77 725.326C1321.34 722.759 1322.27 718.793 1320.99 715.177C1318.77 708.994 1320.29 701.995 1324.84 697.329C1329.5 692.663 1336.5 691.146 1342.69 693.479L1340.12 700.362C1336.62 699.079 1332.65 699.895 1329.97 702.578C1327.4 705.145 1326.47 709.111 1327.75 712.727C1329.97 718.91 1328.45 725.909 1323.79 730.575C1320.64 733.725 1316.32 735.475 1311.89 735.475Z" fill="#03498A"/>
<path d="M622.466 684.963C620.482 684.963 618.499 684.613 616.633 683.913L619.199 677.03C622.699 678.313 626.665 677.497 629.348 674.814C631.914 672.247 632.848 668.281 631.565 664.665C629.348 658.482 630.865 651.483 635.531 646.817C640.197 642.151 647.196 640.634 653.379 642.85L650.812 649.733C647.313 648.45 643.347 649.266 640.664 651.949C638.097 654.516 637.164 658.482 638.447 662.098C640.664 668.281 639.147 675.28 634.481 679.946C631.215 683.213 626.898 684.963 622.466 684.963Z" fill="#03498A"/>
<path d="M1156.83 882.115C1154.85 882.115 1152.87 881.765 1151 881.065L1153.57 874.182C1157.07 875.466 1161.03 874.649 1163.72 871.966C1166.28 869.4 1167.21 865.433 1165.93 861.817C1163.72 855.634 1165.23 848.635 1169.9 843.969C1174.56 839.303 1181.56 837.786 1187.75 840.003L1185.18 846.885C1181.68 845.602 1177.71 846.419 1175.03 849.102C1172.46 851.668 1171.53 855.634 1172.81 859.251C1175.03 865.433 1173.51 872.433 1168.85 877.099C1165.58 880.365 1161.15 882.115 1156.83 882.115Z" fill="#03498A"/>
<path d="M1111.01 739.787C1109.03 739.787 1107.04 739.437 1105.18 738.737L1107.74 731.854C1111.24 733.138 1115.21 732.321 1117.89 729.638C1120.46 727.072 1121.39 723.105 1120.11 719.489C1117.89 713.306 1119.41 706.307 1124.08 701.641C1128.74 696.975 1135.74 695.458 1141.92 697.675C1145.42 698.958 1149.39 698.142 1152.07 695.458C1154.64 692.892 1155.57 688.926 1154.29 685.31C1152.07 679.127 1153.59 672.128 1158.26 667.462C1162.92 662.795 1169.92 661.279 1176.1 663.495C1179.6 664.779 1183.57 663.962 1186.25 661.279C1188.82 658.713 1189.75 654.746 1188.47 651.13C1186.25 644.947 1187.77 637.948 1192.43 633.282C1197.1 628.616 1204.1 627.099 1210.28 629.432C1213.78 630.716 1217.75 629.899 1220.43 627.216C1223 624.65 1223.93 620.683 1222.65 617.067C1220.43 610.884 1221.95 603.885 1226.61 599.219C1231.28 594.553 1238.28 593.036 1244.46 595.253L1241.9 602.135C1238.4 600.852 1234.43 601.669 1231.75 604.352C1229.18 607.035 1228.25 610.884 1229.53 614.501C1231.75 620.683 1230.23 627.683 1225.56 632.349C1220.9 637.015 1213.9 638.531 1207.72 636.315C1204.22 635.032 1200.25 635.848 1197.57 638.531C1195 641.098 1194.07 645.064 1195.35 648.68C1197.57 654.863 1196.05 661.862 1191.38 666.528C1186.72 671.194 1179.72 672.711 1173.54 670.495C1170.04 669.211 1166.07 670.028 1163.39 672.711C1160.82 675.277 1159.89 679.244 1161.17 682.86C1163.39 689.043 1161.87 696.042 1157.21 700.708C1152.54 705.374 1145.54 706.891 1139.36 704.674C1135.86 703.391 1131.89 704.207 1129.21 706.891C1126.64 709.457 1125.71 713.423 1126.99 717.039C1129.21 723.222 1127.69 730.221 1123.03 734.887C1119.76 738.037 1115.44 739.787 1111.01 739.787Z" fill="#03498A"/>
<path d="M778.833 773.223C776.85 773.223 774.866 772.873 773 772.173L775.566 765.291C779.066 766.574 783.032 765.757 785.715 763.074C788.282 760.508 789.215 756.542 787.932 752.926C785.715 746.743 787.232 739.744 791.898 735.078C796.564 730.411 803.563 728.895 809.746 731.111C813.246 732.394 817.212 731.578 819.895 728.895C822.461 726.328 823.394 722.362 822.111 718.746C819.895 712.563 821.411 705.564 826.078 700.898C830.744 696.232 837.743 694.715 843.926 696.932C847.425 698.215 851.391 697.398 854.074 694.715C856.641 692.149 857.574 688.183 856.291 684.566L863.173 682C865.39 688.183 863.873 695.182 859.207 699.848C854.541 704.514 847.542 706.031 841.359 703.814C837.86 702.531 833.893 703.348 831.21 706.031C828.644 708.597 827.711 712.563 828.994 716.18C831.21 722.362 829.694 729.361 825.028 734.028C820.361 738.694 813.362 740.21 807.18 737.994C803.68 736.711 799.714 737.527 797.031 740.21C794.464 742.777 793.531 746.743 794.814 750.359C797.031 756.542 795.514 763.541 790.848 768.207C787.582 771.473 783.266 773.223 778.833 773.223Z" fill="#03498A"/>
<path d="M1065.52 636.782C1063.53 636.782 1061.55 636.432 1059.68 635.732L1062.25 628.849C1065.75 630.133 1069.72 629.316 1072.4 626.633C1074.97 623.95 1075.9 620.1 1074.62 616.484C1072.4 610.301 1073.92 603.302 1078.58 598.636C1083.25 593.97 1090.25 592.453 1096.43 594.67C1099.93 595.953 1103.9 595.136 1106.58 592.453C1109.14 589.887 1110.08 585.921 1108.79 582.305C1106.58 576.122 1108.09 569.123 1112.76 564.457C1117.43 559.79 1124.43 558.274 1130.61 560.49C1134.11 561.773 1138.07 560.957 1140.76 558.274C1143.32 555.707 1144.26 551.741 1142.97 548.125L1149.86 545.559C1152.07 551.741 1150.56 558.74 1145.89 563.407C1141.22 568.073 1134.23 569.589 1128.04 567.373C1124.54 566.09 1120.58 566.906 1117.89 569.589C1115.33 572.156 1114.39 576.122 1115.68 579.738C1117.89 585.921 1116.38 592.92 1111.71 597.586C1107.05 602.252 1100.05 603.769 1093.86 601.436C1090.36 600.153 1086.4 600.969 1083.71 603.652C1081.15 606.219 1080.21 610.185 1081.5 613.801C1083.71 619.984 1082.2 626.983 1077.53 631.649C1074.38 635.032 1069.95 636.782 1065.52 636.782Z" fill="#03498A"/>
<path d="M537.308 1102.23C535.091 1096.05 536.608 1089.05 541.274 1084.38C545.94 1079.72 552.939 1078.2 559.122 1080.42C562.621 1081.7 566.588 1080.88 569.271 1078.2C571.837 1075.63 572.77 1071.67 571.487 1068.05C569.271 1061.87 570.787 1054.87 575.453 1050.2C580.119 1045.54 587.119 1044.02 593.301 1046.24L590.735 1053.12C587.235 1051.84 583.269 1052.65 580.586 1055.34C578.02 1057.9 577.086 1061.87 578.37 1065.49C580.586 1071.67 579.07 1078.67 574.403 1083.33C569.737 1088 562.738 1089.52 556.555 1087.18C553.056 1085.9 549.09 1086.72 546.406 1089.4C543.84 1092.08 542.907 1095.93 544.19 1099.55L537.308 1102.23Z" fill="#03498A"/>
<path d="M1293.22 843.379C1291.01 837.197 1292.52 830.198 1297.19 825.531C1301.86 820.865 1308.86 819.349 1315.04 821.565C1318.54 822.848 1322.5 822.032 1325.19 819.349C1327.75 816.782 1328.69 812.816 1327.4 809.2C1325.19 803.017 1326.7 796.018 1331.37 791.352C1336.04 786.686 1343.03 785.169 1349.22 787.386L1346.65 794.268C1343.15 792.985 1339.19 793.802 1336.5 796.485C1333.94 799.051 1333 803.017 1334.29 806.634C1336.5 812.816 1334.99 819.815 1330.32 824.482C1325.65 829.148 1318.65 830.664 1312.47 828.448C1308.97 827.165 1305.01 827.981 1302.32 830.664C1299.76 833.231 1298.82 837.197 1300.11 840.813L1293.22 843.379Z" fill="#03498A"/>
<path d="M100.556 813.165C98.3391 806.983 99.8556 799.983 104.522 795.317C109.188 790.651 116.187 789.134 122.37 791.468C125.869 792.751 129.836 791.934 132.519 789.251C135.085 786.685 136.018 782.719 134.735 779.102C132.519 772.92 134.035 765.92 138.701 761.254C143.368 756.588 150.367 755.072 156.549 757.288L153.983 764.171C150.483 762.887 146.517 763.704 143.834 766.387C141.268 768.953 140.335 772.92 141.618 776.536C143.834 782.719 142.318 789.718 137.651 794.384C132.985 799.05 125.986 800.567 119.803 798.35C116.304 797.067 112.338 797.883 109.655 800.567C107.088 803.133 106.155 807.099 107.438 810.715L100.556 813.165Z" fill="#03498A"/>
<path d="M929.255 716.256L894.684 750.812L899.879 756.011L934.451 721.454L929.255 716.256Z" fill="#03498A"/>
<path d="M1265.92 786.451L1231.37 821.027L1236.56 826.222L1271.12 791.646L1265.92 786.451Z" fill="#03498A"/>
<path d="M641.134 846.458L564.795 922.883L569.994 928.077L646.333 851.651L641.134 846.458Z" fill="#03498A"/>
<path d="M300.784 776.705L266.213 811.262L271.409 816.46L305.98 781.903L300.784 776.705Z" fill="#03498A"/>
<path d="M883.306 529.03L848.754 563.602L853.952 568.797L888.504 534.225L883.306 529.03Z" fill="#03498A"/>
<path d="M732.18 590.371L697.623 624.938L702.82 630.133L737.377 595.567L732.18 590.371Z" fill="#03498A"/>
<path d="M440.315 513.998L405.748 548.555L410.944 553.752L445.51 519.195L440.315 513.998Z" fill="#03498A"/>
<path d="M1357.26 515.307L1322.69 549.863L1327.89 555.061L1362.46 520.505L1357.26 515.307Z" fill="#03498A"/>
<path d="M298.959 884.233L210.414 972.703L215.608 977.902L304.153 889.432L298.959 884.233Z" fill="#03498A"/>
<path d="M1473.53 795.001L1385 883.496L1390.2 888.694L1478.73 800.199L1473.53 795.001Z" fill="#03498A"/>
<path d="M113.58 666.247L25.0605 754.742L30.2564 759.94L118.776 671.445L113.58 666.247Z" fill="#03498A"/>
<path d="M832.156 625.987L696.486 761.695L701.684 766.891L837.354 631.183L832.156 625.987Z" fill="#03498A"/>
<path d="M1560.34 844.545L1424.65 980.234L1429.85 985.431L1565.53 849.742L1560.34 844.545Z" fill="#03498A"/>
<path d="M176.361 538.467L40.6719 674.156L45.8685 679.353L181.558 543.664L176.361 538.467Z" fill="#03498A"/>
<path d="M1218.62 915.999L1184.05 950.551L1189.24 955.749L1223.82 921.197L1218.62 915.999Z" fill="#03498A"/>
<path d="M1183 956.857V931.543H1190.35V949.508H1208.31V956.857H1183Z" fill="#03498A"/>
<path d="M649.793 947.582L615.236 982.148L620.434 987.344L654.99 952.778L649.793 947.582Z" fill="#03498A"/>
<path d="M614.182 988.376V963.062H621.531V981.027H639.496V988.376H614.182Z" fill="#03498A"/>
<path d="M1720.59 920.001L1686.03 954.562L1691.23 959.759L1725.79 925.197L1720.59 920.001Z" fill="#03498A"/>
<path d="M1685 960.896V935.582H1692.35V953.43H1710.31V960.896H1685Z" fill="#03498A"/>
<path d="M273.664 604.348L239.107 638.914L244.305 644.11L278.861 609.543L273.664 604.348Z" fill="#03498A"/>
<path d="M237.975 645.298V619.984H245.44V637.949L263.288 637.832V645.298H237.975Z" fill="#03498A"/>
<path d="M983.043 833.464C972.894 833.464 964.611 825.182 964.611 815.033C964.611 804.884 972.894 796.602 983.043 796.602C993.192 796.602 1001.47 804.884 1001.47 815.033C1001.47 825.182 993.192 833.464 983.043 833.464ZM983.043 803.951C976.977 803.951 971.961 808.85 971.961 815.033C971.961 821.099 976.977 826.115 983.043 826.115C989.109 826.115 994.125 821.216 994.125 815.033C994.008 808.967 989.109 803.951 983.043 803.951Z" fill="#03498A"/>
<path d="M1166.42 782.019C1156.27 782.019 1147.99 773.736 1147.99 763.588C1147.99 753.439 1156.27 745.156 1166.42 745.156C1176.57 745.156 1184.85 753.439 1184.85 763.588C1184.85 773.736 1176.57 782.019 1166.42 782.019ZM1166.42 752.505C1160.36 752.505 1155.34 757.522 1155.34 763.588C1155.34 769.654 1160.24 774.67 1166.42 774.67C1172.49 774.67 1177.5 769.77 1177.5 763.588C1177.5 757.405 1172.49 752.505 1166.42 752.505Z" fill="#03498A"/>
<path d="M370.025 693.011C359.876 693.011 351.594 684.729 351.594 674.58C351.594 664.431 359.876 656.148 370.025 656.148C380.174 656.148 388.456 664.431 388.456 674.58C388.456 684.729 380.174 693.011 370.025 693.011ZM370.025 663.498C363.959 663.498 358.943 668.397 358.943 674.58C358.943 680.646 363.959 685.662 370.025 685.662C376.091 685.662 381.107 680.762 381.107 674.58C381.107 668.514 376.091 663.498 370.025 663.498Z" fill="#03498A"/>
<path d="M65.443 578.456C55.2941 578.456 47.0117 570.174 47.0117 560.025C47.0117 549.876 55.2941 541.594 65.443 541.594C75.5919 541.594 83.8743 549.876 83.8743 560.025C83.8743 570.174 75.5919 578.456 65.443 578.456ZM65.443 548.943C59.377 548.943 54.3609 553.842 54.3609 560.025C54.3609 566.091 59.2604 571.107 65.443 571.107C71.509 571.107 76.5251 566.208 76.5251 560.025C76.5251 553.842 71.509 548.943 65.443 548.943Z" fill="#03498A"/>
<path d="M191.894 874.64C181.745 874.64 173.463 866.358 173.463 856.209C173.463 846.06 181.745 837.777 191.894 837.777C202.043 837.777 210.326 846.06 210.326 856.209C210.326 866.358 202.043 874.64 191.894 874.64ZM191.894 845.127C185.828 845.127 180.812 850.026 180.812 856.209C180.812 862.275 185.712 867.291 191.894 867.291C197.96 867.291 202.976 862.391 202.976 856.209C202.976 850.143 197.96 845.127 191.894 845.127Z" fill="#03498A"/>
<path d="M363.611 947.549L379.943 892.372L426.721 845.594L465.567 884.439L418.789 931.218L363.611 947.549ZM386.475 896.338L374.46 936.7L414.822 924.685L455.068 884.439L426.604 855.976L386.475 896.338Z" fill="#03498A"/>
<path d="M369.092 942.066L374.458 924.102L387.056 936.7L369.092 942.066Z" fill="#03498A"/>
<path d="M385.319 891.178L380.123 896.375L414.69 930.932L419.885 925.734L385.319 891.178Z" fill="#03498A"/>
<path d="M432.187 856.298L388.705 899.762L393.901 904.96L437.383 861.496L432.187 856.298Z" fill="#03498A"/>
<path d="M449.606 873.859L406.154 917.348L411.353 922.542L454.805 879.054L449.606 873.859Z" fill="#03498A"/>
<path d="M0 939.853L31.9632 861.578L42.462 883.042L59.0268 866.478L73.2586 880.709L56.6938 897.274L78.1581 907.773L0 939.853ZM32.5464 879.659L13.4152 926.321L60.0767 907.19L44.0951 899.374L62.7598 880.709L58.9102 876.86L40.2456 895.524L32.5464 879.659Z" fill="#03498A"/>
<path d="M487.729 733.254C485.046 733.254 482.48 732.204 480.497 730.221C476.53 726.255 476.53 719.722 480.497 715.756L489.479 706.774C488.662 706.307 487.846 705.724 487.146 705.024C485.163 703.041 484.113 700.475 484.113 697.791C484.113 696.392 484.346 695.108 484.93 693.825C483.763 693.359 482.713 692.659 481.897 691.725C478.397 688.226 477.93 682.86 480.613 678.894C479.68 678.427 478.864 677.844 478.047 677.027C474.081 673.061 474.081 666.528 478.047 662.562C478.28 662.329 485.979 654.396 497.411 645.064C504.061 639.698 521.792 627.099 522.492 626.633L525.058 624.883L555.155 654.98L557.255 656.146L541.973 713.073C541.273 715.756 539.407 717.973 536.84 719.372C534.391 720.656 531.474 720.889 528.675 720.189C522.959 718.673 519.342 713.073 520.626 707.707L520.976 704.441L494.962 730.455C492.979 732.321 490.412 733.254 487.729 733.254ZM501.611 705.024L485.629 721.006C484.463 722.172 484.463 723.922 485.629 725.088C486.796 726.255 488.546 726.255 489.712 725.088L530.191 684.61L527.741 709.224C527.392 710.74 528.558 712.49 530.541 712.956C531.591 713.19 532.524 713.19 533.458 712.723C533.924 712.49 534.624 712.023 534.857 711.09L548.856 659.062L524.242 634.448C518.992 638.181 507.094 646.814 502.078 650.78C490.996 659.762 483.413 667.578 483.296 667.695C482.13 668.861 482.13 670.728 483.296 671.894C483.88 672.478 484.58 672.711 485.396 672.711C486.213 672.711 486.913 672.361 487.496 671.894L487.963 671.428L493.212 676.677L487.379 682.51C486.213 683.676 486.213 685.426 487.379 686.593C488.546 687.759 490.296 687.759 491.462 686.593L496.712 691.842L492.745 695.808C492.162 696.392 491.929 697.092 491.929 697.908C491.929 698.725 492.279 699.425 492.745 700.008C493.912 701.174 495.662 701.174 496.828 700.008L501.611 705.024Z" fill="#03498A"/>
<path d="M507.427 688.842L488.367 707.891L493.562 713.089L512.622 694.04L507.427 688.842Z" fill="#03498A"/>
<path d="M498.098 679.499L487.213 690.391L492.411 695.586L503.296 684.695L498.098 679.499Z" fill="#03498A"/>
<path d="M492.113 666.931L482.633 676.422L487.832 681.616L497.313 672.124L492.113 666.931Z" fill="#03498A"/>
<path d="M823.344 932.734C812.262 932.734 796.98 924.218 783.332 910.686C774.583 901.937 767.7 892.138 764.084 883.156C760.001 873.24 760.351 865.074 765.017 860.408C767.467 857.958 771.083 856.559 775.283 856.559C786.248 856.559 801.646 865.074 815.295 878.606C824.044 887.355 830.927 897.154 834.543 906.136C838.626 916.052 838.276 924.218 833.61 928.884C831.043 931.45 827.544 932.734 823.344 932.734ZM775.283 864.024C772.95 864.024 771.316 864.608 770.267 865.658C767.933 867.991 768.167 873.59 770.85 880.356C774.116 888.405 780.415 897.271 788.581 905.437C802.346 919.202 815.995 925.384 823.344 925.384C825.56 925.384 827.31 924.801 828.36 923.751C830.693 921.418 830.46 915.819 827.777 909.053C824.511 901.004 818.211 892.138 810.046 883.972C796.28 870.207 782.632 864.024 775.283 864.024Z" fill="#03498A"/>
<path d="M805.613 906.136C801.763 906.136 798.264 904.62 795.581 901.937L792.198 898.554C786.598 892.954 786.598 883.972 792.198 878.373L798.73 871.84C799.43 871.14 800.363 870.44 801.297 869.857L803.513 868.457L805.496 870.09C808.879 872.773 812.262 875.69 815.412 878.839C818.561 881.989 821.478 885.255 824.161 888.755L825.794 890.738L824.394 892.954C823.811 893.888 823.111 894.704 822.411 895.521L815.878 902.053C812.962 904.62 809.462 906.136 805.613 906.136ZM803.163 877.673L797.33 883.505C794.647 886.188 794.647 890.621 797.33 893.304L800.713 896.687C803.28 899.254 807.829 899.254 810.512 896.687L816.345 890.855C814.362 888.522 812.262 886.188 810.046 883.972C807.829 881.756 805.496 879.656 803.163 877.673Z" fill="#03498A"/>
<path d="M829.992 917.686C825.676 884.323 846.09 864.842 847.724 863.326L853.906 857.143L864.055 882.573C864.755 884.44 866.855 885.257 868.721 884.557C870.588 883.857 871.404 881.757 870.704 879.89L859.389 851.544L864.755 846.177C866.272 844.661 867.205 842.561 867.205 840.345C867.205 838.128 866.388 836.145 864.755 834.512L859.272 829.029C856.123 825.88 850.873 825.88 847.724 829.029L830.576 846.177C829.059 847.927 809.461 868.225 776.215 863.909L777.148 856.56C807.361 860.409 824.976 841.278 825.209 841.045L825.326 840.928L842.474 823.78C848.54 817.714 858.456 817.714 864.522 823.78L870.004 829.263C872.921 832.179 874.554 836.145 874.554 840.228C874.554 844.428 872.921 848.277 870.004 851.194L868.021 853.177L877.47 876.974C879.687 882.574 877.004 888.989 871.288 891.206C865.688 893.422 859.272 890.739 857.056 885.023L851.107 869.975C846.557 874.874 833.842 891.206 837.225 916.52L829.992 917.686Z" fill="#03498A"/>
<path d="M2028.03 560.025C2026.04 560.025 2024.06 559.675 2022.19 558.975L2024.76 552.093C2028.26 553.376 2032.23 552.559 2034.91 549.876C2037.48 547.31 2038.41 543.344 2037.13 539.727C2034.91 533.545 2036.43 526.545 2040.97 521.879C2045.64 517.213 2052.64 515.697 2058.82 517.913L2056.26 524.796C2052.76 523.512 2048.79 524.329 2046.11 527.012C2043.54 529.578 2042.61 533.545 2043.89 537.161C2046.11 543.344 2044.59 550.343 2039.92 555.009C2036.78 558.275 2032.46 560.025 2028.03 560.025Z" fill="#03498A"/>
<path d="M2721.77 651.6C2719.78 651.6 2717.8 651.25 2715.93 650.55L2718.5 643.667C2722 644.95 2725.97 644.134 2728.65 641.451C2731.22 638.884 2732.15 634.918 2730.87 631.302C2728.65 625.119 2730.17 618.12 2734.72 613.454C2739.38 608.788 2746.38 607.271 2752.56 609.604L2750 616.487C2746.5 615.204 2742.53 616.02 2739.85 618.703C2737.28 621.27 2736.35 625.236 2737.63 628.852C2739.85 635.035 2738.33 642.034 2733.67 646.7C2730.63 649.85 2726.2 651.6 2721.77 651.6Z" fill="#03498A"/>
<path d="M2036.08 684.963C2034.09 684.963 2032.11 684.613 2030.24 683.913L2032.81 677.03C2036.31 678.313 2040.28 677.497 2042.96 674.814C2045.53 672.247 2046.46 668.281 2045.18 664.665C2042.96 658.482 2044.48 651.483 2049.14 646.817C2053.81 642.151 2060.81 640.634 2066.99 642.85L2064.42 649.733C2060.92 648.45 2056.96 649.266 2054.27 651.949C2051.71 654.516 2050.78 658.482 2052.06 662.098C2054.27 668.281 2052.76 675.28 2048.09 679.946C2044.83 683.213 2040.51 684.963 2036.08 684.963Z" fill="#03498A"/>
<path d="M1913.83 990.115C1911.85 990.115 1909.87 989.765 1908 989.065L1910.57 982.182C1914.07 983.466 1918.03 982.649 1920.72 979.966C1923.28 977.4 1924.21 973.433 1922.93 969.817C1920.72 963.634 1922.23 956.635 1926.9 951.969C1931.56 947.303 1938.56 945.786 1944.75 948.003L1942.18 954.885C1938.68 953.602 1934.71 954.419 1932.03 957.102C1929.46 959.668 1928.53 963.634 1929.81 967.251C1932.03 973.433 1930.51 980.433 1925.85 985.099C1922.58 988.365 1918.27 990.115 1913.83 990.115Z" fill="#03498A"/>
<path d="M2524.62 739.787C2522.64 739.787 2520.66 739.437 2518.79 738.737L2521.36 731.854C2524.86 733.138 2528.82 732.321 2531.51 729.638C2534.07 727.072 2535.01 723.105 2533.72 719.489C2531.51 713.306 2533.02 706.307 2537.69 701.641C2542.36 696.975 2549.35 695.458 2555.54 697.675C2559.04 698.958 2563 698.142 2565.69 695.458C2568.25 692.892 2569.19 688.926 2567.9 685.31C2565.69 679.127 2567.2 672.128 2571.87 667.462C2576.53 662.795 2583.53 661.279 2589.72 663.495C2593.22 664.779 2597.18 663.962 2599.87 661.279C2602.43 658.713 2603.37 654.746 2602.08 651.13C2599.87 644.947 2601.38 637.948 2606.05 633.282C2610.71 628.616 2617.71 627.099 2623.9 629.432C2627.4 630.716 2631.36 629.899 2634.05 627.216C2636.61 624.65 2637.54 620.683 2636.26 617.067C2634.04 610.884 2635.56 603.885 2640.23 599.219C2644.89 594.553 2651.89 593.036 2658.08 595.253L2655.51 602.135C2652.01 600.852 2648.04 601.669 2645.36 604.352C2642.79 607.035 2641.86 610.884 2643.14 614.501C2645.36 620.683 2643.84 627.683 2639.18 632.349C2634.51 637.015 2627.51 638.531 2621.33 636.315C2617.83 635.032 2613.86 635.848 2611.18 638.531C2608.61 641.098 2607.68 645.064 2608.96 648.68C2611.18 654.863 2609.66 661.862 2605 666.528C2600.33 671.194 2593.33 672.711 2587.15 670.495C2583.65 669.211 2579.68 670.028 2577 672.711C2574.44 675.277 2573.5 679.244 2574.78 682.86C2577 689.043 2575.48 696.042 2570.82 700.708C2566.15 705.374 2559.15 706.891 2552.97 704.674C2549.47 703.391 2545.5 704.207 2542.82 706.891C2540.26 709.457 2539.32 713.423 2540.61 717.039C2542.82 723.222 2541.31 730.221 2536.64 734.887C2533.37 738.037 2529.06 739.787 2524.62 739.787Z" fill="#03498A"/>
<path d="M2478.83 642.223C2476.85 642.223 2474.87 641.873 2473 641.173L2475.57 634.291C2479.07 635.574 2483.03 634.757 2485.72 632.074C2488.28 629.391 2489.21 625.542 2487.93 621.926C2485.72 615.743 2487.23 608.744 2491.9 604.077C2496.56 599.411 2503.56 597.895 2509.75 600.111C2513.25 601.394 2517.21 600.578 2519.89 597.895C2522.46 595.328 2523.39 591.362 2522.11 587.746C2519.89 581.563 2521.41 574.564 2526.08 569.898C2530.74 565.232 2537.74 563.715 2543.93 565.932C2547.43 567.215 2551.39 566.398 2554.07 563.715C2556.64 561.149 2557.57 557.183 2556.29 553.566L2563.17 551C2565.39 557.183 2563.87 564.182 2559.21 568.848C2554.54 573.514 2547.54 575.031 2541.36 572.814C2537.86 571.531 2533.89 572.348 2531.21 575.031C2528.64 577.597 2527.71 581.563 2528.99 585.18C2531.21 591.362 2529.69 598.361 2525.03 603.028C2520.36 607.694 2513.36 609.21 2507.18 606.877C2503.68 605.594 2499.71 606.411 2497.03 609.094C2494.46 611.66 2493.53 615.626 2494.81 619.242C2497.03 625.425 2495.51 632.424 2490.85 637.091C2487.7 640.473 2483.27 642.223 2478.83 642.223Z" fill="#03498A"/>
<path d="M2547 988.997C2544.79 982.814 2546.3 975.815 2550.97 971.149C2555.64 966.482 2562.63 964.966 2568.82 967.182C2572.32 968.466 2576.28 967.649 2578.97 964.966C2581.53 962.4 2582.47 958.433 2581.18 954.817C2578.97 948.634 2580.48 941.635 2585.15 936.969C2589.81 932.303 2596.81 930.786 2603 933.003L2600.43 939.885C2596.93 938.602 2592.96 939.419 2590.28 942.102C2587.71 944.668 2586.78 948.634 2588.06 952.251C2590.28 958.433 2588.76 965.433 2584.1 970.099C2579.43 974.765 2572.43 976.281 2566.25 974.065C2562.75 972.782 2558.78 973.598 2556.1 976.281C2553.54 978.848 2552.6 982.814 2553.89 986.43L2547 988.997Z" fill="#03498A"/>
<path d="M1514.28 813.165C1512.07 806.983 1513.58 799.983 1518.25 795.317C1522.92 790.651 1529.92 789.134 1536.1 791.468C1539.6 792.751 1543.56 791.934 1546.25 789.251C1548.81 786.685 1549.75 782.719 1548.46 779.102C1546.25 772.92 1547.76 765.92 1552.43 761.254C1557.1 756.588 1564.1 755.072 1570.28 757.288L1567.71 764.171C1564.21 762.887 1560.25 763.704 1557.56 766.387C1555 768.953 1554.06 772.92 1555.35 776.536C1557.56 782.719 1556.05 789.718 1551.38 794.384C1546.71 799.05 1539.71 800.567 1533.53 798.35C1530.03 797.067 1526.07 797.883 1523.38 800.567C1520.82 803.133 1519.88 807.099 1521.17 810.715L1514.28 813.165Z" fill="#03498A"/>
<path d="M2206.62 786.472L2172.05 821.023L2177.25 826.222L2211.82 791.67L2206.62 786.472Z" fill="#03498A"/>
<path d="M2175.24 1119.72L2140.69 1154.29L2145.88 1159.49L2180.44 1124.92L2175.24 1119.72Z" fill="#03498A"/>
<path d="M2070.34 768.001L1994 844.426L1999.2 849.619L2075.54 773.194L2070.34 768.001Z" fill="#03498A"/>
<path d="M1714.33 776.679L1679.76 811.23L1684.95 816.429L1719.53 781.877L1714.33 776.679Z" fill="#03498A"/>
<path d="M2297.01 528.984L2262.46 563.551L2267.65 568.747L2302.21 534.18L2297.01 528.984Z" fill="#03498A"/>
<path d="M2145.77 590.371L2111.21 624.938L2116.41 630.133L2150.96 595.567L2145.77 590.371Z" fill="#03498A"/>
<path d="M1853.97 514.064L1819.4 548.621L1824.6 553.818L1859.16 519.262L1853.97 514.064Z" fill="#03498A"/>
<path d="M2145.87 1021.74L2111.3 1056.3L2116.49 1061.5L2151.07 1026.94L2145.87 1021.74Z" fill="#03498A"/>
<path d="M1527.23 666.31L1438.71 754.805L1443.91 760.002L1532.43 671.507L1527.23 666.31Z" fill="#03498A"/>
<path d="M2245.8 626.053L2110.11 761.742L2115.31 766.939L2251 631.249L2245.8 626.053Z" fill="#03498A"/>
<path d="M1589.98 538.498L1454.29 674.188L1459.49 679.384L1595.18 543.695L1589.98 538.498Z" fill="#03498A"/>
<path d="M2090.56 915L2056 949.566L2061.2 954.762L2095.75 920.196L2090.56 915Z" fill="#03498A"/>
<path d="M2027.79 988.376V963.062H2035.14V981.027H2053.11V988.376H2027.79Z" fill="#03498A"/>
<path d="M1687.25 604.348L1652.69 638.914L1657.89 644.11L1692.45 609.543L1687.25 604.348Z" fill="#03498A"/>
<path d="M1651.7 645.298V619.984H1659.05V637.949L1677.01 637.832V645.298H1651.7Z" fill="#03498A"/>
<path d="M2561.72 795.081C2551.57 795.081 2543.29 786.799 2543.29 776.65C2543.29 766.501 2551.57 758.219 2561.72 758.219C2571.87 758.219 2580.15 766.501 2580.15 776.65C2580.15 786.799 2571.87 795.081 2561.72 795.081ZM2561.72 765.685C2555.65 765.685 2550.64 770.701 2550.64 776.767C2550.64 782.833 2555.54 787.849 2561.72 787.849C2567.78 787.849 2572.8 782.949 2572.8 776.767C2572.68 770.584 2567.78 765.685 2561.72 765.685Z" fill="#03498A"/>
<path d="M1783.64 693.011C1773.49 693.011 1765.21 684.729 1765.21 674.58C1765.21 664.431 1773.49 656.148 1783.64 656.148C1793.79 656.148 1802.07 664.431 1802.07 674.58C1802.07 684.729 1793.79 693.011 1783.64 693.011ZM1783.64 663.498C1777.57 663.498 1772.55 668.397 1772.55 674.58C1772.55 680.646 1777.57 685.662 1783.64 685.662C1789.7 685.662 1794.72 680.762 1794.72 674.58C1794.72 668.514 1789.82 663.498 1783.64 663.498Z" fill="#03498A"/>
<path d="M1479.05 578.456C1468.91 578.456 1460.62 570.174 1460.62 560.025C1460.62 549.876 1468.91 541.594 1479.05 541.594C1489.2 541.594 1497.49 549.876 1497.49 560.025C1497.49 570.174 1489.2 578.456 1479.05 578.456ZM1479.05 548.943C1472.99 548.943 1467.97 553.842 1467.97 560.025C1467.97 566.091 1472.87 571.107 1479.05 571.107C1485.12 571.107 1490.14 566.208 1490.14 560.025C1490.14 553.842 1485.12 548.943 1479.05 548.943Z" fill="#03498A"/>
<path d="M1671.43 882.863C1661.28 882.863 1653 874.58 1653 864.431C1653 854.282 1661.28 846 1671.43 846C1681.58 846 1689.86 854.282 1689.86 864.431C1689.86 874.58 1681.58 882.863 1671.43 882.863ZM1671.43 853.349C1665.37 853.349 1660.35 858.249 1660.35 864.431C1660.35 870.497 1665.25 875.513 1671.43 875.513C1677.5 875.513 1682.51 870.614 1682.51 864.431C1682.51 858.365 1677.5 853.349 1671.43 853.349Z" fill="#03498A"/>
<path d="M1884.2 838.002L1879 843.199L1913.57 877.756L1918.76 872.559L1884.2 838.002Z" fill="#03498A"/>
<path d="M1863 893.955L1879.33 838.778L1926.11 792L1964.96 830.846L1918.18 877.624L1863 893.955ZM1885.86 842.744L1873.85 883.107L1914.21 871.091L1954.46 830.846L1925.99 802.382L1885.86 842.744Z" fill="#03498A"/>
<path d="M1868.6 888.472L1873.85 870.508L1886.45 883.106L1868.6 888.472Z" fill="#03498A"/>
<path d="M1931.65 802.661L1888.17 846.125L1893.36 851.323L1936.84 807.859L1931.65 802.661Z" fill="#03498A"/>
<path d="M1949.02 820.316L1905.57 863.805L1910.77 868.999L1954.22 825.511L1949.02 820.316Z" fill="#03498A"/>
<path d="M1901.34 733.254C1898.66 733.254 1896.09 732.204 1894.11 730.221C1890.14 726.255 1890.14 719.722 1894.11 715.756L1903.09 706.774C1902.27 706.307 1901.46 705.724 1900.76 705.024C1898.77 703.041 1897.72 700.475 1897.72 697.791C1897.72 696.392 1897.96 695.108 1898.54 693.825C1897.37 693.359 1896.32 692.659 1895.51 691.725C1892.01 688.226 1891.54 682.86 1894.22 678.894C1893.29 678.427 1892.47 677.844 1891.66 677.027C1887.69 673.061 1887.69 666.528 1891.66 662.562C1891.89 662.329 1899.59 654.396 1911.02 645.064C1917.67 639.698 1935.4 627.099 1936.1 626.633L1938.67 624.883L1968.77 654.98L1970.87 656.146L1955.58 713.073C1954.88 715.756 1953.02 717.973 1950.45 719.372C1948 720.656 1945.09 720.889 1942.29 720.189C1936.57 718.673 1933.07 713.073 1934.24 707.707L1934.59 704.441L1908.57 730.455C1906.59 732.321 1904.02 733.254 1901.34 733.254ZM1915.22 705.024L1899.24 721.006C1898.07 722.172 1898.07 723.922 1899.24 725.088C1900.41 726.255 1902.16 726.255 1903.32 725.088L1943.8 684.61L1941.35 709.224C1941 710.74 1942.17 712.49 1944.15 712.956C1945.2 713.19 1946.14 713.19 1947.07 712.723C1947.54 712.49 1948.24 712.023 1948.47 711.09L1962.47 659.062L1937.85 634.448C1932.6 638.181 1920.71 646.814 1915.69 650.78C1904.61 659.762 1897.02 667.578 1896.91 667.695C1895.74 668.861 1895.74 670.728 1896.91 671.894C1897.49 672.478 1898.19 672.711 1899.01 672.711C1899.82 672.711 1900.52 672.361 1901.11 671.894L1901.57 671.428L1906.82 676.677L1900.99 682.51C1899.82 683.676 1899.82 685.426 1900.99 686.593C1902.16 687.759 1903.91 687.759 1905.07 686.593L1910.32 691.842L1906.36 695.808C1905.77 696.392 1905.54 697.092 1905.54 697.908C1905.54 698.725 1905.89 699.425 1906.36 700.008C1907.52 701.174 1909.27 701.174 1910.44 700.008L1915.22 705.024Z" fill="#03498A"/>
<path d="M1920.99 688.811L1901.93 707.859L1907.12 713.057L1926.18 694.009L1920.99 688.811Z" fill="#03498A"/>
<path d="M1911.71 679.524L1900.82 690.414L1906.02 695.61L1916.91 684.72L1911.71 679.524Z" fill="#03498A"/>
<path d="M1905.73 666.954L1896.25 676.445L1901.45 681.639L1910.93 672.148L1905.73 666.954Z" fill="#03498A"/>
</g>
</svg>
