<svg width="457" height="608" viewBox="0 0 457 608" fill="none" xmlns="http://www.w3.org/2000/svg">
<path d="M20.3337 156.67C10.8148 144.942 6.6944 121.461 9.28162 95.4016C11.0192 78.6329 15.4703 62.9382 21.8633 51.4011C28.8426 38.5691 37.7789 31.9303 46.7216 32.8631C51.4165 33.3528 56.003 35.9783 59.6102 40.4225C69.029 52.027 73.2496 75.6323 70.6624 101.691C68.9249 118.46 64.4738 134.155 58.0807 145.692C51.1015 158.524 42.1651 165.163 33.2224 164.23C28.304 163.717 23.9409 161.115 20.3337 156.67ZM51.7147 46.8309C49.7107 44.3619 47.6911 43.1342 45.679 42.9243C41.2077 42.4579 35.4864 47.5111 30.6357 56.1581C24.929 66.5238 20.9639 80.8002 19.3421 96.451C16.6084 122.834 21.7933 142.585 28.1059 150.362C30.0097 152.708 32.1295 154.059 34.1416 154.269C38.613 154.735 44.3342 149.682 49.1849 141.035C54.8916 130.669 58.8568 116.393 60.4785 100.742C63.2123 74.3593 58.0273 54.6084 51.7147 46.8309Z" fill="#3D7BB5"/>
<path d="M33.1392 115.676C29.8477 111.62 28.4952 106.603 29.1022 101.422L29.8676 94.8888C31.1345 84.0758 40.8471 76.1926 51.6894 77.1771L64.3388 78.3257C65.6941 78.4488 67.2489 78.8177 68.6775 79.2889L72.0863 80.3952L72.016 83.9176C72.0074 89.8362 71.7465 95.9595 71.0339 102.042C70.3213 108.124 69.283 114.063 67.793 119.961L67.0451 123.422L63.4516 123.892C61.9438 124.097 60.4623 124.076 58.9809 124.055L46.3315 122.907C41.0629 122.087 36.4308 119.731 33.1392 115.676ZM61.8222 88.1145L50.5281 87.089C45.3329 86.6172 40.5396 90.5077 39.9326 95.6889L39.1672 102.222C38.5865 107.178 42.4765 111.97 47.5456 112.544L58.8397 113.57C59.6668 109.433 60.3942 105.174 60.8957 100.894C61.3971 96.6134 61.6727 92.3128 61.8222 88.1145Z" fill="#3D7BB5"/>
<path d="M41.8651 151.028C73.6018 117.667 111.899 122.539 114.918 122.965L126.817 124.197L108.537 156.909C107.157 159.262 108.099 162.196 110.451 163.574C112.804 164.952 115.739 164.008 117.119 161.655L137.493 125.188L147.82 126.257C150.739 126.56 153.775 125.739 156.13 123.827C158.486 121.916 159.89 119.338 160.218 116.195L161.319 105.644C161.952 99.5829 157.428 94.009 151.367 93.3815L118.364 89.965C115.197 89.8641 76.7358 86.5633 52.6704 47.5388L61.285 42.1904C83.2324 77.592 118.745 79.7933 119.194 79.8398L119.418 79.863L152.421 83.2796C164.096 84.4881 172.641 95.0166 171.422 106.69L170.321 117.241C169.735 122.853 166.927 128.008 162.588 131.53C158.125 135.153 152.626 136.739 147.014 136.158L143.197 135.763L126.05 166.323C122.009 173.507 112.878 176.192 105.597 172.035C98.4154 168.001 95.7374 158.874 99.9019 151.59L110.767 132.292C101.639 131.688 73.3248 132.274 49.338 157.701L41.8651 151.028Z" fill="#3D7BB5"/>
<path d="M311.298 101.711V163.283C311.298 184.686 293.986 202.02 272.61 202.02C251.234 202.02 233.922 184.686 233.922 163.283V97.7924C233.922 88.9748 236.857 80.9109 241.75 74.4297" stroke="#3D7BB5" stroke-width="6.66996" stroke-miterlimit="10" stroke-linecap="round"/>
<path d="M247.019 192V241.131L271.083 255.5L294.965 241.131V196.29" stroke="#3D7BB5" stroke-width="6.66996" stroke-miterlimit="10" stroke-linecap="round"/>
<path d="M300.235 190.412H315.89C328.235 190.412 338.17 180.389 338.17 168.105V81.5876C338.17 47.5987 310.622 20.0156 276.675 20.0156H270.654C236.632 20.0156 209.084 47.5987 209.084 81.5876V168.105C209.084 180.464 219.095 190.412 231.364 190.412H243.084" stroke="#3D7BB5" stroke-width="6.66996" stroke-miterlimit="10" stroke-linecap="round"/>
<path d="M241.75 74.4297C247.019 94.2503 265.083 108.871 286.61 108.871C295.718 108.871 304.223 106.233 311.374 101.711" stroke="#3D7BB5" stroke-width="6.66996" stroke-miterlimit="10" stroke-linecap="round"/>
<path d="M366.084 549L399.084 557L434.357 465.778C449.046 427.787 450.024 385.861 437.121 347.227L410.084 266.276C399.084 235 381.979 217 347.352 217H295.584" stroke="#3D7BB5" stroke-width="6.66996" stroke-miterlimit="10" stroke-linecap="round"/>
<path d="M173.152 343.477V512.065H361.775" stroke="#3D7BB5" stroke-width="6.66996" stroke-miterlimit="10" stroke-linecap="round"/>
<path d="M244.084 217.016H222.453C205.292 217.016 190.238 225.758 181.431 239.097" stroke="#3D7BB5" stroke-width="6.66996" stroke-miterlimit="10" stroke-linecap="round"/>
<path d="M139.281 327.876V209.027H62.1307V365.859C62.1307 387.187 79.3673 404.445 100.668 404.445C111.357 404.445 120.991 400.149 127.916 393.14C132.055 388.995 135.217 383.946 137.174 378.294" stroke="#3D7BB5" stroke-width="6.66996" stroke-miterlimit="10" stroke-linecap="round"/>
<path d="M181.355 239.098L138.452 279.492" stroke="#3D7BB5" stroke-width="6.66996" stroke-miterlimit="10" stroke-linecap="round"/>
<path d="M137.249 378.294L173.152 343.477" stroke="#3D7BB5" stroke-width="6.66996" stroke-miterlimit="10" stroke-linecap="round"/>
<path d="M363 279L363 588" stroke="#3D7BB5" stroke-width="6.66996" stroke-miterlimit="10" stroke-linecap="round"/>
<path d="M384.357 557C384.884 558.959 385.109 560.919 385.109 563.029C385.109 575.766 375.475 586.241 363.056 587.522" stroke="#3D7BB5" stroke-width="6.66996" stroke-miterlimit="10" stroke-linecap="round"/>
<g clip-path="url(#clip0_6426_4238)">
<path d="M126.468 207.738C128.517 205.048 130.32 202.031 131.713 198.77" stroke="#3D7BB5" stroke-width="8" stroke-miterlimit="10" stroke-linecap="round"/>
<path d="M82.6191 131.5C79.9966 137.126 63.6191 141.5 63.6191 167C63.6191 198 77.1283 200.825 82.6191 208" stroke="#3D7BB5" stroke-width="8" stroke-miterlimit="10" stroke-linecap="round"/>
<path d="M135.619 152.5C139.881 155.761 146.619 159 146.619 174C146.619 184.029 141.465 198.851 132.45 198.851C132.205 198.851 131.959 198.851 131.795 198.851" stroke="#3D7BB5" stroke-width="8" stroke-miterlimit="10" stroke-linecap="round"/>
</g>
<mask id="mask0_6426_4238" style="mask-type:alpha" maskUnits="userSpaceOnUse" x="61" y="216" width="390" height="376">
<path d="M408.686 264C405.886 232 353.852 219.833 340.686 218.5H297.186L294.186 241.5L270.686 255.5C266.186 251.667 238.186 247.5 247.186 218.5C247.186 218.5 194.852 225.167 191.686 228L139.221 282V216H61.2212C61.0545 262.5 60.8212 359.8 61.2212 377C61.7212 398.5 89.2212 410.5 106.721 410.5C120.721 410.5 134.221 390.833 139.221 381L172.721 352V516.5H364.221V592H384.721L424.686 497L450.686 397L408.686 264Z" fill="#D9D9D9"/>
</mask>
<g mask="url(#mask0_6426_4238)">
<path d="M445.64 248.501C447.355 246.929 448.748 245.098 449.718 243.098L441.16 240.01C439.315 243.738 435.133 246.273 430.341 246.402C425.651 246.44 421.298 244.315 419.078 240.607C415.3 234.25 407.543 230.244 399.21 230.469C390.877 230.694 383.427 235.112 380.121 241.66C378.276 245.388 374.094 247.923 369.303 248.052C364.72 248.176 360.26 245.964 358.039 242.257C354.262 235.9 346.504 231.893 338.172 232.119C329.839 232.344 322.389 236.761 319.083 243.309C317.238 247.037 313.056 249.572 308.264 249.702C303.681 249.826 299.221 247.614 297.001 243.906L288.685 247.45C292.462 253.807 300.219 257.813 308.552 257.588C316.885 257.363 324.335 252.945 327.641 246.397C329.486 242.669 333.668 240.134 338.46 240.005C343.043 239.881 347.502 242.093 349.723 245.8C353.5 252.157 361.258 256.164 369.591 255.938C377.923 255.713 385.373 251.296 388.572 244.661C390.417 240.933 394.599 238.398 399.391 238.268C403.974 238.145 408.433 240.356 410.654 244.064C414.431 250.421 422.189 254.427 430.522 254.202C436.361 254.224 441.806 252.013 445.64 248.501Z" fill="#3D7BB5"/>
<path d="M570.64 248.501C572.355 246.929 573.748 245.098 574.718 243.098L566.16 240.01C564.315 243.738 560.133 246.273 555.341 246.402C550.651 246.44 546.298 244.315 544.078 240.607C540.3 234.25 532.543 230.244 524.21 230.469C515.877 230.694 508.427 235.112 505.121 241.66C503.276 245.388 499.094 247.923 494.303 248.052C489.72 248.176 485.26 245.964 483.039 242.257C479.262 235.9 471.504 231.893 463.172 232.119C454.839 232.344 447.389 236.761 444.083 243.309C442.238 247.037 438.056 249.572 433.264 249.702C428.681 249.826 424.221 247.614 422.001 243.906L413.685 247.45C417.462 253.807 425.219 257.813 433.552 257.588C441.885 257.363 449.335 252.945 452.641 246.397C454.486 242.669 458.668 240.134 463.46 240.005C468.043 239.881 472.502 242.093 474.723 245.8C478.5 252.157 486.258 256.164 494.591 255.938C502.923 255.713 510.373 251.296 513.572 244.661C515.417 240.933 519.599 238.398 524.391 238.268C528.974 238.145 533.433 240.356 535.654 244.064C539.431 250.421 547.189 254.427 555.522 254.202C561.361 254.224 566.806 252.013 570.64 248.501Z" fill="#3D7BB5"/>
<path d="M445.64 289.805C447.355 288.234 448.748 286.402 449.718 284.403L441.16 281.315C439.315 285.043 435.133 287.578 430.341 287.707C425.651 287.744 421.298 285.619 419.078 281.912C415.3 275.555 407.543 271.548 399.21 271.774C390.877 271.999 383.427 276.416 380.121 282.964C378.276 286.692 374.094 289.227 369.303 289.357C364.72 289.481 360.26 287.269 358.039 283.561C354.262 277.205 346.504 273.198 338.172 273.423C329.839 273.649 322.389 278.066 319.083 284.614C317.238 288.342 313.056 290.877 308.264 291.007C303.681 291.13 299.221 288.919 297.001 285.211L288.685 288.755C292.462 295.112 300.219 299.118 308.552 298.893C316.885 298.668 324.335 294.25 327.641 287.702C329.486 283.974 333.668 281.439 338.459 281.31C343.043 281.186 347.502 283.398 349.723 287.105C353.5 293.462 361.258 297.468 369.591 297.243C377.923 297.018 385.373 292.6 388.572 285.965C390.417 282.238 394.599 279.703 399.391 279.573C403.974 279.449 408.433 281.661 410.654 285.369C414.431 291.725 422.189 295.732 430.522 295.507C436.361 295.528 441.806 293.318 445.64 289.805Z" fill="#3D7BB5"/>
<path d="M570.64 289.805C572.355 288.234 573.748 286.402 574.718 284.403L566.16 281.315C564.315 285.043 560.133 287.578 555.341 287.707C550.651 287.744 546.298 285.619 544.078 281.912C540.3 275.555 532.543 271.548 524.21 271.774C515.877 271.999 508.427 276.416 505.121 282.964C503.276 286.692 499.094 289.227 494.303 289.357C489.72 289.481 485.26 287.269 483.039 283.561C479.262 277.205 471.504 273.198 463.172 273.423C454.839 273.649 447.389 278.066 444.083 284.614C442.238 288.342 438.056 290.877 433.264 291.007C428.681 291.13 424.221 288.919 422.001 285.211L413.685 288.755C417.462 295.112 425.219 299.118 433.552 298.893C441.885 298.668 449.335 294.25 452.641 287.702C454.486 283.974 458.668 281.439 463.459 281.31C468.043 281.186 472.502 283.398 474.723 287.105C478.5 293.462 486.258 297.468 494.591 297.243C502.923 297.018 510.373 292.6 513.572 285.965C515.417 282.238 519.599 279.703 524.391 279.573C528.974 279.449 533.433 281.661 535.654 285.369C539.431 291.725 547.189 295.732 555.522 295.507C561.361 295.528 566.806 293.318 570.64 289.805Z" fill="#3D7BB5"/>
<path d="M445.64 331.11C447.355 329.539 448.748 327.707 449.718 325.707L441.16 322.619C439.315 326.347 435.133 328.882 430.341 329.012C425.651 329.049 421.298 326.924 419.078 323.216C415.3 316.86 407.543 312.853 399.21 313.078C390.877 313.303 383.427 317.721 380.121 324.269C378.276 327.997 374.094 330.532 369.303 330.662C364.72 330.785 360.26 328.574 358.039 324.866C354.262 318.509 346.504 314.503 338.172 314.728C329.839 314.953 322.389 319.371 319.083 325.919C317.238 329.647 313.056 332.182 308.264 332.311C303.681 332.435 299.221 330.223 297.001 326.516L288.685 330.06C292.462 336.416 300.219 340.423 308.552 340.198C316.885 339.972 324.335 335.555 327.641 329.007C329.486 325.279 333.668 322.744 338.459 322.614C343.043 322.49 347.502 324.702 349.723 328.41C353.5 334.767 361.258 338.773 369.591 338.548C377.923 338.323 385.373 333.905 388.572 327.27C390.417 323.542 394.599 321.007 399.391 320.878C403.974 320.754 408.433 322.966 410.654 326.673C414.431 333.03 422.189 337.037 430.522 336.811C436.361 336.833 441.806 334.623 445.64 331.11Z" fill="#3D7BB5"/>
<path d="M570.64 331.11C572.355 329.539 573.748 327.707 574.718 325.707L566.16 322.619C564.315 326.347 560.133 328.882 555.341 329.012C550.651 329.049 546.298 326.924 544.078 323.216C540.3 316.86 532.543 312.853 524.21 313.078C515.877 313.303 508.427 317.721 505.121 324.269C503.276 327.997 499.094 330.532 494.303 330.662C489.72 330.785 485.26 328.574 483.039 324.866C479.262 318.509 471.504 314.503 463.172 314.728C454.839 314.953 447.389 319.371 444.083 325.919C442.238 329.647 438.056 332.182 433.264 332.311C428.681 332.435 424.221 330.223 422.001 326.516L413.685 330.06C417.462 336.416 425.219 340.423 433.552 340.198C441.885 339.972 449.335 335.555 452.641 329.007C454.486 325.279 458.668 322.744 463.459 322.614C468.043 322.49 472.502 324.702 474.723 328.41C478.5 334.767 486.258 338.773 494.591 338.548C502.923 338.323 510.373 333.905 513.572 327.27C515.417 323.542 519.599 321.007 524.391 320.878C528.974 320.754 533.433 322.966 535.654 326.673C539.431 333.03 547.189 337.037 555.522 336.811C561.361 336.833 566.806 334.623 570.64 331.11Z" fill="#3D7BB5"/>
<path d="M445.64 372.415C447.355 370.843 448.748 369.012 449.718 367.012L441.16 363.924C439.315 367.652 435.133 370.187 430.341 370.316C425.651 370.354 421.298 368.229 419.078 364.521C415.3 358.164 407.543 354.158 399.21 354.383C390.877 354.608 383.427 359.026 380.121 365.574C378.276 369.302 374.094 371.837 369.303 371.966C364.72 372.09 360.26 369.878 358.039 366.171C354.262 359.814 346.504 355.807 338.172 356.033C329.839 356.258 322.389 360.675 319.083 367.224C317.238 370.951 313.056 373.486 308.264 373.616C303.681 373.74 299.221 371.528 297.001 367.82L288.685 371.364C292.462 377.721 300.219 381.727 308.552 381.502C316.885 381.277 324.335 376.859 327.641 370.311C329.486 366.584 333.668 364.048 338.459 363.919C343.043 363.795 347.502 366.007 349.723 369.715C353.5 376.071 361.258 380.078 369.591 379.853C377.923 379.627 385.373 375.21 388.572 368.575C390.417 364.847 394.599 362.312 399.391 362.182C403.974 362.059 408.433 364.27 410.654 367.978C414.431 374.335 422.189 378.341 430.522 378.116C436.361 378.138 441.806 375.927 445.64 372.415Z" fill="#3D7BB5"/>
<path d="M570.64 372.415C572.355 370.843 573.748 369.012 574.718 367.012L566.16 363.924C564.315 367.652 560.133 370.187 555.341 370.316C550.651 370.354 546.298 368.229 544.078 364.521C540.3 358.164 532.543 354.158 524.21 354.383C515.877 354.608 508.427 359.026 505.121 365.574C503.276 369.302 499.094 371.837 494.303 371.966C489.72 372.09 485.26 369.878 483.039 366.171C479.262 359.814 471.504 355.807 463.172 356.033C454.839 356.258 447.389 360.675 444.083 367.224C442.238 370.951 438.056 373.486 433.264 373.616C428.681 373.74 424.221 371.528 422.001 367.82L413.685 371.364C417.462 377.721 425.219 381.727 433.552 381.502C441.885 381.277 449.335 376.859 452.641 370.311C454.486 366.584 458.668 364.048 463.459 363.919C468.043 363.795 472.502 366.007 474.723 369.715C478.5 376.071 486.258 380.078 494.591 379.853C502.923 379.627 510.373 375.21 513.572 368.575C515.417 364.847 519.599 362.312 524.391 362.182C528.974 362.059 533.433 364.27 535.654 367.978C539.431 374.335 547.189 378.341 555.522 378.116C561.361 378.138 566.806 375.927 570.64 372.415Z" fill="#3D7BB5"/>
<path d="M445.64 413.719C447.355 412.148 448.748 410.316 449.718 408.317L441.16 405.229C439.315 408.957 435.133 411.492 430.341 411.621C425.651 411.658 421.298 409.533 419.078 405.826C415.3 399.469 407.543 395.462 399.21 395.688C390.877 395.913 383.427 400.33 380.121 406.879C378.276 410.606 374.094 413.141 369.303 413.271C364.72 413.395 360.26 411.183 358.039 407.475C354.262 401.119 346.504 397.112 338.172 397.337C329.839 397.563 322.389 401.98 319.083 408.528C317.238 412.256 313.056 414.791 308.264 414.921C303.681 415.044 299.221 412.833 297.001 409.125L288.685 412.669C292.462 419.026 300.219 423.032 308.552 422.807C316.885 422.582 324.335 418.164 327.641 411.616C329.486 407.888 333.668 405.353 338.46 405.224C343.043 405.1 347.502 407.312 349.723 411.019C353.5 417.376 361.258 421.382 369.591 421.157C377.923 420.932 385.373 416.514 388.572 409.88C390.417 406.152 394.599 403.617 399.391 403.487C403.974 403.363 408.433 405.575 410.654 409.283C414.431 415.639 422.189 419.646 430.522 419.421C436.361 419.442 441.806 417.232 445.64 413.719Z" fill="#3D7BB5"/>
<path d="M570.64 413.719C572.355 412.148 573.748 410.316 574.718 408.317L566.16 405.229C564.315 408.957 560.133 411.492 555.341 411.621C550.651 411.658 546.298 409.533 544.078 405.826C540.3 399.469 532.543 395.462 524.21 395.688C515.877 395.913 508.427 400.33 505.121 406.879C503.276 410.606 499.094 413.141 494.303 413.271C489.72 413.395 485.26 411.183 483.039 407.475C479.262 401.119 471.504 397.112 463.172 397.337C454.839 397.563 447.389 401.98 444.083 408.528C442.238 412.256 438.056 414.791 433.264 414.921C428.681 415.044 424.221 412.833 422.001 409.125L413.685 412.669C417.462 419.026 425.219 423.032 433.552 422.807C441.885 422.582 449.335 418.164 452.641 411.616C454.486 407.888 458.668 405.353 463.46 405.224C468.043 405.1 472.502 407.312 474.723 411.019C478.5 417.376 486.258 421.382 494.591 421.157C502.923 420.932 510.373 416.514 513.572 409.88C515.417 406.152 519.599 403.617 524.391 403.487C528.974 403.363 533.433 405.575 535.654 409.283C539.431 415.639 547.189 419.646 555.522 419.421C561.361 419.442 566.806 417.232 570.64 413.719Z" fill="#3D7BB5"/>
<path d="M445.64 455.028C447.355 453.457 448.748 451.625 449.718 449.625L441.16 446.537C439.315 450.265 435.133 452.8 430.341 452.93C425.651 452.967 421.298 450.842 419.078 447.134C415.3 440.778 407.543 436.771 399.21 436.996C390.877 437.221 383.427 441.639 380.121 448.187C378.276 451.915 374.094 454.45 369.303 454.579C364.72 454.703 360.26 452.492 358.039 448.784C354.262 442.427 346.504 438.421 338.172 438.646C329.839 438.871 322.389 443.289 319.083 449.837C317.238 453.565 313.056 456.1 308.264 456.229C303.681 456.353 299.221 454.141 297.001 450.434L288.685 453.978C292.462 460.334 300.219 464.341 308.552 464.115C316.885 463.89 324.335 459.473 327.641 452.925C329.486 449.197 333.668 446.662 338.459 446.532C343.043 446.408 347.502 448.62 349.723 452.328C353.5 458.685 361.258 462.691 369.591 462.466C377.923 462.241 385.373 457.823 388.572 451.188C390.417 447.46 394.599 444.925 399.391 444.796C403.974 444.672 408.433 446.884 410.654 450.591C414.431 456.948 422.189 460.955 430.522 460.729C436.361 460.751 441.806 458.54 445.64 455.028Z" fill="#3D7BB5"/>
<path d="M570.64 455.028C572.355 453.457 573.748 451.625 574.718 449.625L566.16 446.537C564.315 450.265 560.133 452.8 555.341 452.93C550.651 452.967 546.298 450.842 544.078 447.134C540.3 440.778 532.543 436.771 524.21 436.996C515.877 437.221 508.427 441.639 505.121 448.187C503.276 451.915 499.094 454.45 494.303 454.579C489.72 454.703 485.26 452.492 483.039 448.784C479.262 442.427 471.504 438.421 463.172 438.646C454.839 438.871 447.389 443.289 444.083 449.837C442.238 453.565 438.056 456.1 433.264 456.229C428.681 456.353 424.221 454.141 422.001 450.434L413.685 453.978C417.462 460.334 425.219 464.341 433.552 464.115C441.885 463.89 449.335 459.473 452.641 452.925C454.486 449.197 458.668 446.662 463.459 446.532C468.043 446.408 472.502 448.62 474.723 452.328C478.5 458.685 486.258 462.691 494.591 462.466C502.923 462.241 510.373 457.823 513.572 451.188C515.417 447.46 519.599 444.925 524.391 444.796C528.974 444.672 533.433 446.884 535.654 450.591C539.431 456.948 547.189 460.955 555.522 460.729C561.361 460.751 566.806 458.54 570.64 455.028Z" fill="#3D7BB5"/>
<path d="M445.64 496.333C447.355 494.761 448.748 492.93 449.718 490.93L441.16 487.842C439.315 491.57 435.133 494.105 430.341 494.234C425.651 494.272 421.298 492.147 419.078 488.439C415.3 482.082 407.543 478.076 399.21 478.301C390.877 478.526 383.427 482.944 380.121 489.492C378.276 493.22 374.094 495.755 369.303 495.884C364.72 496.008 360.26 493.796 358.039 490.089C354.262 483.732 346.504 479.725 338.172 479.951C329.839 480.176 322.389 484.593 319.083 491.142C317.238 494.869 313.056 497.404 308.264 497.534C303.681 497.658 299.221 495.446 297.001 491.738L288.685 495.282C292.462 501.639 300.219 505.645 308.552 505.42C316.885 505.195 324.335 500.777 327.641 494.229C329.486 490.502 333.668 487.966 338.459 487.837C343.043 487.713 347.502 489.925 349.723 493.633C353.5 499.989 361.258 503.996 369.591 503.77C377.923 503.545 385.373 499.128 388.572 492.493C390.417 488.765 394.599 486.23 399.391 486.1C403.974 485.977 408.433 488.188 410.654 491.896C414.431 498.253 422.189 502.259 430.522 502.034C436.361 502.056 441.806 499.845 445.64 496.333Z" fill="#3D7BB5"/>
<path d="M570.64 496.333C572.355 494.761 573.748 492.93 574.718 490.93L566.16 487.842C564.315 491.57 560.133 494.105 555.341 494.234C550.651 494.272 546.298 492.147 544.078 488.439C540.3 482.082 532.543 478.076 524.21 478.301C515.877 478.526 508.427 482.944 505.121 489.492C503.276 493.22 499.094 495.755 494.303 495.884C489.72 496.008 485.26 493.796 483.039 490.089C479.262 483.732 471.504 479.725 463.172 479.951C454.839 480.176 447.389 484.593 444.083 491.142C442.238 494.869 438.056 497.404 433.264 497.534C428.681 497.658 424.221 495.446 422.001 491.738L413.685 495.282C417.462 501.639 425.219 505.645 433.552 505.42C441.885 505.195 449.335 500.777 452.641 494.229C454.486 490.502 458.668 487.966 463.459 487.837C468.043 487.713 472.502 489.925 474.723 493.633C478.5 499.989 486.258 503.996 494.591 503.77C502.923 503.545 510.373 499.128 513.572 492.493C515.417 488.765 519.599 486.23 524.391 486.1C528.974 485.977 533.433 488.188 535.654 491.896C539.431 498.253 547.189 502.259 555.522 502.034C561.361 502.056 566.806 499.845 570.64 496.333Z" fill="#3D7BB5"/>
<path d="M323.091 251.802C324.807 250.23 326.199 248.398 327.169 246.399L318.611 243.311C316.766 247.039 312.584 249.574 307.792 249.703C303.102 249.74 298.749 247.615 296.529 243.908C292.752 237.551 284.994 233.544 276.661 233.77C268.328 233.995 260.878 238.412 257.572 244.961C255.727 248.688 251.545 251.223 246.754 251.353C242.171 251.477 237.711 249.265 235.49 245.557C231.713 239.201 223.956 235.194 215.623 235.419C207.29 235.645 199.84 240.062 196.534 246.61C194.689 250.338 190.507 252.873 185.715 253.003C181.132 253.127 176.672 250.915 174.452 247.207L166.136 250.751C169.913 257.108 177.67 261.114 186.003 260.889C194.336 260.664 201.786 256.246 205.092 249.698C206.937 245.97 211.119 243.435 215.911 243.306C220.494 243.182 224.954 245.394 227.174 249.101C230.951 255.458 238.709 259.464 247.042 259.239C255.375 259.014 262.825 254.597 266.023 247.962C267.868 244.234 272.05 241.699 276.842 241.569C281.425 241.445 285.885 243.657 288.105 247.365C291.882 253.721 299.64 257.728 307.973 257.503C313.812 257.524 319.258 255.314 323.091 251.802Z" fill="#3D7BB5"/>
<path d="M323.091 293.106C324.807 291.535 326.199 289.703 327.169 287.703L318.611 284.616C316.766 288.343 312.584 290.878 307.792 291.008C303.102 291.045 298.749 288.92 296.529 285.212C292.752 278.856 284.994 274.849 276.661 275.074C268.328 275.3 260.878 279.717 257.572 286.265C255.727 289.993 251.545 292.528 246.754 292.658C242.171 292.781 237.711 290.57 235.49 286.862C231.713 280.505 223.956 276.499 215.623 276.724C207.29 276.949 199.84 281.367 196.534 287.915C194.689 291.643 190.507 294.178 185.715 294.307C181.132 294.431 176.672 292.219 174.452 288.512L166.136 292.056C169.913 298.412 177.67 302.419 186.003 302.194C194.336 301.968 201.786 297.551 205.092 291.003C206.937 287.275 211.119 284.74 215.911 284.61C220.494 284.486 224.954 286.698 227.174 290.406C230.951 296.763 238.709 300.769 247.042 300.544C255.375 300.319 262.825 295.901 266.023 289.266C267.868 285.538 272.05 283.003 276.842 282.874C281.425 282.75 285.885 284.962 288.105 288.669C291.882 295.026 299.64 299.033 307.973 298.807C313.812 298.829 319.258 296.619 323.091 293.106Z" fill="#3D7BB5"/>
<path d="M323.091 334.411C324.807 332.84 326.199 331.008 327.169 329.008L318.611 325.92C316.766 329.648 312.584 332.183 307.792 332.313C303.102 332.35 298.749 330.225 296.529 326.517C292.752 320.16 284.994 316.154 276.661 316.379C268.328 316.604 260.878 321.022 257.572 327.57C255.727 331.298 251.545 333.833 246.754 333.962C242.171 334.086 237.711 331.874 235.49 328.167C231.713 321.81 223.956 317.804 215.623 318.029C207.29 318.254 199.84 322.671 196.534 329.22C194.689 332.947 190.507 335.483 185.715 335.612C181.132 335.736 176.672 333.524 174.452 329.816L166.136 333.36C169.913 339.717 177.67 343.724 186.003 343.498C194.336 343.273 201.786 338.856 205.092 332.307C206.937 328.58 211.119 326.045 215.911 325.915C220.494 325.791 224.954 328.003 227.174 331.711C230.951 338.067 238.709 342.074 247.042 341.849C255.375 341.623 262.825 337.206 266.023 330.571C267.868 326.843 272.05 324.308 276.842 324.179C281.425 324.055 285.885 326.266 288.105 329.974C291.882 336.331 299.64 340.337 307.973 340.112C313.812 340.134 319.258 337.923 323.091 334.411Z" fill="#3D7BB5"/>
<path d="M323.091 375.716C324.807 374.144 326.199 372.312 327.169 370.313L318.611 367.225C316.766 370.953 312.584 373.488 307.792 373.617C303.102 373.654 298.749 371.529 296.529 367.822C292.752 361.465 284.994 357.458 276.661 357.684C268.328 357.909 260.878 362.326 257.572 368.875C255.727 372.602 251.545 375.137 246.754 375.267C242.171 375.391 237.711 373.179 235.49 369.471C231.713 363.115 223.956 359.108 215.623 359.333C207.29 359.559 199.84 363.976 196.534 370.524C194.689 374.252 190.507 376.787 185.715 376.917C181.132 377.041 176.672 374.829 174.452 371.121L166.136 374.665C169.913 381.022 177.67 385.028 186.003 384.803C194.336 384.578 201.786 380.16 205.092 373.612C206.937 369.884 211.119 367.349 215.911 367.22C220.494 367.096 224.954 369.308 227.174 373.015C230.951 379.372 238.709 383.379 247.042 383.153C255.375 382.928 262.825 378.511 266.023 371.876C267.868 368.148 272.05 365.613 276.842 365.483C281.425 365.359 285.885 367.571 288.105 371.279C291.882 377.635 299.64 381.642 307.973 381.417C313.812 381.438 319.258 379.228 323.091 375.716Z" fill="#3D7BB5"/>
<path d="M200.543 256.11C202.258 254.539 203.651 252.707 204.62 250.707L196.062 247.619C194.217 251.347 190.035 253.882 185.243 254.012C180.553 254.049 176.201 251.924 173.98 248.216C170.203 241.86 162.445 237.853 154.112 238.078C145.779 238.303 138.329 242.721 135.024 249.269C133.179 252.997 128.996 255.532 124.205 255.662C119.622 255.785 115.162 253.574 112.941 249.866C109.164 243.509 101.407 239.503 93.0739 239.728C84.741 239.953 77.291 244.371 73.9851 250.919C72.1402 254.647 67.9579 257.182 63.1665 257.311C58.5834 257.435 54.1236 255.223 51.903 251.516L43.5869 255.06C47.364 261.416 55.1216 265.423 63.4545 265.198C71.7874 264.972 79.2373 260.555 82.5432 254.007C84.3881 250.279 88.5704 247.744 93.3618 247.614C97.9449 247.49 102.405 249.702 104.625 253.41C108.402 259.767 116.16 263.773 124.493 263.548C132.826 263.323 140.276 258.905 143.474 252.27C145.319 248.542 149.501 246.007 154.293 245.878C158.876 245.754 163.336 247.966 165.556 251.673C169.334 258.03 177.091 262.037 185.424 261.811C191.264 261.833 196.709 259.623 200.543 256.11Z" fill="#3D7BB5"/>
<path d="M200.543 297.415C202.258 295.843 203.651 294.012 204.62 292.012L196.062 288.924C194.217 292.652 190.035 295.187 185.243 295.316C180.553 295.354 176.201 293.229 173.98 289.521C170.203 283.164 162.445 279.158 154.112 279.383C145.779 279.608 138.329 284.026 135.024 290.574C133.179 294.302 128.996 296.837 124.205 296.966C119.622 297.09 115.162 294.878 112.941 291.171C109.164 284.814 101.407 280.807 93.0739 281.033C84.741 281.258 77.291 285.675 73.9851 292.224C72.1402 295.951 67.9579 298.486 63.1665 298.616C58.5834 298.74 54.1236 296.528 51.903 292.82L43.5869 296.364C47.364 302.721 55.1216 306.727 63.4545 306.502C71.7874 306.277 79.2373 301.859 82.5432 295.311C84.3881 291.584 88.5704 289.048 93.3618 288.919C97.9449 288.795 102.405 291.007 104.625 294.715C108.402 301.071 116.16 305.078 124.493 304.853C132.826 304.627 140.276 300.21 143.474 293.575C145.319 289.847 149.501 287.312 154.293 287.182C158.876 287.059 163.336 289.27 165.556 292.978C169.334 299.335 177.091 303.341 185.424 303.116C191.264 303.138 196.709 300.927 200.543 297.415Z" fill="#3D7BB5"/>
<path d="M200.543 338.719C202.258 337.148 203.651 335.316 204.62 333.317L196.062 330.229C194.217 333.957 190.035 336.492 185.243 336.621C180.553 336.658 176.201 334.533 173.98 330.826C170.203 324.469 162.445 320.462 154.112 320.688C145.779 320.913 138.329 325.33 135.024 331.879C133.179 335.606 128.996 338.141 124.205 338.271C119.622 338.395 115.162 336.183 112.941 332.475C109.164 326.119 101.407 322.112 93.0739 322.337C84.741 322.563 77.291 326.98 73.9851 333.528C72.1402 337.256 67.9579 339.791 63.1665 339.921C58.5834 340.044 54.1236 337.833 51.903 334.125L43.5869 337.669C47.364 344.026 55.1216 348.032 63.4545 347.807C71.7874 347.582 79.2374 343.164 82.5432 336.616C84.3882 332.888 88.5704 330.353 93.3618 330.224C97.9449 330.1 102.405 332.312 104.625 336.019C108.402 342.376 116.16 346.382 124.493 346.157C132.826 345.932 140.276 341.514 143.474 334.88C145.319 331.152 149.501 328.617 154.293 328.487C158.876 328.363 163.336 330.575 165.556 334.283C169.334 340.639 177.091 344.646 185.424 344.421C191.264 344.442 196.709 342.232 200.543 338.719Z" fill="#3D7BB5"/>
<path d="M200.543 380.024C202.258 378.453 203.651 376.621 204.62 374.621L196.062 371.533C194.217 375.261 190.035 377.796 185.243 377.926C180.553 377.963 176.201 375.838 173.98 372.13C170.203 365.774 162.445 361.767 154.112 361.992C145.779 362.218 138.329 366.635 135.024 373.183C133.179 376.911 128.996 379.446 124.205 379.576C119.622 379.699 115.162 377.488 112.941 373.78C109.164 367.423 101.407 363.417 93.0739 363.642C84.741 363.867 77.291 368.285 73.9851 374.833C72.1402 378.561 67.9579 381.096 63.1665 381.225C58.5834 381.349 54.1236 379.137 51.903 375.43L43.5869 378.974C47.364 385.33 55.1216 389.337 63.4545 389.112C71.7874 388.886 79.2373 384.469 82.5432 377.921C84.3881 374.193 88.5704 371.658 93.3618 371.528C97.9449 371.404 102.405 373.616 104.625 377.324C108.402 383.681 116.16 387.687 124.493 387.462C132.826 387.237 140.276 382.819 143.474 376.184C145.319 372.456 149.501 369.921 154.293 369.792C158.876 369.668 163.336 371.88 165.556 375.587C169.334 381.944 177.091 385.951 185.424 385.725C191.264 385.747 196.709 383.537 200.543 380.024Z" fill="#3D7BB5"/>
<path d="M323.091 417.024C324.807 415.453 326.199 413.621 327.169 411.621L318.611 408.533C316.766 412.261 312.584 414.796 307.792 414.926C303.102 414.963 298.749 412.838 296.529 409.13C292.752 402.774 284.994 398.767 276.661 398.992C268.328 399.218 260.878 403.635 257.572 410.183C255.727 413.911 251.545 416.446 246.754 416.576C242.171 416.699 237.711 414.488 235.49 410.78C231.713 404.423 223.956 400.417 215.623 400.642C207.29 400.867 199.84 405.285 196.534 411.833C194.689 415.561 190.507 418.096 185.715 418.225C181.132 418.349 176.672 416.137 174.452 412.43L166.136 415.974C169.913 422.33 177.67 426.337 186.003 426.112C194.336 425.886 201.786 421.469 205.092 414.921C206.937 411.193 211.119 408.658 215.911 408.528C220.494 408.404 224.954 410.616 227.174 414.324C230.951 420.681 238.709 424.687 247.042 424.462C255.375 424.237 262.825 419.819 266.023 413.184C267.868 409.456 272.05 406.921 276.842 406.792C281.425 406.668 285.885 408.88 288.105 412.587C291.882 418.944 299.64 422.951 307.973 422.725C313.812 422.747 319.258 420.537 323.091 417.024Z" fill="#3D7BB5"/>
<path d="M323.091 458.329C324.807 456.758 326.199 454.926 327.169 452.926L318.611 449.838C316.766 453.566 312.584 456.101 307.792 456.231C303.102 456.268 298.749 454.143 296.529 450.435C292.752 444.078 284.994 440.072 276.661 440.297C268.328 440.522 260.878 444.94 257.572 451.488C255.727 455.216 251.545 457.751 246.754 457.88C242.171 458.004 237.711 455.792 235.49 452.085C231.713 445.728 223.956 441.722 215.623 441.947C207.29 442.172 199.84 446.589 196.534 453.138C194.689 456.865 190.507 459.401 185.715 459.53C181.132 459.654 176.672 457.442 174.452 453.734L166.136 457.278C169.913 463.635 177.67 467.641 186.003 467.416C194.336 467.191 201.786 462.774 205.092 456.225C206.937 452.498 211.119 449.963 215.911 449.833C220.494 449.709 224.954 451.921 227.174 455.629C230.951 461.985 238.709 465.992 247.042 465.767C255.375 465.541 262.825 461.124 266.023 454.489C267.868 450.761 272.05 448.226 276.842 448.097C281.425 447.973 285.885 450.184 288.105 453.892C291.882 460.249 299.64 464.255 307.973 464.03C313.812 464.052 319.258 461.841 323.091 458.329Z" fill="#3D7BB5"/>
<path d="M323.091 499.634C324.807 498.062 326.199 496.23 327.169 494.231L318.611 491.143C316.766 494.871 312.584 497.406 307.792 497.535C303.102 497.572 298.749 495.447 296.529 491.74C292.752 485.383 284.994 481.376 276.661 481.602C268.328 481.827 260.878 486.244 257.572 492.793C255.727 496.52 251.545 499.055 246.754 499.185C242.171 499.309 237.711 497.097 235.49 493.389C231.713 487.033 223.956 483.026 215.623 483.251C207.29 483.477 199.84 487.894 196.534 494.442C194.689 498.17 190.507 500.705 185.715 500.835C181.132 500.959 176.672 498.747 174.452 495.039L166.136 498.583C169.913 504.94 177.67 508.946 186.003 508.721C194.336 508.496 201.786 504.078 205.092 497.53C206.937 493.802 211.119 491.267 215.911 491.138C220.494 491.014 224.954 493.226 227.174 496.933C230.951 503.29 238.709 507.296 247.042 507.071C255.375 506.846 262.825 502.429 266.023 495.794C267.868 492.066 272.05 489.531 276.842 489.401C281.425 489.277 285.885 491.489 288.105 495.197C291.882 501.553 299.64 505.56 307.973 505.335C313.812 505.356 319.258 503.146 323.091 499.634Z" fill="#3D7BB5"/>
</g>
<defs>
<clipPath id="clip0_6426_4238">
<rect width="94" height="102" fill="white" transform="matrix(-1 0 0 1 152.119 109)"/>
</clipPath>
</defs>
</svg>