<svg width="3139" height="85" viewBox="0 0 3139 85" fill="none" xmlns="http://www.w3.org/2000/svg">
<path d="M1569.89 84.9227C1571.44 84.9789 1573.5 84.8223 1575.94 84.5221L1575.23 78.7165C1572.86 79.0075 1571.17 79.116 1570.11 79.0773L1569.89 84.9227ZM1587.54 82.6565C1590.96 82.0257 1594.79 81.2737 1598.99 80.415L1597.82 74.6839C1593.64 75.5377 1589.85 76.282 1586.47 76.9041L1587.54 82.6565ZM1610.41 78.024C1613.98 77.2611 1617.75 76.4453 1621.69 75.5822L1620.45 69.8679C1616.5 70.7295 1612.75 71.5432 1609.19 72.3038L1610.41 78.024ZM1633 73.0923C1636.63 72.2901 1640.37 71.4573 1644.24 70.5974L1642.97 64.8879C1639.1 65.7475 1635.36 66.5798 1631.74 67.3813L1633 73.0923ZM1655.47 68.0926C1659.14 67.2746 1662.9 66.4371 1666.74 65.5824L1665.46 59.8729C1661.62 60.7278 1657.87 61.5655 1654.2 62.3836L1655.47 68.0926ZM1678.04 63.0707C1681.75 62.2466 1685.53 61.4097 1689.38 60.562L1688.12 54.8499C1684.27 55.6982 1680.49 56.5357 1676.77 57.3602L1678.04 63.0707ZM1700.6 58.0968C1704.3 57.285 1708.06 56.4654 1711.87 55.6395L1710.63 49.9232C1706.82 50.7499 1703.06 51.5703 1699.34 52.3828L1700.6 58.0968ZM1723.2 53.1931C1726.92 52.3948 1730.68 51.5923 1734.47 50.7869L1733.25 45.0652C1729.46 45.8715 1725.7 46.675 1721.97 47.4742L1723.2 53.1931ZM1745.76 48.4053C1749.51 47.6189 1753.29 46.8312 1757.1 46.0434L1755.92 40.3152C1752.1 41.1041 1748.31 41.893 1744.56 42.6804L1745.76 48.4053ZM1768.38 43.7293C1772.13 42.9656 1775.9 42.203 1779.7 41.4428L1778.55 35.7073C1774.75 36.4689 1770.97 37.2327 1767.21 37.9976L1768.38 43.7293ZM1791.04 39.1909C1794.79 38.4526 1798.56 37.7176 1802.35 36.987L1801.24 31.2436C1797.45 31.9756 1793.67 32.7119 1789.91 33.4516L1791.04 39.1909ZM1813.7 34.8187C1817.47 34.1068 1821.25 33.4002 1825.04 32.7L1823.98 26.948C1820.18 27.6496 1816.39 28.3577 1812.62 29.0711L1813.7 34.8187ZM1836.4 30.628C1840.18 29.9463 1843.97 29.2721 1847.76 28.6063L1846.75 22.8449C1842.95 23.5123 1839.15 24.1882 1835.36 24.8714L1836.4 30.628ZM1859.13 26.6407C1862.92 25.9947 1866.72 25.3581 1870.51 24.732L1869.56 18.9607C1865.76 19.5885 1861.95 20.2268 1858.15 20.8744L1859.13 26.6407ZM1881.9 22.8854C1885.71 22.2797 1889.51 21.6855 1893.3 21.1039L1892.42 15.322C1888.61 15.9054 1884.8 16.5014 1880.98 17.1089L1881.9 22.8854ZM1904.7 19.3951C1908.52 18.835 1912.33 18.2888 1916.13 17.7575L1915.33 11.9644C1911.51 12.4976 1907.68 13.0457 1903.85 13.6076L1904.7 19.3951ZM1927.55 16.2044C1931.38 15.6982 1935.19 15.2084 1938.99 14.7361L1938.27 8.9314C1934.46 9.40563 1930.63 9.89739 1926.79 10.4056L1927.55 16.2044ZM1950.45 13.3609C1954.28 12.9186 1958.08 12.4954 1961.87 12.0927L1961.25 6.27615C1957.45 6.68089 1953.62 7.10601 1949.78 7.55034L1950.45 13.3609ZM1973.38 10.9262C1977.23 10.5557 1981.05 10.2081 1984.85 9.88455L1984.35 4.05635C1980.53 4.38179 1976.69 4.73134 1972.82 5.10372L1973.38 10.9262ZM1996.3 8.97629C2000.18 8.69254 2004.02 8.43603 2007.83 8.20815L2007.48 2.36926C2003.65 2.59875 1999.78 2.85699 1995.88 3.14256L1996.3 8.97629ZM2019.32 7.60416C2023.18 7.42991 2027 7.28786 2030.78 7.17954L2030.61 1.33262C2026.8 1.44189 2022.95 1.58515 2019.05 1.76077L2019.32 7.60416ZM2042.33 6.95353C2044.23 6.93436 2046.12 6.92467 2048 6.92467V1.07533C2046.1 1.07533 2044.19 1.08513 2042.27 1.10449L2042.33 6.95353ZM2048 6.92467C2049.95 6.92467 2051.89 6.93335 2053.8 6.9505L2053.85 1.1014C2051.92 1.0841 2049.97 1.07533 2048 1.07533V6.92467ZM2065.18 7.15665C2069.04 7.26293 2072.83 7.40472 2076.53 7.57989L2076.81 1.73708C2073.06 1.56007 2069.24 1.41685 2065.34 1.30952L2065.18 7.15665ZM2087.95 8.23899C2091.83 8.50409 2095.62 8.80635 2099.33 9.143L2099.86 3.31753C2096.1 2.97699 2092.27 2.67133 2088.35 2.40329L2087.95 8.23899ZM2110.68 10.3012C2114.53 10.7384 2118.29 11.2125 2121.99 11.7199L2122.79 5.92488C2119.05 5.41141 2115.23 4.93173 2111.34 4.48931L2110.68 10.3012ZM2133.26 13.4001C2137.07 14.0127 2140.81 14.6595 2144.49 15.3363L2145.55 9.58338C2141.83 8.89901 2138.04 8.24481 2134.19 7.62506L2133.26 13.4001ZM2155.68 17.5146C2159.44 18.2867 2163.16 19.0875 2166.83 19.9121L2168.11 14.2046C2164.41 13.3729 2160.66 12.5646 2156.86 11.7847L2155.68 17.5146ZM2177.96 22.4976C2181.68 23.3905 2185.38 24.3035 2189.06 25.2314L2190.49 19.5588C2186.79 18.6267 2183.07 17.7085 2179.32 16.8098L2177.96 22.4976ZM2200.16 28.0636C2203.84 29.0159 2207.53 29.9775 2211.24 30.9439L2212.72 25.2832C2209.01 24.3174 2205.31 23.3542 2201.62 22.4002L2200.16 28.0636ZM2222.35 33.8221C2226.02 34.7672 2229.73 35.7115 2233.48 36.6499L2234.9 30.9753C2231.16 30.041 2227.47 29.1001 2223.81 28.1573L2222.35 33.8221ZM2244.65 39.3842C2248.32 40.2635 2252.06 41.133 2255.85 41.9885L2257.14 36.2821C2253.37 35.4329 2249.66 34.5692 2246.01 33.6952L2244.65 39.3842ZM2267.1 44.434C2270.79 45.2067 2274.55 45.9633 2278.39 46.7002L2279.49 40.9559C2275.69 40.2254 2271.96 39.4752 2268.3 38.7088L2267.1 44.434ZM2289.71 48.7739C2293.42 49.4198 2297.2 50.0458 2301.06 50.6489L2301.97 44.8695C2298.14 44.2718 2294.39 43.6515 2290.71 43.0113L2289.71 48.7739ZM2312.45 52.3243C2316.19 52.8399 2320 53.3336 2323.89 53.8031L2324.59 47.9959C2320.73 47.5304 2316.95 47.041 2313.26 46.53L2312.45 52.3243ZM2335.37 55.0912C2339.11 55.4796 2342.93 55.8457 2346.83 56.1876L2347.34 50.3606C2343.47 50.0214 2339.68 49.6583 2335.97 49.2731L2335.37 55.0912ZM2358.25 57.1019C2362.01 57.3741 2365.83 57.6242 2369.74 57.8508L2370.07 52.0113C2366.2 51.7863 2362.4 51.5381 2358.67 51.2679L2358.25 57.1019ZM2381.31 58.4425C2385.05 58.6082 2388.85 58.7527 2392.73 58.8751L2392.92 53.0286C2389.06 52.9071 2385.28 52.7635 2381.57 52.5989L2381.31 58.4425ZM2404.22 59.1675C2408.02 59.2415 2411.89 59.2948 2415.82 59.3263L2415.87 53.4772C2411.96 53.4458 2408.11 53.3929 2404.33 53.3193L2404.22 59.1675ZM2427.2 59.3565C2430.99 59.3468 2434.84 59.3173 2438.76 59.2676L2438.69 53.4187C2434.79 53.4682 2430.96 53.4975 2427.19 53.5072L2427.2 59.3565ZM2450.22 59.0674C2452.15 59.0244 2454.11 58.9766 2456.08 58.9238L2455.92 53.0766C2453.96 53.1291 2452.02 53.1767 2450.09 53.2195L2450.22 59.0674ZM2456.08 58.9238C2458.08 58.8701 2460.08 58.8119 2462.06 58.7493L2461.87 52.9029C2459.9 52.9652 2457.92 53.0231 2455.92 53.0766L2456.08 58.9238ZM2473.78 58.3221C2477.77 58.1572 2481.7 57.9745 2485.58 57.7749L2485.28 51.9333C2481.42 52.1319 2477.5 52.3137 2473.53 52.4778L2473.78 58.3221ZM2497.24 57.1161C2501.24 56.8698 2505.18 56.6057 2509.06 56.325L2508.64 50.4909C2504.77 50.7701 2500.86 51.0328 2496.88 51.2778L2497.24 57.1161ZM2520.79 55.4135C2524.73 55.0858 2528.61 54.7411 2532.44 54.3809L2531.89 48.5573C2528.08 48.9156 2524.22 49.2583 2520.3 49.5843L2520.79 55.4135ZM2544.22 53.2052C2548.18 52.7879 2552.08 52.3545 2555.91 51.9064L2555.24 46.0965C2551.42 46.5421 2547.54 46.9731 2543.61 47.3881L2544.22 53.2052ZM2567.54 50.484C2571.5 49.9773 2575.4 49.4559 2579.24 48.9218L2578.43 43.1283C2574.61 43.6595 2570.74 44.1781 2566.8 44.682L2567.54 50.484ZM2590.91 47.233C2594.84 46.6423 2598.71 46.0395 2602.53 45.4269L2601.6 39.6516C2597.8 40.2612 2593.95 40.8609 2590.04 41.4485L2590.91 47.233ZM2614.11 43.5087C2618.02 42.8419 2621.87 42.1669 2625.66 41.4862L2624.63 35.7288C2620.85 36.4067 2617.02 37.0789 2613.12 37.7425L2614.11 43.5087ZM2637.25 39.3592C2641.16 38.6271 2645.01 37.8919 2648.81 37.1566L2647.7 31.4139C2643.91 32.1472 2640.07 32.8802 2636.18 33.6098L2637.25 39.3592ZM2660.35 34.8971C2664.23 34.1277 2668.07 33.3618 2671.86 32.6034L2670.72 26.8677C2666.93 27.6259 2663.09 28.3908 2659.21 29.1591L2660.35 34.8971ZM2683.37 30.3027C2687.24 29.5302 2691.07 28.7701 2694.87 28.0263L2693.74 22.286C2689.94 23.0317 2686.1 23.7932 2682.22 24.5664L2683.37 30.3027ZM2706.37 25.8095C2710.23 25.0796 2714.06 24.3718 2717.88 23.6908L2716.85 17.9325C2713.01 18.6176 2709.16 19.329 2705.28 20.0619L2706.37 25.8095ZM2729.4 21.7107C2733.26 21.0764 2737.1 20.4747 2740.94 19.9104L2740.09 14.1231C2736.22 14.6928 2732.34 15.2997 2728.45 15.9389L2729.4 21.7107ZM2752.51 18.3298C2756.36 17.8446 2760.22 17.4017 2764.1 17.0061L2763.5 11.187C2759.58 11.5876 2755.67 12.0357 2751.78 12.5264L2752.51 18.3298ZM2775.71 15.9713C2779.55 15.6794 2783.43 15.4379 2787.33 15.2512L2787.05 9.40858C2783.09 9.59789 2779.16 9.84287 2775.26 10.1387L2775.71 15.9713ZM2798.97 14.8642C2802.81 14.7928 2806.69 14.7769 2810.62 14.8206L2810.68 8.97167C2806.7 8.9273 2802.76 8.94346 2798.86 9.01589L2798.97 14.8642ZM2822.25 15.1234C2826.08 15.2795 2829.95 15.4934 2833.88 15.7686L2834.29 9.93352C2830.31 9.65439 2826.38 9.4374 2822.49 9.2789L2822.25 15.1234ZM2845.5 16.7473C2849.31 17.1219 2853.17 17.5541 2857.1 18.047L2857.83 12.2432C2853.85 11.7439 2849.93 11.3059 2846.07 10.926L2845.5 16.7473ZM2868.68 19.6535C2872.45 20.2242 2876.28 20.8501 2880.16 21.5336L2881.18 15.7727C2877.24 15.0813 2873.37 14.4479 2869.56 13.8701L2868.68 19.6535ZM2891.6 23.6773C2893.52 24.0586 2895.45 24.4536 2897.4 24.8626L2898.6 19.138C2896.63 18.7247 2894.68 18.3256 2892.74 17.9402L2891.6 23.6773ZM2897.4 24.8626C2899.46 25.2958 2901.5 25.7254 2903.51 26.1514L2904.72 20.4289C2902.71 20.0022 2900.67 19.5719 2898.6 19.138L2897.4 24.8626ZM2915.48 28.7075C2919.58 29.5899 2923.56 30.4555 2927.43 31.3036L2928.69 25.5897C2924.81 24.7401 2920.82 23.8732 2916.71 22.9893L2915.48 28.7075ZM2939.39 33.9422C2943.51 34.8584 2947.5 35.752 2951.36 36.6225L2952.65 30.9163C2948.78 30.0447 2944.79 29.1499 2940.66 28.2323L2939.39 33.9422ZM2963.35 39.3396C2967.5 40.2855 2971.5 41.1999 2975.35 42.082L2976.65 36.3805C2972.8 35.4981 2968.8 34.5831 2964.65 33.6364L2963.35 39.3396ZM2987.34 44.829C2991.5 45.781 2995.48 46.6876 2999.29 47.5472L3000.57 41.8412C2996.77 40.9835 2992.8 40.0784 2988.64 39.127L2987.34 44.829ZM3011.3 50.2162C3015.51 51.1339 3019.51 51.9806 3023.33 52.7536L3024.49 47.0209C3020.71 46.2548 3016.74 45.4141 3012.55 44.5008L3011.3 50.2162ZM3035.48 55.0688C3039.77 55.8235 3043.84 56.4597 3047.73 56.9716L3048.49 51.1722C3044.7 50.6733 3040.72 50.0508 3036.49 49.3079L3035.48 55.0688ZM3060.12 58.2065C3064.41 58.4809 3068.56 58.5687 3072.66 58.46L3072.5 52.6127C3068.59 52.7164 3064.62 52.6332 3060.49 52.3691L3060.12 58.2065ZM3085.18 57.5048C3089.21 56.9967 3093.29 56.2926 3097.51 55.3874L3096.28 49.6681C3092.21 50.5415 3088.3 51.2161 3084.45 51.7014L3085.18 57.5048ZM3109.58 52.3789C3113.36 51.322 3117.29 50.1243 3121.43 48.7831L3119.63 43.2177C3115.55 44.5397 3111.69 45.7141 3108 46.7464L3109.58 52.3789ZM3133.15 44.8254C3135.05 44.16 3136.99 43.4692 3138.99 42.7527L3137.01 37.2473C3135.03 37.9593 3133.1 38.645 3131.21 39.3046L3133.15 44.8254Z" fill="#F9DD00"/>
<path d="M1330 22.0016L1329.05 24.7667L1329.05 24.7667L1330 22.0016ZM3.09613 84.7131C4.34196 84.2094 6.04748 83.5991 8.20808 82.8895L6.3829 77.3322C4.16342 78.0612 2.3206 78.7174 0.903867 79.2901L3.09613 84.7131ZM19.2185 79.5497C22.5188 78.6045 26.2129 77.5822 30.2732 76.4925L28.7569 70.8431C24.6709 71.9398 20.9449 72.9707 17.608 73.9265L19.2185 79.5497ZM41.4662 73.5568C45.0096 72.6468 48.7492 71.7028 52.6727 70.729L51.2636 65.0519C47.3259 66.0293 43.5709 66.9771 40.0112 67.8914L41.4662 73.5568ZM63.8774 67.9885C67.4937 67.1164 71.2347 66.2255 75.0929 65.3183L73.7541 59.6243C69.8854 60.5339 66.1335 61.4274 62.506 62.3022L63.8774 67.9885ZM86.335 62.7061C90.0077 61.8625 93.7697 61.0077 97.6154 60.1436L96.3331 54.4366C92.4785 55.3027 88.7074 56.1595 85.0255 57.0052L86.335 62.7061ZM108.94 57.626C112.63 56.8142 116.387 55.9962 120.205 55.1732L118.973 49.4551C115.146 50.2799 111.382 51.0997 107.684 51.9132L108.94 57.626ZM131.471 52.7697C135.196 51.9829 138.973 51.193 142.799 50.4013L141.613 44.6734C137.78 45.4667 133.995 46.2582 130.262 47.0466L131.471 52.7697ZM154.151 48.0754C157.872 47.3207 161.633 46.5655 165.431 45.8108L164.291 40.0736C160.486 40.8298 156.717 41.5866 152.988 42.3428L154.151 48.0754ZM176.779 43.5794C180.537 42.8481 184.327 42.1183 188.146 41.391L187.052 35.6449C183.225 36.3737 179.428 37.105 175.662 37.8378L176.779 43.5794ZM199.467 39.2585C203.237 38.5564 207.03 37.8575 210.846 37.1628L209.798 31.4081C205.975 32.1042 202.173 32.8045 198.396 33.5081L199.467 39.2585ZM222.213 35.1176C225.985 34.4471 229.775 33.7814 233.581 33.1215L232.582 27.3582C228.768 28.0195 224.97 28.6866 221.19 29.3585L222.213 35.1176ZM244.988 31.1693C248.768 30.5309 252.561 29.8988 256.365 29.2739L255.416 23.502C251.604 24.1283 247.802 24.7618 244.013 25.4017L244.988 31.1693ZM267.771 27.427C271.568 26.8213 275.373 26.2236 279.183 25.6345L278.289 19.8538C274.469 20.4444 270.656 21.0436 266.85 21.6507L267.771 27.427ZM290.599 23.8985C294.406 23.3294 298.216 22.7697 302.026 22.2202L301.192 16.4308C297.371 16.9817 293.551 17.5428 289.734 18.1134L290.599 23.8985ZM313.461 20.603C317.278 20.0738 321.094 19.5557 324.905 19.0494L324.135 13.251C320.312 13.7588 316.486 14.2784 312.658 14.8091L313.461 20.603ZM336.348 17.5641C340.179 17.0787 344.003 16.606 347.819 16.1471L347.12 10.3396C343.292 10.8001 339.455 11.2742 335.613 11.7612L336.348 17.5641ZM359.272 14.8079C363.112 14.3721 366.941 13.9511 370.755 13.5458L370.137 7.7292C366.308 8.13602 362.466 8.55854 358.612 8.99589L359.272 14.8079ZM382.243 12.3687C386.08 11.9906 389.899 11.6294 393.699 11.2861L393.173 5.46051C389.357 5.80527 385.521 6.16794 381.669 6.54761L382.243 12.3687ZM405.231 10.2948C409.088 9.98061 412.92 9.68619 416.727 9.4125L416.307 3.57823C412.482 3.85329 408.63 4.14913 404.756 4.46479L405.231 10.2948ZM428.21 8.64546C432.093 8.40652 435.944 8.19083 439.761 7.99946L439.468 2.15747C435.629 2.34999 431.755 2.56692 427.851 2.80718L428.21 8.64546ZM451.265 7.49314C455.134 7.34736 458.963 7.22872 462.747 7.13835L462.607 1.29069C458.795 1.38172 454.94 1.50121 451.044 1.64795L451.265 7.49314ZM474.313 6.95023C476.221 6.93429 478.117 6.92624 480 6.92624V1.07691C478.101 1.07691 476.189 1.08503 474.264 1.1011L474.313 6.95023ZM480 6.92624C481.954 6.92624 483.887 6.93493 485.8 6.95208L485.853 1.10298C483.922 1.08568 481.971 1.07691 480 1.07691V6.92624ZM497.177 7.15822C501.043 7.26451 504.826 7.4063 508.532 7.58147L508.809 1.73866C505.063 1.56165 501.241 1.41843 497.337 1.3111L497.177 7.15822ZM519.95 8.24056C523.827 8.50567 527.619 8.80792 531.335 9.14458L531.863 3.31911C528.104 2.97857 524.269 2.6729 520.349 2.40486L519.95 8.24056ZM542.682 10.3028C546.528 10.74 550.295 11.214 553.991 11.7215L554.787 5.92646C551.046 5.41299 547.234 4.93331 543.342 4.49088L542.682 10.3028ZM565.262 13.4017C569.07 14.0143 572.81 14.6611 576.492 15.3379L577.55 9.58495C573.826 8.90059 570.044 8.24639 566.191 7.62664L565.262 13.4017ZM587.682 17.5162C591.444 18.2883 595.157 19.0891 598.834 19.9137L600.114 14.2062C596.405 13.3745 592.658 12.5662 588.858 11.7863L587.682 17.5162ZM609.957 22.4992C613.678 23.3921 617.375 24.305 621.065 25.233L622.491 19.5604C618.786 18.6283 615.067 17.7101 611.322 16.8114L609.957 22.4992ZM632.155 28.0651C635.841 29.0175 639.532 29.979 643.245 30.9455L644.718 25.2848C641.007 24.3189 637.311 23.3558 633.619 22.4018L632.155 28.0651ZM654.349 33.8237C658.021 34.7687 661.727 35.7131 665.48 36.6515L666.899 30.9769C663.163 30.0426 659.47 29.1017 655.807 28.1589L654.349 33.8237ZM676.646 39.3858C680.324 40.2651 684.056 41.1346 687.853 41.9901L689.139 36.2837C685.369 35.4345 681.662 34.5708 678.007 33.6968L676.646 39.3858ZM699.101 44.4356C702.792 45.2083 706.551 45.9649 710.387 46.7017L711.49 40.9574C707.687 40.2269 703.96 39.4768 700.299 38.7104L699.101 44.4356ZM721.708 48.7755C725.416 49.4214 729.199 50.0473 733.064 50.6505L733.966 44.8711C730.136 44.2734 726.387 43.653 722.712 43.0129L721.708 48.7755ZM744.455 52.3259C748.187 52.8415 751.995 53.3352 755.886 53.8047L756.587 47.9975C752.729 47.532 748.954 47.0426 745.255 46.5316L744.455 52.3259ZM767.369 55.0927C771.112 55.4812 774.93 55.8473 778.828 56.1892L779.339 50.3622C775.472 50.023 771.685 49.6599 767.973 49.2747L767.369 55.0927ZM790.251 57.1035C794.005 57.3757 797.832 57.6258 801.735 57.8524L802.074 52.0129C798.199 51.7879 794.4 51.5396 790.674 51.2694L790.251 57.1035ZM813.31 58.4441C817.048 58.6098 820.854 58.7543 824.731 58.8766L824.915 53.0302C821.063 52.9087 817.282 52.765 813.569 52.6005L813.31 58.4441ZM836.216 59.1691C840.018 59.2431 843.886 59.2964 847.823 59.3279L847.87 53.4787C843.955 53.4474 840.11 53.3945 836.33 53.3208L836.216 59.1691ZM859.203 59.3581C862.993 59.3483 866.844 59.3189 870.759 59.2692L870.685 53.4203C866.789 53.4698 862.958 53.4991 859.188 53.5088L859.203 59.3581ZM882.215 59.0689C884.154 59.026 886.109 58.9781 888.078 58.9254L887.922 53.0782C885.961 53.1307 884.016 53.1783 882.085 53.221L882.215 59.0689ZM888.078 58.9254C890.097 58.8713 892.103 58.8111 894.095 58.7449L893.901 52.8988C891.921 52.9646 889.928 53.0244 887.922 53.0782L888.078 58.9254ZM905.898 58.2768C909.914 58.0915 913.877 57.8819 917.787 57.6493L917.44 51.8102C913.555 52.0413 909.618 52.2496 905.628 52.4337L905.898 58.2768ZM929.531 56.8716C933.547 56.5785 937.506 56.2613 941.411 55.9218L940.904 50.0944C937.026 50.4317 933.094 50.7466 929.106 51.0378L929.531 56.8716ZM953.211 54.8125C957.171 54.4123 961.073 53.9894 964.921 53.5458L964.251 47.735C960.43 48.1755 956.555 48.5954 952.623 48.9929L953.211 54.8125ZM976.76 52.095C980.733 51.5794 984.647 51.0423 988.503 50.4861L987.668 44.6967C983.838 45.249 979.952 45.7823 976.007 46.2944L976.76 52.095ZM1000.17 48.7204C1004.14 48.0918 1008.04 47.4443 1011.89 46.7804L1010.9 41.0162C1007.07 41.6757 1003.19 42.3189 999.255 42.9431L1000.17 48.7204ZM1023.58 44.6838C1027.51 43.9515 1031.39 43.2039 1035.21 42.4441L1034.06 36.7073C1030.27 37.4626 1026.42 38.2055 1022.51 38.9333L1023.58 44.6838ZM1046.78 40.07C1050.69 39.2453 1054.54 38.4105 1058.34 37.5693L1057.07 31.8585C1053.3 32.6958 1049.46 33.5263 1045.58 34.3466L1046.78 40.07ZM1069.91 34.9504C1073.81 34.051 1077.65 33.1486 1081.44 32.2474L1080.09 26.5567C1076.31 27.4554 1072.48 28.3549 1068.6 29.2508L1069.91 34.9504ZM1092.94 29.4844C1096.82 28.5453 1100.64 27.6122 1104.42 26.6904L1103.03 21.0077C1099.26 21.9297 1095.43 22.8617 1091.56 23.7996L1092.94 29.4844ZM1115.89 23.8997C1119.75 22.9642 1123.57 22.0465 1127.36 21.1519L1126.01 15.4595C1122.21 16.3573 1118.38 17.2776 1114.51 18.2146L1115.89 23.8997ZM1138.83 18.4919C1142.69 17.6178 1146.52 16.7749 1150.33 15.9693L1149.12 10.2468C1145.28 11.059 1141.43 11.9078 1137.54 12.7869L1138.83 18.4919ZM1161.85 13.6376C1165.72 12.8945 1169.56 12.1973 1173.4 11.5527L1172.43 5.78414C1168.55 6.43705 1164.65 7.1425 1160.75 7.89348L1161.85 13.6376ZM1184.99 9.7708C1188.87 9.23293 1192.74 8.75564 1196.62 8.34576L1196 2.5288C1192.06 2.94581 1188.12 3.43098 1184.19 3.97709L1184.99 9.7708ZM1208.27 7.32633C1212.15 7.06004 1216.03 6.86672 1219.95 6.75304L1219.78 0.906175C1215.78 1.02218 1211.82 1.21939 1207.87 1.49078L1208.27 7.32633ZM1231.63 6.65579C1235.49 6.70455 1239.38 6.83462 1243.31 7.05219L1243.63 1.21181C1239.62 0.989565 1235.64 0.856718 1231.71 0.806921L1231.63 6.65579ZM1254.95 7.94735C1258.77 8.32315 1262.64 8.78385 1266.56 9.33487L1267.37 3.5426C1263.37 2.98024 1259.43 2.50987 1255.52 2.12609L1254.95 7.94735ZM1278.1 11.1991C1281.88 11.8862 1285.7 12.6578 1289.59 13.5183L1290.85 7.8076C1286.9 6.93119 1283 6.14491 1279.15 5.44431L1278.1 11.1991ZM1301 16.2675C1304.7 17.2263 1308.45 18.2651 1312.25 19.3873L1313.9 13.7771C1310.04 12.637 1306.23 11.5811 1302.47 10.6058L1301 16.2675ZM1323.4 22.8671C1325.27 23.4804 1327.15 24.1135 1329.05 24.7667L1330.95 19.2366C1329.03 18.5743 1327.12 17.9322 1325.23 17.3099L1323.4 22.8671ZM1329.05 24.7667C1330.87 25.3967 1332.68 26.0208 1334.47 26.639L1336.38 21.1112C1334.59 20.4923 1332.78 19.8674 1330.95 19.2366L1329.05 24.7667ZM1345.15 30.3468C1348.79 31.6166 1352.35 32.86 1355.82 34.0773L1357.75 28.5576C1354.28 27.3391 1350.72 26.0944 1347.07 24.8232L1345.15 30.3468ZM1366.49 37.8294C1370.14 39.117 1373.7 40.3733 1377.16 41.5988L1379.11 36.0844C1375.65 34.8584 1372.09 33.6014 1368.43 32.3128L1366.49 37.8294ZM1387.83 45.3778C1391.49 46.6741 1395.04 47.9329 1398.5 49.1549L1400.45 43.6404C1396.99 42.419 1393.44 41.1607 1389.78 39.8644L1387.83 45.3778ZM1409.15 52.9135C1412.82 54.2055 1416.39 55.452 1419.85 56.6539L1421.76 51.1284C1418.31 49.9295 1414.76 48.6856 1411.09 47.3953L1409.15 52.9135ZM1430.58 60.347C1434.26 61.6002 1437.84 62.7983 1441.31 63.9428L1443.14 58.387C1439.69 57.2494 1436.13 56.0574 1432.46 54.8093L1430.58 60.347ZM1452.14 67.4287C1455.86 68.5941 1459.48 69.6936 1463.02 70.7294L1464.66 65.1147C1461.16 64.0909 1457.58 63.0027 1453.89 61.8473L1452.14 67.4287ZM1473.98 73.7855C1477.72 74.7734 1481.4 75.6881 1485.05 76.5324L1486.37 70.8332C1482.78 70.0037 1479.16 69.104 1475.48 68.1306L1473.98 73.7855ZM1496.23 78.9059C1499.96 79.6275 1503.7 80.2778 1507.49 80.8602L1508.38 75.0789C1504.67 74.508 1501 73.8705 1497.34 73.1629L1496.23 78.9059ZM1518.8 82.3844C1522.51 82.8141 1526.29 83.1852 1530.16 83.5008L1530.63 77.6707C1526.82 77.3603 1523.12 76.9957 1519.48 76.574L1518.8 82.3844ZM1541.55 84.2556C1545.23 84.4468 1549.01 84.5953 1552.92 84.7034L1553.08 78.8563C1549.21 78.7494 1545.48 78.6027 1541.85 78.4141L1541.55 84.2556ZM1564.28 84.9031C1566.16 84.9184 1568.06 84.926 1570 84.926V79.0767C1568.08 79.0767 1566.19 79.0692 1564.33 79.0539L1564.28 84.9031Z" fill="#F9DD00"/>
</svg>
