<svg width="494" height="78" viewBox="0 0 494 78" fill="none" xmlns="http://www.w3.org/2000/svg">
<path d="M33.5 67C15.0539 67 0 51.9462 0 33.5C0 15.0538 15.0539 0 33.5 0C51.9461 0 67 15.0538 67 33.5C67 51.9462 51.9461 67 33.5 67ZM33.5 13.3576C22.4747 13.3576 13.3577 22.2626 13.3577 33.5C13.3577 44.5253 22.4747 53.6424 33.5 53.6424C44.5253 53.6424 53.6423 44.7373 53.6423 33.5C53.6423 22.4747 44.7373 13.3576 33.5 13.3576Z" fill="#F9DD00"/>
<path opacity="0.5" d="M461.5 70C443.604 70 429 55.3956 429 37.5C429 19.6044 443.604 5 461.5 5C479.396 5 494 19.6044 494 37.5C494 55.3956 479.396 70 461.5 70ZM461.5 17.9589C450.804 17.9589 441.959 26.5981 441.959 37.5C441.959 48.1962 450.804 57.0411 461.5 57.0411C472.196 57.0411 481.041 48.4019 481.041 37.5C481.041 26.8038 472.402 17.9589 461.5 17.9589Z" fill="#F9DD00"/>
<path d="M232 41.9978L233.166 39.3157L232 41.9978ZM28.451 38.5375C30.1387 37.5731 31.8359 36.648 33.5415 35.7609L30.8428 30.5714C29.0691 31.4938 27.3042 32.4559 25.549 33.4589L28.451 38.5375ZM44.0045 30.8305C47.5864 29.3099 51.1976 27.9416 54.8303 26.7157L52.96 21.1734C49.1905 22.4455 45.4406 23.8663 41.7189 25.4462L44.0045 30.8305ZM65.9339 23.4172C69.6982 22.4453 73.4771 21.613 77.262 20.9098L76.1936 15.1589C72.2811 15.8857 68.3707 16.7469 64.4716 17.7536L65.9339 23.4172ZM88.7399 19.1638C92.6063 18.7016 96.4698 18.3631 100.321 18.137L99.9785 12.2977C96.0146 12.5304 92.0337 12.8791 88.0456 13.3558L88.7399 19.1638ZM111.955 17.7848C115.863 17.7746 119.748 17.8704 123.6 18.0604L123.888 12.2182C119.939 12.0235 115.953 11.925 111.94 11.9355L111.955 17.7848ZM135.236 18.9189C139.148 19.3011 143.012 19.771 146.819 20.3153L147.647 14.5248C143.758 13.9688 139.807 13.4883 135.805 13.0973L135.236 18.9189ZM158.349 22.2122C162.251 22.9368 166.074 23.7295 169.806 24.5739L171.097 18.8688C167.295 18.0085 163.397 17.2004 159.417 16.4612L158.349 22.2122ZM181.164 27.3663C185.052 28.3972 188.81 29.4703 192.42 30.5637L194.115 24.9655C190.444 23.8534 186.62 22.7616 182.664 21.7124L181.164 27.3663ZM203.57 34.1468C207.497 35.4813 211.182 36.8108 214.595 38.0973L216.658 32.6239C213.189 31.3163 209.444 29.9651 205.452 28.6086L203.57 34.1468ZM225.486 42.4079C227.429 43.2143 229.215 43.9762 230.834 44.68L233.166 39.3157C231.52 38.6001 229.704 37.8253 227.728 37.0054L225.486 42.4079ZM230.834 44.68C232.615 45.4545 234.37 46.2138 236.098 46.9578L238.411 41.5851C236.69 40.844 234.942 40.0876 233.166 39.3157L230.834 44.68ZM246.502 51.3843C250.1 52.8957 253.577 54.3343 256.942 55.702L259.145 50.2832C255.803 48.9249 252.346 47.495 248.767 45.9914L246.502 51.3843ZM267.437 59.8777C271.131 61.3127 274.682 62.6522 278.103 63.8989L280.105 58.4031C276.727 57.172 273.215 55.8472 269.555 54.4253L267.437 59.8777ZM288.798 67.6337C292.594 68.8954 296.224 70.0282 299.713 71.0366L301.337 65.4172C297.931 64.4326 294.374 63.3232 290.644 62.0831L288.798 67.6337ZM310.778 73.9276C314.697 74.8323 318.444 75.5593 322.061 76.117L322.952 70.336C319.49 69.8023 315.886 69.1035 312.094 68.2282L310.778 73.9276ZM333.547 77.3509C337.506 77.5803 341.346 77.5898 345.133 77.3947L344.832 71.5531C341.26 71.7371 337.634 71.7286 333.885 71.5114L333.547 77.3509ZM356.656 76.1719C360.392 75.5775 364.134 74.798 367.951 73.8524L366.544 68.1747C362.866 69.0861 359.287 69.8304 355.737 70.3952L356.656 76.1719ZM378.985 70.7547C382.466 69.6781 386.054 68.4886 389.79 67.1987L387.882 61.6696C384.187 62.9451 380.661 64.1135 377.257 65.1666L378.985 70.7547ZM400.474 63.4064C403.856 62.1816 407.377 60.8912 411.056 59.5436L409.045 54.0511C405.362 55.3999 401.852 56.6862 398.482 57.9065L400.474 63.4064ZM421.652 55.6765C423.395 55.0446 425.173 54.4025 426.988 53.7507L425.012 48.2454C423.189 48.8996 421.405 49.5439 419.658 50.1777L421.652 55.6765Z" fill="#F9DD00"/>
</svg>
