<svg width="390" height="276" viewBox="0 0 390 276" fill="none" xmlns="http://www.w3.org/2000/svg">
<g clip-path="url(#clip0_539_6305)">
<path d="M222.523 255.535C204.431 260.22 174.557 241.744 150.246 210.499C122.035 174.488 112.773 136.237 129.02 123.59C131.037 121.957 133.425 120.895 136.128 120.195C154.22 115.511 184.094 133.987 208.405 165.232C236.616 201.242 245.878 239.493 229.631 252.14C227.406 253.827 225.018 254.889 222.523 255.535ZM138.289 128.52C136.833 128.897 135.432 129.482 134.346 130.43C123.843 138.702 130.553 171.394 156.922 205.438C181.549 237.046 207.938 250.649 220.208 247.472C221.664 247.095 223.065 246.51 224.151 245.562C234.654 237.29 227.944 204.598 201.575 170.554C176.948 138.947 150.558 125.344 138.289 128.52Z" fill="#003465"/>
<path d="M167.198 229.657L165.094 227.536C159.937 222.207 154.935 216.616 150.087 210.763C145.446 204.856 141.114 198.425 137.251 192.094L135.717 189.604L137.572 187.346C138.55 185.983 139.79 184.773 141.083 183.772L153.604 173.866C155.984 171.917 158.733 170.539 161.853 169.731C170.587 167.47 179.841 170.627 185.221 177.675L190.286 184.361C197.933 194.154 196.291 208.352 186.511 215.993L173.99 225.899C172.697 226.9 171.141 227.747 169.585 228.594L167.198 229.657ZM146.564 190.35C149.632 195.331 153.171 200.412 157.071 205.178C160.763 209.998 164.818 214.501 169.08 218.951L169.288 218.897L181.809 208.991C187.915 204.3 188.928 195.375 184.287 189.468L179.223 182.783C175.847 178.325 170.045 176.496 164.638 177.896C162.766 178.38 161.002 179.281 159.501 180.336L146.564 190.35Z" fill="#003465"/>
<path d="M146.369 317.908C142.209 318.985 137.826 318.343 134.004 316.445L93.8806 294.401L89.0678 298.091C78.3563 306.417 62.7557 304.459 54.2149 293.786L46.1981 283.422C37.8654 272.696 39.8067 257.088 50.4641 248.553L83.6844 222.626C84.0463 222.31 121.426 195.305 121.091 141.857L129.742 141.839C130.164 199.041 91.4443 227.725 88.8029 229.519L55.5827 255.447C48.5983 261.031 47.2321 271.159 52.8206 278.153L61.0993 288.672C66.6878 295.666 76.8109 297.043 83.7953 291.459L93.0051 284.187L137.998 308.746C139.832 309.827 142.128 310.121 144.153 309.374C146.233 308.836 148.043 307.256 149.12 305.423C151.221 301.547 149.871 296.343 145.787 294.29L106.974 273.018L116.392 265.693C118.925 263.482 156.064 232.986 211.436 247.083L209.376 255.391C161.107 243.009 127.409 267.95 122.596 271.639L149.781 286.592C157.849 291.167 160.912 301.259 156.402 309.535C154.301 313.411 150.628 316.361 146.315 317.7C146.577 317.854 146.369 317.908 146.369 317.908Z" fill="#003465"/>
<mask id="mask0_539_6305" style="mask-type:luminance" maskUnits="userSpaceOnUse" x="181" y="0" width="209" height="192">
<path d="M253.339 5.58945C250.546 7.73941 247.967 10.5344 246.463 13.9743C227.339 57.1887 181.355 191.132 181.355 191.132C181.355 191.132 322.529 179.522 368.942 171.567C372.595 170.922 376.033 169.202 378.827 166.837C400.314 150.067 389.57 100.403 354.975 55.8987C320.38 11.3944 274.827 -11.1803 253.339 5.58945Z" fill="white"/>
</mask>
<g mask="url(#mask0_539_6305)">
<path d="M253.339 5.58945C250.546 7.73941 247.967 10.5344 246.463 13.9743C227.339 57.1887 181.355 191.132 181.355 191.132C181.355 191.132 322.529 179.522 368.942 171.567C372.595 170.922 376.033 169.202 378.827 166.837C400.314 150.067 389.57 100.403 354.975 55.8987C320.38 11.3944 274.827 -11.1803 253.339 5.58945Z" fill="#F9DD00"/>
</g>
<mask id="mask1_539_6305" style="mask-type:luminance" maskUnits="userSpaceOnUse" x="181" y="0" width="209" height="192">
<path d="M253.339 5.58945C250.546 7.73941 247.967 10.5344 246.463 13.9743C227.339 57.1887 181.355 191.132 181.355 191.132C181.355 191.132 322.529 179.522 368.942 171.567C372.595 170.922 376.033 169.202 378.827 166.837C400.314 150.067 389.57 100.403 354.975 55.8987C320.38 11.3944 274.827 -11.1803 253.339 5.58945Z" fill="white"/>
</mask>
<g mask="url(#mask1_539_6305)">
<path d="M248.827 54.1787C256.348 54.1787 264.728 58.0486 266.662 67.5085H257.207C255.703 64.2836 252.695 62.9936 248.827 62.9936C242.811 62.9936 238.943 67.7235 238.943 73.3134C238.943 79.5483 243.24 83.6333 248.827 83.6333C252.695 83.6333 255.703 82.5583 257.422 79.1183H249.472V70.7335H267.092C267.307 74.3884 267.307 78.0433 266.017 81.6983C263.439 89.4382 255.703 92.4481 248.827 92.4481C239.373 92.4481 229.059 85.9982 229.059 73.3134C229.273 60.6286 239.373 54.1787 248.827 54.1787Z" fill="#003465"/>
<path d="M298.464 63.2089C292.878 63.2089 290.084 63.2089 284.712 63.2089V68.5839H297.39C297.39 71.3788 297.39 74.1738 297.39 77.1837H284.712C284.712 79.3337 284.712 81.4837 284.712 83.8486C290.299 83.8486 293.522 83.8486 299.109 83.8486C299.109 86.6436 299.109 89.4385 299.109 92.4485C290.299 92.4485 283.853 92.4485 275.258 92.4485C275.258 79.9787 275.258 67.5089 275.258 55.0391C283.853 55.0391 289.869 55.0391 298.679 55.0391C298.464 57.404 298.464 60.414 298.464 63.2089Z" fill="#003465"/>
<path d="M305.34 63.2083C305.34 60.4133 305.34 57.4034 305.34 54.6084H333.059C333.059 57.4034 333.059 60.1983 333.059 63.2083H323.819V92.0178C320.596 92.0178 317.588 92.0178 314.365 92.0178V63.2083H305.34Z" fill="#003465"/>
<path d="M246.464 120.613H246.679L255.274 99.3281H264.513V100.833L248.612 137.168H244.53L228.414 100.833V99.3281H237.654L246.464 120.613Z" fill="#003465"/>
<path d="M300.827 125.773C300.827 123.193 297.818 122.548 293.95 122.333C285.785 121.688 280.413 118.893 280.413 110.938C280.198 94.8135 309.207 94.8135 308.992 110.938C305.554 110.938 303.19 110.938 299.967 110.938C299.967 105.993 289.868 106.423 289.653 110.938C289.438 113.733 292.231 114.378 295.67 114.808C303.19 115.668 310.281 116.743 310.281 125.988C310.281 141.683 279.769 141.898 279.984 125.558C283.207 125.558 286 125.558 289.223 125.558C289.223 130.073 300.827 130.073 300.827 125.773Z" fill="#003465"/>
<path d="M263.439 161.892C266.448 163.397 267.952 166.192 267.952 169.631C267.952 176.081 263.869 181.456 256.348 181.456H238.729V144.047H254.629C261.076 144.047 266.233 148.992 266.233 155.442C266.448 157.807 265.158 160.387 263.439 161.892ZM247.968 152.647V158.667H253.985C257.852 158.667 257.852 152.647 253.985 152.647H247.968ZM247.968 166.622V173.071H255.704C259.571 173.071 259.571 166.622 255.704 166.622H247.968Z" fill="#003465"/>
<path d="M282.562 172.856H296.099C296.099 176.081 296.099 178.231 296.099 181.456C288.364 181.456 280.413 181.456 272.893 181.456V144.047C276.116 144.047 279.339 144.047 282.562 144.047C282.562 163.397 282.562 156.947 282.562 172.856Z" fill="#003465"/>
<path d="M324.035 152.647C318.448 152.647 315.655 152.647 310.283 152.647V158.022H322.96C322.96 160.817 322.96 163.612 322.96 166.622H310.283C310.283 168.772 310.283 170.922 310.283 173.287C315.869 173.287 318.663 173.287 324.25 173.287C324.25 176.082 324.25 178.877 324.25 181.887C315.44 181.887 309.423 181.887 300.828 181.887C300.828 169.417 300.828 156.947 300.828 144.478C309.423 144.478 315.44 144.478 324.25 144.478C324.035 146.843 324.035 149.637 324.035 152.647Z" fill="#003465"/>
<path d="M276.117 99.3281H266.662V136.738H276.117V99.3281Z" fill="#003465"/>
<path d="M324.035 99.3281H314.58V136.738H324.035V99.3281Z" fill="#003465"/>
</g>
<mask id="mask2_539_6305" style="mask-type:luminance" maskUnits="userSpaceOnUse" x="181" y="0" width="209" height="192">
<path d="M253.339 5.58945C250.546 7.73941 247.967 10.5344 246.463 13.9743C227.339 57.1887 181.355 191.132 181.355 191.132C181.355 191.132 322.529 179.522 368.942 171.567C372.595 170.922 376.033 169.202 378.827 166.837C400.314 150.067 389.57 100.403 354.975 55.8987C320.38 11.3944 274.827 -11.1803 253.339 5.58945Z" fill="white"/>
</mask>
<g mask="url(#mask2_539_6305)">
<path d="M233.786 49.0182C232.067 48.3732 230.563 47.2983 229.488 45.7933L234.001 40.4184C235.505 42.3533 237.224 43.4283 238.943 43.4283C240.232 43.4283 241.092 42.9983 241.736 42.3533C242.381 41.7083 242.596 40.6334 242.596 39.1284V26.6586H232.497V20.6387H250.546V38.9134C250.546 42.5683 249.687 45.5783 247.753 47.2983C245.819 49.2332 243.025 50.0932 239.373 50.0932C237.439 50.0932 235.505 49.8782 233.786 49.0182Z" fill="#003465"/>
<path d="M258.926 46.6533C256.563 44.2883 255.273 41.0634 255.273 36.7634V20.6387H263.439V36.5484C263.439 41.2784 265.373 43.4283 269.025 43.4283C272.678 43.4283 274.397 41.0634 274.397 36.5484V20.6387H282.563V36.7634C282.563 41.0634 281.273 44.2883 278.91 46.6533C276.546 49.0182 273.108 50.0932 268.811 50.0932C264.513 50.0932 261.29 49.0182 258.926 46.6533Z" fill="#003465"/>
<path d="M290.727 49.2337C288.579 48.5887 286.645 47.9437 285.355 46.8687L288.149 40.8488C289.438 41.7088 290.942 42.3538 292.661 42.9988C294.38 43.4288 296.099 43.8588 297.603 43.8588C300.827 43.8588 302.331 42.9988 302.331 41.4938C302.331 40.6338 301.901 39.9888 301.041 39.5588C300.182 39.1288 298.678 38.6989 296.744 38.2689C294.595 37.8389 292.661 37.1939 291.372 36.7639C289.868 36.1189 288.579 35.2589 287.504 34.1839C286.43 32.8939 286 31.389 286 29.454C286 27.734 286.43 26.014 287.504 24.7241C288.364 23.2191 289.868 22.1441 291.802 21.2841C293.736 20.4241 296.099 19.9941 298.893 19.9941C300.827 19.9941 302.76 20.2091 304.479 20.6391C306.413 21.0691 307.917 21.7141 309.422 22.5741L306.843 28.594C304.05 27.089 301.471 26.444 298.893 26.444C297.174 26.444 296.099 26.659 295.24 27.089C294.595 27.519 294.165 28.164 294.165 29.024C294.165 29.884 294.595 30.314 295.455 30.744C296.314 31.174 297.818 31.604 299.752 32.034C301.901 32.4639 303.835 33.1089 305.124 33.5389C306.628 34.1839 307.917 34.8289 308.992 36.1189C310.066 37.1939 310.496 38.9138 310.496 40.8488C310.496 42.5688 310.066 44.0738 308.992 45.5787C307.917 47.0837 306.628 48.1587 304.694 49.0187C302.76 49.8787 300.397 50.3087 297.603 50.3087C295.24 50.0937 293.091 49.8787 290.727 49.2337Z" fill="#003465"/>
<path d="M319.306 27.0886H310.496V20.6387H336.496V27.0886H327.686V49.4482H319.521V27.0886H319.306Z" fill="#003465"/>
</g>
</g>
<defs>
<clipPath id="clip0_539_6305">
<rect width="390" height="324" fill="white"/>
</clipPath>
</defs>
</svg>
