<svg width="340" height="246" viewBox="0 0 340 246" fill="none" xmlns="http://www.w3.org/2000/svg">
<path d="M35.2583 210.616C38.7255 212.776 42.5935 214.342 46.8003 214.592C99.5246 217.928 258.127 214.32 258.127 214.32C258.127 214.32 191.122 70.6673 164.755 24.9412C162.657 21.2983 159.524 18.522 156.056 16.3621C130.163 0.27581 82.1178 30.7444 48.7784 84.3875C15.4389 138.031 9.36888 194.561 35.2583 210.616Z" fill="#F9DD00"/>
<path d="M326.087 221.952H41.0206C34.9341 221.952 30 226.886 30 232.973V232.979C30 239.066 34.9341 244 41.0206 244H326.087C332.173 244 337.107 239.066 337.107 232.979V232.973C337.107 226.886 332.173 221.952 326.087 221.952Z" stroke="#003465" stroke-width="4" stroke-miterlimit="10" stroke-linecap="round"/>
<path d="M293.601 45H73.4995C63.2515 45 54.9438 53.3076 54.9438 63.5556V203.397C54.9438 213.645 63.2515 221.952 73.4995 221.952H293.601C303.849 221.952 312.157 213.645 312.157 203.397V63.5556C312.157 53.3076 303.849 45 293.601 45Z" stroke="#003465" stroke-width="4" stroke-miterlimit="10" stroke-linecap="round"/>
<path d="M294.515 61.9748H72.5859V204.977H294.515V61.9748Z" stroke="#003465" stroke-width="4" stroke-miterlimit="10" stroke-linecap="round"/>
<path d="M170.055 53.1569H197.052" stroke="#003465" stroke-width="4" stroke-miterlimit="10" stroke-linecap="round"/>
<path d="M183.544 104.723C183.544 104.554 183.544 104.464 183.544 104.464V104.723Z" stroke="#003465" stroke-width="4" stroke-miterlimit="10" stroke-linecap="round"/>
<path d="M213.774 147.989L203.279 184.679H163.796L153.3 147.989C183.531 134.629 183.537 104.457 183.537 104.457V104.476C183.537 104.509 183.537 104.593 183.537 104.723C183.537 104.775 183.537 104.826 183.537 104.891C183.68 108.623 185.662 135.569 213.768 147.989H213.774Z" stroke="#003465" stroke-width="4" stroke-miterlimit="10" stroke-linecap="round"/>
<path d="M183.122 171.702C189.069 171.702 193.89 166.881 193.89 160.934C193.89 154.987 189.069 150.166 183.122 150.166C177.175 150.166 172.354 154.987 172.354 160.934C172.354 166.881 177.175 171.702 183.122 171.702Z" stroke="#003465" stroke-width="4" stroke-miterlimit="10" stroke-linecap="round"/>
<path d="M183.123 149.848L183.537 104.723" stroke="#003465" stroke-width="4" stroke-miterlimit="10" stroke-linecap="round"/>
<path d="M190.405 89.7758C216.178 93.0477 236.276 114.499 237.429 140.875" stroke="#003465" stroke-width="4" stroke-miterlimit="10" stroke-linecap="round"/>
<path d="M129.678 140.875C130.825 114.655 150.702 93.2938 176.262 89.834" stroke="#003465" stroke-width="4" stroke-miterlimit="10" stroke-linecap="round"/>
<path d="M132.924 140.875H127.184C124.862 140.875 122.979 142.758 122.979 145.08V150.82C122.979 153.142 124.862 155.025 127.184 155.025H132.924C135.246 155.025 137.129 153.142 137.129 150.82V145.08C137.129 142.758 135.246 140.875 132.924 140.875Z" stroke="#003465" stroke-width="4" stroke-miterlimit="10" stroke-linecap="round"/>
<path d="M239.632 140.875H234.474C231.991 140.875 229.978 142.888 229.978 145.371V150.529C229.978 153.012 231.991 155.025 234.474 155.025H239.632C242.115 155.025 244.128 153.012 244.128 150.529V145.371C244.128 142.888 242.115 140.875 239.632 140.875Z" stroke="#003465" stroke-width="4" stroke-miterlimit="10" stroke-linecap="round"/>
<path d="M186.479 82.2732H180.181C178.013 82.2732 176.255 84.0311 176.255 86.1994V92.497C176.255 94.6653 178.013 96.4232 180.181 96.4232H186.479C188.647 96.4232 190.405 94.6653 190.405 92.497V86.1994C190.405 84.0311 188.647 82.2732 186.479 82.2732Z" stroke="#003465" stroke-width="4" stroke-miterlimit="10" stroke-linecap="round"/>
</svg>
