<svg width="69" height="69" viewBox="0 0 69 69" fill="none" xmlns="http://www.w3.org/2000/svg">
<path d="M34.5 69C15.5032 69 0 53.4968 0 34.5C0 15.5032 15.5032 0 34.5 0C53.4968 0 69 15.5032 69 34.5C69 53.4968 53.4968 69 34.5 69ZM34.5 13.7563C23.1456 13.7563 13.7564 22.9272 13.7564 34.5C13.7564 45.8544 23.1456 55.2437 34.5 55.2437C45.8544 55.2437 55.2436 46.0728 55.2436 34.5C55.2436 23.1456 46.0727 13.7563 34.5 13.7563Z" fill="#F9DD00"/>
<path d="M34.5 52C24.864 52 17 44.1361 17 34.5C17 24.8639 24.864 17 34.5 17C44.136 17 52 24.8639 52 34.5C52 44.1361 44.136 52 34.5 52Z" fill="white"/>
</svg>
