<svg width="704" height="481" viewBox="0 0 704 481" fill="none" xmlns="http://www.w3.org/2000/svg">
<path d="M448.398 171.154V188.56C448.398 208.183 464.363 224.148 483.987 224.148C503.61 224.148 519.575 208.183 519.575 188.56V135.565" stroke="white" stroke-width="6.95588" stroke-miterlimit="10" stroke-linecap="round"/>
<path d="M459.594 214.502V263.727L483.985 299.094L508.265 263.727V214.502" stroke="white" stroke-width="6.95588" stroke-miterlimit="10" stroke-linecap="round"/>
<path d="M519.575 135.565H483.987L448.398 171.154L440.416 179.136" stroke="white" stroke-width="6.95588" stroke-miterlimit="10" stroke-linecap="round"/>
<path d="M448.398 181.464C445.626 181.02 442.965 180.244 440.415 179.136C426.113 173.26 416.024 159.18 416.024 142.771C416.024 121.152 433.652 103.524 455.271 103.524C461.369 103.524 467.245 104.965 472.456 107.405C480.438 98.3134 492.079 92.6592 505.051 92.6592C528.998 92.6592 548.511 112.061 548.511 136.119C548.511 154.967 536.426 171.042 519.685 177.029" stroke="white" stroke-width="6.95588" stroke-miterlimit="10" stroke-linecap="round"/>
<path d="M508.821 234.383H557.599" stroke="white" stroke-width="6.95588" stroke-miterlimit="10" stroke-linecap="round"/>
<path d="M380.294 400.264V477.428H571.872V356.922" stroke="white" stroke-width="6.95588" stroke-miterlimit="10" stroke-linecap="round"/>
<path d="M457.663 233.854H411.224C398.364 233.854 387.277 241.725 382.621 253.034" stroke="white" stroke-width="6.95588" stroke-miterlimit="10" stroke-linecap="round"/>
<path d="M612.559 344.472L579.52 278.285L633.845 251.122L695.155 373.852C702.694 388.819 696.596 407.112 681.629 414.54C671.208 419.751 659.123 418.421 650.254 411.99L570.685 355.137" stroke="white" stroke-width="6.95588" stroke-miterlimit="10" stroke-linecap="round"/>
<path d="M382.618 253.033L346.364 315.008L306.785 388.291C301.02 398.934 301.907 411.906 309.002 421.773C320.532 437.738 343.593 439.29 357.229 425.21L438.495 341.173L395.257 298.6L372.529 321.771" stroke="white" stroke-width="6.95588" stroke-miterlimit="10" stroke-linecap="round"/>
<path d="M626.528 211.543C630.63 217.53 633.069 224.736 633.069 232.608C633.069 241.255 630.076 249.238 625.198 255.557" stroke="white" stroke-width="6.95588" stroke-miterlimit="10" stroke-linecap="round"/>
<g clip-path="url(#clip0_383_1873)">
<path d="M595.693 90.4285L562.464 151.433L562.464 216.537L629.087 216.537L629.087 151.433L595.693 90.4285ZM569.044 153.237L595.693 104.204L622.343 153.237L622.343 209.978L569.044 209.977L569.044 153.237Z" fill="white"/>
<path d="M595.693 97.3167L584.507 117.979L607.044 117.979L595.693 97.3167Z" fill="white"/>
<path d="M626.619 155.532L564.931 155.532L564.931 148.973L626.619 148.973L626.619 155.532Z" fill="white"/>
<path d="M583.355 213.258L576.774 213.258L576.774 152.253L583.355 152.253L583.355 213.258Z" fill="white"/>
<path d="M614.774 213.258L608.194 213.258L608.194 152.253L614.774 152.253L614.774 213.258Z" fill="white"/>
</g>
<path d="M562.559 216.31C562.448 216.642 562.226 216.975 562.115 217.307C560.009 221.964 558.789 227.175 558.789 232.607C558.789 253.117 575.42 269.748 595.93 269.748C596.263 269.748 596.484 269.748 596.706 269.748" stroke="white" stroke-width="6.95588" stroke-miterlimit="10" stroke-linecap="round"/>
<path d="M438.052 341.504C449.25 336.515 457.011 325.318 457.011 312.235C457.011 294.497 442.598 280.084 424.859 280.084C411.777 280.084 400.579 287.845 395.59 298.931" stroke="white" stroke-width="6.95588" stroke-miterlimit="10" stroke-linecap="round"/>
<path d="M483.243 354.543C487.45 354.543 490.976 352.545 490.976 350.013V334.09C490.976 331.625 487.564 329.56 483.243 329.56C479.035 329.56 475.509 331.558 475.509 334.09V350.013C475.509 352.545 479.035 354.543 483.243 354.543Z" stroke="white" stroke-width="6.95588" stroke-miterlimit="10" stroke-linecap="round"/>
<path d="M483.243 415.218C487.45 415.218 490.976 413.219 490.976 410.688V394.765C490.976 392.3 487.564 390.234 483.243 390.234C479.035 390.234 475.509 392.233 475.509 394.765V410.688C475.509 413.219 479.035 415.218 483.243 415.218Z" stroke="white" stroke-width="6.95588" stroke-miterlimit="10" stroke-linecap="round"/>
<path d="M135.315 456.279C143.443 455.471 151.483 453.234 158.453 448.497C239.937 373.317 426.796 194.796 426.796 194.796C426.796 194.796 208.699 54.6589 113.964 4.1058C106.195 0.894061 97.8438 0.317552 89.7153 1.12539C29.0639 7.2287 -9.88704 114.119 2.73522 239.787C15.3575 365.454 74.7081 462.427 135.315 456.279Z" fill="#F9DD00"/>
<defs>
<clipPath id="clip0_383_1873">
<rect width="66.6234" height="126.109" fill="white" transform="matrix(1 8.74228e-08 8.74228e-08 -1 562.462 216.537)"/>
</clipPath>
</defs>
</svg>
