<svg width="390" height="324" viewBox="0 0 390 324" fill="none" xmlns="http://www.w3.org/2000/svg">
<g clip-path="url(#clip0_6433_4188)">
<path d="M222.523 255.538C204.431 260.223 174.557 241.746 150.246 210.502C122.035 174.491 112.773 136.24 129.02 123.593C131.037 121.96 133.425 120.898 136.128 120.198C154.22 115.513 184.094 133.99 208.405 165.234C236.616 201.245 245.878 239.496 229.631 252.143C227.406 253.83 225.018 254.892 222.523 255.538ZM138.289 128.523C136.833 128.9 135.432 129.485 134.346 130.433C123.843 138.705 130.553 171.397 156.922 205.441C181.549 237.049 207.938 250.651 220.208 247.475C221.664 247.098 223.065 246.513 224.151 245.565C234.654 237.293 227.944 204.601 201.575 170.557C176.948 138.95 150.558 125.347 138.289 128.523Z" fill="#003465"/>
<path d="M167.198 229.658L165.094 227.537C159.937 222.208 154.935 216.617 150.087 210.764C145.446 204.857 141.114 198.426 137.251 192.095L135.717 189.605L137.572 187.347C138.55 185.984 139.79 184.774 141.083 183.773L153.604 173.867C155.984 171.918 158.733 170.54 161.853 169.732C170.587 167.471 179.841 170.628 185.221 177.676L190.286 184.362C197.933 194.155 196.291 208.353 186.511 215.994L173.99 225.9C172.697 226.901 171.141 227.748 169.585 228.595L167.198 229.658ZM146.564 190.351C149.632 195.332 153.171 200.413 157.071 205.179C160.763 209.999 164.818 214.502 169.08 218.952L169.288 218.898L181.809 208.992C187.915 204.301 188.928 195.376 184.287 189.469L179.223 182.784C175.847 178.326 170.045 176.497 164.638 177.896C162.766 178.381 161.002 179.282 159.501 180.337L146.564 190.351Z" fill="#003465"/>
<path d="M146.369 317.91C142.209 318.987 137.826 318.345 134.004 316.447L93.8806 294.403L89.0678 298.093C78.3562 306.419 62.7557 304.461 54.2149 293.788L46.1981 283.424C37.8654 272.698 39.8067 257.09 50.4641 248.555L83.6844 222.627C84.0463 222.312 121.426 195.307 121.091 141.859L129.742 141.841C130.164 199.043 91.4443 227.727 88.8029 229.521L55.5827 255.449C48.5983 261.033 47.2321 271.161 52.8206 278.155L61.0993 288.674C66.6878 295.668 76.8109 297.045 83.7953 291.461L93.0051 284.189L137.998 308.748C139.832 309.829 142.128 310.123 144.153 309.376C146.233 308.838 148.043 307.258 149.12 305.425C151.221 301.548 149.871 296.345 145.787 294.292L106.974 273.02L116.392 265.695C118.925 263.484 156.064 232.988 211.436 247.085L209.376 255.393C161.107 243.011 127.409 267.951 122.596 271.641L149.781 286.594C157.849 291.169 160.912 301.261 156.402 309.537C154.301 313.413 150.628 316.363 146.315 317.702C146.577 317.856 146.369 317.91 146.369 317.91Z" fill="#003465"/>
<mask id="mask0_6433_4188" style="mask-type:luminance" maskUnits="userSpaceOnUse" x="181" y="0" width="209" height="192">
<path d="M253.339 5.58945C250.546 7.73941 247.967 10.5344 246.463 13.9743C227.339 57.1887 181.355 191.132 181.355 191.132C181.355 191.132 322.529 179.522 368.942 171.567C372.595 170.922 376.033 169.202 378.827 166.837C400.314 150.067 389.57 100.403 354.975 55.8987C320.38 11.3944 274.827 -11.1803 253.339 5.58945Z" fill="white"/>
</mask>
<g mask="url(#mask0_6433_4188)">
<path d="M253.339 5.58945C250.546 7.73941 247.967 10.5344 246.463 13.9743C227.339 57.1887 181.355 191.132 181.355 191.132C181.355 191.132 322.529 179.522 368.942 171.567C372.595 170.922 376.033 169.202 378.827 166.837C400.314 150.067 389.57 100.403 354.975 55.8987C320.38 11.3944 274.827 -11.1803 253.339 5.58945Z" fill="#003465"/>
</g>
<mask id="mask1_6433_4188" style="mask-type:luminance" maskUnits="userSpaceOnUse" x="181" y="0" width="209" height="192">
<path d="M253.339 5.58945C250.546 7.73941 247.967 10.5344 246.463 13.9743C227.339 57.1887 181.355 191.132 181.355 191.132C181.355 191.132 322.529 179.522 368.942 171.567C372.595 170.922 376.033 169.202 378.827 166.837C400.314 150.067 389.57 100.403 354.975 55.8987C320.38 11.3944 274.827 -11.1803 253.339 5.58945Z" fill="white"/>
</mask>
<g mask="url(#mask1_6433_4188)">
<path d="M248.827 54.1797C256.348 54.1797 264.728 58.0496 266.662 67.5095H257.207C255.703 64.2845 252.695 62.9945 248.827 62.9945C242.811 62.9945 238.943 67.7245 238.943 73.3144C238.943 79.5493 243.24 83.6342 248.827 83.6342C252.695 83.6342 255.703 82.5592 257.422 79.1193H249.472V70.7344H267.092C267.307 74.3894 267.307 78.0443 266.017 81.6993C263.439 89.4391 255.703 92.4491 248.827 92.4491C239.373 92.4491 229.059 85.9992 229.059 73.3144C229.273 60.6296 239.373 54.1797 248.827 54.1797Z" fill="white"/>
<path d="M298.464 63.2089C292.878 63.2089 290.084 63.2089 284.712 63.2089V68.5839H297.39C297.39 71.3788 297.39 74.1738 297.39 77.1837H284.712C284.712 79.3337 284.712 81.4837 284.712 83.8486C290.299 83.8486 293.522 83.8486 299.109 83.8486C299.109 86.6436 299.109 89.4385 299.109 92.4485C290.299 92.4485 283.853 92.4485 275.258 92.4485C275.258 79.9787 275.258 67.5089 275.258 55.0391C283.853 55.0391 289.869 55.0391 298.679 55.0391C298.464 57.404 298.464 60.414 298.464 63.2089Z" fill="white"/>
<path d="M305.34 63.2092C305.34 60.4143 305.34 57.4043 305.34 54.6094H333.059C333.059 57.4043 333.059 60.1993 333.059 63.2092H323.819V92.0188C320.596 92.0188 317.588 92.0188 314.365 92.0188V63.2092H305.34Z" fill="white"/>
<path d="M246.464 120.613H246.679L255.274 99.3281H264.513V100.833L248.612 137.168H244.53L228.414 100.833V99.3281H237.654L246.464 120.613Z" fill="white"/>
<path d="M300.827 125.772C300.827 123.192 297.818 122.547 293.95 122.332C285.785 121.687 280.413 118.892 280.413 110.937C280.198 94.8126 309.207 94.8126 308.992 110.937C305.554 110.937 303.19 110.937 299.967 110.937C299.967 105.992 289.868 106.422 289.653 110.937C289.438 113.732 292.231 114.377 295.67 114.807C303.19 115.667 310.281 116.742 310.281 125.987C310.281 141.682 279.769 141.897 279.984 125.557C283.207 125.557 286 125.557 289.223 125.557C289.223 130.072 300.827 130.072 300.827 125.772Z" fill="white"/>
<path d="M263.439 161.892C266.448 163.397 267.952 166.192 267.952 169.631C267.952 176.081 263.869 181.456 256.348 181.456H238.729V144.047H254.629C261.076 144.047 266.233 148.992 266.233 155.442C266.448 157.807 265.158 160.387 263.439 161.892ZM247.968 152.647V158.667H253.985C257.852 158.667 257.852 152.647 253.985 152.647H247.968ZM247.968 166.622V173.071H255.704C259.571 173.071 259.571 166.622 255.704 166.622H247.968Z" fill="white"/>
<path d="M282.562 172.856H296.099C296.099 176.081 296.099 178.231 296.099 181.456C288.364 181.456 280.413 181.456 272.893 181.456V144.047C276.116 144.047 279.339 144.047 282.562 144.047C282.562 163.397 282.562 156.947 282.562 172.856Z" fill="white"/>
<path d="M324.035 152.646C318.448 152.646 315.655 152.646 310.283 152.646V158.021H322.96C322.96 160.816 322.96 163.611 322.96 166.621H310.283C310.283 168.771 310.283 170.921 310.283 173.286C315.869 173.286 318.663 173.286 324.25 173.286C324.25 176.081 324.25 178.876 324.25 181.886C315.44 181.886 309.423 181.886 300.828 181.886C300.828 169.416 300.828 156.946 300.828 144.477C309.423 144.477 315.44 144.477 324.25 144.477C324.035 146.842 324.035 149.636 324.035 152.646Z" fill="white"/>
<path d="M276.117 99.3281H266.662V136.738H276.117V99.3281Z" fill="white"/>
<path d="M324.035 99.3281H314.58V136.738H324.035V99.3281Z" fill="white"/>
</g>
<mask id="mask2_6433_4188" style="mask-type:luminance" maskUnits="userSpaceOnUse" x="181" y="0" width="209" height="192">
<path d="M253.339 5.58945C250.546 7.73941 247.967 10.5344 246.463 13.9743C227.339 57.1887 181.355 191.132 181.355 191.132C181.355 191.132 322.529 179.522 368.942 171.567C372.595 170.922 376.033 169.202 378.827 166.837C400.314 150.067 389.57 100.403 354.975 55.8987C320.38 11.3944 274.827 -11.1803 253.339 5.58945Z" fill="white"/>
</mask>
<g mask="url(#mask2_6433_4188)">
<path d="M233.786 49.0163C232.067 48.3713 230.563 47.2963 229.488 45.7913L234.001 40.4164C235.505 42.3514 237.224 43.4264 238.943 43.4264C240.232 43.4264 241.092 42.9964 241.736 42.3514C242.381 41.7064 242.596 40.6314 242.596 39.1264V26.6566H232.497V20.6367H250.546V38.9114C250.546 42.5664 249.687 45.5763 247.753 47.2963C245.819 49.2313 243.025 50.0913 239.373 50.0913C237.439 50.0913 235.505 49.8763 233.786 49.0163Z" fill="white"/>
<path d="M258.926 46.6513C256.563 44.2864 255.273 41.0614 255.273 36.7615V20.6367H263.439V36.5465C263.439 41.2764 265.373 43.4264 269.025 43.4264C272.678 43.4264 274.397 41.0614 274.397 36.5465V20.6367H282.563V36.7615C282.563 41.0614 281.273 44.2864 278.91 46.6513C276.546 49.0163 273.108 50.0913 268.811 50.0913C264.513 50.0913 261.29 49.0163 258.926 46.6513Z" fill="white"/>
<path d="M290.727 49.2317C288.579 48.5867 286.645 47.9418 285.355 46.8668L288.149 40.8469C289.438 41.7069 290.942 42.3518 292.661 42.9968C294.38 43.4268 296.099 43.8568 297.603 43.8568C300.827 43.8568 302.331 42.9968 302.331 41.4919C302.331 40.6319 301.901 39.9869 301.041 39.5569C300.182 39.1269 298.678 38.6969 296.744 38.2669C294.595 37.8369 292.661 37.1919 291.372 36.7619C289.868 36.1169 288.579 35.257 287.504 34.182C286.43 32.892 286 31.387 286 29.452C286 27.7321 286.43 26.0121 287.504 24.7221C288.364 23.2171 289.868 22.1422 291.802 21.2822C293.736 20.4222 296.099 19.9922 298.893 19.9922C300.827 19.9922 302.76 20.2072 304.479 20.6372C306.413 21.0672 307.917 21.7122 309.422 22.5721L306.843 28.5921C304.05 27.0871 301.471 26.4421 298.893 26.4421C297.174 26.4421 296.099 26.6571 295.24 27.0871C294.595 27.5171 294.165 28.1621 294.165 29.022C294.165 29.882 294.595 30.312 295.455 30.742C296.314 31.172 297.818 31.602 299.752 32.032C301.901 32.462 303.835 33.107 305.124 33.537C306.628 34.182 307.917 34.827 308.992 36.1169C310.066 37.1919 310.496 38.9119 310.496 40.8469C310.496 42.5668 310.066 44.0718 308.992 45.5768C307.917 47.0818 306.628 48.1568 304.694 49.0167C302.76 49.8767 300.397 50.3067 297.603 50.3067C295.24 50.0917 293.091 49.8767 290.727 49.2317Z" fill="white"/>
<path d="M319.306 27.0866H310.496V20.6367H336.496V27.0866H327.686V49.4463H319.521V27.0866H319.306Z" fill="white"/>
</g>
</g>
<defs>
<clipPath id="clip0_6433_4188">
<rect width="390" height="324" fill="white"/>
</clipPath>
</defs>
</svg>
