<svg width="3640" height="59" viewBox="0 0 3640 59" fill="none" xmlns="http://www.w3.org/2000/svg">
<path d="M3640 21.0003L3606.94 14.118L3617.51 46.192L3640 21.0003ZM1821.6 51.7115C1822.96 51.1604 1824.68 50.5526 1826.76 49.8943L1825 44.3178C1822.83 45.0042 1820.95 45.6626 1819.4 46.2885L1821.6 51.7115ZM1837.81 46.7915C1841.18 45.9284 1844.93 45.0242 1849.04 44.0868L1847.74 38.3839C1843.59 39.3306 1839.79 40.2468 1836.36 41.1248L1837.81 46.7915ZM1860.36 41.6134C1863.97 40.8543 1867.78 40.08 1871.78 39.2939L1870.65 33.5547C1866.63 34.3452 1862.8 35.1245 1859.16 35.8891L1860.36 41.6134ZM1883.12 37.122C1886.8 36.4372 1890.6 35.7462 1894.52 35.0513L1893.5 29.2918C1889.56 29.9895 1885.74 30.6835 1882.05 31.3716L1883.12 37.122ZM1905.95 33.0721C1909.68 32.4411 1913.5 31.8086 1917.4 31.1762L1916.47 25.4021C1912.55 26.0367 1908.72 26.6715 1904.97 27.3048L1905.95 33.0721ZM1928.87 29.3573C1932.63 28.7732 1936.46 28.1905 1940.36 27.6104L1939.5 21.8249C1935.59 22.4068 1931.75 22.9913 1927.97 23.5772L1928.87 29.3573ZM1951.86 25.9322C1955.64 25.3927 1959.47 24.8566 1963.35 24.3249L1962.56 18.5297C1958.67 19.0629 1954.82 19.6006 1951.04 20.1416L1951.86 25.9322ZM1974.84 22.7837C1978.63 22.2854 1982.47 21.792 1986.34 21.3044L1985.61 15.5008C1981.72 15.9897 1977.88 16.4845 1974.07 16.9842L1974.84 22.7837ZM1997.87 19.8864C2001.68 19.4275 2005.53 18.9749 2009.41 18.5294L2008.75 12.7182C2004.85 13.1649 2000.99 13.6188 1997.17 14.0789L1997.87 19.8864ZM2020.96 17.2358C2024.77 16.8188 2028.62 16.4091 2032.48 16.0076L2031.88 10.1895C2028 10.5921 2024.15 11.0029 2020.32 11.4211L2020.96 17.2358ZM2044.03 14.8405C2047.86 14.4635 2051.72 14.095 2055.6 13.7358L2055.06 7.91146C2051.17 8.2717 2047.3 8.64117 2043.46 9.01918L2044.03 14.8405ZM2067.17 12.696C2071 12.3622 2074.85 12.0379 2078.72 11.7238L2078.25 5.89371C2074.37 6.20871 2070.51 6.53392 2066.66 6.86868L2067.17 12.696ZM2090.29 10.8177C2094.14 10.5276 2098 10.2481 2101.88 9.97985L2101.47 4.14451C2097.59 4.41357 2093.71 4.69391 2089.85 4.98489L2090.29 10.8177ZM2113.46 9.21329C2117.31 8.97019 2121.17 8.73876 2125.04 8.51963L2124.71 2.67967C2120.83 2.89952 2116.95 3.13169 2113.09 3.37556L2113.46 9.21329ZM2136.63 7.90081C2140.49 7.70746 2144.36 7.52694 2148.22 7.35986L2147.97 1.51599C2144.09 1.68365 2140.21 1.86479 2136.34 2.05879L2136.63 7.90081ZM2159.82 6.89973C2163.68 6.76005 2167.55 6.63444 2171.41 6.52352L2171.25 0.676596C2167.37 0.787942 2163.49 0.914018 2159.6 1.05421L2159.82 6.89973ZM2183.01 6.23506C2186.88 6.15383 2190.75 6.08803 2194.61 6.03826L2194.53 0.189414C2190.66 0.239387 2186.78 0.305463 2182.89 0.387014L2183.01 6.23506ZM2206.21 5.93746C2208.14 5.92896 2210.07 5.92467 2212 5.92467V0.0753341C2210.07 0.0753341 2208.13 0.0796426 2206.19 0.08818L2206.21 5.93746ZM2212 5.92467C2213.95 5.92467 2215.89 5.93335 2217.8 5.9505L2217.85 0.101401C2215.92 0.0840974 2213.97 0.0753341 2212 0.0753341V5.92467ZM2229.18 6.15665C2233.04 6.26293 2236.83 6.40472 2240.53 6.57989L2240.81 0.737081C2237.06 0.560071 2233.24 0.416854 2229.34 0.309523L2229.18 6.15665ZM2251.95 7.23899C2255.83 7.50409 2259.62 7.80635 2263.33 8.143L2263.86 2.31753C2260.1 1.97699 2256.27 1.67133 2252.35 1.40329L2251.95 7.23899ZM2274.68 9.30121C2278.53 9.73844 2282.29 10.2125 2285.99 10.7199L2286.79 4.92488C2283.05 4.41141 2279.23 3.93173 2275.34 3.48931L2274.68 9.30121ZM2297.26 12.4001C2301.07 13.0127 2304.81 13.6595 2308.49 14.3363L2309.55 8.58338C2305.83 7.89901 2302.04 7.24481 2298.19 6.62506L2297.26 12.4001ZM2319.68 16.5146C2323.44 17.2867 2327.16 18.0875 2330.83 18.9121L2332.11 13.2046C2328.41 12.3729 2324.66 11.5646 2320.86 10.7847L2319.68 16.5146ZM2341.96 21.4976C2345.68 22.3905 2349.38 23.3035 2353.06 24.2314L2354.49 18.5588C2350.79 17.6267 2347.07 16.7085 2343.32 15.8098L2341.96 21.4976ZM2364.16 27.0636C2367.84 28.0159 2371.53 28.9775 2375.24 29.9439L2376.72 24.2832C2373.01 23.3174 2369.31 22.3542 2365.62 21.4002L2364.16 27.0636ZM2386.35 32.8221C2390.02 33.7672 2393.73 34.7115 2397.48 35.6499L2398.9 29.9753C2395.16 29.041 2391.47 28.1001 2387.81 27.1573L2386.35 32.8221ZM2408.65 38.3842C2412.32 39.2635 2416.06 40.133 2419.85 40.9885L2421.14 35.2821C2417.37 34.4329 2413.66 33.5692 2410.01 32.6952L2408.65 38.3842ZM2431.1 43.434C2434.79 44.2067 2438.55 44.9633 2442.39 45.7002L2443.49 39.9559C2439.69 39.2254 2435.96 38.4752 2432.3 37.7088L2431.1 43.434ZM2453.71 47.7739C2457.42 48.4198 2461.2 49.0458 2465.06 49.6489L2465.97 43.8695C2462.14 43.2718 2458.39 42.6515 2454.71 42.0113L2453.71 47.7739ZM2476.45 51.3243C2480.19 51.8399 2484 52.3336 2487.89 52.8031L2488.59 46.9959C2484.73 46.5304 2480.95 46.041 2477.26 45.53L2476.45 51.3243ZM2499.37 54.0912C2503.11 54.4796 2506.93 54.8457 2510.83 55.1876L2511.34 49.3606C2507.47 49.0214 2503.68 48.6583 2499.97 48.2731L2499.37 54.0912ZM2522.25 56.1019C2526.01 56.3741 2529.83 56.6242 2533.74 56.8508L2534.07 51.0113C2530.2 50.7863 2526.4 50.5381 2522.67 50.2679L2522.25 56.1019ZM2545.31 57.4425C2549.05 57.6082 2552.85 57.7527 2556.73 57.8751L2556.92 52.0286C2553.06 51.9071 2549.28 51.7635 2545.57 51.5989L2545.31 57.4425ZM2568.22 58.1675C2572.02 58.2415 2575.89 58.2948 2579.82 58.3263L2579.87 52.4772C2575.96 52.4458 2572.11 52.3929 2568.33 52.3193L2568.22 58.1675ZM2591.2 58.3565C2594.99 58.3468 2598.84 58.3173 2602.76 58.2676L2602.69 52.4187C2598.79 52.4682 2594.96 52.4975 2591.19 52.5072L2591.2 58.3565ZM2614.22 58.0674C2616.15 58.0244 2618.11 57.9766 2620.08 57.9238L2619.92 52.0766C2617.96 52.1291 2616.02 52.1767 2614.09 52.2195L2614.22 58.0674ZM2620.08 57.9238C2622.08 57.8701 2624.08 57.8119 2626.06 57.7493L2625.87 51.9029C2623.9 51.9652 2621.92 52.0231 2619.92 52.0766L2620.08 57.9238ZM2637.78 57.3221C2641.77 57.1572 2645.7 56.9745 2649.58 56.7749L2649.28 50.9333C2645.42 51.1319 2641.5 51.3137 2637.53 51.4778L2637.78 57.3221ZM2661.24 56.1161C2665.24 55.8698 2669.18 55.6057 2673.06 55.325L2672.64 49.4909C2668.77 49.7701 2664.86 50.0328 2660.88 50.2778L2661.24 56.1161ZM2684.79 54.4135C2688.73 54.0858 2692.61 53.7411 2696.44 53.3809L2695.89 47.5573C2692.08 47.9156 2688.22 48.2583 2684.3 48.5843L2684.79 54.4135ZM2708.22 52.2052C2712.18 51.7879 2716.08 51.3545 2719.91 50.9064L2719.24 45.0965C2715.42 45.5421 2711.54 45.9731 2707.61 46.3881L2708.22 52.2052ZM2731.54 49.484C2735.5 48.9773 2739.4 48.4559 2743.24 47.9218L2742.43 42.1283C2738.61 42.6595 2734.74 43.1781 2730.8 43.682L2731.54 49.484ZM2754.91 46.233C2758.84 45.6423 2762.71 45.0395 2766.53 44.4269L2765.6 38.6516C2761.8 39.2612 2757.95 39.8609 2754.04 40.4485L2754.91 46.233ZM2778.11 42.5087C2782.02 41.8419 2785.87 41.1669 2789.66 40.4862L2788.63 34.7288C2784.85 35.4067 2781.02 36.0789 2777.12 36.7425L2778.11 42.5087ZM2801.25 38.3592C2805.16 37.6271 2809.01 36.8919 2812.81 36.1566L2811.7 30.4139C2807.91 31.1472 2804.07 31.8802 2800.18 32.6098L2801.25 38.3592ZM2824.35 33.8971C2828.23 33.1277 2832.07 32.3618 2835.86 31.6034L2834.72 25.8677C2830.93 26.6259 2827.09 27.3908 2823.21 28.1591L2824.35 33.8971ZM2847.37 29.3027C2851.24 28.5302 2855.07 27.7701 2858.87 27.0263L2857.74 21.286C2853.94 22.0317 2850.1 22.7932 2846.22 23.5664L2847.37 29.3027ZM2870.37 24.8095C2874.23 24.0796 2878.06 23.3718 2881.88 22.6908L2880.85 16.9325C2877.01 17.6176 2873.16 18.329 2869.28 19.0619L2870.37 24.8095ZM2893.4 20.7107C2897.26 20.0764 2901.1 19.4747 2904.94 18.9104L2904.09 13.1231C2900.22 13.6928 2896.34 14.2997 2892.45 14.9389L2893.4 20.7107ZM2916.51 17.3298C2920.36 16.8446 2924.22 16.4017 2928.1 16.0061L2927.5 10.187C2923.58 10.5876 2919.67 11.0357 2915.78 11.5264L2916.51 17.3298ZM2939.71 14.9713C2943.55 14.6794 2947.43 14.4379 2951.33 14.2512L2951.05 8.40858C2947.09 8.59789 2943.16 8.84287 2939.26 9.13872L2939.71 14.9713ZM2962.97 13.8642C2966.81 13.7928 2970.69 13.7769 2974.62 13.8206L2974.68 7.97167C2970.7 7.9273 2966.76 7.94346 2962.86 8.01589L2962.97 13.8642ZM2986.25 14.1234C2990.08 14.2795 2993.95 14.4934 2997.88 14.7686L2998.29 8.93352C2994.31 8.65439 2990.38 8.4374 2986.49 8.2789L2986.25 14.1234ZM3009.5 15.7473C3013.31 16.1219 3017.17 16.5541 3021.1 17.047L3021.83 11.2432C3017.85 10.7439 3013.93 10.3059 3010.07 9.92603L3009.5 15.7473ZM3032.68 18.6535C3036.45 19.2242 3040.28 19.8501 3044.16 20.5336L3045.18 14.7727C3041.24 14.0813 3037.37 13.4479 3033.56 12.8701L3032.68 18.6535ZM3055.6 22.6773C3057.52 23.0586 3059.45 23.4536 3061.4 23.8626L3062.6 18.138C3060.63 17.7247 3058.68 17.3256 3056.74 16.9402L3055.6 22.6773ZM3061.4 23.8626C3063.25 24.2509 3065.12 24.6338 3067.02 25.0116L3068.16 19.2752C3066.28 18.9012 3064.43 18.5221 3062.6 18.138L3061.4 23.8626ZM3078.56 27.2014C3082.31 27.8778 3086.13 28.5357 3090.02 29.1752L3090.97 23.4034C3087.1 22.7685 3083.31 22.1158 3079.6 21.4451L3078.56 27.2014ZM3101.52 30.9827C3105.33 31.5555 3109.2 32.112 3113.12 32.6525L3113.92 26.8579C3110.02 26.3205 3106.17 25.7674 3102.39 25.1983L3101.52 30.9827ZM3124.63 34.1727C3128.44 34.6548 3132.3 35.1228 3136.2 35.5766L3136.88 29.7665C3133 29.3148 3129.16 28.8492 3125.37 28.3697L3124.63 34.1727ZM3147.83 36.8759C3151.64 37.2837 3155.49 37.6788 3159.36 38.0613L3159.94 32.2402C3156.08 31.8593 3152.25 31.4658 3148.46 31.0598L3147.83 36.8759ZM3171 39.1622C3174.83 39.5095 3178.69 39.845 3182.58 40.1689L3183.06 34.3398C3179.19 34.017 3175.34 33.6827 3171.53 33.3367L3171 39.1622ZM3194.19 41.0963C3198.04 41.3906 3201.92 41.6739 3205.81 41.9461L3206.22 36.111C3202.34 35.8396 3198.48 35.5573 3194.64 35.264L3194.19 41.0963ZM3217.42 42.721C3221.28 42.9673 3225.16 43.203 3229.06 43.4284L3229.4 37.5888C3225.51 37.3641 3221.64 37.129 3217.79 36.8835L3217.42 42.721ZM3240.66 44.0661C3244.53 44.2681 3248.42 44.4602 3252.32 44.6424L3252.59 38.7994C3248.7 38.6177 3244.83 38.4262 3240.97 38.2247L3240.66 44.0661ZM3263.92 45.1543C3267.8 45.3151 3271.68 45.4664 3275.57 45.6081L3275.78 39.7626C3271.9 39.6213 3268.03 39.4704 3264.16 39.31L3263.92 45.1543ZM3287.19 46.0027C3291.07 46.1248 3294.95 46.2376 3298.83 46.3412L3298.99 40.4939C3295.11 40.3906 3291.24 40.2781 3287.37 40.1563L3287.19 46.0027ZM3310.46 46.6237C3314.34 46.7088 3318.22 46.7848 3322.1 46.8517L3322.2 41.0033C3318.33 40.9365 3314.46 40.8607 3310.59 40.7758L3310.46 46.6237ZM3333.74 47.0257C3337.62 47.0748 3341.5 47.115 3345.38 47.1462L3345.43 41.2971C3341.56 41.2659 3337.69 41.2259 3333.81 41.1768L3333.74 47.0257ZM3357.01 47.2135C3360.9 47.2271 3364.79 47.2318 3368.66 47.2276L3368.66 41.3783C3364.79 41.3825 3360.92 41.3778 3357.03 41.3642L3357.01 47.2135ZM3380.28 47.1885C3384.18 47.1664 3388.07 47.1354 3391.94 47.0954L3391.88 41.2464C3388.02 41.2863 3384.14 41.3172 3380.25 41.3393L3380.28 47.1885ZM3403.55 46.9487C3407.46 46.89 3411.35 46.8223 3415.22 46.7455L3415.11 40.8973C3411.24 40.9739 3407.36 41.0415 3403.46 41.1L3403.55 46.9487ZM3426.83 46.4873C3430.74 46.3906 3434.63 46.2847 3438.49 46.1696L3438.32 40.3229C3434.47 40.4377 3430.59 40.5433 3426.68 40.6397L3426.83 46.4873ZM3450.12 45.7932C3454.02 45.6565 3457.9 45.5103 3461.75 45.3547L3461.51 39.5101C3457.67 39.6653 3453.81 39.8111 3449.92 39.9475L3450.12 45.7932ZM3473.4 44.8498C3477.29 44.6702 3481.15 44.4806 3484.96 44.2814L3484.66 38.44C3480.85 38.6386 3477.01 38.8276 3473.13 39.0067L3473.4 44.8498ZM3496.66 43.633C3500.58 43.4033 3504.44 43.1631 3508.26 42.9125L3507.88 37.0757C3504.07 37.3254 3500.22 37.5648 3496.32 37.7937L3496.66 43.633ZM3519.86 42.1087C3523.81 41.8201 3527.7 41.5199 3531.53 41.2082L3531.06 35.3782C3527.24 35.6885 3523.37 35.9875 3519.44 36.275L3519.86 42.1087ZM3543.1 40.2144C3547.04 39.8585 3550.9 39.4897 3554.68 39.1083L3554.09 33.2885C3550.33 33.6678 3546.49 34.0347 3542.58 34.3889L3543.1 40.2144ZM3566.34 37.8637C3570.3 37.416 3574.17 36.9534 3577.93 36.4759L3577.19 30.6732C3573.46 31.147 3569.62 31.6065 3565.68 32.0513L3566.34 37.8637ZM3589.46 34.9168C3593.44 34.3441 3597.28 33.7529 3600.96 33.1433L3600.01 27.3724C3596.37 27.9747 3592.57 28.5598 3588.63 29.1271L3589.46 34.9168ZM3612.45 31.0874C3616.53 30.2969 3620.37 29.4789 3623.97 28.6337L3622.63 22.9398C3619.12 23.765 3615.35 24.5671 3611.34 25.345L3612.45 31.0874Z" fill="#F9DD00"/>
<path d="M0 21.0002L33.0624 14.1179L22.4915 46.1919L0 21.0002ZM1821.36 51.9024C1819.36 52.1501 1817.38 52.3872 1815.42 52.6138L1814.75 46.803C1816.69 46.5783 1818.66 46.3432 1820.64 46.0976L1821.36 51.9024ZM1803.81 53.8529C1799.81 54.244 1795.88 54.5908 1792.02 54.8949L1791.56 49.0636C1795.38 48.7624 1799.27 48.4189 1803.24 48.0313L1803.81 53.8529ZM1780.25 55.7038C1776.26 55.937 1772.35 56.1236 1768.51 56.2659L1768.29 50.4206C1772.09 50.2798 1775.96 50.0952 1779.91 49.8644L1780.25 55.7038ZM1756.78 56.5681C1752.77 56.6252 1748.84 56.6333 1744.99 56.5951L1745.05 50.746C1748.85 50.7838 1752.74 50.7758 1756.69 50.7194L1756.78 56.5681ZM1733.18 56.3289C1729.17 56.1873 1725.25 55.9954 1721.39 55.7568L1721.75 49.9186C1725.56 50.154 1729.43 50.3434 1733.38 50.4832L1733.18 56.3289ZM1709.63 54.869C1705.65 54.5138 1701.74 54.1092 1697.9 53.6599L1698.58 47.8502C1702.37 48.2934 1706.22 48.6924 1710.15 49.0428L1709.63 54.869ZM1686.21 52.1296C1682.27 51.5585 1678.39 50.9422 1674.57 50.2858L1675.56 44.521C1679.33 45.1689 1683.16 45.7772 1687.05 46.3406L1686.21 52.1296ZM1662.99 48.1452C1659.09 47.377 1655.26 46.5711 1651.46 45.7337L1652.72 40.0218C1656.48 40.8505 1660.27 41.6475 1664.12 42.4067L1662.99 48.1452ZM1640 43.0863C1636.17 42.1641 1632.37 41.2152 1628.6 40.2466L1630.05 34.5808C1633.8 35.5432 1637.57 36.4849 1641.37 37.3994L1640 43.0863ZM1617.24 37.2642C1613.46 36.2523 1609.69 35.2271 1605.91 34.1959L1607.46 28.5538C1611.22 29.5836 1614.98 30.6057 1618.75 31.6138L1617.24 37.2642ZM1594.62 31.0995C1590.87 30.0735 1587.12 29.0486 1583.33 28.0309L1584.85 22.3824C1588.65 23.4034 1592.42 24.431 1596.16 25.4579L1594.62 31.0995ZM1572.04 25.043C1568.3 24.0747 1564.53 23.1196 1560.72 22.1838L1562.11 16.503C1565.96 17.4457 1569.75 18.4072 1573.51 19.3809L1572.04 25.043ZM1549.37 19.4947C1545.63 18.6415 1541.83 17.8114 1537.98 17.0097L1539.17 11.2829C1543.07 12.0928 1546.89 12.9309 1550.67 13.7917L1549.37 19.4947ZM1526.55 14.7548C1522.79 14.0547 1518.97 13.3844 1515.08 12.7484L1516.02 6.97571C1519.96 7.61893 1523.82 8.29669 1527.62 9.00441L1526.55 14.7548ZM1503.57 11.0016C1499.8 10.4723 1495.95 9.9769 1492.03 9.51897L1492.71 3.70912C1496.67 4.17232 1500.56 4.67348 1504.38 5.20884L1503.57 11.0016ZM1480.45 8.30021C1476.65 7.94376 1472.77 7.62306 1468.82 7.34114L1469.24 1.50666C1473.23 1.79168 1477.15 2.11595 1480.99 2.47643L1480.45 8.30021ZM1457.16 6.63513C1453.35 6.44573 1449.48 6.29221 1445.53 6.17698L1445.7 0.330139C1449.69 0.446529 1453.6 0.60163 1457.45 0.793028L1457.16 6.63513ZM1433.92 5.95292C1431.96 5.93417 1429.99 5.92467 1428 5.92467V0.0753341C1430.01 0.0753341 1432 0.0849301 1433.97 0.103861L1433.92 5.95292ZM1428 5.92467C1426.05 5.92467 1424.11 5.93335 1422.2 5.9505L1422.15 0.101401C1424.08 0.0840974 1426.03 0.0753341 1428 0.0753341V5.92467ZM1410.82 6.15664C1406.96 6.26293 1403.17 6.40471 1399.47 6.57989L1399.19 0.737078C1402.94 0.560069 1406.76 0.416853 1410.66 0.309522L1410.82 6.15664ZM1388.05 7.23898C1384.17 7.50409 1380.38 7.80634 1376.67 8.14299L1376.14 2.31752C1379.9 1.97698 1383.73 1.67132 1387.65 1.40328L1388.05 7.23898ZM1365.32 9.30119C1361.47 9.73843 1357.71 10.2125 1354.01 10.7199L1353.21 4.92486C1356.95 4.41139 1360.77 3.93171 1364.66 3.48929L1365.32 9.30119ZM1342.74 12.4001C1338.93 13.0127 1335.19 13.6595 1331.51 14.3363L1330.45 8.58334C1334.17 7.89897 1337.96 7.24478 1341.81 6.62503L1342.74 12.4001ZM1320.32 16.5146C1316.56 17.2867 1312.84 18.0874 1309.17 18.9121L1307.89 13.2045C1311.59 12.3728 1315.34 11.5645 1319.14 10.7847L1320.32 16.5146ZM1298.04 21.4976C1294.32 22.3904 1290.62 23.3034 1286.94 24.2314L1285.51 18.5587C1289.21 17.6267 1292.93 16.7085 1296.68 15.8097L1298.04 21.4976ZM1275.84 27.0635C1272.16 28.0159 1268.47 28.9774 1264.76 29.9438L1263.28 24.2831C1266.99 23.3173 1270.69 22.3541 1274.38 21.4001L1275.84 27.0635ZM1253.65 32.822C1249.98 33.7671 1246.27 34.7114 1242.52 35.6498L1241.1 29.9752C1244.84 29.0409 1248.53 28.1 1252.19 27.1572L1253.65 32.822ZM1231.35 38.3841C1227.68 39.2634 1223.94 40.1329 1220.15 40.9883L1218.86 35.282C1222.63 34.4328 1226.34 33.5691 1229.99 32.6951L1231.35 38.3841ZM1208.9 43.4339C1205.21 44.2066 1201.45 44.9631 1197.61 45.7L1196.51 39.9557C1200.31 39.2252 1204.04 38.475 1207.7 37.7086L1208.9 43.4339ZM1186.29 47.7737C1182.58 48.4196 1178.8 49.0456 1174.94 49.6487L1174.03 43.8694C1177.86 43.2716 1181.61 42.6513 1185.29 42.0112L1186.29 47.7737ZM1163.55 51.3241C1159.81 51.8397 1156 52.3334 1152.11 52.803L1151.41 46.9957C1155.27 46.5302 1159.05 46.0408 1162.74 45.5298L1163.55 51.3241ZM1140.63 54.091C1136.89 54.4794 1133.07 54.8455 1129.17 55.1874L1128.66 49.3605C1132.53 49.0212 1136.32 48.6581 1140.03 48.2729L1140.63 54.091ZM1117.75 56.1017C1113.99 56.3739 1110.17 56.624 1106.26 56.8506L1105.93 51.0111C1109.8 50.7861 1113.6 50.5379 1117.33 50.2677L1117.75 56.1017ZM1094.69 57.4423C1090.95 57.608 1087.15 57.7525 1083.27 57.8749L1083.08 52.0284C1086.94 51.9069 1090.72 51.7633 1094.43 51.5987L1094.69 57.4423ZM1071.78 58.1673C1067.98 58.2413 1064.11 58.2946 1060.18 58.3261L1060.13 52.477C1064.04 52.4456 1067.89 52.3927 1071.67 52.3191L1071.78 58.1673ZM1048.8 58.3563C1045.01 58.3465 1041.16 58.3171 1037.24 58.2674L1037.31 52.4185C1041.21 52.468 1045.04 52.4973 1048.81 52.507L1048.8 58.3563ZM1025.78 58.0672C1023.85 58.0242 1021.89 57.9764 1019.92 57.9236L1020.08 52.0764C1022.04 52.1289 1023.98 52.1765 1025.91 52.2193L1025.78 58.0672ZM1019.92 57.9236C1017.92 57.8699 1015.92 57.8117 1013.94 57.7491L1014.13 51.9027C1016.1 51.9649 1018.08 52.0229 1020.08 52.0764L1019.92 57.9236ZM1002.22 57.3219C998.234 57.157 994.299 56.9743 990.416 56.7747L990.717 50.9331C994.579 51.1317 998.495 51.3135 1002.47 51.4776L1002.22 57.3219ZM978.757 56.1159C974.762 55.8696 970.825 55.6055 966.943 55.3248L967.365 49.4907C971.226 49.7699 975.143 50.0326 979.117 50.2777L978.757 56.1159ZM955.214 54.4133C951.273 54.0856 947.391 53.741 943.564 53.3807L944.113 47.5572C947.918 47.9154 951.779 48.2581 955.699 48.5841L955.214 54.4133ZM931.78 52.205C927.822 51.7878 923.924 51.3543 920.085 50.9062L920.764 45.0963C924.581 45.5419 928.457 45.973 932.393 46.3879L931.78 52.205ZM908.459 49.4839C904.499 48.9771 900.602 48.4557 896.765 47.9216L897.571 42.1281C901.388 42.6594 905.264 43.1779 909.202 43.6818L908.459 49.4839ZM885.093 46.2329C881.159 45.6421 877.287 45.0393 873.474 44.4267L874.402 38.6515C878.196 39.261 882.048 39.8607 885.962 40.4484L885.093 46.2329ZM861.893 42.5085C857.982 41.8418 854.133 41.1667 850.339 40.486L851.372 34.7287C855.15 35.4066 858.983 36.0787 862.876 36.7424L861.893 42.5085ZM838.746 38.359C834.837 37.627 830.986 36.8918 827.187 36.1565L828.298 30.4137C832.087 31.1471 835.927 31.8801 839.823 32.6096L838.746 38.359ZM815.653 33.897C811.765 33.1276 807.929 32.3617 804.137 31.6033L805.285 25.8676C809.075 26.6258 812.907 27.3907 816.788 28.159L815.653 33.897ZM792.633 29.3026C788.761 28.5302 784.93 27.77 781.133 27.0262L782.258 21.2859C786.064 22.0316 789.901 22.7932 793.777 23.5663L792.633 29.3026ZM769.632 24.8094C765.77 24.0795 761.936 23.3718 758.122 22.6907L759.15 16.9324C762.987 17.6175 766.84 18.3289 770.718 19.0618L769.632 24.8094ZM746.598 20.7106C742.742 20.0763 738.898 19.4746 735.056 18.9103L735.906 13.1231C739.784 13.6927 743.662 14.2997 747.548 14.9389L746.598 20.7106ZM723.492 17.3298C719.639 16.8445 715.779 16.4017 711.904 16.0061L712.498 10.187C716.422 10.5875 720.327 11.0357 724.223 11.5263L723.492 17.3298ZM700.295 14.9713C696.446 14.6794 692.573 14.4378 688.667 14.2512L688.947 8.40854C692.908 8.59785 696.836 8.84283 700.737 9.13868L700.295 14.9713ZM677.028 13.8642C673.188 13.7928 669.31 13.7769 665.385 13.8206L665.32 7.97164C669.303 7.92726 673.24 7.94343 677.137 8.01586L677.028 13.8642ZM653.745 14.1233C649.92 14.2795 646.046 14.4934 642.116 14.7685L641.708 8.93349C645.694 8.65436 649.625 8.43737 653.507 8.27887L653.745 14.1233ZM630.502 15.7472C626.693 16.1219 622.828 16.5541 618.903 17.047L618.175 11.2432C622.151 10.7439 626.068 10.3058 629.93 9.92599L630.502 15.7472ZM607.316 18.6534C603.549 19.2242 599.724 19.8501 595.838 20.5336L594.824 14.7727C598.756 14.0813 602.626 13.4479 606.44 12.8701L607.316 18.6534ZM584.401 22.6772C582.483 23.0585 580.55 23.4535 578.601 23.8625L577.399 18.1379C579.368 17.7247 581.322 17.3255 583.261 16.9401L584.401 22.6772ZM578.601 23.8625C576.751 24.2508 574.878 24.6338 572.984 25.0115L571.84 19.2751C573.716 18.9011 575.569 18.522 577.399 18.1379L578.601 23.8625ZM561.441 27.2014C557.694 27.8777 553.873 28.5356 549.983 29.1751L549.034 23.4033C552.896 22.7684 556.686 22.1157 560.402 21.445L561.441 27.2014ZM538.484 30.9826C534.673 31.5554 530.804 32.1119 526.879 32.6524L526.081 26.8578C529.983 26.3204 533.829 25.7673 537.615 25.1982L538.484 30.9826ZM515.365 34.1726C511.556 34.6547 507.699 35.1226 503.8 35.5765L503.124 29.7664C507.004 29.3147 510.841 28.8491 514.631 28.3695L515.365 34.1726ZM492.167 36.8758C488.359 37.2836 484.514 37.6787 480.636 38.0612L480.062 32.2401C483.925 31.8591 487.753 31.4657 491.544 31.0597L492.167 36.8758ZM468.999 39.162C465.17 39.5093 461.311 39.8449 457.424 40.1687L456.939 34.3396C460.811 34.0169 464.656 33.6826 468.471 33.3366L468.999 39.162ZM445.809 41.0962C441.958 41.3905 438.083 41.6737 434.187 41.946L433.779 36.1109C437.663 35.8395 441.525 35.5572 445.363 35.2639L445.809 41.0962ZM422.584 42.7209C418.719 42.9671 414.836 43.2029 410.937 43.4283L410.599 37.5887C414.487 37.364 418.359 37.1289 422.212 36.8834L422.584 42.7209ZM399.338 44.0659C395.465 44.268 391.58 44.46 387.683 44.6422L387.41 38.7993C391.296 38.6176 395.171 38.426 399.033 38.2246L399.338 44.0659ZM376.078 45.1542C372.204 45.315 368.322 45.4662 364.432 45.6079L364.219 39.7625C368.099 39.6211 371.972 39.4703 375.835 39.3099L376.078 45.1542ZM352.81 46.0026C348.934 46.1247 345.053 46.2374 341.169 46.341L341.013 40.4938C344.888 40.3904 348.759 40.2779 352.626 40.1561L352.81 46.0026ZM329.537 46.6236C325.657 46.7086 321.777 46.7846 317.897 46.8516L317.796 41.0031C321.667 40.9363 325.538 40.8605 329.409 40.7756L329.537 46.6236ZM306.262 47.0255C302.377 47.0747 298.496 47.1148 294.62 47.1461L294.572 41.2969C298.44 41.2658 302.312 41.2257 306.188 41.1767L306.262 47.0255ZM282.987 47.2133C279.096 47.2269 275.212 47.2316 271.338 47.2275L271.345 41.3781C275.21 41.3823 279.084 41.3776 282.966 41.364L282.987 47.2133ZM259.716 47.1883C255.817 47.1663 251.93 47.1352 248.056 47.0953L248.117 41.2462C251.981 41.2861 255.859 41.3171 259.749 41.3391L259.716 47.1883ZM236.454 46.9485C232.544 46.8899 228.651 46.8221 224.777 46.7454L224.893 40.8972C228.758 40.9737 232.641 41.0413 236.542 41.0998L236.454 46.9485ZM213.171 46.4871C209.26 46.3905 205.371 46.2846 201.506 46.1695L201.68 40.3227C205.535 40.4375 209.414 40.5432 213.315 40.6396L213.171 46.4871ZM189.88 45.7931C185.976 45.6564 182.1 45.5102 178.254 45.3545L178.49 39.51C182.325 39.6652 186.191 39.811 190.085 39.9473L189.88 45.7931ZM166.597 44.8497C162.708 44.67 158.854 44.4805 155.037 44.2812L155.342 38.4398C159.147 38.6385 162.989 38.8274 166.867 39.0066L166.597 44.8497ZM143.338 43.6329C139.425 43.4032 135.556 43.163 131.735 42.9123L132.118 37.0755C135.925 37.3253 139.78 37.5647 143.68 37.7936L143.338 43.6329ZM120.137 42.1086C116.189 41.82 112.298 41.5198 108.468 41.2081L108.943 35.378C112.756 35.6884 116.631 35.9873 120.563 36.2748L120.137 42.1086ZM96.8955 40.2143C92.9634 39.8583 89.1047 39.4896 85.324 39.1082L85.9111 33.2884C89.671 33.6677 93.5098 34.0345 97.4229 34.3888L96.8955 40.2143ZM73.6618 37.8636C69.696 37.4159 65.8298 36.9533 62.0694 36.4758L62.8061 30.6731C66.5381 31.1469 70.3774 31.6064 74.3179 32.0512L73.6618 37.8636ZM50.5351 34.9166C46.5581 34.344 42.7224 33.7528 39.0372 33.1432L39.9917 27.3723C43.6333 27.9746 47.4285 28.5597 51.3687 29.127L50.5351 34.9166ZM27.5452 31.0873C23.4686 30.2968 19.6254 29.4788 16.0327 28.6336L17.3722 22.9397C20.8799 23.7649 24.6469 24.567 28.6588 25.3449L27.5452 31.0873Z" fill="#F9DD00"/>
</svg>
