<svg width="129" height="125" viewBox="0 0 129 125" fill="none" xmlns="http://www.w3.org/2000/svg">
<g clip-path="url(#clip0_472_2536)">
<path d="M114.019 93.1755C102.693 93.7946 87.1425 79.2349 76.4363 57.7504C63.9828 32.9661 63.0712 9.11811 74.2572 3.54436C75.6536 2.81509 77.2016 2.4693 78.8941 2.37681C90.2203 1.75778 105.771 16.3174 116.477 37.8019C128.931 62.5862 129.842 86.4342 118.656 92.008C117.13 92.7444 115.582 93.0901 114.019 93.1755ZM79.1787 7.58482C78.2674 7.63463 77.3632 7.81464 76.6034 8.24793C69.3607 11.9085 69.4222 32.1465 81.0163 55.5413C91.99 77.1417 105.924 88.3944 113.735 87.9675C114.646 87.9177 115.55 87.7377 116.31 87.3044C123.553 83.6438 123.491 63.4058 111.897 40.011C100.924 18.4106 86.8597 7.16503 79.1787 7.58482Z" fill="#F9DD00"/>
<path d="M84.2194 71.1676L83.2227 69.655C80.7961 65.8699 78.4925 61.9476 76.312 57.8879C74.2617 53.8211 72.4575 49.4796 70.9208 45.2542L70.3075 43.59L71.6827 42.4702C72.4282 41.7765 73.311 41.2059 74.201 40.7655L82.8402 36.3756C84.4899 35.5019 86.2912 35.0117 88.244 34.905C93.7118 34.6061 98.8368 37.5908 101.19 42.4245L103.399 47.005C106.771 53.742 104.087 61.9852 97.3511 65.3569L88.7119 69.7468C87.822 70.1872 86.7947 70.5045 85.7674 70.8218L84.2194 71.1676ZM76.6775 45.4619C77.904 48.7902 79.398 52.2345 81.1452 55.5343C82.7623 58.8412 84.6326 62.0038 86.6331 65.1592L86.7633 65.152L95.4025 60.7622C99.599 58.7046 101.274 53.52 99.224 49.4532L97.015 44.8727C95.5424 41.8191 92.3112 40.0368 88.9263 40.2218C87.7546 40.2859 86.5972 40.6103 85.577 41.0578L76.6775 45.4619C76.6703 45.3317 76.6703 45.3317 76.6775 45.4619Z" fill="#F9DD00"/>
<path d="M61.2268 121.134C58.6231 121.276 56.0926 120.37 54.0473 118.784L32.8366 101.007L29.53 102.625C22.1571 106.292 13.1123 103.261 9.31473 95.8941L5.78464 88.6435C2.11725 81.2697 5.1484 72.224 12.5142 68.4261L35.3927 56.9897C35.646 56.8453 61.1282 45.2666 67.3547 13.4543L72.5031 14.4788C65.8769 48.533 39.3958 60.9498 37.6088 61.7004L14.7303 73.1368C9.90417 75.6206 7.87392 81.4775 10.3575 86.3041L14.0178 93.5477C16.5013 98.3743 22.3576 100.405 27.1838 97.9211L33.5365 94.7009L57.3489 114.686C58.31 115.547 59.6403 115.997 60.9351 115.795C62.2369 115.724 63.5032 115.002 64.3647 114.041C66.0806 111.988 65.9027 108.733 63.7201 107.024L43.1888 89.7333L49.6717 86.5061C51.4445 85.495 77.2035 71.8118 108.448 86.8196L106.223 91.5118C78.9985 78.3738 55.9542 89.1663 52.6476 90.7835L67.0216 102.926C71.2709 106.612 71.88 112.977 68.2021 117.357C66.4862 119.41 63.9465 120.724 61.2197 121.003C61.357 121.127 61.2268 121.134 61.2268 121.134Z" fill="#F9DD00"/>
</g>
<defs>
<clipPath id="clip0_472_2536">
<rect width="122.558" height="117.616" fill="white" transform="translate(0 6.68848) rotate(-3.12833)"/>
</clipPath>
</defs>
</svg>
