<svg width="443" height="418" viewBox="0 0 443 418" fill="none" xmlns="http://www.w3.org/2000/svg">
<path d="M250.501 333.353C254.735 329.361 258.297 324.602 260.166 318.897C283.894 247.483 336.475 27.7119 336.475 27.7119C336.475 27.7119 114.291 67.8797 41.739 87.6051C35.9597 89.1734 30.9986 92.4823 26.7653 96.4735C-4.78815 126.304 19.7459 203.537 81.5378 268.925C143.329 334.313 218.993 363.188 250.501 333.353Z" fill="#F9DD00"/>
<path d="M315.953 318.245L372.293 170.638C378.335 154.807 370.37 137.061 354.5 131.005L211.02 76.2401C195.15 70.182 177.388 78.1075 171.345 93.9399L115.005 241.545C108.963 257.378 116.928 275.122 132.796 281.18L276.278 335.945C292.146 342.001 309.91 334.077 315.953 318.245Z" fill="white"/>
<path d="M97.8347 64.958C35.3477 125.167 10.3503 219.163 42.0276 299.557C74.8502 382.859 158.269 425.532 243.155 409.803" stroke="#003465" stroke-width="5" stroke-miterlimit="10" stroke-linecap="round"/>
<path d="M39.482 72.3749C39.7414 74.4588 41.6302 75.8092 43.695 75.4004L100.898 64.0777L83.2133 121.176C82.5766 123.237 83.6592 125.326 85.6391 125.836C87.6205 126.345 89.7514 125.063 90.3881 123.023L109.893 60.0608C110.289 58.7874 110.032 57.4342 109.206 56.4785C108.38 55.5232 107.108 55.1045 105.835 55.3521L42.764 67.8339C42.0272 67.9834 41.3664 68.3381 40.8324 68.8224C39.8728 69.6941 39.3266 71.0174 39.4894 72.3578L39.482 72.3749Z" fill="#003465"/>
<path d="M206.148 14.8633C291.035 -0.865259 374.452 41.8088 407.268 125.108C438.953 205.503 413.947 299.497 351.468 359.708" stroke="#003465" stroke-width="5" stroke-miterlimit="10" stroke-linecap="round"/>
<path d="M367.325 299.158C369.26 299.651 370.303 301.726 369.663 303.786L351.875 360.848L407.995 349.133C410.022 348.71 411.869 350.046 412.097 352.118C412.333 354.194 410.86 356.223 408.852 356.652L346.962 369.572C345.713 369.828 344.47 369.419 343.669 368.473C342.867 367.528 342.636 366.183 343.022 364.917L362.641 301.996C362.872 301.256 363.283 300.624 363.815 300.128C364.762 299.252 366.074 298.842 367.316 299.155L367.325 299.158Z" fill="#003465"/>
<path d="M228.096 133.605C245.548 153.989 250.908 185.687 239.454 215.693C228.002 245.699 202.881 265.773 176.285 269.344" stroke="#003465" stroke-width="5" stroke-miterlimit="10" stroke-linecap="round"/>
<path d="M293.275 206.507C291.732 210.55 293.758 215.078 297.8 216.621C301.843 218.163 306.371 216.138 307.914 212.095C309.456 208.053 307.431 203.524 303.388 201.982C299.346 200.439 294.818 202.466 293.275 206.507Z" fill="#003465"/>
<path d="M273.02 263.575C271.619 267.25 273.461 271.367 277.136 272.769C280.809 274.172 284.926 272.33 286.329 268.655C287.732 264.98 285.889 260.863 282.215 259.462C278.54 258.059 274.423 259.9 273.02 263.575Z" fill="#003465"/>
<path d="M185.309 153.859C180.792 153.951 175.705 157.611 172.673 163.427C169.639 169.242 169.542 175.523 172.045 179.29" stroke="#003465" stroke-width="5" stroke-miterlimit="10" stroke-linecap="round"/>
<path d="M164.919 197.921C160.546 199.053 156.437 203.792 154.817 210.168C153.201 216.535 154.562 222.657 157.866 225.721" stroke="#003465" stroke-width="5" stroke-miterlimit="10" stroke-linecap="round"/>
<path d="M300.757 326.699L357.097 179.094C363.14 163.261 355.174 145.517 339.305 139.459L195.824 84.6946C179.955 78.6379 162.192 86.562 156.15 102.394L99.8099 250.001C93.7675 265.832 101.733 283.578 117.601 289.634L261.083 344.399C276.951 350.457 294.715 342.532 300.757 326.699Z" stroke="#003465" stroke-width="5" stroke-miterlimit="10" stroke-linecap="round"/>
</svg>
