<svg xmlns="http://www.w3.org/2000/svg" width="1522" height="84" viewBox="0 0 1522 84" fill="none">
<path d="M-45.9039 83.7115C-44.658 83.2079 -42.9525 82.5975 -40.7919 81.8879L-42.6171 76.3307C-44.8366 77.0596 -46.6794 77.7158 -48.0961 78.2885L-45.9039 83.7115ZM-29.7815 78.5481C-26.4812 77.6029 -22.7871 76.5807 -18.7268 75.4909L-20.2431 69.8415C-24.3291 70.9382 -28.0551 71.9692 -31.392 72.9249L-29.7815 78.5481ZM-7.53378 72.5552C-3.9904 71.6452 -0.250797 70.7012 3.67267 69.7274L2.26364 64.0503C-1.67413 65.0277 -5.42911 65.9756 -8.98882 66.8898L-7.53378 72.5552ZM14.8774 66.9869C18.4937 66.1148 22.2347 65.2239 26.0929 64.3168L24.7541 58.6227C20.8854 59.5323 17.1335 60.4258 13.506 61.3006L14.8774 66.9869ZM37.335 61.7045C41.0077 60.8609 44.7697 60.0061 48.6154 59.142L47.3331 53.435C43.4785 54.3011 39.7074 55.1579 36.0255 56.0036L37.335 61.7045ZM59.9403 56.6244C63.6303 55.8126 67.3867 54.9946 71.2053 54.1716L69.973 48.4536C66.1463 49.2783 62.3817 50.0981 58.6836 50.9116L59.9403 56.6244ZM82.471 51.7681C86.1963 50.9813 89.9734 50.1914 93.7985 49.3997L92.613 43.6718C88.7801 44.4651 84.9952 45.2566 81.2623 46.045L82.471 51.7681ZM105.151 47.0738C108.872 46.3191 112.633 45.5639 116.431 44.8092L115.291 39.072C111.486 39.8282 107.717 40.585 103.988 41.3412L105.151 47.0738ZM127.779 42.5778C131.537 41.8465 135.327 41.1167 139.146 40.3894L138.052 34.6434C134.225 35.3721 130.428 36.1034 126.662 36.8362L127.779 42.5778ZM150.467 38.2569C154.237 37.5548 158.03 36.8559 161.846 36.1613L160.798 30.4065C156.975 31.1026 153.173 31.8029 149.396 32.5065L150.467 38.2569ZM173.213 34.116C176.985 33.4455 180.775 32.7799 184.581 32.1199L183.582 26.3566C179.768 27.018 175.969 27.685 172.19 28.357L173.213 34.116ZM195.988 30.1678C199.768 29.5293 203.561 28.8972 207.365 28.2723L206.416 22.5004C202.604 23.1267 198.802 23.7602 195.013 24.4001L195.988 30.1678ZM218.771 26.4254C222.568 25.8197 226.373 25.222 230.183 24.6329L229.289 18.8522C225.469 19.4428 221.656 20.042 217.85 20.6491L218.771 26.4254ZM241.599 22.8969C245.406 22.3278 249.216 21.7681 253.026 21.2186L252.192 15.4292C248.371 15.9801 244.551 16.5413 240.734 17.1118L241.599 22.8969ZM264.461 19.6015C268.278 19.0723 272.094 18.5541 275.905 18.0478L275.135 12.2494C271.312 12.7572 267.486 13.2768 263.658 13.8076L264.461 19.6015ZM287.348 16.5625C291.179 16.0771 295.003 15.6045 298.819 15.1455L298.12 9.33804C294.292 9.7985 290.455 10.2726 286.613 10.7596L287.348 16.5625ZM310.272 13.8063C314.112 13.3705 317.94 12.9495 321.755 12.5442L321.137 6.72762C317.308 7.13445 313.466 7.55696 309.612 7.99431L310.272 13.8063ZM333.243 11.3672C337.08 10.989 340.899 10.6278 344.699 10.2845L344.173 4.45893C340.357 4.80369 336.521 5.16636 332.669 5.54603L333.243 11.3672ZM356.231 9.29323C360.088 8.97903 363.92 8.68461 367.727 8.41092L367.307 2.57665C363.482 2.85172 359.63 3.14756 355.756 3.46321L356.231 9.29323ZM379.21 7.64389C383.093 7.40494 386.944 7.18925 390.761 6.99788L390.468 1.15589C386.629 1.34841 382.755 1.56534 378.851 1.8056L379.21 7.64389ZM402.265 6.49156C406.134 6.34578 409.963 6.22714 413.747 6.13677L413.607 0.289109C409.795 0.380143 405.94 0.49963 402.044 0.646373L402.265 6.49156ZM425.313 5.94865C427.221 5.93271 429.117 5.92467 431 5.92467V0.0753341C429.101 0.0753341 427.189 0.0834527 425.264 0.0995226L425.313 5.94865ZM431 5.92467C432.954 5.92467 434.887 5.93335 436.8 5.9505L436.853 0.101401C434.922 0.0840974 432.971 0.0753341 431 0.0753341V5.92467ZM448.177 6.15665C452.043 6.26293 455.826 6.40472 459.532 6.57989L459.809 0.737081C456.063 0.560071 452.241 0.416854 448.337 0.309523L448.177 6.15665ZM470.95 7.23899C474.827 7.50409 478.619 7.80634 482.335 8.143L482.863 2.31753C479.104 1.97699 475.269 1.67133 471.349 1.40329L470.95 7.23899ZM493.682 9.30121C497.528 9.73844 501.295 10.2125 504.991 10.7199L505.787 4.92488C502.046 4.41141 498.234 3.93173 494.342 3.48931L493.682 9.30121ZM516.262 12.4001C520.07 13.0127 523.81 13.6595 527.492 14.3363L528.55 8.58338C524.826 7.89901 521.044 7.24481 517.191 6.62506L516.262 12.4001ZM538.682 16.5146C542.444 17.2867 546.156 18.0875 549.834 18.9121L551.114 13.2046C547.405 12.3729 543.658 11.5646 539.858 10.7847L538.682 16.5146ZM560.957 21.4976C564.678 22.3905 568.375 23.3035 572.065 24.2314L573.491 18.5588C569.786 17.6267 566.067 16.7085 562.322 15.8098L560.957 21.4976ZM583.155 27.0636C586.841 28.0159 590.532 28.9775 594.245 29.9439L595.718 24.2832C592.007 23.3174 588.311 22.3542 584.619 21.4002L583.155 27.0636ZM605.349 32.8221C609.021 33.7672 612.727 34.7115 616.48 35.6499L617.899 29.9753C614.163 29.041 610.47 28.1001 606.807 27.1573L605.349 32.8221ZM627.646 38.3842C631.324 39.2635 635.056 40.133 638.853 40.9885L640.139 35.2821C636.369 34.4329 632.662 33.5692 629.007 32.6952L627.646 38.3842ZM650.101 43.434C653.792 44.2067 657.551 44.9633 661.387 45.7002L662.49 39.9559C658.687 39.2254 654.96 38.4752 651.299 37.7088L650.101 43.434ZM672.708 47.7739C676.416 48.4198 680.199 49.0457 684.064 49.6489L684.966 43.8695C681.136 43.2718 677.387 42.6515 673.712 42.0113L672.708 47.7739ZM695.455 51.3243C699.187 51.8399 702.995 52.3336 706.886 52.8031L707.587 46.9959C703.729 46.5304 699.954 46.041 696.255 45.53L695.455 51.3243ZM718.369 54.0912C722.112 54.4796 725.93 54.8457 729.828 55.1876L730.339 49.3606C726.472 49.0214 722.685 48.6583 718.973 48.2731L718.369 54.0912ZM741.251 56.1019C745.005 56.3741 748.832 56.6242 752.735 56.8508L753.074 51.0113C749.199 50.7863 745.4 50.5381 741.674 50.2679L741.251 56.1019ZM764.31 57.4425C768.048 57.6082 771.854 57.7527 775.731 57.8751L775.915 52.0286C772.063 51.9071 768.282 51.7635 764.569 51.5989L764.31 57.4425ZM787.216 58.1675C791.018 58.2415 794.886 58.2948 798.823 58.3263L798.87 52.4772C794.955 52.4458 791.11 52.3929 787.33 52.3193L787.216 58.1675ZM810.203 58.3565C813.993 58.3467 817.844 58.3173 821.759 58.2676L821.685 52.4187C817.789 52.4682 813.958 52.4975 810.188 52.5072L810.203 58.3565ZM833.215 58.0674C835.154 58.0244 837.109 57.9766 839.078 57.9238L838.922 52.0766C836.961 52.1291 835.016 52.1767 833.086 52.2195L833.215 58.0674ZM839.078 57.9238C841.084 57.8701 843.077 57.8119 845.056 57.7493L844.871 51.9029C842.901 51.9652 840.918 52.0231 838.922 52.0766L839.078 57.9238ZM856.775 57.3221C860.766 57.1572 864.701 56.9745 868.584 56.7749L868.283 50.9333C864.421 51.1319 860.505 51.3137 856.534 51.4778L856.775 57.3221ZM880.243 56.1161C884.238 55.8698 888.175 55.6057 892.057 55.325L891.635 49.4909C887.774 49.7701 883.857 50.0328 879.883 50.2779L880.243 56.1161ZM903.786 54.4135C907.727 54.0858 911.609 53.7411 915.436 53.3809L914.887 47.5573C911.082 47.9156 907.221 48.2583 903.301 48.5843L903.786 54.4135ZM927.22 52.2052C931.178 51.7879 935.076 51.3545 938.915 50.9064L938.236 45.0965C934.419 45.5421 930.543 45.9731 926.607 46.3881L927.22 52.2052ZM950.541 49.484C954.501 48.9773 958.398 48.4559 962.235 47.9218L961.429 42.1283C957.612 42.6595 953.736 43.1781 949.798 43.682L950.541 49.484ZM973.906 46.233C977.841 45.6423 981.713 45.0395 985.526 44.4269L984.598 38.6516C980.804 39.2612 976.952 39.8609 973.038 40.4486L973.906 46.233ZM997.107 42.5087C1001.02 41.8419 1004.87 41.1669 1008.66 40.4862L1007.63 34.7288C1003.85 35.4067 1000.02 36.0789 996.124 36.7425L997.107 42.5087ZM1020.25 38.3592C1024.16 37.6271 1028.01 36.8919 1031.81 36.1566L1030.7 30.4139C1026.91 31.1472 1023.07 31.8802 1019.18 32.6098L1020.25 38.3592ZM1043.35 33.8971C1047.23 33.1277 1051.07 32.3618 1054.86 31.6034L1053.72 25.8677C1049.93 26.6259 1046.09 27.3908 1042.21 28.1591L1043.35 33.8971ZM1066.37 29.3027C1070.24 28.5302 1074.07 27.7701 1077.87 27.0263L1076.74 21.286C1072.94 22.0317 1069.1 22.7932 1065.22 23.5664L1066.37 29.3027ZM1089.37 24.8095C1093.23 24.0796 1097.06 23.3718 1100.88 22.6908L1099.85 16.9325C1096.01 17.6176 1092.16 18.329 1088.28 19.0619L1089.37 24.8095ZM1112.4 20.7107C1116.26 20.0764 1120.1 19.4747 1123.94 18.9104L1123.09 13.1231C1119.22 13.6928 1115.34 14.2997 1111.45 14.9389L1112.4 20.7107ZM1135.51 17.3298C1139.36 16.8446 1143.22 16.4017 1147.1 16.0061L1146.5 10.187C1142.58 10.5876 1138.67 11.0357 1134.78 11.5264L1135.51 17.3298ZM1158.71 14.9713C1162.55 14.6794 1166.43 14.4379 1170.33 14.2512L1170.05 8.40858C1166.09 8.59789 1162.16 8.84287 1158.26 9.13872L1158.71 14.9713ZM1181.97 13.8642C1185.81 13.7928 1189.69 13.7769 1193.62 13.8206L1193.68 7.97167C1189.7 7.9273 1185.76 7.94346 1181.86 8.01589L1181.97 13.8642ZM1205.25 14.1234C1209.08 14.2795 1212.95 14.4934 1216.88 14.7686L1217.29 8.93352C1213.31 8.65439 1209.38 8.4374 1205.49 8.2789L1205.25 14.1234ZM1228.5 15.7473C1232.31 16.1219 1236.17 16.5541 1240.1 17.047L1240.83 11.2432C1236.85 10.7439 1232.93 10.3059 1229.07 9.92603L1228.5 15.7473ZM1251.68 18.6535C1255.45 19.2242 1259.28 19.8501 1263.16 20.5336L1264.18 14.7727C1260.24 14.0813 1256.37 13.4479 1252.56 12.8701L1251.68 18.6535ZM1274.6 22.6773C1276.52 23.0585 1278.45 23.4536 1280.4 23.8626L1281.6 18.138C1279.63 17.7247 1277.68 17.3256 1275.74 16.9402L1274.6 22.6773ZM1280.4 23.8626C1282.46 24.2958 1284.5 24.7254 1286.51 25.1514L1287.72 19.4289C1285.71 19.0022 1283.67 18.5719 1281.6 18.138L1280.4 23.8626ZM1298.48 27.7075C1302.58 28.5899 1306.56 29.4555 1310.43 30.3036L1311.69 24.5897C1307.81 23.7401 1303.82 22.8732 1299.71 21.9893L1298.48 27.7075ZM1322.39 32.9422C1326.51 33.8584 1330.5 34.752 1334.36 35.6225L1335.65 29.9163C1331.78 29.0447 1327.79 28.1499 1323.66 27.2323L1322.39 32.9422ZM1346.35 38.3396C1350.5 39.2855 1354.5 40.1999 1358.35 41.082L1359.65 35.3805C1355.8 34.4981 1351.8 33.5831 1347.65 32.6364L1346.35 38.3396ZM1370.34 43.829C1374.5 44.781 1378.48 45.6876 1382.29 46.5472L1383.57 40.8412C1379.77 39.9835 1375.8 39.0784 1371.64 38.127L1370.34 43.829ZM1394.3 49.2162C1398.51 50.1339 1402.51 50.9806 1406.33 51.7536L1407.49 46.0209C1403.71 45.2548 1399.74 44.4141 1395.55 43.5008L1394.3 49.2162ZM1418.48 54.0688C1422.77 54.8235 1426.84 55.4597 1430.73 55.9716L1431.49 50.1722C1427.7 49.6733 1423.72 49.0508 1419.49 48.3079L1418.48 54.0688ZM1443.12 57.2065C1447.41 57.4809 1451.56 57.5687 1455.66 57.46L1455.5 51.6127C1451.59 51.7164 1447.62 51.6332 1443.49 51.3691L1443.12 57.2065ZM1468.18 56.5048C1472.21 55.9967 1476.29 55.2926 1480.51 54.3874L1479.28 48.6681C1475.21 49.5415 1471.3 50.2161 1467.45 50.7014L1468.18 56.5048ZM1492.58 51.3789C1496.36 50.322 1500.29 49.1243 1504.43 47.7831L1502.63 42.2177C1498.55 43.5397 1494.69 44.7141 1491 45.7464L1492.58 51.3789ZM1516.15 43.8254C1518.05 43.16 1519.99 42.4692 1521.99 41.7527L1520.01 36.2473C1518.03 36.9593 1516.1 37.645 1514.21 38.3046L1516.15 43.8254Z" fill="#F9DD00"/>
</svg>