<svg width="3280" height="110" viewBox="0 0 3280 110" fill="none" xmlns="http://www.w3.org/2000/svg">
<path fillRule="evenodd" clipRule="evenodd" d="M2118 13.9255C2116.12 13.9255 2114.22 13.9336 2112.31 13.9495L2112.26 8.10036C2114.19 8.08429 2116.1 8.07617 2118 8.07617C2119.97 8.07617 2121.92 8.08494 2123.85 8.10224L2123.8 13.9513C2121.89 13.9342 2119.95 13.9255 2118 13.9255ZM2100.75 14.1376C2096.96 14.228 2093.13 14.3466 2089.27 14.4924L2089.04 8.64721C2092.94 8.50047 2096.8 8.38098 2100.61 8.28995L2100.75 14.1376ZM2146.53 14.5807C2142.83 14.4056 2139.04 14.2638 2135.18 14.1575L2135.34 8.31036C2139.24 8.41769 2143.06 8.56091 2146.81 8.73792L2146.53 14.5807ZM2077.76 14.9987C2073.94 15.1901 2070.09 15.4058 2066.21 15.6447L2065.85 9.80644C2069.76 9.56618 2073.63 9.34925 2077.47 9.15673L2077.76 14.9987ZM2169.34 16.1438C2165.62 15.8072 2161.83 15.5049 2157.95 15.2398L2158.35 9.40412C2162.27 9.67216 2166.1 9.97783 2169.86 10.3184L2169.34 16.1438ZM2054.73 16.4118C2050.92 16.6854 2047.09 16.9799 2043.23 17.2941L2042.76 11.464C2046.63 11.1484 2050.48 10.8526 2054.31 10.5775L2054.73 16.4118ZM2191.99 18.7207C2188.3 18.2133 2184.53 17.7393 2180.68 17.302L2181.34 11.4901C2185.23 11.9326 2189.05 12.4122 2192.79 12.9257L2191.99 18.7207ZM2031.7 18.2854C2027.9 18.6287 2024.08 18.9898 2020.24 19.368L2019.67 13.5469C2023.52 13.1672 2027.36 12.8045 2031.17 12.4598L2031.7 18.2854ZM2214.49 22.3372C2210.81 21.6603 2207.07 21.0136 2203.26 20.401L2204.19 14.6259C2208.04 15.2456 2211.83 15.8998 2215.55 16.5842L2214.49 22.3372ZM2008.76 20.545C2004.94 20.9504 2001.11 21.3713 1997.27 21.8072L1996.61 15.9951C2000.47 15.5578 2004.31 15.1353 2008.14 14.7285L2008.76 20.545ZM2880.62 21.8215C2876.69 21.7778 2872.81 21.7937 2868.97 21.865L2868.86 16.0167C2872.76 15.9443 2876.7 15.9281 2880.68 15.9725L2880.62 21.8215ZM2903.88 22.7694C2899.95 22.4942 2896.08 22.2804 2892.26 22.1242L2892.49 16.2797C2896.38 16.4382 2900.31 16.6552 2904.29 16.9344L2903.88 22.7694ZM2857.33 22.2521C2853.43 22.4387 2849.55 22.6803 2845.71 22.9721L2845.26 17.1396C2849.16 16.8437 2853.09 16.5987 2857.05 16.4094L2857.33 22.2521ZM1985.82 23.1463C1982 23.6053 1978.18 24.0779 1974.35 24.5634L1973.61 18.7605C1977.46 18.2735 1981.29 17.7993 1985.12 17.3389L1985.82 23.1463ZM2927.1 25.0478C2923.17 24.555 2919.31 24.1228 2915.5 23.7481L2916.07 17.9269C2919.93 18.3067 2923.85 18.7448 2927.83 19.2441L2927.1 25.0478ZM2834.1 24.0069C2830.22 24.4026 2826.36 24.8454 2822.51 25.3307L2821.78 19.5272C2825.67 19.0366 2829.58 18.5884 2833.5 18.1878L2834.1 24.0069ZM2236.83 26.913C2233.16 26.0883 2229.44 25.2876 2225.68 24.5154L2226.86 18.7855C2230.66 19.5654 2234.41 20.3737 2238.11 21.2054L2236.83 26.913ZM1962.91 26.0487C1959.09 26.5549 1955.28 27.0731 1951.46 27.6023L1950.66 21.8084C1954.49 21.2777 1958.31 20.758 1962.14 20.2502L1962.91 26.0487ZM2950.16 28.5345C2946.28 27.851 2942.45 27.2251 2938.68 26.6543L2939.56 20.871C2943.37 21.4488 2947.24 22.0822 2951.18 22.7736L2950.16 28.5345ZM2810.94 26.9112C2807.1 27.4755 2803.26 28.0772 2799.4 28.7115L2798.45 22.9398C2802.34 22.3006 2806.22 21.6936 2810.09 21.124L2810.94 26.9112ZM1940.03 29.2195C1936.22 29.7689 1932.41 30.3286 1928.6 30.8977L1927.73 25.1127C1931.55 24.5421 1935.37 23.981 1939.19 23.43L1940.03 29.2195ZM2259.07 32.2323C2255.38 31.3043 2251.68 30.3913 2247.96 29.4985L2249.32 23.8106C2253.07 24.7094 2256.79 25.6276 2260.49 26.5596L2259.07 32.2323ZM2787.88 30.6916C2784.06 31.3727 2780.23 32.0804 2776.37 32.8103L2775.28 27.0627C2779.16 26.3298 2783.01 25.6184 2786.85 24.9333L2787.88 30.6916ZM2967.4 31.8634C2965.45 31.4544 2963.52 31.0594 2961.6 30.6781L2962.74 24.941C2964.68 25.3264 2966.63 25.7256 2968.6 26.1388C2970.61 26.5614 2972.61 26.9778 2974.6 27.3881L2973.42 33.1164C2971.42 32.7049 2969.42 32.2873 2967.4 31.8634ZM3279.99 31.7538C3278.07 32.4443 3276.15 33.1216 3274.23 33.7855L3272.31 28.2582C3274.21 27.6018 3276.11 26.9318 3278.01 26.2484L3279.99 31.7538ZM1917.18 32.6337C1913.37 33.2228 1909.57 33.8206 1905.77 34.4263L1904.85 28.65C1908.66 28.0428 1912.47 27.4436 1916.29 26.8531L1917.18 32.6337ZM2764.87 35.0271C2761.07 35.7709 2757.24 36.5311 2753.37 37.3035L2752.22 31.5672C2756.1 30.7941 2759.94 30.0325 2763.74 29.2869L2764.87 35.0271ZM2279.94 37.6061C2276.67 36.7537 2273.41 35.9055 2270.16 35.0644L2271.62 29.401C2274.88 30.2448 2278.15 31.0956 2281.43 31.9491L2282.72 32.284L2281.25 37.9448L2279.94 37.6061ZM2997.2 37.8653C2993.3 37.1139 2989.33 36.3366 2985.31 35.533L2986.45 29.797C2990.46 30.5979 2994.41 31.3725 2998.31 32.1211L2997.2 37.8653ZM1894.37 36.2732C1890.56 36.8981 1886.77 37.5301 1882.99 38.1686L1882.01 32.401C1885.8 31.7611 1889.6 31.1275 1893.42 30.5012L1894.37 36.2732ZM3262.64 37.6373C3258.75 38.875 3254.85 40.0547 3250.95 41.1741L3249.33 35.5508C3253.19 34.4478 3257.03 33.2845 3260.87 32.063L3262.64 37.6373ZM2741.86 39.6043C2738.07 40.3627 2734.24 41.1285 2730.35 41.898L2729.21 36.1599C2733.09 35.3917 2736.93 34.6267 2740.72 33.8686L2741.86 39.6043ZM1871.58 40.1208C1867.78 40.7807 1863.99 41.4463 1860.21 42.1168L1859.19 36.3578C1862.97 35.6859 1866.77 35.0188 1870.58 34.3574L1871.58 40.1208ZM3021.16 42.2697C3017.23 41.5814 3013.23 40.8642 3009.17 40.1175L3010.23 34.3647C3014.27 35.1084 3018.25 35.8226 3022.17 36.5079L3021.16 42.2697ZM2303.48 43.6507C2299.73 42.7123 2296.02 41.768 2292.35 40.8229L2293.81 35.1582C2297.47 36.101 2301.16 37.0418 2304.9 37.9761L2303.48 43.6507ZM1848.85 44.1621C1845.03 44.8568 1841.24 45.5556 1837.47 46.2578L1836.4 40.5074C1840.17 39.8038 1843.98 39.1035 1847.8 38.4074L1848.85 44.1621ZM2718.81 44.1575C2715.01 44.8927 2711.16 45.628 2707.25 46.36L2706.18 40.6106C2710.07 39.8811 2713.91 39.1481 2717.7 38.4147L2718.81 44.1575ZM3045.19 46.2273C3041.24 45.6205 3037.24 44.9815 3033.17 44.3099L3034.12 38.5386C3038.17 39.2069 3042.16 39.8426 3046.08 40.4461L3045.19 46.2273ZM3239.14 44.3553C3235.2 45.3491 3231.23 46.2804 3227.22 47.1468L3225.99 41.4296C3229.93 40.5777 3233.83 39.6616 3237.71 38.6835L3239.14 44.3553ZM2325.85 48.9893C2322.06 48.1339 2318.32 47.2643 2314.65 46.385L2316.01 40.6961C2319.66 41.57 2323.37 42.4337 2327.14 43.283L2325.85 48.9893ZM3069.29 49.6409C3065.34 49.1332 3061.32 48.5895 3057.23 48.0092L3058.05 42.2178C3062.11 42.7946 3066.11 43.3349 3070.04 43.8393L3069.29 49.6409ZM1826.15 48.3903C1822.33 49.1176 1818.54 49.8474 1814.78 50.5787L1813.66 44.837C1817.43 44.1043 1821.23 43.373 1825.05 42.6442L1826.15 48.3903ZM2695.66 48.487C2691.87 49.1677 2688.02 49.8428 2684.11 50.5095L2683.12 44.7434C2687.02 44.0797 2690.85 43.4076 2694.63 42.7296L2695.66 48.487ZM3215.22 49.524C3211.24 50.2389 3207.22 50.8903 3203.14 51.476L3202.31 45.686C3206.32 45.1102 3210.28 44.4698 3214.19 43.767L3215.22 49.524ZM3093.49 52.3846C3089.52 51.9989 3085.49 51.5728 3081.38 51.1057L3082.04 45.2938C3086.12 45.7575 3090.12 46.1802 3094.05 46.5628L3093.49 52.3846ZM2348.39 53.701C2344.55 52.9641 2340.79 52.2075 2337.1 51.4349L2338.3 45.7096C2341.96 46.476 2345.69 47.2262 2349.49 47.9567L2348.39 53.701ZM2672.53 52.4277C2668.71 53.0403 2664.84 53.6431 2660.91 54.2339L2660.04 48.4494C2663.95 47.8617 2667.8 47.262 2671.6 46.6524L2672.53 52.4277ZM1803.43 52.81C1799.63 53.5647 1795.87 54.32 1792.15 55.0746L1790.99 49.342C1794.72 48.5858 1798.49 47.8291 1802.29 47.0729L1803.43 52.81ZM3191 53.0038C3187 53.4366 3182.95 53.8082 3178.82 54.1169L3178.38 48.2839C3182.45 47.9799 3186.44 47.6142 3190.37 47.1885L3191 53.0038ZM3117.78 54.3001C3113.8 54.0646 3109.74 53.7838 3105.61 53.4565L3106.07 47.6255C3110.17 47.9497 3114.18 48.2279 3118.12 48.4609L3117.78 54.3001ZM3166.61 54.8358C3162.61 55.0094 3158.53 55.1264 3154.38 55.1853L3154.3 49.3366C3158.4 49.2785 3162.41 49.1631 3166.36 48.9919L3166.61 54.8358ZM3142.19 55.193C3138.2 55.143 3134.13 55.0419 3129.98 54.8888L3130.2 49.0434C3134.3 49.1949 3138.32 49.2947 3142.26 49.3441L3142.19 55.193ZM2371.06 57.6498C2367.2 57.0466 2363.42 56.4206 2359.71 55.7747L2360.71 50.0122C2364.39 50.6523 2368.14 51.2726 2371.97 51.8704L2371.06 57.6498ZM2649.24 55.9226C2645.4 56.4567 2641.5 56.9781 2637.54 57.4849L2636.8 51.6828C2640.74 51.1789 2644.61 50.6604 2648.43 50.1291L2649.24 55.9226ZM1780.8 57.4005C1776.97 58.1923 1773.2 58.9821 1769.47 59.7689L1768.26 54.0458C1772 53.2574 1775.78 52.4659 1779.61 51.6726L1780.8 57.4005ZM2625.91 58.9072C2622.08 59.3553 2618.18 59.7888 2614.22 60.2061L2613.61 54.389C2617.54 53.974 2621.42 53.5429 2625.24 53.0974L2625.91 58.9072ZM2393.89 60.804C2390 60.3344 2386.19 59.8407 2382.45 59.3251L2383.26 53.5308C2386.95 54.0419 2390.73 54.5312 2394.59 54.9968L2393.89 60.804ZM2602.44 61.3818C2598.61 61.742 2594.73 62.0866 2590.79 62.4143L2590.3 56.5851C2594.22 56.2592 2598.08 55.9164 2601.89 55.5582L2602.44 61.3818ZM2416.83 63.1884C2412.93 62.8465 2409.11 62.4805 2405.37 62.092L2405.97 56.2739C2409.69 56.6592 2413.47 57.0223 2417.34 57.3615L2416.83 63.1884ZM1758.21 62.1724C1754.39 62.9954 1750.63 63.8135 1746.94 64.6252L1745.68 58.9125C1749.38 58.099 1753.15 57.2791 1756.97 56.4544L1758.21 62.1724ZM2579.06 63.3258C2575.18 63.6065 2571.24 63.8706 2567.24 64.1169L2566.88 58.2787C2570.86 58.0337 2574.77 57.771 2578.64 57.4917L2579.06 63.3258ZM2439.74 64.8517C2435.83 64.6251 2432.01 64.375 2428.25 64.1027L2428.67 58.2687C2432.4 58.5389 2436.2 58.7872 2440.07 59.0122L2439.74 64.8517ZM2555.58 64.7758C2551.7 64.9754 2547.77 65.1581 2543.78 65.323L2543.53 59.4786C2547.51 59.3145 2551.42 59.1327 2555.28 58.9342L2555.58 64.7758ZM2462.73 65.8759C2458.85 65.7536 2455.05 65.609 2451.31 65.4434L2451.57 59.5998C2455.28 59.7643 2459.06 59.9079 2462.92 60.0295L2462.73 65.8759ZM2532.06 65.7501C2530.08 65.8127 2528.08 65.8709 2526.08 65.9246C2524.11 65.9774 2522.15 66.0252 2520.22 66.0682L2520.09 60.2203C2522.02 60.1775 2523.96 60.1299 2525.92 60.0774C2527.92 60.0239 2529.9 59.966 2531.87 59.9037L2532.06 65.7501ZM2485.82 66.3271C2481.89 66.2956 2478.02 66.2424 2474.22 66.1683L2474.33 60.3201C2478.11 60.3937 2481.96 60.4467 2485.87 60.478L2485.82 66.3271ZM2508.76 66.2684C2504.84 66.3182 2500.99 66.3476 2497.2 66.3574L2497.19 60.5081C2500.96 60.4983 2504.79 60.4691 2508.69 60.4196L2508.76 66.2684ZM1735.62 67.1429C1731.77 68.007 1728.01 68.8618 1724.34 69.7054L1723.03 64.0045C1726.71 63.1588 1730.48 62.3019 1734.33 61.4358L1735.62 67.1429ZM1713.09 72.3176C1709.24 73.2247 1705.49 74.1156 1701.88 74.9878L1700.51 69.3015C1704.13 68.4266 1707.89 67.5331 1711.75 66.6235L1713.09 72.3176ZM1690.67 77.7283C1686.75 78.7021 1683.01 79.6461 1679.47 80.5561L1678.01 74.8906C1681.57 73.9764 1685.33 73.0285 1689.26 72.0512L1690.67 77.7283ZM1668.27 83.4917C1664.21 84.5815 1660.52 85.6037 1657.22 86.549L1655.61 80.9257C1658.95 79.97 1662.67 78.939 1666.76 77.8423L1668.27 83.4917ZM1646.21 89.8888C1644.05 90.5984 1642.34 91.2087 1641.1 91.7123L1638.9 86.2894C1640.32 85.7166 1642.16 85.0604 1644.38 84.3315L1646.21 89.8888Z" fill="#003465"/>
<path fillRule="evenodd" clipRule="evenodd" d="M1087.57 6.50147C1091.3 6.36442 1095.1 6.31048 1098.97 6.34657L1099.03 0.497487C1095.06 0.460562 1091.17 0.515746 1087.35 0.656084L1087.57 6.50147ZM1110.39 6.70675C1114.11 6.90574 1117.92 7.18708 1121.8 7.55628L1122.35 1.73319C1118.39 1.35646 1114.51 1.0691 1110.7 0.865741L1110.39 6.70675ZM1064.85 8.40373C1068.57 7.91713 1072.34 7.50879 1076.18 7.18693L1075.7 1.35804C1071.76 1.68765 1067.9 2.10575 1064.09 2.60373L1064.85 8.40373ZM1133.17 8.86017C1136.85 9.35253 1140.61 9.92174 1144.44 10.572L1145.42 4.80488C1141.52 4.14355 1137.7 3.56409 1133.95 3.06251L1133.17 8.86017ZM1042.34 12.3474C1046.05 11.5404 1049.79 10.8002 1053.56 10.1357L1052.55 4.37487C1048.69 5.05375 1044.88 5.80942 1041.1 6.63201L1042.34 12.3474ZM1155.67 12.6611C1157.55 13.0422 1159.45 13.4421 1161.38 13.8614C1163.26 14.2726 1165.14 14.7251 1167.01 15.2167L1168.5 9.55912C1166.55 9.04751 1164.59 8.5757 1162.62 8.14633C1160.67 7.72093 1158.74 7.31496 1156.83 6.928L1155.67 12.6611ZM1020.14 17.9713C1023.83 16.9225 1027.51 15.923 1031.21 14.9821L1029.76 9.31338C1026.01 10.2695 1022.27 11.2836 1018.54 12.3456L1020.14 17.9713ZM1178.14 18.598C1181.77 19.8458 1185.4 21.2259 1189.04 22.7216L1191.26 17.311C1187.53 15.777 1183.79 14.3554 1180.04 13.0659L1178.14 18.598ZM998.165 24.703C1001.84 23.5157 1005.5 22.3579 1009.14 21.2384L1007.42 15.6476C1003.75 16.7768 1000.07 17.943 996.368 19.1363L998.165 24.703ZM399.384 21.8245C403.309 21.7808 407.188 21.7967 411.028 21.8681L411.136 16.0197C407.239 15.9473 403.303 15.9311 399.319 15.9755L399.384 21.8245ZM376.116 22.7724C380.045 22.4973 383.92 22.2834 387.745 22.1272L387.506 16.2828C383.624 16.4413 379.693 16.6582 375.707 16.9374L376.116 22.7724ZM422.667 22.2551C426.573 22.4417 430.445 22.6833 434.294 22.9752L434.737 17.1426C430.835 16.8467 426.908 16.6017 422.946 16.4124L422.667 22.2551ZM352.903 25.0508C356.828 24.558 360.692 24.1258 364.502 23.7511L363.929 17.9299C360.067 18.3097 356.151 18.7478 352.174 19.2471L352.903 25.0508ZM445.904 24.01C449.779 24.4056 453.638 24.8484 457.491 25.3337L458.222 19.5302C454.327 19.0396 450.421 18.5914 446.498 18.1909L445.904 24.01ZM329.837 28.5375C333.724 27.854 337.548 27.2281 341.316 26.6573L340.44 20.874C336.626 21.4518 332.755 22.0852 328.824 22.7766L329.837 28.5375ZM469.056 26.9142C472.897 27.4785 476.742 28.0802 480.598 28.7145L481.547 22.9428C477.662 22.3036 473.784 21.6966 469.906 21.127L469.056 26.9142ZM1199.76 27.4187C1203.26 29.0389 1206.79 30.7476 1210.35 32.5304L1212.97 27.2986C1209.36 25.4951 1205.78 23.7602 1202.22 22.1107L1199.76 27.4187ZM981.479 30.1796C983.397 29.545 985.302 28.9145 987.207 28.2857L985.374 22.7311C983.483 23.3552 981.572 23.9875 979.652 24.6231C977.91 25.1996 976.159 25.7789 974.408 26.3572L976.242 31.9115C978.004 31.3296 979.747 30.7529 981.479 30.1796ZM492.121 30.6946C495.936 31.3757 499.769 32.0834 503.631 32.8133L504.717 27.0657C500.84 26.3328 496.986 25.6215 493.15 24.9364L492.121 30.6946ZM312.6 31.8665C314.549 31.4574 316.482 31.0624 318.401 30.6811L317.26 24.944C315.321 25.3294 313.368 25.7286 311.399 26.1418C309.385 26.5644 307.386 26.9808 305.4 27.3911L306.584 33.1194C308.575 32.7079 310.581 32.2903 312.6 31.8665ZM0.0113525 31.7568C1.93481 32.4473 3.85449 33.1246 5.77185 33.7885L7.68579 28.2612C5.79004 27.6048 3.89124 26.9348 1.98767 26.2515L0.0113525 31.7568ZM515.133 35.0301C518.93 35.774 522.76 36.5341 526.632 37.3065L527.777 31.5702C523.901 30.7971 520.063 30.0355 516.257 29.2899L515.133 35.0301ZM282.796 37.8683C286.704 37.1169 290.669 36.3396 294.693 35.536L293.547 29.8C289.537 30.6009 285.586 31.3755 281.692 32.1241L282.796 37.8683ZM954.219 39.0297C957.958 37.8603 961.632 36.6854 965.251 35.5126L963.447 29.9482C959.843 31.1163 956.189 32.2849 952.473 33.4471L954.219 39.0297ZM17.3594 37.6403C21.2516 38.878 25.1461 40.0577 29.0549 41.1771L30.6653 35.5538C26.8136 34.4508 22.9733 33.2875 19.132 32.066L17.3594 37.6403ZM1220.86 37.9139C1224.29 39.7089 1227.77 41.5544 1231.32 43.4397L1234.06 38.2761C1230.52 36.3888 1227.02 34.535 1223.57 32.7297L1220.86 37.9139ZM538.137 39.6073C541.928 40.3657 545.765 41.1316 549.652 41.901L550.788 36.1629C546.906 35.3947 543.074 34.6297 539.284 33.8716L538.137 39.6073ZM258.836 42.2727C262.771 41.5845 266.767 40.8672 270.826 40.1205L269.768 34.3677C265.725 35.1114 261.746 35.8256 257.828 36.5109L258.836 42.2727ZM932.001 45.6244C935.785 44.5692 939.495 43.4969 943.138 42.4135L941.471 36.8068C937.857 37.8816 934.179 38.9446 930.43 39.9901L932.001 45.6244ZM561.186 44.1605C564.985 44.8957 568.836 45.631 572.745 46.363L573.822 40.6136C569.926 39.8841 566.087 39.1511 562.297 38.4177L561.186 44.1605ZM234.814 46.2303C238.755 45.6235 242.761 44.9846 246.833 44.313L245.882 38.5416C241.829 39.2099 237.844 39.8456 233.924 40.4491L234.814 46.2303ZM40.8623 44.3583C44.8035 45.3521 48.7705 46.2834 52.7756 47.1498L54.0123 41.4327C50.0737 40.5807 46.1713 39.6646 42.2926 38.6865L40.8623 44.3583ZM210.71 49.644C214.662 49.1362 218.682 48.5925 222.773 48.0122L221.952 42.2209C217.885 42.7976 213.891 43.3379 209.964 43.8423L210.71 49.644ZM584.339 48.49C588.132 49.1707 591.982 49.8458 595.892 50.5125L596.875 44.7464C592.983 44.0827 589.15 43.4106 585.372 42.7326L584.339 48.49ZM909.547 51.4163C913.377 50.5117 917.127 49.5821 920.805 48.6325L919.342 42.9689C915.702 43.9089 911.991 44.8288 908.203 45.7237L909.547 51.4163ZM64.7789 49.527C68.7554 50.2419 72.7784 50.8933 76.8591 51.479L77.6902 45.6891C73.6781 45.1132 69.7231 44.4728 65.814 43.77L64.7789 49.527ZM1241.76 49.0007C1245.19 50.823 1248.69 52.6684 1252.25 54.5254L1254.96 49.3372C1251.41 47.4902 1247.93 45.6527 1244.5 43.8344L1241.76 49.0007ZM186.515 52.3876C190.479 52.0019 194.514 51.5759 198.623 51.1087L197.962 45.2968C193.883 45.7605 189.88 46.1833 185.948 46.5658L186.515 52.3876ZM607.473 52.4307C611.287 53.0433 615.159 53.6462 619.093 54.2369L619.961 48.4524C616.048 47.8647 612.196 47.265 608.401 46.6555L607.473 52.4307ZM89.0032 53.0068C92.998 53.4396 97.0542 53.8112 101.181 54.1199L101.618 48.2869C97.5544 47.983 93.5629 47.6172 89.6332 47.1915L89.0032 53.0068ZM162.224 54.3031C166.204 54.0677 170.258 53.7868 174.39 53.4595L173.928 47.6285C169.834 47.9527 165.819 48.2309 161.879 48.464L162.224 54.3031ZM886.834 56.264C890.71 55.5254 894.505 54.757 898.225 53.9626L897.004 48.2422C893.325 49.0278 889.571 49.7877 885.739 50.5181L886.834 56.264ZM113.385 54.8388C117.39 55.0125 121.465 55.1294 125.618 55.1883L125.701 49.3396C121.604 49.2815 117.586 49.1661 113.639 48.9949L113.385 54.8388ZM137.81 55.196C141.803 55.146 145.87 55.0449 150.016 54.8918L149.8 49.0464C145.7 49.1979 141.681 49.2977 137.736 49.3472L137.81 55.196ZM630.764 55.9256C634.602 56.4598 638.499 56.9812 642.459 57.4879L643.201 51.6859C639.263 51.1819 635.387 50.6634 631.57 50.1321L630.764 55.9256ZM863.904 60.1125C867.801 59.5457 871.62 58.9465 875.366 58.3183L874.398 52.5495C870.694 53.1708 866.917 53.7634 863.062 54.3241L863.904 60.1125ZM654.085 58.9103C657.924 59.3583 661.821 59.7918 665.779 60.2091L666.393 54.392C662.456 53.977 658.581 53.5459 654.763 53.1004L654.085 58.9103ZM1262.83 59.9437C1266.31 61.6969 1269.86 63.4513 1273.5 65.198L1276.03 59.926C1272.43 58.1967 1268.91 56.4582 1265.46 54.7189L1262.83 59.9437ZM677.564 61.3848C681.39 61.745 685.273 62.0896 689.214 62.4173L689.699 56.5881C685.779 56.2622 681.917 55.9194 678.112 55.5612L677.564 61.3848ZM840.908 62.9626C844.828 62.559 848.673 62.1222 852.446 61.6548L851.727 55.8499C847.993 56.3123 844.189 56.7446 840.309 57.144L840.908 62.9626ZM700.942 63.3288C704.824 63.6096 708.761 63.8736 712.756 64.1199L713.116 58.2817C709.142 58.0367 705.225 57.774 701.364 57.4947L700.942 63.3288ZM817.781 64.8827C821.679 64.6344 825.507 64.3537 829.268 64.0425L828.786 58.2131C825.062 58.5212 821.27 58.7993 817.409 59.0452L817.781 64.8827ZM724.416 64.7788C728.298 64.9784 732.234 65.1611 736.224 65.326L736.466 59.4817C732.495 59.3176 728.579 59.1357 724.716 58.9372L724.416 64.7788ZM794.519 65.9398C798.481 65.8297 802.376 65.6869 806.205 65.5131L805.94 59.6698C802.145 59.842 798.285 59.9836 794.356 60.0928L794.519 65.9398ZM747.943 65.7531C749.923 65.8157 751.915 65.8739 753.921 65.9277C755.906 65.9808 757.876 66.0263 759.831 66.0643L759.945 60.2161C758.004 60.1784 756.049 60.1332 754.078 60.0804C752.081 60.0269 750.098 59.969 748.128 59.9067L747.943 65.7531ZM771.382 66.2032C775.329 66.2209 779.213 66.2074 783.036 66.1639L782.969 60.315C779.178 60.3581 775.325 60.3715 771.408 60.3539L771.382 66.2032ZM1284.29 70.2418C1287.84 71.8575 1291.48 73.4588 1295.2 75.0382L1297.49 69.6542C1293.81 68.0947 1290.22 66.5128 1286.7 64.9157L1284.29 70.2418ZM1306.25 79.5586C1309.89 80.9927 1313.61 82.4014 1317.42 83.7786L1319.41 78.2781C1315.65 76.9201 1311.98 75.5307 1308.39 74.1158L1306.25 79.5586ZM1328.66 87.6656C1332.36 88.8877 1336.15 90.0773 1340.01 91.2295L1341.68 85.6238C1337.87 84.488 1334.14 83.3153 1330.49 82.1105L1328.66 87.6656ZM1634.62 93.0424C1636.59 92.6596 1638.58 92.2695 1640.57 91.8721L1639.43 86.1357C1637.44 86.5311 1635.47 86.9192 1633.51 87.3L1634.62 93.0424ZM1351.48 94.4679C1355.27 95.4778 1359.13 96.4506 1363.07 97.3821L1364.42 91.6897C1360.53 90.771 1356.72 89.8119 1352.99 88.8163L1351.48 94.4679ZM1611.37 97.295C1615.17 96.6424 1619.01 95.9617 1622.89 95.2523L1621.84 89.4984C1617.98 90.204 1614.16 90.881 1610.38 91.53L1611.37 97.295ZM1587.84 101.05C1591.68 100.485 1595.56 99.8898 1599.48 99.2641L1598.56 93.4879C1594.66 94.1099 1590.8 94.7015 1586.99 95.2635L1587.84 101.05ZM1374.76 99.9725C1378.57 100.76 1382.45 101.508 1386.4 102.214L1387.43 96.4561C1383.53 95.7592 1379.7 95.0208 1375.95 94.2444L1374.76 99.9725ZM1564.24 104.217C1568.12 103.749 1572.04 103.249 1576 102.717L1575.22 96.9195C1571.28 97.4482 1567.39 97.9446 1563.54 98.4096L1564.24 104.217ZM1398.15 104.152C1402.04 104.741 1406 105.29 1410.03 105.795L1410.75 99.991C1406.77 99.4921 1402.86 98.9504 1399.03 98.3689L1398.15 104.152ZM1540.59 106.737C1544.49 106.378 1548.44 105.986 1552.44 105.56L1551.82 99.7435C1547.85 100.167 1543.93 100.556 1540.05 100.912L1540.59 106.737ZM1421.81 107.125C1425.69 107.516 1429.64 107.867 1433.65 108.176L1434.1 102.344C1430.13 102.038 1426.23 101.691 1422.39 101.305L1421.81 107.125ZM1516.88 108.547C1520.8 108.311 1524.76 108.04 1528.78 107.732L1528.33 101.9C1524.35 102.205 1520.41 102.474 1516.53 102.708L1516.88 108.547ZM1445.64 108.961C1449.5 109.17 1453.43 109.342 1457.42 109.473L1457.61 103.627C1453.66 103.497 1449.78 103.327 1445.95 103.12L1445.64 108.961ZM1493.14 109.576C1497.05 109.475 1501.01 109.338 1505.04 109.163L1504.78 103.319C1500.79 103.493 1496.86 103.629 1492.99 103.728L1493.14 109.576ZM1469.38 109.742C1473.27 109.79 1477.22 109.801 1481.23 109.772L1481.19 103.923C1477.22 103.951 1473.31 103.941 1469.45 103.893L1469.38 109.742Z" fill="#003465"/>
</svg>
