<svg width="76" height="98" viewBox="0 0 76 98" fill="none" xmlns="http://www.w3.org/2000/svg">
<path d="M46.9534 0L47.9041 1.42604L74.1668 47.1779C76.5435 51.2183 74.8798 56.6848 70.4829 59.1803C66.086 61.6759 60.7384 60.4875 58.2428 56.5659L54.3212 51.8125V89.3647C54.3212 94.1181 50.5185 97.9209 45.765 97.9209C41.0116 97.9209 37.2088 94.1181 37.2088 89.3647V75.8174C36.0205 76.4115 34.7133 76.7681 33.4061 76.7681C29.4845 76.7681 26.1571 74.0348 25.0876 70.4697C23.8992 71.1828 22.4732 71.5393 20.9283 71.5393C16.2937 71.5393 12.6098 67.9742 12.3721 63.4584C11.1837 64.0526 9.87655 64.4091 8.56935 64.4091C3.81591 64.4091 0.0131591 60.6064 0.0131587 55.8529C0.0131587 55.4964 -0.224516 45.1577 1.32035 31.4915C2.1522 23.5295 5.59845 3.44625 5.71728 2.6144L6.07379 0.594184L45.5273 0.59418L46.9534 0ZM44.339 4.99112L10.1142 4.99112C9.16353 10.3387 6.78681 25.1932 6.07379 31.6104C4.64776 45.0388 4.7666 55.3776 4.7666 55.4964C4.7666 57.6355 6.4303 59.2992 8.56935 59.2992C10.7084 59.2992 12.3721 57.6355 12.3721 55.4964V54.9022H17.1255V62.7454C17.1255 64.8845 18.7892 66.5482 20.9283 66.5482C23.0673 66.5482 24.731 64.8845 24.731 62.7454H29.4845V68.093C29.4845 70.2321 31.1482 71.8958 33.2872 71.8958C35.4263 71.8958 37.09 70.2321 37.09 68.093H41.8434V89.3647C41.9623 91.5037 43.626 93.1674 45.765 93.1674C47.9041 93.1674 49.5678 91.5037 49.5678 89.3647L49.5678 38.5029L62.2832 53.9515C63.3528 55.8529 65.9671 56.3283 68.1062 55.0211C70.2452 53.8327 71.1959 51.3372 70.1264 49.4358L44.339 4.99112Z" fill="#F9DD00"/>
<path d="M37.2091 78.9063H41.9626V53.5942H37.2091L37.2091 78.9063Z" fill="#F9DD00"/>
<path d="M24.8502 68.0925H29.6036V53.5945H24.8502L24.8502 68.0925Z" fill="#F9DD00"/>
<path d="M12.3721 61.7947H17.1255V49.1981H12.3721L12.3721 61.7947Z" fill="#F9DD00"/>
</svg>
