<svg width="83" height="83" viewBox="0 0 83 83" fill="none" xmlns="http://www.w3.org/2000/svg">
<path d="M41.5 83C18.6488 83 0 64.3513 0 41.5C0 18.6487 18.6488 0 41.5 0C64.3512 0 83 18.6487 83 41.5C83 64.3513 64.3512 83 41.5 83ZM41.5 16.5475C27.8418 16.5475 16.5475 27.5791 16.5475 41.5C16.5475 55.1582 27.8418 66.4525 41.5 66.4525C55.1582 66.4525 66.4525 55.4209 66.4525 41.5C66.4525 27.8418 55.4208 16.5475 41.5 16.5475Z" fill="#003465"/>
<path d="M41.5 63C29.6614 63 20 53.3386 20 41.5C20 29.6614 29.6614 20 41.5 20C53.3386 20 63 29.6614 63 41.5C63 53.3386 53.3386 63 41.5 63Z" fill="#F9DD00"/>
</svg>
