<svg width="1492" height="667" viewBox="0 0 1492 667" fill="none" xmlns="http://www.w3.org/2000/svg">
<g clip-path="url(#clip0_571_892)">
<path d="M130.591 258.236V287.184C130.591 301.782 118.711 313.658 104.11 313.658C89.5081 313.658 77.6289 301.782 77.6289 287.184V238.69H97.7576C101.14 250.402 111.864 258.896 124.651 258.896C126.713 258.896 128.693 258.649 130.591 258.236Z" stroke="#29659D" stroke-width="5.84933" stroke-miterlimit="10" stroke-linecap="round"/>
<path d="M122.257 306.482V343.183L104.108 369.492L85.959 343.183V306.482" stroke="#29659D" stroke-width="5.84933" stroke-miterlimit="10" stroke-linecap="round"/>
<path d="M59.3145 330.647V247.102C59.3145 223.515 78.4532 204.299 102.129 204.299C113.926 204.299 124.65 209.082 132.405 216.835C140.159 224.587 144.944 235.309 144.944 247.102V330.564" stroke="#29659D" stroke-width="5.84933" stroke-miterlimit="10" stroke-linecap="round"/>
<path d="M122.258 330.646H148.079C173.735 330.646 194.853 349.615 198.4 374.275" stroke="#29659D" stroke-width="5.84933" stroke-miterlimit="10" stroke-linecap="round"/>
<path d="M77.6289 364.048V391.016" stroke="#29659D" stroke-width="5.84933" stroke-miterlimit="10" stroke-linecap="round"/>
<path d="M91.0734 377.574H64.0977" stroke="#29659D" stroke-width="5.84933" stroke-miterlimit="10" stroke-linecap="round"/>
<path d="M139.747 452.541L125.97 443.469L91.4876 420.789L65.8317 403.882L38.7734 445.036L111.616 492.952C117.473 496.829 124.073 498.808 130.673 499.055C139.665 499.385 148.574 496.334 155.668 490.478" stroke="#29659D" stroke-width="5.84933" stroke-miterlimit="10" stroke-linecap="round"/>
<path d="M64.5931 405.78C59.4784 400.667 52.4664 397.533 44.6293 397.533C32.7501 397.533 22.6033 404.873 18.4785 415.347" stroke="#29659D" stroke-width="5.84933" stroke-miterlimit="10" stroke-linecap="round"/>
<path d="M46.0318 433.985L18.4785 415.264" stroke="#29659D" stroke-width="5.84933" stroke-miterlimit="10" stroke-linecap="round"/>
<path d="M156.576 395.471L125.971 443.47" stroke="#29659D" stroke-width="5.84933" stroke-miterlimit="10" stroke-linecap="round"/>
<path d="M91.4883 420.79C93.3857 407.099 105.1 396.543 119.372 396.543C130.921 396.543 140.82 403.553 145.192 413.45" stroke="#29659D" stroke-width="5.84933" stroke-miterlimit="10" stroke-linecap="round"/>
<path d="M72.9259 467.47L53.1271 491.387C47.765 497.82 39.8455 501.531 31.5135 501.531C23.759 501.531 16.747 498.397 11.6323 493.284C6.51761 488.171 3.38281 481.16 3.38281 473.408V463.429V381.369C3.38281 353.328 26.1514 330.565 54.1996 330.565H86.0425" stroke="#29659D" stroke-width="5.84933" stroke-miterlimit="10" stroke-linecap="round"/>
<path d="M198.896 480.17V668.95H130.59V498.974" stroke="#29659D" stroke-width="5.84933" stroke-miterlimit="10" stroke-linecap="round"/>
<path d="M63.6856 668.95H18.4785V498.396" stroke="#29659D" stroke-width="5.84933" stroke-miterlimit="10" stroke-linecap="round"/>
<path d="M130.588 576.003H50.2383V494.355" stroke="#29659D" stroke-width="5.84933" stroke-miterlimit="10" stroke-linecap="round"/>
<path d="M130.59 397.532V330.646" stroke="#29659D" stroke-width="5.84933" stroke-miterlimit="10" stroke-linecap="round"/>
<path d="M56.0156 397.532V330.646" stroke="#29659D" stroke-width="5.84933" stroke-miterlimit="10" stroke-linecap="round"/>
<path d="M63.6855 576.003V740.701" stroke="#29659D" stroke-width="5.84933" stroke-miterlimit="10" stroke-linecap="round"/>
<path d="M100.727 576.003V740.701" stroke="#29659D" stroke-width="5.84933" stroke-miterlimit="10" stroke-linecap="round"/>
<path d="M178.932 668.95V740.701" stroke="#29659D" stroke-width="5.84933" stroke-miterlimit="10" stroke-linecap="round"/>
<path d="M320.823 300.297V313.245C320.823 327.843 308.944 339.719 294.342 339.719C279.741 339.719 267.861 327.843 267.861 313.245V273.823" stroke="#29659D" stroke-width="5.84933" stroke-miterlimit="10" stroke-linecap="round"/>
<path d="M312.493 332.544V369.162L294.344 395.471L276.195 369.162V332.544" stroke="#29659D" stroke-width="5.84933" stroke-miterlimit="10" stroke-linecap="round"/>
<path d="M233.051 616.745V740.702" stroke="#29659D" stroke-width="5.84933" stroke-miterlimit="10" stroke-linecap="round"/>
<path d="M296.074 626.89V740.702" stroke="#29659D" stroke-width="5.84933" stroke-miterlimit="10" stroke-linecap="round"/>
<path d="M350.85 616.333V733.279" stroke="#29659D" stroke-width="5.84933" stroke-miterlimit="10" stroke-linecap="round"/>
<path d="M267.861 273.823H294.342L320.823 300.297L326.763 306.235" stroke="#29659D" stroke-width="5.84933" stroke-miterlimit="10" stroke-linecap="round"/>
<path d="M320.823 307.886C322.885 307.556 324.865 306.979 326.762 306.154C337.404 301.783 344.911 291.309 344.911 279.103C344.911 263.021 331.795 249.908 315.708 249.908C311.171 249.908 306.799 250.98 302.921 252.794C296.982 246.031 288.32 241.825 278.668 241.825C260.849 241.825 246.33 256.258 246.33 274.154C246.33 288.175 255.322 300.133 267.779 304.587" stroke="#29659D" stroke-width="5.84933" stroke-miterlimit="10" stroke-linecap="round"/>
<path d="M282.296 242.072C282.296 241.989 282.296 241.907 282.296 241.907C282.296 231.68 273.964 223.351 263.735 223.351C253.506 223.351 245.174 231.68 245.174 241.907C245.174 247.68 247.814 252.793 251.938 256.257" stroke="#29659D" stroke-width="5.84933" stroke-miterlimit="10" stroke-linecap="round"/>
<path d="M276.196 348.71H251.117" stroke="#29659D" stroke-width="5.84933" stroke-miterlimit="10" stroke-linecap="round"/>
<path d="M364.133 472.418V529.819H221.582V457.82" stroke="#29659D" stroke-width="5.84933" stroke-miterlimit="10" stroke-linecap="round"/>
<path d="M312.492 348.71H341.118C350.77 348.71 358.937 354.566 362.402 362.978" stroke="#29659D" stroke-width="5.84933" stroke-miterlimit="10" stroke-linecap="round"/>
<path d="M202.031 466.562L238.246 394.151L197.823 373.945L152.204 465.243C146.594 476.376 151.131 489.984 162.268 495.51C170.023 499.386 179.015 498.397 185.614 493.613L257.467 422.109" stroke="#29659D" stroke-width="5.84933" stroke-miterlimit="10" stroke-linecap="round"/>
<path d="M389.376 409.08L362.4 362.978" stroke="#29659D" stroke-width="5.84933" stroke-miterlimit="10" stroke-linecap="round"/>
<path d="M388.222 496.994L320.824 428.542L352.997 396.79L369.909 414.027" stroke="#29659D" stroke-width="5.84933" stroke-miterlimit="10" stroke-linecap="round"/>
<path d="M203.268 344.503C200.215 348.956 198.4 354.317 198.4 360.173C198.4 366.606 200.628 372.544 204.258 377.245" stroke="#29659D" stroke-width="5.84933" stroke-miterlimit="10" stroke-linecap="round"/>
<path d="M250.785 348.049C250.868 348.296 251.033 348.544 251.115 348.791C252.683 352.255 253.59 356.131 253.59 360.172C253.59 375.43 241.216 387.801 225.954 387.801C225.707 387.801 225.542 387.801 225.377 387.801" stroke="#29659D" stroke-width="5.84933" stroke-miterlimit="10" stroke-linecap="round"/>
<path d="M223.582 337.89C226.546 330.736 223.148 322.534 215.992 319.571C208.836 316.608 200.632 320.005 197.668 327.159C194.704 334.313 198.102 342.515 205.258 345.478C212.414 348.441 220.617 345.044 223.582 337.89Z" stroke="#29659D" stroke-width="5.84933" stroke-miterlimit="10" stroke-linecap="round"/>
<path d="M259.371 337.867C262.335 330.713 258.937 322.511 251.781 319.548C244.625 316.584 236.421 319.981 233.457 327.135C230.493 334.289 233.891 342.491 241.047 345.454C248.203 348.418 256.406 345.021 259.371 337.867Z" stroke="#29659D" stroke-width="5.84933" stroke-miterlimit="10" stroke-linecap="round"/>
<path d="M237.091 248.093L213.662 318.772" stroke="#29659D" stroke-width="5.84933" stroke-miterlimit="10" stroke-linecap="round"/>
<path d="M213.662 248.093L237.091 318.772" stroke="#29659D" stroke-width="5.84933" stroke-miterlimit="10" stroke-linecap="round"/>
<path d="M321.071 428.789C312.739 425.078 306.965 416.748 306.965 407.017C306.965 393.821 317.689 383.1 330.888 383.1C340.623 383.1 348.955 388.873 352.667 397.12" stroke="#29659D" stroke-width="5.84933" stroke-miterlimit="10" stroke-linecap="round"/>
<path d="M323.628 626.889H260.272C238.906 626.889 221.582 609.569 221.582 588.209V529.818H362.401V588.209C362.401 609.569 345.077 626.889 323.628 626.889Z" stroke="#29659D" stroke-width="5.84933" stroke-miterlimit="10" stroke-linecap="round"/>
<path d="M325.195 555.881H333.032V568.004C333.032 589.365 315.709 606.684 294.342 606.684C272.976 606.684 255.652 589.365 255.652 568.004V555.881H266.047" stroke="#29659D" stroke-width="5.84933" stroke-miterlimit="10" stroke-linecap="round"/>
<path d="M314.057 555.88H298.301" stroke="#29659D" stroke-width="5.84933" stroke-miterlimit="10" stroke-linecap="round"/>
<path d="M271.575 578.396C268.522 578.396 265.965 575.922 265.965 572.788V553.077C265.965 550.025 268.44 547.469 271.575 547.469C274.709 547.469 277.184 549.943 277.184 553.077V572.788C277.184 575.922 274.627 578.396 271.575 578.396Z" stroke="#29659D" stroke-width="5.84933" stroke-miterlimit="10" stroke-linecap="round"/>
<path d="M292.692 578.396C289.639 578.396 287.082 575.922 287.082 572.788V553.077C287.082 550.025 289.557 547.469 292.692 547.469C295.744 547.469 298.301 549.943 298.301 553.077V572.788C298.301 575.922 295.826 578.396 292.692 578.396Z" stroke="#29659D" stroke-width="5.84933" stroke-miterlimit="10" stroke-linecap="round"/>
<path d="M319.668 578.643C316.616 578.643 314.059 576.169 314.059 573.035V553.324C314.059 550.272 316.533 547.716 319.668 547.716C322.803 547.716 325.278 550.19 325.278 553.324V573.035C325.195 576.169 322.721 578.643 319.668 578.643Z" stroke="#29659D" stroke-width="5.84933" stroke-miterlimit="10" stroke-linecap="round"/>
<path d="M224.633 332.544C225.045 332.544 225.54 332.544 225.953 332.544C228.18 332.544 230.325 332.791 232.387 333.286" stroke="#29659D" stroke-width="5.84933" stroke-miterlimit="10" stroke-linecap="round"/>
<path d="M287.165 555.881H277.184" stroke="#29659D" stroke-width="5.84933" stroke-miterlimit="10" stroke-linecap="round"/>
<path d="M909.175 276.627L856.214 261.617L836.58 256.009" stroke="#29659D" stroke-width="5.84933" stroke-miterlimit="10" stroke-linecap="round"/>
<path d="M909.174 276.627V313.328C909.174 327.925 897.295 339.801 882.694 339.801C868.092 339.801 856.213 327.925 856.213 313.328V261.617" stroke="#29659D" stroke-width="5.84933" stroke-miterlimit="10" stroke-linecap="round"/>
<path d="M864.547 332.627V369.245L876.591 386.729" stroke="#29659D" stroke-width="5.84933" stroke-miterlimit="10" stroke-linecap="round"/>
<path d="M900.759 332.626V369.244L884.508 392.913" stroke="#29659D" stroke-width="5.84933" stroke-miterlimit="10" stroke-linecap="round"/>
<path d="M820.906 597.859V740.702" stroke="#29659D" stroke-width="5.84933" stroke-miterlimit="10" stroke-linecap="round"/>
<path d="M870.152 597.859V740.702" stroke="#29659D" stroke-width="5.84933" stroke-miterlimit="10" stroke-linecap="round"/>
<path d="M948.855 597.859V740.702" stroke="#29659D" stroke-width="5.84933" stroke-miterlimit="10" stroke-linecap="round"/>
<path d="M897.79 335.018C898.78 335.101 899.77 335.183 900.76 335.183C901.254 335.183 901.749 335.183 902.244 335.183C926.415 335.183 945.967 318.111 945.967 297.163C945.967 285.535 939.945 275.143 930.458 268.133C930.128 241.989 908.844 220.876 882.611 220.876C860.585 220.876 842.023 235.721 836.496 256.009" stroke="#29659D" stroke-width="5.84933" stroke-miterlimit="10" stroke-linecap="round"/>
<path d="M900.76 351.018H938.46C949.02 351.018 958.836 354.399 966.838 360.172C983.585 372.296 989.03 394.811 980.45 413.614L957.682 463.18C949.267 481.489 925.756 486.685 910.33 473.654L803.004 382.44" stroke="#29659D" stroke-width="5.84933" stroke-miterlimit="10" stroke-linecap="round"/>
<path d="M926.333 425.573L830.639 350.853" stroke="#29659D" stroke-width="5.84933" stroke-miterlimit="10" stroke-linecap="round"/>
<path d="M930.541 390.109L925.096 399.924L915.609 417.16" stroke="#29659D" stroke-width="5.84933" stroke-miterlimit="10" stroke-linecap="round"/>
<path d="M972.613 430.769L925.096 399.924" stroke="#29659D" stroke-width="5.84933" stroke-miterlimit="10" stroke-linecap="round"/>
<path d="M967.498 441.903V597.859H811.418V395.801" stroke="#29659D" stroke-width="5.84933" stroke-miterlimit="10" stroke-linecap="round"/>
<path d="M759.941 404.872C756.806 405.697 753.589 406.192 750.206 406.192C730.078 406.192 713.826 389.945 713.826 369.822C713.826 349.698 730.078 333.451 750.206 333.451C757.053 333.451 763.571 335.348 769.015 338.729" stroke="#29659D" stroke-width="5.84933" stroke-miterlimit="10" stroke-linecap="round"/>
<path d="M759.941 404.873V483.14C759.941 502.273 775.45 517.778 794.589 517.778H811.418" stroke="#29659D" stroke-width="5.84933" stroke-miterlimit="10" stroke-linecap="round"/>
<path d="M795.332 477.861V399.1" stroke="#29659D" stroke-width="5.84933" stroke-miterlimit="10" stroke-linecap="round"/>
<path d="M864.545 350.854H830.64C825.69 336.586 812.161 326.359 796.24 326.359C776.193 326.359 759.859 342.606 759.859 362.73C759.859 382.771 776.111 399.1 796.24 399.1C801.602 399.1 806.716 397.946 811.336 395.801C812.904 395.059 814.388 394.234 815.873 393.327" stroke="#29659D" stroke-width="5.84933" stroke-miterlimit="10" stroke-linecap="round"/>
<path d="M795.332 417.903H811.419" stroke="#29659D" stroke-width="5.84933" stroke-miterlimit="10" stroke-linecap="round"/>
<path d="M780.977 329.821V292.874C780.977 286.853 785.844 281.987 791.866 281.987H809.107C815.129 281.987 819.997 286.853 819.997 292.874V335.182" stroke="#29659D" stroke-width="5.84933" stroke-miterlimit="10" stroke-linecap="round"/>
<path d="M696.832 317.451L694.688 303.761L780.977 310.688" stroke="#29659D" stroke-width="5.84933" stroke-miterlimit="10" stroke-linecap="round"/>
<path d="M696.834 337.08L693.039 351.1L717.293 350.935" stroke="#29659D" stroke-width="5.84933" stroke-miterlimit="10" stroke-linecap="round"/>
<path d="M696.833 337.08C693.45 335.1 691.141 331.472 691.141 327.265C691.141 323.059 693.45 319.431 696.833 317.451" stroke="#29659D" stroke-width="5.84933" stroke-miterlimit="10" stroke-linecap="round"/>
<path d="M767 257C562.669 195.677 107 32 107 32L29.5 69L45 114L483 735C483 735 290.507 811.773 302.55 821.631C392.511 895.083 628.656 895.214 781 709C933.344 522.786 898 309 767 257Z" fill="#F9DD00"/>
<path d="M596.106 269.782V307.637C596.106 322.235 584.227 334.111 569.625 334.111C555.024 334.111 543.145 322.235 543.145 307.637V279.926" stroke="#003465" stroke-width="5.84933" stroke-miterlimit="10" stroke-linecap="round"/>
<path d="M587.692 326.936V363.636L569.543 389.945L551.477 363.636V326.936" stroke="#003465" stroke-width="5.84933" stroke-miterlimit="10" stroke-linecap="round"/>
<path d="M427.654 411.883L441.348 425.573" stroke="#003465" stroke-width="5.84933" stroke-miterlimit="10" stroke-linecap="round"/>
<path d="M441.348 411.883L427.654 425.573" stroke="#003465" stroke-width="5.84933" stroke-miterlimit="10" stroke-linecap="round"/>
<path d="M483.172 607.838V740.701" stroke="#003465" stroke-width="5.84933" stroke-miterlimit="10" stroke-linecap="round"/>
<path d="M669.445 607.838V740.701" stroke="#003465" stroke-width="5.84933" stroke-miterlimit="10" stroke-linecap="round"/>
<path d="M572.762 607.838V740.701" stroke="#003465" stroke-width="5.84933" stroke-miterlimit="10" stroke-linecap="round"/>
<path d="M532.836 281.906L543.065 279.926L596.027 269.782L606.339 267.803" stroke="#003465" stroke-width="5.84933" stroke-miterlimit="10" stroke-linecap="round"/>
<path d="M532.835 281.906C530.772 277.205 529.617 272.009 529.617 266.566C529.617 245.37 546.776 228.216 567.977 228.216C589.178 228.216 606.337 245.37 606.337 266.566C606.337 266.978 606.337 267.39 606.337 267.803" stroke="#003465" stroke-width="5.84933" stroke-miterlimit="10" stroke-linecap="round"/>
<path d="M604.111 253.617C611.618 257.741 616.651 265.741 616.651 274.895C616.651 287.019 607.741 297.08 596.109 298.895" stroke="#003465" stroke-width="5.84933" stroke-miterlimit="10" stroke-linecap="round"/>
<path d="M527.06 405.284L498.6 348.708L548.179 323.307" stroke="#003465" stroke-width="5.84933" stroke-miterlimit="10" stroke-linecap="round"/>
<path d="M590.91 323.307L640.572 348.708L611.039 407.429" stroke="#003465" stroke-width="5.84933" stroke-miterlimit="10" stroke-linecap="round"/>
<path d="M429.059 398.852C429.801 372.296 451.58 351.018 478.308 351.018H499.674" stroke="#003465" stroke-width="5.84933" stroke-miterlimit="10" stroke-linecap="round"/>
<path d="M705.496 388.708C705.001 386.563 704.341 384.419 703.516 382.44C696.339 364.048 678.52 351.018 657.567 351.018H639.418" stroke="#003465" stroke-width="5.84933" stroke-miterlimit="10" stroke-linecap="round"/>
<path d="M681.077 579.054V607.837H464.445V563.137V526.932" stroke="#003465" stroke-width="5.84933" stroke-miterlimit="10" stroke-linecap="round"/>
<path d="M392.841 468.624L360.668 443.305C348.541 433.738 351.593 418.81 366.36 414.934L369.907 414.027L463.869 389.862L464.034 390.11C490.102 421.779 488.7 459.139 464.116 484.293" stroke="#003465" stroke-width="5.84933" stroke-miterlimit="10" stroke-linecap="round"/>
<path d="M646.183 517.118L460.982 504.5" stroke="#003465" stroke-width="5.84933" stroke-miterlimit="10" stroke-linecap="round"/>
<path d="M464.117 390.109L706.899 448.83L790.002 466L885.002 439" stroke="#003465" stroke-width="5.84933" stroke-miterlimit="10" stroke-linecap="round"/>
<path d="M721.418 522.23L743.197 523.715L804.001 530L861.001 564" stroke="#003465" stroke-width="5.84933" stroke-miterlimit="10" stroke-linecap="round"/>
<path d="M546.857 409.078L582.083 398.852L669.445 424.913L651.791 435.469" stroke="#003465" stroke-width="5.84933" stroke-miterlimit="10" stroke-linecap="round"/>
<path d="M488.205 506.396L523.43 547.715L554.283 510.85" stroke="#003465" stroke-width="5.84933" stroke-miterlimit="10" stroke-linecap="round"/>
<path d="M394.903 439.511L353.16 428.789" stroke="#003465" stroke-width="5.84933" stroke-miterlimit="10" stroke-linecap="round"/>
<path d="M453.079 515.758C468.123 500.717 468.123 476.331 453.079 461.291C438.034 446.25 413.641 446.25 398.597 461.291C383.552 476.331 383.552 500.717 398.597 515.758C413.641 530.799 438.034 530.799 453.079 515.758Z" stroke="#003465" stroke-width="5.84933" stroke-miterlimit="10" stroke-linecap="round"/>
<path d="M460.652 505.158C463.045 510.437 464.447 516.21 464.447 522.395C464.447 545.158 445.968 563.549 423.282 563.549C400.513 563.549 382.117 545.075 382.117 522.395C382.117 513.983 384.675 506.148 388.964 499.633" stroke="#003465" stroke-width="5.84933" stroke-miterlimit="10" stroke-linecap="round"/>
<path d="M711.583 538.814C726.627 523.773 726.627 499.387 711.583 484.346C696.538 469.306 672.145 469.306 657.1 484.346C642.056 499.387 642.056 523.773 657.1 538.814C672.145 553.855 696.538 553.855 711.583 538.814Z" stroke="#003465" stroke-width="5.84933" stroke-miterlimit="10" stroke-linecap="round"/>
<path d="M743.195 523.715C743.608 526.271 743.855 528.911 743.855 531.55C743.855 558.601 721.912 580.538 694.853 580.538C667.795 580.538 645.852 558.601 645.852 531.55C645.852 527.921 646.264 524.375 647.006 520.993" stroke="#003465" stroke-width="5.84933" stroke-miterlimit="10" stroke-linecap="round"/>
<path d="M703.516 382.44L725.872 453.449" stroke="#003465" stroke-width="5.84933" stroke-miterlimit="10" stroke-linecap="round"/>
<path d="M1115.16 258.153H1132.16V258.401V313.245C1132.16 327.843 1120.28 339.719 1105.68 339.719C1091.07 339.719 1079.2 327.843 1079.2 313.245V273.328" stroke="#29659D" stroke-width="5.84933" stroke-miterlimit="10" stroke-linecap="round"/>
<path d="M1123.74 332.626V369.244L1105.68 395.553L1087.53 369.244V332.626" stroke="#29659D" stroke-width="5.84933" stroke-miterlimit="10" stroke-linecap="round"/>
<path d="M1043.23 597.857V740.7" stroke="#29659D" stroke-width="5.84933" stroke-miterlimit="10" stroke-linecap="round"/>
<path d="M1123.99 597.857V740.7" stroke="#29659D" stroke-width="5.84933" stroke-miterlimit="10" stroke-linecap="round"/>
<path d="M1171.18 597.857V740.7" stroke="#29659D" stroke-width="5.84933" stroke-miterlimit="10" stroke-linecap="round"/>
<path d="M1079.2 273.328C1082.91 275.885 1087.44 277.369 1092.31 277.369C1103.78 277.369 1113.27 269.04 1115.16 258.153" stroke="#29659D" stroke-width="5.84933" stroke-miterlimit="10" stroke-linecap="round"/>
<path d="M1132.16 281.988C1144.53 276.709 1153.03 266.153 1153.03 253.947C1153.03 236.463 1135.62 222.277 1114.25 222.277C1095.94 222.277 1080.68 232.586 1076.55 246.442C1062.7 251.225 1052.96 262.524 1052.96 275.555C1052.96 289.41 1063.93 301.286 1079.19 305.492" stroke="#29659D" stroke-width="5.84933" stroke-miterlimit="10" stroke-linecap="round"/>
<path d="M1126.05 330.151C1152.29 330.399 1173.49 344.996 1173.49 362.975C1173.49 381.119 1151.96 395.8 1125.48 395.8C1119.04 395.8 1112.85 394.892 1107.16 393.325" stroke="#29659D" stroke-width="5.84933" stroke-miterlimit="10" stroke-linecap="round"/>
<path d="M1085.22 330.151C1058.98 330.399 1037.78 344.996 1037.78 362.975C1037.78 381.119 1059.31 395.8 1085.8 395.8C1092.23 395.8 1098.42 394.892 1104.11 393.325" stroke="#29659D" stroke-width="5.84933" stroke-miterlimit="10" stroke-linecap="round"/>
<path d="M1173.49 363.141C1188.17 365.45 1199.39 378.151 1199.39 393.491V425.49" stroke="#29659D" stroke-width="5.84933" stroke-miterlimit="10" stroke-linecap="round"/>
<path d="M1199.39 547.22V597.941H1003.63V393.491C1003.63 376.502 1017.41 362.812 1034.4 362.812H1037.87" stroke="#29659D" stroke-width="5.84933" stroke-miterlimit="10" stroke-linecap="round"/>
<path d="M1297.73 480.829H1132.16V501.035H1297.73V480.829Z" stroke="#29659D" stroke-width="5.84933" stroke-miterlimit="10" stroke-linecap="round"/>
<path d="M1297.73 480.829H1173.49L1215.56 391.017H1339.8L1297.73 480.829Z" stroke="#29659D" stroke-width="5.84933" stroke-miterlimit="10" stroke-linecap="round"/>
<path d="M1045.04 515.303L1089.18 466.562L1131.17 504.581L1072.51 569.24C1066.74 575.59 1058.9 579.054 1050.98 579.467C1041 579.961 1031.43 575.178 1025.33 567.261L1003.55 538.89" stroke="#29659D" stroke-width="5.84933" stroke-miterlimit="10" stroke-linecap="round"/>
<path d="M1059.4 425.572V501.035" stroke="#29659D" stroke-width="5.84933" stroke-miterlimit="10" stroke-linecap="round"/>
<path d="M1104.11 480.004C1104.52 459.634 1121.19 443.222 1141.73 443.222C1159.13 443.222 1173.73 455.015 1178.02 471.015" stroke="#29659D" stroke-width="5.84933" stroke-miterlimit="10" stroke-linecap="round"/>
<path d="M1123.99 512.498C1126.14 530.89 1141.81 545.157 1160.78 545.157C1181.24 545.157 1197.82 528.58 1197.82 508.127C1197.82 505.653 1197.58 503.261 1197.16 500.952" stroke="#29659D" stroke-width="5.84933" stroke-miterlimit="10" stroke-linecap="round"/>
<path d="M1197.33 502.272H1256.64V518.025C1256.64 534.189 1243.61 547.22 1227.44 547.22H1163.42V545.158" stroke="#29659D" stroke-width="5.84933" stroke-miterlimit="10" stroke-linecap="round"/>
<path d="M1383.93 325.533V369.244L1365.78 395.552L1347.71 369.244V328.172" stroke="#29659D" stroke-width="5.84933" stroke-miterlimit="10" stroke-linecap="round"/>
<path d="M1282.63 620.868V740.701" stroke="#29659D" stroke-width="5.84933" stroke-miterlimit="10" stroke-linecap="round"/>
<path d="M1444.98 740.701V664.001V640.249V620.868" stroke="#29659D" stroke-width="5.84933" stroke-miterlimit="10" stroke-linecap="round"/>
<path d="M1362.48 620.868V740.701" stroke="#29659D" stroke-width="5.84933" stroke-miterlimit="10" stroke-linecap="round"/>
<path d="M1390.94 279.926V307.637C1390.94 322.235 1379.06 334.111 1364.46 334.111C1349.86 334.111 1337.98 322.235 1337.98 307.637V269.782" stroke="#29659D" stroke-width="5.84933" stroke-miterlimit="10" stroke-linecap="round"/>
<path d="M1327.67 267.803L1337.9 269.782L1390.94 279.926L1401.17 281.906" stroke="#29659D" stroke-width="5.84933" stroke-miterlimit="10" stroke-linecap="round"/>
<path d="M1327.67 267.803C1327.67 267.39 1327.67 266.978 1327.67 266.566C1327.67 245.37 1344.83 228.216 1366.03 228.216C1387.23 228.216 1404.39 245.37 1404.39 266.566C1404.39 272.009 1403.24 277.205 1401.17 281.906" stroke="#29659D" stroke-width="5.84933" stroke-miterlimit="10" stroke-linecap="round"/>
<path d="M1337.9 298.895C1326.27 297.08 1317.36 287.019 1317.36 274.895C1317.36 265.741 1322.39 257.741 1329.9 253.617" stroke="#29659D" stroke-width="5.84933" stroke-miterlimit="10" stroke-linecap="round"/>
<path d="M1406.54 440.535V440.536L1406.55 440.535C1409.55 440.458 1412.03 442.923 1412.03 446.025C1412.03 449.04 1409.55 451.515 1406.54 451.515C1403.52 451.515 1401.05 449.04 1401.05 446.025C1401.05 443.011 1403.52 440.535 1406.54 440.535Z" fill="#03498A" stroke="#29659D" stroke-width="0.731166"/>
<path d="M1460.07 433.49V617.487" stroke="#29659D" stroke-width="5.84933" stroke-miterlimit="10" stroke-linecap="round"/>
<path d="M1327.67 470.851V416.996" stroke="#29659D" stroke-width="5.84933" stroke-miterlimit="10" stroke-linecap="round"/>
<path d="M1327.67 620.868V527.097" stroke="#29659D" stroke-width="5.84933" stroke-miterlimit="10" stroke-linecap="round"/>
<path d="M1327.67 391.017V362.729" stroke="#29659D" stroke-width="5.84933" stroke-miterlimit="10" stroke-linecap="round"/>
<path d="M1412.39 620.868V538.561" stroke="#29659D" stroke-width="5.84933" stroke-miterlimit="10" stroke-linecap="round"/>
<path d="M1412.39 432.253V362.729" stroke="#29659D" stroke-width="5.84933" stroke-miterlimit="10" stroke-linecap="round"/>
<path d="M1262.5 527.097V620.868H1412.39H1440.03H1444.98H1460.07" stroke="#29659D" stroke-width="5.84933" stroke-miterlimit="10" stroke-linecap="round"/>
<path d="M1383.93 359.678H1450.67C1471.71 359.678 1488.7 376.75 1488.7 397.698V640.25H1445.06" stroke="#29659D" stroke-width="5.84933" stroke-miterlimit="10" stroke-linecap="round"/>
<path d="M1263.16 391.017C1266.29 373.203 1281.88 359.678 1300.61 359.678H1347.72" stroke="#29659D" stroke-width="5.84933" stroke-miterlimit="10" stroke-linecap="round"/>
<path d="M1353.99 530.231C1355.64 536.334 1361.16 540.787 1367.76 540.787H1404.72C1412.56 540.787 1418.99 534.437 1418.99 526.519V444.294C1418.99 436.459 1412.64 430.026 1404.72 430.026H1367.76C1359.93 430.026 1353.49 436.377 1353.49 444.294V466.974" stroke="#29659D" stroke-width="5.84933" stroke-miterlimit="10" stroke-linecap="round"/>
<path d="M1302.43 470.851H1339.8V527.097H1255.24" stroke="#29659D" stroke-width="5.84933" stroke-miterlimit="10" stroke-linecap="round"/>
<path d="M1339.8 472.747C1343.76 469.861 1348.38 467.799 1353.49 466.974C1355.22 466.644 1357.04 466.479 1358.85 466.479C1376.59 466.479 1390.86 480.83 1390.86 498.561C1390.86 516.293 1376.51 530.643 1358.85 530.643C1357.2 530.643 1355.55 530.478 1353.99 530.231C1348.71 529.406 1343.92 527.344 1339.8 524.375" stroke="#29659D" stroke-width="5.84933" stroke-miterlimit="10" stroke-linecap="round"/>
<path d="M1483.67 640.249C1483.67 640.414 1483.67 640.579 1483.67 640.744C1483.67 655.259 1471.87 667.053 1457.35 667.053C1452.9 667.053 1448.69 665.981 1445.06 664.001" stroke="#29659D" stroke-width="5.84933" stroke-miterlimit="10" stroke-linecap="round"/>
<path d="M1371.39 387.388L1380.71 396.707L1365.78 411.635L1350.85 396.707L1360.17 387.388" stroke="#29659D" stroke-width="5.84933" stroke-miterlimit="10" stroke-linecap="round"/>
<path d="M1358.69 433.244L1364.54 415.429C1364.96 414.275 1366.61 414.275 1367.02 415.429L1371.8 430.027" stroke="#29659D" stroke-width="5.84933" stroke-miterlimit="10" stroke-linecap="round"/>
</g>
<defs>
<clipPath id="clip0_571_892">
<rect width="1492" height="667" fill="white"/>
</clipPath>
</defs>
</svg>
