<svg width="3390" height="85" viewBox="0 0 3390 85" fill="none" xmlns="http://www.w3.org/2000/svg">
<path d="M1821.34 77.9046C1822.68 77.7468 1824.61 77.4294 1827.04 76.984L1825.99 71.2307C1823.58 71.6728 1821.8 71.9609 1820.66 72.0954L1821.34 77.9046ZM1838.42 74.7439C1841.81 74.0509 1845.62 73.2584 1849.82 72.3785L1848.62 66.6537C1844.43 67.5327 1840.63 68.3229 1837.25 69.0132L1838.42 74.7439ZM1861.14 69.9924C1864.68 69.2437 1868.48 68.4412 1872.4 67.6118L1871.19 61.8888C1867.23 62.7259 1863.51 63.5135 1859.93 64.2694L1861.14 69.9924ZM1883.7 65.2284C1887.33 64.4636 1891.09 63.6743 1894.97 62.8634L1893.77 57.138C1889.89 57.9495 1886.13 58.7393 1882.5 59.5045L1883.7 65.2284ZM1906.2 60.5223C1909.87 59.761 1913.63 58.9844 1917.47 58.1946L1916.29 52.4653C1912.44 53.2558 1908.68 54.0331 1905.01 54.7951L1906.2 60.5223ZM1928.77 55.8806C1932.49 55.1235 1936.27 54.3567 1940.12 53.5818L1938.97 47.8476C1935.12 48.6233 1931.33 49.391 1927.6 50.1489L1928.77 55.8806ZM1951.38 51.3284C1955.09 50.5898 1958.86 49.8455 1962.67 49.0969L1961.54 43.3573C1957.72 44.1068 1953.96 44.852 1950.24 45.5915L1951.38 51.3284ZM1974.01 46.883C1977.74 46.1606 1981.51 45.4354 1985.32 44.7087L1984.22 38.9632C1980.41 39.6909 1976.63 40.4171 1972.9 41.1405L1974.01 46.883ZM1996.62 42.5669C2000.38 41.8605 2004.16 41.1538 2007.98 40.4478L2006.92 34.696C2003.09 35.4031 1999.3 36.1108 1995.54 36.8183L1996.62 42.5669ZM2019.29 38.3743C2023.04 37.6917 2026.83 37.0107 2030.63 36.3325L2029.6 30.5741C2025.79 31.2534 2022 31.9355 2018.24 32.6193L2019.29 38.3743ZM2042 34.3237C2045.75 33.6664 2049.53 33.0127 2053.32 32.3635L2052.33 26.5981C2048.54 27.2485 2044.75 27.9034 2040.99 28.5618L2042 34.3237ZM2064.69 30.4379C2068.47 29.8059 2072.25 29.1792 2076.05 28.5587L2075.11 22.7859C2071.3 23.4077 2067.51 24.0357 2063.73 24.6689L2064.69 30.4379ZM2087.42 26.7246C2091.21 26.1215 2095.01 25.5253 2098.81 24.9371L2097.91 19.1565C2094.1 19.7461 2090.3 20.3436 2086.5 20.948L2087.42 26.7246ZM2110.19 23.2021C2113.98 22.6323 2117.78 22.0711 2121.58 21.5194L2120.74 15.7308C2116.93 16.2838 2113.13 16.8464 2109.32 17.4176L2110.19 23.2021ZM2132.98 19.8937C2136.79 19.3607 2140.59 18.8382 2144.39 18.327L2143.61 12.5299C2139.8 13.0425 2135.99 13.5664 2132.17 14.1009L2132.98 19.8937ZM2155.8 16.8262C2159.62 16.3345 2163.43 15.8552 2167.23 15.3893L2166.52 9.58335C2162.71 10.0508 2158.88 10.5315 2155.05 11.0247L2155.8 16.8262ZM2178.66 14.0278C2182.48 13.5845 2186.3 13.1557 2190.1 12.7425L2189.46 6.92745C2185.65 7.34221 2181.82 7.77249 2177.98 8.21734L2178.66 14.0278ZM2201.55 11.5394C2205.38 11.1526 2209.18 10.7828 2212.97 10.4308L2212.43 4.60663C2208.63 4.96005 2204.8 5.33142 2200.96 5.71975L2201.55 11.5394ZM2224.47 9.41241C2228.31 9.08904 2232.13 8.78569 2235.93 8.50342L2235.49 2.67021C2231.68 2.95392 2227.84 3.25875 2223.98 3.58363L2224.47 9.41241ZM2247.37 7.71167C2251.24 7.46428 2255.08 7.24074 2258.89 7.0422L2258.58 1.20082C2254.76 1.40058 2250.89 1.62545 2247 1.87423L2247.37 7.71167ZM2270.36 6.51614C2274.22 6.36442 2278.03 6.24079 2281.8 6.14652L2281.65 0.299021C2277.86 0.394014 2274.01 0.518564 2270.13 0.671323L2270.36 6.51614ZM2293.33 5.94978C2295.24 5.9331 2297.13 5.92467 2299 5.92467V0.0753341C2297.11 0.0753341 2295.2 0.083843 2293.28 0.100672L2293.33 5.94978ZM2299 5.92467C2300.95 5.92467 2302.89 5.93335 2304.8 5.9505L2304.85 0.101401C2302.92 0.0840974 2300.97 0.0753341 2299 0.0753341V5.92467ZM2316.18 6.15665C2320.04 6.26293 2323.83 6.40472 2327.53 6.57989L2327.81 0.737081C2324.06 0.560071 2320.24 0.416854 2316.34 0.309523L2316.18 6.15665ZM2338.95 7.23899C2342.83 7.50409 2346.62 7.80635 2350.33 8.143L2350.86 2.31753C2347.1 1.97699 2343.27 1.67133 2339.35 1.40329L2338.95 7.23899ZM2361.68 9.30121C2365.53 9.73844 2369.29 10.2125 2372.99 10.7199L2373.79 4.92488C2370.05 4.41141 2366.23 3.93173 2362.34 3.48931L2361.68 9.30121ZM2384.26 12.4001C2388.07 13.0127 2391.81 13.6595 2395.49 14.3363L2396.55 8.58338C2392.83 7.89901 2389.04 7.24481 2385.19 6.62506L2384.26 12.4001ZM2406.68 16.5146C2410.44 17.2867 2414.16 18.0875 2417.83 18.9121L2419.11 13.2046C2415.41 12.3729 2411.66 11.5646 2407.86 10.7847L2406.68 16.5146ZM2428.96 21.4976C2432.68 22.3905 2436.38 23.3035 2440.06 24.2314L2441.49 18.5588C2437.79 17.6267 2434.07 16.7085 2430.32 15.8098L2428.96 21.4976ZM2451.16 27.0636C2454.84 28.0159 2458.53 28.9775 2462.24 29.9439L2463.72 24.2832C2460.01 23.3174 2456.31 22.3542 2452.62 21.4002L2451.16 27.0636ZM2473.35 32.8221C2477.02 33.7672 2480.73 34.7115 2484.48 35.6499L2485.9 29.9753C2482.16 29.041 2478.47 28.1001 2474.81 27.1573L2473.35 32.8221ZM2495.65 38.3842C2499.32 39.2635 2503.06 40.133 2506.85 40.9885L2508.14 35.2821C2504.37 34.4329 2500.66 33.5692 2497.01 32.6952L2495.65 38.3842ZM2518.1 43.434C2521.79 44.2067 2525.55 44.9633 2529.39 45.7002L2530.49 39.9559C2526.69 39.2254 2522.96 38.4752 2519.3 37.7088L2518.1 43.434ZM2540.71 47.7739C2544.42 48.4198 2548.2 49.0458 2552.06 49.6489L2552.97 43.8695C2549.14 43.2718 2545.39 42.6515 2541.71 42.0113L2540.71 47.7739ZM2563.45 51.3243C2567.19 51.8399 2571 52.3336 2574.89 52.8031L2575.59 46.9959C2571.73 46.5304 2567.95 46.041 2564.26 45.53L2563.45 51.3243ZM2586.37 54.0912C2590.11 54.4796 2593.93 54.8457 2597.83 55.1876L2598.34 49.3606C2594.47 49.0214 2590.68 48.6583 2586.97 48.2731L2586.37 54.0912ZM2609.25 56.1019C2613.01 56.3741 2616.83 56.6242 2620.74 56.8508L2621.07 51.0113C2617.2 50.7863 2613.4 50.5381 2609.67 50.2679L2609.25 56.1019ZM2632.31 57.4425C2636.05 57.6082 2639.85 57.7527 2643.73 57.8751L2643.92 52.0286C2640.06 51.9071 2636.28 51.7635 2632.57 51.5989L2632.31 57.4425ZM2655.22 58.1675C2659.02 58.2415 2662.89 58.2948 2666.82 58.3263L2666.87 52.4772C2662.96 52.4458 2659.11 52.3929 2655.33 52.3193L2655.22 58.1675ZM2678.2 58.3565C2681.99 58.3468 2685.84 58.3173 2689.76 58.2676L2689.69 52.4187C2685.79 52.4682 2681.96 52.4975 2678.19 52.5072L2678.2 58.3565ZM2701.22 58.0674C2703.15 58.0244 2705.11 57.9766 2707.08 57.9238L2706.92 52.0766C2704.96 52.1291 2703.02 52.1767 2701.09 52.2195L2701.22 58.0674ZM2707.08 57.9238C2709.08 57.8701 2711.08 57.8119 2713.06 57.7493L2712.87 51.9029C2710.9 51.9652 2708.92 52.0231 2706.92 52.0766L2707.08 57.9238ZM2724.78 57.3221C2728.77 57.1572 2732.7 56.9745 2736.58 56.7749L2736.28 50.9333C2732.42 51.1319 2728.5 51.3137 2724.53 51.4778L2724.78 57.3221ZM2748.24 56.1161C2752.24 55.8698 2756.18 55.6057 2760.06 55.325L2759.64 49.4909C2755.77 49.7701 2751.86 50.0328 2747.88 50.2778L2748.24 56.1161ZM2771.79 54.4135C2775.73 54.0858 2779.61 53.7411 2783.44 53.3809L2782.89 47.5573C2779.08 47.9156 2775.22 48.2583 2771.3 48.5843L2771.79 54.4135ZM2795.22 52.2052C2799.18 51.7879 2803.08 51.3545 2806.91 50.9064L2806.24 45.0965C2802.42 45.5421 2798.54 45.9731 2794.61 46.3881L2795.22 52.2052ZM2818.54 49.484C2822.5 48.9773 2826.4 48.4559 2830.24 47.9218L2829.43 42.1283C2825.61 42.6595 2821.74 43.1781 2817.8 43.682L2818.54 49.484ZM2841.91 46.233C2845.84 45.6423 2849.71 45.0395 2853.53 44.4269L2852.6 38.6516C2848.8 39.2612 2844.95 39.8609 2841.04 40.4485L2841.91 46.233ZM2865.11 42.5087C2869.02 41.8419 2872.87 41.1669 2876.66 40.4862L2875.63 34.7288C2871.85 35.4067 2868.02 36.0789 2864.12 36.7425L2865.11 42.5087ZM2888.25 38.3592C2892.16 37.6271 2896.01 36.8919 2899.81 36.1566L2898.7 30.4139C2894.91 31.1472 2891.07 31.8802 2887.18 32.6098L2888.25 38.3592ZM2911.35 33.8971C2915.23 33.1277 2919.07 32.3618 2922.86 31.6034L2921.72 25.8677C2917.93 26.6259 2914.09 27.3908 2910.21 28.1591L2911.35 33.8971ZM2934.37 29.3027C2938.24 28.5302 2942.07 27.7701 2945.87 27.0263L2944.74 21.286C2940.94 22.0317 2937.1 22.7932 2933.22 23.5664L2934.37 29.3027ZM2957.37 24.8095C2961.23 24.0796 2965.06 23.3718 2968.88 22.6908L2967.85 16.9325C2964.01 17.6176 2960.16 18.329 2956.28 19.0619L2957.37 24.8095ZM2980.4 20.7107C2984.26 20.0764 2988.1 19.4747 2991.94 18.9104L2991.09 13.1231C2987.22 13.6928 2983.34 14.2997 2979.45 14.9389L2980.4 20.7107ZM3003.51 17.3298C3007.36 16.8446 3011.22 16.4017 3015.1 16.0061L3014.5 10.187C3010.58 10.5876 3006.67 11.0357 3002.78 11.5264L3003.51 17.3298ZM3026.71 14.9713C3030.55 14.6794 3034.43 14.4379 3038.33 14.2512L3038.05 8.40858C3034.09 8.59789 3030.16 8.84287 3026.26 9.13872L3026.71 14.9713ZM3049.97 13.8642C3053.81 13.7928 3057.69 13.7769 3061.62 13.8206L3061.68 7.97167C3057.7 7.9273 3053.76 7.94346 3049.86 8.01589L3049.97 13.8642ZM3073.25 14.1234C3077.08 14.2795 3080.95 14.4934 3084.88 14.7686L3085.29 8.93352C3081.31 8.65439 3077.38 8.4374 3073.49 8.2789L3073.25 14.1234ZM3096.5 15.7473C3100.31 16.1219 3104.17 16.5541 3108.1 17.047L3108.83 11.2432C3104.85 10.7439 3100.93 10.3059 3097.07 9.92603L3096.5 15.7473ZM3119.68 18.6535C3123.45 19.2242 3127.28 19.8501 3131.16 20.5336L3132.18 14.7727C3128.24 14.0813 3124.37 13.4479 3120.56 12.8701L3119.68 18.6535ZM3142.6 22.6773C3144.52 23.0586 3146.45 23.4536 3148.4 23.8626L3149.6 18.138C3147.63 17.7247 3145.68 17.3256 3143.74 16.9402L3142.6 22.6773ZM3148.4 23.8626C3150.46 24.2958 3152.5 24.7254 3154.51 25.1514L3155.72 19.4289C3153.71 19.0022 3151.67 18.5719 3149.6 18.138L3148.4 23.8626ZM3166.48 27.7075C3170.58 28.5899 3174.56 29.4555 3178.43 30.3036L3179.69 24.5897C3175.81 23.7401 3171.82 22.8732 3167.71 21.9893L3166.48 27.7075ZM3190.39 32.9422C3194.51 33.8584 3198.5 34.752 3202.36 35.6225L3203.65 29.9163C3199.78 29.0447 3195.79 28.1499 3191.66 27.2323L3190.39 32.9422ZM3214.35 38.3396C3218.5 39.2855 3222.5 40.1999 3226.35 41.082L3227.65 35.3805C3223.8 34.4981 3219.8 33.5831 3215.65 32.6364L3214.35 38.3396ZM3238.34 43.829C3242.5 44.781 3246.48 45.6876 3250.29 46.5472L3251.57 40.8412C3247.77 39.9835 3243.8 39.0784 3239.64 38.127L3238.34 43.829ZM3262.3 49.2162C3266.51 50.1339 3270.51 50.9806 3274.33 51.7536L3275.49 46.0209C3271.71 45.2548 3267.74 44.4141 3263.55 43.5008L3262.3 49.2162ZM3286.48 54.0688C3290.77 54.8235 3294.84 55.4597 3298.73 55.9716L3299.49 50.1722C3295.7 49.6733 3291.72 49.0508 3287.49 48.3079L3286.48 54.0688ZM3311.12 57.2065C3315.41 57.4809 3319.56 57.5687 3323.66 57.46L3323.5 51.6127C3319.59 51.7164 3315.62 51.6332 3311.49 51.3691L3311.12 57.2065ZM3336.18 56.5048C3340.21 55.9967 3344.29 55.2926 3348.51 54.3874L3347.28 48.6681C3343.21 49.5415 3339.3 50.2161 3335.45 50.7014L3336.18 56.5048ZM3360.58 51.3789C3364.36 50.322 3368.29 49.1243 3372.43 47.7831L3370.63 42.2177C3366.55 43.5397 3362.69 44.7141 3359 45.7464L3360.58 51.3789ZM3384.15 43.8254C3386.05 43.16 3387.99 42.4692 3389.99 41.7527L3388.01 36.2473C3386.03 36.9593 3384.1 37.645 3382.21 38.3046L3384.15 43.8254Z" fill="#F9DD00"/>
<path d="M0 47.0002L33.0624 40.1179L22.4915 72.1919L0 47.0002ZM1821.36 77.9024C1819.36 78.1501 1817.38 78.3872 1815.42 78.6138L1814.75 72.803C1816.69 72.5783 1818.66 72.3432 1820.64 72.0976L1821.36 77.9024ZM1803.81 79.8529C1799.81 80.244 1795.88 80.5908 1792.02 80.8949L1791.56 75.0636C1795.38 74.7624 1799.27 74.4189 1803.24 74.0313L1803.81 79.8529ZM1780.25 81.7038C1776.26 81.937 1772.35 82.1236 1768.51 82.2659L1768.29 76.4206C1772.09 76.2798 1775.96 76.0952 1779.91 75.8644L1780.25 81.7038ZM1756.78 82.5681C1752.77 82.6252 1748.84 82.6333 1744.99 82.5951L1745.05 76.746C1748.85 76.7838 1752.74 76.7758 1756.69 76.7194L1756.78 82.5681ZM1733.18 82.3289C1729.17 82.1873 1725.25 81.9954 1721.39 81.7568L1721.75 75.9186C1725.56 76.154 1729.43 76.3434 1733.38 76.4832L1733.18 82.3289ZM1709.63 80.869C1705.65 80.5138 1701.74 80.1092 1697.9 79.6599L1698.58 73.8502C1702.37 74.2934 1706.22 74.6924 1710.15 75.0428L1709.63 80.869ZM1686.21 78.1296C1682.27 77.5585 1678.39 76.9422 1674.57 76.2858L1675.56 70.521C1679.33 71.1689 1683.16 71.7772 1687.05 72.3406L1686.21 78.1296ZM1662.99 74.1452C1659.09 73.377 1655.26 72.5711 1651.46 71.7337L1652.72 66.0218C1656.48 66.8505 1660.27 67.6475 1664.12 68.4067L1662.99 74.1452ZM1640 69.0863C1636.17 68.1641 1632.37 67.2152 1628.6 66.2466L1630.05 60.5808C1633.8 61.5432 1637.57 62.4849 1641.37 63.3994L1640 69.0863ZM1617.24 63.2642C1613.46 62.2523 1609.69 61.2271 1605.91 60.1959L1607.46 54.5538C1611.22 55.5836 1614.98 56.6057 1618.75 57.6138L1617.24 63.2642ZM1594.62 57.0995C1590.87 56.0735 1587.12 55.0486 1583.33 54.0309L1584.85 48.3824C1588.65 49.4034 1592.42 50.431 1596.16 51.4579L1594.62 57.0995ZM1572.04 51.043C1568.3 50.0747 1564.53 49.1196 1560.72 48.1838L1562.11 42.503C1565.96 43.4457 1569.75 44.4072 1573.51 45.3809L1572.04 51.043ZM1549.37 45.4947C1545.63 44.6415 1541.83 43.8114 1537.98 43.0097L1539.17 37.2829C1543.07 38.0928 1546.89 38.9309 1550.67 39.7917L1549.37 45.4947ZM1526.55 40.7548C1522.79 40.0547 1518.97 39.3844 1515.08 38.7484L1516.02 32.9757C1519.96 33.6189 1523.82 34.2967 1527.62 35.0044L1526.55 40.7548ZM1503.57 37.0016C1499.8 36.4723 1495.95 35.9769 1492.03 35.519L1492.71 29.7091C1496.67 30.1723 1500.56 30.6735 1504.38 31.2088L1503.57 37.0016ZM1480.45 34.3002C1476.65 33.9438 1472.77 33.6231 1468.82 33.3411L1469.24 27.5067C1473.23 27.7917 1477.15 28.1159 1480.99 28.4764L1480.45 34.3002ZM1457.16 32.6351C1453.35 32.4457 1449.48 32.2922 1445.53 32.177L1445.7 26.3301C1449.69 26.4465 1453.6 26.6016 1457.45 26.793L1457.16 32.6351ZM1433.92 31.9529C1431.96 31.9342 1429.99 31.9247 1428 31.9247V26.0753C1430.01 26.0753 1432 26.0849 1433.97 26.1039L1433.92 31.9529ZM1428 31.9247C1426.05 31.9247 1424.11 31.9334 1422.2 31.9505L1422.15 26.1014C1424.08 26.0841 1426.03 26.0753 1428 26.0753V31.9247ZM1410.82 32.1566C1406.96 32.2629 1403.17 32.4047 1399.47 32.5799L1399.19 26.7371C1402.94 26.5601 1406.76 26.4169 1410.66 26.3095L1410.82 32.1566ZM1388.05 33.239C1384.17 33.5041 1380.38 33.8063 1376.67 34.143L1376.14 28.3175C1379.9 27.977 1383.73 27.6713 1387.65 27.4033L1388.05 33.239ZM1365.32 35.3012C1361.47 35.7384 1357.71 36.2125 1354.01 36.7199L1353.21 30.9249C1356.95 30.4114 1360.77 29.9317 1364.66 29.4893L1365.32 35.3012ZM1342.74 38.4001C1338.93 39.0127 1335.19 39.6595 1331.51 40.3363L1330.45 34.5833C1334.17 33.899 1337.96 33.2448 1341.81 32.625L1342.74 38.4001ZM1320.32 42.5146C1316.56 43.2867 1312.84 44.0874 1309.17 44.9121L1307.89 39.2045C1311.59 38.3728 1315.34 37.5645 1319.14 36.7847L1320.32 42.5146ZM1298.04 47.4976C1294.32 48.3904 1290.62 49.3034 1286.94 50.2314L1285.51 44.5587C1289.21 43.6267 1292.93 42.7085 1296.68 41.8097L1298.04 47.4976ZM1275.84 53.0635C1272.16 54.0159 1268.47 54.9774 1264.76 55.9438L1263.28 50.2831C1266.99 49.3173 1270.69 48.3541 1274.38 47.4001L1275.84 53.0635ZM1253.65 58.822C1249.98 59.7671 1246.27 60.7114 1242.52 61.6498L1241.1 55.9752C1244.84 55.0409 1248.53 54.1 1252.19 53.1572L1253.65 58.822ZM1231.35 64.3841C1227.68 65.2634 1223.94 66.1329 1220.15 66.9883L1218.86 61.282C1222.63 60.4328 1226.34 59.5691 1229.99 58.6951L1231.35 64.3841ZM1208.9 69.4339C1205.21 70.2066 1201.45 70.9631 1197.61 71.7L1196.51 65.9557C1200.31 65.2252 1204.04 64.475 1207.7 63.7086L1208.9 69.4339ZM1186.29 73.7737C1182.58 74.4196 1178.8 75.0456 1174.94 75.6487L1174.03 69.8694C1177.86 69.2716 1181.61 68.6513 1185.29 68.0112L1186.29 73.7737ZM1163.55 77.3241C1159.81 77.8397 1156 78.3334 1152.11 78.803L1151.41 72.9957C1155.27 72.5302 1159.05 72.0408 1162.74 71.5298L1163.55 77.3241ZM1140.63 80.091C1136.89 80.4794 1133.07 80.8455 1129.17 81.1874L1128.66 75.3605C1132.53 75.0212 1136.32 74.6581 1140.03 74.2729L1140.63 80.091ZM1117.75 82.1017C1113.99 82.3739 1110.17 82.624 1106.26 82.8506L1105.93 77.0111C1109.8 76.7861 1113.6 76.5379 1117.33 76.2677L1117.75 82.1017ZM1094.69 83.4423C1090.95 83.608 1087.15 83.7525 1083.27 83.8749L1083.08 78.0284C1086.94 77.9069 1090.72 77.7633 1094.43 77.5987L1094.69 83.4423ZM1071.78 84.1673C1067.98 84.2413 1064.11 84.2946 1060.18 84.3261L1060.13 78.477C1064.04 78.4456 1067.89 78.3927 1071.67 78.3191L1071.78 84.1673ZM1048.8 84.3563C1045.01 84.3465 1041.16 84.3171 1037.24 84.2674L1037.31 78.4185C1041.21 78.468 1045.04 78.4973 1048.81 78.507L1048.8 84.3563ZM1025.78 84.0672C1023.85 84.0242 1021.89 83.9764 1019.92 83.9236L1020.08 78.0764C1022.04 78.1289 1023.98 78.1765 1025.91 78.2193L1025.78 84.0672ZM1019.92 83.9236C1017.92 83.8699 1015.92 83.8117 1013.94 83.7491L1014.13 77.9027C1016.1 77.9649 1018.08 78.0229 1020.08 78.0764L1019.92 83.9236ZM1002.22 83.3219C998.234 83.157 994.299 82.9743 990.416 82.7747L990.717 76.9331C994.579 77.1317 998.495 77.3135 1002.47 77.4776L1002.22 83.3219ZM978.757 82.1159C974.762 81.8696 970.825 81.6055 966.943 81.3248L967.365 75.4907C971.226 75.7699 975.143 76.0326 979.117 76.2777L978.757 82.1159ZM955.214 80.4133C951.273 80.0856 947.391 79.741 943.564 79.3807L944.113 73.5572C947.918 73.9154 951.779 74.2581 955.699 74.5841L955.214 80.4133ZM931.78 78.205C927.822 77.7878 923.924 77.3543 920.085 76.9062L920.764 71.0963C924.581 71.5419 928.457 71.973 932.393 72.3879L931.78 78.205ZM908.459 75.4839C904.499 74.9771 900.602 74.4557 896.765 73.9216L897.571 68.1281C901.388 68.6594 905.264 69.1779 909.202 69.6818L908.459 75.4839ZM885.093 72.2329C881.159 71.6421 877.287 71.0393 873.474 70.4267L874.402 64.6515C878.196 65.261 882.048 65.8607 885.962 66.4484L885.093 72.2329ZM861.893 68.5085C857.982 67.8418 854.133 67.1667 850.339 66.486L851.372 60.7287C855.15 61.4066 858.983 62.0787 862.876 62.7424L861.893 68.5085ZM838.746 64.359C834.837 63.627 830.986 62.8918 827.187 62.1565L828.298 56.4137C832.087 57.1471 835.927 57.8801 839.823 58.6096L838.746 64.359ZM815.653 59.897C811.765 59.1276 807.929 58.3617 804.137 57.6033L805.285 51.8676C809.075 52.6258 812.907 53.3907 816.788 54.159L815.653 59.897ZM792.633 55.3026C788.761 54.5302 784.93 53.77 781.133 53.0262L782.258 47.2859C786.064 48.0316 789.901 48.7932 793.777 49.5663L792.633 55.3026ZM769.632 50.8094C765.77 50.0795 761.936 49.3718 758.122 48.6907L759.15 42.9324C762.987 43.6175 766.84 44.3289 770.718 45.0618L769.632 50.8094ZM746.598 46.7106C742.742 46.0763 738.898 45.4746 735.056 44.9103L735.906 39.1231C739.784 39.6927 743.662 40.2997 747.548 40.9389L746.598 46.7106ZM723.492 43.3298C719.639 42.8445 715.779 42.4017 711.904 42.0061L712.498 36.187C716.422 36.5875 720.327 37.0357 724.223 37.5263L723.492 43.3298ZM700.295 40.9713C696.446 40.6794 692.573 40.4378 688.667 40.2512L688.947 34.4085C692.908 34.5979 696.836 34.8428 700.737 35.1387L700.295 40.9713ZM677.028 39.8642C673.188 39.7928 669.31 39.7769 665.385 39.8206L665.32 33.9716C669.303 33.9273 673.24 33.9434 677.137 34.0159L677.028 39.8642ZM653.745 40.1233C649.92 40.2795 646.046 40.4934 642.116 40.7685L641.708 34.9335C645.694 34.6544 649.625 34.4374 653.507 34.2789L653.745 40.1233ZM630.502 41.7472C626.693 42.1219 622.828 42.5541 618.903 43.047L618.175 37.2432C622.151 36.7439 626.068 36.3058 629.93 35.926L630.502 41.7472ZM607.316 44.6534C603.549 45.2242 599.724 45.8501 595.838 46.5336L594.824 40.7727C598.756 40.0813 602.626 39.4479 606.44 38.8701L607.316 44.6534ZM584.401 48.6772C582.483 49.0585 580.55 49.4535 578.601 49.8625L577.399 44.1379C579.368 43.7247 581.322 43.3255 583.261 42.9401L584.401 48.6772ZM578.601 49.8625C576.751 50.2508 574.878 50.6338 572.984 51.0115L571.84 45.2751C573.716 44.9011 575.569 44.522 577.399 44.1379L578.601 49.8625ZM561.441 53.2014C557.694 53.8777 553.873 54.5356 549.983 55.1751L549.034 49.4033C552.896 48.7684 556.686 48.1157 560.402 47.445L561.441 53.2014ZM538.484 56.9826C534.673 57.5554 530.804 58.1119 526.879 58.6524L526.081 52.8578C529.983 52.3204 533.829 51.7673 537.615 51.1982L538.484 56.9826ZM515.365 60.1726C511.556 60.6547 507.699 61.1226 503.8 61.5765L503.124 55.7664C507.004 55.3147 510.841 54.8491 514.631 54.3695L515.365 60.1726ZM492.167 62.8758C488.359 63.2836 484.514 63.6787 480.636 64.0612L480.062 58.2401C483.925 57.8591 487.753 57.4657 491.544 57.0597L492.167 62.8758ZM468.999 65.162C465.17 65.5093 461.311 65.8449 457.424 66.1687L456.939 60.3396C460.811 60.0169 464.656 59.6826 468.471 59.3366L468.999 65.162ZM445.809 67.0962C441.958 67.3905 438.083 67.6737 434.187 67.946L433.779 62.1109C437.663 61.8395 441.525 61.5572 445.363 61.2639L445.809 67.0962ZM422.584 68.7209C418.719 68.9671 414.836 69.2029 410.937 69.4283L410.599 63.5887C414.487 63.364 418.359 63.1289 422.212 62.8834L422.584 68.7209ZM399.338 70.0659C395.465 70.268 391.58 70.46 387.683 70.6422L387.41 64.7993C391.296 64.6176 395.171 64.426 399.033 64.2246L399.338 70.0659ZM376.078 71.1542C372.204 71.315 368.322 71.4662 364.432 71.6079L364.219 65.7625C368.099 65.6211 371.972 65.4703 375.835 65.3099L376.078 71.1542ZM352.81 72.0026C348.934 72.1247 345.053 72.2374 341.169 72.341L341.013 66.4938C344.888 66.3904 348.759 66.2779 352.626 66.1561L352.81 72.0026ZM329.537 72.6236C325.657 72.7086 321.777 72.7846 317.897 72.8516L317.796 67.0031C321.667 66.9363 325.538 66.8605 329.409 66.7756L329.537 72.6236ZM306.262 73.0255C302.377 73.0747 298.496 73.1148 294.62 73.1461L294.572 67.2969C298.44 67.2658 302.312 67.2257 306.188 67.1767L306.262 73.0255ZM282.987 73.2133C279.096 73.2269 275.212 73.2316 271.338 73.2275L271.345 67.3781C275.21 67.3823 279.084 67.3776 282.966 67.364L282.987 73.2133ZM259.716 73.1883C255.817 73.1663 251.93 73.1352 248.056 73.0953L248.117 67.2462C251.981 67.2861 255.859 67.3171 259.749 67.3391L259.716 73.1883ZM236.454 72.9485C232.544 72.8899 228.651 72.8221 224.777 72.7454L224.893 66.8972C228.758 66.9737 232.641 67.0413 236.542 67.0998L236.454 72.9485ZM213.171 72.4871C209.26 72.3905 205.371 72.2846 201.506 72.1695L201.68 66.3227C205.535 66.4375 209.414 66.5432 213.315 66.6396L213.171 72.4871ZM189.88 71.7931C185.976 71.6564 182.1 71.5102 178.254 71.3545L178.49 65.51C182.325 65.6652 186.191 65.811 190.085 65.9473L189.88 71.7931ZM166.597 70.8497C162.708 70.67 158.854 70.4805 155.037 70.2812L155.342 64.4398C159.147 64.6385 162.989 64.8274 166.867 65.0066L166.597 70.8497ZM143.338 69.6329C139.425 69.4032 135.556 69.163 131.735 68.9123L132.118 63.0755C135.925 63.3253 139.78 63.5647 143.68 63.7936L143.338 69.6329ZM120.137 68.1086C116.189 67.82 112.298 67.5198 108.468 67.2081L108.943 61.378C112.756 61.6884 116.631 61.9873 120.563 62.2748L120.137 68.1086ZM96.8955 66.2143C92.9634 65.8583 89.1047 65.4896 85.324 65.1082L85.9111 59.2884C89.671 59.6677 93.5098 60.0345 97.4229 60.3888L96.8955 66.2143ZM73.6618 63.8636C69.696 63.4159 65.8298 62.9533 62.0694 62.4758L62.8061 56.6731C66.5381 57.1469 70.3774 57.6064 74.3179 58.0512L73.6618 63.8636ZM50.5351 60.9166C46.5581 60.344 42.7224 59.7528 39.0372 59.1432L39.9917 53.3723C43.6333 53.9746 47.4285 54.5597 51.3687 55.127L50.5351 60.9166ZM27.5452 57.0873C23.4686 56.2968 19.6254 55.4788 16.0327 54.6336L17.3722 48.9397C20.8799 49.7649 24.6469 50.567 28.6588 51.3449L27.5452 57.0873Z" fill="#F9DD00"/>
</svg>
