<svg width="917" height="1103" viewBox="0 0 917 1103" fill="none" xmlns="http://www.w3.org/2000/svg">
<path d="M668.412 406.147L671.002 404.633L668.412 406.147ZM764.412 694.147L766.814 692.35L764.412 694.147ZM188.513 142.47C188.704 142.626 188.791 142.736 188.826 142.788C188.856 142.833 188.849 142.836 188.842 142.807C188.824 142.725 188.891 142.827 188.697 143.247L194.144 145.762C194.724 144.508 195.04 143.047 194.701 141.513C194.36 139.969 193.444 138.75 192.307 137.822L188.513 142.47ZM182.74 149.041C180.572 150.644 177.924 152.398 174.853 154.312L178.026 159.404C181.165 157.449 183.962 155.6 186.308 153.864L182.74 149.041ZM166.465 159.354C163.814 160.906 160.997 162.531 158.038 164.232L161.029 169.434C163.99 167.731 166.825 166.096 169.498 164.531L166.465 159.354ZM149.538 169.121C146.779 170.713 143.938 172.361 141.037 174.065L144.076 179.239C146.96 177.545 149.786 175.905 152.536 174.318L149.538 169.121ZM132.575 179.103C129.806 180.776 127.001 182.499 124.177 184.27L127.365 189.353C130.158 187.601 132.934 185.897 135.678 184.238L132.575 179.103ZM115.866 189.596C113.133 191.389 110.395 193.228 107.667 195.113L111.078 200.049C113.763 198.194 116.46 196.382 119.157 194.614L115.866 189.596ZM99.6057 200.85C96.9485 202.801 94.3137 204.797 91.715 206.84L95.4234 211.557C97.9661 209.558 100.548 207.602 103.156 205.687L99.6057 200.85ZM84.0329 213.117C81.503 215.269 79.0227 217.469 76.6062 219.718L80.694 224.11C83.0404 221.926 85.4535 219.785 87.9201 217.688L84.0329 213.117ZM69.4931 226.685C67.1653 229.09 64.9182 231.548 62.7673 234.059L67.3246 237.962C69.3908 235.549 71.5553 233.181 73.8044 230.857L69.4931 226.685ZM56.5227 241.886C54.5167 244.597 52.6293 247.368 50.8782 250.199L55.981 253.355C57.639 250.675 59.4322 248.041 61.3461 245.454L56.5227 241.886ZM45.9799 259.018C44.4826 262.056 43.148 265.159 41.9959 268.328L47.6346 270.378C48.7082 267.426 49.9557 264.524 51.3618 261.671L45.9799 259.018ZM39.0984 278.063C38.3358 281.347 37.7739 284.694 37.4314 288.103L43.4013 288.703C43.7176 285.555 44.2367 282.462 44.9429 279.421L39.0984 278.063ZM37.0731 298.28C37.1713 301.608 37.4804 304.987 38.0143 308.417L43.9429 307.494C43.4471 304.309 43.1613 301.179 43.0705 298.103L37.0731 298.28ZM40.1576 318.331C41.0257 321.473 42.0822 324.653 43.3365 327.871L48.9269 325.692C47.7444 322.659 46.7529 319.672 45.941 316.733L40.1576 318.331ZM47.3942 337.025C48.1457 338.538 48.9409 340.06 49.7806 341.59L55.0402 338.703C54.2393 337.244 53.4824 335.795 52.7683 334.357L47.3942 337.025ZM49.7806 341.59C50.6021 343.086 51.4883 344.532 52.4375 345.927L57.3984 342.552C56.5565 341.315 55.77 340.032 55.0402 338.703L49.7806 341.59ZM58.8412 353.671C61.1861 356.028 63.7539 358.191 66.5285 360.174L70.0166 355.292C67.4981 353.492 65.189 351.544 63.0948 349.439L58.8412 353.671ZM74.9435 365.324C77.7781 366.808 80.7681 368.156 83.9024 369.377L86.0794 363.786C83.1342 362.639 80.3485 361.381 77.7276 360.009L74.9435 365.324ZM93.2962 372.541C96.3097 373.413 99.4316 374.194 102.655 374.888L103.919 369.023C100.82 368.355 97.8337 367.608 94.965 366.777L93.2962 372.541ZM112.208 376.654C115.344 377.145 118.562 377.569 121.859 377.93L122.511 371.965C119.3 371.614 116.174 371.202 113.137 370.726L112.208 376.654ZM131.398 378.785C134.579 379.012 137.825 379.188 141.131 379.316L141.364 373.321C138.118 373.195 134.937 373.022 131.824 372.8L131.398 378.785ZM150.641 379.557C153.828 379.597 157.065 379.598 160.35 379.564L160.287 373.564C157.045 373.598 153.854 373.597 150.716 373.558L150.641 379.557ZM169.861 379.369C173.035 379.275 176.249 379.15 179.5 378.999L179.221 373.005C176 373.155 172.82 373.278 169.682 373.372L169.861 379.369ZM189.041 378.483C192.195 378.29 195.381 378.074 198.597 377.838L198.157 371.854C194.964 372.089 191.802 372.303 188.675 372.494L189.041 378.483ZM208.183 377.078C211.316 376.813 214.476 376.531 217.66 376.232L217.099 370.258C213.932 370.555 210.791 370.836 207.677 371.1L208.183 377.078ZM227.283 375.288C230.402 374.97 233.542 374.638 236.701 374.293L236.051 368.329C232.904 368.672 229.778 369.002 226.674 369.319L227.283 375.288ZM246.23 373.226C249.378 372.864 252.545 372.491 255.727 372.11L255.012 366.153C251.839 366.533 248.683 366.904 245.545 367.265L246.23 373.226ZM265.184 370.955C268.351 370.562 271.532 370.162 274.726 369.755L273.967 363.803C270.779 364.209 267.605 364.609 264.445 365.001L265.184 370.955ZM284.144 368.542C287.292 368.132 290.451 367.718 293.62 367.3L292.835 361.351C289.669 361.769 286.514 362.183 283.37 362.592L284.144 368.542ZM303.1 366.043C306.238 365.625 309.385 365.204 312.538 364.782L311.742 358.835C308.59 359.257 305.444 359.677 302.308 360.095L303.1 366.043ZM322.016 363.514C325.161 363.093 328.311 362.672 331.466 362.252L330.674 356.304C327.517 356.725 324.366 357.146 321.22 357.567L322.016 363.514ZM340.917 360.999C344.071 360.582 347.227 360.168 350.385 359.757L349.61 353.808C346.448 354.219 343.289 354.634 340.132 355.05L340.917 360.999ZM359.838 358.538C362.99 358.135 366.142 357.737 369.294 357.343L368.551 351.39C365.393 351.784 362.235 352.183 359.077 352.586L359.838 358.538ZM378.757 356.179C381.916 355.796 385.073 355.42 388.227 355.051L387.53 349.091C384.367 349.461 381.202 349.839 378.035 350.223L378.757 356.179ZM397.677 353.968C400.844 353.613 404.007 353.266 407.164 352.93L406.528 346.963C403.359 347.301 400.186 347.649 397.008 348.005L397.677 353.968ZM416.638 351.948C419.795 351.632 422.943 351.326 426.084 351.032L425.525 345.058C422.371 345.353 419.208 345.66 416.039 345.978L416.638 351.948ZM435.608 350.178C438.772 349.907 441.927 349.65 445.07 349.407L444.609 343.425C441.448 343.669 438.276 343.928 435.095 344.2L435.608 350.178ZM454.565 348.719C457.75 348.503 460.922 348.304 464.079 348.123L463.736 342.133C460.557 342.315 457.365 342.515 454.16 342.732L454.565 348.719ZM473.504 347.637C476.712 347.49 479.904 347.363 483.076 347.258L482.878 341.262C479.679 341.367 476.462 341.495 473.229 341.643L473.504 347.637ZM492.545 347.01C495.733 346.949 498.899 346.912 502.043 346.9L502.021 340.9C498.845 340.912 495.647 340.95 492.43 341.011L492.545 347.01ZM511.562 346.945C514.721 346.987 517.856 347.057 520.963 347.156L521.154 341.159C518.009 341.059 514.837 340.988 511.641 340.945L511.562 346.945ZM530.525 347.561C533.682 347.729 536.808 347.93 539.901 348.165L540.356 342.183C537.216 341.943 534.044 341.74 530.843 341.57L530.525 347.561ZM549.398 349.011C552.554 349.334 555.673 349.697 558.75 350.102L559.533 344.153C556.396 343.741 553.22 343.371 550.009 343.042L549.398 349.011ZM568.117 351.485C571.255 352.002 574.346 352.566 577.386 353.18L578.574 347.299C575.459 346.67 572.297 346.093 569.091 345.565L568.117 351.485ZM586.576 355.229C589.662 355.985 592.691 356.798 595.658 357.672L597.352 351.916C594.292 351.015 591.175 350.178 588.003 349.401L586.576 355.229ZM604.584 360.547C607.567 361.596 610.479 362.713 613.317 363.902L615.635 358.368C612.684 357.132 609.662 355.972 606.574 354.887L604.584 360.547ZM621.818 367.79C624.622 369.188 627.341 370.666 629.972 372.228L633.035 367.069C630.272 365.429 627.424 363.881 624.495 362.42L621.818 367.79ZM637.784 377.299C640.312 379.093 642.743 380.979 645.074 382.962L648.961 378.392C646.493 376.292 643.922 374.298 641.255 372.406L637.784 377.299ZM651.842 389.285C653.985 391.486 656.024 393.79 657.954 396.201L662.638 392.451C660.585 389.887 658.418 387.438 656.141 385.099L651.842 389.285ZM663.362 403.677C664.209 404.977 665.029 406.305 665.821 407.66L671.002 404.633C670.161 403.194 669.29 401.783 668.389 400.401L663.362 403.677ZM665.821 407.66C666.656 409.088 667.476 410.504 668.282 411.91L673.486 408.923C672.672 407.504 671.844 406.074 671.002 404.633L665.821 407.66ZM672.958 420.209C674.548 423.084 676.078 425.912 677.551 428.692L682.853 425.883C681.363 423.071 679.816 420.212 678.209 417.306L672.958 420.209ZM681.917 437.12C683.395 440.042 684.809 442.911 686.162 445.728L691.571 443.132C690.2 440.276 688.767 437.37 687.271 434.411L681.917 437.12ZM690.217 454.422C691.557 457.385 692.828 460.288 694.034 463.136L699.559 460.797C698.334 457.904 697.043 454.955 695.683 451.949L690.217 454.422ZM697.617 471.919C698.817 474.979 699.94 477.972 700.992 480.902L706.639 478.874C705.567 475.889 704.424 472.841 703.202 469.728L697.617 471.919ZM704.081 489.941C705.087 493.048 706.014 496.084 706.867 499.052L712.633 497.394C711.762 494.362 710.816 491.262 709.788 488.091L704.081 489.941ZM709.335 508.242C710.124 511.406 710.833 514.493 711.47 517.511L717.34 516.272C716.688 513.184 715.964 510.025 715.156 506.79L709.335 508.242ZM713.263 526.85C713.818 530.055 714.299 533.184 714.719 536.248L720.663 535.432C720.234 532.303 719.743 529.104 719.175 525.827L713.263 526.85ZM715.859 545.691C716.2 548.923 716.485 552.089 716.734 555.204L722.715 554.726C722.463 551.57 722.173 548.353 721.827 545.063L715.859 545.691ZM717.414 564.77C717.621 568.008 717.809 571.193 718.001 574.362L723.99 573.999C723.799 570.844 723.61 567.638 723.402 564.386L717.414 564.77ZM718.625 583.994C718.856 587.222 719.117 590.441 719.433 593.665L725.404 593.079C725.094 589.922 724.838 586.758 724.61 583.566L718.625 583.994ZM720.571 603.346C721.015 606.536 721.538 609.746 722.165 612.993L728.056 611.856C727.451 608.722 726.945 605.615 726.513 602.518L720.571 603.346ZM724.299 622.544C725.089 625.641 725.989 628.779 727.017 631.972L732.728 630.133C731.739 627.06 730.873 624.041 730.113 621.061L724.299 622.544ZM730.313 641.228C731.467 644.186 732.738 647.195 734.14 650.265L739.598 647.773C738.242 644.803 737.015 641.898 735.903 639.047L730.313 641.228ZM738.426 659.043C739.881 661.842 741.445 664.695 743.129 667.607L748.323 664.603C746.683 661.767 745.162 658.994 743.751 656.277L738.426 659.043ZM748.173 675.939C749.847 678.586 751.617 681.283 753.491 684.033L758.45 680.655C756.613 677.959 754.88 675.32 753.245 672.733L748.173 675.939ZM759.062 691.946C760.021 693.266 761.003 694.598 762.009 695.943L766.814 692.35C765.825 691.027 764.859 689.717 763.917 688.42L759.062 691.946ZM762.009 695.943C763.016 697.289 763.998 698.625 764.955 699.95L769.819 696.437C768.842 695.084 767.84 693.722 766.814 692.35L762.009 695.943ZM770.406 707.78C772.126 710.349 773.751 712.878 775.282 715.368L780.393 712.224C778.819 709.666 777.153 707.072 775.391 704.442L770.406 707.78ZM780.129 723.676C781.657 726.45 783.064 729.171 784.354 731.842L789.757 729.233C788.418 726.461 786.962 723.644 785.384 720.781L780.129 723.676ZM788.144 740.361C789.34 743.31 790.387 746.194 791.291 749.014L797.005 747.183C796.053 744.212 794.954 741.187 793.703 738.105L788.144 740.361ZM793.721 757.916C794.404 760.965 794.911 763.936 795.251 766.832L801.21 766.132C800.845 763.022 800.302 759.847 799.576 756.604L793.721 757.916ZM795.781 776.015C795.768 779.088 795.558 782.075 795.162 784.981L801.107 785.791C801.539 782.62 801.767 779.371 801.781 776.041L795.781 776.015ZM793.319 793.859C792.5 796.773 791.483 799.61 790.279 802.375L795.781 804.769C797.09 801.761 798.2 798.667 799.095 795.484L793.319 793.859ZM786.127 810.454C784.586 813.042 782.874 815.568 781.001 818.037L785.782 821.663C787.782 819.026 789.62 816.315 791.282 813.523L786.127 810.454ZM775.128 825.041C773.069 827.277 770.876 829.465 768.556 831.609L772.628 836.016C775.057 833.771 777.366 831.469 779.542 829.105L775.128 825.041ZM761.553 837.648C759.182 839.564 756.711 841.443 754.148 843.288L757.654 848.157C760.3 846.252 762.86 844.306 765.324 842.316L761.553 837.648ZM746.392 848.596C743.83 850.266 741.195 851.909 738.494 853.527L741.577 858.674C744.339 857.02 747.038 855.337 749.669 853.622L746.392 848.596ZM730.28 858.263C727.595 859.756 724.857 861.228 722.071 862.682L724.848 868.001C727.677 866.525 730.461 865.027 733.196 863.507L730.28 858.263ZM713.603 866.98C710.827 868.351 708.014 869.707 705.166 871.051L707.726 876.477C710.603 875.12 713.45 873.748 716.26 872.359L713.603 866.98ZM696.544 875.038C693.705 876.326 690.84 877.603 687.954 878.872L690.369 884.365C693.274 883.087 696.161 881.8 699.023 880.502L696.544 875.038ZM679.239 882.654C676.357 883.89 673.459 885.12 670.55 886.345L672.879 891.875C675.798 890.645 678.708 889.411 681.604 888.169L679.239 882.654ZM661.793 890.009C658.88 891.221 655.961 892.431 653.039 893.64L655.333 899.184C658.256 897.974 661.18 896.763 664.099 895.548L661.793 890.009ZM644.276 897.266C641.343 898.48 638.413 899.696 635.491 900.915L637.801 906.453C640.717 905.237 643.641 904.023 646.572 902.809L644.276 897.266ZM626.748 904.585C623.809 905.828 620.882 907.076 617.973 908.331L620.35 913.84C623.244 912.592 626.157 911.35 629.085 910.111L626.748 904.585ZM609.282 912.13C606.349 913.43 603.439 914.74 600.558 916.062L603.06 921.515C605.915 920.205 608.801 918.906 611.714 917.615L609.282 912.13ZM591.965 920.084C589.051 921.478 586.174 922.886 583.34 924.312L586.036 929.672C588.832 928.266 591.673 926.875 594.553 925.497L591.965 920.084ZM574.915 928.672C572.042 930.204 569.221 931.759 566.459 933.339L569.438 938.547C572.144 936.999 574.913 935.473 577.739 933.966L574.915 928.672ZM558.294 938.195C555.503 939.923 552.786 941.684 550.151 943.479L553.529 948.438C556.087 946.695 558.731 944.982 561.454 943.295L558.294 938.195ZM542.352 949.086C539.743 951.07 537.234 953.098 534.836 955.175L538.765 959.71C541.059 957.723 543.468 955.775 545.984 953.862L542.352 949.086ZM527.712 961.834C525.406 964.169 523.239 966.566 521.223 969.031L525.867 972.83C527.756 970.52 529.797 968.262 531.981 966.049L527.712 961.834ZM515.415 976.984C513.62 979.767 512.013 982.633 510.612 985.587L516.033 988.158C517.317 985.451 518.795 982.813 520.457 980.236L515.415 976.984ZM507.023 994.784C506.054 997.921 505.31 1001.15 504.805 1004.47L510.737 1005.37C511.196 1002.35 511.874 999.411 512.756 996.555L507.023 994.784ZM504.028 1014.24C503.998 1017.46 504.182 1020.75 504.59 1024.12L510.547 1023.4C510.169 1020.28 510 1017.24 510.027 1014.3L504.028 1014.24ZM506.32 1033.75C507.039 1036.78 507.929 1039.88 508.998 1043.04L514.682 1041.12C513.67 1038.13 512.832 1035.21 512.159 1032.37L506.32 1033.75ZM512.527 1052.22C513.741 1055.04 515.09 1057.91 516.58 1060.83L521.925 1058.11C520.492 1055.29 519.199 1052.54 518.039 1049.84L512.527 1052.22ZM521.237 1069.35C522.078 1070.8 522.952 1072.25 523.859 1073.72L528.964 1070.57C528.083 1069.14 527.236 1067.73 526.421 1066.33L521.237 1069.35Z" fill="white"/>
</svg>
