<svg width="377" height="176" viewBox="0 0 377 176" fill="none" xmlns="http://www.w3.org/2000/svg">
<path d="M55.9316 57.0547L67.1535 65.6104" stroke="#F9DD00" stroke-width="4.80879" stroke-miterlimit="10" stroke-linecap="round"/>
<path d="M65.8204 55.7216L57.2647 66.9435" stroke="#F9DD00" stroke-width="4.80879" stroke-miterlimit="10" stroke-linecap="round"/>
<path d="M83.6086 113.706L10.6224 86.2739C0.933892 80.5442 1.68447 69.4647 11.9703 65.2274L14.4435 64.2268L79.9419 37.6255L80.0852 37.7882C101.993 58.1258 105.63 93.5738 83.6086 113.706Z" stroke="#F9DD00" stroke-width="4.80879" stroke-miterlimit="10" stroke-linecap="round"/>
<path d="M223.985 111.794L86.0879 113.369" stroke="#F9DD00" stroke-width="4.80879" stroke-miterlimit="10" stroke-linecap="round"/>
<path d="M80.1465 37.7793L313.396 62.031L363.21 34.6189" stroke="#F9DD00" stroke-width="4.80879" stroke-miterlimit="10" stroke-linecap="round"/>
<path d="M222.499 112.498L301.499 109.574L358.5 129.499L332.566 80.6504L363.641 34.058" stroke="#F9DD00" stroke-width="4.80879" stroke-miterlimit="10" stroke-linecap="round"/>
<path d="M141.681 43.4356L166.182 32.6117L231.805 42.9317L220.085 52.2754" stroke="#F9DD00" stroke-width="4.80879" stroke-miterlimit="10" stroke-linecap="round"/>
<path d="M108.238 112.91L138.325 145.847L162.719 112.633" stroke="#F9DD00" stroke-width="4.80879" stroke-miterlimit="10" stroke-linecap="round"/>
<path d="M34.978 80.2012L3.79102 76.5205" stroke="#F9DD00" stroke-width="4.80879" stroke-miterlimit="10" stroke-linecap="round"/>
</svg>
