<svg width="374" height="272" viewBox="0 0 374 272" fill="none" xmlns="http://www.w3.org/2000/svg">
<g clip-path="url(#clip0_535_4033)">
<path d="M325.776 0.432365C321.459 -0.255296 316.989 -0.213846 312.728 1.22641C259.222 19.0739 103.887 85.8492 103.887 85.8492C103.887 85.8492 229.255 196.887 274.142 230.22C277.716 232.876 281.957 234.288 286.274 234.976C318.496 240.069 353.464 191.665 364.353 126.903C375.243 62.1417 357.981 5.49669 325.776 0.432365Z" fill="#F9DD00"/>
<path d="M175.07 103.348C182.845 100.79 191.175 99.3994 199.837 99.3994C216.257 99.3994 231.466 104.383 243.96 112.886" stroke="#003465" stroke-width="4" stroke-miterlimit="10" stroke-linecap="round"/>
<path d="M273.455 152.276C275.614 159.156 276.774 166.467 276.774 174.033C276.774 175.954 276.698 177.85 276.553 179.738C273.549 218.294 240.35 248.668 199.837 248.668C191.234 248.668 182.972 247.302 175.249 244.778C159.033 239.479 145.224 229.072 135.871 215.528C127.678 203.664 122.898 189.391 122.898 174.033C122.898 172.982 122.924 171.939 122.976 170.904" stroke="#003465" stroke-width="4" stroke-miterlimit="10" stroke-linecap="round"/>
<path d="M75.7461 136.828L94.1891 150.131L122.975 170.904" stroke="#003465" stroke-width="4" stroke-miterlimit="10" stroke-linecap="round"/>
<path d="M192.586 121.876L140.363 69.6025" stroke="#003465" stroke-width="4" stroke-miterlimit="10" stroke-linecap="round"/>
<path d="M215.895 120.244L276.549 179.737" stroke="#003465" stroke-width="4" stroke-miterlimit="10" stroke-linecap="round"/>
<path d="M224.762 128.897L249.947 107.893C249.947 107.893 230.557 73.8579 255.545 47.7543C280.534 21.6507 322.831 37.0331 322.831 37.0331L280.057 78.5268L315.141 113.025L356.951 72.9302C356.951 72.9302 373.773 120.021 341.573 140.064C309.372 160.108 283.418 142.4 283.418 142.4L261.076 164.545" stroke="#003465" stroke-width="4" stroke-miterlimit="10" stroke-linecap="round"/>
<path d="M135.862 215.527L124.537 226.066C119.519 230.736 116.992 236.978 116.992 243.229C116.992 249.148 119.254 255.076 123.811 259.679C133.182 269.158 148.698 269.473 158.47 260.383L175.24 244.777" stroke="#003465" stroke-width="4" stroke-miterlimit="10" stroke-linecap="round"/>
<path d="M156.356 85.6055L94.1914 150.123" stroke="#003465" stroke-width="4" stroke-miterlimit="10" stroke-linecap="round"/>
<path d="M0 94.3732L68.4806 144.386L149.49 60.1061L112.996 24.4404" stroke="#003465" stroke-width="4" stroke-miterlimit="10" stroke-linecap="round"/>
</g>
<defs>
<clipPath id="clip0_535_4033">
<rect width="373.79" height="271.49" fill="white"/>
</clipPath>
</defs>
</svg>
