<svg width="2904" height="56" viewBox="0 0 2904 56" fill="none" xmlns="http://www.w3.org/2000/svg">
<line x1="2798" y1="28" x2="-2.62268e-07" y2="27.9998" stroke="#F9DD00" stroke-width="6"/>
<path d="M2904 28.0691L2852.72 56L2798 56L2798 -4.17233e-07L2852.72 -2.80925e-06L2904 28.0691ZM2851.21 50.4691L2892.42 28.0691L2851.21 5.66913L2803.51 5.66913L2803.51 50.4691L2851.21 50.4691Z" fill="#F9DD00"/>
<path d="M2898.21 28.0692L2880.84 37.4717L2880.84 18.5285L2898.21 28.0692Z" fill="#F9DD00"/>
<path d="M2849.28 2.07393L2849.28 53.9258L2854.79 53.9258L2854.79 2.07393L2849.28 2.07393Z" fill="#F9DD00"/>
<path d="M2800.76 38.4398L2800.76 43.9707L2852.03 43.9707L2852.03 38.4398L2800.76 38.4398Z" fill="#F9DD00"/>
<path d="M2800.76 12.0297L2800.76 17.5605L2852.03 17.5605L2852.03 12.0297L2800.76 12.0297Z" fill="#F9DD00"/>
</svg>
