<svg width="313" height="308" viewBox="0 0 313 308" fill="none" xmlns="http://www.w3.org/2000/svg">
<path d="M267.716 52.5871C263.354 51.8708 258.837 51.914 254.53 53.4144C200.458 72.0077 43.4766 141.573 43.4766 141.573C43.4766 141.573 170.173 257.251 215.536 291.976C219.148 294.744 223.434 296.215 227.797 296.931C260.36 302.237 295.698 251.811 306.703 184.343C317.708 116.875 300.263 57.863 267.716 52.5871Z" fill="#F9DD00"/>
<path d="M156.052 201.149L43.4648 145.168L156.052 89.1797L268.632 145.168L156.052 201.149Z" stroke="#003465" stroke-width="4" stroke-miterlimit="10" stroke-linecap="round"/>
<path d="M43.4617 145.167L8.30859 93.1699L120.896 37.1816L156.049 89.1792" stroke="#003465" stroke-width="4" stroke-miterlimit="10" stroke-linecap="round"/>
<path d="M270.509 143.17L305.662 91.1718L193.075 35.1904L157.922 87.1879" stroke="#003465" stroke-width="4" stroke-miterlimit="10" stroke-linecap="round"/>
<path d="M156.049 201.148L124.226 250.876L4.51172 186.497L39.8522 146.972" stroke="#003465" stroke-width="4" stroke-miterlimit="10" stroke-linecap="round"/>
<path d="M156.023 201.149L187.839 250.877L307.561 186.498L271.901 147.215" stroke="#003465" stroke-width="4" stroke-miterlimit="10" stroke-linecap="round"/>
<path d="M271.906 248.011L156.05 304L40.1445 248.011" stroke="#003465" stroke-width="4" stroke-miterlimit="10" stroke-linecap="round"/>
<path d="M156.051 201.149V304" stroke="#003465" stroke-width="4" stroke-miterlimit="10" stroke-linecap="round"/>
<path d="M271.906 205.668V248.011" stroke="#003465" stroke-width="4" stroke-miterlimit="10"/>
<path d="M40.1445 205.66V248.011" stroke="#003465" stroke-width="4" stroke-miterlimit="10"/>
<path d="M204.082 54.2069C204.082 67.2063 199.14 79.0466 191.041 87.965C185.19 94.4058 181.504 102.512 180.936 111.195L179.652 130.731C179.271 136.472 174.509 140.927 168.762 140.927H166.631V152.129C166.631 159.174 160.92 164.885 153.875 164.885C146.831 164.885 141.126 159.174 141.126 152.129V140.927H139.363C133.616 140.927 128.854 136.472 128.473 130.731L127.189 111.195C126.621 102.512 122.935 94.4058 117.084 87.965C108.985 79.0466 104.043 67.2063 104.043 54.2069C104.043 26.5425 126.419 4.10411 154.063 4C181.706 4.10411 204.082 26.5425 204.082 54.2069Z" fill="white"/>
<path d="M154.25 6.24219C126.523 6.24219 104.043 28.7222 104.043 56.4491C104.043 69.4485 108.985 81.2888 117.084 90.2073C122.935 96.6479 126.613 104.754 127.189 113.437L128.473 132.974C128.848 138.706 133.609 143.17 139.363 143.17H153.875" stroke="#003465" stroke-width="4" stroke-miterlimit="10" stroke-linecap="round"/>
<path d="M153.879 6.24219C181.606 6.24219 204.086 28.7222 204.086 56.4491C204.086 69.4485 199.144 81.2888 191.045 90.2073C185.194 96.6479 181.516 104.754 180.94 113.437L179.656 132.974C179.281 138.706 174.52 143.17 168.766 143.17H154.254" stroke="#003465" stroke-width="4" stroke-miterlimit="10" stroke-linecap="round"/>
<path d="M166.634 143.169V154.37C166.634 161.415 160.921 167.126 153.877 167.126C146.833 167.126 141.121 161.415 141.121 154.37V143.169" stroke="#003465" stroke-width="4" stroke-miterlimit="10" stroke-linecap="round"/>
</svg>
