<svg width="3202" height="431" viewBox="0 0 3202 431" fill="none" xmlns="http://www.w3.org/2000/svg">
<path d="M218.903 0C302.427 0.559855 395.762 43.6686 415.943 146.682H311.677C294.579 111.131 260.945 96.8549 218.903 96.8549C151.914 96.8549 109.591 148.921 109.591 212.185C109.591 280.767 156.119 325.836 218.903 325.836C261.506 325.836 294.86 314.638 313.919 274.889H225.629V183.073H421.829C424.071 224.502 424.071 264.251 410.057 304.281C380.347 390.779 295.42 423.81 218.903 423.81C113.515 423.81 0.56057 353.268 0 211.905C0.56057 70.8215 113.515 0 218.903 0Z" fill="white"/>
<path d="M715.325 99.9344C653.662 99.9344 622.831 99.9344 562.009 99.9344V158.439H702.993C702.993 189.791 702.993 221.143 702.993 252.495H562.009C562.009 276.849 562.009 300.363 562.009 325.276C623.111 325.276 658.427 325.276 720.65 325.276C720.65 356.068 720.65 387.98 720.65 419.332C623.392 419.332 552.48 419.332 456.342 419.332C456.342 280.768 456.342 142.483 456.342 5.03906C552.199 5.03906 618.066 5.03906 715.325 5.03906C715.325 36.111 715.325 68.0227 715.325 99.9344Z" fill="white"/>
<path d="M754.064 99.9358C754.064 68.024 754.064 36.6722 754.064 5.32031H1062.1C1062.1 36.6722 1062.1 68.024 1062.1 99.9358H960.915V419.333C925.879 419.333 891.124 419.333 856.088 419.333V99.9358H754.064Z" fill="white"/>
<path d="M1311.94 240.878H1314.74L1409.48 6.57812H1511.5V22.534L1335.49 425.35H1290.36L1112.94 22.534V6.57812H1214.96L1311.94 240.878Z" fill="white"/>
<path d="M1914.27 298.823C1914.27 269.71 1879.8 263.272 1838.32 261.032C1748.34 254.594 1688.92 223.802 1687.8 133.945C1684.16 -44.6484 2006.49 -44.6484 2004.25 133.945C1966.97 133.945 1939.78 133.945 1903.62 133.945C1903.62 78.7996 1792.35 83.5583 1788.71 132.826C1786.46 164.177 1817.29 170.616 1854.57 174.815C1936.98 183.772 2017.42 196.089 2017.42 299.662C2017.42 473.497 1679.68 476.577 1682.2 294.344C1717.79 294.344 1748.63 294.344 1784.78 294.344C1784.5 346.69 1914.27 347.25 1914.27 298.823Z" fill="white"/>
<path d="M2529.04 215.735C2562.67 232.811 2578.93 263.603 2578.93 300.274C2578.37 372.495 2534.36 431 2449.72 431H2255.48V16.707H2432.62C2504.37 16.707 2561.83 72.4127 2561.83 143.794C2561.83 168.988 2549.22 199.22 2529.04 215.735ZM2357.78 111.603V178.505H2424.77C2466.82 178.505 2466.82 111.603 2424.21 111.603H2357.78ZM2357.78 266.682V337.224H2442.71C2485.31 337.224 2484.75 266.682 2442.15 266.682H2357.78Z" fill="white"/>
<path d="M2742.33 335.824H2892.85C2892.85 371.375 2892.85 395.729 2892.85 431C2807.64 431 2719.91 431 2635.82 431V16.707C2671.42 16.707 2706.46 16.707 2742.33 16.707C2742.33 231.132 2742.33 159.75 2742.33 335.824Z" fill="white"/>
<path d="M3200.32 111.603C3138.66 111.603 3107.83 111.603 3047 111.603V170.107H3187.99C3187.99 201.459 3187.99 232.811 3187.99 264.163H3047C3047 288.517 3047 312.031 3047 336.944C3108.11 336.944 3138.66 336.944 3201.16 336.944C3201.16 367.736 3201.16 399.648 3201.16 431C3103.9 431 3037.75 431 2941.62 431C2941.62 292.436 2941.62 154.151 2941.62 16.707C3037.47 16.707 3103.34 16.707 3200.6 16.707C3200.32 47.779 3200.32 79.6908 3200.32 111.603Z" fill="white"/>
<path d="M1640.72 6.57812H1535.61V420.871H1640.72V6.57812Z" fill="white"/>
<path d="M2171.02 6.57812H2065.91V420.871H2171.02V6.57812Z" fill="white"/>
</svg>
