<svg width="3658" height="3765" viewBox="0 0 3658 3765" fill="none" xmlns="http://www.w3.org/2000/svg">
<path d="M317.767 298.565C315.568 261.124 343.269 228.602 380.583 224.818L2420.02 17.9683C2453.99 14.5237 2485.48 36.0784 2494.56 68.9838L2672.31 712.861C2673.98 718.928 2674.83 725.194 2674.83 731.488L2674.83 2526.09C2674.83 2556.92 2654.66 2584.12 2625.17 2593.08L1668.24 2883.54C1552.07 2918.8 1427.39 2913.66 1314.52 2868.96L490.093 2542.43C464.787 2532.41 447.586 2508.63 445.99 2481.45L317.767 298.565Z" fill="#003465"/>
<path d="M3005.53 2506C3000.55 2467.69 3128.26 1676.48 3104.87 1644.21C2813.29 1238.54 1836.37 100 1836.37 100C1836.37 100 828.616 1904.04 652.153 2370.95C638.082 2408.14 580.55 2563.69 585.529 2602L1330.33 2879.67C1438.91 2920.15 1557.63 2924.62 1668.95 2892.44L3005.53 2506Z" fill="#03498A"/>
</svg>
