<svg width="3628" height="166" viewBox="0 0 3628 166" fill="none" xmlns="http://www.w3.org/2000/svg">
<path d="M2080.5 83C2057.65 83 2039 64.3513 2039 41.5C2039 18.6487 2057.65 0 2080.5 0C2103.35 0 2122 18.6487 2122 41.5C2122 64.3513 2103.35 83 2080.5 83ZM2080.5 16.5475C2066.84 16.5475 2055.55 27.5791 2055.55 41.5C2055.55 55.1582 2066.84 66.4525 2080.5 66.4525C2094.16 66.4525 2105.45 55.4209 2105.45 41.5C2105.45 27.8418 2094.42 16.5475 2080.5 16.5475Z" fill="#F9DD00"/>
<path d="M2470.5 100C2451.5 100 2436 84.4968 2436 65.5C2436 46.5032 2451.5 31 2470.5 31C2489.5 31 2505 46.5032 2505 65.5C2505 84.4968 2489.5 100 2470.5 100ZM2470.5 44.7563C2459.15 44.7563 2449.76 53.9272 2449.76 65.5C2449.76 76.8544 2459.15 86.2437 2470.5 86.2437C2481.85 86.2437 2491.24 77.0728 2491.24 65.5C2491.24 54.1456 2482.07 44.7563 2470.5 44.7563Z" fill="#F9DD00"/>
<path d="M2884.5 67C2866.05 67 2851 51.9462 2851 33.5C2851 15.0538 2866.05 0 2884.5 0C2902.95 0 2918 15.0538 2918 33.5C2918 51.9462 2902.95 67 2884.5 67ZM2884.5 13.3576C2873.47 13.3576 2864.36 22.2626 2864.36 33.5C2864.36 44.5253 2873.47 53.6424 2884.5 53.6424C2895.53 53.6424 2904.64 44.7373 2904.64 33.5C2904.64 22.4747 2895.74 13.3576 2884.5 13.3576Z" fill="#F9DD00"/>
<path d="M3287.5 98C3269.6 98 3255 83.3956 3255 65.5C3255 47.6044 3269.6 33 3287.5 33C3305.4 33 3320 47.6044 3320 65.5C3320 83.3956 3305.4 98 3287.5 98ZM3287.5 45.9589C3276.8 45.9589 3267.96 54.5981 3267.96 65.5C3267.96 76.1962 3276.8 85.0411 3287.5 85.0411C3298.2 85.0411 3307.04 76.4019 3307.04 65.5C3307.04 54.8038 3298.4 45.9589 3287.5 45.9589Z" fill="#F9DD00"/>
<path d="M3628 42.0003L3594.94 35.118L3605.51 67.192L3628 42.0003ZM1809.1 106.712C1810.53 106.13 1812.32 105.429 1814.44 104.619L1812.35 99.1551C1810.21 99.9749 1808.38 100.69 1806.9 101.289L1809.1 106.712ZM1825.49 100.528C1828.84 99.3196 1832.56 98.0025 1836.63 96.5931L1834.71 91.0664C1830.62 92.4835 1826.88 93.8087 1823.51 95.0252L1825.49 100.528ZM1847.79 92.7899C1851.35 91.5945 1855.11 90.3531 1859.05 89.0733L1857.24 83.5103C1853.29 84.7957 1849.51 86.0427 1845.93 87.2438L1847.79 92.7899ZM1870.27 85.4813C1873.9 84.3363 1877.65 83.1685 1881.52 81.9826L1879.81 76.39C1875.92 77.5806 1872.15 78.7532 1868.51 79.903L1870.27 85.4813ZM1892.82 78.5711C1896.51 77.4731 1900.28 76.364 1904.15 75.2474L1902.52 69.6282C1898.64 70.7492 1894.85 71.8626 1891.15 72.9649L1892.82 78.5711ZM1915.51 72.0114C1919.24 70.9647 1923.04 69.9143 1926.9 68.8631L1925.36 63.219C1921.48 64.2744 1917.67 65.3288 1913.93 66.3795L1915.51 72.0114ZM1938.29 65.8112C1942.04 64.8228 1945.84 63.8361 1949.69 62.8533L1948.25 57.1855C1944.38 58.1722 1940.56 59.1629 1936.8 60.1551L1938.29 65.8112ZM1961.13 59.9847C1964.91 59.0525 1968.74 58.126 1972.6 57.2071L1971.25 51.5165C1967.37 52.4391 1963.53 53.3694 1959.73 54.3054L1961.13 59.9847ZM1984.1 54.5229C1987.92 53.6506 1991.76 52.7873 1995.64 51.935L1994.38 46.2221C1990.49 47.0781 1986.63 47.945 1982.8 48.821L1984.1 54.5229ZM2007.16 49.4566C2010.98 48.6517 2014.83 47.8589 2018.7 47.0797L2017.55 41.3451C2013.66 42.1279 2009.79 42.9244 2005.95 43.7328L2007.16 49.4566ZM2030.28 44.807C2034.13 44.0704 2038 43.3487 2041.89 42.6433L2040.85 36.8878C2036.94 37.5966 2033.05 38.3218 2029.18 39.0619L2030.28 44.807ZM2053.5 40.5975C2057.36 39.9373 2061.24 39.2943 2065.13 38.6703L2064.21 32.8948C2060.3 33.5221 2056.4 34.1683 2052.52 34.8319L2053.5 40.5975ZM2076.79 36.8648C2080.67 36.2851 2084.57 35.7254 2088.47 35.1872L2087.67 29.3927C2083.75 29.934 2079.83 30.4968 2075.93 31.0796L2076.79 36.8648ZM2100.15 33.6451C2104.05 33.1543 2107.95 32.6861 2111.86 32.2421L2111.2 26.4302C2107.27 26.877 2103.34 27.348 2099.42 27.8417L2100.15 33.6451ZM2123.58 30.985C2127.49 30.5912 2131.4 30.2228 2135.31 29.8814L2134.81 24.0542C2130.87 24.398 2126.93 24.7687 2123 25.1651L2123.58 30.985ZM2147.06 28.9383C2150.98 28.6514 2154.9 28.3929 2158.82 28.1643L2158.48 22.3249C2154.53 22.5552 2150.58 22.8156 2146.64 23.1046L2147.06 28.9383ZM2170.58 27.5687C2174.51 27.4006 2178.43 27.2641 2182.35 27.1608L2182.19 21.3135C2178.25 21.4177 2174.29 21.5553 2170.33 21.7247L2170.58 27.5687ZM2194.13 26.9513C2196.09 26.9336 2198.05 26.9247 2200 26.9247V21.0753C2198.03 21.0753 2196.05 21.0844 2194.07 21.1022L2194.13 26.9513ZM2200 26.9247C2201.95 26.9247 2203.89 26.9334 2205.8 26.9505L2205.85 21.1014C2203.92 21.0841 2201.97 21.0753 2200 21.0753V26.9247ZM2217.18 27.1566C2221.04 27.2629 2224.83 27.4047 2228.53 27.5799L2228.81 21.7371C2225.06 21.5601 2221.24 21.4169 2217.34 21.3095L2217.18 27.1566ZM2239.95 28.239C2243.83 28.5041 2247.62 28.8063 2251.33 29.143L2251.86 23.3175C2248.1 22.977 2244.27 22.6713 2240.35 22.4033L2239.95 28.239ZM2262.68 30.3012C2266.53 30.7384 2270.29 31.2125 2273.99 31.7199L2274.79 25.9249C2271.05 25.4114 2267.23 24.9317 2263.34 24.4893L2262.68 30.3012ZM2285.26 33.4001C2289.07 34.0127 2292.81 34.6595 2296.49 35.3363L2297.55 29.5834C2293.83 28.899 2290.04 28.2448 2286.19 27.6251L2285.26 33.4001ZM2307.68 37.5146C2311.44 38.2867 2315.16 39.0875 2318.83 39.9121L2320.11 34.2046C2316.41 33.3729 2312.66 32.5646 2308.86 31.7847L2307.68 37.5146ZM2329.96 42.4976C2333.68 43.3905 2337.38 44.3035 2341.06 45.2314L2342.49 39.5588C2338.79 38.6267 2335.07 37.7085 2331.32 36.8098L2329.96 42.4976ZM2352.16 48.0636C2355.84 49.0159 2359.53 49.9775 2363.24 50.9439L2364.72 45.2832C2361.01 44.3174 2357.31 43.3542 2353.62 42.4002L2352.16 48.0636ZM2374.35 53.8221C2378.02 54.7672 2381.73 55.7115 2385.48 56.6499L2386.9 50.9753C2383.16 50.041 2379.47 49.1001 2375.81 48.1573L2374.35 53.8221ZM2396.65 59.3842C2400.32 60.2635 2404.06 61.133 2407.85 61.9885L2409.14 56.2821C2405.37 55.4329 2401.66 54.5692 2398.01 53.6952L2396.65 59.3842ZM2419.1 64.434C2422.79 65.2067 2426.55 65.9633 2430.39 66.7002L2431.49 60.9559C2427.69 60.2254 2423.96 59.4752 2420.3 58.7088L2419.1 64.434ZM2441.71 68.7739C2445.42 69.4198 2449.2 70.0458 2453.06 70.6489L2453.97 64.8695C2450.14 64.2718 2446.39 63.6515 2442.71 63.0113L2441.71 68.7739ZM2464.45 72.3243C2468.19 72.8399 2472 73.3336 2475.89 73.8031L2476.59 67.9959C2472.73 67.5304 2468.95 67.041 2465.26 66.53L2464.45 72.3243ZM2487.37 75.0912C2491.11 75.4796 2494.93 75.8457 2498.83 76.1876L2499.34 70.3606C2495.47 70.0214 2491.68 69.6583 2487.97 69.2731L2487.37 75.0912ZM2510.25 77.1019C2514.01 77.3741 2517.83 77.6242 2521.74 77.8508L2522.07 72.0113C2518.2 71.7863 2514.4 71.5381 2510.67 71.2679L2510.25 77.1019ZM2533.31 78.4425C2537.05 78.6082 2540.85 78.7527 2544.73 78.8751L2544.92 73.0286C2541.06 72.9071 2537.28 72.7635 2533.57 72.5989L2533.31 78.4425ZM2556.22 79.1675C2560.02 79.2415 2563.89 79.2948 2567.82 79.3263L2567.87 73.4772C2563.96 73.4458 2560.11 73.3929 2556.33 73.3193L2556.22 79.1675ZM2579.2 79.3565C2582.99 79.3468 2586.84 79.3173 2590.76 79.2676L2590.69 73.4187C2586.79 73.4682 2582.96 73.4975 2579.19 73.5072L2579.2 79.3565ZM2602.22 79.0674C2604.15 79.0244 2606.11 78.9766 2608.08 78.9238L2607.92 73.0766C2605.96 73.1291 2604.02 73.1767 2602.09 73.2195L2602.22 79.0674ZM2608.08 78.9238C2610.08 78.8701 2612.08 78.8119 2614.06 78.7493L2613.87 72.9029C2611.9 72.9652 2609.92 73.0231 2607.92 73.0766L2608.08 78.9238ZM2625.78 78.3221C2629.77 78.1572 2633.7 77.9745 2637.58 77.7749L2637.28 71.9333C2633.42 72.1319 2629.5 72.3137 2625.53 72.4778L2625.78 78.3221ZM2649.24 77.1161C2653.24 76.8698 2657.18 76.6057 2661.06 76.325L2660.64 70.4909C2656.77 70.7701 2652.86 71.0328 2648.88 71.2778L2649.24 77.1161ZM2672.79 75.4135C2676.73 75.0858 2680.61 74.7411 2684.44 74.3809L2683.89 68.5573C2680.08 68.9156 2676.22 69.2583 2672.3 69.5843L2672.79 75.4135ZM2696.22 73.2052C2700.18 72.7879 2704.08 72.3545 2707.91 71.9064L2707.24 66.0965C2703.42 66.5421 2699.54 66.9731 2695.61 67.3881L2696.22 73.2052ZM2719.54 70.484C2723.5 69.9773 2727.4 69.4559 2731.24 68.9218L2730.43 63.1283C2726.61 63.6595 2722.74 64.1781 2718.8 64.682L2719.54 70.484ZM2742.91 67.233C2746.84 66.6423 2750.71 66.0395 2754.53 65.4269L2753.6 59.6516C2749.8 60.2612 2745.95 60.8609 2742.04 61.4485L2742.91 67.233ZM2766.11 63.5087C2770.02 62.8419 2773.87 62.1669 2777.66 61.4862L2776.63 55.7288C2772.85 56.4067 2769.02 57.0789 2765.12 57.7425L2766.11 63.5087ZM2789.25 59.3592C2793.16 58.6271 2797.01 57.8919 2800.81 57.1566L2799.7 51.4139C2795.91 52.1472 2792.07 52.8802 2788.18 53.6098L2789.25 59.3592ZM2812.35 54.8971C2816.23 54.1277 2820.07 53.3618 2823.86 52.6034L2822.72 46.8677C2818.93 47.6259 2815.09 48.3908 2811.21 49.1591L2812.35 54.8971ZM2835.37 50.3027C2839.24 49.5302 2843.07 48.7701 2846.87 48.0263L2845.74 42.286C2841.94 43.0317 2838.1 43.7932 2834.22 44.5664L2835.37 50.3027ZM2858.37 45.8095C2862.23 45.0796 2866.06 44.3718 2869.88 43.6908L2868.85 37.9325C2865.01 38.6176 2861.16 39.329 2857.28 40.0619L2858.37 45.8095ZM2881.4 41.7107C2885.26 41.0764 2889.1 40.4747 2892.94 39.9104L2892.09 34.1231C2888.22 34.6928 2884.34 35.2997 2880.45 35.9389L2881.4 41.7107ZM2904.51 38.3298C2908.36 37.8446 2912.22 37.4017 2916.1 37.0061L2915.5 31.187C2911.58 31.5876 2907.67 32.0357 2903.78 32.5264L2904.51 38.3298ZM2927.71 35.9713C2931.55 35.6794 2935.43 35.4379 2939.33 35.2512L2939.05 29.4086C2935.09 29.5979 2931.16 29.8429 2927.26 30.1387L2927.71 35.9713ZM2950.97 34.8642C2954.81 34.7928 2958.69 34.7769 2962.62 34.8206L2962.68 28.9717C2958.7 28.9273 2954.76 28.9435 2950.86 29.0159L2950.97 34.8642ZM2974.25 35.1234C2978.08 35.2795 2981.95 35.4934 2985.88 35.7686L2986.29 29.9335C2982.31 29.6544 2978.38 29.4374 2974.49 29.2789L2974.25 35.1234ZM2997.5 36.7473C3001.31 37.1219 3005.17 37.5541 3009.1 38.047L3009.83 32.2432C3005.85 31.7439 3001.93 31.3059 2998.07 30.926L2997.5 36.7473ZM3020.68 39.6535C3024.45 40.2242 3028.28 40.8501 3032.16 41.5336L3033.18 35.7727C3029.24 35.0813 3025.37 34.4479 3021.56 33.8701L3020.68 39.6535ZM3043.6 43.6773C3045.52 44.0586 3047.45 44.4536 3049.4 44.8626L3050.6 39.138C3048.63 38.7247 3046.68 38.3256 3044.74 37.9402L3043.6 43.6773ZM3049.4 44.8626C3051.25 45.2509 3053.12 45.6338 3055.02 46.0116L3056.16 40.2752C3054.28 39.9012 3052.43 39.5221 3050.6 39.138L3049.4 44.8626ZM3066.56 48.2014C3070.31 48.8778 3074.13 49.5357 3078.02 50.1752L3078.97 44.4034C3075.1 43.7685 3071.31 43.1158 3067.6 42.4451L3066.56 48.2014ZM3089.52 51.9827C3093.33 52.5555 3097.2 53.112 3101.12 53.6525L3101.92 47.8579C3098.02 47.3205 3094.17 46.7674 3090.39 46.1983L3089.52 51.9827ZM3112.63 55.1727C3116.44 55.6548 3120.3 56.1228 3124.2 56.5766L3124.88 50.7665C3121 50.3148 3117.16 49.8492 3113.37 49.3697L3112.63 55.1727ZM3135.83 57.8759C3139.64 58.2837 3143.49 58.6788 3147.36 59.0613L3147.94 53.2402C3144.08 52.8593 3140.25 52.4658 3136.46 52.0598L3135.83 57.8759ZM3159 60.1622C3162.83 60.5095 3166.69 60.845 3170.58 61.1689L3171.06 55.3398C3167.19 55.017 3163.34 54.6827 3159.53 54.3367L3159 60.1622ZM3182.19 62.0963C3186.04 62.3906 3189.92 62.6739 3193.81 62.9461L3194.22 57.111C3190.34 56.8396 3186.48 56.5573 3182.64 56.264L3182.19 62.0963ZM3205.42 63.721C3209.28 63.9673 3213.16 64.203 3217.06 64.4284L3217.4 58.5888C3213.51 58.3641 3209.64 58.129 3205.79 57.8835L3205.42 63.721ZM3228.66 65.0661C3232.53 65.2681 3236.42 65.4602 3240.32 65.6424L3240.59 59.7994C3236.7 59.6177 3232.83 59.4262 3228.97 59.2247L3228.66 65.0661ZM3251.92 66.1543C3255.8 66.3151 3259.68 66.4664 3263.57 66.6081L3263.78 60.7626C3259.9 60.6213 3256.03 60.4704 3252.16 60.31L3251.92 66.1543ZM3275.19 67.0027C3279.07 67.1248 3282.95 67.2376 3286.83 67.3412L3286.99 61.4939C3283.11 61.3906 3279.24 61.2781 3275.37 61.1563L3275.19 67.0027ZM3298.46 67.6237C3302.34 67.7088 3306.22 67.7848 3310.1 67.8517L3310.2 62.0033C3306.33 61.9365 3302.46 61.8607 3298.59 61.7758L3298.46 67.6237ZM3321.74 68.0257C3325.62 68.0748 3329.5 68.115 3333.38 68.1462L3333.43 62.2971C3329.56 62.2659 3325.69 62.2259 3321.81 62.1768L3321.74 68.0257ZM3345.01 68.2135C3348.9 68.2271 3352.79 68.2318 3356.66 68.2276L3356.66 62.3783C3352.79 62.3825 3348.92 62.3778 3345.03 62.3642L3345.01 68.2135ZM3368.28 68.1885C3372.18 68.1664 3376.07 68.1354 3379.94 68.0954L3379.88 62.2464C3376.02 62.2863 3372.14 62.3172 3368.25 62.3393L3368.28 68.1885ZM3391.55 67.9487C3395.46 67.89 3399.35 67.8223 3403.22 67.7455L3403.11 61.8973C3399.24 61.9739 3395.36 62.0415 3391.46 62.1L3391.55 67.9487ZM3414.83 67.4873C3418.74 67.3906 3422.63 67.2847 3426.49 67.1696L3426.32 61.3229C3422.47 61.4377 3418.59 61.5433 3414.68 61.6397L3414.83 67.4873ZM3438.12 66.7932C3442.02 66.6565 3445.9 66.5103 3449.75 66.3547L3449.51 60.5101C3445.67 60.6653 3441.81 60.8111 3437.92 60.9475L3438.12 66.7932ZM3461.4 65.8498C3465.29 65.6702 3469.15 65.4806 3472.96 65.2814L3472.66 59.44C3468.85 59.6386 3465.01 59.8276 3461.13 60.0067L3461.4 65.8498ZM3484.66 64.633C3488.58 64.4033 3492.44 64.1631 3496.26 63.9125L3495.88 58.0757C3492.07 58.3254 3488.22 58.5648 3484.32 58.7937L3484.66 64.633ZM3507.86 63.1087C3511.81 62.8201 3515.7 62.5199 3519.53 62.2082L3519.06 56.3782C3515.24 56.6885 3511.37 56.9875 3507.44 57.275L3507.86 63.1087ZM3531.1 61.2144C3535.04 60.8585 3538.9 60.4897 3542.68 60.1083L3542.09 54.2885C3538.33 54.6678 3534.49 55.0347 3530.58 55.3889L3531.1 61.2144ZM3554.34 58.8637C3558.3 58.416 3562.17 57.9534 3565.93 57.4759L3565.19 51.6732C3561.46 52.147 3557.62 52.6065 3553.68 53.0513L3554.34 58.8637ZM3577.46 55.9168C3581.44 55.3441 3585.28 54.7529 3588.96 54.1433L3588.01 48.3724C3584.37 48.9747 3580.57 49.5598 3576.63 50.1271L3577.46 55.9168ZM3600.45 52.0874C3604.53 51.2969 3608.37 50.4789 3611.97 49.6337L3610.63 43.9398C3607.12 44.765 3603.35 45.5671 3599.34 46.345L3600.45 52.0874Z" fill="#F9DD00"/>
<path d="M1822 100.999L1788.23 101.526L1805.57 130.506L1822 100.999ZM3.09613 165.71C4.55298 165.121 6.31711 164.35 8.35882 163.423L5.93995 158.097C3.93044 159.01 2.25083 159.743 0.903867 160.287L3.09613 165.71ZM18.8098 158.525C21.96 157.024 25.453 155.349 29.2579 153.528L26.7327 148.252C22.9216 150.076 19.4378 151.747 16.2937 153.245L18.8098 158.525ZM39.542 148.621C42.8281 147.06 46.2869 145.424 49.9094 143.725L47.4248 138.429C43.7922 140.134 40.3247 141.773 37.0318 143.338L39.542 148.621ZM60.3122 138.881C63.6753 137.327 67.1527 135.733 70.7384 134.106L68.321 128.78C64.7226 130.413 61.2333 132.012 57.8592 133.571L60.3122 138.881ZM81.1898 129.407C84.6021 127.888 88.0978 126.347 91.6724 124.788L89.3342 119.426C85.7453 120.991 82.236 122.539 78.8108 124.064L81.1898 129.407ZM102.193 120.25C105.65 118.775 109.173 117.288 112.756 115.795L110.506 110.396C106.907 111.896 103.37 113.388 99.8974 114.87L102.193 120.25ZM123.365 111.427C126.867 110.003 130.421 108.576 134.023 107.149L131.868 101.711C128.25 103.145 124.68 104.578 121.162 106.009L123.365 111.427ZM144.663 102.992C148.187 101.634 151.752 100.279 155.356 98.9305L153.306 93.4522C149.683 94.8078 146.1 96.1692 142.56 97.5337L144.663 102.992ZM166.105 94.9691C169.672 93.6749 173.274 92.3889 176.907 91.1138L174.97 85.5945C171.317 86.8766 167.696 88.1694 164.11 89.4704L166.105 94.9691ZM187.725 87.3829C191.315 86.1667 194.933 84.9633 198.576 83.7749L196.762 78.2139C193.097 79.4094 189.459 80.6198 185.848 81.8428L187.725 87.3829ZM209.483 80.2876C213.113 79.1506 216.766 78.0304 220.44 76.9293L218.76 71.3263C215.063 72.4344 211.387 73.5616 207.734 74.7057L209.483 80.2876ZM231.409 73.7173C235.065 72.6724 238.739 71.6482 242.428 70.6469L240.896 65.0017C237.181 66.0101 233.482 67.0413 229.802 68.0932L231.409 73.7173ZM253.495 67.726C257.182 66.7807 260.883 65.8601 264.595 64.9662L263.225 59.2794C259.485 60.1802 255.757 61.1078 252.043 62.06L253.495 67.726ZM275.729 62.3745C279.446 61.5397 283.172 60.7335 286.906 59.958L285.717 54.2309C281.951 55.013 278.194 55.8258 274.448 56.6674L275.729 62.3745ZM298.117 57.7276C301.861 57.016 305.61 56.3372 309.363 55.693L308.373 49.928C304.585 50.5782 300.802 51.2633 297.025 51.9811L298.117 57.7276ZM320.642 53.8651C324.409 53.2912 328.178 52.7543 331.947 52.2564L331.181 46.4575C327.373 46.9605 323.566 47.5029 319.761 48.0824L320.642 53.8651ZM343.284 50.8782C347.074 50.458 350.862 50.0794 354.647 49.7446L354.131 43.918C350.303 44.2568 346.471 44.6396 342.639 45.0645L343.284 50.8782ZM366.021 48.8709C369.823 48.624 373.619 48.4237 377.407 48.2719L377.173 42.4273C373.335 42.581 369.491 42.7839 365.642 43.0338L366.021 48.8709ZM388.814 47.9638C390.712 47.9378 392.608 47.9247 394.5 47.9247V42.0753C392.58 42.0753 390.658 42.0887 388.734 42.1151L388.814 47.9638ZM394.5 47.9247C396.461 47.9247 398.401 47.9378 400.32 47.9638L400.399 42.115C398.454 42.0887 396.487 42.0753 394.5 42.0753V47.9247ZM411.727 48.2765C415.604 48.4379 419.395 48.6533 423.105 48.9196L423.524 43.0853C419.755 42.8148 415.905 42.596 411.97 42.4322L411.727 48.2765ZM434.517 49.9211C438.391 50.3244 442.176 50.7842 445.881 51.2966L446.682 45.5024C442.912 44.981 439.062 44.5133 435.123 44.1032L434.517 49.9211ZM457.175 53.0583C460.994 53.7226 464.731 54.4428 468.394 55.2139L469.598 49.49C465.869 48.705 462.066 47.9717 458.178 47.2955L457.175 53.0583ZM479.527 57.7618C483.275 58.6881 486.951 59.6661 490.57 60.6898L492.162 55.0614C488.484 54.0207 484.744 53.0259 480.931 52.0834L479.527 57.7618ZM501.52 63.9734C505.186 65.1333 508.802 66.3363 512.382 67.5758L514.296 62.0484C510.671 60.7934 507.005 59.5736 503.284 58.3966L501.52 63.9734ZM523.172 71.4501C526.767 72.7838 530.339 74.1482 533.903 75.5361L536.026 70.0855C532.439 68.6885 528.837 67.3126 525.207 65.9659L523.172 71.4501ZM544.594 79.7669C548.144 81.1895 551.697 82.6273 555.273 84.0743L557.467 78.6522C553.893 77.2056 550.33 75.7643 546.77 74.3374L544.594 79.7669ZM565.968 88.3905C569.51 89.8117 573.084 91.2341 576.704 92.6502L578.835 87.2029C575.236 85.7948 571.678 84.379 568.146 82.9619L565.968 88.3905ZM587.503 96.7939C591.07 98.1331 594.692 99.4604 598.378 100.769L600.335 95.2573C596.686 93.9613 593.097 92.6462 589.559 91.3178L587.503 96.7939ZM609.337 104.534C612.947 105.73 616.625 106.905 620.382 108.053L622.091 102.459C618.381 101.325 614.746 100.164 611.177 98.9813L609.337 104.534ZM631.511 111.304C635.169 112.323 638.904 113.314 642.722 114.273L644.146 108.6C640.378 107.654 636.692 106.675 633.081 105.669L631.511 111.304ZM654.012 116.953C657.72 117.783 661.508 118.582 665.381 119.345L666.512 113.606C662.689 112.852 658.95 112.064 655.289 111.245L654.012 116.953ZM676.835 121.454C680.562 122.093 684.366 122.699 688.253 123.27L689.103 117.482C685.262 116.918 681.504 116.319 677.823 115.689L676.835 121.454ZM699.703 124.817C703.469 125.282 707.31 125.715 711.231 126.114L711.822 120.294C707.943 119.9 704.144 119.472 700.42 119.012L699.703 124.817ZM722.861 127.172C726.61 127.475 730.429 127.746 734.322 127.985L734.68 122.146C730.824 121.91 727.043 121.641 723.332 121.342L722.861 127.172ZM745.882 128.586C749.702 128.751 753.591 128.884 757.552 128.986L757.701 123.138C753.775 123.038 749.919 122.905 746.133 122.742L745.882 128.586ZM769.011 129.187C772.825 129.223 776.703 129.231 780.647 129.209L780.614 123.36C776.699 123.382 772.851 123.374 769.067 123.338L769.011 129.187ZM792.174 129.061C794.127 129.023 796.095 128.977 798.078 128.924L797.922 123.076C795.951 123.129 793.997 123.175 792.058 123.213L792.174 129.061ZM798.078 128.924C800.098 128.87 802.106 128.81 804.103 128.746L803.914 122.899C801.928 122.964 799.93 123.023 797.922 123.076L798.078 128.924ZM815.951 128.298C819.971 128.124 823.945 127.929 827.875 127.714L827.556 121.873C823.648 122.087 819.696 122.281 815.698 122.454L815.951 128.298ZM839.672 127.003C843.692 126.738 847.665 126.452 851.592 126.147L851.139 120.315C847.235 120.618 843.284 120.902 839.287 121.166L839.672 127.003ZM863.438 125.159C867.413 124.804 871.341 124.43 875.223 124.038L874.635 118.218C870.776 118.608 866.87 118.98 862.917 119.333L863.438 125.159ZM887.106 122.767C891.086 122.318 895.017 121.851 898.902 121.368L898.18 115.563C894.317 116.044 890.408 116.509 886.45 116.955L887.106 122.767ZM910.643 119.839C914.633 119.297 918.573 118.738 922.467 118.165L921.615 112.378C917.742 112.948 913.823 113.504 909.855 114.043L910.643 119.839ZM934.224 116.369C938.172 115.744 942.072 115.106 945.927 114.457L944.955 108.689C941.119 109.335 937.238 109.97 933.31 110.591L934.224 116.369ZM957.629 112.427C961.58 111.722 965.485 111.008 969.345 110.285L968.269 104.535C964.424 105.255 960.536 105.967 956.602 106.668L957.629 112.427ZM981.018 108.052C984.94 107.287 988.819 106.516 992.656 105.742L991.499 100.008C987.673 100.78 983.807 101.549 979.898 102.311L981.018 108.052ZM1004.27 103.367C1008.18 102.558 1012.05 101.748 1015.88 100.941L1014.68 95.2174C1010.85 96.0233 1006.98 96.8315 1003.08 97.6391L1004.27 103.367ZM1027.5 98.4839C1031.4 97.6562 1035.27 96.8352 1039.11 96.0236L1037.9 90.3009C1034.06 91.113 1030.19 91.9346 1026.29 92.7619L1027.5 98.4839ZM1050.7 93.585C1054.59 92.7732 1058.46 91.9754 1062.3 91.1953L1061.13 85.463C1057.28 86.2456 1053.41 87.0455 1049.51 87.859L1050.7 93.585ZM1073.9 88.8836C1077.79 88.1256 1081.66 87.3901 1085.52 86.6811L1084.46 80.9282C1080.58 81.6415 1076.69 82.3809 1072.78 83.1423L1073.9 88.8836ZM1097.15 84.6201C1101.04 83.9584 1104.93 83.3281 1108.81 82.7334L1107.92 76.9516C1104.01 77.5515 1100.09 78.1869 1096.17 78.8535L1097.15 84.6201ZM1120.49 81.0536C1124.39 80.5316 1128.29 80.0497 1132.19 79.612L1131.54 73.799C1127.59 74.2416 1123.65 74.7288 1119.71 75.256L1120.49 81.0536ZM1143.92 78.438C1147.82 78.0953 1151.74 77.8003 1155.67 77.5572L1155.31 71.719C1151.32 71.9654 1147.36 72.2642 1143.41 72.6112L1143.92 78.438ZM1167.43 76.9906C1171.33 76.8569 1175.25 76.777 1179.19 76.7547L1179.16 70.9055C1175.15 70.9281 1171.18 71.0092 1167.23 71.1447L1167.43 76.9906ZM1190.96 76.8604C1194.84 76.9526 1198.76 77.1025 1202.71 77.3138L1203.02 71.4728C1199.01 71.2584 1195.04 71.1063 1191.1 71.0127L1190.96 76.8604ZM1214.46 78.1159C1218.33 78.4377 1222.23 78.8193 1226.18 79.2639L1226.84 73.4513C1222.83 73.0003 1218.87 72.6132 1214.94 72.2867L1214.46 78.1159ZM1237.89 80.752C1241.72 81.2935 1245.59 81.8945 1249.5 82.5578L1250.48 76.7907C1246.51 76.1186 1242.59 75.5093 1238.71 74.9603L1237.89 80.752ZM1261.06 84.6743C1263 85.0546 1264.94 85.45 1266.9 85.8608L1268.1 80.1362C1266.12 79.7202 1264.15 79.3199 1262.19 78.9348L1261.06 84.6743ZM1266.9 85.8608C1268.76 86.2503 1270.63 86.6393 1272.53 87.0277L1273.7 81.2971C1271.81 80.9107 1269.95 80.5237 1268.1 80.1362L1266.9 85.8608ZM1284.08 89.3333C1287.83 90.065 1291.65 90.7935 1295.54 91.5181L1296.61 85.7679C1292.74 85.046 1288.93 84.3205 1285.2 83.5921L1284.08 89.3333ZM1307.02 93.6143C1310.83 94.2944 1314.69 94.9704 1318.6 95.6417L1319.59 89.8766C1315.69 89.2075 1311.85 88.5339 1308.05 87.8562L1307.02 93.6143ZM1330.11 97.5786C1333.92 98.2063 1337.76 98.8292 1341.65 99.4469L1342.57 93.67C1338.69 93.0542 1334.86 92.4331 1331.07 91.8073L1330.11 97.5786ZM1353.27 101.26C1357.07 101.842 1360.91 102.419 1364.78 102.989L1365.63 97.2027C1361.77 96.6334 1357.95 96.0584 1354.16 95.478L1353.27 101.26ZM1376.37 104.67C1380.21 105.216 1384.07 105.755 1387.95 106.288L1388.75 100.493C1384.87 99.9614 1381.02 99.4233 1377.2 98.8793L1376.37 104.67ZM1399.53 107.848C1403.39 108.358 1407.26 108.861 1411.16 109.357L1411.9 103.554C1408.01 103.059 1404.15 102.558 1400.3 102.049L1399.53 107.848ZM1422.74 110.803C1426.6 111.277 1430.48 111.743 1434.37 112.202L1435.06 106.392C1431.17 105.935 1427.3 105.47 1423.45 104.997L1422.74 110.803ZM1445.97 113.541C1449.84 113.978 1453.72 114.408 1457.6 114.83L1458.23 109.014C1454.36 108.594 1450.49 108.165 1446.63 107.729L1445.97 113.541ZM1469.23 116.063C1473.1 116.465 1476.98 116.858 1480.87 117.243L1481.44 111.422C1477.57 111.038 1473.7 110.646 1469.83 110.245L1469.23 116.063ZM1492.51 118.368C1496.39 118.733 1500.27 119.09 1504.15 119.437L1504.68 113.611C1500.8 113.265 1496.93 112.909 1493.06 112.544L1492.51 118.368ZM1515.8 120.449C1519.69 120.778 1523.58 121.096 1527.47 121.405L1527.93 115.574C1524.05 115.266 1520.18 114.948 1516.29 114.621L1515.8 120.449ZM1539.12 122.299C1543.02 122.589 1546.91 122.867 1550.8 123.135L1551.2 117.299C1547.32 117.032 1543.44 116.755 1539.55 116.466L1539.12 122.299ZM1562.46 123.905C1566.37 124.152 1570.26 124.387 1574.14 124.61L1574.48 118.77C1570.61 118.548 1566.73 118.313 1562.83 118.067L1562.46 123.905ZM1585.83 125.246C1589.74 125.447 1593.63 125.635 1597.5 125.81L1597.76 119.966C1593.9 119.792 1590.02 119.605 1586.13 119.405L1585.83 125.246ZM1609.22 126.299C1613.12 126.449 1617.01 126.584 1620.87 126.705L1621.05 120.858C1617.2 120.738 1613.33 120.603 1609.44 120.454L1609.22 126.299ZM1632.61 127.028C1636.54 127.121 1640.43 127.198 1644.3 127.258L1644.39 121.41C1640.54 121.35 1636.66 121.273 1632.75 121.18L1632.61 127.028ZM1655.99 127.39C1659.95 127.417 1663.86 127.425 1667.74 127.415L1667.72 121.566C1663.87 121.576 1659.97 121.568 1656.03 121.541L1655.99 127.39ZM1679.4 127.324C1683.36 127.272 1687.28 127.199 1691.15 127.103L1691 121.256C1687.16 121.351 1683.26 121.423 1679.32 121.475L1679.4 127.324ZM1702.88 126.74C1706.82 126.592 1710.71 126.42 1714.53 126.221L1714.23 120.38C1710.44 120.577 1706.58 120.748 1702.66 120.895L1702.88 126.74ZM1726.27 125.517C1730.26 125.243 1734.18 124.938 1738.01 124.602L1737.5 118.775C1733.71 119.108 1729.83 119.41 1725.87 119.681L1726.27 125.517ZM1749.69 123.447C1753.67 123.007 1757.55 122.527 1761.31 122.008L1760.51 116.213C1756.8 116.725 1752.98 117.198 1749.05 117.633L1749.69 123.447ZM1772.91 120.214C1776.94 119.518 1780.82 118.767 1784.53 117.958L1783.29 112.243C1779.67 113.031 1775.87 113.767 1771.91 114.449L1772.91 120.214ZM1796.04 115.118C1800.06 113.992 1803.83 112.779 1807.34 111.471L1805.3 105.99C1801.96 107.233 1798.35 108.397 1794.46 109.485L1796.04 115.118Z" fill="#F9DD00"/>
<path d="M2080.5 63C2068.66 63 2059 53.3386 2059 41.5C2059 29.6614 2068.66 20 2080.5 20C2092.34 20 2102 29.6614 2102 41.5C2102 53.3386 2092.34 63 2080.5 63Z" fill="white"/>
<path d="M2470.5 83C2460.86 83 2453 75.1361 2453 65.5C2453 55.8639 2460.86 48 2470.5 48C2480.14 48 2488 55.8639 2488 65.5C2488 75.1361 2480.14 83 2470.5 83Z" fill="white"/>
<path d="M2884.5 51C2874.86 51 2867 43.1361 2867 33.5C2867 23.8639 2874.86 16 2884.5 16C2894.14 16 2902 23.8639 2902 33.5C2902 43.1361 2894.14 51 2884.5 51Z" fill="white"/>
<path d="M3287.5 82C3277.86 82 3270 74.1361 3270 64.5C3270 54.8639 3277.86 47 3287.5 47C3297.14 47 3305 54.8639 3305 64.5C3305 74.1361 3297.14 82 3287.5 82Z" fill="white"/>
</svg>
