<svg width="3628" height="145" viewBox="0 0 3628 145" fill="none" xmlns="http://www.w3.org/2000/svg">
<path d="M3628 21.0003L3594.94 14.118L3605.51 46.192L3628 21.0003ZM1809.1 85.7118C1810.53 85.1304 1812.32 84.4289 1814.44 83.6192L1812.35 78.1551C1810.21 78.9749 1808.38 79.6903 1806.9 80.2888L1809.1 85.7118ZM1825.49 79.5275C1828.84 78.3196 1832.56 77.0025 1836.63 75.5931L1834.71 70.0664C1830.62 71.4835 1826.88 72.8087 1823.51 74.0252L1825.49 79.5275ZM1847.79 71.7899C1851.35 70.5945 1855.11 69.3531 1859.05 68.0733L1857.24 62.5103C1853.29 63.7957 1849.51 65.0427 1845.93 66.2438L1847.79 71.7899ZM1870.27 64.4813C1873.9 63.3363 1877.65 62.1685 1881.52 60.9826L1879.81 55.39C1875.92 56.5806 1872.15 57.7532 1868.51 58.903L1870.27 64.4813ZM1892.82 57.5711C1896.51 56.4731 1900.28 55.364 1904.15 54.2474L1902.52 48.6282C1898.64 49.7492 1894.85 50.8626 1891.15 51.9649L1892.82 57.5711ZM1915.51 51.0114C1919.24 49.9647 1923.04 48.9143 1926.9 47.8631L1925.36 42.219C1921.48 43.2744 1917.67 44.3288 1913.93 45.3795L1915.51 51.0114ZM1938.29 44.8112C1942.04 43.8228 1945.84 42.8361 1949.69 41.8533L1948.25 36.1855C1944.38 37.1722 1940.56 38.1629 1936.8 39.1551L1938.29 44.8112ZM1961.13 38.9847C1964.91 38.0525 1968.74 37.126 1972.6 36.2071L1971.25 30.5165C1967.37 31.4391 1963.53 32.3694 1959.73 33.3054L1961.13 38.9847ZM1984.1 33.5229C1987.92 32.6506 1991.76 31.7873 1995.64 30.935L1994.38 25.2221C1990.49 26.0781 1986.63 26.945 1982.8 27.821L1984.1 33.5229ZM2007.16 28.4566C2010.98 27.6517 2014.83 26.8589 2018.7 26.0797L2017.55 20.3451C2013.66 21.1279 2009.79 21.9244 2005.95 22.7328L2007.16 28.4566ZM2030.28 23.807C2034.13 23.0704 2038 22.3487 2041.89 21.6433L2040.85 15.8878C2036.94 16.5966 2033.05 17.3218 2029.18 18.0619L2030.28 23.807ZM2053.5 19.5975C2057.36 18.9373 2061.24 18.2943 2065.13 17.6703L2064.21 11.8948C2060.3 12.5221 2056.4 13.1683 2052.52 13.8319L2053.5 19.5975ZM2076.79 15.8648C2080.67 15.2851 2084.57 14.7254 2088.47 14.1872L2087.67 8.39274C2083.75 8.93398 2079.83 9.49678 2075.93 10.0796L2076.79 15.8648ZM2100.15 12.6451C2104.05 12.1543 2107.95 11.6861 2111.86 11.2421L2111.2 5.43016C2107.27 5.87697 2103.34 6.34797 2099.42 6.8417L2100.15 12.6451ZM2123.58 9.98497C2127.49 9.59117 2131.4 9.22282 2135.31 8.88137L2134.81 3.05419C2130.87 3.39796 2126.93 3.76875 2123 4.1651L2123.58 9.98497ZM2147.06 7.9383C2150.98 7.65137 2154.9 7.3929 2158.82 7.16433L2158.48 1.32494C2154.53 1.55522 2150.58 1.81559 2146.64 2.10456L2147.06 7.9383ZM2170.58 6.56872C2174.51 6.40058 2178.43 6.26414 2182.35 6.16085L2182.19 0.31355C2178.25 0.417709 2174.29 0.555269 2170.33 0.724732L2170.58 6.56872ZM2194.13 5.95131C2196.09 5.93361 2198.05 5.92467 2200 5.92467V0.0753341C2198.03 0.0753341 2196.05 0.0843586 2194.07 0.102216L2194.13 5.95131ZM2200 5.92467C2201.95 5.92467 2203.89 5.93335 2205.8 5.9505L2205.85 0.101401C2203.92 0.0840974 2201.97 0.0753341 2200 0.0753341V5.92467ZM2217.18 6.15665C2221.04 6.26293 2224.83 6.40472 2228.53 6.57989L2228.81 0.737081C2225.06 0.560071 2221.24 0.416854 2217.34 0.309523L2217.18 6.15665ZM2239.95 7.23899C2243.83 7.50409 2247.62 7.80635 2251.33 8.143L2251.86 2.31753C2248.1 1.97699 2244.27 1.67133 2240.35 1.40329L2239.95 7.23899ZM2262.68 9.30121C2266.53 9.73844 2270.29 10.2125 2273.99 10.7199L2274.79 4.92488C2271.05 4.41141 2267.23 3.93173 2263.34 3.48931L2262.68 9.30121ZM2285.26 12.4001C2289.07 13.0127 2292.81 13.6595 2296.49 14.3363L2297.55 8.58338C2293.83 7.89901 2290.04 7.24481 2286.19 6.62506L2285.26 12.4001ZM2307.68 16.5146C2311.44 17.2867 2315.16 18.0875 2318.83 18.9121L2320.11 13.2046C2316.41 12.3729 2312.66 11.5646 2308.86 10.7847L2307.68 16.5146ZM2329.96 21.4976C2333.68 22.3905 2337.38 23.3035 2341.06 24.2314L2342.49 18.5588C2338.79 17.6267 2335.07 16.7085 2331.32 15.8098L2329.96 21.4976ZM2352.16 27.0636C2355.84 28.0159 2359.53 28.9775 2363.24 29.9439L2364.72 24.2832C2361.01 23.3174 2357.31 22.3542 2353.62 21.4002L2352.16 27.0636ZM2374.35 32.8221C2378.02 33.7672 2381.73 34.7115 2385.48 35.6499L2386.9 29.9753C2383.16 29.041 2379.47 28.1001 2375.81 27.1573L2374.35 32.8221ZM2396.65 38.3842C2400.32 39.2635 2404.06 40.133 2407.85 40.9885L2409.14 35.2821C2405.37 34.4329 2401.66 33.5692 2398.01 32.6952L2396.65 38.3842ZM2419.1 43.434C2422.79 44.2067 2426.55 44.9633 2430.39 45.7002L2431.49 39.9559C2427.69 39.2254 2423.96 38.4752 2420.3 37.7088L2419.1 43.434ZM2441.71 47.7739C2445.42 48.4198 2449.2 49.0458 2453.06 49.6489L2453.97 43.8695C2450.14 43.2718 2446.39 42.6515 2442.71 42.0113L2441.71 47.7739ZM2464.45 51.3243C2468.19 51.8399 2472 52.3336 2475.89 52.8031L2476.59 46.9959C2472.73 46.5304 2468.95 46.041 2465.26 45.53L2464.45 51.3243ZM2487.37 54.0912C2491.11 54.4796 2494.93 54.8457 2498.83 55.1876L2499.34 49.3606C2495.47 49.0214 2491.68 48.6583 2487.97 48.2731L2487.37 54.0912ZM2510.25 56.1019C2514.01 56.3741 2517.83 56.6242 2521.74 56.8508L2522.07 51.0113C2518.2 50.7863 2514.4 50.5381 2510.67 50.2679L2510.25 56.1019ZM2533.31 57.4425C2537.05 57.6082 2540.85 57.7527 2544.73 57.8751L2544.92 52.0286C2541.06 51.9071 2537.28 51.7635 2533.57 51.5989L2533.31 57.4425ZM2556.22 58.1675C2560.02 58.2415 2563.89 58.2948 2567.82 58.3263L2567.87 52.4772C2563.96 52.4458 2560.11 52.3929 2556.33 52.3193L2556.22 58.1675ZM2579.2 58.3565C2582.99 58.3468 2586.84 58.3173 2590.76 58.2676L2590.69 52.4187C2586.79 52.4682 2582.96 52.4975 2579.19 52.5072L2579.2 58.3565ZM2602.22 58.0674C2604.15 58.0244 2606.11 57.9766 2608.08 57.9238L2607.92 52.0766C2605.96 52.1291 2604.02 52.1767 2602.09 52.2195L2602.22 58.0674ZM2608.08 57.9238C2610.08 57.8701 2612.08 57.8119 2614.06 57.7493L2613.87 51.9029C2611.9 51.9652 2609.92 52.0231 2607.92 52.0766L2608.08 57.9238ZM2625.78 57.3221C2629.77 57.1572 2633.7 56.9745 2637.58 56.7749L2637.28 50.9333C2633.42 51.1319 2629.5 51.3137 2625.53 51.4778L2625.78 57.3221ZM2649.24 56.1161C2653.24 55.8698 2657.18 55.6057 2661.06 55.325L2660.64 49.4909C2656.77 49.7701 2652.86 50.0328 2648.88 50.2778L2649.24 56.1161ZM2672.79 54.4135C2676.73 54.0858 2680.61 53.7411 2684.44 53.3809L2683.89 47.5573C2680.08 47.9156 2676.22 48.2583 2672.3 48.5843L2672.79 54.4135ZM2696.22 52.2052C2700.18 51.7879 2704.08 51.3545 2707.91 50.9064L2707.24 45.0965C2703.42 45.5421 2699.54 45.9731 2695.61 46.3881L2696.22 52.2052ZM2719.54 49.484C2723.5 48.9773 2727.4 48.4559 2731.24 47.9218L2730.43 42.1283C2726.61 42.6595 2722.74 43.1781 2718.8 43.682L2719.54 49.484ZM2742.91 46.233C2746.84 45.6423 2750.71 45.0395 2754.53 44.4269L2753.6 38.6516C2749.8 39.2612 2745.95 39.8609 2742.04 40.4485L2742.91 46.233ZM2766.11 42.5087C2770.02 41.8419 2773.87 41.1669 2777.66 40.4862L2776.63 34.7288C2772.85 35.4067 2769.02 36.0789 2765.12 36.7425L2766.11 42.5087ZM2789.25 38.3592C2793.16 37.6271 2797.01 36.8919 2800.81 36.1566L2799.7 30.4139C2795.91 31.1472 2792.07 31.8802 2788.18 32.6098L2789.25 38.3592ZM2812.35 33.8971C2816.23 33.1277 2820.07 32.3618 2823.86 31.6034L2822.72 25.8677C2818.93 26.6259 2815.09 27.3908 2811.21 28.1591L2812.35 33.8971ZM2835.37 29.3027C2839.24 28.5302 2843.07 27.7701 2846.87 27.0263L2845.74 21.286C2841.94 22.0317 2838.1 22.7932 2834.22 23.5664L2835.37 29.3027ZM2858.37 24.8095C2862.23 24.0796 2866.06 23.3718 2869.88 22.6908L2868.85 16.9325C2865.01 17.6176 2861.16 18.329 2857.28 19.0619L2858.37 24.8095ZM2881.4 20.7107C2885.26 20.0764 2889.1 19.4747 2892.94 18.9104L2892.09 13.1231C2888.22 13.6928 2884.34 14.2997 2880.45 14.9389L2881.4 20.7107ZM2904.51 17.3298C2908.36 16.8446 2912.22 16.4017 2916.1 16.0061L2915.5 10.187C2911.58 10.5876 2907.67 11.0357 2903.78 11.5264L2904.51 17.3298ZM2927.71 14.9713C2931.55 14.6794 2935.43 14.4379 2939.33 14.2512L2939.05 8.40858C2935.09 8.59789 2931.16 8.84287 2927.26 9.13872L2927.71 14.9713ZM2950.97 13.8642C2954.81 13.7928 2958.69 13.7769 2962.62 13.8206L2962.68 7.97167C2958.7 7.9273 2954.76 7.94346 2950.86 8.01589L2950.97 13.8642ZM2974.25 14.1234C2978.08 14.2795 2981.95 14.4934 2985.88 14.7686L2986.29 8.93352C2982.31 8.65439 2978.38 8.4374 2974.49 8.2789L2974.25 14.1234ZM2997.5 15.7473C3001.31 16.1219 3005.17 16.5541 3009.1 17.047L3009.83 11.2432C3005.85 10.7439 3001.93 10.3059 2998.07 9.92603L2997.5 15.7473ZM3020.68 18.6535C3024.45 19.2242 3028.28 19.8501 3032.16 20.5336L3033.18 14.7727C3029.24 14.0813 3025.37 13.4479 3021.56 12.8701L3020.68 18.6535ZM3043.6 22.6773C3045.52 23.0586 3047.45 23.4536 3049.4 23.8626L3050.6 18.138C3048.63 17.7247 3046.68 17.3256 3044.74 16.9402L3043.6 22.6773ZM3049.4 23.8626C3051.25 24.2509 3053.12 24.6338 3055.02 25.0116L3056.16 19.2752C3054.28 18.9012 3052.43 18.5221 3050.6 18.138L3049.4 23.8626ZM3066.56 27.2014C3070.31 27.8778 3074.13 28.5357 3078.02 29.1752L3078.97 23.4034C3075.1 22.7685 3071.31 22.1158 3067.6 21.4451L3066.56 27.2014ZM3089.52 30.9827C3093.33 31.5555 3097.2 32.112 3101.12 32.6525L3101.92 26.8579C3098.02 26.3205 3094.17 25.7674 3090.39 25.1983L3089.52 30.9827ZM3112.63 34.1727C3116.44 34.6548 3120.3 35.1228 3124.2 35.5766L3124.88 29.7665C3121 29.3148 3117.16 28.8492 3113.37 28.3697L3112.63 34.1727ZM3135.83 36.8759C3139.64 37.2837 3143.49 37.6788 3147.36 38.0613L3147.94 32.2402C3144.08 31.8593 3140.25 31.4658 3136.46 31.0598L3135.83 36.8759ZM3159 39.1622C3162.83 39.5095 3166.69 39.845 3170.58 40.1689L3171.06 34.3398C3167.19 34.017 3163.34 33.6827 3159.53 33.3367L3159 39.1622ZM3182.19 41.0963C3186.04 41.3906 3189.92 41.6739 3193.81 41.9461L3194.22 36.111C3190.34 35.8396 3186.48 35.5573 3182.64 35.264L3182.19 41.0963ZM3205.42 42.721C3209.28 42.9673 3213.16 43.203 3217.06 43.4284L3217.4 37.5888C3213.51 37.3641 3209.64 37.129 3205.79 36.8835L3205.42 42.721ZM3228.66 44.0661C3232.53 44.2681 3236.42 44.4602 3240.32 44.6424L3240.59 38.7994C3236.7 38.6177 3232.83 38.4262 3228.97 38.2247L3228.66 44.0661ZM3251.92 45.1543C3255.8 45.3151 3259.68 45.4664 3263.57 45.6081L3263.78 39.7626C3259.9 39.6213 3256.03 39.4704 3252.16 39.31L3251.92 45.1543ZM3275.19 46.0027C3279.07 46.1248 3282.95 46.2376 3286.83 46.3412L3286.99 40.4939C3283.11 40.3906 3279.24 40.2781 3275.37 40.1563L3275.19 46.0027ZM3298.46 46.6237C3302.34 46.7088 3306.22 46.7848 3310.1 46.8517L3310.2 41.0033C3306.33 40.9365 3302.46 40.8607 3298.59 40.7758L3298.46 46.6237ZM3321.74 47.0257C3325.62 47.0748 3329.5 47.115 3333.38 47.1462L3333.43 41.2971C3329.56 41.2659 3325.69 41.2259 3321.81 41.1768L3321.74 47.0257ZM3345.01 47.2135C3348.9 47.2271 3352.79 47.2318 3356.66 47.2276L3356.66 41.3783C3352.79 41.3825 3348.92 41.3778 3345.03 41.3642L3345.01 47.2135ZM3368.28 47.1885C3372.18 47.1664 3376.07 47.1354 3379.94 47.0954L3379.88 41.2464C3376.02 41.2863 3372.14 41.3172 3368.25 41.3393L3368.28 47.1885ZM3391.55 46.9487C3395.46 46.89 3399.35 46.8223 3403.22 46.7455L3403.11 40.8973C3399.24 40.9739 3395.36 41.0415 3391.46 41.1L3391.55 46.9487ZM3414.83 46.4873C3418.74 46.3906 3422.63 46.2847 3426.49 46.1696L3426.32 40.3229C3422.47 40.4377 3418.59 40.5433 3414.68 40.6397L3414.83 46.4873ZM3438.12 45.7932C3442.02 45.6565 3445.9 45.5103 3449.75 45.3547L3449.51 39.5101C3445.67 39.6653 3441.81 39.8111 3437.92 39.9475L3438.12 45.7932ZM3461.4 44.8498C3465.29 44.6702 3469.15 44.4806 3472.96 44.2814L3472.66 38.44C3468.85 38.6386 3465.01 38.8276 3461.13 39.0067L3461.4 44.8498ZM3484.66 43.633C3488.58 43.4033 3492.44 43.1631 3496.26 42.9125L3495.88 37.0757C3492.07 37.3254 3488.22 37.5648 3484.32 37.7937L3484.66 43.633ZM3507.86 42.1087C3511.81 41.8201 3515.7 41.5199 3519.53 41.2082L3519.06 35.3782C3515.24 35.6885 3511.37 35.9875 3507.44 36.275L3507.86 42.1087ZM3531.1 40.2144C3535.04 39.8585 3538.9 39.4897 3542.68 39.1083L3542.09 33.2885C3538.33 33.6678 3534.49 34.0347 3530.58 34.3889L3531.1 40.2144ZM3554.34 37.8637C3558.3 37.416 3562.17 36.9534 3565.93 36.4759L3565.19 30.6732C3561.46 31.147 3557.62 31.6065 3553.68 32.0513L3554.34 37.8637ZM3577.46 34.9168C3581.44 34.3441 3585.28 33.7529 3588.96 33.1433L3588.01 27.3724C3584.37 27.9747 3580.57 28.5598 3576.63 29.1271L3577.46 34.9168ZM3600.45 31.0874C3604.53 30.2969 3608.37 29.4789 3611.97 28.6337L3610.63 22.9398C3607.12 23.765 3603.35 24.5671 3599.34 25.345L3600.45 31.0874Z" fill="#F9DD00"/>
<path d="M1822 79.9989L1788.23 80.526L1805.57 109.506L1822 79.9989ZM3.09613 144.71C4.55298 144.121 6.31711 143.35 8.35882 142.423L5.93995 137.097C3.93044 138.01 2.25083 138.743 0.903867 139.287L3.09613 144.71ZM18.8098 137.525C21.96 136.024 25.453 134.349 29.2579 132.528L26.7327 127.252C22.9216 129.076 19.4378 130.747 16.2937 132.245L18.8098 137.525ZM39.542 127.621C42.8281 126.06 46.2869 124.424 49.9094 122.725L47.4248 117.429C43.7922 119.134 40.3247 120.773 37.0318 122.338L39.542 127.621ZM60.3122 117.881C63.6753 116.327 67.1527 114.733 70.7384 113.106L68.321 107.78C64.7226 109.413 61.2333 111.012 57.8592 112.571L60.3122 117.881ZM81.1898 108.407C84.6021 106.888 88.0978 105.347 91.6724 103.788L89.3342 98.4263C85.7453 99.9914 82.236 101.539 78.8108 103.064L81.1898 108.407ZM102.193 99.2497C105.65 97.7746 109.173 96.2885 112.756 94.7951L110.506 89.3959C106.907 90.8958 103.37 92.3883 99.8974 93.8695L102.193 99.2497ZM123.365 90.4271C126.867 89.0032 130.421 87.5762 134.023 86.1495L131.868 80.7112C128.25 82.1447 124.68 83.5782 121.162 85.0085L123.365 90.4271ZM144.663 81.9918C148.187 80.634 151.752 79.2792 155.356 77.9305L153.306 72.4522C149.683 73.8078 146.1 75.1692 142.56 76.5337L144.663 81.9918ZM166.105 73.9691C169.672 72.6749 173.274 71.3889 176.907 70.1138L174.97 64.5945C171.317 65.8766 167.696 67.1694 164.11 68.4704L166.105 73.9691ZM187.725 66.3829C191.315 65.1667 194.933 63.9633 198.576 62.7749L196.762 57.2139C193.097 58.4094 189.459 59.6198 185.848 60.8428L187.725 66.3829ZM209.483 59.2876C213.113 58.1506 216.766 57.0304 220.44 55.9293L218.76 50.3263C215.063 51.4344 211.387 52.5616 207.734 53.7057L209.483 59.2876ZM231.409 52.7173C235.065 51.6724 238.739 50.6482 242.428 49.6469L240.896 44.0017C237.181 45.0101 233.482 46.0413 229.802 47.0932L231.409 52.7173ZM253.495 46.726C257.182 45.7807 260.883 44.8601 264.595 43.9662L263.225 38.2794C259.485 39.1802 255.757 40.1078 252.043 41.06L253.495 46.726ZM275.729 41.3745C279.446 40.5397 283.172 39.7335 286.906 38.958L285.717 33.2309C281.951 34.013 278.194 34.8258 274.448 35.6674L275.729 41.3745ZM298.117 36.7276C301.861 36.016 305.61 35.3372 309.363 34.693L308.373 28.928C304.585 29.5782 300.802 30.2633 297.025 30.9811L298.117 36.7276ZM320.642 32.8651C324.409 32.2912 328.178 31.7543 331.947 31.2564L331.181 25.4575C327.373 25.9605 323.566 26.5029 319.761 27.0824L320.642 32.8651ZM343.284 29.8782C347.074 29.458 350.862 29.0794 354.647 28.7446L354.131 22.918C350.303 23.2568 346.471 23.6396 342.639 24.0645L343.284 29.8782ZM366.021 27.8709C369.823 27.624 373.619 27.4237 377.407 27.2719L377.173 21.4273C373.335 21.581 369.491 21.7839 365.642 22.0338L366.021 27.8709ZM388.814 26.9638C390.712 26.9378 392.608 26.9247 394.5 26.9247V21.0753C392.58 21.0753 390.658 21.0887 388.734 21.1151L388.814 26.9638ZM394.5 26.9247C396.461 26.9247 398.401 26.9378 400.32 26.9638L400.399 21.115C398.454 21.0887 396.487 21.0753 394.5 21.0753V26.9247ZM411.727 27.2765C415.604 27.4379 419.395 27.6533 423.105 27.9196L423.524 22.0853C419.755 21.8148 415.905 21.596 411.97 21.4322L411.727 27.2765ZM434.517 28.9211C438.391 29.3244 442.176 29.7842 445.881 30.2966L446.682 24.5024C442.912 23.981 439.062 23.5133 435.123 23.1032L434.517 28.9211ZM457.175 32.0583C460.994 32.7226 464.731 33.4428 468.394 34.2139L469.598 28.49C465.869 27.705 462.066 26.9717 458.178 26.2955L457.175 32.0583ZM479.527 36.7618C483.275 37.6881 486.951 38.6661 490.57 39.6898L492.162 34.0614C488.484 33.0207 484.744 32.0259 480.931 31.0834L479.527 36.7618ZM501.52 42.9734C505.186 44.1333 508.802 45.3363 512.382 46.5758L514.296 41.0484C510.671 39.7934 507.005 38.5736 503.284 37.3966L501.52 42.9734ZM523.172 50.4501C526.767 51.7838 530.339 53.1482 533.903 54.5361L536.026 49.0855C532.439 47.6885 528.837 46.3126 525.207 44.9659L523.172 50.4501ZM544.594 58.7669C548.144 60.1895 551.697 61.6273 555.273 63.0743L557.467 57.6522C553.893 56.2056 550.33 54.7643 546.77 53.3374L544.594 58.7669ZM565.968 67.3905C569.51 68.8117 573.084 70.2341 576.704 71.6502L578.835 66.2029C575.236 64.7948 571.678 63.379 568.146 61.9619L565.968 67.3905ZM587.503 75.7939C591.07 77.1331 594.692 78.4604 598.378 79.7694L600.335 74.2573C596.686 72.9613 593.097 71.6462 589.559 70.3178L587.503 75.7939ZM609.337 83.5335C612.947 84.7302 616.625 85.9051 620.382 87.053L622.091 81.459C618.381 80.3253 614.746 79.1643 611.177 77.9813L609.337 83.5335ZM631.511 90.3042C635.169 91.3233 638.904 92.3143 642.722 93.2729L644.146 87.5997C640.378 86.6536 636.692 85.6754 633.081 84.6694L631.511 90.3042ZM654.012 95.953C657.72 96.7831 661.508 97.5815 665.381 98.345L666.512 92.6061C662.689 91.8523 658.95 91.0642 655.289 90.2449L654.012 95.953ZM676.835 100.454C680.562 101.093 684.366 101.699 688.253 102.27L689.103 96.4823C685.262 95.9181 681.504 95.3194 677.823 94.6887L676.835 100.454ZM699.703 103.817C703.469 104.282 707.31 104.715 711.231 105.114L711.822 99.2943C707.943 98.9003 704.144 98.472 700.42 98.0117L699.703 103.817ZM722.861 106.172C726.61 106.475 730.429 106.746 734.322 106.985L734.68 101.146C730.824 100.91 727.043 100.641 723.332 100.342L722.861 106.172ZM745.882 107.586C749.702 107.751 753.591 107.884 757.552 107.986L757.701 102.138C753.775 102.038 749.919 101.905 746.133 101.742L745.882 107.586ZM769.011 108.187C772.825 108.223 776.703 108.231 780.647 108.209L780.614 102.36C776.699 102.382 772.851 102.374 769.067 102.338L769.011 108.187ZM792.174 108.061C794.127 108.023 796.095 107.977 798.078 107.924L797.922 102.076C795.951 102.129 793.997 102.175 792.058 102.213L792.174 108.061ZM798.078 107.924C800.098 107.87 802.106 107.81 804.103 107.746L803.914 101.899C801.928 101.964 799.93 102.023 797.922 102.076L798.078 107.924ZM815.951 107.298C819.971 107.124 823.945 106.929 827.875 106.714L827.556 100.873C823.648 101.087 819.696 101.281 815.698 101.454L815.951 107.298ZM839.672 106.003C843.692 105.738 847.665 105.452 851.592 105.147L851.139 99.3154C847.235 99.6185 843.284 99.9025 839.287 100.166L839.672 106.003ZM863.438 104.159C867.413 103.804 871.341 103.43 875.223 103.038L874.635 97.2178C870.776 97.6076 866.87 97.9796 862.917 98.3326L863.438 104.159ZM887.106 101.767C891.086 101.318 895.017 100.851 898.902 100.368L898.18 94.5634C894.317 95.0442 890.408 95.5086 886.45 95.9549L887.106 101.767ZM910.643 98.8393C914.633 98.2969 918.573 97.7381 922.467 97.1648L921.615 91.3778C917.742 91.9481 913.823 92.5039 909.855 93.0432L910.643 98.8393ZM934.224 95.3689C938.172 94.7445 942.072 94.1064 945.927 93.4567L944.955 87.6887C941.119 88.3352 937.238 88.9702 933.31 89.5914L934.224 95.3689ZM957.629 91.4269C961.58 90.7224 965.485 90.0076 969.345 89.2849L968.269 83.5354C964.424 84.2552 960.536 84.967 956.602 85.6683L957.629 91.4269ZM981.018 87.0525C984.94 86.2872 988.819 85.516 992.656 84.7418L991.499 79.008C987.673 79.78 983.807 80.5487 979.898 81.3114L981.018 87.0525ZM1004.27 82.367C1008.18 81.5578 1012.05 80.7482 1015.88 79.9413L1014.68 74.2174C1010.85 75.0233 1006.98 75.8315 1003.08 76.6391L1004.27 82.367ZM1027.5 77.4839C1031.4 76.6562 1035.27 75.8352 1039.11 75.0236L1037.9 69.3009C1034.06 70.113 1030.19 70.9346 1026.29 71.7619L1027.5 77.4839ZM1050.7 72.585C1054.59 71.7732 1058.46 70.9754 1062.3 70.1953L1061.13 64.463C1057.28 65.2456 1053.41 66.0455 1049.51 66.859L1050.7 72.585ZM1073.9 67.8836C1077.79 67.1256 1081.66 66.3901 1085.52 65.6811L1084.46 59.9282C1080.58 60.6415 1076.69 61.3809 1072.78 62.1423L1073.9 67.8836ZM1097.15 63.6201C1101.04 62.9584 1104.93 62.3281 1108.81 61.7334L1107.92 55.9516C1104.01 56.5515 1100.09 57.1869 1096.17 57.8535L1097.15 63.6201ZM1120.49 60.0536C1124.39 59.5316 1128.29 59.0497 1132.19 58.612L1131.54 52.799C1127.59 53.2416 1123.65 53.7288 1119.71 54.256L1120.49 60.0536ZM1143.92 57.438C1147.82 57.0953 1151.74 56.8003 1155.67 56.5572L1155.31 50.719C1151.32 50.9654 1147.36 51.2642 1143.41 51.6112L1143.92 57.438ZM1167.43 55.9906C1171.33 55.8569 1175.25 55.777 1179.19 55.7547L1179.16 49.9055C1175.15 49.9281 1171.18 50.0092 1167.23 50.1447L1167.43 55.9906ZM1190.96 55.8604C1194.84 55.9526 1198.76 56.1025 1202.71 56.3138L1203.02 50.4728C1199.01 50.2584 1195.04 50.1063 1191.1 50.0127L1190.96 55.8604ZM1214.46 57.1159C1218.33 57.4377 1222.23 57.8193 1226.18 58.2639L1226.84 52.4513C1222.83 52.0003 1218.87 51.6132 1214.94 51.2867L1214.46 57.1159ZM1237.89 59.752C1241.72 60.2935 1245.59 60.8945 1249.5 61.5578L1250.48 55.7907C1246.51 55.1186 1242.59 54.5093 1238.71 53.9603L1237.89 59.752ZM1261.06 63.6743C1263 64.0546 1264.94 64.45 1266.9 64.8608L1268.1 59.1362C1266.12 58.7202 1264.15 58.3199 1262.19 57.9348L1261.06 63.6743ZM1266.9 64.8608C1268.76 65.2503 1270.63 65.6393 1272.53 66.0277L1273.7 60.2971C1271.81 59.9107 1269.95 59.5237 1268.1 59.1362L1266.9 64.8608ZM1284.08 68.3333C1287.83 69.065 1291.65 69.7935 1295.54 70.5181L1296.61 64.7679C1292.74 64.046 1288.93 63.3205 1285.2 62.5921L1284.08 68.3333ZM1307.02 72.6143C1310.83 73.2944 1314.69 73.9704 1318.6 74.6417L1319.59 68.8766C1315.69 68.2075 1311.85 67.5339 1308.05 66.8562L1307.02 72.6143ZM1330.11 76.5786C1333.92 77.2063 1337.76 77.8292 1341.65 78.4469L1342.57 72.67C1338.69 72.0542 1334.86 71.4331 1331.07 70.8073L1330.11 76.5786ZM1353.27 80.2599C1357.07 80.8419 1360.91 81.4185 1364.78 81.9893L1365.63 76.2027C1361.77 75.6334 1357.95 75.0584 1354.16 74.478L1353.27 80.2599ZM1376.37 83.6703C1380.21 84.2157 1384.07 84.7551 1387.95 85.2881L1388.75 79.493C1384.87 78.9614 1381.02 78.4233 1377.2 77.8793L1376.37 83.6703ZM1399.53 86.8481C1403.39 87.3577 1407.26 87.8607 1411.16 88.3566L1411.9 82.5542C1408.01 82.0594 1404.15 81.5576 1400.3 81.0492L1399.53 86.8481ZM1422.74 89.8031C1426.6 90.2766 1430.48 90.7429 1434.37 91.2016L1435.06 85.3924C1431.17 84.9348 1427.3 84.4696 1423.45 83.9972L1422.74 89.8031ZM1445.97 92.5408C1449.84 92.9783 1453.72 93.408 1457.6 93.8296L1458.23 88.0144C1454.36 87.5938 1450.49 87.165 1446.63 86.7285L1445.97 92.5408ZM1469.23 95.0629C1473.1 95.4647 1476.98 95.8581 1480.87 96.2427L1481.44 90.4219C1477.57 90.0382 1473.7 89.6457 1469.83 89.2448L1469.23 95.0629ZM1492.51 97.3675C1496.39 97.7333 1500.27 98.0899 1504.15 98.437L1504.68 92.6109C1500.8 92.2646 1496.93 91.9089 1493.06 91.544L1492.51 97.3675ZM1515.8 99.4493C1519.69 99.7778 1523.58 100.096 1527.47 100.405L1527.93 94.5738C1524.05 94.2662 1520.18 93.9484 1516.29 93.6207L1515.8 99.4493ZM1539.12 101.299C1543.02 101.589 1546.91 101.867 1550.8 102.135L1551.2 96.299C1547.32 96.0324 1543.44 95.7546 1539.55 95.466L1539.12 101.299ZM1562.46 102.905C1566.37 103.152 1570.26 103.387 1574.14 103.61L1574.48 97.7704C1570.61 97.548 1566.73 97.3135 1562.83 97.0672L1562.46 102.905ZM1585.83 104.246C1589.74 104.447 1593.63 104.635 1597.5 104.81L1597.76 98.9662C1593.9 98.7923 1590.02 98.605 1586.13 98.4048L1585.83 104.246ZM1609.22 105.299C1613.12 105.449 1617.01 105.584 1620.87 105.705L1621.05 99.8584C1617.2 99.738 1613.33 99.603 1609.44 99.4537L1609.22 105.299ZM1632.61 106.028C1636.54 106.121 1640.43 106.198 1644.3 106.258L1644.39 100.41C1640.54 100.35 1636.66 100.273 1632.75 100.18L1632.61 106.028ZM1655.99 106.39C1659.95 106.417 1663.86 106.425 1667.74 106.415L1667.72 100.566C1663.87 100.576 1659.97 100.568 1656.03 100.541L1655.99 106.39ZM1679.4 106.324C1683.36 106.272 1687.28 106.199 1691.15 106.103L1691 100.256C1687.16 100.351 1683.26 100.423 1679.32 100.475L1679.4 106.324ZM1702.88 105.74C1706.82 105.592 1710.71 105.42 1714.53 105.221L1714.23 99.3797C1710.44 99.5766 1706.58 99.7482 1702.66 99.8951L1702.88 105.74ZM1726.27 104.517C1730.26 104.243 1734.18 103.938 1738.01 103.602L1737.5 97.7748C1733.71 98.108 1729.83 98.4098 1725.87 98.6811L1726.27 104.517ZM1749.69 102.447C1753.67 102.007 1757.55 101.527 1761.31 101.008L1760.51 95.2132C1756.8 95.7253 1752.98 96.1983 1749.05 96.6331L1749.69 102.447ZM1772.91 99.2136C1776.94 98.5178 1780.82 97.7667 1784.53 96.9581L1783.29 91.2426C1779.67 92.0314 1775.87 92.7666 1771.91 93.4494L1772.91 99.2136ZM1796.04 94.1177C1800.06 92.9925 1803.83 91.7786 1807.34 90.471L1805.3 84.9902C1801.96 86.2327 1798.35 87.3972 1794.46 88.4848L1796.04 94.1177Z" fill="#F9DD00"/>
</svg>
