<svg width="737" height="361" viewBox="0 0 737 361" fill="none" xmlns="http://www.w3.org/2000/svg">
<path d="M0 12C0 5.37257 5.37258 0 12 0H725C731.627 0 737 5.37258 737 12V361H0V12Z" fill="white"/>
<path d="M69.615 95.5V106H68.55V97.6L64.425 104.665H63.9L59.775 97.645V106H58.71V95.5H59.625L64.185 103.285L68.7 95.5H69.615ZM75.5712 98.05C76.6012 98.05 77.3912 98.31 77.9412 98.83C78.4912 99.34 78.7662 100.1 78.7662 101.11V106H77.7462V104.77C77.5062 105.18 77.1512 105.5 76.6812 105.73C76.2212 105.96 75.6712 106.075 75.0312 106.075C74.1512 106.075 73.4512 105.865 72.9312 105.445C72.4112 105.025 72.1512 104.47 72.1512 103.78C72.1512 103.11 72.3912 102.57 72.8712 102.16C73.3612 101.75 74.1362 101.545 75.1962 101.545H77.7012V101.065C77.7012 100.385 77.5112 99.87 77.1312 99.52C76.7512 99.16 76.1962 98.98 75.4662 98.98C74.9662 98.98 74.4862 99.065 74.0262 99.235C73.5662 99.395 73.1712 99.62 72.8412 99.91L72.3612 99.115C72.7612 98.775 73.2412 98.515 73.8012 98.335C74.3612 98.145 74.9512 98.05 75.5712 98.05ZM75.1962 105.235C75.7962 105.235 76.3112 105.1 76.7412 104.83C77.1712 104.55 77.4912 104.15 77.7012 103.63V102.34H75.2262C73.8762 102.34 73.2012 102.81 73.2012 103.75C73.2012 104.21 73.3762 104.575 73.7262 104.845C74.0762 105.105 74.5662 105.235 75.1962 105.235ZM81.6588 98.11H82.7238V106H81.6588V98.11ZM82.1988 96.385C81.9788 96.385 81.7938 96.31 81.6438 96.16C81.4938 96.01 81.4188 95.83 81.4188 95.62C81.4188 95.42 81.4938 95.245 81.6438 95.095C81.7938 94.945 81.9788 94.87 82.1988 94.87C82.4188 94.87 82.6038 94.945 82.7538 95.095C82.9038 95.235 82.9788 95.405 82.9788 95.605C82.9788 95.825 82.9038 96.01 82.7538 96.16C82.6038 96.31 82.4188 96.385 82.1988 96.385ZM89.7071 98.05C90.6971 98.05 91.4821 98.34 92.0621 98.92C92.6521 99.49 92.9471 100.325 92.9471 101.425V106H91.8821V101.53C91.8821 100.71 91.6771 100.085 91.2671 99.655C90.8571 99.225 90.2721 99.01 89.5121 99.01C88.6621 99.01 87.9871 99.265 87.4871 99.775C86.9971 100.275 86.7521 100.97 86.7521 101.86V106H85.6871V98.11H86.7071V99.565C86.9971 99.085 87.3971 98.715 87.9071 98.455C88.4271 98.185 89.0271 98.05 89.7071 98.05ZM61.755 124.075C60.975 124.075 60.275 123.905 59.655 123.565C59.045 123.225 58.565 122.75 58.215 122.14C57.865 121.52 57.69 120.825 57.69 120.055C57.69 119.285 57.865 118.595 58.215 117.985C58.565 117.375 59.045 116.9 59.655 116.56C60.275 116.22 60.975 116.05 61.755 116.05C62.435 116.05 63.04 116.185 63.57 116.455C64.11 116.715 64.535 117.1 64.845 117.61L64.05 118.15C63.79 117.76 63.46 117.47 63.06 117.28C62.66 117.08 62.225 116.98 61.755 116.98C61.185 116.98 60.67 117.11 60.21 117.37C59.76 117.62 59.405 117.98 59.145 118.45C58.895 118.92 58.77 119.455 58.77 120.055C58.77 120.665 58.895 121.205 59.145 121.675C59.405 122.135 59.76 122.495 60.21 122.755C60.67 123.005 61.185 123.13 61.755 123.13C62.225 123.13 62.66 123.035 63.06 122.845C63.46 122.655 63.79 122.365 64.05 121.975L64.845 122.515C64.535 123.025 64.11 123.415 63.57 123.685C63.03 123.945 62.425 124.075 61.755 124.075ZM70.0303 124.075C69.2703 124.075 68.5853 123.905 67.9753 123.565C67.3653 123.215 66.8853 122.735 66.5353 122.125C66.1853 121.515 66.0103 120.825 66.0103 120.055C66.0103 119.285 66.1853 118.595 66.5353 117.985C66.8853 117.375 67.3653 116.9 67.9753 116.56C68.5853 116.22 69.2703 116.05 70.0303 116.05C70.7903 116.05 71.4753 116.22 72.0853 116.56C72.6953 116.9 73.1703 117.375 73.5103 117.985C73.8603 118.595 74.0353 119.285 74.0353 120.055C74.0353 120.825 73.8603 121.515 73.5103 122.125C73.1703 122.735 72.6953 123.215 72.0853 123.565C71.4753 123.905 70.7903 124.075 70.0303 124.075ZM70.0303 123.13C70.5903 123.13 71.0903 123.005 71.5303 122.755C71.9803 122.495 72.3303 122.13 72.5803 121.66C72.8303 121.19 72.9553 120.655 72.9553 120.055C72.9553 119.455 72.8303 118.92 72.5803 118.45C72.3303 117.98 71.9803 117.62 71.5303 117.37C71.0903 117.11 70.5903 116.98 70.0303 116.98C69.4703 116.98 68.9653 117.11 68.5153 117.37C68.0753 117.62 67.7253 117.98 67.4653 118.45C67.2153 118.92 67.0903 119.455 67.0903 120.055C67.0903 120.655 67.2153 121.19 67.4653 121.66C67.7253 122.13 68.0753 122.495 68.5153 122.755C68.9653 123.005 69.4703 123.13 70.0303 123.13ZM76.2096 112.87H77.2746V124H76.2096V112.87ZM83.4629 124.075C82.7029 124.075 82.0179 123.905 81.4079 123.565C80.7979 123.215 80.3179 122.735 79.9679 122.125C79.6179 121.515 79.4429 120.825 79.4429 120.055C79.4429 119.285 79.6179 118.595 79.9679 117.985C80.3179 117.375 80.7979 116.9 81.4079 116.56C82.0179 116.22 82.7029 116.05 83.4629 116.05C84.2229 116.05 84.9079 116.22 85.5179 116.56C86.1279 116.9 86.6029 117.375 86.9429 117.985C87.2929 118.595 87.4679 119.285 87.4679 120.055C87.4679 120.825 87.2929 121.515 86.9429 122.125C86.6029 122.735 86.1279 123.215 85.5179 123.565C84.9079 123.905 84.2229 124.075 83.4629 124.075ZM83.4629 123.13C84.0229 123.13 84.5229 123.005 84.9629 122.755C85.4129 122.495 85.7629 122.13 86.0129 121.66C86.2629 121.19 86.3879 120.655 86.3879 120.055C86.3879 119.455 86.2629 118.92 86.0129 118.45C85.7629 117.98 85.4129 117.62 84.9629 117.37C84.5229 117.11 84.0229 116.98 83.4629 116.98C82.9029 116.98 82.3979 117.11 81.9479 117.37C81.5079 117.62 81.1579 117.98 80.8979 118.45C80.6479 118.92 80.5229 119.455 80.5229 120.055C80.5229 120.655 80.6479 121.19 80.8979 121.66C81.1579 122.13 81.5079 122.495 81.9479 122.755C82.3979 123.005 82.9029 123.13 83.4629 123.13ZM96.7522 116.11V124H95.7322V122.56C95.4522 123.04 95.0672 123.415 94.5772 123.685C94.0872 123.945 93.5272 124.075 92.8972 124.075C91.8672 124.075 91.0522 123.79 90.4522 123.22C89.8622 122.64 89.5672 121.795 89.5672 120.685V116.11H90.6322V120.58C90.6322 121.41 90.8372 122.04 91.2472 122.47C91.6572 122.9 92.2422 123.115 93.0022 123.115C93.8322 123.115 94.4872 122.865 94.9672 122.365C95.4472 121.855 95.6872 121.15 95.6872 120.25V116.11H96.7522ZM100.755 117.655C101.005 117.125 101.375 116.725 101.865 116.455C102.365 116.185 102.98 116.05 103.71 116.05V117.085L103.455 117.07C102.625 117.07 101.975 117.325 101.505 117.835C101.035 118.345 100.8 119.06 100.8 119.98V124H99.735V116.11H100.755V117.655ZM107.812 124.075C107.172 124.075 106.557 123.985 105.967 123.805C105.387 123.615 104.932 123.38 104.602 123.1L105.082 122.26C105.412 122.52 105.827 122.735 106.327 122.905C106.827 123.065 107.347 123.145 107.887 123.145C108.607 123.145 109.137 123.035 109.477 122.815C109.827 122.585 110.002 122.265 110.002 121.855C110.002 121.565 109.907 121.34 109.717 121.18C109.527 121.01 109.287 120.885 108.997 120.805C108.707 120.715 108.322 120.63 107.842 120.55C107.202 120.43 106.687 120.31 106.297 120.19C105.907 120.06 105.572 119.845 105.292 119.545C105.022 119.245 104.887 118.83 104.887 118.3C104.887 117.64 105.162 117.1 105.712 116.68C106.262 116.26 107.027 116.05 108.007 116.05C108.517 116.05 109.027 116.12 109.537 116.26C110.047 116.39 110.467 116.565 110.797 116.785L110.332 117.64C109.682 117.19 108.907 116.965 108.007 116.965C107.327 116.965 106.812 117.085 106.462 117.325C106.122 117.565 105.952 117.88 105.952 118.27C105.952 118.57 106.047 118.81 106.237 118.99C106.437 119.17 106.682 119.305 106.972 119.395C107.262 119.475 107.662 119.56 108.172 119.65C108.802 119.77 109.307 119.89 109.687 120.01C110.067 120.13 110.392 120.335 110.662 120.625C110.932 120.915 111.067 121.315 111.067 121.825C111.067 122.515 110.777 123.065 110.197 123.475C109.627 123.875 108.832 124.075 107.812 124.075Z" fill="black"/>
<path d="M65.295 230.195H59.445L58.185 233H57.03L61.83 222.5H62.925L67.725 233H66.555L65.295 230.195ZM64.89 229.295L62.37 223.655L59.85 229.295H64.89ZM76.3637 221.87V233H75.3437V231.44C75.0237 231.97 74.5987 232.375 74.0687 232.655C73.5487 232.935 72.9587 233.075 72.2987 233.075C71.5587 233.075 70.8887 232.905 70.2887 232.565C69.6887 232.225 69.2187 231.75 68.8787 231.14C68.5387 230.53 68.3687 229.835 68.3687 229.055C68.3687 228.275 68.5387 227.58 68.8787 226.97C69.2187 226.36 69.6887 225.89 70.2887 225.56C70.8887 225.22 71.5587 225.05 72.2987 225.05C72.9387 225.05 73.5137 225.185 74.0237 225.455C74.5437 225.715 74.9687 226.1 75.2987 226.61V221.87H76.3637ZM72.3887 232.13C72.9387 232.13 73.4337 232.005 73.8737 231.755C74.3237 231.495 74.6737 231.13 74.9237 230.66C75.1837 230.19 75.3137 229.655 75.3137 229.055C75.3137 228.455 75.1837 227.92 74.9237 227.45C74.6737 226.98 74.3237 226.62 73.8737 226.37C73.4337 226.11 72.9387 225.98 72.3887 225.98C71.8287 225.98 71.3237 226.11 70.8737 226.37C70.4337 226.62 70.0837 226.98 69.8237 227.45C69.5737 227.92 69.4487 228.455 69.4487 229.055C69.4487 229.655 69.5737 230.19 69.8237 230.66C70.0837 231.13 70.4337 231.495 70.8737 231.755C71.3237 232.005 71.8287 232.13 72.3887 232.13ZM86.5297 221.87V233H85.5097V231.44C85.1897 231.97 84.7647 232.375 84.2347 232.655C83.7147 232.935 83.1247 233.075 82.4647 233.075C81.7247 233.075 81.0547 232.905 80.4547 232.565C79.8547 232.225 79.3847 231.75 79.0447 231.14C78.7047 230.53 78.5347 229.835 78.5347 229.055C78.5347 228.275 78.7047 227.58 79.0447 226.97C79.3847 226.36 79.8547 225.89 80.4547 225.56C81.0547 225.22 81.7247 225.05 82.4647 225.05C83.1047 225.05 83.6797 225.185 84.1897 225.455C84.7097 225.715 85.1347 226.1 85.4647 226.61V221.87H86.5297ZM82.5547 232.13C83.1047 232.13 83.5997 232.005 84.0397 231.755C84.4897 231.495 84.8397 231.13 85.0897 230.66C85.3497 230.19 85.4797 229.655 85.4797 229.055C85.4797 228.455 85.3497 227.92 85.0897 227.45C84.8397 226.98 84.4897 226.62 84.0397 226.37C83.5997 226.11 83.1047 225.98 82.5547 225.98C81.9947 225.98 81.4897 226.11 81.0397 226.37C80.5997 226.62 80.2497 226.98 79.9897 227.45C79.7397 227.92 79.6147 228.455 79.6147 229.055C79.6147 229.655 79.7397 230.19 79.9897 230.66C80.2497 231.13 80.5997 231.495 81.0397 231.755C81.4897 232.005 81.9947 232.13 82.5547 232.13ZM89.4957 225.11H90.5607V233H89.4957V225.11ZM90.0357 223.385C89.8157 223.385 89.6307 223.31 89.4807 223.16C89.3307 223.01 89.2557 222.83 89.2557 222.62C89.2557 222.42 89.3307 222.245 89.4807 222.095C89.6307 221.945 89.8157 221.87 90.0357 221.87C90.2557 221.87 90.4407 221.945 90.5907 222.095C90.7407 222.235 90.8157 222.405 90.8157 222.605C90.8157 222.825 90.7407 223.01 90.5907 223.16C90.4407 223.31 90.2557 223.385 90.0357 223.385ZM97.6791 232.52C97.4791 232.7 97.2291 232.84 96.9291 232.94C96.6391 233.03 96.3341 233.075 96.0141 233.075C95.2741 233.075 94.7041 232.875 94.3041 232.475C93.9041 232.075 93.7041 231.51 93.7041 230.78V226.01H92.2941V225.11H93.7041V223.385H94.7691V225.11H97.1691V226.01H94.7691V230.72C94.7691 231.19 94.8841 231.55 95.1141 231.8C95.3541 232.04 95.6941 232.16 96.1341 232.16C96.3541 232.16 96.5641 232.125 96.7641 232.055C96.9741 231.985 97.1541 231.885 97.3041 231.755L97.6791 232.52ZM99.6178 225.11H100.683V233H99.6178V225.11ZM100.158 223.385C99.9378 223.385 99.7528 223.31 99.6028 223.16C99.4528 223.01 99.3778 222.83 99.3778 222.62C99.3778 222.42 99.4528 222.245 99.6028 222.095C99.7528 221.945 99.9378 221.87 100.158 221.87C100.378 221.87 100.563 221.945 100.713 222.095C100.863 222.235 100.938 222.405 100.938 222.605C100.938 222.825 100.863 223.01 100.713 223.16C100.563 223.31 100.378 223.385 100.158 223.385ZM106.871 233.075C106.111 233.075 105.426 232.905 104.816 232.565C104.206 232.215 103.726 231.735 103.376 231.125C103.026 230.515 102.851 229.825 102.851 229.055C102.851 228.285 103.026 227.595 103.376 226.985C103.726 226.375 104.206 225.9 104.816 225.56C105.426 225.22 106.111 225.05 106.871 225.05C107.631 225.05 108.316 225.22 108.926 225.56C109.536 225.9 110.011 226.375 110.351 226.985C110.701 227.595 110.876 228.285 110.876 229.055C110.876 229.825 110.701 230.515 110.351 231.125C110.011 231.735 109.536 232.215 108.926 232.565C108.316 232.905 107.631 233.075 106.871 233.075ZM106.871 232.13C107.431 232.13 107.931 232.005 108.371 231.755C108.821 231.495 109.171 231.13 109.421 230.66C109.671 230.19 109.796 229.655 109.796 229.055C109.796 228.455 109.671 227.92 109.421 227.45C109.171 226.98 108.821 226.62 108.371 226.37C107.931 226.11 107.431 225.98 106.871 225.98C106.311 225.98 105.806 226.11 105.356 226.37C104.916 226.62 104.566 226.98 104.306 227.45C104.056 227.92 103.931 228.455 103.931 229.055C103.931 229.655 104.056 230.19 104.306 230.66C104.566 231.13 104.916 231.495 105.356 231.755C105.806 232.005 106.311 232.13 106.871 232.13ZM117.07 225.05C118.06 225.05 118.845 225.34 119.425 225.92C120.015 226.49 120.31 227.325 120.31 228.425V233H119.245V228.53C119.245 227.71 119.04 227.085 118.63 226.655C118.22 226.225 117.635 226.01 116.875 226.01C116.025 226.01 115.35 226.265 114.85 226.775C114.36 227.275 114.115 227.97 114.115 228.86V233H113.05V225.11H114.07V226.565C114.36 226.085 114.76 225.715 115.27 225.455C115.79 225.185 116.39 225.05 117.07 225.05ZM125.962 225.05C126.992 225.05 127.782 225.31 128.332 225.83C128.882 226.34 129.157 227.1 129.157 228.11V233H128.137V231.77C127.897 232.18 127.542 232.5 127.072 232.73C126.612 232.96 126.062 233.075 125.422 233.075C124.542 233.075 123.842 232.865 123.322 232.445C122.802 232.025 122.542 231.47 122.542 230.78C122.542 230.11 122.782 229.57 123.262 229.16C123.752 228.75 124.527 228.545 125.587 228.545H128.092V228.065C128.092 227.385 127.902 226.87 127.522 226.52C127.142 226.16 126.587 225.98 125.857 225.98C125.357 225.98 124.877 226.065 124.417 226.235C123.957 226.395 123.562 226.62 123.232 226.91L122.752 226.115C123.152 225.775 123.632 225.515 124.192 225.335C124.752 225.145 125.342 225.05 125.962 225.05ZM125.587 232.235C126.187 232.235 126.702 232.1 127.132 231.83C127.562 231.55 127.882 231.15 128.092 230.63V229.34H125.617C124.267 229.34 123.592 229.81 123.592 230.75C123.592 231.21 123.767 231.575 124.117 231.845C124.467 232.105 124.957 232.235 125.587 232.235ZM132.049 221.87H133.114V233H132.049V221.87ZM61.755 251.075C60.975 251.075 60.275 250.905 59.655 250.565C59.045 250.225 58.565 249.75 58.215 249.14C57.865 248.52 57.69 247.825 57.69 247.055C57.69 246.285 57.865 245.595 58.215 244.985C58.565 244.375 59.045 243.9 59.655 243.56C60.275 243.22 60.975 243.05 61.755 243.05C62.435 243.05 63.04 243.185 63.57 243.455C64.11 243.715 64.535 244.1 64.845 244.61L64.05 245.15C63.79 244.76 63.46 244.47 63.06 244.28C62.66 244.08 62.225 243.98 61.755 243.98C61.185 243.98 60.67 244.11 60.21 244.37C59.76 244.62 59.405 244.98 59.145 245.45C58.895 245.92 58.77 246.455 58.77 247.055C58.77 247.665 58.895 248.205 59.145 248.675C59.405 249.135 59.76 249.495 60.21 249.755C60.67 250.005 61.185 250.13 61.755 250.13C62.225 250.13 62.66 250.035 63.06 249.845C63.46 249.655 63.79 249.365 64.05 248.975L64.845 249.515C64.535 250.025 64.11 250.415 63.57 250.685C63.03 250.945 62.425 251.075 61.755 251.075ZM70.0303 251.075C69.2703 251.075 68.5853 250.905 67.9753 250.565C67.3653 250.215 66.8853 249.735 66.5353 249.125C66.1853 248.515 66.0103 247.825 66.0103 247.055C66.0103 246.285 66.1853 245.595 66.5353 244.985C66.8853 244.375 67.3653 243.9 67.9753 243.56C68.5853 243.22 69.2703 243.05 70.0303 243.05C70.7903 243.05 71.4753 243.22 72.0853 243.56C72.6953 243.9 73.1703 244.375 73.5103 244.985C73.8603 245.595 74.0353 246.285 74.0353 247.055C74.0353 247.825 73.8603 248.515 73.5103 249.125C73.1703 249.735 72.6953 250.215 72.0853 250.565C71.4753 250.905 70.7903 251.075 70.0303 251.075ZM70.0303 250.13C70.5903 250.13 71.0903 250.005 71.5303 249.755C71.9803 249.495 72.3303 249.13 72.5803 248.66C72.8303 248.19 72.9553 247.655 72.9553 247.055C72.9553 246.455 72.8303 245.92 72.5803 245.45C72.3303 244.98 71.9803 244.62 71.5303 244.37C71.0903 244.11 70.5903 243.98 70.0303 243.98C69.4703 243.98 68.9653 244.11 68.5153 244.37C68.0753 244.62 67.7253 244.98 67.4653 245.45C67.2153 245.92 67.0903 246.455 67.0903 247.055C67.0903 247.655 67.2153 248.19 67.4653 248.66C67.7253 249.13 68.0753 249.495 68.5153 249.755C68.9653 250.005 69.4703 250.13 70.0303 250.13ZM76.2096 239.87H77.2746V251H76.2096V239.87ZM83.4629 251.075C82.7029 251.075 82.0179 250.905 81.4079 250.565C80.7979 250.215 80.3179 249.735 79.9679 249.125C79.6179 248.515 79.4429 247.825 79.4429 247.055C79.4429 246.285 79.6179 245.595 79.9679 244.985C80.3179 244.375 80.7979 243.9 81.4079 243.56C82.0179 243.22 82.7029 243.05 83.4629 243.05C84.2229 243.05 84.9079 243.22 85.5179 243.56C86.1279 243.9 86.6029 244.375 86.9429 244.985C87.2929 245.595 87.4679 246.285 87.4679 247.055C87.4679 247.825 87.2929 248.515 86.9429 249.125C86.6029 249.735 86.1279 250.215 85.5179 250.565C84.9079 250.905 84.2229 251.075 83.4629 251.075ZM83.4629 250.13C84.0229 250.13 84.5229 250.005 84.9629 249.755C85.4129 249.495 85.7629 249.13 86.0129 248.66C86.2629 248.19 86.3879 247.655 86.3879 247.055C86.3879 246.455 86.2629 245.92 86.0129 245.45C85.7629 244.98 85.4129 244.62 84.9629 244.37C84.5229 244.11 84.0229 243.98 83.4629 243.98C82.9029 243.98 82.3979 244.11 81.9479 244.37C81.5079 244.62 81.1579 244.98 80.8979 245.45C80.6479 245.92 80.5229 246.455 80.5229 247.055C80.5229 247.655 80.6479 248.19 80.8979 248.66C81.1579 249.13 81.5079 249.495 81.9479 249.755C82.3979 250.005 82.9029 250.13 83.4629 250.13ZM96.7522 243.11V251H95.7322V249.56C95.4522 250.04 95.0672 250.415 94.5772 250.685C94.0872 250.945 93.5272 251.075 92.8972 251.075C91.8672 251.075 91.0522 250.79 90.4522 250.22C89.8622 249.64 89.5672 248.795 89.5672 247.685V243.11H90.6322V247.58C90.6322 248.41 90.8372 249.04 91.2472 249.47C91.6572 249.9 92.2422 250.115 93.0022 250.115C93.8322 250.115 94.4872 249.865 94.9672 249.365C95.4472 248.855 95.6872 248.15 95.6872 247.25V243.11H96.7522ZM100.755 244.655C101.005 244.125 101.375 243.725 101.865 243.455C102.365 243.185 102.98 243.05 103.71 243.05V244.085L103.455 244.07C102.625 244.07 101.975 244.325 101.505 244.835C101.035 245.345 100.8 246.06 100.8 246.98V251H99.735V243.11H100.755V244.655ZM107.812 251.075C107.172 251.075 106.557 250.985 105.967 250.805C105.387 250.615 104.932 250.38 104.602 250.1L105.082 249.26C105.412 249.52 105.827 249.735 106.327 249.905C106.827 250.065 107.347 250.145 107.887 250.145C108.607 250.145 109.137 250.035 109.477 249.815C109.827 249.585 110.002 249.265 110.002 248.855C110.002 248.565 109.907 248.34 109.717 248.18C109.527 248.01 109.287 247.885 108.997 247.805C108.707 247.715 108.322 247.63 107.842 247.55C107.202 247.43 106.687 247.31 106.297 247.19C105.907 247.06 105.572 246.845 105.292 246.545C105.022 246.245 104.887 245.83 104.887 245.3C104.887 244.64 105.162 244.1 105.712 243.68C106.262 243.26 107.027 243.05 108.007 243.05C108.517 243.05 109.027 243.12 109.537 243.26C110.047 243.39 110.467 243.565 110.797 243.785L110.332 244.64C109.682 244.19 108.907 243.965 108.007 243.965C107.327 243.965 106.812 244.085 106.462 244.325C106.122 244.565 105.952 244.88 105.952 245.27C105.952 245.57 106.047 245.81 106.237 245.99C106.437 246.17 106.682 246.305 106.972 246.395C107.262 246.475 107.662 246.56 108.172 246.65C108.802 246.77 109.307 246.89 109.687 247.01C110.067 247.13 110.392 247.335 110.662 247.625C110.932 247.915 111.067 248.315 111.067 248.825C111.067 249.515 110.777 250.065 110.197 250.475C109.627 250.875 108.832 251.075 107.812 251.075Z" fill="black"/>
<circle cx="211.5" cy="107.5" r="43.5" fill="#92278F"/>
<circle cx="198.5" cy="234.5" r="28.5" fill="#E06C2A"/>
<circle cx="354.5" cy="234.5" r="28.5" fill="#FEDF91"/>
<circle cx="501.5" cy="234.5" r="28.5" fill="#72A581"/>
<circle cx="647.5" cy="234.5" r="28.5" fill="#E6EA97"/>
<circle cx="431.5" cy="107.5" r="43.5" fill="#ED1C24"/>
</svg>
