<svg width="276" height="395" viewBox="0 0 276 395" fill="none" xmlns="http://www.w3.org/2000/svg">
<mask id="mask0_877_5022" style="mask-type:alpha" maskUnits="userSpaceOnUse" x="0" y="0" width="276" height="395">
<rect width="276" height="395" fill="#013465"/>
</mask>
<g mask="url(#mask0_877_5022)">
<rect width="276" height="395" fill="#013465"/>
<g opacity="0.5">
<path d="M226.955 176.768C227.751 176.768 228.546 176.628 229.295 176.347L228.266 173.586C226.861 174.1 225.27 173.773 224.193 172.696C223.164 171.666 222.789 170.075 223.304 168.624C224.193 166.143 223.585 163.335 221.713 161.463C219.84 159.59 217.032 158.982 214.551 159.871L215.581 162.633C216.985 162.118 218.577 162.446 219.653 163.522C220.683 164.552 221.057 166.143 220.542 167.594C219.653 170.075 220.262 172.883 222.134 174.756C223.445 176.113 225.176 176.768 226.955 176.768Z" fill="#03498A"/>
<path d="M258.783 88.8662C259.579 88.8662 260.375 88.7258 261.124 88.4449L260.094 85.6833C258.69 86.1982 257.098 85.8706 256.022 84.794C254.992 83.7642 254.617 82.1728 255.132 80.7218C256.022 78.241 255.413 75.4326 253.588 73.5603C251.715 71.6881 248.907 71.0796 246.426 72.0157L247.456 74.7773C248.86 74.2624 250.452 74.5901 251.528 75.6666C252.558 76.6964 252.932 78.2878 252.417 79.7389C251.528 82.2196 252.137 85.028 254.009 86.9003C255.273 88.1641 257.005 88.8662 258.783 88.8662Z" fill="#03498A"/>
<path d="M266.272 132.162C267.162 129.681 266.553 126.873 264.681 125C262.809 123.128 260 122.519 257.519 123.409C256.115 123.924 254.524 123.596 253.447 122.519C252.418 121.49 252.043 119.898 252.558 118.447C253.447 115.967 252.839 113.158 250.967 111.286C249.094 109.414 246.286 108.805 243.805 109.694L244.835 112.456C246.239 111.941 247.831 112.269 248.907 113.345C249.937 114.375 250.311 115.966 249.796 117.418C248.907 119.898 249.516 122.707 251.388 124.579C253.26 126.451 256.069 127.06 258.549 126.17C259.953 125.656 261.545 125.983 262.621 127.06C263.651 128.089 264.026 129.681 263.511 131.132L266.272 132.162Z" fill="#03498A"/>
<path d="M277.23 109.32L291.094 123.193L289.008 125.278L275.144 111.404L277.23 109.32Z" fill="#03498A"/>
<path d="M240.577 0.523881L254.448 14.3896L252.363 16.4754L238.492 2.60959L240.577 0.523881Z" fill="#03498A"/>
<path d="M193.924 112.752L229.447 148.26L227.362 150.345L191.839 114.837L193.924 112.752Z" fill="#03498A"/>
<path d="M159.094 132.63L213.539 187.075L211.454 189.16L157.009 134.715L159.094 132.63Z" fill="#03498A"/>
<path d="M94.7915 162.907L108.659 176.774L106.574 178.86L92.7063 164.992L94.7915 162.907Z" fill="#03498A"/>
<path d="M109.073 179.316V169.159H106.124V176.321H98.9162V179.316H109.073Z" fill="#03498A"/>
<path d="M17.2554 191.04C18.0511 191.04 18.8468 190.899 19.5957 190.619L18.5659 187.857C17.1617 188.372 15.5703 188.044 14.4937 186.968C13.464 185.938 13.0895 184.347 13.6044 182.896C14.4937 180.415 13.8852 177.606 12.0129 175.734C10.1407 173.862 7.33229 173.253 4.85152 174.143L5.88125 176.904C7.28546 176.389 8.87687 176.717 9.95343 177.794C10.9832 178.823 11.3576 180.415 10.8428 181.866C9.95344 184.347 10.5619 187.155 12.4342 189.027C13.7448 190.338 15.4767 191.04 17.2554 191.04Z" fill="#03498A"/>
<path d="M177.573 120.039C178.463 117.558 177.854 114.75 175.982 112.877C174.109 111.005 171.301 110.396 168.82 111.333C167.416 111.848 165.825 111.52 164.748 110.443C163.718 109.414 163.344 107.822 163.859 106.371C164.748 103.89 164.14 101.082 162.267 99.2096C160.395 97.3374 157.587 96.7289 155.106 97.6182L156.136 100.38C157.54 99.8649 159.131 100.193 160.208 101.269C161.238 102.299 161.612 103.89 161.097 105.341C160.208 107.822 160.816 110.631 162.689 112.503C164.561 114.375 167.369 114.984 169.85 114.094C171.254 113.579 172.846 113.907 173.922 114.984C174.952 116.013 175.326 117.605 174.812 119.056L177.573 120.039Z" fill="#03498A"/>
<path d="M97.3046 105.398L111.176 119.262L109.092 121.347L95.2201 107.484L97.3046 105.398Z" fill="#03498A"/>
<path d="M41.2763 0.0268105L55.146 13.8926L53.0612 15.978L39.1915 2.11223L41.2763 0.0268105Z" fill="#03498A"/>
<path d="M172.378 61.1138L207.896 96.6221L205.811 98.7075L170.293 63.1992L172.378 61.1138Z" fill="#03498A"/>
<path d="M147.2 9.82954L201.645 64.2744L199.559 66.3595L145.115 11.9147L147.2 9.82954Z" fill="#03498A"/>
<path d="M108.171 36.2504L122.037 50.1201L119.951 52.2049L106.085 38.3353L108.171 36.2504Z" fill="#03498A"/>
<path d="M122.434 52.6835V42.5264H119.485V49.7346L112.277 49.6878V52.6835H122.434Z" fill="#03498A"/>
<path d="M69.4961 71.8271C73.5683 71.8271 76.8916 68.5038 76.8916 64.4316C76.8916 60.3594 73.5683 57.0361 69.4961 57.0361C65.4239 57.0361 62.1006 60.3594 62.1006 64.4316C62.1006 68.5038 65.4239 71.8271 69.4961 71.8271ZM69.4961 59.985C71.93 59.985 73.9427 61.9509 73.9427 64.4316C73.9427 66.8656 71.93 68.8783 69.4961 68.8783C67.0621 68.8783 65.0494 66.9124 65.0494 64.4316C65.0494 61.9977 67.0153 59.985 69.4961 59.985Z" fill="#03498A"/>
<path d="M191.708 25.8642C195.781 25.8642 199.104 22.5409 199.104 18.4687C199.104 14.3965 195.781 11.0732 191.708 11.0732C187.636 11.0732 184.313 14.3965 184.313 18.4687C184.313 22.5409 187.636 25.8642 191.708 25.8642ZM191.708 14.0221C194.142 14.0221 196.155 15.988 196.155 18.4687C196.155 20.9027 194.189 22.9154 191.708 22.9154C189.275 22.9154 187.262 20.9495 187.262 18.4687C187.262 15.988 189.275 14.0221 191.708 14.0221Z" fill="#03498A"/>
<path d="M114.518 148.004C118.59 148.004 121.914 144.681 121.914 140.608C121.914 136.536 118.59 133.213 114.518 133.213C110.446 133.213 107.123 136.536 107.123 140.608C107.123 144.681 110.446 148.004 114.518 148.004ZM114.518 136.162C116.952 136.162 118.965 138.128 118.965 140.608C118.965 143.042 116.999 145.055 114.518 145.055C112.084 145.055 110.071 143.089 110.071 140.608C110.071 138.174 112.084 136.162 114.518 136.162Z" fill="#03498A"/>
<path d="M29.1466 130.003L31.2314 132.089L17.3618 145.955L15.2769 143.869L29.1466 130.003Z" fill="#03498A"/>
<path d="M37.6523 152.454L31.0994 130.315L12.3298 111.545L-3.25693 127.132L15.5126 145.901L37.6523 152.454ZM28.4782 131.906L33.2993 148.101L17.1041 143.28L0.955693 127.132L12.3766 115.711L28.4782 131.906Z" fill="#03498A"/>
<path d="M35.4058 150.251L33.2994 143.043L28.2443 148.098L35.4058 150.251Z" fill="#03498A"/>
<path d="M10.1076 115.823L27.5547 133.263L25.4699 135.348L8.02273 117.909L10.1076 115.823Z" fill="#03498A"/>
<path d="M3.13551 122.907L20.5703 140.356L18.4843 142.441L1.04951 124.991L3.13551 122.907Z" fill="#03498A"/>
<path d="M22.2671 87.9768C23.3437 87.9768 24.3735 87.5555 25.1692 86.7598C26.7606 85.1684 26.7606 82.5472 25.1692 80.9558L21.565 77.3516C21.8927 77.1644 22.2203 76.9304 22.5012 76.6495C23.2969 75.8538 23.7181 74.8241 23.7181 73.7475C23.7181 73.1858 23.6245 72.6709 23.3905 72.1561C23.8586 71.9688 24.2798 71.688 24.6075 71.3135C26.0117 69.9093 26.1989 67.7562 25.1223 66.1648C25.4968 65.9775 25.8245 65.7435 26.1521 65.4159C27.7436 63.8244 27.7436 61.2032 26.1521 59.6118C26.0585 59.5182 22.9693 56.3353 18.3822 52.5908C15.7142 50.4376 8.59954 45.3825 8.31869 45.1953L7.28891 44.4932L-4.78725 56.5694L-5.6298 57.0374L0.5019 79.8792C0.782742 80.9558 1.53166 81.8451 2.56142 82.4068C3.54436 82.9217 4.71454 83.0153 5.8379 82.7344C8.13144 82.1259 9.53566 79.8792 9.06759 77.7261L8.92715 76.4155L19.3651 86.8534C20.1608 87.6024 21.1906 87.9768 22.2671 87.9768ZM16.6971 76.6495L23.1097 83.0621C23.5777 83.5302 23.5777 84.2323 23.1097 84.7003C22.6416 85.1684 21.9395 85.1684 21.4714 84.7003L5.22939 68.4583L6.21238 78.3346C6.3528 78.9431 5.88472 79.6452 5.089 79.8324C4.66774 79.926 4.29329 79.926 3.91883 79.7388C3.7316 79.6452 3.45073 79.4579 3.35711 79.0835L-2.25972 58.2076L7.61659 48.3313C9.7229 49.8292 14.4972 53.2929 16.5099 54.8843C20.9566 58.4884 23.999 61.6245 24.0458 61.6713C24.5139 62.1394 24.5139 62.8883 24.0458 63.3564C23.8118 63.5904 23.5309 63.684 23.2033 63.684C22.8756 63.684 22.5948 63.5436 22.3608 63.3564L22.1735 63.1691L20.0672 65.2754L22.4076 67.6158C22.8756 68.0839 22.8756 68.786 22.4076 69.254C21.9395 69.7221 21.2374 69.7221 20.7693 69.254L18.663 71.3603L20.2545 72.9518C20.4885 73.1858 20.5821 73.4667 20.5821 73.7943C20.5821 74.122 20.4417 74.4028 20.2545 74.6368C19.7864 75.1049 19.0843 75.1049 18.6162 74.6368L16.6971 76.6495Z" fill="#03498A"/>
<path d="M14.3851 70.1448L22.0327 77.7881L19.9482 79.8738L12.3006 72.2305L14.3851 70.1448Z" fill="#03498A"/>
<path d="M18.1069 66.4187L22.4751 70.7881L20.3897 72.8729L16.0215 68.5035L18.1069 66.4187Z" fill="#03498A"/>
<path d="M20.5075 61.3743L24.3115 65.1826L22.2252 67.2666L18.4212 63.4582L20.5075 61.3743Z" fill="#03498A"/>
<path d="M92.6161 174.899V181.456C92.6161 188.849 86.6 194.864 79.2048 194.864C71.8101 194.864 65.7939 188.849 65.7939 181.456V161.491" stroke="#3D7BB5" stroke-width="4" stroke-miterlimit="10" stroke-linecap="round"/>
<path d="M88.3966 191.229V209.773L79.2051 223.097L70.0137 209.773V191.229" stroke="#3D7BB5" stroke-width="4" stroke-miterlimit="10" stroke-linecap="round"/>
<path d="M48.1636 335.164V397.942" stroke="#3D7BB5" stroke-width="4" stroke-miterlimit="10" stroke-linecap="round"/>
<path d="M80.0815 340.3V397.94" stroke="#3D7BB5" stroke-width="4" stroke-miterlimit="10" stroke-linecap="round"/>
<path d="M107.823 334.955V394.183" stroke="#3D7BB5" stroke-width="4" stroke-miterlimit="10" stroke-linecap="round"/>
<path d="M65.7939 161.491H79.2048L92.6161 174.899L95.6244 177.906" stroke="#3D7BB5" stroke-width="4" stroke-miterlimit="10" stroke-linecap="round"/>
<path d="M92.6157 178.742C93.6603 178.575 94.6628 178.283 95.6236 177.865C101.013 175.652 104.815 170.347 104.815 164.165C104.815 156.021 98.1725 149.379 90.0252 149.379C87.7274 149.379 85.513 149.922 83.5497 150.841C80.5414 147.416 76.1545 145.286 71.2662 145.286C62.2422 145.286 54.8887 152.596 54.8887 161.659C54.8887 168.76 59.443 174.816 65.7515 177.072" stroke="#3D7BB5" stroke-width="4" stroke-miterlimit="10" stroke-linecap="round"/>
<path d="M73.1053 145.41C73.1053 145.368 73.1053 145.327 73.1053 145.327C73.1053 140.147 68.8855 135.929 63.7048 135.929C58.5241 135.929 54.3047 140.147 54.3047 145.327C54.3047 148.25 55.6416 150.84 57.7303 152.594" stroke="#3D7BB5" stroke-width="4" stroke-miterlimit="10" stroke-linecap="round"/>
<path d="M70.0142 199.417H57.313" stroke="#3D7BB5" stroke-width="4" stroke-miterlimit="10" stroke-linecap="round"/>
<path d="M114.551 262.069V291.139H42.356V254.676" stroke="#3D7BB5" stroke-width="4" stroke-miterlimit="10" stroke-linecap="round"/>
<path d="M88.3965 199.417H102.894C107.782 199.417 111.918 202.383 113.673 206.643" stroke="#3D7BB5" stroke-width="4" stroke-miterlimit="10" stroke-linecap="round"/>
<path d="M32.4537 259.103L50.795 222.431L30.323 212.197L7.21897 258.435C4.37797 264.074 6.67584 270.965 12.3161 273.764C16.2433 275.727 20.7973 275.226 24.1397 272.803L60.5295 236.59" stroke="#3D7BB5" stroke-width="4" stroke-miterlimit="10" stroke-linecap="round"/>
<path d="M129.126 246.68L108.91 223.768L92.6167 239.848L118.878 266.52C123.419 271.133 130.631 271.78 135.922 268.051C141.563 264.075 143.199 256.428 139.676 250.492L113.903 207.056" stroke="#3D7BB5" stroke-width="4" stroke-miterlimit="10" stroke-linecap="round"/>
<path d="M33.0802 197.286C31.5344 199.542 30.6152 202.257 30.6152 205.222C30.6152 208.48 31.7433 211.488 33.5816 213.868" stroke="#3D7BB5" stroke-width="4" stroke-miterlimit="10" stroke-linecap="round"/>
<path d="M57.1455 199.082C57.1871 199.207 57.2708 199.333 57.3125 199.458C58.1063 201.212 58.5661 203.176 58.5661 205.222C58.5661 212.949 52.2988 219.215 44.5698 219.215C44.4444 219.215 44.3609 219.215 44.2773 219.215" stroke="#3D7BB5" stroke-width="4" stroke-miterlimit="10" stroke-linecap="round"/>
<path d="M43.3687 193.937C44.8698 190.314 43.1489 186.16 39.5248 184.66C35.9007 183.159 31.7458 184.879 30.2447 188.502C28.7435 192.126 30.4644 196.279 34.0885 197.78C37.7127 199.281 41.8675 197.56 43.3687 193.937Z" stroke="#3D7BB5" stroke-width="4" stroke-miterlimit="10" stroke-linecap="round"/>
<path d="M61.494 193.925C62.9952 190.302 61.2746 186.148 57.6502 184.647C54.0263 183.146 49.8713 184.867 48.3702 188.49C46.869 192.113 48.5899 196.267 52.2139 197.768C55.8382 199.268 59.9932 197.548 61.494 193.925Z" stroke="#3D7BB5" stroke-width="4" stroke-miterlimit="10" stroke-linecap="round"/>
<path d="M50.2099 148.459L38.3447 184.255" stroke="#3D7BB5" stroke-width="4" stroke-miterlimit="10" stroke-linecap="round"/>
<path d="M38.3447 148.459L50.2099 184.255" stroke="#3D7BB5" stroke-width="4" stroke-miterlimit="10" stroke-linecap="round"/>
<path d="M92.7411 239.974C88.5212 238.094 85.5967 233.875 85.5967 228.947C85.5967 222.264 91.0281 216.834 97.7127 216.834C102.643 216.834 106.863 219.758 108.743 223.935" stroke="#3D7BB5" stroke-width="4" stroke-miterlimit="10" stroke-linecap="round"/>
<path d="M94.0371 340.301H61.9506C51.1298 340.301 42.356 331.529 42.356 320.711V291.14H113.673V320.711C113.673 331.529 104.9 340.301 94.0371 340.301Z" stroke="#3D7BB5" stroke-width="4" stroke-miterlimit="10" stroke-linecap="round"/>
<path d="M94.8296 304.338H98.7987V310.478C98.7987 321.296 90.025 330.067 79.2038 330.067C68.3831 330.067 59.6094 321.296 59.6094 310.478V304.338H64.8738" stroke="#3D7BB5" stroke-width="4" stroke-miterlimit="10" stroke-linecap="round"/>
<path d="M89.1903 304.337H81.2104" stroke="#3D7BB5" stroke-width="4" stroke-miterlimit="10" stroke-linecap="round"/>
<path d="M67.6743 315.741C66.1283 315.741 64.833 314.488 64.833 312.901V302.919C64.833 301.373 66.0867 300.078 67.6743 300.078C69.262 300.078 70.5152 301.331 70.5152 302.919V312.901C70.5152 314.488 69.2199 315.741 67.6743 315.741Z" stroke="#3D7BB5" stroke-width="4" stroke-miterlimit="10" stroke-linecap="round"/>
<path d="M78.3697 315.741C76.8241 315.741 75.5288 314.488 75.5288 312.901V302.919C75.5288 301.373 76.782 300.078 78.3697 300.078C79.9157 300.078 81.2109 301.331 81.2109 302.919V312.901C81.2109 314.488 79.9573 315.741 78.3697 315.741Z" stroke="#3D7BB5" stroke-width="4" stroke-miterlimit="10" stroke-linecap="round"/>
<path d="M92.0317 315.867C90.4857 315.867 89.1904 314.614 89.1904 313.027V303.044C89.1904 301.498 90.4441 300.204 92.0317 300.204C93.6194 300.204 94.8726 301.457 94.8726 303.044V313.027C94.8309 314.614 93.5773 315.867 92.0317 315.867Z" stroke="#3D7BB5" stroke-width="4" stroke-miterlimit="10" stroke-linecap="round"/>
<path d="M43.9009 191.229C44.1097 191.229 44.3604 191.229 44.5693 191.229C45.6974 191.229 46.7836 191.354 47.8281 191.605" stroke="#3D7BB5" stroke-width="4" stroke-miterlimit="10" stroke-linecap="round"/>
<path d="M75.5705 304.338H70.5156" stroke="#3D7BB5" stroke-width="4" stroke-miterlimit="10" stroke-linecap="round"/>
<path d="M228.023 164.012L201.344 156.451L191.454 153.626" stroke="#3D7BB5" stroke-width="4" stroke-miterlimit="10" stroke-linecap="round"/>
<path d="M228.022 164.012V182.5C228.022 189.853 222.038 195.836 214.683 195.836C207.327 195.836 201.343 189.853 201.343 182.5V156.451" stroke="#3D7BB5" stroke-width="4" stroke-miterlimit="10" stroke-linecap="round"/>
<path d="M205.542 192.223V210.669L211.609 219.476" stroke="#3D7BB5" stroke-width="4" stroke-miterlimit="10" stroke-linecap="round"/>
<path d="M223.784 192.222V210.668L215.598 222.591" stroke="#3D7BB5" stroke-width="4" stroke-miterlimit="10" stroke-linecap="round"/>
<path d="M183.558 325.832V397.788" stroke="#3D7BB5" stroke-width="4" stroke-miterlimit="10" stroke-linecap="round"/>
<path d="M208.366 325.832V397.788" stroke="#3D7BB5" stroke-width="4" stroke-miterlimit="10" stroke-linecap="round"/>
<path d="M248.011 325.832V397.788" stroke="#3D7BB5" stroke-width="4" stroke-miterlimit="10" stroke-linecap="round"/>
<path d="M222.288 193.427C222.787 193.468 223.285 193.51 223.784 193.51C224.033 193.51 224.283 193.51 224.532 193.51C236.708 193.51 246.557 184.91 246.557 174.358C246.557 168.5 243.523 163.265 238.744 159.734C238.578 146.564 227.856 135.929 214.641 135.929C203.546 135.929 194.196 143.407 191.412 153.627" stroke="#3D7BB5" stroke-width="4" stroke-miterlimit="10" stroke-linecap="round"/>
<path d="M223.784 201.486H242.775C248.094 201.486 253.039 203.189 257.07 206.098C265.506 212.205 268.249 223.546 263.927 233.019L252.457 257.987C248.219 267.21 236.375 269.828 228.604 263.263L174.54 217.315" stroke="#3D7BB5" stroke-width="4" stroke-miterlimit="10" stroke-linecap="round"/>
<path d="M236.666 239.042L188.461 201.402" stroke="#3D7BB5" stroke-width="4" stroke-miterlimit="10" stroke-linecap="round"/>
<path d="M238.785 221.179L236.043 226.123L231.264 234.805" stroke="#3D7BB5" stroke-width="4" stroke-miterlimit="10" stroke-linecap="round"/>
<path d="M259.979 241.661L236.042 226.123" stroke="#3D7BB5" stroke-width="4" stroke-miterlimit="10" stroke-linecap="round"/>
<path d="M257.403 247.269V325.831H178.778V224.046" stroke="#3D7BB5" stroke-width="4" stroke-miterlimit="10" stroke-linecap="round"/>
<path d="M152.847 228.615C151.268 229.03 149.647 229.28 147.943 229.28C137.804 229.28 129.617 221.095 129.617 210.958C129.617 200.821 137.804 192.637 147.943 192.637C151.393 192.637 154.675 193.592 157.418 195.296" stroke="#3D7BB5" stroke-width="4" stroke-miterlimit="10" stroke-linecap="round"/>
<path d="M152.848 228.615V268.041C152.848 277.68 160.66 285.49 170.301 285.49H178.778" stroke="#3D7BB5" stroke-width="4" stroke-miterlimit="10" stroke-linecap="round"/>
<path d="M170.675 265.384V225.708" stroke="#3D7BB5" stroke-width="4" stroke-miterlimit="10" stroke-linecap="round"/>
<path d="M205.54 201.405H188.461C185.967 194.217 179.152 189.065 171.132 189.065C161.034 189.065 152.806 197.25 152.806 207.387C152.806 217.483 160.992 225.708 171.132 225.708C173.833 225.708 176.409 225.127 178.737 224.047C179.526 223.672 180.274 223.257 181.022 222.8" stroke="#3D7BB5" stroke-width="4" stroke-miterlimit="10" stroke-linecap="round"/>
<path d="M170.675 235.18H178.779" stroke="#3D7BB5" stroke-width="4" stroke-miterlimit="10" stroke-linecap="round"/>
<path d="M163.445 190.809V172.197C163.445 169.164 165.897 166.713 168.93 166.713H177.616C180.649 166.713 183.101 169.164 183.101 172.197V193.51" stroke="#3D7BB5" stroke-width="4" stroke-miterlimit="10" stroke-linecap="round"/>
<path d="M121.057 184.577L119.977 177.681L163.444 181.17" stroke="#3D7BB5" stroke-width="4" stroke-miterlimit="10" stroke-linecap="round"/>
<path d="M121.057 194.465L119.146 201.527L131.363 201.444" stroke="#3D7BB5" stroke-width="4" stroke-miterlimit="10" stroke-linecap="round"/>
<path d="M121.057 194.466C119.354 193.469 118.19 191.641 118.19 189.522C118.19 187.403 119.354 185.575 121.057 184.578" stroke="#3D7BB5" stroke-width="4" stroke-miterlimit="10" stroke-linecap="round"/>
</g>
</g>
</svg>
