<svg width="1594" height="84" viewBox="0 0 1594 84" fill="none" xmlns="http://www.w3.org/2000/svg">
<path d="M-44.9039 83.7115C-43.658 83.2079 -41.9525 82.5975 -39.7919 81.8879L-41.6171 76.3307C-43.8366 77.0596 -45.6794 77.7158 -47.0961 78.2885L-44.9039 83.7115ZM-28.7815 78.5481C-25.4812 77.6029 -21.7871 76.5807 -17.7268 75.4909L-19.2431 69.8415C-23.3291 70.9382 -27.0551 71.9692 -30.392 72.9249L-28.7815 78.5481ZM-6.53378 72.5552C-2.9904 71.6452 0.749203 70.7012 4.67267 69.7274L3.26364 64.0503C-0.674133 65.0277 -4.42911 65.9756 -7.98882 66.8898L-6.53378 72.5552ZM15.8774 66.9869C19.4937 66.1148 23.2347 65.2239 27.0929 64.3168L25.7541 58.6227C21.8854 59.5323 18.1335 60.4258 14.506 61.3006L15.8774 66.9869ZM38.335 61.7045C42.0077 60.8609 45.7697 60.0061 49.6154 59.142L48.3331 53.435C44.4785 54.3011 40.7074 55.1579 37.0255 56.0036L38.335 61.7045ZM60.9403 56.6244C64.6303 55.8126 68.3867 54.9946 72.2053 54.1716L70.973 48.4536C67.1463 49.2783 63.3817 50.0981 59.6836 50.9116L60.9403 56.6244ZM83.471 51.7681C87.1963 50.9813 90.9734 50.1914 94.7985 49.3997L93.613 43.6718C89.7801 44.4651 85.9952 45.2566 82.2623 46.045L83.471 51.7681ZM106.151 47.0738C109.872 46.3191 113.633 45.5639 117.431 44.8092L116.291 39.072C112.486 39.8282 108.717 40.585 104.988 41.3412L106.151 47.0738ZM128.779 42.5778C132.537 41.8465 136.327 41.1167 140.146 40.3894L139.052 34.6434C135.225 35.3721 131.428 36.1034 127.662 36.8362L128.779 42.5778ZM151.467 38.2569C155.237 37.5548 159.03 36.8559 162.846 36.1613L161.798 30.4065C157.975 31.1026 154.173 31.8029 150.396 32.5065L151.467 38.2569ZM174.213 34.116C177.985 33.4455 181.775 32.7799 185.581 32.1199L184.582 26.3566C180.768 27.018 176.969 27.685 173.19 28.357L174.213 34.116ZM196.988 30.1678C200.768 29.5293 204.561 28.8972 208.365 28.2723L207.416 22.5004C203.604 23.1267 199.802 23.7602 196.013 24.4001L196.988 30.1678ZM219.771 26.4254C223.568 25.8197 227.373 25.222 231.183 24.6329L230.289 18.8522C226.469 19.4428 222.656 20.042 218.85 20.6491L219.771 26.4254ZM242.599 22.8969C246.406 22.3278 250.216 21.7681 254.026 21.2186L253.192 15.4292C249.371 15.9801 245.551 16.5413 241.734 17.1118L242.599 22.8969ZM265.461 19.6015C269.278 19.0723 273.094 18.5541 276.905 18.0478L276.135 12.2494C272.312 12.7572 268.486 13.2768 264.658 13.8076L265.461 19.6015ZM288.348 16.5625C292.179 16.0771 296.003 15.6045 299.819 15.1455L299.12 9.33804C295.292 9.7985 291.455 10.2726 287.613 10.7596L288.348 16.5625ZM311.272 13.8063C315.112 13.3705 318.94 12.9495 322.755 12.5442L322.137 6.72762C318.308 7.13445 314.466 7.55696 310.612 7.99431L311.272 13.8063ZM334.243 11.3672C338.08 10.989 341.899 10.6278 345.699 10.2845L345.173 4.45893C341.357 4.80369 337.521 5.16636 333.669 5.54603L334.243 11.3672ZM357.231 9.29323C361.088 8.97903 364.92 8.68461 368.727 8.41092L368.307 2.57665C364.482 2.85172 360.63 3.14756 356.756 3.46321L357.231 9.29323ZM380.21 7.64389C384.093 7.40494 387.944 7.18925 391.761 6.99788L391.468 1.15589C387.629 1.34841 383.755 1.56534 379.851 1.8056L380.21 7.64389ZM403.265 6.49156C407.134 6.34578 410.963 6.22714 414.747 6.13677L414.607 0.289109C410.795 0.380143 406.94 0.49963 403.044 0.646373L403.265 6.49156ZM426.313 5.94865C428.221 5.93271 430.117 5.92467 432 5.92467V0.0753341C430.101 0.0753341 428.189 0.0834527 426.264 0.0995226L426.313 5.94865ZM432 5.92467C433.954 5.92467 435.887 5.93335 437.8 5.9505L437.853 0.101401C435.922 0.0840974 433.971 0.0753341 432 0.0753341V5.92467ZM449.177 6.15665C453.043 6.26293 456.826 6.40472 460.532 6.57989L460.809 0.737081C457.063 0.560071 453.241 0.416854 449.337 0.309523L449.177 6.15665ZM471.95 7.23899C475.827 7.50409 479.619 7.80634 483.335 8.143L483.863 2.31753C480.104 1.97699 476.269 1.67133 472.349 1.40329L471.95 7.23899ZM494.682 9.30121C498.528 9.73844 502.295 10.2125 505.991 10.7199L506.787 4.92488C503.046 4.41141 499.234 3.93173 495.342 3.48931L494.682 9.30121ZM517.262 12.4001C521.07 13.0127 524.81 13.6595 528.492 14.3363L529.55 8.58338C525.826 7.89901 522.044 7.24481 518.191 6.62506L517.262 12.4001ZM539.682 16.5146C543.444 17.2867 547.156 18.0875 550.834 18.9121L552.114 13.2046C548.405 12.3729 544.658 11.5646 540.858 10.7847L539.682 16.5146ZM561.957 21.4976C565.678 22.3905 569.375 23.3035 573.065 24.2314L574.491 18.5588C570.786 17.6267 567.067 16.7085 563.322 15.8098L561.957 21.4976ZM584.155 27.0636C587.841 28.0159 591.532 28.9775 595.245 29.9439L596.718 24.2832C593.007 23.3174 589.311 22.3542 585.619 21.4002L584.155 27.0636ZM606.349 32.8221C610.021 33.7672 613.727 34.7115 617.48 35.6499L618.899 29.9753C615.163 29.041 611.47 28.1001 607.807 27.1573L606.349 32.8221ZM628.646 38.3842C632.324 39.2635 636.056 40.133 639.853 40.9885L641.139 35.2821C637.369 34.4329 633.662 33.5692 630.007 32.6952L628.646 38.3842ZM651.101 43.434C654.792 44.2067 658.551 44.9633 662.387 45.7002L663.49 39.9559C659.687 39.2254 655.96 38.4752 652.299 37.7088L651.101 43.434ZM673.708 47.7739C677.416 48.4198 681.199 49.0457 685.064 49.6489L685.966 43.8695C682.136 43.2718 678.387 42.6515 674.712 42.0113L673.708 47.7739ZM696.455 51.3243C700.187 51.8399 703.995 52.3336 707.886 52.8031L708.587 46.9959C704.729 46.5304 700.954 46.041 697.255 45.53L696.455 51.3243ZM719.369 54.0912C723.112 54.4796 726.93 54.8457 730.828 55.1876L731.339 49.3606C727.472 49.0214 723.685 48.6583 719.973 48.2731L719.369 54.0912ZM742.251 56.1019C746.005 56.3741 749.832 56.6242 753.735 56.8508L754.074 51.0113C750.199 50.7863 746.4 50.5381 742.674 50.2679L742.251 56.1019ZM765.31 57.4425C769.048 57.6082 772.854 57.7527 776.731 57.8751L776.915 52.0286C773.063 51.9071 769.282 51.7635 765.569 51.5989L765.31 57.4425ZM788.216 58.1675C792.018 58.2415 795.886 58.2948 799.823 58.3263L799.87 52.4772C795.955 52.4458 792.11 52.3929 788.33 52.3193L788.216 58.1675ZM811.203 58.3565C814.993 58.3467 818.844 58.3173 822.759 58.2676L822.685 52.4187C818.789 52.4682 814.958 52.4975 811.188 52.5072L811.203 58.3565ZM834.215 58.0674C836.154 58.0244 838.109 57.9766 840.078 57.9238L839.922 52.0766C837.961 52.1291 836.016 52.1767 834.086 52.2195L834.215 58.0674ZM840.078 57.9238C842.084 57.8701 844.077 57.8119 846.056 57.7493L845.871 51.9029C843.901 51.9652 841.918 52.0231 839.922 52.0766L840.078 57.9238ZM857.775 57.3221C861.766 57.1572 865.701 56.9745 869.584 56.7749L869.283 50.9333C865.421 51.1319 861.505 51.3137 857.534 51.4778L857.775 57.3221ZM881.243 56.1161C885.238 55.8698 889.175 55.6057 893.057 55.325L892.635 49.4909C888.774 49.7701 884.857 50.0328 880.883 50.2779L881.243 56.1161ZM904.786 54.4135C908.727 54.0858 912.609 53.7411 916.436 53.3809L915.887 47.5573C912.082 47.9156 908.221 48.2583 904.301 48.5843L904.786 54.4135ZM928.22 52.2052C932.178 51.7879 936.076 51.3545 939.915 50.9064L939.236 45.0965C935.419 45.5421 931.543 45.9731 927.607 46.3881L928.22 52.2052ZM951.541 49.484C955.501 48.9773 959.398 48.4559 963.235 47.9218L962.429 42.1283C958.612 42.6595 954.736 43.1781 950.798 43.682L951.541 49.484ZM974.906 46.233C978.841 45.6423 982.713 45.0395 986.526 44.4269L985.598 38.6516C981.804 39.2612 977.952 39.8609 974.038 40.4486L974.906 46.233ZM998.107 42.5087C1002.02 41.8419 1005.87 41.1669 1009.66 40.4862L1008.63 34.7288C1004.85 35.4067 1001.02 36.0789 997.124 36.7425L998.107 42.5087ZM1021.25 38.3592C1025.16 37.6271 1029.01 36.8919 1032.81 36.1566L1031.7 30.4139C1027.91 31.1472 1024.07 31.8802 1020.18 32.6098L1021.25 38.3592ZM1044.35 33.8971C1048.23 33.1277 1052.07 32.3618 1055.86 31.6034L1054.72 25.8677C1050.93 26.6259 1047.09 27.3908 1043.21 28.1591L1044.35 33.8971ZM1067.37 29.3027C1071.24 28.5302 1075.07 27.7701 1078.87 27.0263L1077.74 21.286C1073.94 22.0317 1070.1 22.7932 1066.22 23.5664L1067.37 29.3027ZM1090.37 24.8095C1094.23 24.0796 1098.06 23.3718 1101.88 22.6908L1100.85 16.9325C1097.01 17.6176 1093.16 18.329 1089.28 19.0619L1090.37 24.8095ZM1113.4 20.7107C1117.26 20.0764 1121.1 19.4747 1124.94 18.9104L1124.09 13.1231C1120.22 13.6928 1116.34 14.2997 1112.45 14.9389L1113.4 20.7107ZM1136.51 17.3298C1140.36 16.8446 1144.22 16.4017 1148.1 16.0061L1147.5 10.187C1143.58 10.5876 1139.67 11.0357 1135.78 11.5264L1136.51 17.3298ZM1159.71 14.9713C1163.55 14.6794 1167.43 14.4379 1171.33 14.2512L1171.05 8.40858C1167.09 8.59789 1163.16 8.84287 1159.26 9.13872L1159.71 14.9713ZM1182.97 13.8642C1186.81 13.7928 1190.69 13.7769 1194.62 13.8206L1194.68 7.97167C1190.7 7.9273 1186.76 7.94346 1182.86 8.01589L1182.97 13.8642ZM1206.25 14.1234C1210.08 14.2795 1213.95 14.4934 1217.88 14.7686L1218.29 8.93352C1214.31 8.65439 1210.38 8.4374 1206.49 8.2789L1206.25 14.1234ZM1229.5 15.7473C1233.31 16.1219 1237.17 16.5541 1241.1 17.047L1241.83 11.2432C1237.85 10.7439 1233.93 10.3059 1230.07 9.92603L1229.5 15.7473ZM1252.68 18.6535C1256.45 19.2242 1260.28 19.8501 1264.16 20.5336L1265.18 14.7727C1261.24 14.0813 1257.37 13.4479 1253.56 12.8701L1252.68 18.6535ZM1275.6 22.6773C1277.52 23.0585 1279.45 23.4536 1281.4 23.8626L1282.6 18.138C1280.63 17.7247 1278.68 17.3256 1276.74 16.9402L1275.6 22.6773ZM1281.4 23.8626C1283.42 24.2864 1285.42 24.7041 1287.42 25.1156L1288.6 19.3872C1286.61 18.977 1284.61 18.5606 1282.6 18.138L1281.4 23.8626ZM1299.31 27.5322C1303.33 28.3358 1307.3 29.1131 1311.2 29.8644L1312.31 24.1202C1308.41 23.3717 1304.46 22.5971 1300.45 21.7961L1299.31 27.5322ZM1323.17 32.1167C1327.23 32.8633 1331.23 33.5806 1335.16 34.2689L1336.17 28.507C1332.25 27.8218 1328.27 27.1075 1324.23 26.3639L1323.17 32.1167ZM1347.17 36.3091C1351.24 36.9807 1355.24 37.6197 1359.19 38.2265L1360.08 32.4452C1356.16 31.8417 1352.17 31.2061 1348.12 30.5377L1347.17 36.3091ZM1371.23 40.0084C1375.32 40.5886 1379.34 41.1323 1383.29 41.6401L1384.04 35.8384C1380.11 35.3341 1376.11 34.7938 1372.05 34.217L1371.23 40.0084ZM1395.38 43.1049C1399.49 43.572 1403.52 43.9981 1407.48 44.3838L1408.05 38.562C1404.12 38.1794 1400.12 37.7567 1396.04 37.293L1395.38 43.1049ZM1419.61 45.4557C1423.74 45.7829 1427.8 46.0638 1431.78 46.2992L1432.12 40.4601C1428.18 40.2271 1424.17 39.9489 1420.07 39.6246L1419.61 45.4557ZM1443.98 46.8879C1448.13 47.0411 1452.2 47.1421 1456.19 47.1922L1456.26 41.3433C1452.32 41.2939 1448.3 41.194 1444.2 41.0426L1443.98 46.8879ZM1468.38 47.1845C1472.53 47.1256 1476.61 47.0086 1480.61 46.8349L1480.36 40.9911C1476.41 41.1623 1472.4 41.2776 1468.3 41.3357L1468.38 47.1845ZM1492.82 46.1161C1496.95 45.8074 1501 45.4357 1505 45.003L1504.37 39.1877C1500.44 39.6134 1496.45 39.9791 1492.38 40.2831L1492.82 46.1161ZM1517.14 43.4752C1521.22 42.8895 1525.24 42.2381 1529.22 41.5231L1528.19 35.7661C1524.28 36.4689 1520.32 37.1093 1516.31 37.6852L1517.14 43.4752ZM1541.22 39.1459C1545.23 38.2796 1549.2 37.3483 1553.14 36.3545L1551.71 30.6827C1547.83 31.6608 1543.93 32.5769 1539.99 33.4288L1541.22 39.1459ZM1564.94 33.1732C1568.85 32.0539 1572.75 30.8741 1576.64 29.6365L1574.87 24.0622C1571.03 25.2837 1567.19 26.447 1563.33 27.55L1564.94 33.1732ZM1588.23 25.7847C1590.15 25.1208 1592.06 24.4434 1593.99 23.753L1592.01 18.2476C1590.11 18.9309 1588.21 19.6009 1586.31 20.2573L1588.23 25.7847Z" fill="#003465"/>
</svg>
