<svg width="1920" height="646" viewBox="0 0 1920 646" fill="none" xmlns="http://www.w3.org/2000/svg">
<g opacity="0.5">
<path d="M441.419 46.026C439.436 46.026 437.452 45.676 435.586 44.9761L438.152 38.0935C441.652 39.3767 445.618 38.5601 448.301 35.8771C450.868 33.3107 451.801 29.3445 450.518 25.7282C448.301 19.5456 449.818 12.5463 454.367 7.88018C459.033 3.21403 466.033 1.69753 472.215 3.91395L469.649 10.7965C466.149 9.51334 462.183 10.3299 459.5 13.013C456.934 15.5793 456 19.5456 457.284 23.1618C459.5 29.3445 457.983 36.3437 453.317 41.0099C450.168 44.2762 445.851 46.026 441.419 46.026Z" fill="#03498A"/>
<path d="M1218.22 440.548C1216.23 440.548 1214.25 440.198 1212.38 439.499L1214.95 432.616C1218.45 433.899 1222.42 433.083 1225.1 430.4C1227.66 427.833 1228.6 423.867 1227.31 420.251C1225.1 414.068 1226.61 407.069 1231.28 402.403C1235.95 397.736 1242.95 396.22 1249.13 398.436L1246.56 405.319C1243.06 404.036 1239.1 404.852 1236.41 407.535C1233.85 410.102 1232.91 414.068 1234.2 417.684C1236.41 423.867 1234.9 430.866 1230.23 435.532C1226.96 438.915 1222.65 440.548 1218.22 440.548Z" fill="#03498A"/>
<path d="M1138.89 221.473C1136.9 221.473 1134.92 221.123 1133.05 220.423L1135.62 213.54C1139.12 214.823 1143.09 214.007 1145.77 211.324C1148.34 208.757 1149.27 204.791 1147.99 201.175C1145.77 194.992 1147.29 187.993 1151.84 183.327C1156.5 178.661 1163.5 177.144 1169.68 179.477L1167.12 186.36C1163.62 185.077 1159.65 185.893 1156.97 188.576C1154.4 191.143 1153.47 195.109 1154.75 198.725C1156.97 204.908 1155.45 211.907 1150.79 216.573C1147.64 219.723 1143.32 221.473 1138.89 221.473Z" fill="#03498A"/>
<path d="M449.466 170.962C447.482 170.962 445.499 170.612 443.633 169.912L446.199 163.029C449.699 164.312 453.665 163.496 456.348 160.813C458.914 158.246 459.848 154.28 458.565 150.664C456.348 144.481 457.865 137.482 462.531 132.816C467.197 128.15 474.196 126.633 480.379 128.849L477.812 135.732C474.313 134.449 470.347 135.265 467.664 137.949C465.097 140.515 464.164 144.481 465.447 148.097C467.664 154.28 466.147 161.279 461.481 165.945C458.215 169.212 453.898 170.962 449.466 170.962Z" fill="#03498A"/>
<path d="M983.833 368.115C981.85 368.115 979.866 367.765 978 367.065L980.566 360.182C984.066 361.466 988.032 360.649 990.715 357.966C993.282 355.4 994.215 351.433 992.932 347.817C990.715 341.634 992.232 334.635 996.898 329.969C1001.56 325.303 1008.56 323.786 1014.75 326.003L1012.18 332.885C1008.68 331.602 1004.71 332.419 1002.03 335.102C999.464 337.668 998.531 341.634 999.814 345.251C1002.03 351.433 1000.51 358.433 995.848 363.099C992.582 366.365 988.149 368.115 983.833 368.115Z" fill="#03498A"/>
<path d="M938.012 225.789C936.029 225.789 934.046 225.439 932.18 224.739L934.746 217.856C938.246 219.14 942.212 218.323 944.895 215.64C947.461 213.074 948.395 209.107 947.111 205.491C944.895 199.308 946.411 192.309 951.078 187.643C955.744 182.977 962.743 181.46 968.926 183.677C972.425 184.96 976.391 184.143 979.074 181.46C981.641 178.894 982.574 174.928 981.291 171.312C979.075 165.129 980.591 158.13 985.257 153.464C989.923 148.797 996.923 147.281 1003.11 149.497C1006.6 150.78 1010.57 149.964 1013.25 147.281C1015.82 144.714 1016.75 140.748 1015.47 137.132C1013.25 130.949 1014.77 123.95 1019.44 119.284C1024.1 114.618 1031.1 113.101 1037.28 115.434C1040.78 116.718 1044.75 115.901 1047.43 113.218C1050 110.652 1050.93 106.685 1049.65 103.069C1047.43 96.8864 1048.95 89.8872 1053.62 85.221C1058.28 80.5549 1065.28 79.0383 1071.46 81.2548L1068.9 88.1374C1065.4 86.8542 1061.43 87.6707 1058.75 90.3538C1056.18 93.0368 1055.25 96.8864 1056.53 100.503C1058.75 106.685 1057.23 113.685 1052.57 118.351C1047.9 123.017 1040.9 124.533 1034.72 122.317C1031.22 121.034 1027.25 121.85 1024.57 124.533C1022 127.1 1021.07 131.066 1022.35 134.682C1024.57 140.865 1023.05 147.864 1018.39 152.53C1013.72 157.196 1006.72 158.713 1000.54 156.496C997.039 155.213 993.073 156.03 990.39 158.713C987.824 161.279 986.89 165.246 988.174 168.862C990.39 175.044 988.873 182.044 984.207 186.71C979.541 191.376 972.542 192.892 966.359 190.676C962.86 189.393 958.893 190.209 956.21 192.892C953.644 195.459 952.711 199.425 953.994 203.041C956.21 209.224 954.694 216.223 950.028 220.889C946.761 224.039 942.445 225.789 938.012 225.789Z" fill="#03498A"/>
<path d="M605.833 259.223C603.85 259.223 601.866 258.873 600 258.173L602.566 251.291C606.066 252.574 610.032 251.757 612.715 249.074C615.282 246.508 616.215 242.542 614.932 238.926C612.715 232.743 614.232 225.744 618.898 221.077C623.564 216.411 630.563 214.895 636.746 217.111C640.246 218.394 644.212 217.578 646.895 214.895C649.461 212.328 650.394 208.362 649.111 204.746C646.895 198.563 648.411 191.564 653.077 186.898C657.744 182.232 664.743 180.715 670.926 182.932C674.425 184.215 678.391 183.398 681.074 180.715C683.641 178.149 684.574 174.183 683.291 170.566L690.173 168C692.39 174.183 690.873 181.182 686.207 185.848C681.541 190.514 674.542 192.031 668.359 189.814C664.86 188.531 660.893 189.348 658.21 192.031C655.644 194.597 654.711 198.563 655.994 202.18C658.21 208.362 656.694 215.361 652.028 220.028C647.361 224.694 640.362 226.21 634.18 223.994C630.68 222.711 626.714 223.527 624.031 226.21C621.464 228.777 620.531 232.743 621.814 236.359C624.031 242.542 622.514 249.541 617.848 254.207C614.582 257.473 610.266 259.223 605.833 259.223Z" fill="#03498A"/>
<path d="M892.516 122.784C890.533 122.784 888.55 122.434 886.684 121.734L889.25 114.851C892.75 116.135 896.716 115.318 899.399 112.635C901.965 109.952 902.898 106.102 901.615 102.486C899.399 96.3034 900.915 89.3042 905.581 84.638C910.248 79.9719 917.247 78.4554 923.43 80.6718C926.929 81.955 930.895 81.1384 933.578 78.4554C936.145 75.889 937.078 71.9228 935.795 68.3065C933.578 62.1238 935.095 55.1246 939.761 50.4585C944.427 45.7923 951.426 44.2758 957.609 46.4922C961.109 47.7754 965.075 46.9589 967.758 44.2758C970.324 41.7094 971.258 37.7432 969.974 34.1269L976.857 31.5605C979.073 37.7432 977.557 44.7424 972.891 49.4086C968.225 54.0747 961.225 55.5912 955.043 53.3748C951.543 52.0916 947.577 52.9082 944.894 55.5912C942.327 58.1576 941.394 62.1239 942.677 65.7401C944.894 71.9228 943.377 78.922 938.711 83.5882C934.045 88.2543 927.046 89.7708 920.863 87.4377C917.364 86.1545 913.397 86.9711 910.714 89.6542C908.148 92.2205 907.215 96.1868 908.498 99.803C910.714 105.986 909.198 112.985 904.532 117.651C901.382 121.034 896.949 122.784 892.516 122.784Z" fill="#03498A"/>
<path d="M364.308 588.233C362.091 582.05 363.608 575.051 368.274 570.385C372.94 565.719 379.939 564.202 386.122 566.419C389.621 567.702 393.588 566.885 396.271 564.202C398.837 561.636 399.77 557.67 398.487 554.053C396.271 547.871 397.787 540.872 402.453 536.205C407.119 531.539 414.119 530.023 420.301 532.239L417.735 539.122C414.235 537.839 410.269 538.655 407.586 541.338C405.02 543.905 404.086 547.871 405.37 551.487C407.586 557.67 406.07 564.669 401.403 569.335C396.737 574.001 389.738 575.518 383.555 573.185C380.056 571.901 376.09 572.718 373.406 575.401C370.84 578.084 369.907 581.934 371.19 585.55L364.308 588.233Z" fill="#03498A"/>
<path d="M1120.22 329.378C1118.01 323.195 1119.52 316.196 1124.19 311.529C1128.85 306.863 1135.85 305.347 1142.04 307.563C1145.54 308.846 1149.5 308.03 1152.18 305.347C1154.75 302.78 1155.68 298.814 1154.4 295.198C1152.18 289.015 1153.7 282.016 1158.37 277.35C1163.03 272.684 1170.03 271.167 1176.22 273.384L1173.65 280.266C1170.15 278.983 1166.18 279.8 1163.5 282.483C1160.93 285.049 1160 289.015 1161.28 292.632C1163.5 298.814 1161.98 305.813 1157.32 310.48C1152.65 315.146 1145.65 316.662 1139.47 314.446C1135.97 313.163 1132 313.979 1129.32 316.662C1126.75 319.229 1125.82 323.195 1127.1 326.811L1120.22 329.378Z" fill="#03498A"/>
<path d="M756.255 202.254L721.684 236.811L726.879 242.009L761.451 207.452L756.255 202.254Z" fill="#03498A"/>
<path d="M1092.92 272.451L1058.37 307.027L1063.57 312.222L1098.12 277.646L1092.92 272.451Z" fill="#03498A"/>
<path d="M468.136 332.46L391.797 408.885L396.996 414.078L473.335 337.653L468.136 332.46Z" fill="#03498A"/>
<path d="M127.782 262.704L93.2109 297.261L98.4068 302.459L132.978 267.902L127.782 262.704Z" fill="#03498A"/>
<path d="M710.306 15.0292L675.754 49.6006L680.952 54.7957L715.504 20.2244L710.306 15.0292Z" fill="#03498A"/>
<path d="M559.182 76.371L524.625 110.938L529.822 116.133L564.379 81.5669L559.182 76.371Z" fill="#03498A"/>
<path d="M267.316 -7.5382e-05L232.75 34.5566L237.946 39.754L272.512 5.19727L267.316 -7.5382e-05Z" fill="#03498A"/>
<path d="M1184.27 1.30752L1149.7 35.8643L1154.89 41.0623L1189.46 6.5056L1184.27 1.30752Z" fill="#03498A"/>
<path d="M125.959 370.232L37.4141 458.702L42.6085 463.901L131.153 375.431L125.959 370.232Z" fill="#03498A"/>
<path d="M1300.53 281L1212 369.495L1217.2 374.693L1305.73 286.198L1300.53 281Z" fill="#03498A"/>
<path d="M659.155 111.987L523.484 247.695L528.682 252.891L664.352 117.183L659.155 111.987Z" fill="#03498A"/>
<path d="M1387.34 330.546L1251.65 466.235L1256.85 471.432L1392.53 335.743L1387.34 330.546Z" fill="#03498A"/>
<path d="M3.36122 24.4659L-132.328 160.155L-127.132 165.352L8.55783 29.6625L3.36122 24.4659Z" fill="#03498A"/>
<path d="M1045.62 402L1011.05 436.552L1016.24 441.75L1050.81 407.198L1045.62 402Z" fill="#03498A"/>
<path d="M1010 442.858V417.544H1017.35V435.509H1035.31V442.858H1010Z" fill="#03498A"/>
<path d="M476.791 433.583L442.234 468.149L447.432 473.345L481.988 438.779L476.791 433.583Z" fill="#03498A"/>
<path d="M441.18 474.378V449.064H448.529V467.029H466.494V474.378H441.18Z" fill="#03498A"/>
<path d="M1547.59 406L1513.03 440.562L1518.23 445.758L1552.79 411.197L1547.59 406Z" fill="#03498A"/>
<path d="M1512 446.896V421.582H1519.35V439.43H1537.31V446.896H1512Z" fill="#03498A"/>
<path d="M100.662 90.3476L66.1055 124.914L71.3028 130.11L105.86 95.5434L100.662 90.3476Z" fill="#03498A"/>
<path d="M64.9766 131.299V105.985H72.4424V123.95L90.2904 123.833V131.299H64.9766Z" fill="#03498A"/>
<path d="M810.041 319.462C799.892 319.462 791.609 311.18 791.609 301.031C791.609 290.882 799.892 282.6 810.041 282.6C820.19 282.6 828.472 290.882 828.472 301.031C828.472 311.18 820.19 319.462 810.041 319.462ZM810.041 289.949C803.975 289.949 798.959 294.848 798.959 301.031C798.959 307.097 803.975 312.113 810.041 312.113C816.107 312.113 821.123 307.214 821.123 301.031C821.006 294.965 816.107 289.949 810.041 289.949Z" fill="#03498A"/>
<path d="M993.424 268.018C983.275 268.018 974.992 259.735 974.992 249.587C974.992 239.438 983.275 231.155 993.424 231.155C1003.57 231.155 1011.85 239.438 1011.85 249.587C1011.85 259.735 1003.57 268.018 993.424 268.018ZM993.424 238.504C987.358 238.504 982.341 243.521 982.341 249.587C982.341 255.653 987.241 260.669 993.424 260.669C999.49 260.669 1004.51 255.769 1004.51 249.587C1004.51 243.404 999.49 238.504 993.424 238.504Z" fill="#03498A"/>
<path d="M197.025 179.011C186.876 179.011 178.594 170.729 178.594 160.58C178.594 150.431 186.876 142.148 197.025 142.148C207.174 142.148 215.456 150.431 215.456 160.58C215.456 170.729 207.174 179.011 197.025 179.011ZM197.025 149.498C190.959 149.498 185.943 154.397 185.943 160.58C185.943 166.646 190.959 171.662 197.025 171.662C203.091 171.662 208.107 166.762 208.107 160.58C208.107 154.514 203.091 149.498 197.025 149.498Z" fill="#03498A"/>
<path d="M18.8922 360.641C8.74336 360.641 0.460938 352.358 0.460938 342.21C0.460938 332.061 8.74336 323.778 18.8922 323.778C29.0411 323.778 37.3236 332.061 37.3236 342.21C37.3236 352.358 29.0411 360.641 18.8922 360.641ZM18.8922 331.127C12.8262 331.127 7.81013 336.027 7.81013 342.21C7.81013 348.276 12.7096 353.292 18.8922 353.292C24.9582 353.292 29.9744 348.392 29.9744 342.21C29.9744 336.144 24.9582 331.127 18.8922 331.127Z" fill="#03498A"/>
<path d="M190.609 433.549L206.941 378.372L253.719 331.594L292.565 370.439L245.787 417.218L190.609 433.549ZM213.474 382.338L201.458 422.7L241.82 410.685L282.066 370.439L253.602 341.976L213.474 382.338Z" fill="#03498A"/>
<path d="M196.094 428.067L201.46 410.103L214.058 422.701L196.094 428.067Z" fill="#03498A"/>
<path d="M212.321 377.179L207.125 382.376L241.691 416.933L246.887 411.735L212.321 377.179Z" fill="#03498A"/>
<path d="M259.185 342.297L215.703 385.761L220.899 390.959L264.381 347.495L259.185 342.297Z" fill="#03498A"/>
<path d="M276.608 359.86L233.156 403.349L238.355 408.543L281.807 365.055L276.608 359.86Z" fill="#03498A"/>
<path d="M314.727 219.256C312.044 219.256 309.478 218.206 307.495 216.223C303.528 212.257 303.528 205.724 307.495 201.758L316.477 192.776C315.661 192.309 314.844 191.726 314.144 191.026C312.161 189.043 311.111 186.476 311.111 183.793C311.111 182.394 311.344 181.11 311.928 179.827C310.761 179.361 309.711 178.661 308.895 177.727C305.395 174.228 304.928 168.862 307.611 164.895C306.678 164.429 305.862 163.846 305.045 163.029C301.079 159.063 301.079 152.53 305.045 148.564C305.278 148.331 312.977 140.398 324.41 131.066C331.059 125.7 348.79 113.101 349.49 112.635L352.057 110.885L382.153 140.981L384.253 142.148L368.971 199.075C368.271 201.758 366.405 203.975 363.839 205.374C361.389 206.658 358.472 206.891 355.673 206.191C349.957 204.674 346.34 199.075 347.624 193.709L347.974 190.443L321.96 216.457C319.977 218.323 317.41 219.256 314.727 219.256ZM328.609 191.026L312.627 207.008C311.461 208.174 311.461 209.924 312.627 211.09C313.794 212.257 315.544 212.257 316.71 211.09L357.189 170.612L354.74 195.225C354.39 196.742 355.556 198.492 357.539 198.958C358.589 199.192 359.522 199.192 360.456 198.725C360.922 198.492 361.622 198.025 361.855 197.092L375.854 145.064L351.24 120.45C345.99 124.183 334.092 132.816 329.076 136.782C317.994 145.764 310.411 153.58 310.294 153.697C309.128 154.863 309.128 156.73 310.294 157.896C310.878 158.48 311.578 158.713 312.394 158.713C313.211 158.713 313.911 158.363 314.494 157.896L314.961 157.43L320.21 162.679L314.377 168.512C313.211 169.678 313.211 171.428 314.377 172.595C315.544 173.761 317.294 173.761 318.46 172.595L323.71 177.844L319.743 181.81C319.16 182.394 318.927 183.093 318.927 183.91C318.927 184.727 319.277 185.427 319.743 186.01C320.91 187.176 322.66 187.176 323.826 186.01L328.609 191.026Z" fill="#03498A"/>
<path d="M334.427 174.844L315.367 193.893L320.562 199.091L339.622 180.042L334.427 174.844Z" fill="#03498A"/>
<path d="M325.096 165.497L314.211 176.389L319.409 181.584L330.294 170.693L325.096 165.497Z" fill="#03498A"/>
<path d="M319.113 152.932L309.633 162.423L314.832 167.617L324.313 158.125L319.113 152.932Z" fill="#03498A"/>
<path d="M650.342 418.735C639.26 418.735 623.978 410.219 610.33 396.687C601.581 387.938 594.698 378.139 591.082 369.157C586.999 359.241 587.349 351.075 592.015 346.409C594.465 343.959 598.081 342.56 602.281 342.56C613.246 342.56 628.644 351.075 642.293 364.607C651.042 373.356 657.925 383.155 661.541 392.137C665.624 402.053 665.274 410.219 660.608 414.885C658.041 417.451 654.542 418.735 650.342 418.735ZM602.281 350.025C599.948 350.025 598.314 350.609 597.265 351.659C594.931 353.992 595.165 359.591 597.848 366.357C601.114 374.406 607.413 383.272 615.579 391.438C629.344 405.203 642.993 411.385 650.342 411.385C652.558 411.385 654.308 410.802 655.358 409.752C657.691 407.419 657.458 401.82 654.775 395.054C651.509 387.005 645.209 378.139 637.044 369.973C623.278 356.208 609.63 350.025 602.281 350.025Z" fill="#03498A"/>
<path d="M632.615 392.137C628.765 392.137 625.266 390.621 622.583 387.938L619.2 384.555C613.6 378.955 613.6 369.973 619.2 364.374L625.732 357.841C626.432 357.141 627.365 356.441 628.299 355.858L630.515 354.458L632.498 356.091C635.881 358.774 639.264 361.691 642.414 364.84C645.563 367.99 648.48 371.256 651.163 374.756L652.796 376.739L651.396 378.955C650.813 379.889 650.113 380.705 649.413 381.522L642.88 388.054C639.964 390.621 636.464 392.137 632.615 392.137ZM630.165 363.674L624.332 369.506C621.649 372.189 621.649 376.622 624.332 379.305L627.715 382.688C630.282 385.255 634.831 385.255 637.514 382.688L643.347 376.856C641.364 374.522 639.264 372.189 637.048 369.973C634.831 367.757 632.498 365.657 630.165 363.674Z" fill="#03498A"/>
<path d="M656.992 403.686C652.676 370.323 673.09 350.842 674.724 349.326L680.906 343.143L691.055 368.573C691.755 370.44 693.855 371.257 695.721 370.557C697.588 369.857 698.404 367.757 697.704 365.89L686.389 337.544L691.755 332.177C693.272 330.661 694.205 328.561 694.205 326.345C694.205 324.128 693.388 322.145 691.755 320.512L686.272 315.029C683.123 311.88 677.873 311.88 674.724 315.029L657.576 332.177C656.059 333.927 636.461 354.225 603.215 349.909L604.148 342.56C634.361 346.409 651.976 327.278 652.209 327.045L652.326 326.928L669.474 309.78C675.54 303.714 685.456 303.714 691.522 309.78L697.004 315.263C699.921 318.179 701.554 322.145 701.554 326.228C701.554 330.428 699.921 334.277 697.004 337.194L695.021 339.177L704.47 362.974C706.687 368.574 704.004 374.989 698.288 377.206C692.688 379.422 686.272 376.739 684.056 371.023L678.107 355.975C673.557 360.874 660.842 377.206 664.225 402.52L656.992 403.686Z" fill="#03498A"/>
<path d="M1855.03 46.026C1853.04 46.026 1851.06 45.676 1849.2 44.9761L1851.76 38.0935C1855.26 39.3767 1859.23 38.5601 1861.91 35.8771C1864.48 33.3107 1865.41 29.3445 1864.13 25.7282C1861.91 19.5456 1863.43 12.5463 1867.98 7.88018C1872.64 3.21403 1879.64 1.69753 1885.82 3.91395L1883.26 10.7965C1879.76 9.51334 1875.79 10.3299 1873.11 13.013C1870.54 15.5793 1869.61 19.5456 1870.89 23.1618C1873.11 29.3445 1871.59 36.3437 1866.93 41.0099C1863.78 44.2762 1859.46 46.026 1855.03 46.026Z" fill="#03498A"/>
<path d="M1863.07 170.962C1861.09 170.962 1859.11 170.612 1857.24 169.912L1859.81 163.029C1863.31 164.312 1867.27 163.496 1869.96 160.813C1872.52 158.246 1873.46 154.28 1872.17 150.664C1869.96 144.481 1871.47 137.482 1876.14 132.816C1880.81 128.15 1887.81 126.633 1893.99 128.849L1891.42 135.732C1887.92 134.449 1883.96 135.265 1881.27 137.949C1878.71 140.515 1877.77 144.481 1879.06 148.097C1881.27 154.28 1879.76 161.279 1875.09 165.945C1871.82 169.212 1867.51 170.962 1863.07 170.962Z" fill="#03498A"/>
<path d="M1740.83 476.115C1738.85 476.115 1736.87 475.765 1735 475.065L1737.57 468.182C1741.07 469.466 1745.03 468.649 1747.72 465.966C1750.28 463.4 1751.21 459.433 1749.93 455.817C1747.72 449.634 1749.23 442.635 1753.9 437.969C1758.56 433.303 1765.56 431.786 1771.75 434.003L1769.18 440.885C1765.68 439.602 1761.71 440.419 1759.03 443.102C1756.46 445.668 1755.53 449.634 1756.81 453.251C1759.03 459.433 1757.51 466.433 1752.85 471.099C1749.58 474.365 1745.27 476.115 1740.83 476.115Z" fill="#03498A"/>
<path d="M1341.28 299.164C1339.07 292.982 1340.58 285.982 1345.25 281.316C1349.92 276.65 1356.92 275.133 1363.1 277.467C1366.6 278.75 1370.56 277.933 1373.25 275.25C1375.81 272.684 1376.75 268.718 1375.46 265.101C1373.25 258.919 1374.76 251.919 1379.43 247.253C1384.1 242.587 1391.1 241.071 1397.28 243.287L1394.71 250.17C1391.21 248.886 1387.25 249.703 1384.56 252.386C1382 254.952 1381.06 258.919 1382.35 262.535C1384.56 268.718 1383.05 275.717 1378.38 280.383C1373.71 285.049 1366.71 286.566 1360.53 284.349C1357.03 283.066 1353.07 283.883 1350.38 286.566C1347.82 289.132 1346.88 293.098 1348.17 296.714L1341.28 299.164Z" fill="#03498A"/>
<path d="M1897.34 254L1821 330.425L1826.2 335.618L1902.54 259.193L1897.34 254Z" fill="#03498A"/>
<path d="M1541.33 262.679L1506.76 297.23L1511.95 302.429L1546.52 267.877L1541.33 262.679Z" fill="#03498A"/>
<path d="M1680.97 0.0643562L1646.4 34.6211L1651.6 39.8184L1686.16 5.26171L1680.97 0.0643562Z" fill="#03498A"/>
<path d="M1354.23 152.312L1265.71 240.807L1270.91 246.004L1359.43 157.509L1354.23 152.312Z" fill="#03498A"/>
<path d="M1416.98 24.4972L1281.29 160.187L1286.49 165.383L1422.18 29.6938L1416.98 24.4972Z" fill="#03498A"/>
<path d="M1917.56 401L1883 435.566L1888.2 440.762L1922.75 406.196L1917.56 401Z" fill="#03498A"/>
<path d="M1854.79 474.378V449.064H1862.14V467.029H1880.11V474.378H1854.79Z" fill="#03498A"/>
<path d="M1514.25 90.3476L1479.7 124.914L1484.89 130.11L1519.45 95.5434L1514.25 90.3476Z" fill="#03498A"/>
<path d="M1478.7 131.299V105.985H1486.05V123.95L1504.02 123.833V131.299H1478.7Z" fill="#03498A"/>
<path d="M1610.63 179.011C1600.49 179.011 1592.2 170.729 1592.2 160.58C1592.2 150.431 1600.49 142.148 1610.63 142.148C1620.78 142.148 1629.07 150.431 1629.07 160.58C1629.07 170.729 1620.78 179.011 1610.63 179.011ZM1610.63 149.498C1604.57 149.498 1599.55 154.397 1599.55 160.58C1599.55 166.646 1604.57 171.662 1610.63 171.662C1616.7 171.662 1621.72 166.762 1621.72 160.58C1621.72 154.514 1616.82 149.498 1610.63 149.498Z" fill="#03498A"/>
<path d="M1306.06 64.4573C1295.91 64.4573 1287.62 56.1749 1287.62 46.026C1287.62 35.8771 1295.91 27.5947 1306.06 27.5947C1316.21 27.5947 1324.49 35.8771 1324.49 46.026C1324.49 56.1749 1316.21 64.4573 1306.06 64.4573ZM1306.06 34.9439C1299.99 34.9439 1294.97 39.8434 1294.97 46.026C1294.97 52.092 1299.87 57.1081 1306.06 57.1081C1312.12 57.1081 1317.14 52.2087 1317.14 46.026C1317.14 39.8434 1312.12 34.9439 1306.06 34.9439Z" fill="#03498A"/>
<path d="M1498.43 368.863C1488.28 368.863 1480 360.58 1480 350.431C1480 340.282 1488.28 332 1498.43 332C1508.58 332 1516.86 340.282 1516.86 350.431C1516.86 360.58 1508.58 368.863 1498.43 368.863ZM1498.43 339.349C1492.37 339.349 1487.35 344.249 1487.35 350.431C1487.35 356.497 1492.25 361.513 1498.43 361.513C1504.5 361.513 1509.51 356.614 1509.51 350.431C1509.51 344.365 1504.5 339.349 1498.43 339.349Z" fill="#03498A"/>
<path d="M1711.2 324L1706 329.197L1740.57 363.754L1745.76 358.557L1711.2 324Z" fill="#03498A"/>
<path d="M1690 379.955L1706.33 324.778L1753.11 278L1791.96 316.846L1745.18 363.624L1690 379.955ZM1712.86 328.744L1700.85 369.107L1741.21 357.091L1781.46 316.846L1752.99 288.382L1712.86 328.744Z" fill="#03498A"/>
<path d="M1695.6 374.472L1700.85 356.508L1713.45 369.106L1695.6 374.472Z" fill="#03498A"/>
<path d="M1758.65 288.661L1715.16 332.125L1720.36 337.323L1763.84 293.859L1758.65 288.661Z" fill="#03498A"/>
<path d="M1776.02 306.318L1732.57 349.807L1737.77 355.001L1781.22 311.513L1776.02 306.318Z" fill="#03498A"/>
<path d="M1728.34 219.256C1725.66 219.256 1723.09 218.206 1721.11 216.223C1717.14 212.257 1717.14 205.724 1721.11 201.758L1730.09 192.776C1729.27 192.309 1728.46 191.726 1727.76 191.026C1725.77 189.043 1724.72 186.476 1724.72 183.793C1724.72 182.394 1724.96 181.11 1725.54 179.827C1724.37 179.361 1723.32 178.661 1722.51 177.727C1719.01 174.228 1718.54 168.862 1721.22 164.895C1720.29 164.429 1719.47 163.846 1718.66 163.029C1714.69 159.063 1714.69 152.53 1718.66 148.564C1718.89 148.331 1726.59 140.398 1738.02 131.066C1744.67 125.7 1762.4 113.101 1763.1 112.635L1765.67 110.885L1795.77 140.981L1797.87 142.148L1782.58 199.075C1781.88 201.758 1780.02 203.975 1777.45 205.374C1775 206.658 1772.09 206.891 1769.29 206.191C1763.57 204.674 1760.07 199.075 1761.24 193.709L1761.59 190.443L1735.57 216.457C1733.59 218.323 1731.02 219.256 1728.34 219.256ZM1742.22 191.026L1726.24 207.008C1725.07 208.174 1725.07 209.924 1726.24 211.09C1727.41 212.257 1729.16 212.257 1730.32 211.09L1770.8 170.612L1768.35 195.225C1768 196.742 1769.17 198.492 1771.15 198.958C1772.2 199.192 1773.14 199.192 1774.07 198.725C1774.54 198.492 1775.24 198.025 1775.47 197.092L1789.47 145.064L1764.85 120.45C1759.6 124.183 1747.71 132.816 1742.69 136.782C1731.61 145.764 1724.02 153.58 1723.91 153.697C1722.74 154.863 1722.74 156.73 1723.91 157.896C1724.49 158.48 1725.19 158.713 1726.01 158.713C1726.82 158.713 1727.52 158.363 1728.11 157.896L1728.57 157.43L1733.82 162.679L1727.99 168.512C1726.82 169.678 1726.82 171.428 1727.99 172.595C1729.16 173.761 1730.91 173.761 1732.07 172.595L1737.32 177.844L1733.36 181.81C1732.77 182.394 1732.54 183.093 1732.54 183.91C1732.54 184.727 1732.89 185.427 1733.36 186.01C1734.52 187.176 1736.27 187.176 1737.44 186.01L1742.22 191.026Z" fill="#03498A"/>
<path d="M1747.99 174.814L1728.93 193.863L1734.12 199.061L1753.18 180.013L1747.99 174.814Z" fill="#03498A"/>
<path d="M1738.71 165.527L1727.82 176.417L1733.02 181.613L1743.9 170.723L1738.71 165.527Z" fill="#03498A"/>
<path d="M1732.73 152.956L1723.25 162.447L1728.45 167.641L1737.93 158.15L1732.73 152.956Z" fill="#03498A"/>
</g>
</svg>
