<svg width="1300" height="54" viewBox="0 0 1300 54" fill="none" xmlns="http://www.w3.org/2000/svg">
<path d="M443.918 44.9305L443.982 47.316L443.918 44.9305ZM804.576 17.1876L804.086 19.5232L804.576 17.1876ZM1299.05 33.5068L1272.11 27.7109L1280.56 53.9393L1299.05 33.5068ZM2.55847 19.4001C4.45891 18.6319 5.98946 17.8736 7.22817 17.1164L4.7389 13.0441C3.77625 13.6326 2.49216 14.2788 0.769654 14.9752L2.55847 19.4001ZM13.0627 9.10129C13.2097 8.93655 13.6098 8.58848 14.7813 8.18957C15.9607 7.788 17.7548 7.39026 20.5129 7.02647L19.8887 2.2946C16.999 2.67575 14.8519 3.12357 13.2429 3.67146C11.626 4.22201 10.3907 4.92731 9.50187 5.92314L13.0627 9.10129ZM29.8925 6.17996C32.6263 6.00733 35.7706 5.85222 39.3898 5.71454L39.2083 0.945129C35.5595 1.08394 32.3743 1.24088 29.5917 1.41659L29.8925 6.17996ZM48.8352 5.42211C51.7934 5.34799 54.9868 5.28172 58.4346 5.2232L58.3536 0.451022C54.8949 0.509727 51.6885 0.576257 48.7157 0.650743L48.8352 5.42211ZM67.9936 5.08835C71.0095 5.05347 74.187 5.02318 77.5347 4.99741L77.4979 0.224692C74.1447 0.250498 70.9611 0.28085 67.9384 0.315806L67.9936 5.08835ZM87.1129 4.93826C90.1503 4.92372 93.31 4.91226 96.5971 4.90386L96.5849 0.131009C93.2945 0.139422 90.1312 0.150893 87.09 0.165452L87.1129 4.93826ZM106.094 4.88831C107.703 4.88706 109.34 4.88643 111.004 4.88643V0.113569C109.338 0.113569 107.701 0.114196 106.091 0.115453L106.094 4.88831ZM111.004 4.88643C112.598 4.88643 114.175 4.89352 115.736 4.90751L115.779 0.134838C114.204 0.120719 112.612 0.113569 111.004 0.113569V4.88643ZM125.019 5.07572C128.174 5.16244 131.261 5.27814 134.285 5.42107L134.511 0.653533C131.454 0.509098 128.336 0.392238 125.15 0.304659L125.019 5.07572ZM143.602 5.95887C146.765 6.17519 149.859 6.42182 152.891 6.69652L153.322 1.94313C150.255 1.66525 147.126 1.41585 143.928 1.19713L143.602 5.95887ZM162.15 7.64158C165.288 7.99835 168.362 8.38514 171.378 8.79916L172.027 4.07064C168.975 3.65166 165.865 3.26026 162.689 2.89926L162.15 7.64158ZM180.575 10.1702C183.682 10.67 186.733 11.1978 189.738 11.7501L190.601 7.05585C187.563 6.49743 184.476 5.96363 181.333 5.45793L180.575 10.1702ZM198.868 13.5275C201.938 14.1575 204.968 14.8109 207.968 15.4838L209.012 10.8266C205.986 10.148 202.929 9.48842 199.828 8.85207L198.868 13.5275ZM217.045 17.5935C220.08 18.322 223.097 19.0669 226.108 19.8241L227.272 15.1955C224.248 14.4349 221.214 13.6857 218.158 12.9524L217.045 17.5935ZM235.157 22.1351C238.165 22.9122 241.176 23.6968 244.206 24.4854L245.408 19.8664C242.38 19.0783 239.364 18.2924 236.351 17.514L235.157 22.1351ZM253.267 26.8338C256.263 27.605 259.287 28.3755 262.349 29.1412L263.507 24.511C260.458 23.7486 257.445 22.9809 254.456 22.2116L253.267 26.8338ZM271.461 31.3723C274.461 32.0898 277.506 32.7993 280.605 33.4974L281.654 28.8412C278.578 28.1482 275.553 27.4435 272.571 26.7303L271.461 31.3723ZM289.783 35.4928C292.794 36.1233 295.862 36.7407 298.992 37.3419L299.892 32.6548C296.789 32.0587 293.748 31.4466 290.761 30.8212L289.783 35.4928ZM308.23 39.034C311.255 39.5611 314.342 40.0718 317.495 40.564L318.231 35.8482C315.106 35.3605 312.047 34.8543 309.048 34.332L308.23 39.034ZM326.79 41.931C329.835 42.3517 332.943 42.7546 336.118 43.1377L336.69 38.3992C333.542 38.0194 330.461 37.6201 327.443 37.2031L326.79 41.931ZM345.488 44.1887C348.542 44.5057 351.657 44.8044 354.838 45.0834L355.255 40.3288C352.099 40.052 349.009 39.7557 345.98 39.4413L345.488 44.1887ZM364.158 45.8294C367.222 46.0515 370.344 46.2556 373.529 46.4405L373.806 41.6757C370.643 41.4921 367.544 41.2895 364.503 41.069L364.158 45.8294ZM382.974 46.9233C386.024 47.0585 389.129 47.1764 392.293 47.2763L392.443 42.5058C389.3 42.4066 386.215 42.2894 383.185 42.1551L382.974 46.9233ZM401.665 47.5149C404.767 47.5753 407.923 47.6187 411.135 47.6445L411.173 42.8717C407.979 42.8462 404.841 42.803 401.757 42.7429L401.665 47.5149ZM420.421 47.6691C423.513 47.6611 426.656 47.6371 429.85 47.5965L429.79 42.8241C426.611 42.8645 423.485 42.8883 420.409 42.8963L420.421 47.6691ZM439.198 47.4332C440.78 47.3981 442.375 47.3591 443.982 47.316L443.854 42.5449C442.254 42.5877 440.667 42.6266 439.092 42.6615L439.198 47.4332ZM443.982 47.316C445.619 47.2722 447.245 47.2247 448.86 47.1736L448.709 42.4031C447.102 42.454 445.484 42.5012 443.854 42.5449L443.982 47.316ZM458.422 46.8251C461.679 46.6905 464.89 46.5414 468.058 46.3786L467.813 41.612C464.661 41.774 461.466 41.9224 458.225 42.0563L458.422 46.8251ZM477.571 45.841C480.831 45.64 484.044 45.4245 487.211 45.1955L486.867 40.435C483.716 40.6629 480.52 40.8772 477.278 41.0772L477.571 45.841ZM496.781 44.4517C499.997 44.1843 503.165 43.9031 506.287 43.6092L505.84 38.8573C502.735 39.1496 499.584 39.4293 496.386 39.6953L496.781 44.4517ZM515.903 42.6498C519.133 42.3094 522.313 41.9557 525.445 41.5901L524.892 36.8494C521.777 37.213 518.615 37.5647 515.403 37.9033L515.903 42.6498ZM534.932 40.4294C538.163 40.016 541.343 39.5905 544.474 39.1547L543.816 34.4274C540.702 34.8609 537.539 35.284 534.326 35.6952L534.932 40.4294ZM553.998 37.7768C557.208 37.2947 560.367 36.8029 563.479 36.303L562.722 31.5905C559.626 32.0879 556.482 32.5773 553.289 33.0568L553.998 37.7768ZM572.929 34.7378C576.12 34.1937 579.261 33.6429 582.356 33.0875L581.513 28.3897C578.43 28.9428 575.303 29.4913 572.126 30.0328L572.929 34.7378ZM591.816 31.3519C595.005 30.7546 598.148 30.1547 601.248 29.5547L600.341 24.8688C597.249 25.4672 594.116 26.0653 590.937 26.6606L591.816 31.3519ZM610.659 27.7111C613.831 27.0832 616.961 26.4583 620.055 25.8395L619.119 21.1593C616.026 21.778 612.899 22.4021 609.732 23.029L610.659 27.7111ZM629.442 23.9621C632.602 23.3319 635.727 22.7116 638.826 22.1047L637.908 17.4208C634.802 18.0292 631.671 18.6507 628.509 19.2815L629.442 23.9621ZM648.211 20.2958C651.362 19.7003 654.49 19.1228 657.602 18.567L656.763 13.8685C653.633 14.4275 650.488 15.008 647.324 15.606L648.211 20.2958ZM667.005 16.9514C670.151 16.4338 673.288 15.9428 676.423 15.4824L675.73 10.7602C672.565 11.225 669.401 11.7202 666.23 12.2418L667.005 16.9514ZM685.859 14.1927C689.003 13.7967 692.152 13.4354 695.314 13.1126L694.829 8.36438C691.628 8.69122 688.442 9.05689 685.263 9.45724L685.859 14.1927ZM704.787 12.2682C707.928 12.03 711.088 11.8329 714.275 11.6806L714.047 6.91323C710.814 7.0677 707.61 7.26759 704.426 7.509L704.787 12.2682ZM723.772 11.3648C726.905 11.3066 730.07 11.2936 733.272 11.3293L733.326 6.55672C730.075 6.52051 726.863 6.5337 723.683 6.5928L723.772 11.3648ZM742.77 11.5763C745.891 11.7037 749.052 11.8782 752.259 12.1028L752.592 7.34156C749.34 7.1138 746.132 6.93674 742.965 6.8074L742.77 11.5763ZM761.736 12.9014C764.844 13.2071 767.997 13.5597 771.2 13.9619L771.795 9.22621C768.55 8.81878 765.354 8.46133 762.203 8.15141L761.736 12.9014ZM780.655 15.2727C783.729 15.7384 786.85 16.2492 790.021 16.8069L790.848 12.1062C787.64 11.542 784.482 11.0252 781.37 10.5537L780.655 15.2727ZM799.353 18.556C800.918 18.8671 802.495 19.1894 804.086 19.5232L805.066 14.8521C803.459 14.5149 801.865 14.1892 800.283 13.8747L799.353 18.556ZM804.086 19.5232C805.597 19.8404 807.13 20.1555 808.684 20.4683L809.626 15.7894C808.085 15.479 806.564 15.1666 805.066 14.8521L804.086 19.5232ZM818.173 22.3043C821.238 22.8746 824.372 23.437 827.572 23.9913L828.387 19.2885C825.206 18.7373 822.091 18.1784 819.046 17.6119L818.173 22.3043ZM837.004 25.5721C840.129 26.0789 843.308 26.5784 846.539 27.0706L847.258 22.3522C844.042 21.8622 840.877 21.365 837.768 20.8608L837.004 25.5721ZM855.965 28.4651C859.088 28.9139 862.254 29.356 865.459 29.7915L866.102 25.0621C862.908 24.6282 859.755 24.1877 856.644 23.7408L855.965 28.4651ZM874.985 31.051C878.107 31.4526 881.262 31.8481 884.449 32.2373L885.027 27.4997C881.851 27.1117 878.706 26.7175 875.595 26.3171L874.985 31.051ZM894.017 33.3764C897.144 33.7392 900.297 34.0961 903.476 34.4469L904 29.7029C900.83 29.353 897.685 28.9971 894.567 28.6353L894.017 33.3764ZM913.028 35.4754C916.173 35.8057 919.34 36.1303 922.527 36.449L923.002 31.6998C919.823 31.3819 916.663 31.0581 913.526 30.7286L913.028 35.4754ZM932.069 37.38C935.227 37.6806 938.402 37.9755 941.593 38.2646L942.024 33.5112C938.84 33.2227 935.672 32.9285 932.521 32.6286L932.069 37.38ZM951.132 39.1078C954.299 39.3808 957.479 39.6481 960.671 39.9097L961.06 35.1528C957.875 34.8917 954.702 34.625 951.542 34.3526L951.132 39.1078ZM970.211 40.6718C973.384 40.9188 976.567 41.1601 979.758 41.3956L980.109 36.6357C976.925 36.4007 973.748 36.1598 970.581 35.9133L970.211 40.6718ZM989.303 42.0814C992.481 42.3036 995.665 42.52 998.854 42.7306L999.168 37.9681C995.986 37.7579 992.807 37.5419 989.635 37.3202L989.303 42.0814ZM1008.4 43.3431C1011.59 43.5411 1014.77 43.7334 1017.96 43.9197L1018.24 39.155C1015.06 38.969 1011.88 38.7771 1008.7 38.5795L1008.4 43.3431ZM1027.52 44.4607C1030.7 44.635 1033.89 44.8034 1037.07 44.9658L1037.31 40.1991C1034.14 40.0371 1030.96 39.869 1027.78 39.6949L1027.52 44.4607ZM1046.63 45.4357C1049.82 45.5864 1053.01 45.7309 1056.19 45.8693L1056.4 41.1009C1053.22 40.9628 1050.04 40.8186 1046.86 40.6682L1046.63 45.4357ZM1065.76 46.2675C1068.95 46.3941 1072.14 46.5144 1075.31 46.6282L1075.48 41.8584C1072.31 41.7448 1069.14 41.6248 1065.95 41.4984L1065.76 46.2675ZM1084.89 46.9529C1088.09 47.0548 1091.27 47.15 1094.44 47.2384L1094.57 42.4674C1091.41 42.3792 1088.23 42.2842 1085.05 42.1825L1084.89 46.9529ZM1104.03 47.4864C1107.23 47.5622 1110.4 47.631 1113.57 47.6927L1113.66 42.9208C1110.5 42.8592 1107.33 42.7905 1104.15 42.7149L1104.03 47.4864ZM1123.18 47.859C1126.37 47.9072 1129.55 47.9478 1132.71 47.9809L1132.76 43.2083C1129.61 43.1753 1126.44 43.1348 1123.25 43.0867L1123.18 47.859ZM1142.32 48.0583C1145.53 48.0763 1148.71 48.0861 1151.87 48.0877L1151.87 43.3148C1148.72 43.3133 1145.55 43.3035 1142.35 43.2856L1142.32 48.0583ZM1161.47 48.0666C1164.69 48.0507 1167.88 48.0257 1171.04 47.9917L1170.99 43.2191C1167.84 43.2531 1164.66 43.2779 1161.44 43.2938L1161.47 48.0666ZM1180.59 47.8594C1183.84 47.8041 1187.05 47.7387 1190.21 47.6631L1190.1 42.8916C1186.94 42.967 1183.75 43.0322 1180.51 43.0872L1180.59 47.8594ZM1199.73 47.4009C1202.99 47.2988 1206.2 47.1851 1209.35 47.0596L1209.16 42.2905C1206.02 42.4154 1202.82 42.5287 1199.58 42.6304L1199.73 47.4009ZM1218.94 46.6344C1222.17 46.4758 1225.33 46.3038 1228.43 46.1184L1228.15 41.354C1225.07 41.5384 1221.92 41.7095 1218.71 41.8673L1218.94 46.6344ZM1238.07 45.4828C1241.36 45.2447 1244.56 44.9896 1247.67 44.7173L1247.25 39.9626C1244.17 40.2327 1240.99 40.4859 1237.72 40.7225L1238.07 45.4828ZM1257.21 43.7975C1260.51 43.4487 1263.68 43.0776 1266.72 42.6836L1266.11 37.9502C1263.1 38.339 1259.97 38.706 1256.71 39.0512L1257.21 43.7975ZM1276.22 41.3104C1279.61 40.7644 1282.79 40.1826 1285.75 39.5639L1284.78 34.8918C1281.89 35.4934 1278.79 36.0623 1275.46 36.5984L1276.22 41.3104Z" fill="#F9DD00"/>
</svg>
