<svg width="65" height="65" viewBox="0 0 65 65" fill="none" xmlns="http://www.w3.org/2000/svg">
<path d="M32.5 65C14.6045 65 0 50.3956 0 32.5C0 14.6044 14.6045 0 32.5 0C50.3955 0 65 14.6044 65 32.5C65 50.3956 50.3955 65 32.5 65ZM32.5 12.9589C21.8038 12.9589 12.9589 21.5981 12.9589 32.5C12.9589 43.1962 21.8038 52.0411 32.5 52.0411C43.1962 52.0411 52.0411 43.4019 52.0411 32.5C52.0411 21.8038 43.4019 12.9589 32.5 12.9589Z" fill="#F9DD00"/>
<path d="M32.5 49C22.864 49 15 41.1361 15 31.5C15 21.8639 22.864 14 32.5 14C42.136 14 50 21.8639 50 31.5C50 41.1361 42.136 49 32.5 49Z" fill="white"/>
</svg>
