<svg width="28" height="28" viewBox="0 0 28 28" fill="none" xmlns="http://www.w3.org/2000/svg">
<path d="M13.5278 0C10.37 0.021505 7.31785 1.13957 4.89338 3.16292C2.46891 5.18628 0.822812 7.98919 0.236693 11.0922C-0.349426 14.1952 0.160851 17.4054 1.68023 20.1737C3.19962 22.942 5.63369 25.0964 8.56605 26.2682C8.36897 24.9785 8.36897 23.6663 8.56605 22.3766L10.1713 15.5664C9.91729 14.9496 9.7915 14.2875 9.80163 13.6206C9.80163 11.7331 10.901 10.3127 12.2631 10.3127C12.5098 10.309 12.7544 10.3587 12.9802 10.4583C13.206 10.558 13.4075 10.7052 13.5711 10.89C13.7346 11.0748 13.8563 11.2928 13.9278 11.529C13.9992 11.7652 14.0188 12.014 13.9851 12.2585C13.9851 13.0112 13.6778 14.0064 13.3551 15.0514C13.1773 15.6273 12.9948 16.2184 12.8565 16.7922C12.7728 17.0934 12.7628 17.4103 12.8275 17.7162C12.8922 18.022 13.0296 18.3078 13.2281 18.5493C13.4267 18.7907 13.6805 18.9808 13.968 19.1034C14.2556 19.2261 14.5685 19.2776 14.8802 19.2536C17.2929 19.2536 19.1609 16.6949 19.1609 13.0174C19.1852 12.2701 19.0534 11.5259 18.774 10.8324C18.4946 10.1389 18.0737 9.51118 17.5382 8.98939C17.0027 8.4676 16.3643 8.06316 15.6637 7.80188C14.9632 7.54059 14.2159 7.42819 13.4695 7.47185C12.6726 7.43762 11.877 7.56545 11.1309 7.8476C10.3849 8.12976 9.7038 8.56036 9.12897 9.11335C8.55415 9.66635 8.09752 10.3302 7.78671 11.0648C7.4759 11.7994 7.31738 12.5894 7.32074 13.3871C7.30993 14.4983 7.65043 15.5845 8.29364 16.4906C8.34041 16.5426 8.37373 16.6052 8.39069 16.6731C8.40765 16.7409 8.40773 16.8119 8.39093 16.8798C8.28386 17.308 8.0504 18.2419 8.0115 18.4267C7.97259 18.6115 7.80719 18.7283 7.55424 18.6115C5.85167 17.8137 4.79121 15.3329 4.79121 13.3287C4.79121 9.03822 7.91421 5.08825 13.7905 5.08825C18.5091 5.08825 22.1866 8.45448 22.1866 12.959C22.1866 17.6484 19.2679 21.4232 15.1137 21.4232C14.5046 21.4444 13.9 21.3131 13.3546 21.0413C12.8092 20.7694 12.3404 20.3656 11.9907 19.8666L11.1442 23.1063C10.7385 24.3654 10.1693 25.5658 9.45139 26.6768C10.7743 27.0678 12.1484 27.258 13.5278 27.2411C17.1402 27.2411 20.6047 25.8061 23.159 23.2518C25.7134 20.6974 27.1484 17.233 27.1484 13.6206C27.1484 10.0082 25.7134 6.54372 23.159 3.98937C20.6047 1.43502 17.1402 0 13.5278 0Z" fill="#F9DD00"/>
</svg>
