<svg width="27" height="27" viewBox="0 0 27 27" fill="none" xmlns="http://www.w3.org/2000/svg">
<path d="M13.5196 8.43069C10.9796 8.43069 8.92049 10.4898 8.92049 13.0298C8.92049 15.5699 10.9796 17.629 13.5196 17.629C16.0597 17.629 18.1188 15.5699 18.1188 13.0298C18.1188 10.4898 16.0597 8.43069 13.5196 8.43069Z" fill="#F9DD00"/>
<path fillRule="evenodd" clipRule="evenodd" d="M6.11789 0.409018C10.9974 -0.136339 16.0419 -0.136339 20.9214 0.409018C23.6079 0.70927 25.7747 2.82598 26.09 5.52187C26.6735 10.5102 26.6735 15.5495 26.09 20.5378C25.7747 23.2337 23.6079 25.3504 20.9214 25.6507C16.0419 26.196 10.9974 26.196 6.11789 25.6507C3.43143 25.3504 1.2646 23.2337 0.94929 20.5378C0.365862 15.5495 0.365862 10.5102 0.94929 5.52187C1.2646 2.82598 3.43143 0.70927 6.11789 0.409018ZM20.5953 4.5391C19.8137 4.5391 19.1801 5.17267 19.1801 5.95422C19.1801 6.73577 19.8137 7.36935 20.5953 7.36935C21.3768 7.36935 22.0104 6.73577 22.0104 5.95422C22.0104 5.17267 21.3768 4.5391 20.5953 4.5391ZM6.79781 13.0298C6.79781 9.31747 9.80727 6.308 13.5196 6.308C17.232 6.308 20.2415 9.31747 20.2415 13.0298C20.2415 16.7422 17.232 19.7517 13.5196 19.7517C9.80727 19.7517 6.79781 16.7422 6.79781 13.0298Z" fill="#F9DD00"/>
</svg>
