<svg width="300" height="212" viewBox="0 0 300 212" fill="none" xmlns="http://www.w3.org/2000/svg">
<path d="M106.563 98.4951C106.413 98.0645 106.264 97.6339 106.114 97.2033C98.4224 75.0703 110.115 50.9304 132.254 43.2366C154.393 35.5429 178.536 47.2291 186.228 69.3621C188.203 75.0461 188.883 80.8908 188.435 86.5481" stroke="white" stroke-width="7.86329" stroke-miterlimit="10" stroke-linecap="round"/>
<path d="M190.373 120.762C192.042 148.148 132.411 167.823 114.649 131.864" stroke="white" stroke-width="7.86329" stroke-miterlimit="10" stroke-linecap="round"/>
<path d="M104.675 76.2275C82.6864 79.1875 33.7334 89.6458 13.8263 107.799C-11.0575 130.491 74.3328 137.097 142.749 128.535" stroke="white" stroke-width="7.86329" stroke-miterlimit="10" stroke-linecap="round"/>
<path d="M62.5946 85.1793C45.6832 90.8144 16.3221 104.24 34.1686 112.862C56.4767 123.64 83.3734 119.327 100.148 118.764" stroke="white" stroke-width="7.86329" stroke-miterlimit="10" stroke-linecap="round"/>
<path d="M143.795 128.173C180.794 123.507 256.956 108.274 276.863 90.121C301.747 67.4292 254.945 57.3607 186.53 65.9222" stroke="white" stroke-width="7.86329" stroke-miterlimit="10" stroke-linecap="round"/>
</svg>
