<svg width="402" height="67" viewBox="0 0 402 67" fill="none" xmlns="http://www.w3.org/2000/svg">
<path d="M207 30.9978L208.166 28.3157L207 30.9978ZM3.45105 27.5375C5.13873 26.5731 6.83586 25.648 8.54155 24.7609L5.84277 19.5714C4.0691 20.4938 2.30417 21.4559 0.548953 22.4589L3.45105 27.5375ZM19.0045 19.8305C22.5864 18.3099 26.1976 16.9416 29.8303 15.7157L27.96 10.1734C24.1905 11.4455 20.4406 12.8663 16.7189 14.4462L19.0045 19.8305ZM40.9339 12.4172C44.6982 11.4453 48.4771 10.613 52.262 9.9098L51.1936 4.15887C47.2811 4.88572 43.3707 5.74686 39.4716 6.75357L40.9339 12.4172ZM63.7399 8.16382C67.6063 7.70163 71.4698 7.36305 75.3213 7.13698L74.9785 1.2977C71.0146 1.53038 67.0337 1.87911 63.0456 2.35583L63.7399 8.16382ZM86.955 6.78478C90.8627 6.77456 94.7476 6.87044 98.5997 7.06041L98.8878 1.21818C94.9393 1.02345 90.9532 0.924973 86.9397 0.935468L86.955 6.78478ZM110.236 7.91892C114.148 8.30106 118.012 8.771 121.819 9.31528L122.647 3.52484C118.758 2.96884 114.807 2.48831 110.805 2.09731L110.236 7.91892ZM133.349 11.2122C137.251 11.9368 141.074 12.7295 144.806 13.5739L146.097 7.86882C142.295 7.00848 138.397 6.20038 134.417 5.46122L133.349 11.2122ZM156.164 16.3663C160.052 17.3972 163.81 18.4703 167.42 19.5637L169.115 13.9655C165.444 12.8534 161.62 11.7616 157.664 10.7124L156.164 16.3663ZM178.57 23.1468C182.497 24.4813 186.182 25.8108 189.595 27.0973L191.658 21.6239C188.189 20.3163 184.444 18.9651 180.452 17.6086L178.57 23.1468ZM200.486 31.4079C202.429 32.2143 204.215 32.9762 205.834 33.68L208.166 28.3157C206.52 27.6001 204.704 26.8253 202.728 26.0054L200.486 31.4079ZM205.834 33.68C207.615 34.4545 209.37 35.2138 211.098 35.9578L213.411 30.5851C211.69 29.844 209.942 29.0876 208.166 28.3157L205.834 33.68ZM221.502 40.3843C225.1 41.8957 228.577 43.3343 231.942 44.702L234.145 39.2832C230.803 37.9249 227.346 36.495 223.767 34.9914L221.502 40.3843ZM242.437 48.8777C246.131 50.3127 249.682 51.6522 253.103 52.8989L255.105 47.4031C251.727 46.172 248.215 44.8472 244.555 43.4253L242.437 48.8777ZM263.798 56.6337C267.594 57.8954 271.224 59.0282 274.713 60.0366L276.337 54.4172C272.931 53.4326 269.374 52.3232 265.644 51.0831L263.798 56.6337ZM285.778 62.9276C289.697 63.8323 293.444 64.5593 297.061 65.117L297.952 59.336C294.49 58.8023 290.886 58.1035 287.094 57.2282L285.778 62.9276ZM308.547 66.3509C312.506 66.5803 316.346 66.5898 320.133 66.3947L319.832 60.5531C316.26 60.7371 312.634 60.7286 308.885 60.5114L308.547 66.3509ZM331.656 65.1719C335.392 64.5775 339.134 63.798 342.951 62.8524L341.544 57.1747C337.866 58.0861 334.287 58.8304 330.737 59.3952L331.656 65.1719ZM353.985 59.7547C357.466 58.6781 361.054 57.4886 364.79 56.1987L362.882 50.6696C359.187 51.9451 355.661 53.1135 352.257 54.1666L353.985 59.7547ZM375.474 52.4064C378.856 51.1816 382.377 49.8912 386.056 48.5436L384.045 43.0511C380.362 44.3999 376.852 45.6862 373.482 46.9065L375.474 52.4064ZM396.652 44.6765C398.395 44.0446 400.173 43.4025 401.988 42.7507L400.012 37.2454C398.189 37.8996 396.405 38.5439 394.658 39.1777L396.652 44.6765Z" fill="#F9DD00"/>
</svg>
