<svg width="485" height="700" viewBox="0 0 485 770" fill="none" xmlns="http://www.w3.org/2000/svg">
<path d="M344.299 92.7086V154.281C344.299 175.684 326.987 193.017 305.611 193.017C284.235 193.017 266.923 175.684 266.923 154.281V88.7897C266.923 79.9722 269.858 71.9083 274.751 65.427" stroke="#3D7BB5" stroke-width="6.66996" stroke-miterlimit="10" stroke-linecap="round"/>
<path d="M280.02 183V232.131L304.084 246.5L327.966 232.131V187.29" stroke="#3D7BB5" stroke-width="6.66996" stroke-miterlimit="10" stroke-linecap="round"/>
<path d="M333.235 181.411H348.89C361.235 181.411 371.17 171.388 371.17 159.104V72.5866C371.17 38.5977 343.622 11.0146 309.675 11.0146H303.654C269.632 11.0146 242.084 38.5977 242.084 72.5866V159.104C242.084 171.463 252.095 181.411 264.364 181.411H276.084" stroke="#3D7BB5" stroke-width="6.66996" stroke-miterlimit="10" stroke-linecap="round"/>
<path d="M274.75 65.427C280.019 85.2476 298.083 99.8681 319.61 99.8681C328.718 99.8681 337.223 97.2304 344.374 92.7086" stroke="#3D7BB5" stroke-width="6.66996" stroke-miterlimit="10" stroke-linecap="round"/>
<path d="M399.084 540L432.084 548L467.357 456.778C482.046 418.787 483.024 376.861 470.121 338.227L443.084 257.276C432.084 226 414.979 208 380.352 208H328.584" stroke="#3D7BB5" stroke-width="6.66996" stroke-miterlimit="10" stroke-linecap="round"/>
<path d="M206.152 334.475V503.063H394.775" stroke="#3D7BB5" stroke-width="6.66996" stroke-miterlimit="10" stroke-linecap="round"/>
<path d="M277.084 208.015H255.453C238.292 208.015 223.238 216.757 214.431 230.096" stroke="#3D7BB5" stroke-width="6.66996" stroke-miterlimit="10" stroke-linecap="round"/>
<path d="M172.281 318.874V200.026H95.1307V356.857C95.1307 378.185 112.367 395.444 133.668 395.444C144.357 395.444 153.991 391.148 160.916 384.139C165.055 379.994 168.217 374.945 170.174 369.292" stroke="#3D7BB5" stroke-width="6.66996" stroke-miterlimit="10" stroke-linecap="round"/>
<path d="M214.356 230.096L171.453 270.491" stroke="#3D7BB5" stroke-width="6.66996" stroke-miterlimit="10" stroke-linecap="round"/>
<path d="M170.249 369.293L206.152 334.475" stroke="#3D7BB5" stroke-width="6.66996" stroke-miterlimit="10" stroke-linecap="round"/>
<path d="M396 270L396 579" stroke="#3D7BB5" stroke-width="6.66996" stroke-miterlimit="10" stroke-linecap="round"/>
<path d="M417.357 548C417.884 549.959 418.109 551.919 418.109 554.029C418.109 566.766 408.475 577.241 396.056 578.522" stroke="#3D7BB5" stroke-width="6.66996" stroke-miterlimit="10" stroke-linecap="round"/>
<g clip-path="url(#clip0_1_1022)">
<path d="M159.468 198.739C161.517 196.048 163.32 193.031 164.713 189.77" stroke="#3D7BB5" stroke-width="8" stroke-miterlimit="10" stroke-linecap="round"/>
<path d="M115.619 122.5C112.997 128.126 96.6191 132.5 96.6191 158C96.6191 189 110.128 191.825 115.619 199" stroke="#3D7BB5" stroke-width="8" stroke-miterlimit="10" stroke-linecap="round"/>
<path d="M168.619 143.5C172.881 146.761 179.619 150 179.619 165C179.619 175.029 174.465 189.851 165.45 189.851C165.205 189.851 164.959 189.851 164.795 189.851" stroke="#3D7BB5" stroke-width="8" stroke-miterlimit="10" stroke-linecap="round"/>
</g>
<mask id="mask0_1_1022" style="mask-type:alpha" maskUnits="userSpaceOnUse" x="94" y="206" width="391" height="376">
<path d="M442.084 254C439.284 222 387.251 209.833 374.084 208.5H330.584L327.584 231.5L304.084 245.5C299.584 241.667 271.584 237.5 280.584 208.5C280.584 208.5 228.251 215.167 225.084 218L172.62 272V206H94.6196C94.453 252.5 94.2196 349.8 94.6196 367C95.1196 388.5 122.62 400.5 140.12 400.5C154.12 400.5 167.62 380.833 172.62 371L206.12 342V506.5H397.62V582H418.12L458.084 487L484.084 387L442.084 254Z" fill="#D9D9D9"/>
</mask>
<g mask="url(#mask0_1_1022)">
<path d="M479.039 238.501C480.754 236.929 482.147 235.098 483.116 233.098L474.558 230.01C472.713 233.738 468.531 236.273 463.74 236.402C459.049 236.44 454.697 234.315 452.476 230.607C448.699 224.25 440.941 220.244 432.608 220.469C424.276 220.694 416.826 225.112 413.52 231.66C411.675 235.388 407.493 237.923 402.701 238.052C398.118 238.176 393.658 235.964 391.438 232.257C387.66 225.9 379.903 221.893 371.57 222.119C363.237 222.344 355.787 226.761 352.481 233.309C350.636 237.037 346.454 239.572 341.663 239.702C337.08 239.826 332.62 237.614 330.399 233.906L322.083 237.45C325.86 243.807 333.618 247.813 341.951 247.588C350.283 247.363 357.733 242.945 361.039 236.397C362.884 232.669 367.067 230.134 371.858 230.005C376.441 229.881 380.901 232.093 383.121 235.8C386.899 242.157 394.656 246.164 402.989 245.938C411.322 245.713 418.772 241.296 421.97 234.661C423.815 230.933 427.998 228.398 432.789 228.268C437.372 228.145 441.832 230.356 444.053 234.064C447.83 240.421 455.587 244.427 463.92 244.202C469.76 244.224 475.205 242.013 479.039 238.501Z" fill="#3D7BB5"/>
<path d="M604.039 238.501C605.754 236.929 607.147 235.098 608.116 233.098L599.558 230.01C597.713 233.738 593.531 236.273 588.74 236.402C584.049 236.44 579.697 234.315 577.476 230.607C573.699 224.25 565.941 220.244 557.608 220.469C549.276 220.694 541.826 225.112 538.52 231.66C536.675 235.388 532.493 237.923 527.701 238.052C523.118 238.176 518.658 235.964 516.438 232.257C512.66 225.9 504.903 221.893 496.57 222.119C488.237 222.344 480.787 226.761 477.481 233.309C475.636 237.037 471.454 239.572 466.663 239.702C462.08 239.826 457.62 237.614 455.399 233.906L447.083 237.45C450.86 243.807 458.618 247.813 466.951 247.588C475.283 247.363 482.733 242.945 486.039 236.397C487.884 232.669 492.067 230.134 496.858 230.005C501.441 229.881 505.901 232.093 508.121 235.8C511.899 242.157 519.656 246.164 527.989 245.938C536.322 245.713 543.772 241.296 546.97 234.661C548.815 230.933 552.998 228.398 557.789 228.268C562.372 228.145 566.832 230.356 569.053 234.064C572.83 240.421 580.587 244.427 588.92 244.202C594.76 244.224 600.205 242.013 604.039 238.501Z" fill="#3D7BB5"/>
<path d="M479.039 279.806C480.754 278.235 482.147 276.403 483.116 274.403L474.558 271.315C472.713 275.043 468.531 277.578 463.74 277.708C459.049 277.745 454.697 275.62 452.476 271.912C448.699 265.555 440.941 261.549 432.608 261.774C424.276 261.999 416.826 266.417 413.52 272.965C411.675 276.693 407.493 279.228 402.701 279.357C398.118 279.481 393.658 277.269 391.438 273.562C387.66 267.205 379.903 263.199 371.57 263.424C363.237 263.649 355.787 268.067 352.481 274.615C350.636 278.342 346.454 280.878 341.663 281.007C337.08 281.131 332.62 278.919 330.399 275.211L322.083 278.755C325.86 285.112 333.618 289.119 341.951 288.893C350.283 288.668 357.733 284.251 361.039 277.702C362.884 273.975 367.067 271.44 371.858 271.31C376.441 271.186 380.901 273.398 383.121 277.106C386.899 283.462 394.656 287.469 402.989 287.244C411.322 287.018 418.772 282.601 421.97 275.966C423.815 272.238 427.998 269.703 432.789 269.574C437.372 269.45 441.832 271.661 444.053 275.369C447.83 281.726 455.587 285.732 463.92 285.507C469.76 285.529 475.205 283.318 479.039 279.806Z" fill="#3D7BB5"/>
<path d="M604.039 279.806C605.754 278.235 607.147 276.403 608.116 274.403L599.558 271.315C597.713 275.043 593.531 277.578 588.74 277.708C584.049 277.745 579.697 275.62 577.476 271.912C573.699 265.555 565.941 261.549 557.608 261.774C549.276 261.999 541.826 266.417 538.52 272.965C536.675 276.693 532.493 279.228 527.701 279.357C523.118 279.481 518.658 277.269 516.438 273.562C512.66 267.205 504.903 263.199 496.57 263.424C488.237 263.649 480.787 268.067 477.481 274.615C475.636 278.342 471.454 280.878 466.663 281.007C462.08 281.131 457.62 278.919 455.399 275.211L447.083 278.755C450.86 285.112 458.618 289.119 466.951 288.893C475.283 288.668 482.733 284.251 486.039 277.702C487.884 273.975 492.067 271.44 496.858 271.31C501.441 271.186 505.901 273.398 508.121 277.106C511.899 283.462 519.656 287.469 527.989 287.244C536.322 287.018 543.772 282.601 546.97 275.966C548.815 272.238 552.998 269.703 557.789 269.574C562.372 269.45 566.832 271.661 569.053 275.369C572.83 281.726 580.587 285.732 588.92 285.507C594.76 285.529 600.205 283.318 604.039 279.806Z" fill="#3D7BB5"/>
<path d="M479.039 321.111C480.754 319.54 482.147 317.708 483.116 315.708L474.558 312.62C472.713 316.348 468.531 318.883 463.74 319.013C459.049 319.05 454.697 316.925 452.476 313.217C448.699 306.861 440.941 302.854 432.608 303.079C424.276 303.304 416.826 307.722 413.52 314.27C411.675 317.998 407.493 320.533 402.701 320.662C398.118 320.786 393.658 318.575 391.438 314.867C387.66 308.51 379.903 304.504 371.57 304.729C363.237 304.954 355.787 309.372 352.481 315.92C350.636 319.648 346.454 322.183 341.663 322.312C337.08 322.436 332.62 320.224 330.399 316.517L322.083 320.061C325.86 326.417 333.618 330.424 341.951 330.199C350.283 329.973 357.733 325.556 361.039 319.008C362.884 315.28 367.067 312.745 371.858 312.615C376.441 312.491 380.901 314.703 383.121 318.411C386.899 324.768 394.656 328.774 402.989 328.549C411.322 328.324 418.772 323.906 421.97 317.271C423.815 313.543 427.998 311.008 432.789 310.879C437.372 310.755 441.832 312.967 444.053 316.674C447.83 323.031 455.587 327.038 463.92 326.812C469.76 326.834 475.205 324.624 479.039 321.111Z" fill="#3D7BB5"/>
<path d="M604.039 321.111C605.754 319.54 607.147 317.708 608.116 315.708L599.558 312.62C597.713 316.348 593.531 318.883 588.74 319.013C584.049 319.05 579.697 316.925 577.476 313.217C573.699 306.861 565.941 302.854 557.608 303.079C549.276 303.304 541.826 307.722 538.52 314.27C536.675 317.998 532.493 320.533 527.701 320.662C523.118 320.786 518.658 318.575 516.438 314.867C512.66 308.51 504.903 304.504 496.57 304.729C488.237 304.954 480.787 309.372 477.481 315.92C475.636 319.648 471.454 322.183 466.663 322.312C462.08 322.436 457.62 320.224 455.399 316.517L447.083 320.061C450.86 326.417 458.618 330.424 466.951 330.199C475.283 329.973 482.733 325.556 486.039 319.008C487.884 315.28 492.067 312.745 496.858 312.615C501.441 312.491 505.901 314.703 508.121 318.411C511.899 324.768 519.656 328.774 527.989 328.549C536.322 328.324 543.772 323.906 546.97 317.271C548.815 313.543 552.998 311.008 557.789 310.879C562.372 310.755 566.832 312.967 569.053 316.674C572.83 323.031 580.587 327.038 588.92 326.812C594.76 326.834 600.205 324.624 604.039 321.111Z" fill="#3D7BB5"/>
<path d="M479.039 362.416C480.754 360.845 482.147 359.013 483.116 357.013L474.558 353.926C472.713 357.653 468.531 360.188 463.74 360.318C459.049 360.355 454.697 358.23 452.476 354.522C448.699 348.166 440.941 344.159 432.608 344.384C424.276 344.61 416.826 349.027 413.52 355.575C411.675 359.303 407.493 361.838 402.701 361.968C398.118 362.092 393.658 359.88 391.438 356.172C387.66 349.815 379.903 345.809 371.57 346.034C363.237 346.259 355.787 350.677 352.481 357.225C350.636 360.953 346.454 363.488 341.663 363.617C337.08 363.741 332.62 361.529 330.399 357.822L322.083 361.366C325.86 367.722 333.618 371.729 341.951 371.504C350.283 371.278 357.733 366.861 361.039 360.313C362.884 356.585 367.067 354.05 371.858 353.92C376.441 353.797 380.901 356.008 383.121 359.716C386.899 366.073 394.656 370.079 402.989 369.854C411.322 369.629 418.772 365.211 421.97 358.576C423.815 354.849 427.998 352.313 432.789 352.184C437.372 352.06 441.832 354.272 444.053 357.979C447.83 364.336 455.587 368.343 463.92 368.117C469.76 368.139 475.205 365.929 479.039 362.416Z" fill="#3D7BB5"/>
<path d="M604.039 362.416C605.754 360.845 607.147 359.013 608.116 357.013L599.558 353.926C597.713 357.653 593.531 360.188 588.74 360.318C584.049 360.355 579.697 358.23 577.476 354.522C573.699 348.166 565.941 344.159 557.608 344.384C549.276 344.61 541.826 349.027 538.52 355.575C536.675 359.303 532.493 361.838 527.701 361.968C523.118 362.092 518.658 359.88 516.438 356.172C512.66 349.815 504.903 345.809 496.57 346.034C488.237 346.259 480.787 350.677 477.481 357.225C475.636 360.953 471.454 363.488 466.663 363.617C462.08 363.741 457.62 361.529 455.399 357.822L447.083 361.366C450.86 367.722 458.618 371.729 466.951 371.504C475.283 371.278 482.733 366.861 486.039 360.313C487.884 356.585 492.067 354.05 496.858 353.92C501.441 353.797 505.901 356.008 508.121 359.716C511.899 366.073 519.656 370.079 527.989 369.854C536.322 369.629 543.772 365.211 546.97 358.576C548.815 354.849 552.998 352.313 557.789 352.184C562.372 352.06 566.832 354.272 569.053 357.979C572.83 364.336 580.587 368.343 588.92 368.117C594.76 368.139 600.205 365.929 604.039 362.416Z" fill="#3D7BB5"/>
<path d="M479.039 403.721C480.754 402.15 482.147 400.318 483.116 398.319L474.558 395.231C472.713 398.959 468.531 401.494 463.74 401.623C459.049 401.66 454.697 399.535 452.476 395.828C448.699 389.471 440.941 385.464 432.608 385.69C424.276 385.915 416.826 390.332 413.52 396.881C411.675 400.608 407.493 403.143 402.701 403.273C398.118 403.397 393.658 401.185 391.438 397.477C387.66 391.121 379.903 387.114 371.57 387.339C363.237 387.565 355.787 391.982 352.481 398.53C350.636 402.258 346.454 404.793 341.663 404.923C337.08 405.046 332.62 402.835 330.399 399.127L322.083 402.671C325.86 409.028 333.618 413.034 341.951 412.809C350.283 412.584 357.733 408.166 361.039 401.618C362.884 397.89 367.067 395.355 371.858 395.226C376.441 395.102 380.901 397.314 383.121 401.021C386.899 407.378 394.656 411.384 402.989 411.159C411.322 410.934 418.772 406.516 421.97 399.881C423.815 396.154 427.998 393.619 432.789 393.489C437.372 393.365 441.832 395.577 444.053 399.285C447.83 405.641 455.587 409.648 463.92 409.423C469.76 409.444 475.205 407.234 479.039 403.721Z" fill="#3D7BB5"/>
<path d="M604.039 403.721C605.754 402.15 607.147 400.318 608.116 398.319L599.558 395.231C597.713 398.959 593.531 401.494 588.74 401.623C584.049 401.66 579.697 399.535 577.476 395.828C573.699 389.471 565.941 385.464 557.608 385.69C549.276 385.915 541.826 390.332 538.52 396.881C536.675 400.608 532.493 403.143 527.701 403.273C523.118 403.397 518.658 401.185 516.438 397.477C512.66 391.121 504.903 387.114 496.57 387.339C488.237 387.565 480.787 391.982 477.481 398.53C475.636 402.258 471.454 404.793 466.663 404.923C462.08 405.046 457.62 402.835 455.399 399.127L447.083 402.671C450.86 409.028 458.618 413.034 466.951 412.809C475.283 412.584 482.733 408.166 486.039 401.618C487.884 397.89 492.067 395.355 496.858 395.226C501.441 395.102 505.901 397.314 508.121 401.021C511.899 407.378 519.656 411.384 527.989 411.159C536.322 410.934 543.772 406.516 546.97 399.881C548.815 396.154 552.998 393.619 557.789 393.489C562.372 393.365 566.832 395.577 569.053 399.285C572.83 405.641 580.587 409.648 588.92 409.423C594.76 409.444 600.205 407.234 604.039 403.721Z" fill="#3D7BB5"/>
<path d="M479.039 445.027C480.754 443.455 482.147 441.623 483.116 439.624L474.558 436.536C472.713 440.264 468.531 442.799 463.74 442.928C459.049 442.965 454.697 440.84 452.476 437.133C448.699 430.776 440.941 426.77 432.608 426.995C424.276 427.22 416.826 431.638 413.52 438.186C411.675 441.913 407.493 444.449 402.701 444.578C398.118 444.702 393.658 442.49 391.438 438.782C387.66 432.426 379.903 428.419 371.57 428.645C363.237 428.87 355.787 433.287 352.481 439.835C350.636 443.563 346.454 446.098 341.663 446.228C337.08 446.352 332.62 444.14 330.399 440.432L322.083 443.976C325.86 450.333 333.618 454.339 341.951 454.114C350.283 453.889 357.733 449.471 361.039 442.923C362.884 439.195 367.067 436.66 371.858 436.531C376.441 436.407 380.901 438.619 383.121 442.326C386.899 448.683 394.656 452.69 402.989 452.464C411.322 452.239 418.772 447.822 421.97 441.187C423.815 437.459 427.998 434.924 432.789 434.794C437.372 434.67 441.832 436.882 444.053 440.59C447.83 446.947 455.587 450.953 463.92 450.728C469.76 450.749 475.205 448.539 479.039 445.027Z" fill="#3D7BB5"/>
<path d="M604.039 445.027C605.754 443.455 607.147 441.623 608.116 439.624L599.558 436.536C597.713 440.264 593.531 442.799 588.74 442.928C584.049 442.965 579.697 440.84 577.476 437.133C573.699 430.776 565.941 426.77 557.608 426.995C549.276 427.22 541.826 431.638 538.52 438.186C536.675 441.913 532.493 444.449 527.701 444.578C523.118 444.702 518.658 442.49 516.438 438.782C512.66 432.426 504.903 428.419 496.57 428.645C488.237 428.87 480.787 433.287 477.481 439.835C475.636 443.563 471.454 446.098 466.663 446.228C462.08 446.352 457.62 444.14 455.399 440.432L447.083 443.976C450.86 450.333 458.618 454.339 466.951 454.114C475.283 453.889 482.733 449.471 486.039 442.923C487.884 439.195 492.067 436.66 496.858 436.531C501.441 436.407 505.901 438.619 508.121 442.326C511.899 448.683 519.656 452.69 527.989 452.464C536.322 452.239 543.772 447.822 546.97 441.187C548.815 437.459 552.998 434.924 557.789 434.794C562.372 434.67 566.832 436.882 569.053 440.59C572.83 446.947 580.587 450.953 588.92 450.728C594.76 450.749 600.205 448.539 604.039 445.027Z" fill="#3D7BB5"/>
<path d="M479.039 486.332C480.754 484.761 482.147 482.929 483.116 480.929L474.558 477.841C472.713 481.569 468.531 484.104 463.74 484.234C459.049 484.271 454.697 482.146 452.476 478.438C448.699 472.081 440.941 468.075 432.608 468.3C424.276 468.525 416.826 472.943 413.52 479.491C411.675 483.219 407.493 485.754 402.701 485.883C398.118 486.007 393.658 483.796 391.438 480.088C387.66 473.731 379.903 469.725 371.57 469.95C363.237 470.175 355.787 474.593 352.481 481.141C350.636 484.869 346.454 487.404 341.663 487.533C337.08 487.657 332.62 485.445 330.399 481.738L322.083 485.281C325.86 491.638 333.618 495.645 341.951 495.419C350.283 495.194 357.733 490.777 361.039 484.229C362.884 480.501 367.067 477.966 371.858 477.836C376.441 477.712 380.901 479.924 383.121 483.632C386.899 489.989 394.656 493.995 402.989 493.77C411.322 493.545 418.772 489.127 421.97 482.492C423.815 478.764 427.998 476.229 432.789 476.1C437.372 475.976 441.832 478.188 444.053 481.895C447.83 488.252 455.587 492.258 463.92 492.033C469.76 492.055 475.205 489.844 479.039 486.332Z" fill="#3D7BB5"/>
<path d="M604.039 486.332C605.754 484.761 607.147 482.929 608.116 480.929L599.558 477.841C597.713 481.569 593.531 484.104 588.74 484.234C584.049 484.271 579.697 482.146 577.476 478.438C573.699 472.081 565.941 468.075 557.608 468.3C549.276 468.525 541.826 472.943 538.52 479.491C536.675 483.219 532.493 485.754 527.701 485.883C523.118 486.007 518.658 483.796 516.438 480.088C512.66 473.731 504.903 469.725 496.57 469.95C488.237 470.175 480.787 474.593 477.481 481.141C475.636 484.869 471.454 487.404 466.663 487.533C462.08 487.657 457.62 485.445 455.399 481.738L447.083 485.281C450.86 491.638 458.618 495.645 466.951 495.419C475.283 495.194 482.733 490.777 486.039 484.229C487.884 480.501 492.067 477.966 496.858 477.836C501.441 477.712 505.901 479.924 508.121 483.632C511.899 489.989 519.656 493.995 527.989 493.77C536.322 493.545 543.772 489.127 546.97 482.492C548.815 478.764 552.998 476.229 557.789 476.1C562.372 475.976 566.832 478.188 569.053 481.895C572.83 488.252 580.587 492.258 588.92 492.033C594.76 492.055 600.205 489.844 604.039 486.332Z" fill="#3D7BB5"/>
<path d="M356.491 241.801C358.206 240.23 359.599 238.398 360.568 236.398L352.01 233.311C350.165 237.038 345.983 239.573 341.192 239.703C336.501 239.74 332.149 237.615 329.928 233.907C326.151 227.551 318.394 223.544 310.061 223.769C301.728 223.995 294.278 228.412 290.972 234.96C289.127 238.688 284.945 241.223 280.153 241.353C275.57 241.477 271.11 239.265 268.89 235.557C265.113 229.2 257.355 225.194 249.022 225.419C240.689 225.644 233.239 230.062 229.933 236.61C228.088 240.338 223.906 242.873 219.115 243.002C214.532 243.126 210.072 240.914 207.851 237.207L199.535 240.751C203.312 247.107 211.07 251.114 219.403 250.889C227.736 250.663 235.186 246.246 238.491 239.698C240.336 235.97 244.519 233.435 249.31 233.305C253.893 233.182 258.353 235.393 260.574 239.101C264.351 245.458 272.108 249.464 280.441 249.239C288.774 249.014 296.224 244.596 299.423 237.961C301.267 234.234 305.45 231.698 310.241 231.569C314.824 231.445 319.284 233.657 321.505 237.364C325.282 243.721 333.039 247.728 341.372 247.502C347.212 247.524 352.657 245.314 356.491 241.801Z" fill="#3D7BB5"/>
<path d="M356.491 283.106C358.206 281.535 359.599 279.703 360.568 277.704L352.01 274.616C350.165 278.344 345.983 280.879 341.192 281.008C336.501 281.045 332.149 278.92 329.928 275.213C326.151 268.856 318.394 264.849 310.061 265.075C301.728 265.3 294.278 269.717 290.972 276.266C289.127 279.993 284.945 282.528 280.153 282.658C275.57 282.782 271.11 280.57 268.89 276.862C265.113 270.506 257.355 266.499 249.022 266.724C240.689 266.95 233.239 271.367 229.933 277.915C228.088 281.643 223.906 284.178 219.115 284.308C214.532 284.431 210.072 282.22 207.851 278.512L199.535 282.056C203.312 288.413 211.07 292.419 219.403 292.194C227.736 291.969 235.186 287.551 238.491 281.003C240.336 277.275 244.519 274.74 249.31 274.611C253.893 274.487 258.353 276.699 260.574 280.406C264.351 286.763 272.108 290.769 280.441 290.544C288.774 290.319 296.224 285.901 299.423 279.266C301.267 275.539 305.45 273.004 310.241 272.874C314.824 272.75 319.284 274.962 321.505 278.67C325.282 285.026 333.039 289.033 341.372 288.808C347.212 288.829 352.657 286.619 356.491 283.106Z" fill="#3D7BB5"/>
<path d="M356.491 324.412C358.206 322.84 359.599 321.009 360.568 319.009L352.01 315.921C350.165 319.649 345.983 322.184 341.192 322.313C336.501 322.35 332.149 320.225 329.928 316.518C326.151 310.161 318.394 306.155 310.061 306.38C301.728 306.605 294.278 311.023 290.972 317.571C289.127 321.298 284.945 323.834 280.153 323.963C275.57 324.087 271.11 321.875 268.89 318.167C265.113 311.811 257.355 307.804 249.022 308.03C240.689 308.255 233.239 312.672 229.933 319.22C228.088 322.948 223.906 325.483 219.115 325.613C214.532 325.737 210.072 323.525 207.851 319.817L199.535 323.361C203.312 329.718 211.07 333.724 219.403 333.499C227.736 333.274 235.186 328.856 238.491 322.308C240.336 318.58 244.519 316.045 249.31 315.916C253.893 315.792 258.353 318.004 260.574 321.711C264.351 328.068 272.108 332.075 280.441 331.849C288.774 331.624 296.224 327.207 299.423 320.572C301.267 316.844 305.45 314.309 310.241 314.179C314.824 314.055 319.284 316.267 321.505 319.975C325.282 326.332 333.039 330.338 341.372 330.113C347.212 330.134 352.657 327.924 356.491 324.412Z" fill="#3D7BB5"/>
<path d="M356.491 365.717C358.206 364.145 359.599 362.314 360.568 360.314L352.01 357.226C350.165 360.954 345.983 363.489 341.192 363.618C336.501 363.656 332.149 361.531 329.928 357.823C326.151 351.466 318.394 347.46 310.061 347.685C301.728 347.91 294.278 352.328 290.972 358.876C289.127 362.604 284.945 365.139 280.153 365.268C275.57 365.392 271.11 363.18 268.89 359.473C265.113 353.116 257.355 349.109 249.022 349.335C240.689 349.56 233.239 353.977 229.933 360.526C228.088 364.253 223.906 366.788 219.115 366.918C214.532 367.042 210.072 364.83 207.851 361.122L199.535 364.666C203.312 371.023 211.07 375.029 219.403 374.804C227.736 374.579 235.186 370.161 238.491 363.613C240.336 359.886 244.519 357.35 249.31 357.221C253.893 357.097 258.353 359.309 260.574 363.017C264.351 369.373 272.108 373.38 280.441 373.155C288.774 372.929 296.224 368.512 299.423 361.877C301.267 358.149 305.45 355.614 310.241 355.484C314.824 355.361 319.284 357.572 321.505 361.28C325.282 367.637 333.039 371.643 341.372 371.418C347.212 371.44 352.657 369.229 356.491 365.717Z" fill="#3D7BB5"/>
<path d="M233.942 246.11C235.657 244.538 237.05 242.707 238.02 240.707L229.461 237.619C227.617 241.347 223.434 243.882 218.643 244.011C213.952 244.048 209.6 241.923 207.379 238.216C203.602 231.859 195.845 227.853 187.512 228.078C179.179 228.303 171.729 232.721 168.423 239.269C166.578 242.996 162.396 245.532 157.604 245.661C153.021 245.785 148.561 243.573 146.341 239.865C142.564 233.509 134.806 229.502 126.473 229.728C118.14 229.953 110.69 234.37 107.385 240.918C105.54 244.646 101.357 247.181 96.5659 247.311C91.9828 247.435 87.523 245.223 85.3024 241.515L76.9864 245.059C80.7634 251.416 88.521 255.422 96.8539 255.197C105.187 254.972 112.637 250.554 115.943 244.006C117.788 240.278 121.97 237.743 126.761 237.614C131.344 237.49 135.804 239.702 138.025 243.409C141.802 249.766 149.559 253.773 157.892 253.547C166.225 253.322 173.675 248.905 176.874 242.27C178.719 238.542 182.901 236.007 187.692 235.877C192.275 235.753 196.735 237.965 198.956 241.673C202.733 248.03 210.49 252.036 218.823 251.811C224.663 251.832 230.108 249.622 233.942 246.11Z" fill="#3D7BB5"/>
<path d="M233.942 287.415C235.657 285.843 237.05 284.012 238.02 282.012L229.461 278.924C227.617 282.652 223.434 285.187 218.643 285.316C213.952 285.354 209.6 283.229 207.379 279.521C203.602 273.164 195.845 269.158 187.512 269.383C179.179 269.608 171.729 274.026 168.423 280.574C166.578 284.302 162.396 286.837 157.604 286.966C153.021 287.09 148.561 284.878 146.341 281.171C142.564 274.814 134.806 270.807 126.473 271.033C118.14 271.258 110.69 275.675 107.385 282.224C105.54 285.951 101.357 288.486 96.5659 288.616C91.9828 288.74 87.523 286.528 85.3024 282.82L76.9864 286.364C80.7634 292.721 88.521 296.727 96.8539 296.502C105.187 296.277 112.637 291.859 115.943 285.311C117.788 281.584 121.97 279.048 126.761 278.919C131.344 278.795 135.804 281.007 138.025 284.715C141.802 291.071 149.559 295.078 157.892 294.853C166.225 294.627 173.675 290.21 176.874 283.575C178.719 279.847 182.901 277.312 187.692 277.182C192.275 277.059 196.735 279.27 198.956 282.978C202.733 289.335 210.49 293.341 218.823 293.116C224.663 293.138 230.108 290.927 233.942 287.415Z" fill="#3D7BB5"/>
<path d="M233.942 328.72C235.657 327.149 237.05 325.317 238.02 323.317L229.461 320.229C227.617 323.957 223.434 326.492 218.643 326.622C213.952 326.659 209.6 324.534 207.379 320.826C203.602 314.469 195.845 310.463 187.512 310.688C179.179 310.913 171.729 315.331 168.423 321.879C166.578 325.607 162.396 328.142 157.604 328.271C153.021 328.395 148.561 326.183 146.341 322.476C142.564 316.119 134.806 312.113 126.473 312.338C118.14 312.563 110.69 316.981 107.385 323.529C105.54 327.257 101.357 329.792 96.5659 329.921C91.9828 330.045 87.523 327.833 85.3024 324.126L76.9864 327.669C80.7634 334.026 88.521 338.033 96.8539 337.807C105.187 337.582 112.637 333.165 115.943 326.617C117.788 322.889 121.97 320.354 126.761 320.224C131.344 320.1 135.804 322.312 138.025 326.02C141.802 332.376 149.559 336.383 157.892 336.158C166.225 335.932 173.675 331.515 176.874 324.88C178.719 321.152 182.901 318.617 187.692 318.488C192.275 318.364 196.735 320.576 198.956 324.283C202.733 330.64 210.49 334.646 218.823 334.421C224.663 334.443 230.108 332.232 233.942 328.72Z" fill="#3D7BB5"/>
<path d="M233.942 370.025C235.657 368.454 237.05 366.622 238.02 364.622L229.461 361.534C227.617 365.262 223.434 367.797 218.643 367.927C213.952 367.964 209.6 365.839 207.379 362.131C203.602 355.775 195.845 351.768 187.512 351.993C179.179 352.219 171.729 356.636 168.423 363.184C166.578 366.912 162.396 369.447 157.604 369.577C153.021 369.7 148.561 367.489 146.341 363.781C142.564 357.424 134.806 353.418 126.473 353.643C118.14 353.868 110.69 358.286 107.385 364.834C105.54 368.562 101.357 371.097 96.5659 371.226C91.9828 371.35 87.523 369.138 85.3024 365.431L76.9864 368.975C80.7634 375.331 88.521 379.338 96.8539 379.113C105.187 378.887 112.637 374.47 115.943 367.922C117.788 364.194 121.97 361.659 126.761 361.529C131.344 361.405 135.804 363.617 138.025 367.325C141.802 373.682 149.559 377.688 157.892 377.463C166.225 377.238 173.675 372.82 176.874 366.185C178.719 362.457 182.901 359.922 187.692 359.793C192.275 359.669 196.735 361.881 198.956 365.588C202.733 371.945 210.49 375.952 218.823 375.726C224.663 375.748 230.108 373.538 233.942 370.025Z" fill="#3D7BB5"/>
<path d="M356.491 407.022C358.206 405.451 359.599 403.619 360.568 401.619L352.01 398.531C350.165 402.259 345.983 404.794 341.192 404.924C336.501 404.961 332.149 402.836 329.928 399.128C326.151 392.771 318.394 388.765 310.061 388.99C301.728 389.215 294.278 393.633 290.972 400.181C289.127 403.909 284.945 406.444 280.153 406.573C275.57 406.697 271.11 404.485 268.89 400.778C265.113 394.421 257.355 390.415 249.022 390.64C240.689 390.865 233.239 395.283 229.933 401.831C228.088 405.559 223.906 408.094 219.115 408.223C214.532 408.347 210.072 406.135 207.851 402.428L199.535 405.971C203.312 412.328 211.07 416.335 219.403 416.109C227.736 415.884 235.186 411.467 238.491 404.919C240.336 401.191 244.519 398.656 249.31 398.526C253.893 398.402 258.353 400.614 260.574 404.322C264.351 410.678 272.108 414.685 280.441 414.46C288.774 414.234 296.224 409.817 299.423 403.182C301.267 399.454 305.45 396.919 310.241 396.79C314.824 396.666 319.284 398.878 321.505 402.585C325.282 408.942 333.039 412.948 341.372 412.723C347.212 412.745 352.657 410.534 356.491 407.022Z" fill="#3D7BB5"/>
<path d="M356.491 448.327C358.206 446.756 359.599 444.924 360.568 442.924L352.01 439.836C350.165 443.564 345.983 446.099 341.192 446.229C336.501 446.266 332.149 444.141 329.928 440.433C326.151 434.077 318.394 430.07 310.061 430.295C301.728 430.521 294.278 434.938 290.972 441.486C289.127 445.214 284.945 447.749 280.153 447.879C275.57 448.002 271.11 445.791 268.89 442.083C265.113 435.726 257.355 431.72 249.022 431.945C240.689 432.17 233.239 436.588 229.933 443.136C228.088 446.864 223.906 449.399 219.115 449.528C214.532 449.652 210.072 447.44 207.851 443.733L199.535 447.277C203.312 453.633 211.07 457.64 219.403 457.415C227.736 457.189 235.186 452.772 238.491 446.224C240.336 442.496 244.519 439.961 249.31 439.831C253.893 439.707 258.353 441.919 260.574 445.627C264.351 451.984 272.108 455.99 280.441 455.765C288.774 455.54 296.224 451.122 299.423 444.487C301.267 440.759 305.45 438.224 310.241 438.095C314.824 437.971 319.284 440.183 321.505 443.89C325.282 450.247 333.039 454.254 341.372 454.028C347.212 454.05 352.657 451.84 356.491 448.327Z" fill="#3D7BB5"/>
<path d="M356.491 489.633C358.206 488.061 359.599 486.229 360.568 484.23L352.01 481.142C350.165 484.87 345.983 487.405 341.192 487.534C336.501 487.571 332.149 485.446 329.928 481.739C326.151 475.382 318.394 471.375 310.061 471.601C301.728 471.826 294.278 476.243 290.972 482.792C289.127 486.519 284.945 489.054 280.153 489.184C275.57 489.308 271.11 487.096 268.89 483.388C265.113 477.032 257.355 473.025 249.022 473.25C240.689 473.476 233.239 477.893 229.933 484.441C228.088 488.169 223.906 490.704 219.115 490.834C214.532 490.958 210.072 488.746 207.851 485.038L199.535 488.582C203.312 494.939 211.07 498.945 219.403 498.72C227.736 498.495 235.186 494.077 238.491 487.529C240.336 483.801 244.519 481.266 249.31 481.137C253.893 481.013 258.353 483.225 260.574 486.932C264.351 493.289 272.108 497.296 280.441 497.07C288.774 496.845 296.224 492.428 299.423 485.793C301.267 482.065 305.45 479.53 310.241 479.4C314.824 479.276 319.284 481.488 321.505 485.196C325.282 491.552 333.039 495.559 341.372 495.334C347.212 495.355 352.657 493.145 356.491 489.633Z" fill="#3D7BB5"/>
</g>
<path d="M53.3337 147.672C43.8148 135.944 39.6944 112.462 42.2816 86.4031C44.0192 69.6343 48.4703 53.9397 54.8633 42.4025C61.8426 29.5706 70.7789 22.9317 79.7216 23.8646C84.4165 24.3543 89.003 26.9797 92.6102 31.424C102.029 43.0285 106.25 66.6337 103.662 92.6928C101.925 109.462 97.4738 125.156 91.0807 136.693C84.1015 149.525 75.1651 156.164 66.2224 155.231C61.304 154.718 56.9409 152.116 53.3337 147.672ZM84.7147 37.8324C82.7107 35.3633 80.6911 34.1357 78.679 33.9258C74.2077 33.4594 68.4864 38.5126 63.6357 47.1596C57.929 57.5253 53.9639 71.8017 52.3421 87.4525C49.6084 113.835 54.7933 133.586 61.1059 141.364C63.0097 143.709 65.1295 145.06 67.1416 145.27C71.613 145.737 77.3342 140.683 82.1849 132.036C87.8916 121.671 91.8568 107.394 93.4785 91.7435C96.2123 65.3607 91.0273 45.6098 84.7147 37.8324Z" fill="#3D7BB5"/>
<path d="M66.1383 106.676C62.8467 102.62 61.4942 97.6028 62.1013 92.4216L62.8666 85.8888C64.1335 75.0758 73.8461 67.1926 84.6884 68.1771L97.3378 69.3257C98.6931 69.4488 100.248 69.8177 101.677 70.2889L105.085 71.3952L105.015 74.9176C105.006 80.8362 104.746 86.9595 104.033 93.0418C103.32 99.124 102.282 105.063 100.792 110.961L100.044 114.422L96.4506 114.892C94.9428 115.097 93.4613 115.076 91.9799 115.055L79.3306 113.907C74.062 113.087 69.4298 110.731 66.1383 106.676ZM94.8212 79.1145L83.5272 78.089C78.3319 77.6172 73.5386 81.5077 72.9316 86.6889L72.1662 93.2217C71.5855 98.1777 75.4755 102.97 80.5446 103.544L91.8387 104.57C92.6658 100.433 93.3932 96.1737 93.8947 91.8936C94.3962 87.6134 94.6718 83.3128 94.8212 79.1145Z" fill="#3D7BB5"/>
<path d="M74.8641 142.028C106.601 108.667 144.898 113.539 147.917 113.965L159.816 115.197L141.536 147.909C140.156 150.262 141.098 153.196 143.45 154.574C145.803 155.952 148.738 155.008 150.118 152.655L170.492 116.188L180.82 117.257C183.738 117.56 186.774 116.739 189.129 114.827C191.485 112.916 192.889 110.338 193.217 107.195L194.318 96.6441C194.951 90.5829 190.427 85.009 184.366 84.3815L151.363 80.965C148.196 80.8641 109.735 77.5633 85.6694 38.5388L94.284 33.1904C116.231 68.592 151.744 70.7933 152.193 70.8398L152.418 70.863L185.42 74.2796C197.095 75.4881 205.64 86.0166 204.421 97.69L203.32 108.241C202.734 113.853 199.926 119.008 195.587 122.53C191.124 126.153 185.625 127.739 180.013 127.158L176.196 126.763L159.049 157.323C155.008 164.507 145.877 167.192 138.596 163.035C131.414 159.001 128.736 149.874 132.901 142.59L143.766 123.292C134.638 122.688 106.324 123.274 82.337 148.701L74.8641 142.028Z" fill="#3D7BB5"/>
<defs>
<clipPath id="clip0_1_1022">
<rect width="94" height="102" fill="white" transform="matrix(-1 0 0 1 185.119 100)"/>
</clipPath>
</defs>
</svg>
